<?xml version="1.0" encoding="utf-8"?>
<!-- Generator: Adobe Illustrator 19.1.0, SVG Export Plug-In . SVG Version: 6.00 Build 0)  -->
<!DOCTYPE svg PUBLIC "-//W3C//DTD SVG 1.1//EN" "http://www.w3.org/Graphics/SVG/1.1/DTD/svg11.dtd">
<svg version="1.1" xmlns="http://www.w3.org/2000/svg" xmlns:xlink="http://www.w3.org/1999/xlink" x="0px" y="0px"
	 viewBox="0 0 142.3 111.2" style="enable-background:new 0 0 142.3 111.2;" xml:space="preserve">
<style type="text/css">
	.st0{fill:#27AAE1;}
	.st1{display:none;}
	.st2{display:inline;}
	.st3{display:inline;fill:#27AAE1;}
</style>
<g id="Layer_1">
	<g>
		<path class="st0" d="M72.1,110.2H60.8c-0.3,0-0.5-0.2-0.6-0.5l-1.7-8c-1.3-0.3-2.5-0.6-3.7-1l-5.5,6c-0.2,0.2-0.5,0.3-0.7,0.1
			l-9.8-5.7c0,0-0.1,0-0.1-0.1H26.4l-5.3,3.4c-0.3,0.2-0.6,0.1-0.8-0.2c-0.2-0.3-0.1-0.6,0.2-0.8l5.4-3.5c0.1-0.1,0.2-0.1,0.3-0.1
			h12.5l1.3-4H22.5c-0.2,0-0.3-0.1-0.5-0.2l-9.6-11.6l-6.3-0.3c-0.4,1.2-1.6,2-2.9,2c-1.7,0-3.1-1.4-3.1-3.1c0-1.7,1.4-3.1,3.1-3.1
			c1.6,0,3,1.3,3.1,2.9l6.4,0.3c0.2,0,0.3,0.1,0.4,0.2l9.6,11.6h17.6l0.6-2c-1-0.9-1.9-1.8-2.7-2.7l-7.8,2.5c-0.3,0.1-0.6,0-0.7-0.3
			l-5.6-9.8c-0.1-0.2-0.1-0.5,0.1-0.7l6-5.5c-0.4-1.3-0.7-2.5-1-3.7l-8-1.7c-0.3-0.1-0.5-0.3-0.5-0.6V59c0-0.3,0.2-0.5,0.5-0.6
			l8-1.7c0.2-1.2,0.6-2.4,1-3.7l-6-5.5c-0.2-0.2-0.3-0.5-0.1-0.7l5.6-9.8c0.1-0.2,0.4-0.4,0.7-0.3l7.8,2.5c0.9-0.9,1.8-1.8,2.7-2.7
			l-2.5-7.8c-0.1-0.3,0-0.6,0.3-0.7l9.8-5.7c0.2-0.1,0.5-0.1,0.7,0.1l5.5,6c1.2-0.4,2.4-0.7,3.7-1l1.7-8c0.1-0.3,0.3-0.5,0.6-0.5
			h11.3c0.3,0,0.5,0.2,0.6,0.5l1.7,8c1.3,0.3,2.5,0.6,3.7,1l5.5-6c0.2-0.2,0.5-0.3,0.7-0.1l9.8,5.7c0.2,0.1,0.4,0.4,0.3,0.7
			l-2.5,7.8c0.9,0.9,1.8,1.8,2.7,2.7l4.9-1.6v-1.9c0-0.3,0.3-0.6,0.6-0.6c0.3,0,0.6,0.3,0.6,0.6v27c0,0.2-0.2,0.5-0.4,0.6
			c-8.2,3-13.7,10.7-13.7,19.1c0,11.3,9.6,20.5,21.4,20.5c6.4,0,12.4-2.7,16.5-7.5V69.5l-0.2-0.2c-2.3-2.6-5.3-4.7-8.7-5.9
			c-0.2-0.1-0.4-0.3-0.4-0.6v-27c0-0.3,0.3-0.6,0.6-0.6c0.3,0,0.6,0.3,0.6,0.6v26.6c3,1.2,5.8,3,8.1,5.3v-3.5c0-0.3,0.3-0.6,0.6-0.6
			c0.3,0,0.6,0.3,0.6,0.6v31.5c0,0,0,0,0,0v4c0,4.3,3,7.8,6.6,7.8s6.6-3.5,6.6-7.8V64.2c0-0.3,0.3-0.6,0.6-0.6
			c0.3,0,0.6,0.3,0.6,0.6v35.5c0,4.9-3.5,9-7.8,9s-7.8-4-7.8-9v-2.4c-4.3,4.4-10.2,6.9-16.5,6.9c-5.2,0-10-1.7-13.9-4.6l0.3,1
			c0.1,0.3,0,0.6-0.3,0.7l-9.8,5.7c-0.2,0.1-0.5,0.1-0.7-0.1l-5.5-6c-1.2,0.4-2.4,0.7-3.7,1l-1.7,8C72.7,110,72.4,110.2,72.1,110.2z
			 M61.3,109h10.3l1.7-7.9c0.1-0.2,0.2-0.4,0.5-0.5c1.5-0.3,2.9-0.7,4.3-1.2c0.2-0.1,0.5,0,0.6,0.2l5.4,6l9-5.2l-0.7-2.3
			c-4.3-4-7-9.5-7-15.7c0-8.8,5.7-16.8,14.1-20.1V38.9l-4.9,1.6c-0.2,0.1-0.5,0-0.6-0.2c-1-1.1-2-2.1-3.1-3.1
			c-0.2-0.2-0.2-0.4-0.2-0.6l2.5-7.7l-9-5.2l-5.4,6c-0.2,0.2-0.4,0.2-0.6,0.2c-1.3-0.5-2.8-0.8-4.3-1.2c-0.2,0-0.4-0.2-0.5-0.5
			l-1.7-7.9H61.3l-1.7,7.9c-0.1,0.2-0.2,0.4-0.5,0.5c-1.5,0.3-3,0.7-4.3,1.1c-0.2,0.1-0.5,0-0.6-0.2l-5.4-6l-9,5.2l2.4,7.7
			c0.1,0.2,0,0.5-0.2,0.6c-1.1,1-2.1,2-3.1,3.1c-0.2,0.2-0.4,0.2-0.6,0.2L30.7,38l-5.2,9l6,5.4c0.2,0.2,0.2,0.4,0.2,0.6
			c-0.5,1.6-0.9,3-1.2,4.3c0,0.2-0.2,0.4-0.5,0.5l-7.9,1.7v10.3l7.9,1.7c0.2,0.1,0.4,0.2,0.5,0.5c0.3,1.3,0.6,2.7,1.2,4.3
			c0.1,0.2,0,0.5-0.2,0.6l-6,5.4l5.2,9l7.7-2.5c0.2-0.1,0.5,0,0.6,0.2c0.9,1.1,2,2.1,3.1,3.1c0.2,0.2,0.2,0.4,0.2,0.6l-2.4,7.6
			c0,0,0,0.1,0,0.1l8.9,5.2l5.4-6c0.2-0.2,0.4-0.2,0.6-0.2c1.4,0.5,2.8,0.9,4.3,1.2c0.2,0,0.4,0.2,0.5,0.5L61.3,109z M3.4,81
			c-1,0-1.9,0.8-1.9,1.9c0,1,0.8,1.9,1.9,1.9c0.8,0,1.5-0.6,1.8-1.3c0,0,0-0.1,0-0.1c0-0.1,0-0.2,0.1-0.3c0,0,0-0.1,0-0.1
			C5.2,81.8,4.4,81,3.4,81z M66.5,83.6c-10.4,0-18.9-8.5-18.9-18.9c0-10.4,8.5-18.9,18.9-18.9c10.4,0,18.9,8.5,18.9,18.9
			C85.4,75.1,76.9,83.6,66.5,83.6z M66.5,47c-9.8,0-17.7,7.9-17.7,17.7c0,9.8,7.9,17.7,17.7,17.7c9.8,0,17.7-7.9,17.7-17.7
			C84.2,54.9,76.3,47,66.5,47z M106,22.6c-2.1,0-3.9-1.7-3.9-3.9c0-2.1,1.7-3.9,3.9-3.9c2.1,0,3.9,1.7,3.9,3.9
			C109.9,20.8,108.1,22.6,106,22.6z M106,16c-1.5,0-2.7,1.2-2.7,2.7c0,1.5,1.2,2.7,2.7,2.7c1.5,0,2.7-1.2,2.7-2.7
			C108.7,17.2,107.5,16,106,16z M110.6,12.9c-1.5,0-2.7-1.2-2.7-2.7c0-1.5,1.2-2.7,2.7-2.7s2.7,1.2,2.7,2.7
			C113.3,11.7,112.1,12.9,110.6,12.9z M110.6,8.7c-0.8,0-1.5,0.7-1.5,1.5c0,0.8,0.7,1.5,1.5,1.5s1.5-0.7,1.5-1.5
			C112.1,9.3,111.5,8.7,110.6,8.7z M105.1,5.5c-1.2,0-2.3-1-2.3-2.3s1-2.3,2.3-2.3s2.3,1,2.3,2.3S106.3,5.5,105.1,5.5z M105.1,2.2
			c-0.6,0-1.1,0.5-1.1,1.1s0.5,1.1,1.1,1.1s1.1-0.5,1.1-1.1S105.7,2.2,105.1,2.2z"/>
		<path class="st0" d="M18.9,108.6c-1.7,0-3.1-1.4-3.1-3.1c0-1.7,1.4-3.1,3.1-3.1c1.7,0,3.1,1.4,3.1,3.1
			C22,107.2,20.6,108.6,18.9,108.6z M18.9,103.7c-1,0-1.9,0.8-1.9,1.9c0,1,0.8,1.9,1.9,1.9c1,0,1.9-0.8,1.9-1.9
			C20.8,104.5,19.9,103.7,18.9,103.7z M132.3,65.5c-4.5,0-9-1.1-9-3.3c0-2.2,4.5-3.3,9-3.3c4.5,0,9,1.1,9,3.3
			C141.3,64.3,136.8,65.5,132.3,65.5z M132.3,60c-4.8,0-7.8,1.3-7.8,2.1s3.1,2.1,7.8,2.1c4.8,0,7.8-1.3,7.8-2.1S137.1,60,132.3,60z
			 M108,37c-4.7,0-9.8-1-9.8-3.1c0-2.2,5.1-3.1,9.8-3.1c4.7,0,9.8,1,9.8,3.1C117.7,36,112.7,37,108,37z M108,31.9
			c-5.3,0-8.6,1.3-8.6,2c0,0.7,3,2,8.6,2c5.5,0,8.6-1.3,8.6-2C116.5,33.2,113.5,31.9,108,31.9z"/>
	</g>
</g>
<g id="Layer_5" class="st1">
	<g class="st2">
		<path class="st0" d="M680.3,268.4h-72.1c-0.3,0-0.6-0.3-0.6-0.6v-86.7c0-0.3,0.3-0.6,0.6-0.6h71.9c0.3,0,0.6,0.3,0.6,0.6l0,19.1
			c1.5-0.7,3-1.2,4.7-1.5v-5c0-0.3,0.3-0.6,0.6-0.6h8c0.3,0,0.6,0.3,0.6,0.6v5c5,0.8,9.4,2.7,13.5,6c0.2,0.2,0.3,0.6,0.1,0.8
			l-4.7,6.6c-0.1,0.1-0.2,0.2-0.4,0.2c-0.2,0-0.3,0-0.5-0.1c-4.5-3.3-8.8-5-13.1-5c-4.5,0-7.5,2.1-7.5,5.3v0.1
			c0,3.3,1.7,4.9,11.3,7.2c0,0,0,0,0,0c11.6,2.8,16.4,7.2,16.4,15.1v0.1c0,8.4-5.8,14.2-15.2,15.2v5.1c0,0.3-0.3,0.6-0.6,0.6h-8
			c-0.3,0-0.6-0.3-0.6-0.6v-5.5c-1.6-0.3-3.1-0.7-4.7-1.3l0,19.3c0,0.2-0.1,0.3-0.2,0.4C680.6,268.3,680.4,268.4,680.3,268.4z
			 M608.8,267.2h70.9l0-19.5c0,0,0,0,0,0l0-9c0,0,0,0,0,0l0-13.5c0,0,0,0,0,0l0-24c0,0,0,0,0,0l0-19.4h-70.7V267.2z M686.7,254.7
			h6.8v-5c0-0.3,0.2-0.6,0.5-0.6c9-0.8,14.7-6.2,14.7-14.1v-0.1c0-7.3-4.3-11.2-15.5-13.9l0,0c-9.6-2.3-12.2-4.1-12.2-8.4v-0.1
			c0-3.8,3.6-6.5,8.7-6.5c4.4,0,8.8,1.6,13.3,4.9l4-5.6c-3.9-3-8.2-4.8-13-5.5c-0.3,0-0.5-0.3-0.5-0.6v-4.9h-6.8v4.9
			c0,0.3-0.2,0.5-0.5,0.6c-2,0.3-3.8,0.9-5.4,1.8l0,23.2c2.2,1,4.9,1.9,8.7,2.8c8.9,2.1,11.6,4,11.6,8.2v0.1c0,4.1-3.7,6.8-9.4,6.8
			c-4,0-7.5-0.9-10.9-2.9l0,7.5c1.7,0.7,3.5,1.2,5.4,1.5c0.3,0,0.5,0.3,0.5,0.6V254.7z M680.8,238.3c3.5,2.1,7,3.1,10.9,3.1
			c5,0,8.2-2.2,8.2-5.6v-0.1c0-3.1-1.6-4.9-10.7-7c-3.6-0.9-6.3-1.7-8.4-2.7L680.8,238.3z M666.3,259.8h-7.9c-1.9,0-3.4-1.5-3.4-3.4
			c0-1.9,1.5-3.4,3.4-3.4h7.9c1.9,0,3.4,1.5,3.4,3.4C669.7,258.3,668.2,259.8,666.3,259.8z M658.4,254.2c-1.2,0-2.2,1-2.2,2.2
			s1,2.2,2.2,2.2h7.9c1.2,0,2.2-1,2.2-2.2s-1-2.2-2.2-2.2H658.4z M648.2,259.8h-7.9c-1.9,0-3.4-1.5-3.4-3.4c0-1.9,1.5-3.4,3.4-3.4
			h7.9c1.9,0,3.4,1.5,3.4,3.4C651.6,258.3,650.1,259.8,648.2,259.8z M640.3,254.2c-1.2,0-2.2,1-2.2,2.2s1,2.2,2.2,2.2h7.9
			c1.2,0,2.2-1,2.2-2.2s-1-2.2-2.2-2.2H640.3z M630.1,259.8h-7.9c-1.9,0-3.4-1.5-3.4-3.4c0-1.9,1.5-3.4,3.4-3.4h7.9
			c1.9,0,3.4,1.5,3.4,3.4C633.5,258.3,632,259.8,630.1,259.8z M622.2,254.2c-1.2,0-2.2,1-2.2,2.2s1,2.2,2.2,2.2h7.9
			c1.2,0,2.2-1,2.2-2.2s-1-2.2-2.2-2.2H622.2z M666.3,248.7h-7.9c-1.9,0-3.4-1.5-3.4-3.4c0-1.9,1.5-3.4,3.4-3.4h7.9
			c1.9,0,3.4,1.5,3.4,3.4C669.7,247.1,668.2,248.7,666.3,248.7z M658.4,243c-1.2,0-2.2,1-2.2,2.2c0,1.2,1,2.2,2.2,2.2h7.9
			c1.2,0,2.2-1,2.2-2.2c0-1.2-1-2.2-2.2-2.2H658.4z M648.2,248.7h-7.9c-1.9,0-3.4-1.5-3.4-3.4c0-1.9,1.5-3.4,3.4-3.4h7.9
			c1.9,0,3.4,1.5,3.4,3.4C651.6,247.1,650.1,248.7,648.2,248.7z M640.3,243c-1.2,0-2.2,1-2.2,2.2c0,1.2,1,2.2,2.2,2.2h7.9
			c1.2,0,2.2-1,2.2-2.2c0-1.2-1-2.2-2.2-2.2H640.3z M630.1,248.7h-7.9c-1.9,0-3.4-1.5-3.4-3.4c0-1.9,1.5-3.4,3.4-3.4h7.9
			c1.9,0,3.4,1.5,3.4,3.4C633.5,247.1,632,248.7,630.1,248.7z M622.2,243c-1.2,0-2.2,1-2.2,2.2c0,1.2,1,2.2,2.2,2.2h7.9
			c1.2,0,2.2-1,2.2-2.2c0-1.2-1-2.2-2.2-2.2H622.2z M666.3,237.5h-7.9c-1.9,0-3.4-1.5-3.4-3.4c0-1.9,1.5-3.4,3.4-3.4h7.9
			c1.9,0,3.4,1.5,3.4,3.4C669.7,236,668.2,237.5,666.3,237.5z M658.4,231.9c-1.2,0-2.2,1-2.2,2.2s1,2.2,2.2,2.2h7.9
			c1.2,0,2.2-1,2.2-2.2s-1-2.2-2.2-2.2H658.4z M648.2,237.5h-7.9c-1.9,0-3.4-1.5-3.4-3.4c0-1.9,1.5-3.4,3.4-3.4h7.9
			c1.9,0,3.4,1.5,3.4,3.4C651.6,236,650.1,237.5,648.2,237.5z M640.3,231.9c-1.2,0-2.2,1-2.2,2.2s1,2.2,2.2,2.2h7.9
			c1.2,0,2.2-1,2.2-2.2s-1-2.2-2.2-2.2H640.3z M630.1,237.5h-7.9c-1.9,0-3.4-1.5-3.4-3.4c0-1.9,1.5-3.4,3.4-3.4h7.9
			c1.9,0,3.4,1.5,3.4,3.4C633.5,236,632,237.5,630.1,237.5z M622.2,231.9c-1.2,0-2.2,1-2.2,2.2s1,2.2,2.2,2.2h7.9
			c1.2,0,2.2-1,2.2-2.2s-1-2.2-2.2-2.2H622.2z M718.9,236.6c-0.1,0-0.3-0.1-0.4-0.2l-5.2-4.9c-0.1-0.1-0.2-0.3-0.2-0.4
			s0.1-0.3,0.2-0.4l4.8-5.1c0.2-0.2,0.6-0.2,0.8,0c0.2,0.2,0.2,0.6,0,0.8l-3.9,4.1l19.9,0c0.3,0,0.6,0.3,0.6,0.6s-0.3,0.6-0.6,0.6
			l-19.7,0l4.1,3.9c0.2,0.2,0.2,0.6,0,0.8C719.3,236.6,719.1,236.6,718.9,236.6z M729.8,225.3c-0.2,0-0.3-0.1-0.4-0.2
			c-0.2-0.2-0.2-0.6,0-0.8l4.1-3.9l-19.7,0c-0.3,0-0.6-0.3-0.6-0.6s0.3-0.6,0.6-0.6l19.9,0l-3.9-4.1c-0.2-0.2-0.2-0.6,0-0.8
			c0.2-0.2,0.6-0.2,0.8,0l4.8,5.1c0.1,0.1,0.2,0.3,0.2,0.4c0,0.2-0.1,0.3-0.2,0.4l-5.2,4.9C730.1,225.2,729.9,225.3,729.8,225.3z
			 M669.9,220.3h-51.4c-0.3,0-0.6-0.3-0.6-0.6v-30.9c0-0.3,0.3-0.6,0.6-0.6h51.4c0.3,0,0.6,0.3,0.6,0.6v30.9
			C670.5,220,670.3,220.3,669.9,220.3z M619.2,219.1h50.2v-29.7h-50.2V219.1z"/>
	</g>
</g>
<g id="Layer_4" class="st1">
	<g class="st2">
		<path class="st0" d="M553.7,66.3h-65.2c-0.3,0-0.6-0.3-0.6-0.6v-5.5l-47.2,0c-0.2,0-0.3-0.1-0.4-0.2c-0.1-0.1-0.2-0.3-0.2-0.4
			v-73.3c0-0.3,0.3-0.6,0.6-0.6h33.5l0-22.6c0-0.3,0.3-0.6,0.6-0.6h21.6c0.3,0,0.6,0.3,0.6,0.6V0.5c4.1-2,21-9.3,36.6,1.5
			c0.2,0.1,0.3,0.3,0.3,0.5l0,34.8c0,0.1,0,0.1,0,0.2c6.3,4.9,10.4,12.3,10.5,20.5c8.5,1.9,9.9,7.3,10,7.5c0,0.2,0,0.4-0.1,0.5
			C554,66.2,553.9,66.3,553.7,66.3z M489,65.1h63.8c-0.7-1.5-3-4.7-9.3-6c-0.3-0.1-0.5-0.3-0.5-0.6c0,0,0,0,0-0.1c0,0,0-0.1,0-0.1
			c0-0.1,0-0.1,0-0.2c-0.2-14-12.3-25.4-27-25.4c-14.9,0-27,11.6-27,25.8V59c0.1,0,0.1,0,0.2,0h20.5v-2.1c0-0.3,0.3-0.6,0.6-0.6h7.2
			c0.3,0,0.6,0.3,0.6,0.6V59h18.9c0.3,0,0.6,0.3,0.6,0.6s-0.3,0.6-0.6,0.6h-47.9c-0.1,0-0.1,0-0.2,0V65.1z M441.2,33.7v25.4l46.6,0
			v-0.5c0-7.3,3-13.9,7.9-18.8c0,0,0-0.1,0-0.1v-75.9h-20.4l0,22.5c0,0,0,0,0,0.1v53.4c0,0.3-0.3,0.6-0.6,0.6
			c-0.2,0-0.3-0.1-0.4-0.2c-0.1-0.1-0.2-0.3-0.2-0.4l0-52.8h-32.9V6.4h15.1c0.3,0,0.6,0.3,0.6,0.6s-0.3,0.6-0.6,0.6h-15.1v5.3h15.1
			c0.3,0,0.6,0.3,0.6,0.6s-0.3,0.6-0.6,0.6h-15.1v5.3h15.1c0.3,0,0.6,0.3,0.6,0.6s-0.3,0.6-0.6,0.6h-15.1V26h15.1
			c0.3,0,0.6,0.3,0.6,0.6s-0.3,0.6-0.6,0.6h-15.1v5.3h15.1c0.3,0,0.6,0.3,0.6,0.6s-0.3,0.6-0.6,0.6H441.2z M510.9,58.9h6v-1.4h-6
			V58.9z M496.9,1.8v36.8c5-4.4,11.8-7.2,19.1-7.2c6.1,0,11.9,1.9,16.5,5.2l0-33.8C516.7-7.9,499.4,0.5,496.9,1.8z M533.8,47
			c-0.2,0-0.4-0.1-0.5-0.2c-4.1-5.5-10.8-8.8-17.9-8.8c-2.7,0-5.3,0.5-7.8,1.4c-0.3,0.1-0.7,0-0.8-0.4c-0.1-0.3,0-0.7,0.4-0.8
			c2.6-1,5.4-1.4,8.2-1.4c7.5,0,14.5,3.5,18.8,9.3c0.2,0.3,0.1,0.6-0.1,0.8C534,46.9,533.9,47,533.8,47z M486.7-38.8
			c-0.6,0-0.6-0.6-0.6-1c0-1.3,0.5-5.5,7.2-5.7c5.4-0.7,7.2-2.3,7-6.2c0-0.3,0.2-0.6,0.6-0.6c0.4,0,0.6,0.2,0.6,0.6
			c0.2,4.6-2.1,6.7-8.1,7.5c-2.5,0.1-4.3,0.7-5.2,1.9c-1.1,1.3-0.9,2.8-0.9,2.9c0,0,0,0.1,0,0.1C487.3-39.1,487.1-38.8,486.7-38.8z
			 M481-38.9c-0.3,0-0.6-0.2-0.6-0.5c0-0.1-1-7.9,7.3-9.1c0.5-0.1,1.1-0.1,1.7-0.2c3.5-0.3,6-0.8,6.3-3.6c0-0.3,0.3-0.6,0.7-0.5
			c0.3,0,0.6,0.3,0.5,0.7c-0.4,4.1-4.4,4.4-7.4,4.7c-0.6,0.1-1.2,0.1-1.7,0.2c-7.2,1-6.3,7.5-6.3,7.7C481.6-39.3,481.4-39,481-38.9
			C481-38.9,481-38.9,481-38.9z"/>
	</g>
</g>
<g id="Layer_3" class="st1">
	<g class="st2">
		<path class="st0" d="M706.3,53.7c-3,0-5.4-2.4-5.4-5.4c0-2.4,1.5-4.4,3.6-5.1L701,31c-0.4,0.1-0.7,0.2-1.1,0.2
			c-1.1,0.3-2.3,0.4-3.5,0.4h-52.1v4.5c0,0.3-0.3,0.6-0.6,0.6h-25.6c-0.3,0-0.6-0.3-0.6-0.6v-4.9c-12.8-0.7-22.7-11.2-22.7-23.9
			c0-13.2,10.8-24,24-24c1.7,0,3.4,0.2,5.2,0.6c5.6-10.7,16.7-17.3,29-17.3c14.9,0,27.7,9.7,31.5,23.7c3.5-2.2,7.5-3.3,11.7-3.3
			c6.5,0,12.4,2.8,16.5,7.3l9.4-8.6c-0.8-0.8-1.3-2-1.3-3.3c0-2.6,2.1-4.7,4.7-4.7s4.7,2.1,4.7,4.7s-2.1,4.7-4.7,4.7
			c-0.9,0-1.7-0.2-2.4-0.7l-9.5,8.8c3.2,3.9,5.1,8.8,5.1,14.2c0,10.1-6.7,18.8-16.2,21.4l3.5,12.1c0.2,0,0.4,0,0.7,0
			c3,0,5.4,2.4,5.4,5.4S709.3,53.7,706.3,53.7z M706.3,44c-2.3,0-4.2,1.9-4.2,4.2c0,2.3,1.9,4.2,4.2,4.2c2.3,0,4.2-1.9,4.2-4.2
			C710.6,45.9,708.7,44,706.3,44z M618.7,35.5h24.4V14.4h-24.4V35.5z M644.3,30.4h52.1c1.1,0,2.2-0.1,3.3-0.4c0.3-0.1,0.7-0.1,1-0.2
			l-2.8-9.8c-1,0.3-2,0.4-3.1,0.4c-6.3,0-11.4-5.1-11.4-11.4c0-0.4,0-0.8,0.1-1.2l-14.4-3.9c-0.6,1.9-2.4,3.2-4.5,3.2
			c-2.6,0-4.7-2.1-4.7-4.7s2.1-4.7,4.7-4.7s4.7,2.1,4.7,4.7c0,0.1,0,0.2,0,0.3l14.3,3.9c1.1-5.1,5.7-9,11.1-9c3.7,0,7,1.8,9.1,4.5
			c0,0,0,0,0,0l7.8-7.1c-3.9-4.2-9.4-6.9-15.6-6.9c-4.2,0-8.2,1.2-11.7,3.6c-0.2,0.1-0.4,0.1-0.6,0.1c-0.2-0.1-0.3-0.2-0.4-0.4
			c-3.3-13.9-15.9-23.6-30.5-23.6c-12,0-22.8,6.6-28.1,17.1c-0.1,0.2-0.4,0.4-0.7,0.3c-1.8-0.4-3.6-0.7-5.3-0.7
			C606.2-15.5,596-5.3,596,7.2c0,12.1,9.4,22.1,21.5,22.7V13.8c0-0.3,0.3-0.6,0.6-0.6h4v-2.3c0-5.1,4-9.3,8.8-9.3
			c4.9,0,8.8,4.2,8.8,9.3v2.3h4c0.3,0,0.6,0.3,0.6,0.6V30.4z M699,19.6l2.9,9.9c9-2.5,15.3-10.8,15.3-20.3c0-5.1-1.8-9.7-4.8-13.3
			L704.7,3c-0.1,0-0.1,0.1-0.2,0.1c1.1,1.7,1.7,3.8,1.7,5.9C706.2,13.8,703.2,18,699,19.6z M694.8-1.2c-5.6,0-10.2,4.6-10.2,10.2
			c0,5.6,4.6,10.2,10.2,10.2c5.6,0,10.2-4.6,10.2-10.2C705,3.4,700.4-1.2,694.8-1.2z M623.3,13.2h15.3v-2.3c0-4.5-3.4-8.1-7.6-8.1
			c-4.2,0-7.6,3.6-7.6,8.1V13.2z M664.6-1.1c-1.9,0-3.5,1.6-3.5,3.5s1.6,3.5,3.5,3.5c1.7,0,3.1-1.2,3.4-2.8c0-0.1,0-0.1,0-0.2
			c0,0,0-0.1,0-0.1c0-0.2,0-0.3,0-0.5C668.1,0.5,666.5-1.1,664.6-1.1z M725.2-21.2c-1.9,0-3.5,1.6-3.5,3.5s1.6,3.5,3.5,3.5
			s3.5-1.6,3.5-3.5S727.2-21.2,725.2-21.2z M630.9,28c-1.6,0-2.9-1.3-2.9-2.9c0-1.6,1.3-2.9,2.9-2.9s2.9,1.3,2.9,2.9
			C633.8,26.7,632.5,28,630.9,28z M630.9,23.4c-0.9,0-1.7,0.8-1.7,1.7c0,0.9,0.8,1.7,1.7,1.7s1.7-0.8,1.7-1.7
			C632.6,24.2,631.9,23.4,630.9,23.4z"/>
	</g>
</g>
<g id="Layer_2" class="st1">
	<path class="st3" d="M479.1,194.9h-3.9c-0.3,0-0.6-0.3-0.6-0.6s0.3-0.6,0.6-0.6h3.3v-8.2h-3.8c-0.3,0-0.6-0.3-0.6-0.6
		c0-0.3,0.3-0.6,0.6-0.6h4.4c0.3,0,0.6,0.3,0.6,0.6v9.4C479.7,194.6,479.4,194.9,479.1,194.9z"/>
	<path class="st3" d="M493.2,194.9h-7.3c-0.3,0-0.6-0.3-0.6-0.6v-9.4c0-0.3,0.3-0.6,0.6-0.6h7.3c0.3,0,0.6,0.3,0.6,0.6v9.4
		C493.8,194.6,493.5,194.9,493.2,194.9z M486.5,193.7h6.1v-8.2h-6.1V193.7z"/>
	<path class="st3" d="M493.2,211.8h-4.5c-0.3,0-0.6-0.3-0.6-0.6s0.3-0.6,0.6-0.6h3.9v-8.2h-6.1v1.7c0,0.3-0.3,0.6-0.6,0.6
		s-0.6-0.3-0.6-0.6v-2.3c0-0.3,0.3-0.6,0.6-0.6h7.3c0.3,0,0.6,0.3,0.6,0.6v9.4C493.8,211.5,493.5,211.8,493.2,211.8z"/>
	<g class="st2">
		<path class="st0" d="M505.4,220.1h-16.9c-0.3,0-0.6-0.3-0.6-0.6s0.3-0.6,0.6-0.6h16.3v-93.6H460v50.1c0,0.3-0.3,0.6-0.6,0.6
			s-0.6-0.3-0.6-0.6v-50.7c0-0.3,0.3-0.6,0.6-0.6h46c0.3,0,0.6,0.3,0.6,0.6v94.8C506,219.9,505.7,220.1,505.4,220.1z"/>
	</g>
	<path class="st3" d="M479.1,176.8h-7.3c-0.3,0-0.6-0.3-0.6-0.6v-9.4c0-0.3,0.3-0.6,0.6-0.6h7.3c0.3,0,0.6,0.3,0.6,0.6v9.4
		C479.7,176.5,479.4,176.8,479.1,176.8z M472.4,175.6h6.1v-8.2h-6.1V175.6z"/>
	<path class="st3" d="M493.2,176.8h-7.3c-0.3,0-0.6-0.3-0.6-0.6v-9.4c0-0.3,0.3-0.6,0.6-0.6h7.3c0.3,0,0.6,0.3,0.6,0.6v9.4
		C493.8,176.5,493.5,176.8,493.2,176.8z M486.5,175.6h6.1v-8.2h-6.1V175.6z"/>
	<path class="st3" d="M479.1,144.1h-7.3c-0.3,0-0.6-0.3-0.6-0.6v-9.4c0-0.3,0.3-0.6,0.6-0.6h7.3c0.3,0,0.6,0.3,0.6,0.6v9.4
		C479.7,143.8,479.4,144.1,479.1,144.1z M472.4,142.9h6.1v-8.2h-6.1V142.9z"/>
	<path class="st3" d="M479.1,160.1h-7.3c-0.3,0-0.6-0.3-0.6-0.6v-9.4c0-0.3,0.3-0.6,0.6-0.6h7.3c0.3,0,0.6,0.3,0.6,0.6v9.4
		C479.7,159.8,479.4,160.1,479.1,160.1z M472.4,158.9h6.1v-8.2h-6.1V158.9z"/>
	<path class="st3" d="M493.2,144.1h-7.3c-0.3,0-0.6-0.3-0.6-0.6v-9.4c0-0.3,0.3-0.6,0.6-0.6h7.3c0.3,0,0.6,0.3,0.6,0.6v9.4
		C493.8,143.8,493.5,144.1,493.2,144.1z M486.5,142.9h6.1v-8.2h-6.1V142.9z"/>
	<path class="st3" d="M493.2,160.1h-7.3c-0.3,0-0.6-0.3-0.6-0.6v-9.4c0-0.3,0.3-0.6,0.6-0.6h7.3c0.3,0,0.6,0.3,0.6,0.6v9.4
		C493.8,159.8,493.5,160.1,493.2,160.1z M486.5,158.9h6.1v-8.2h-6.1V158.9z"/>
	<g class="st2">
		<path class="st0" d="M432.3,238.9c-0.3,0-0.6-0.3-0.6-0.6v-15.6h-31.1c-0.3,0-0.6-0.3-0.6-0.6v-4c0-0.1,0-0.1,0-0.2
			c0-0.1,0-0.1,0-0.2V194c0-4.9,4-8.9,8.9-8.9h5.9c-2.5-2.5-4-6-4-9.8c0-7.7,6.2-13.9,13.9-13.9c7.7,0,13.9,6.2,13.9,13.9
			c0,3.8-1.5,7.2-4,9.8h6.1c1.9,0,3.7,0.6,5.2,1.7c0.3,0.2,0.3,0.6,0.1,0.8c-0.2,0.3-0.6,0.3-0.8,0.1c-1.3-0.9-2.9-1.4-4.5-1.4h-7.5
			c-2.4,1.9-5.4,3-8.6,3s-6.2-1.1-8.6-3h-7.2c-4.2,0-7.7,3.4-7.7,7.7v23.8c0,0.1,0,0.1,0,0.2c0,0.1,0,0.1,0,0.2v3.4h30.5v-10.8
			c0-5.6,4.6-10.2,10.2-10.2h7.4c0.3,0,0.6,0.3,0.6,0.6s-0.3,0.6-0.6,0.6H442c-5,0-9,4-9,9v27.6
			C432.9,238.7,432.7,238.9,432.3,238.9z M424.7,162.6c-7,0-12.7,5.7-12.7,12.7s5.7,12.7,12.7,12.7c7,0,12.7-5.7,12.7-12.7
			S431.7,162.6,424.7,162.6z"/>
		<path class="st0" d="M488.5,244h-56.2c-0.3,0-0.6-0.3-0.6-0.6v-4.7c0-0.3,0.3-0.6,0.6-0.6s0.6,0.3,0.6,0.6v4.1h55l0-32
			c0-5-4-9-9-9H471c-0.3,0-0.6-0.3-0.6-0.6s0.3-0.6,0.6-0.6h7.9c5.6,0,10.2,4.6,10.2,10.2l0,32.6c0,0.2-0.1,0.3-0.2,0.4
			C488.8,243.9,488.7,244,488.5,244z"/>
		<path class="st0" d="M460.6,238.3c-0.1,0-0.3,0-0.4-0.1l-3.8-3.1c-0.1-0.1-0.2-0.3-0.2-0.5v-20.5h-0.8c-0.3,0-0.6-0.3-0.6-0.6
			v-5.1c0-0.3,0.3-0.6,0.6-0.6h10.4c0.3,0,0.6,0.3,0.6,0.6v5.1c0,0.3-0.3,0.6-0.6,0.6H465v20.5c0,0.2-0.1,0.4-0.2,0.5l-3.8,3.1
			C460.9,238.2,460.8,238.3,460.6,238.3z M457.4,234.3l3.2,2.6l3.2-2.6v-20.2h-6.4V234.3z M456,212.9h9.2V209H456V212.9z
			 M460.3,206.2c-8.6,0-15.5-7-15.5-15.5c0-8.6,7-15.5,15.5-15.5c8.6,0,15.5,7,15.5,15.5C475.8,199.3,468.9,206.2,460.3,206.2z
			 M460.3,176.4c-7.9,0-14.3,6.4-14.3,14.3s6.4,14.3,14.3,14.3s14.3-6.4,14.3-14.3S468.2,176.4,460.3,176.4z"/>
	</g>
</g>
<g id="Layer_6">
</g>
</svg>
