<?xml version="1.0" encoding="utf-8"?>
<!-- Generator: Adobe Illustrator 19.1.0, SVG Export Plug-In . SVG Version: 6.00 Build 0)  -->
<!DOCTYPE svg PUBLIC "-//W3C//DTD SVG 1.1//EN" "http://www.w3.org/Graphics/SVG/1.1/DTD/svg11.dtd">
<svg version="1.1" xmlns="http://www.w3.org/2000/svg" xmlns:xlink="http://www.w3.org/1999/xlink" x="0px" y="0px"
	 viewBox="-18 -37.7 47.8 50.3" style="enable-background:new -18 -37.7 47.8 50.3;" xml:space="preserve">
<style type="text/css">
	.st0{display:none;}
	.st1{display:inline;}
	.st2{clip-path:url(#SVGID_2_);fill:#FFFFFF;}
	.st3{clip-path:url(#SVGID_2_);fill:none;stroke:#00A8E0;stroke-linecap:round;stroke-linejoin:round;stroke-miterlimit:10;}
	.st4{clip-path:url(#SVGID_2_);fill:none;stroke:#00A8E0;stroke-linecap:round;stroke-miterlimit:10;}
	.st5{clip-path:url(#SVGID_4_);fill:none;stroke:#00A8E0;stroke-linecap:round;stroke-linejoin:round;stroke-miterlimit:10;}
	.st6{display:inline;fill:#00A8E0;}
	.st7{fill:#26A9E0;}
</style>
<g id="Layer_1" class="st0">
	<g class="st1">
		<defs>
			<rect id="SVGID_1_" x="-17" y="-30.9" width="34.4" height="45.4"/>
		</defs>
		<clipPath id="SVGID_2_">
			<use xlink:href="#SVGID_1_"  style="overflow:visible;"/>
		</clipPath>
		<path class="st2" d="M-9.9-1.8L-16.5,8l6.7-0.3l3.7,6.3L1.3,2.1c-0.2,0-0.4,0-0.6,0C-3.4,2.1-7.1,0.6-9.9-1.8"/>
		<path class="st3" d="M-9.9-1.8L-16.5,8l6.7-0.3l3.7,6.3L1.3,2.1c-0.2,0-0.4,0-0.6,0C-3.4,2.1-7.1,0.6-9.9-1.8z"/>
		<path class="st2" d="M-1,2l7.6,12l3.7-6.3L16.9,8l-5.6-9.9c-2.8,2.5-6.5,4-10.6,4C0.1,2.1-0.5,2.1-1,2"/>
		<path class="st3" d="M-1,2l7.6,12l3.7-6.3L16.9,8l-5.6-9.9c-2.8,2.5-6.5,4-10.6,4C0.1,2.1-0.5,2.1-1,2z"/>
		<circle class="st4" cx="0.7" cy="-14.1" r="16.2"/>
		<circle class="st3" cx="0.7" cy="-14.1" r="11.6"/>
	</g>
</g>
<g id="Layer_2">
	<g>
		<defs>
			<rect id="SVGID_3_" x="-16.9" y="-37" width="45.8" height="48.9"/>
		</defs>
		<clipPath id="SVGID_4_">
			<use xlink:href="#SVGID_3_"  style="overflow:visible;"/>
		</clipPath>
		<path class="st5" d="M-7.5,11.4c0.1-1,0.1-2.1,0.1-3.1c0-9.7-3.4-18.6-9.1-25.5c9,6.5,15.1,16.8,16.2,28.6 M3.2,11.5
			c0-0.9-0.1-1.8-0.1-2.7c0-18.4,8.4-34.7,21.5-45.3C15.6-26.4,10.1-13,10.1,1.8c0,3.3,0.3,6.6,0.8,9.7 M10.3,6
			c1.9-10,7.9-18.6,16.1-23.8C20.5-10.9,17-1.9,17,7.9c0,1.2,0.1,2.4,0.2,3.6 M17.1,10.8c0.6-6.9,5.1-12.7,11.3-15.1
			c-4.4,3.5-7.3,9-7.5,15.1"/>
	</g>
</g>
<g id="Layer_3" class="st0">
	<path class="st6" d="M9.8,3.3c-0.1,0-0.2,0-0.2-0.1L6.3,1.6L3,3.3c-0.2,0.1-0.4,0.1-0.5,0C2.3,3.1,2.3,2.9,2.3,2.8l0.6-3.6L0.3-3.5
		C0.1-3.6,0.1-3.8,0.2-4c0.1-0.2,0.2-0.3,0.4-0.3l3.7-0.5l1.6-3.3c0.2-0.3,0.7-0.3,0.9,0l1.6,3.3l3.7,0.5c0.2,0,0.3,0.2,0.4,0.3
		c0.1,0.2,0,0.4-0.1,0.5L9.7-0.9l0.6,3.6c0,0.2,0,0.4-0.2,0.5C10,3.3,9.9,3.3,9.8,3.3z M1.7-3.5l2.1,2.1C3.9-1.3,4-1.1,4-1L3.5,1.9
		l2.6-1.4c0.1-0.1,0.3-0.1,0.5,0l2.6,1.4L8.6-1c0-0.2,0-0.3,0.1-0.4l2.1-2.1L8-3.9C7.8-3.9,7.7-4,7.6-4.2L6.3-6.8L5-4.2
		C4.9-4,4.8-3.9,4.6-3.9L1.7-3.5z"/>
	<g class="st1">
		<path class="st7" d="M37.2,13.9h-53.6c-0.3,0-0.6-0.3-0.6-0.6V7.4c0-12.3,10.5-22.3,23.3-22.3c12.6,0,23,9.8,23.3,21.8
			c6.9,1.6,8.2,6,8.2,6.2c0,0.2,0,0.4-0.1,0.5C37.5,13.8,37.3,13.9,37.2,13.9z M-15.9,12.7h52.1C35.6,11.4,33.7,9,28.8,8
			c-0.3-0.1-0.5-0.3-0.5-0.6c0,0,0,0,0-0.1l0-0.2C28.1-4.4,18.2-13.7,6.2-13.7c-12.2,0-22.1,9.4-22.1,21.1v0.3c0,0,0,0,0,0h39.3
			c0.3,0,0.6,0.3,0.6,0.6s-0.3,0.6-0.6,0.6h-39.3c0,0,0,0,0,0V12.7z"/>
	</g>
</g>
</svg>
