<?xml version="1.0" encoding="utf-8"?>
<!-- Generator: Adobe Illustrator 19.1.0, SVG Export Plug-In . SVG Version: 6.00 Build 0)  -->
<!DOCTYPE svg PUBLIC "-//W3C//DTD SVG 1.1//EN" "http://www.w3.org/Graphics/SVG/1.1/DTD/svg11.dtd">
<svg version="1.1" id="Layer_1" xmlns="http://www.w3.org/2000/svg" xmlns:xlink="http://www.w3.org/1999/xlink" x="0px" y="0px"
	 viewBox="18 -11.6 176.4 43.6" style="enable-background:new 18 -11.6 176.4 43.6;" xml:space="preserve">
<style type="text/css">
	.st0{display:none;}
	.st1{display:inline;fill:url(#SVGID_1_);}
	.st2{display:inline;fill:#920609;}
	.st3{display:inline;}
	.st4{fill:#FFFFFF;stroke:#FFFFFF;stroke-width:0.5834;}
	.st5{fill:#FFFFFF;}
	.st6{clip-path:url(#SVGID_3_);fill:url(#SVGID_4_);}
	.st7{clip-path:url(#SVGID_6_);fill:url(#SVGID_7_);}
	.st8{clip-path:url(#SVGID_9_);fill:url(#SVGID_10_);}
	.st9{clip-path:url(#SVGID_12_);fill:url(#SVGID_13_);}
	.st10{fill:#009BDE;}
</style>
<g id="lycra" class="st0">
	
		<linearGradient id="SVGID_1_" gradientUnits="userSpaceOnUse" x1="81.2603" y1="-23.986" x2="81.9298" y2="13.2807" gradientTransform="matrix(1 0 0 1 0 0.8)">
		<stop  offset="0" style="stop-color:#D92231"/>
		<stop  offset="1" style="stop-color:#B31217"/>
	</linearGradient>
	<path class="st1" d="M45.8,13.5l36.1-36.2L117,12.4c0.7,0.8,1.2,1.2,1,1.6c-0.2,0.5-1.2,0-2.2-0.5c-0.8-0.4-8.2-2.9-15-2.6
		c-8.1,0.3-11.2,1.3-22,6.2c-14.3,6.4-27.6,1.2-32.2-2.9L45.8,13.5L45.8,13.5z"/>
	<path class="st2" d="M45.7,13.5l0.8-0.7c4.7,4,17.9,9.3,32.2,2.8c10.8-4.9,13.9-5.9,22-6.2c6.8-0.2,14.2,2.3,15,2.6
		c0.6,0.3,1.1,0.5,1.5,0.6c0.6,0.6,0.9,0.9,0.7,1.3c-0.2,0.5-1.2,0-2.3-0.5c-0.8-0.4-8.2-2.9-15-2.6c-8.1,0.3-11.2,1.3-22,6.2
		c-14.3,6.4-27.6,1.2-32.2-2.9L45.7,13.5L45.7,13.5z"/>
	<g class="st3">
		<path class="st4" d="M77.1-3.2c0.1,0.2,0,0.3,0,0.3l-2.6,4.2l-2.9-4.5h-1c0,0,0.3,0.3,0.4,0.4s3.1,4.7,3.1,4.7s-1.7,2.7-1.9,2.9
			c-0.3,0.4-0.8,0.5-1,0.5h-4.4c0,0,0-7.9,0-8.2s0.1-0.4,0.1-0.4h-1.2c0.1,0.2,0.1,0.5,0.1,0.5v8.9h6.8l6-9.4L77.1-3.2
			C77.1-3.3,77.1-3.2,77.1-3.2z M100.5,6.2c-0.2-0.2-0.3-0.4-0.3-0.4l-4.1-9H95c0.1,0.2,0.3,0.6,0.1,0.9l-3.3,7.4l-3.2-3.8
			c1.3-0.2,2.2-1,2.2-2.3s-1.1-2.3-2.9-2.3h-2.1c0,0,0.1,0.1,0.1,0.4v7.7c-0.5,0.3-2,0.6-3.1,0.6c-2.5,0-4.3-1.9-4.3-4
			c0-2.8,2.4-4,4.3-4c0.7,0,1.5,0.2,1.7,0.3v-0.8c0,0-0.7-0.3-1.7-0.3c-2.9,0-5.3,2.1-5.3,4.6c0,2.6,2,4.8,5.3,4.7
			c0.8,0,2.4-0.2,3.1-0.5c0,0,0,0.4-0.1,0.5H87c0,0-0.1-0.1-0.1-0.5s0-8.2,0-8.2h1c1.1,0,1.9,0.7,1.9,1.6S89,0.4,88.2,0.5
			c-0.5,0.1-1,0-1,0l4.4,5.3h1c-0.4-0.3-0.3-0.4-0.3-0.4l1.4-3.2h3.8c0,0,1.4,3.1,1.5,3.4c0.1,0.1,0,0.3,0,0.3h1.5V6.2z M94.2,1.8
			l1.5-3.5l1.6,3.5H94.2z"/>
		<g>
			<path class="st5" d="M102,4.8c0.5,0,0.9,0.3,0.9,0.8s-0.4,0.8-0.9,0.8s-0.9-0.3-0.9-0.8S101.5,4.8,102,4.8L102,4.8z M102,6.3
				c0.4,0,0.6-0.3,0.6-0.7c0-0.4-0.3-0.7-0.6-0.7c-0.4,0-0.6,0.3-0.6,0.7C101.3,6,101.6,6.3,102,6.3L102,6.3z M101.7,5.2h0.3
				c0.2,0,0.4,0.1,0.4,0.3c0,0.2-0.1,0.2-0.3,0.2l0.3,0.4h-0.2L102,5.7h-0.1v0.4h-0.2L101.7,5.2L101.7,5.2z M101.8,5.5h0.2
				c0.1,0,0.2,0,0.2-0.1s-0.1-0.1-0.2-0.1h-0.2V5.5L101.8,5.5z"/>
		</g>
	</g>
</g>
<g id="Layer_2" class="st0">
	<g class="st3">
		<path d="M63-19.6c-0.8-0.3-1.6-0.6-2.6-0.6c-1.7,0-2.6,0.9-2.6,2.1c0,0.8,0.5,1.6,2.1,2.8l1.1,0.8c2.2,1.7,3.7,2.9,3.7,5.3
			c0,2.7-2.1,4.8-5.4,4.8c-2,0-3.3-0.7-4.2-1.1l0.8-1.8c1,0.5,2,1,3.3,1c1.7,0,2.5-1.1,2.5-2.2s-0.8-1.9-2.3-3l-1.1-0.8
			c-1.9-1.5-3.5-2.9-3.5-5.3c0-2.5,2.2-4.6,5.4-4.6c1.5,0,2.7,0.3,3.5,0.7L63-19.6L63-19.6z"/>
		<polygon points="77.2,-21.9 77.2,-20 72.7,-20 72.7,-4.6 69.3,-4.6 69.3,-20 64.8,-20 64.8,-21.9 		"/>
		<path d="M80.5-11.4h3.8l-1.9-6.1L80.5-11.4L80.5-11.4z M84-21.9l6,17.3h-3.5l-1.7-5.1h-4.9l-1.6,5.1H76L82-22L84-21.9L84-21.9z"/>
		<polygon points="95.5,-21.9 95.5,-4.6 92.1,-4.6 92.1,-21.9 		"/>
		<polygon points="101.9,-21.9 109.8,-10 109.8,-21.9 112.2,-21.9 112.2,-4.6 110,-4.6 102,-16.5 102,-4.6 99.7,-4.6 99.7,-21.9 		
			"/>
		<polygon points="120.3,-21.9 124.1,-9.1 127.9,-21.9 131.8,-21.9 131.8,-4.6 128.7,-4.6 128.7,-19 124.4,-4.6 122.7,-4.6 
			118.6,-19 118.6,-4.6 116.4,-4.6 116.4,-21.9 		"/>
		<path d="M137.9-11.4h3.8l-1.9-6.1L137.9-11.4L137.9-11.4z M141.4-21.9l6.1,17.4H144l-1.7-5.1h-4.9l-1.6,5.1h-2.3l6-17.4H141.4
			L141.4-21.9z"/>
		<path d="M156.3-19.6c-0.9-0.3-1.7-0.6-2.7-0.6c-1.7,0-2.6,0.9-2.6,2.1c0,0.8,0.5,1.6,2.1,2.8l1.1,0.8c2.2,1.7,3.7,2.9,3.7,5.3
			c0,2.7-2.1,4.8-5.4,4.8c-2,0-3.3-0.7-4.2-1.1l0.8-1.8c1,0.5,2,1,3.3,1c1.7,0,2.5-1.1,2.5-2.2s-0.8-1.9-2.3-3l-1.1-0.8
			c-1.9-1.5-3.5-2.9-3.5-5.3c0-2.6,2.3-4.6,5.4-4.6c1.5,0,2.7,0.3,3.5,0.7L156.3-19.6L156.3-19.6z"/>
		<polygon points="170.6,-21.9 170.6,-20 166.1,-20 166.1,-4.6 162.7,-4.6 162.7,-20 158.2,-20 158.2,-21.9 		"/>
		<polygon points="181.6,-21.9 181.6,-19.9 175.7,-19.9 175.7,-14.5 181.2,-14.5 181.2,-12.6 175.7,-12.6 175.7,-6.6 181.7,-6.6 
			181.7,-4.6 172.3,-4.6 172.3,-21.9 		"/>
		<path d="M188.1-20.1v6.1h0.9c1.2,0,3.4,0,3.4-3.3c0-2.8-1.8-2.8-3.3-2.8H188.1L188.1-20.1z M189.2-21.9c2.1,0,3.2,0.1,4.4,0.7
			c1.4,0.7,2.1,2.2,2.1,3.5c0,2-1,4-3.9,4.8l8.4,12.1c0,0-1-0.4-2.2-0.8c-1-0.3-1.6-0.5-3.1-0.7l-5.9-10h-0.9v7.7h-3.3v-17.3H189.2
			L189.2-21.9z"/>
		<path d="M45.4,0.2L46.1,1C57.5,2.6,68.4,5.7,98,5.7c40.8,0,51.4-2.3,71.8-3.5s31.5,0.6,38.3,4l-0.2-0.9c0.3,0.2-7.4-8.2-38.9-6.1
			C91.1,4.4,83.6,4.7,45.4,0.2L45.4,0.2z"/>
		<path d="M211.1,7.7h0.5c0.5,0,0.6-0.2,0.6-0.4c0-0.2-0.1-0.4-0.6-0.4h-0.5V7.7L211.1,7.7z M211.7,6.6c0.5,0,0.9,0.2,0.9,0.7
			S212.3,8,211.9,8l0.7,1.1h-0.4L211.5,8h-0.4v1.1h-0.4V6.6L211.7,6.6L211.7,6.6z M209.8,7.8c0,1,0.8,1.8,1.8,1.8s1.8-0.8,1.8-1.8
			S212.6,6,211.6,6C210.5,6,209.8,6.8,209.8,7.8L209.8,7.8z M213.7,7.8c0,1.2-0.9,2.2-2.2,2.2c-1.2,0-2.2-0.9-2.2-2.2
			c0-1.2,1-2.2,2.2-2.2S213.7,6.6,213.7,7.8L213.7,7.8z"/>
		<path d="M162.6,14L162.6,14c0-1.9,1.5-3.5,3.5-3.5c1.1,0,1.8,0.3,2.3,0.8c0.1,0.1,0.2,0.3,0.2,0.5c0,0.4-0.3,0.7-0.7,0.7
			c-0.2,0-0.4-0.1-0.5-0.2c-0.4-0.3-0.8-0.6-1.4-0.6c-1.1,0-1.9,1-1.9,2.1l0,0c0,1.2,0.8,2.1,2,2.1c0.6,0,1.1-0.2,1.5-0.6
			c0.1-0.1,0.2-0.2,0.4-0.2c0.4,0,0.7,0.3,0.7,0.7c0,0.2-0.1,0.4-0.2,0.5c-0.6,0.6-1.3,0.9-2.4,0.9C164,17.4,162.6,15.9,162.6,14
			L162.6,14z"/>
		<path d="M174.6,14.9v-0.5c-0.4-0.2-0.9-0.3-1.5-0.3c-1,0-1.6,0.4-1.6,1.1l0,0c0,0.6,0.6,1,1.3,1C173.8,16.3,174.6,15.7,174.6,14.9
			L174.6,14.9z M170,15.4L170,15.4c0-1.5,1.1-2.2,2.8-2.2c0.7,0,1.3,0.1,1.8,0.3v-0.2c0-0.9-0.6-1.5-1.7-1.5c-0.6,0-1.1,0.1-1.5,0.3
			c-0.1,0-0.2,0-0.2,0c-0.4,0-0.6-0.3-0.6-0.6s0.2-0.5,0.4-0.6c0.6-0.2,1.3-0.4,2.2-0.4c1,0,1.7,0.3,2.2,0.7
			c0.5,0.5,0.7,1.2,0.7,2.1v3.3c0,0.4-0.3,0.7-0.7,0.7s-0.7-0.3-0.7-0.6v-0.3c-0.5,0.5-1.2,1-2.2,1C171.1,17.4,170,16.7,170,15.4
			L170,15.4z"/>
		<path d="M178.1,11.3c0-0.4,0.3-0.8,0.8-0.8c0.4,0,0.8,0.3,0.8,0.8V12c0.4-0.8,1-1.5,1.7-1.5c0.5,0,0.8,0.3,0.8,0.8
			c0,0.4-0.3,0.7-0.6,0.7c-1.1,0.2-1.8,1-1.8,2.6v2c0,0.4-0.3,0.8-0.8,0.8c-0.4,0-0.8-0.3-0.8-0.8L178.1,11.3L178.1,11.3z"/>
		<path d="M188.9,13.9L188.9,13.9c0-1.3-0.9-2.2-1.9-2.2s-2,0.9-2,2.1l0,0c0,1.3,0.9,2.1,2,2.1C188.1,16.1,188.9,15.3,188.9,13.9
			L188.9,13.9z M183.6,11.3c0-0.4,0.3-0.8,0.8-0.8c0.4,0,0.8,0.3,0.8,0.8v0.4c0.5-0.7,1.2-1.3,2.3-1.3c1.6,0,3.1,1.2,3.1,3.5l0,0
			c0,2.2-1.5,3.5-3.1,3.5c-1.1,0-1.8-0.6-2.3-1.2v2.4c0,0.4-0.3,0.8-0.8,0.8c-0.4,0-0.8-0.3-0.8-0.8V11.3L183.6,11.3z"/>
		<path d="M196.9,13.5c-0.1-1-0.7-1.8-1.7-1.8c-0.9,0-1.6,0.7-1.7,1.8H196.9L196.9,13.5z M195.4,17.4c-1.9,0-3.4-1.4-3.4-3.5l0,0
			c0-1.9,1.4-3.5,3.3-3.5c2.1,0,3.2,1.7,3.2,3.3c0,0.4-0.3,0.7-0.7,0.7h-4.2c0.2,1.1,0.9,1.7,1.9,1.7c0.6,0,1.2-0.2,1.6-0.6
			c0.1-0.1,0.2-0.1,0.4-0.1c0.3,0,0.6,0.3,0.6,0.6c0,0.2-0.1,0.4-0.2,0.5C197.2,17.1,196.4,17.4,195.4,17.4L195.4,17.4z"/>
		<path d="M200.5,15.4v-3.5h-0.3c-0.4,0-0.7-0.3-0.7-0.7s0.3-0.7,0.7-0.7h0.3V9.4c0-0.4,0.3-0.8,0.8-0.8c0.4,0,0.8,0.3,0.8,0.8v1.1
			h1.2c0.4,0,0.7,0.3,0.7,0.7s-0.3,0.7-0.7,0.7h-1.2v3.3c0,0.6,0.3,0.8,0.8,0.8c0.2,0,0.3,0,0.4,0c0.3,0,0.6,0.3,0.6,0.6
			s-0.2,0.5-0.4,0.6c-0.3,0.1-0.6,0.2-1.1,0.2C201.3,17.4,200.5,16.9,200.5,15.4L200.5,15.4z"/>
	</g>
</g>
<g id="raptor" class="st0">
	<g class="st3">
		<g>
			<g>
				<path class="st5" d="M63.9-22.8L45.5-12.2v2.4h26.2h0.1H76c0.4,0,0.7,0.3,0.7,0.7V1.6c0,0.4-0.3,0.7-0.7,0.7h-3.5h-0.1h-5.6
					h-0.1h-6.6c-0.4,0-0.7,0.3-0.7,0.6v9.9l-3.6-2.1c-0.5-0.2-0.8-0.6-0.8-1.1V8.1v1.3V2.5v-3.7c0-0.4,0.3-0.7,0.7-0.7h16
					c0.4,0,0.7-0.3,0.7-0.7v-1.8c0-0.4-0.3-0.7-0.7-0.7H45.5V9.3l18.4,10.6l3.5-2V7.8c0-0.5,0.4-0.8,0.8-1.1l3.6-2.1v10.5L82.3,9
					v-21.2L63.9-22.8z"/>
				<path class="st5" d="M97.5,0.6h3.3l1.1-1.3c0.2-0.2,0.2-0.5,0.2-0.5v-4.4c0,0,0-0.3-0.2-0.6l-1.1-1.1c-0.2-0.2-0.5-0.2-0.5-0.2
					h-8.8c-0.1,0-0.3,0.1-0.3,0.3v2.7h2.9h1h3.5c0,0,0.1,0,0.2,0.1l0.3,0.3c0.1,0.1,0.1,0.2,0.1,0.2v1.2c0,0,0,0.1-0.1,0.2l-0.3,0.3
					c-0.1,0.1-0.1,0.1-0.1,0.1h-4.5l0,0h-2.9v6.5c0,0.1,0.1,0.3,0.3,0.3H94c0.2,0,0.3-0.1,0.3-0.3V0.8h2.4h0.8
					C97.5,0.8,97.5,0.6,97.5,0.6z"/>
				<path class="st5" d="M97.5,1.4L99,4.1c0.1,0.1,0.2,0.3,0.4,0.3h2.7c0.1,0,0.3-0.1,0.3-0.3l-1.5-2.7H97.5z"/>
				<path class="st5" d="M160.1,0.6h3.3l1.1-1.3c0.2-0.2,0.2-0.5,0.2-0.5v-4.4c0,0,0-0.3-0.2-0.6l-1.1-1.1c-0.2-0.2-0.5-0.2-0.5-0.2
					h-8.8c-0.1,0-0.3,0.1-0.3,0.3v2.7h2.9h1h3.5c0,0,0.1,0,0.2,0.1l0.3,0.3c0.1,0.1,0.1,0.2,0.1,0.2v1.2c0,0,0,0.1-0.1,0.2l-0.3,0.3
					c-0.1,0.1-0.1,0.1-0.1,0.1h-4.5l0,0h-2.9v6.6c0,0.1,0.1,0.3,0.3,0.3h2.4c0.2,0,0.3-0.1,0.3-0.3V0.9h2.4h0.8L160.1,0.6L160.1,0.6
					z"/>
				<path class="st5" d="M160.1,1.4l1.5,2.7c0.1,0.1,0.2,0.3,0.4,0.3h2.7c0.1,0,0.3-0.1,0.3-0.3l-1.5-2.7H160.1z"/>
				<path class="st5" d="M132.8-4.2v8.5c0,0.1,0.2,0.2,0.3,0.2h2.9c0.2,0,0.3-0.1,0.3-0.2v-8.5H132.8z"/>
				<path class="st5" d="M139.5-7.6h-9.8c-0.2,0-0.4,0.1-0.4,0.3v2c0,0.1,0.2,0.2,0.4,0.2h1.5l0,0h7.3l0,0h1c0.2,0,0.4-0.1,0.4-0.2
					v-2C139.9-7.4,139.7-7.6,139.5-7.6"/>
				<path class="st5" d="M116.3,4.2c-1.6-3.8-3.2-7.7-4.8-11.5l0,0c-0.1-0.2-0.2-0.2-0.3-0.2h-1.1h-0.8h-1.1c-0.2,0-0.2,0.1-0.3,0.2
					l0,0L103,4.2c0,0.1,0.2,0.2,0.4,0.2h2.8c0.1,0,0.3-0.1,0.4-0.1l2.1-4.8l1.1-2.6l1.5,3.5h-2.1l-1,2.3h4l0.6,1.4
					c0.1,0.1,0.2,0.2,0.4,0.2h2.8C116.2,4.4,116.4,4.3,116.3,4.2"/>
				<path class="st5" d="M128.3-5.7c0,0,0-0.3-0.2-0.6L127-7.4c-0.2-0.2-0.5-0.2-0.5-0.2h-8.8c-0.1,0-0.3,0.1-0.3,0.3v2v0.6v8.8
					c0,0.2,0.1,0.3,0.3,0.3h2.3c0.2,0,0.3-0.1,0.3-0.3v-8.8h1h3.5c0,0,0.1,0,0.2,0.1l0.3,0.3c0.1,0.1,0.1,0.2,0.1,0.2v1.2
					c0,0,0,0.1-0.1,0.2L125-2.4c-0.1,0.1-0.1,0.1-0.1,0.1h-3.7v2.9h1.5h1h3.1c0.2,0,0.3-0.1,0.4-0.2l0.9-1.1
					c0.2-0.2,0.2-0.5,0.2-0.5V-5.7z"/>
				<path class="st5" d="M152.2-5.9c0,0,0-0.2-0.2-0.4l-1.4-1c-0.3-0.2-0.6-0.2-0.6-0.2h-6.3c0,0-0.3,0-0.6,0.2l-1.4,1
					c-0.3,0.2-0.3,0.4-0.3,0.4V-5h5.1h1.5c0,0,0.1,0,0.2,0.1l0.4,0.3c0.1,0.1,0.1,0.1,0.1,0.1v6.2c0,0,0,0.1-0.1,0.1L148.3,2h-2.8
					l-0.3-0.2c0-0.1-0.1-0.1-0.1-0.1v-5.9h-3.6v7.1c0,0,0,0.2,0.3,0.4l1.4,1c0.3,0.2,0.6,0.2,0.6,0.2h6.3c0,0,0.3,0,0.6-0.2l1.4-1
					c0.3-0.2,0.2-0.4,0.2-0.4L152.2-5.9L152.2-5.9z"/>
				<polygon class="st5" points="166.8,-7.6 166.8,-7.3 166.3,-7.3 166.3,-5.9 166,-5.9 166,-7.3 165.6,-7.3 165.6,-7.6 				"/>
				<polygon class="st5" points="167,-5.9 167,-7.6 167.5,-7.6 167.8,-6.4 167.8,-6.4 168.1,-7.6 168.6,-7.6 168.6,-5.9 168.3,-5.9 
					168.3,-7.2 168.3,-7.2 167.9,-5.9 167.7,-5.9 167.3,-7.2 167.3,-7.2 167.3,-5.9 				"/>
				<path class="st5" d="M103.8,8.9C103.8,8.9,103.9,9,103.8,8.9v4.6v0.1h-0.1h-0.9h-0.1h-0.1c0,0-0.1,0-0.1-0.1l-1.5-2.7v2.8
					c0,0.1,0,0.1-0.1,0.1H100c-0.1,0-0.1,0-0.1-0.1V9.1c0-0.1,0-0.1,0.1-0.1h1h0.1c0,0,0.1,0,0.1,0.1l1.5,2.8V9.1V9h0.1L103.8,8.9
					L103.8,8.9"/>
				<path class="st5" d="M116,12.5C116.1,12.5,116.1,12.5,116,12.5C116.1,12.6,116.1,12.6,116,12.5l0.1,1v0.1H116h-3
					c-0.1,0-0.1,0-0.1-0.1V9c0-0.1,0-0.1,0.1-0.1h1c0.1,0,0.1,0,0.1,0.1v3.4v0.1h0.1H116z"/>
				<path class="st5" d="M122.6,9.6L122.6,9.6v0.2v0.1v2.5v0.4v0.1V13l-0.6,0.6h-0.1h-0.1h-0.1H120h-0.4h-0.1h-0.1l-0.6-0.6v-0.1
					v-0.1v-0.1v-2.5V9.8V9.7V9.6l0.6-0.6h0.1h0.1h0.3h1.4h0.4h0.1h0.1L122.6,9.6z M121.4,10h-1.6v2.5h1.6V10z"/>
				<path class="st5" d="M129.5,8.9C129.5,8.9,129.6,9,129.5,8.9v4.6v0.1h-0.1h-0.9h-0.1h-0.1c0,0-0.1,0-0.1-0.1l-1.5-2.7v2.8
					c0,0.1,0,0.1-0.1,0.1h-0.9c-0.1,0-0.1,0-0.1-0.1V9.1c0-0.1,0-0.1,0.1-0.1h1h0.1c0,0,0.1,0,0.1,0.1l1.5,2.8V9.1V9h0.1L129.5,8.9
					L129.5,8.9"/>
				<path class="st5" d="M140.2,9.6L140.2,9.6v0.2V10v1.2v0.1v0.1v0.1l-0.6,0.6h-0.1h-0.1h-0.2h-0.5H138h-0.1v0.1v1.1
					c0,0.1,0,0.1-0.1,0.1h-0.9c-0.1,0-0.1,0-0.1-0.1v-0.7V9.8v-1V8.7h0.1h2.1h0.3h0.2h0.1h0.1L140.2,9.6z M139.1,10h-1.3v1.2h1.3V10
					z"/>
				<path class="st5" d="M144,13.6C144,13.7,144,13.7,144,13.6l-1,0.1c-0.1,0-0.1,0-0.1-0.1V9.1c0-0.1,0-0.1,0.1-0.1h0.9
					c0.1,0,0.1,0,0.1,0.1V13.6z"/>
				<path class="st5" d="M150.5,9.6L150.5,9.6v0.2V10v1.2v0.1v0.1v0.1l-0.6,0.6h-0.1h-0.1h-0.2H149h-0.7h-0.1v0.1v1.1
					c0,0.1,0,0.1-0.1,0.1H147c-0.1,0-0.1,0-0.1-0.1v-0.7V9.8v-1V8.7h0.1h2.1h0.3h0.2h0.1h0.1L150.5,9.6z M149.4,10H148v1.2h1.3
					L149.4,10L149.4,10z"/>
				<path class="st5" d="M154.3,10v0.8l0,0h0.6h0.6h0.7h0.1v0.1v0.7c0,0.1,0,0.1-0.1,0.1h-0.7H155h-0.7l0,0v0.7l0,0h0.5h0.8h1h0.1
					v0.1v0.9v0.1h-0.1h-0.7h-1.7H154h-0.1h-0.1l-0.6-0.6v-0.1v-0.1v-0.2v-2.3V9.8V9.7V9.6l0.6-0.6h0.1h0.1h0.2h1.9h0.5h0.1v0.1V10
					v0.1h-0.1h-0.5H155L154.3,10L154.3,10"/>
				<path class="st5" d="M110.3,8.9L110.3,8.9h-1.1h-0.1V9v0.8v0.1l-0.8,1.1l-0.8-1l-0.1-0.2V9.1V9h-0.1h-0.5h-0.3h-0.2h-0.1v0.1
					v0.7c0,0,0,0.2,0.1,0.2l1.3,1.8v0.1V12v1.5v0.1h0.1h1h0.1v-0.1V12v-0.1v-0.1l1.3-1.8c0.1-0.1,0.1-0.2,0.1-0.2L110.3,8.9
					C110.4,9,110.4,8.9,110.3,8.9"/>
			</g>
		</g>
	</g>
</g>
<g>
	<g>
		<g>
			<path class="st5" d="M184.4,20.8h-32.3v7.1h32.3c2,0,3.6-1.6,3.6-3.6C188,22.4,186.4,20.8,184.4,20.8"/>
			<path class="st5" d="M27.3,18c-3.5,0-6.3,2.8-6.3,6.3s2.8,6.3,6.3,6.3c2.2,0,4.1-1.1,5.2-2.8H66v-7.1H32.5
				C31.3,19.1,29.4,18,27.3,18 M27.3,27.3c-1.7,0-3-1.4-3-3c0-1.7,1.4-3,3-3c1.7,0,3,1.4,3,3C30.3,26,28.9,27.3,27.3,27.3"/>
			<rect x="70.9" y="20.8" class="st5" width="35.7" height="7.1"/>
			<rect x="111.5" y="20.8" class="st5" width="35.7" height="7.1"/>
		</g>
		<g>
			<defs>
				<path id="SVGID_2_" d="M152.1,20.8v7.1h32.3c2,0,3.6-1.6,3.6-3.6s-1.6-3.6-3.6-3.6H152.1z"/>
			</defs>
			<clipPath id="SVGID_3_">
				<use xlink:href="#SVGID_2_"  style="overflow:visible;"/>
			</clipPath>
			
				<linearGradient id="SVGID_4_" gradientUnits="userSpaceOnUse" x1="17.1813" y1="30.9905" x2="18.276" y2="30.9905" gradientTransform="matrix(79.6567 0 0 -79.6567 -1299.2694 2492.9214)">
				<stop  offset="0" style="stop-color:#009BDE"/>
				<stop  offset="0.1864" style="stop-color:#27A7E2"/>
				<stop  offset="0.5798" style="stop-color:#73C0EB"/>
				<stop  offset="0.8607" style="stop-color:#A3D0F0"/>
				<stop  offset="1" style="stop-color:#B6D6F2"/>
			</linearGradient>
			<rect x="152.1" y="20.8" class="st6" width="35.8" height="7.1"/>
		</g>
		<g>
			<defs>
				<path id="SVGID_5_" d="M24.2,24.3c0-1.7,1.4-3,3-3c1.7,0,3,1.4,3,3c0,1.7-1.4,3-3,3C25.6,27.3,24.2,26,24.2,24.3 M21,24.3
					c0,3.5,2.8,6.3,6.3,6.3c2.2,0,4.1-1.1,5.2-2.8H66v-7.1H32.5c-1.1-1.7-3-2.8-5.2-2.8C23.8,18,21,20.9,21,24.3"/>
			</defs>
			<clipPath id="SVGID_6_">
				<use xlink:href="#SVGID_5_"  style="overflow:visible;"/>
			</clipPath>
			
				<linearGradient id="SVGID_7_" gradientUnits="userSpaceOnUse" x1="17.1813" y1="30.9905" x2="18.276" y2="30.9905" gradientTransform="matrix(79.6567 0 0 -79.6567 -1299.269 2492.9207)">
				<stop  offset="0" style="stop-color:#009BDE"/>
				<stop  offset="0.1864" style="stop-color:#27A7E2"/>
				<stop  offset="0.5798" style="stop-color:#73C0EB"/>
				<stop  offset="0.8607" style="stop-color:#A3D0F0"/>
				<stop  offset="1" style="stop-color:#B6D6F2"/>
			</linearGradient>
			<rect x="21" y="18" class="st7" width="45.1" height="12.6"/>
		</g>
		<g>
			<defs>
				<rect id="SVGID_8_" x="70.9" y="20.8" width="35.7" height="7.1"/>
			</defs>
			<clipPath id="SVGID_9_">
				<use xlink:href="#SVGID_8_"  style="overflow:visible;"/>
			</clipPath>
			
				<linearGradient id="SVGID_10_" gradientUnits="userSpaceOnUse" x1="17.1813" y1="30.9905" x2="18.276" y2="30.9905" gradientTransform="matrix(79.6568 0 0 -79.6568 -1299.2705 2492.9233)">
				<stop  offset="0" style="stop-color:#009BDE"/>
				<stop  offset="0.1864" style="stop-color:#27A7E2"/>
				<stop  offset="0.5798" style="stop-color:#73C0EB"/>
				<stop  offset="0.8607" style="stop-color:#A3D0F0"/>
				<stop  offset="1" style="stop-color:#B6D6F2"/>
			</linearGradient>
			<rect x="70.9" y="20.8" class="st8" width="35.7" height="7.1"/>
		</g>
		<g>
			<defs>
				<rect id="SVGID_11_" x="111.5" y="20.8" width="35.7" height="7.1"/>
			</defs>
			<clipPath id="SVGID_12_">
				<use xlink:href="#SVGID_11_"  style="overflow:visible;"/>
			</clipPath>
			
				<linearGradient id="SVGID_13_" gradientUnits="userSpaceOnUse" x1="17.1813" y1="30.9905" x2="18.276" y2="30.9905" gradientTransform="matrix(79.6568 0 0 -79.6568 -1299.2705 2492.9233)">
				<stop  offset="0" style="stop-color:#009BDE"/>
				<stop  offset="0.1864" style="stop-color:#27A7E2"/>
				<stop  offset="0.5798" style="stop-color:#73C0EB"/>
				<stop  offset="0.8607" style="stop-color:#A3D0F0"/>
				<stop  offset="1" style="stop-color:#B6D6F2"/>
			</linearGradient>
			<rect x="111.5" y="20.8" class="st9" width="35.7" height="7.1"/>
		</g>
		<g>
			<path class="st10" d="M36.6,11.9c-2,1-3.6,1.2-4.9,1.2c-4.1,0-6.9-1.4-8.8-3.2c-2-1.9-3.5-4.9-3.5-8.5c0-3.5,1.5-6.4,3.5-8.4
				c2-1.9,4.8-3.2,8.3-3.2c1.5,0,3.2,0.3,5.3,1.2V-3c-1.1-1.2-2.8-2.4-5.2-2.4c-1.9,0-3.4,0.6-4.5,1.7c-1.2,1.2-2.1,3-2.1,5.1
				c0,2.3,0.9,3.9,1.9,4.9c0.5,0.5,2.1,1.9,4.8,1.9c1.3,0,3.1-0.4,5.1-2.3V11.9z"/>
			<path class="st10" d="M59.6-7c2.1,2,3.5,5,3.5,8.4c0,3-1.1,6-3.5,8.4c-2.1,2-4.9,3.3-8.6,3.3c-4.2,0-7-1.7-8.7-3.3
				c-2.1-2-3.5-5-3.5-8.3c0-3.2,1.4-6.4,3.4-8.5c1.5-1.5,4.3-3.3,8.7-3.3C54.4-10.2,57.4-9.2,59.6-7 M46.1-3.6c-1,0.9-2,2.6-2,5
				c0,2,0.7,3.7,2,5c1.4,1.4,3,1.8,4.8,1.8c2.3,0,3.9-0.8,4.9-1.9c0.9-0.8,1.9-2.4,1.9-5c0-2.3-0.9-4-1.9-5
				c-1.1-1.1-2.9-1.9-4.9-1.9C49-5.5,47.3-4.8,46.1-3.6"/>
			<path class="st10" d="M86.4-7c2.1,2,3.5,5,3.5,8.4c0,3-1.1,6-3.5,8.4c-2.1,2-4.9,3.3-8.6,3.3c-4.2,0-7-1.7-8.7-3.3
				c-2.1-2-3.5-5-3.5-8.3C65.6-1.7,67-4.9,69-7c1.5-1.5,4.3-3.3,8.7-3.3C81.2-10.2,84.1-9.2,86.4-7 M72.8-3.6c-1,0.9-2,2.6-2,5
				c0,2,0.7,3.7,2,5c1.4,1.4,3,1.8,4.8,1.8c2.3,0,3.9-0.8,4.9-1.9c0.9-0.8,1.9-2.4,1.9-5c0-2.3-0.9-4-1.9-5
				c-1.1-1.1-2.9-1.9-4.9-1.9C75.8-5.5,74-4.8,72.8-3.6"/>
			<polygon class="st10" points="98.6,-9.7 98.6,8.2 108.1,8.2 108.1,12.6 93.4,12.6 93.4,-9.7 			"/>
			<polygon class="st10" points="135.4,12.6 135.4,-6.5 125.7,12.6 124.4,12.6 114.7,-6.5 114.7,12.6 113,12.6 113,-9.6 114.9,-9.6 
				125,10.3 135.2,-9.6 137.1,-9.6 137.1,12.6 			"/>
			<path class="st10" d="M162,12.6l-3.2-7H147l-3.3,7h-1.9l10.4-22.2h1.5l10.1,22.2H162z M153-7.2L147.7,4h10.5L153-7.2z"/>
			<polygon class="st10" points="185.8,12.6 177.1,2.4 168.3,12.6 166.2,12.6 176,1.1 166.7,-9.6 168.9,-9.6 177.1,-0.1 185.4,-9.6 
				187.6,-9.6 178.3,1.2 188,12.6 			"/>
			<path class="st10" d="M188.2-7.3c0-1.4,1-2.4,2.4-2.4c1.4,0,2.4,1,2.4,2.4c0,1.4-1,2.4-2.4,2.4C189.2-4.9,188.2-5.9,188.2-7.3
				 M192.6-7.3c0-1.1-0.8-2-2-2c-1.2,0-2,0.9-2,2c0,1.1,0.8,2,2,2C191.8-5.3,192.6-6.1,192.6-7.3 M190.6-6.9h-0.4V-6h-0.5v-2.6h0.9
				c0.5,0,1,0.3,1,0.8c0,0.4-0.2,0.6-0.6,0.7l0.6,1h-0.5L190.6-6.9z M190.6-7.3c0.3,0,0.5-0.1,0.5-0.4c0-0.3-0.2-0.4-0.5-0.4h-0.4
				v0.8H190.6z"/>
		</g>
	</g>
</g>
</svg>
