<?xml version="1.0" encoding="utf-8"?>
<!-- Generator: Adobe Illustrator 19.1.0, SVG Export Plug-In . SVG Version: 6.00 Build 0)  -->
<!DOCTYPE svg PUBLIC "-//W3C//DTD SVG 1.1//EN" "http://www.w3.org/Graphics/SVG/1.1/DTD/svg11.dtd">
<svg version="1.1" id="Layer_1" xmlns="http://www.w3.org/2000/svg" xmlns:xlink="http://www.w3.org/1999/xlink" x="0px" y="0px"
	 viewBox="0 0 73.7 43.6" style="enable-background:new 0 0 73.7 43.6;" xml:space="preserve">
<style type="text/css">
	.st0{fill:url(#SVGID_1_);}
	.st1{fill:#920609;}
	.st2{fill:#FFFFFF;stroke:#FFFFFF;stroke-width:0.5834;}
	.st3{fill:#FFFFFF;}
</style>
<linearGradient id="SVGID_1_" gradientUnits="userSpaceOnUse" x1="36.2313" y1="1.450882e-02" x2="36.9008" y2="37.2812">
	<stop  offset="0" style="stop-color:#D92231"/>
	<stop  offset="1" style="stop-color:#B31217"/>
</linearGradient>
<path class="st0" d="M0.8,36.7L36.9,0.5L72,35.6c0.7,0.8,1.2,1.2,1,1.6c-0.2,0.5-1.2,0-2.2-0.5c-0.8-0.4-8.2-2.9-15-2.6
	c-8.1,0.3-11.2,1.3-22,6.2c-14.3,6.4-27.6,1.2-32.2-2.9L0.8,36.7L0.8,36.7z"/>
<path class="st1" d="M0.7,36.7L1.5,36c4.7,4,17.9,9.3,32.2,2.8c10.8-4.9,13.9-5.9,22-6.2c6.8-0.2,14.2,2.3,15,2.6
	c0.6,0.3,1.1,0.5,1.5,0.6c0.6,0.6,0.9,0.9,0.7,1.3c-0.2,0.5-1.2,0-2.3-0.5c-0.8-0.4-8.2-2.9-15-2.6c-8.1,0.3-11.2,1.3-22,6.2
	c-14.3,6.4-27.6,1.2-32.2-2.9L0.7,36.7L0.7,36.7z"/>
<g>
	<path class="st2" d="M32.1,20c0.1,0.2,0,0.3,0,0.3l-2.6,4.2L26.6,20h-1c0,0,0.3,0.3,0.4,0.4c0.1,0.1,3.1,4.7,3.1,4.7
		s-1.7,2.7-1.9,2.9c-0.3,0.4-0.8,0.5-1,0.5h-4.4c0,0,0-7.9,0-8.2c0-0.3,0.1-0.4,0.1-0.4h-1.2c0.1,0.2,0.1,0.5,0.1,0.5v8.9h6.8l6-9.4
		H32.1z M55.5,29.4c-0.2-0.2-0.3-0.4-0.3-0.4l-4.1-9h-1.1c0.1,0.2,0.3,0.6,0.1,0.9l-3.3,7.4l-3.2-3.8c1.3-0.2,2.2-1,2.2-2.3
		c0-1.3-1.1-2.3-2.9-2.3h-2.1c0,0,0.1,0.1,0.1,0.4v7.7c-0.5,0.3-2,0.6-3.1,0.6c-2.5,0-4.3-1.9-4.3-4c0-2.8,2.4-4,4.3-4
		c0.7,0,1.5,0.2,1.7,0.3v-0.8c0,0-0.7-0.3-1.7-0.3c-2.9,0-5.3,2.1-5.3,4.6c0,2.6,2,4.8,5.3,4.7c0.8,0,2.4-0.2,3.1-0.5
		c0,0,0,0.4-0.1,0.5h1.2c0,0-0.1-0.1-0.1-0.5c0-0.4,0-8.2,0-8.2h1c1.1,0,1.9,0.7,1.9,1.6c0,0.9-0.8,1.6-1.6,1.7c-0.5,0.1-1,0-1,0
		l4.4,5.3h1c-0.4-0.3-0.3-0.4-0.3-0.4l1.4-3.2h3.8c0,0,1.4,3.1,1.5,3.4c0.1,0.1,0,0.3,0,0.3H55.5z M49.2,25l1.5-3.5l1.6,3.5H49.2z"
		/>
	<g>
		<path class="st3" d="M57,28c0.5,0,0.9,0.3,0.9,0.8c0,0.5-0.4,0.8-0.9,0.8c-0.5,0-0.9-0.3-0.9-0.8C56.1,28.3,56.5,28,57,28L57,28z
			 M57,29.5c0.4,0,0.6-0.3,0.6-0.7c0-0.4-0.3-0.7-0.6-0.7c-0.4,0-0.6,0.3-0.6,0.7C56.3,29.2,56.6,29.5,57,29.5L57,29.5z M56.7,28.4
			H57c0.2,0,0.4,0.1,0.4,0.3c0,0.2-0.1,0.2-0.3,0.2l0.3,0.4h-0.2L57,28.9h-0.1v0.4h-0.2V28.4L56.7,28.4z M56.8,28.7H57
			c0.1,0,0.2,0,0.2-0.1c0-0.1-0.1-0.1-0.2-0.1h-0.2V28.7L56.8,28.7z"/>
	</g>
</g>
</svg>
