<?xml version="1.0" encoding="utf-8"?>
<!-- Generator: Adobe Illustrator 19.1.0, SVG Export Plug-In . SVG Version: 6.00 Build 0)  -->
<!DOCTYPE svg PUBLIC "-//W3C//DTD SVG 1.1//EN" "http://www.w3.org/Graphics/SVG/1.1/DTD/svg11.dtd">
<svg version="1.1" id="Layer_1" xmlns="http://www.w3.org/2000/svg" xmlns:xlink="http://www.w3.org/1999/xlink" x="0px" y="0px"
	 viewBox="2.5 -49.5 120 120" style="enable-background:new 2.5 -49.5 120 120;" xml:space="preserve">
<style type="text/css">
	.st0{display:none;}
	.st1{display:inline;}
	.st2{fill:#27AAE1;}
	.st3{fill:#123548;}
	.st4{fill:#FFFFFF;}
	.st5{clip-path:url(#SVGID_2_);fill:#FFFFFF;}
	.st6{clip-path:url(#SVGID_4_);fill:url(#SVGID_5_);}
	.st7{clip-path:url(#SVGID_7_);fill:#123548;}
	.st8{clip-path:url(#SVGID_9_);fill:url(#SVGID_10_);}
	.st9{clip-path:url(#SVGID_12_);fill:url(#SVGID_13_);}
	.st10{clip-path:url(#SVGID_15_);fill:#123548;}
	.st11{clip-path:url(#SVGID_15_);fill:#FFFFFF;}
</style>
<g id="Layer_1_1_" class="st0">
	<g class="st1">
		<path class="st2" d="M73.1,65.5H61.8c-0.3,0-0.5-0.2-0.6-0.5l-1.7-8c-1.3-0.3-2.5-0.6-3.7-1l-5.5,6c-0.2,0.2-0.5,0.3-0.7,0.1
			l-9.8-5.7c0,0-0.1,0-0.1-0.1H27.4l-5.3,3.4c-0.3,0.2-0.6,0.1-0.8-0.2c-0.2-0.3-0.1-0.6,0.2-0.8l5.4-3.5c0.1-0.1,0.2-0.1,0.3-0.1
			h12.5l1.3-4H23.5c-0.2,0-0.3-0.1-0.5-0.2l-9.6-11.6L7.1,39c-0.4,1.2-1.6,2-2.9,2c-1.7,0-3.1-1.4-3.1-3.1s1.4-3.1,3.1-3.1
			c1.6,0,3,1.3,3.1,2.9l6.4,0.3c0.2,0,0.3,0.1,0.4,0.2l9.6,11.6h17.6l0.6-2c-1-0.9-1.9-1.8-2.7-2.7l-7.8,2.5c-0.3,0.1-0.6,0-0.7-0.3
			l-5.6-9.8C25,37.3,25,37,25.2,36.8l6-5.5c-0.4-1.3-0.7-2.5-1-3.7l-8-1.7c-0.3-0.1-0.5-0.3-0.5-0.6V14.4c0-0.3,0.2-0.5,0.5-0.6
			l8-1.7c0.2-1.2,0.6-2.4,1-3.7l-6-5.5c-0.2-0.2-0.3-0.5-0.1-0.7l5.6-9.8c0.1-0.2,0.4-0.4,0.7-0.3l7.8,2.5c0.9-0.9,1.8-1.8,2.7-2.7
			l-2.5-7.8c-0.1-0.3,0-0.6,0.3-0.7l9.8-5.7c0.2-0.1,0.5-0.1,0.7,0.1l5.5,6c1.2-0.4,2.4-0.7,3.7-1l1.7-8c0.1-0.3,0.3-0.5,0.6-0.5H73
			c0.3,0,0.5,0.2,0.6,0.5l1.7,8c1.3,0.3,2.5,0.6,3.7,1l5.5-6c0.2-0.2,0.5-0.3,0.7-0.1l9.8,5.7c0.2,0.1,0.4,0.4,0.3,0.7l-2.5,7.8
			c0.9,0.9,1.8,1.8,2.7,2.7l4.9-1.6v-1.9c0-0.3,0.3-0.6,0.6-0.6c0.3,0,0.6,0.3,0.6,0.6v27c0,0.2-0.2,0.5-0.4,0.6
			c-8.2,3-13.7,10.7-13.7,19.1c0,11.3,9.6,20.5,21.4,20.5c6.4,0,12.4-2.7,16.5-7.5v-26l-0.2-0.2c-2.3-2.6-5.3-4.7-8.7-5.9
			c-0.2-0.1-0.4-0.3-0.4-0.6v-27c0-0.3,0.3-0.6,0.6-0.6c0.3,0,0.6,0.3,0.6,0.6v26.6c3,1.2,5.8,3,8.1,5.3v-3.5c0-0.3,0.3-0.6,0.6-0.6
			c0.3,0,0.6,0.3,0.6,0.6V51l0,0v4c0,4.3,3,7.8,6.6,7.8s6.6-3.5,6.6-7.8V19.5c0-0.3,0.3-0.6,0.6-0.6s0.6,0.3,0.6,0.6V55
			c0,4.9-3.5,9-7.8,9s-7.8-4-7.8-9v-2.4c-4.3,4.4-10.2,6.9-16.5,6.9c-5.2,0-10-1.7-13.9-4.6l0.3,1c0.1,0.3,0,0.6-0.3,0.7l-9.8,5.7
			c-0.2,0.1-0.5,0.1-0.7-0.1l-5.5-6c-1.2,0.4-2.4,0.7-3.7,1l-1.7,8C73.7,65.3,73.4,65.5,73.1,65.5z M62.3,64.3h10.3l1.7-7.9
			c0.1-0.2,0.2-0.4,0.5-0.5c1.5-0.3,2.9-0.7,4.3-1.2c0.2-0.1,0.5,0,0.6,0.2l5.4,6l9-5.2l-0.7-2.3c-4.3-4-7-9.5-7-15.7
			c0-8.8,5.7-16.8,14.1-20.1V-5.7l-4.9,1.6c-0.2,0.1-0.5,0-0.6-0.2c-1-1.1-2-2.1-3.1-3.1c-0.2-0.2-0.2-0.4-0.2-0.6l2.5-7.7l-9-5.2
			l-5.4,6c-0.2,0.2-0.4,0.2-0.6,0.2c-1.3-0.5-2.8-0.8-4.3-1.2c-0.2,0-0.4-0.2-0.5-0.5l-1.7-7.9H62.3l-1.7,7.9
			c-0.1,0.2-0.2,0.4-0.5,0.5c-1.5,0.3-3,0.7-4.3,1.1c-0.2,0.1-0.5,0-0.6-0.2l-5.4-6l-9,5.2l2.4,7.7c0.1,0.2,0,0.5-0.2,0.6
			c-1.1,1-2.1,2-3.1,3.1c-0.2,0.2-0.4,0.2-0.6,0.2l-7.7-2.4l-5.2,9l6,5.4c0.2,0.2,0.2,0.4,0.2,0.6c-0.5,1.6-0.9,3-1.2,4.3
			c0,0.2-0.2,0.4-0.5,0.5L23,14.9v10.3l7.9,1.7c0.2,0.1,0.4,0.2,0.5,0.5c0.3,1.3,0.6,2.7,1.2,4.3c0.1,0.2,0,0.5-0.2,0.6l-6,5.4
			l5.2,9l7.7-2.5c0.2-0.1,0.5,0,0.6,0.2c0.9,1.1,2,2.1,3.1,3.1c0.2,0.2,0.2,0.4,0.2,0.6l-2.4,7.6v0.1l8.9,5.2l5.4-6
			c0.2-0.2,0.4-0.2,0.6-0.2c1.4,0.5,2.8,0.9,4.3,1.2c0.2,0,0.4,0.2,0.5,0.5L62.3,64.3z M4.4,36.3c-1,0-1.9,0.8-1.9,1.9
			c0,1,0.8,1.9,1.9,1.9c0.8,0,1.5-0.6,1.8-1.3v-0.1c0-0.1,0-0.2,0.1-0.3v-0.1C6.2,37.1,5.4,36.3,4.4,36.3z M67.5,38.9
			c-10.4,0-18.9-8.5-18.9-18.9S57.1,1.1,67.5,1.1S86.4,9.6,86.4,20S77.9,38.9,67.5,38.9z M67.5,2.3c-9.8,0-17.7,7.9-17.7,17.7
			s7.9,17.7,17.7,17.7S85.2,29.8,85.2,20S77.3,2.3,67.5,2.3z M107-22.1c-2.1,0-3.9-1.7-3.9-3.9c0-2.1,1.7-3.9,3.9-3.9
			c2.1,0,3.9,1.7,3.9,3.9S109.1-22.1,107-22.1z M107-28.6c-1.5,0-2.7,1.2-2.7,2.7s1.2,2.7,2.7,2.7s2.7-1.2,2.7-2.7
			S108.5-28.6,107-28.6z M111.6-31.8c-1.5,0-2.7-1.2-2.7-2.7s1.2-2.7,2.7-2.7s2.7,1.2,2.7,2.7C114.3-33,113.1-31.8,111.6-31.8z
			 M111.6-36c-0.8,0-1.5,0.7-1.5,1.5s0.7,1.5,1.5,1.5s1.5-0.7,1.5-1.5S112.5-36,111.6-36z M106.1-39.1c-1.2,0-2.3-1-2.3-2.3
			c0-1.3,1-2.3,2.3-2.3s2.3,1,2.3,2.3C108.4-40.1,107.3-39.1,106.1-39.1z M106.1-42.5c-0.6,0-1.1,0.5-1.1,1.1c0,0.6,0.5,1.1,1.1,1.1
			s1.1-0.5,1.1-1.1C107.2-42,106.7-42.5,106.1-42.5z"/>
		<path class="st2" d="M19.9,63.9c-1.7,0-3.1-1.4-3.1-3.1s1.4-3.1,3.1-3.1s3.1,1.4,3.1,3.1C23,62.6,21.6,63.9,19.9,63.9z M19.9,59
			c-1,0-1.9,0.8-1.9,1.9c0,1,0.8,1.9,1.9,1.9c1,0,1.9-0.8,1.9-1.9C21.8,59.9,20.9,59,19.9,59z M133.3,20.8c-4.5,0-9-1.1-9-3.3
			c0-2.2,4.5-3.3,9-3.3s9,1.1,9,3.3C142.3,19.7,137.8,20.8,133.3,20.8z M133.3,15.3c-4.8,0-7.8,1.3-7.8,2.1s3.1,2.1,7.8,2.1
			c4.8,0,7.8-1.3,7.8-2.1S138.1,15.3,133.3,15.3z M109-7.7c-4.7,0-9.8-1-9.8-3.1c0-2.2,5.1-3.1,9.8-3.1c4.7,0,9.8,1,9.8,3.1
			C118.7-8.6,113.7-7.7,109-7.7z M109-12.8c-5.3,0-8.6,1.3-8.6,2s3,2,8.6,2c5.5,0,8.6-1.3,8.6-2C117.5-11.5,114.5-12.8,109-12.8z"/>
	</g>
</g>
<g id="Layer_5" class="st0">
	<g class="st1">
		<path class="st2" d="M81.8,54.1h-72c-0.3,0-0.6-0.3-0.6-0.6v-86.7c0-0.3,0.3-0.6,0.6-0.6h71.9c0.3,0,0.6,0.3,0.6,0.6v19.1
			c1.5-0.7,3-1.2,4.7-1.5v-5c0-0.3,0.3-0.6,0.6-0.6h8c0.3,0,0.6,0.3,0.6,0.6v5c5,0.8,9.4,2.7,13.5,6c0.2,0.2,0.3,0.6,0.1,0.8
			l-4.7,6.6C105-2.1,104.9-2,104.7-2c-0.2,0-0.3,0-0.5-0.1c-4.5-3.3-8.8-5-13.1-5c-4.5,0-7.5,2.1-7.5,5.3v0.1
			c0,3.3,1.7,4.9,11.3,7.2l0,0c11.6,2.8,16.4,7.2,16.4,15.1v0.1c0,8.4-5.8,14.2-15.2,15.2V41c0,0.3-0.3,0.6-0.6,0.6h-8
			c-0.3,0-0.6-0.3-0.6-0.6v-5.5c-1.6-0.3-3.1-0.7-4.7-1.3v19.3c0,0.2-0.1,0.3-0.2,0.4C82.1,54.1,82,54.1,81.8,54.1z M10.4,52.9h70.9
			V33.4l0,0v-9l0,0V10.9l0,0v-24l0,0v-19.4H10.4V52.9z M88.3,40.4H95v-5c0-0.3,0.2-0.6,0.5-0.6c9-0.8,14.7-6.2,14.7-14.1v-0.1
			c0-7.3-4.3-11.2-15.5-13.9l0,0c-9.6-2.3-12.2-4.1-12.2-8.4v-0.1c0-3.8,3.6-6.5,8.7-6.5c4.4,0,8.8,1.6,13.3,4.9l4-5.6
			c-3.9-3-8.2-4.8-13-5.5c-0.3,0-0.5-0.3-0.5-0.6V-20h-6.8v4.9c0,0.3-0.2,0.5-0.5,0.6c-2,0.3-3.8,0.9-5.4,1.8v23.2
			c2.2,1,4.9,1.9,8.7,2.8c8.9,2.1,11.6,4,11.6,8.2v0.1c0,4.1-3.7,6.8-9.4,6.8c-4,0-7.5-0.9-10.9-2.9V33c1.7,0.7,3.5,1.2,5.4,1.5
			c0.3,0,0.5,0.3,0.5,0.6v5.3H88.3z M82.4,24.1c3.5,2.1,7,3.1,10.9,3.1c5,0,8.2-2.2,8.2-5.6v-0.1c0-3.1-1.6-4.9-10.7-7
			c-3.6-0.9-6.3-1.7-8.4-2.7V24.1z M67.9,45.5H60c-1.9,0-3.4-1.5-3.4-3.4s1.5-3.4,3.4-3.4h7.9c1.9,0,3.4,1.5,3.4,3.4
			S69.8,45.5,67.9,45.5z M59.9,39.9c-1.2,0-2.2,1-2.2,2.2s1,2.2,2.2,2.2h7.9c1.2,0,2.2-1,2.2-2.2s-1-2.2-2.2-2.2H59.9z M49.8,45.5
			h-7.9c-1.9,0-3.4-1.5-3.4-3.4s1.5-3.4,3.4-3.4h7.9c1.9,0,3.4,1.5,3.4,3.4S51.7,45.5,49.8,45.5z M41.8,39.9c-1.2,0-2.2,1-2.2,2.2
			s1,2.2,2.2,2.2h7.9c1.2,0,2.2-1,2.2-2.2s-1-2.2-2.2-2.2H41.8z M31.7,45.5h-7.9c-1.9,0-3.4-1.5-3.4-3.4s1.5-3.4,3.4-3.4h7.9
			c1.9,0,3.4,1.5,3.4,3.4C35.1,44,33.5,45.5,31.7,45.5z M23.7,39.9c-1.2,0-2.2,1-2.2,2.2s1,2.2,2.2,2.2h7.9c1.2,0,2.2-1,2.2-2.2
			s-1-2.2-2.2-2.2H23.7z M67.9,34.4H60c-1.9,0-3.4-1.5-3.4-3.4s1.5-3.4,3.4-3.4h7.9c1.9,0,3.4,1.5,3.4,3.4
			C71.3,32.8,69.8,34.4,67.9,34.4z M59.9,28.7c-1.2,0-2.2,1-2.2,2.2s1,2.2,2.2,2.2h7.9c1.2,0,2.2-1,2.2-2.2s-1-2.2-2.2-2.2H59.9z
			 M49.8,34.4h-7.9c-1.9,0-3.4-1.5-3.4-3.4s1.5-3.4,3.4-3.4h7.9c1.9,0,3.4,1.5,3.4,3.4C53.2,32.8,51.7,34.4,49.8,34.4z M41.8,28.7
			c-1.2,0-2.2,1-2.2,2.2s1,2.2,2.2,2.2h7.9c1.2,0,2.2-1,2.2-2.2s-1-2.2-2.2-2.2H41.8z M31.7,34.4h-7.9c-1.9,0-3.4-1.5-3.4-3.4
			s1.5-3.4,3.4-3.4h7.9c1.9,0,3.4,1.5,3.4,3.4C35.1,32.8,33.5,34.4,31.7,34.4z M23.7,28.7c-1.2,0-2.2,1-2.2,2.2s1,2.2,2.2,2.2h7.9
			c1.2,0,2.2-1,2.2-2.2s-1-2.2-2.2-2.2H23.7z M67.9,23.2H60c-1.9,0-3.4-1.5-3.4-3.4s1.5-3.4,3.4-3.4h7.9c1.9,0,3.4,1.5,3.4,3.4
			S69.8,23.2,67.9,23.2z M59.9,17.6c-1.2,0-2.2,1-2.2,2.2s1,2.2,2.2,2.2h7.9c1.2,0,2.2-1,2.2-2.2s-1-2.2-2.2-2.2H59.9z M49.8,23.2
			h-7.9c-1.9,0-3.4-1.5-3.4-3.4s1.5-3.4,3.4-3.4h7.9c1.9,0,3.4,1.5,3.4,3.4S51.7,23.2,49.8,23.2z M41.8,17.6c-1.2,0-2.2,1-2.2,2.2
			s1,2.2,2.2,2.2h7.9c1.2,0,2.2-1,2.2-2.2s-1-2.2-2.2-2.2H41.8z M31.7,23.2h-7.9c-1.9,0-3.4-1.5-3.4-3.4s1.5-3.4,3.4-3.4h7.9
			c1.9,0,3.4,1.5,3.4,3.4C35.1,21.7,33.5,23.2,31.7,23.2z M23.7,17.6c-1.2,0-2.2,1-2.2,2.2s1,2.2,2.2,2.2h7.9c1.2,0,2.2-1,2.2-2.2
			s-1-2.2-2.2-2.2H23.7z M120.5,22.3c-0.1,0-0.3-0.1-0.4-0.2l-5.2-4.9c-0.1-0.1-0.2-0.3-0.2-0.4s0.1-0.3,0.2-0.4l4.8-5.1
			c0.2-0.2,0.6-0.2,0.8,0c0.2,0.2,0.2,0.6,0,0.8l-3.9,4.1h19.9c0.3,0,0.6,0.3,0.6,0.6s-0.3,0.6-0.6,0.6h-19.7l4.1,3.9
			c0.2,0.2,0.2,0.6,0,0.8C120.8,22.3,120.7,22.3,120.5,22.3z M131.3,11c-0.2,0-0.3-0.1-0.4-0.2c-0.2-0.2-0.2-0.6,0-0.8l4.1-3.9
			h-19.7c-0.3,0-0.6-0.3-0.6-0.6s0.3-0.6,0.6-0.6h19.9l-3.9-4.1c-0.2-0.2-0.2-0.6,0-0.8s0.6-0.2,0.8,0l4.9,5
			c0.1,0.1,0.2,0.3,0.2,0.4c0,0.2-0.1,0.3-0.2,0.4l-5.2,4.9C131.6,11,131.5,11,131.3,11z M71.5,6H20.1c-0.3,0-0.6-0.3-0.6-0.6v-30.9
			c0-0.3,0.3-0.6,0.6-0.6h51.4c0.3,0,0.6,0.3,0.6,0.6V5.4C72.1,5.7,71.8,6,71.5,6z M20.7,4.8h50.2v-29.7H20.7V4.8z"/>
	</g>
</g>
<g id="Layer_4" class="st0">
	<g class="st1">
		<path class="st2" d="M124.8,65.5H64.7c-0.3,0-0.6-0.2-0.6-0.6v-5H20.6c-0.1,0-0.3-0.1-0.4-0.2S20,59.5,20,59.3V-8.2
			c0-0.3,0.2-0.6,0.6-0.6h30.9v-20.8c0-0.3,0.2-0.6,0.6-0.6H72c0.3,0,0.6,0.2,0.6,0.6V4.8c3.7-1.9,19.4-8.5,33.7,1.4
			c0.1,0.1,0.2,0.3,0.2,0.5v32c0,0.1,0,0.1,0,0.2c5.8,4.5,9.6,11.3,9.7,18.9c7.8,1.7,9.2,6.7,9.2,7c0,0.2,0,0.3-0.1,0.5
			C125.2,65.4,125,65.5,124.8,65.5z M65.3,64.4H124c-0.7-1.4-2.7-4.4-8.5-5.5c-0.3-0.1-0.5-0.3-0.4-0.6c0,0,0,0,0-0.1c0,0,0,0,0-0.1
			s0-0.1,0-0.2c-0.2-12.9-11.4-23.4-24.9-23.4c-13.7,0-24.9,10.7-24.9,23.8v0.5c0.1,0,0.1,0,0.2,0h18.9v-2c0-0.3,0.2-0.6,0.6-0.6
			h6.7c0.3,0,0.6,0.2,0.6,0.6v2h17.4c0.3,0,0.6,0.2,0.6,0.6s-0.2,0.6-0.6,0.6H65.4c-0.1,0-0.1,0-0.2,0L65.3,64.4L65.3,64.4z
			 M21.2,35.4v23.4h43v-0.5c0-6.7,2.8-12.8,7.3-17.3v-0.1V-29H52.6v20.8c0,0,0,0,0,0.1V41c0,0.3-0.2,0.6-0.6,0.6
			c-0.1,0-0.3-0.1-0.4-0.2c-0.1-0.1-0.2-0.2-0.2-0.4V-7.7H21.2v17.9h13.9c0.3,0,0.6,0.2,0.6,0.6c0,0.3-0.2,0.6-0.6,0.6H21.2v4.9
			h13.9c0.3,0,0.6,0.2,0.6,0.6c0,0.3-0.2,0.6-0.6,0.6H21.2v4.9h13.9c0.3,0,0.6,0.2,0.6,0.6s-0.2,0.6-0.6,0.6H21.2v4.9h13.9
			c0.3,0,0.6,0.2,0.6,0.6s-0.2,0.6-0.6,0.6H21.2v4.9h13.9c0.3,0,0.6,0.2,0.6,0.6s-0.2,0.6-0.6,0.6H21.2V35.4z M85.4,58.7H91v-1.3
			h-5.6V58.7z M72.5,6.1V40c4.6-4.1,10.8-6.6,17.6-6.6c5.7,0,10.9,1.8,15.2,4.8V7C90.8-2.9,74.8,4.9,72.5,6.1z M106.5,47.6
			c-0.2,0-0.3-0.1-0.4-0.2c-3.8-5.1-9.9-8.1-16.5-8.1c-2.5,0-4.9,0.4-7.2,1.3c-0.3,0.1-0.6,0-0.7-0.3s0-0.6,0.3-0.7
			c2.4-0.9,5-1.3,7.6-1.3c6.9,0,13.4,3.2,17.4,8.6c0.2,0.2,0.1,0.6-0.1,0.8C106.7,47.6,106.6,47.6,106.5,47.6z M63.1-31.4
			c-0.6,0-0.6-0.6-0.6-1c0-1.2,0.4-5.1,6.7-5.3c4.9-0.6,6.6-2.1,6.5-5.8c0-0.3,0.2-0.6,0.5-0.6s0.6,0.2,0.6,0.5
			c0.2,4.2-2,6.2-7.5,6.9c-2.3,0.1-3.9,0.6-4.8,1.7c-1,1.2-0.8,2.6-0.8,2.7v0.1C63.7-31.7,63.4-31.4,63.1-31.4z M57.8-31.5
			c-0.3,0-0.5-0.2-0.5-0.5c0-0.1-0.9-7.2,6.7-8.4c0.5-0.1,1-0.1,1.6-0.2c3.2-0.3,5.5-0.7,5.8-3.3c0-0.3,0.3-0.5,0.6-0.5
			c0.3,0,0.5,0.3,0.5,0.6c-0.4,3.8-4.1,4.1-6.8,4.3c-0.5,0-1.1,0.1-1.5,0.2c-6.6,1-5.8,6.9-5.8,7.1C58.4-31.8,58.2-31.6,57.8-31.5
			C57.9-31.5,57.9-31.5,57.8-31.5z"/>
	</g>
</g>
<g id="Layer_3" class="st0">
	<g class="st1">
		<path class="st2" d="M117.6,55.9c-3.1,0-5.6-2.5-5.6-5.6c0-2.4,1.6-4.5,3.7-5.3L112,32.4c-0.4,0.1-0.8,0.2-1.1,0.2
			c-1.2,0.3-2.4,0.4-3.6,0.4H53.4v4.7c0,0.3-0.3,0.6-0.6,0.6H26.3c-0.3,0-0.6-0.3-0.6-0.6v-5.1C12.5,31.9,2.2,21,2.2,7.8
			C2.2-5.8,13.3-17,27-17c1.7,0,3.5,0.2,5.3,0.6c5.8-11.1,17.2-17.9,30-17.9c15.4,0,28.7,10,32.6,24.5c3.6-2.2,7.8-3.4,12.1-3.4
			c6.7,0,12.8,2.9,17,7.5l9.7-8.9c-0.9-0.9-1.4-2.1-1.4-3.4c0-2.7,2.2-4.9,4.9-4.9s4.9,2.2,4.9,4.9s-2.2,4.9-4.9,4.9
			c-0.9,0-1.8-0.3-2.5-0.7l-9.9,9.1c3.3,4,5.2,9.1,5.2,14.6c0,10.4-6.9,19.4-16.8,22.2l3.6,12.6c0.2,0,0.5,0,0.7,0
			c3.1,0,5.6,2.5,5.6,5.6S120.7,55.9,117.6,55.9z M117.6,45.8c-2.4,0-4.4,2-4.4,4.4s2,4.4,4.4,4.4s4.4-2,4.4-4.4
			S120,45.8,117.6,45.8z M26.9,37.1h25.3V15.2H26.9V37.1z M53.4,31.8h53.9c1.1,0,2.2-0.1,3.4-0.4c0.3-0.1,0.7-0.1,1-0.2l-2.9-10.1
			c-1,0.3-2.1,0.4-3.2,0.4c-6.5,0-11.8-5.3-11.8-11.8c0-0.4,0-0.9,0.1-1.3L79,4.4c-0.6,1.9-2.5,3.3-4.6,3.3c-2.7,0-4.9-2.2-4.9-4.9
			s2.2-4.9,4.9-4.9c2.7,0,4.9,2.2,4.9,4.9c0,0.1,0,0.2,0,0.3l14.8,4c1.2-5.3,5.9-9.3,11.5-9.3c3.8,0,7.2,1.8,9.4,4.7l0,0l8-7.4
			c-4-4.4-9.7-7.1-16.1-7.1c-4.3,0-8.5,1.3-12.1,3.7c-0.2,0.1-0.4,0.1-0.6,0.1c-0.2-0.1-0.3-0.2-0.4-0.4
			C90.4-23,77.4-33.1,62.3-33.1c-12.4,0-23.6,6.8-29.1,17.7c-0.1,0.3-0.4,0.4-0.7,0.3c-1.9-0.5-3.7-0.7-5.5-0.7
			C14-15.8,3.4-5.2,3.4,7.8c0,12.5,9.8,22.8,22.3,23.5V14.6c0-0.3,0.3-0.6,0.6-0.6h4.1v-2.4c0-5.3,4.1-9.6,9.1-9.6s9.1,4.3,9.1,9.6
			V14h4.1c0.3,0,0.6,0.3,0.6,0.6v17.2H53.4z M109.9,20.7l2.9,10.2c9.3-2.6,15.9-11.1,15.9-21c0-5.2-1.8-10-4.9-13.8l-8,7.4
			c-0.1,0-0.1,0.1-0.2,0.1c1.1,1.8,1.7,3.9,1.7,6.1C117.4,14.7,114.3,18.9,109.9,20.7z M105.6-0.9C99.8-0.9,95,3.8,95,9.7
			c0,5.8,4.7,10.6,10.6,10.6c5.8,0,10.6-4.7,10.6-10.6C116.2,3.9,111.4-0.9,105.6-0.9z M31.7,13.9h15.8v-2.4c0-4.6-3.5-8.4-7.9-8.4
			s-7.9,3.8-7.9,8.4C31.7,11.5,31.7,13.9,31.7,13.9z M74.4-0.8c-2,0-3.6,1.6-3.6,3.6s1.6,3.6,3.6,3.6c1.7,0,3.2-1.2,3.5-2.8
			c0-0.1,0-0.1,0-0.2V3.3c0-0.2,0-0.3,0-0.5C78,0.9,76.4-0.8,74.4-0.8z M137.1-21.6c-2,0-3.6,1.6-3.6,3.6s1.6,3.6,3.6,3.6
			s3.6-1.6,3.6-3.6S139.1-21.6,137.1-21.6z M39.6,29.3c-1.7,0-3-1.4-3-3c0-1.7,1.4-3,3-3s3,1.4,3,3C42.6,28,41.2,29.3,39.6,29.3z
			 M39.6,24.5c-1,0-1.8,0.8-1.8,1.8s0.8,1.8,1.8,1.8s1.8-0.8,1.8-1.8C41.3,25.3,40.5,24.5,39.6,24.5z"/>
	</g>
</g>
<g id="Layer_6">
</g>
<polygon class="st3" points="64.8,-47.4 62.9,-46.4 61.1,-47.4 59.3,-46.3 57.4,-47.2 55.7,-46 53.8,-46.7 52.2,-45.4 50.2,-46 
	48.6,-44.6 46.6,-45.1 45.2,-43.6 43.1,-44 41.8,-42.4 39.7,-42.6 38.4,-41 36.4,-41 35.2,-39.3 33.2,-39.3 32.1,-37.5 30,-37.3 
	29.1,-35.4 27.1,-35.1 26.3,-33.2 24.2,-32.8 23.5,-30.8 21.6,-30.3 21,-28.3 19,-27.6 18.6,-25.6 16.7,-24.8 16.4,-22.7 
	14.5,-21.8 14.3,-19.7 12.6,-18.7 12.5,-16.6 10.8,-15.5 10.9,-13.4 9.2,-12.1 9.4,-10.1 7.9,-8.7 8.2,-6.7 6.7,-5.2 7.2,-3.2 
	5.8,-1.6 6.4,0.3 5.1,2 5.8,3.9 4.7,5.6 5.5,7.5 4.4,9.3 5.4,11.1 4.4,13 5.5,14.7 4.7,16.6 5.8,18.3 5.1,20.3 6.4,21.9 5.8,23.9 
	7.2,25.4 6.7,27.5 8.2,28.9 7.9,31 9.4,32.3 9.2,34.4 10.9,35.6 10.8,37.7 12.5,38.9 12.6,40.9 14.3,42 14.5,44 16.4,45 16.7,47 
	18.6,47.8 19,49.8 21,50.5 21.6,52.5 23.5,53.1 24.2,55 26.3,55.5 27.1,57.4 29.1,57.7 30,59.5 32.1,59.7 33.2,61.5 35.2,61.6 
	36.4,63.3 38.4,63.2 39.7,64.8 41.8,64.6 43.1,66.2 45.2,65.9 46.6,67.3 48.6,66.9 50.2,68.2 52.2,67.7 53.8,68.9 55.7,68.2 
	57.4,69.4 59.3,68.6 61.1,69.6 62.9,68.7 64.8,69.6 66.6,68.6 68.5,69.4 70.2,68.2 72.1,68.9 73.7,67.7 75.7,68.2 77.3,66.9 
	79.3,67.3 80.7,65.9 82.8,66.2 84.1,64.6 86.2,64.8 87.5,63.2 89.5,63.3 90.7,61.6 92.7,61.5 93.8,59.7 95.9,59.5 96.8,57.7 
	98.8,57.4 99.6,55.5 101.7,55 102.4,53.1 104.3,52.5 104.9,50.5 106.9,49.8 107.3,47.8 109.2,47 109.5,45 111.4,44 111.6,42 
	113.3,40.9 113.4,38.9 115.1,37.7 115,35.6 116.7,34.4 116.5,32.3 118,31 117.7,28.9 119.2,27.5 118.7,25.4 120.1,23.9 119.5,21.9 
	120.8,20.3 120.1,18.3 121.2,16.6 120.4,14.7 121.5,13 120.5,11.1 121.5,9.3 120.4,7.5 121.2,5.6 120.1,3.9 120.8,2 119.5,0.3 
	120.1,-1.6 118.7,-3.2 119.2,-5.2 117.7,-6.7 118,-8.7 116.5,-10.1 116.7,-12.1 115,-13.4 115.1,-15.5 113.4,-16.6 113.3,-18.7 
	111.6,-19.7 111.4,-21.8 109.5,-22.7 109.2,-24.8 107.3,-25.6 106.9,-27.6 104.9,-28.3 104.3,-30.3 102.4,-30.8 101.7,-32.8 
	99.6,-33.2 98.8,-35.1 96.8,-35.4 95.9,-37.3 93.8,-37.5 92.7,-39.3 90.7,-39.3 89.5,-41 87.5,-41 86.2,-42.6 84.1,-42.4 82.8,-44 
	80.7,-43.6 79.3,-45.1 77.3,-44.6 75.7,-46 73.7,-45.4 72.1,-46.7 70.2,-46 68.5,-47.2 66.6,-46.3 "/>
<polygon class="st4" points="13.3,11.8 13.6,8.6 20.1,7.3 13.8,5.1 14.1,1.9 24.4,2.7 24.2,4.6 15.1,3.9 24,7.1 23.9,8.2 14.6,10 
	23.8,10.6 23.6,12.6 "/>
<path class="st4" d="M23.7,12.7l-10.5-0.8l0.3-3.4l6.1-1.2l-5.9-2.1L14,1.8l10.5,0.8l-0.2,2.2L16,4.1L24.2,7l-0.1,1.3l-0.1,0
	l-8.4,1.6l8.3,0.6L23.7,12.7z M13.5,11.7l10,0.8l0.1-1.7L13.7,10l10.1-1.9l0.1-0.9l-9.7-3.4l9.9,0.7l0.1-1.7l-10-0.8l-0.2,3l6.6,2.3
	l-6.8,1.3L13.5,11.7z"/>
<rect x="19.4" y="-6.8" transform="matrix(-0.2754 0.9613 -0.9613 -0.2754 24.5162 -21.6851)" class="st4" width="2" height="10.3"/>
<path class="st4" d="M25.2,0.9L15-2l0.6-2.2l10.1,2.9L25.2,0.9z M15.4-2.1L25,0.6l0.5-1.7l-9.7-2.8L15.4-2.1z"/>
<polygon class="st4" points="16.9,-7.6 17.8,-9.4 25.5,-5.8 27.3,-9.7 28.9,-8.9 26.3,-3.2 "/>
<path class="st4" d="M26.4-3.1l-0.1-0.1l-9.5-4.4l0.9-2.1l0.1,0.1L25.5-6l1.8-3.9L29.1-9L26.4-3.1z M17.1-7.6l9.1,4.2l2.5-5.5
	l-1.4-0.6l-1.8,3.9l-0.1-0.1l-7.6-3.5L17.1-7.6z"/>
<rect x="25" y="-19" transform="matrix(-0.5522 0.8337 -0.8337 -0.5522 28.9379 -43.1541)" class="st4" width="2" height="10.3"/>
<path class="st4" d="M29.8-9.9L29.7-10L21-15.8l1.3-1.9l0.1,0.1l8.7,5.8L29.8-9.9z M21.4-15.8l8.4,5.6l1-1.5l-8.4-5.6L21.4-15.8z"/>
<polygon class="st4" points="24.1,-20.1 29.4,-25.8 30.7,-24.6 28.7,-22.5 35,-16.7 33.6,-15.2 27.3,-21 25.4,-18.9 "/>
<path class="st4" d="M33.6-15l-6.3-5.8l-2,2.1l-1.5-1.4l5.5-5.9l1.5,1.4l-2,2.1l6.3,5.8L33.6-15z M27.3-21.2l6.3,5.8l1.2-1.3
	l-6.3-5.8l2-2.1l-1.1-1l-5.1,5.5l1.1,1L27.3-21.2z"/>
<path class="st4" d="M32.9-28.6l1.7-1.3l8.8,6.3l-1.6,1.2l-2.1-1.5l-2.7,2l0.8,2.4l-1.6,1.2L32.9-28.6z M35.4-27l1.2,3.6l1.9-1.4
	L35.4-27z"/>
<path class="st4" d="M36.2-18.1l-3.5-10.5l1.9-1.4l9,6.5l-1.8,1.3l-2.1-1.5l-2.5,1.8l0.8,2.4L36.2-18.1z M33-28.5l3.3,10l1.4-1
	l-0.8-2.4l2.8-2.1l2.1,1.5l1.4-1l-8.6-6.2L33-28.5z M36.5-23.2l-1.4-4.1l3.5,2.5L36.5-23.2z M35.6-26.7l1,3.1l1.6-1.2L35.6-26.7z"/>
<g>
	<defs>
		<rect id="SVGID_1_" x="4.4" y="-47.4" width="117" height="117"/>
	</defs>
	<clipPath id="SVGID_2_">
		<use xlink:href="#SVGID_1_"  style="overflow:visible;"/>
	</clipPath>
	<path class="st5" d="M40.2-33.4l2.6-1.1c1.4-0.6,2.4-0.9,3-0.9c0.6,0,1.2,0.1,1.7,0.5c0.5,0.3,0.9,0.8,1.1,1.4
		c0.2,0.6,0.3,1.1,0.2,1.6c-0.1,0.5-0.4,1-1,1.5l3.5,3.4l-1.8,0.8l-3.2-3.1l-1.7,0.7l1.6,3.8l-1.9,0.8L40.2-33.4z M42.8-32.6
		l1.1,2.5l1.5-0.6c0.5-0.2,0.9-0.6,1.2-1.1c0.2-0.3,0.2-0.7,0-1c-0.2-0.4-0.4-0.6-0.8-0.7c-0.4-0.1-0.9,0-1.5,0.2L42.8-32.6z"/>
	<path class="st5" d="M44.2-23.8l-4.2-9.7l2.7-1.1c1.4-0.6,2.4-0.9,3-0.9c0.6,0,1.2,0.2,1.7,0.5c0.5,0.4,0.9,0.9,1.2,1.5
		c0.3,0.6,0.3,1.1,0.2,1.6c-0.1,0.5-0.4,1-0.9,1.5l3.5,3.5L49.4-26l-3.2-3.1l-1.5,0.7l1.6,3.8L44.2-23.8z M40.4-33.3l4,9.2l1.6-0.7
		l-1.6-3.8l1.9-0.8l3.2,3.1l1.6-0.7l-3.4-3.4l0.1-0.1c0.5-0.5,0.8-1,0.9-1.5c0.1-0.5,0-1-0.2-1.5c-0.3-0.6-0.6-1.1-1.1-1.4
		c-0.5-0.3-1-0.5-1.6-0.5c-0.6,0-1.6,0.3-2.9,0.9L40.4-33.3z M43.8-29.8l-1.2-2.8l1.6-0.7c0.7-0.3,1.2-0.4,1.6-0.2
		c0.4,0.1,0.7,0.4,0.9,0.8c0.2,0.4,0.2,0.8,0,1.1c-0.3,0.5-0.7,0.9-1.3,1.1L43.8-29.8z M43-32.5l1,2.3l1.4-0.6
		c0.5-0.2,0.9-0.6,1.1-1c0.1-0.3,0.1-0.6,0-0.9c-0.1-0.3-0.4-0.5-0.7-0.6c-0.3-0.1-0.8,0-1.4,0.2L43-32.5z"/>
	<polygon class="st5" points="49.7,-37.2 51.7,-37.6 54.2,-34.4 55.3,-38.3 57.4,-38.7 55.6,-32.5 56.5,-28 54.5,-27.6 53.6,-32.1 	
		"/>
	<path class="st5" d="M54.4-27.5l-0.9-4.6l-4.1-5.2l2.3-0.5l2.4,3l1.1-3.7l2.3-0.5l-1.8,6.3l0.9,4.6L54.4-27.5z M49.9-37.1l3.9,4.9
		l0.9,4.4l1.8-0.3l-0.9-4.4l0,0l1.7-6l-1.8,0.4l-1.2,4l-2.6-3.3L49.9-37.1z"/>
	<polygon class="st5" points="65.7,-38.8 72,-38.1 71.8,-36.4 67.5,-36.8 67.2,-34.2 69.7,-33.9 69.5,-32.1 67,-32.4 66.6,-28.4 
		64.6,-28.6 	"/>
	<path class="st5" d="M66.7-28.2l-2.3-0.3l0-0.1L65.6-39l6.5,0.7l-0.2,2l-4.3-0.5l-0.3,2.4l2.5,0.3l-0.2,2l-2.5-0.3L66.7-28.2z
		 M64.7-28.7l1.8,0.2l0.4-4l2.5,0.3l0.2-1.5L67.1-34l0.3-2.9l4.3,0.5l0.2-1.5l-6-0.7L64.7-28.7z"/>
	<path class="st5" d="M75.3-37.4l2.6,0.9c1.4,0.5,2.4,0.9,2.8,1.3c0.5,0.4,0.8,0.9,0.9,1.5c0.1,0.6,0.1,1.2-0.1,1.8
		c-0.2,0.6-0.5,1-0.9,1.3c-0.4,0.3-1,0.5-1.7,0.5l0.3,4.9l-1.9-0.6l-0.3-4.5l-1.8-0.6L74-27l-1.9-0.6L75.3-37.4z M76.7-35l-0.9,2.6
		l1.5,0.5c0.6,0.2,1.1,0.2,1.6,0c0.3-0.1,0.6-0.4,0.7-0.8c0.1-0.4,0.1-0.7-0.1-1c-0.2-0.3-0.6-0.6-1.3-0.8L76.7-35z"/>
	<path class="st5" d="M79.4-25l-2.2-0.7L77-30.2l-1.6-0.5l-1.3,3.9l-2.2-0.7l0-0.1l3.3-9.9l2.8,0.9c1.4,0.5,2.4,0.9,2.9,1.3
		c0.5,0.4,0.8,0.9,1,1.5c0.1,0.6,0.1,1.3-0.1,1.9c-0.2,0.6-0.5,1.1-0.9,1.4c-0.4,0.3-1,0.5-1.7,0.5L79.4-25z M77.5-25.9l1.7,0.6
		l-0.3-4.8l0.1,0c0.7,0,1.3-0.2,1.7-0.5c0.4-0.3,0.7-0.7,0.8-1.2c0.2-0.6,0.2-1.2,0.1-1.8c-0.1-0.6-0.4-1-0.9-1.4
		c-0.5-0.4-1.4-0.8-2.8-1.3l-2.5-0.8l-3.2,9.5l1.7,0.6l1.3-3.9l2,0.7L77.5-25.9z M78.2-31.6c-0.3,0-0.6,0-0.9-0.1l-1.7-0.6l1-2.9
		l1.7,0.6c0.7,0.2,1.1,0.5,1.3,0.9c0.2,0.4,0.3,0.8,0.1,1.2c-0.1,0.4-0.4,0.7-0.8,0.8C78.7-31.7,78.5-31.6,78.2-31.6z M76-32.5
		l1.4,0.5c0.5,0.2,1,0.2,1.5,0c0.3-0.1,0.5-0.3,0.6-0.7c0.1-0.3,0.1-0.6-0.1-0.9c-0.2-0.3-0.6-0.6-1.2-0.8l-1.4-0.5L76-32.5z"/>
	
		<rect x="83.1" y="-33.5" transform="matrix(-0.8788 -0.4772 0.4772 -0.8788 171.5414 -13.08)" class="st5" width="2" height="10.3"/>
	<path class="st5" d="M82.6-23.2l-2-1.1l0.1-0.1l5-9.2l2,1.1l-0.1,0.1L82.6-23.2z M80.9-24.3l1.6,0.8l4.8-8.8l-1.6-0.8L80.9-24.3z"
		/>
	<polygon class="st5" points="90.8,-30.4 96.2,-26.2 95.2,-24.7 91.3,-27.7 89.9,-25.9 92.3,-24.1 91.3,-22.9 89,-24.7 87.2,-22.4 
		91,-19.4 89.9,-18 84.5,-22.3 	"/>
	<path class="st5" d="M90-17.9l-5.7-4.4l6.5-8.3l5.7,4.4l-1.2,1.6l-3.9-3L90.1-26l2.4,1.8l-1.1,1.4L89-24.6l-1.6,2.1l3.9,3L90-17.9z
		 M84.7-22.3l5.3,4.1l0.9-1.2l-3.9-3l1.9-2.5l2.4,1.8l0.8-1l-2.4-1.8l1.5-2l3.9,3l0.9-1.2l-5.3-4.1L84.7-22.3z"/>
	<polygon class="st5" points="98.9,-23.6 100.3,-21.9 97.5,-14.3 102.9,-18.7 104.2,-17.1 96.1,-10.6 94.9,-12.2 97.8,-20.1 
		92.2,-15.6 90.9,-17.2 	"/>
	<path class="st5" d="M96.1-10.5l-1.4-1.7l0-0.1l2.7-7.5l-5.3,4.3l-1.4-1.8l8.2-6.6l1.5,1.8l-2.6,7.3l5.1-4.1l1.4,1.8L96.1-10.5z
		 M95-12.2l1.1,1.4l7.8-6.3l-1.1-1.4L97.3-14l2.9-8l-1.2-1.5l-7.8,6.3l1.1,1.4l5.8-4.7L95-12.2z"/>
	<path class="st5" d="M106.5-13.3l1.5,3.4c0.4,0.8,0.5,1.6,0.4,2.4c-0.1,0.8-0.4,1.6-1,2.2c-0.6,0.7-1.3,1.2-2.1,1.6
		c-0.8,0.4-1.7,0.6-2.5,0.6c-0.8,0-1.5-0.1-2.1-0.4c-0.4-0.2-0.8-0.5-1.2-1c-0.4-0.4-0.7-0.9-1-1.5L97.1-9L106.5-13.3z M105.7-10.7
		l-6.2,2.8l0.6,1.3c0.2,0.5,0.5,0.8,0.9,1c0.4,0.2,0.8,0.4,1.3,0.4c0.7,0,1.4-0.1,2-0.4c0.9-0.4,1.5-1,1.8-1.8
		c0.3-0.8,0.3-1.6-0.1-2.4L105.7-10.7z"/>
	<path class="st5" d="M102.7-2.9c-0.8,0-1.4-0.1-2-0.4c-0.4-0.2-0.9-0.5-1.3-1c-0.4-0.4-0.8-1-1-1.5l-1.5-3.2l9.6-4.3l1.6,3.5
		c0.4,0.8,0.5,1.7,0.4,2.5c-0.1,0.8-0.5,1.6-1,2.3c-0.6,0.7-1.3,1.2-2.2,1.6c-0.8,0.4-1.7,0.6-2.5,0.6
		C102.8-2.9,102.7-2.9,102.7-2.9z M97.2-9l1.4,3c0.3,0.6,0.6,1.1,1,1.5c0.4,0.4,0.8,0.7,1.2,0.9c0.6,0.3,1.2,0.4,2,0.4
		c0.8,0,1.6-0.2,2.4-0.6c0.8-0.4,1.5-0.9,2.1-1.5c0.6-0.6,0.9-1.4,1-2.1c0.1-0.8,0-1.6-0.4-2.4l-1.5-3.3L97.2-9z M102.5-5.1
		c0,0-0.1,0-0.1,0c-0.5,0-1-0.1-1.4-0.4c-0.4-0.3-0.7-0.6-1-1.1L99.4-8l6.4-2.9l0.5,1c0.4,0.9,0.4,1.7,0.1,2.5
		c-0.3,0.8-0.9,1.4-1.9,1.8C103.8-5.2,103.2-5.1,102.5-5.1z M99.7-7.8l0.5,1.2c0.2,0.4,0.5,0.8,0.9,1c0.4,0.2,0.8,0.4,1.3,0.4
		c0.7,0,1.3-0.1,2-0.4c0.9-0.4,1.5-1,1.8-1.7c0.3-0.7,0.3-1.5-0.1-2.3l-0.4-0.8L99.7-7.8z"/>
	<polygon class="st5" points="110.8,-2.2 111.2,-0.3 102.9,1.5 103.8,5.6 102,6 100.7,-0.1 	"/>
	<path class="st5" d="M101.9,6.1l0-0.1l-1.3-6.3l10.3-2.2l0.5,2.2L103,1.6l0.9,4.2L101.9,6.1z M100.9,0l1.2,5.9l1.5-0.3l-0.9-4.2
		l8.3-1.7l-0.4-1.7L100.9,0z"/>
	<polygon class="st5" points="112.2,4.6 112.3,6.7 108.8,8.7 112.5,10.4 112.6,12.5 106.7,9.8 102.1,10 102.1,8 106.7,7.8 	"/>
	<path class="st5" d="M112.7,12.7l-6-2.8l-4.7,0.2l-0.1-2.3l4.7-0.2l5.7-3.2l0.1,2.4l-3.4,1.9l3.5,1.6L112.7,12.7z M106.8,9.7
		L106.8,9.7l5.7,2.6l-0.1-1.8l-3.8-1.7l3.6-2.1l-0.1-1.8l-5.5,3.1l-4.5,0.2l0.1,1.8L106.8,9.7z"/>
</g>
<g>
	<defs>
		<path id="SVGID_3_" d="M28.1,11.1C28.1,30.4,43.7,46,63,46c19.3,0,34.9-15.6,34.9-34.9c0-19.3-15.6-34.9-34.9-34.9
			C43.7-23.8,28.1-8.1,28.1,11.1"/>
	</defs>
	<clipPath id="SVGID_4_">
		<use xlink:href="#SVGID_3_"  style="overflow:visible;"/>
	</clipPath>
	
		<linearGradient id="SVGID_5_" gradientUnits="userSpaceOnUse" x1="1.9048" y1="20.2537" x2="2.5569" y2="20.2537" gradientTransform="matrix(107.0012 0 0 -107.0012 -175.7112 2178.2954)">
		<stop  offset="0" style="stop-color:#D0D2D3"/>
		<stop  offset="9.227017e-02" style="stop-color:#D3D5D6"/>
		<stop  offset="0.1592" style="stop-color:#DCDEDF"/>
		<stop  offset="0.218" style="stop-color:#ECEDEE"/>
		<stop  offset="0.2209" style="stop-color:#EDEEEF"/>
		<stop  offset="0.5031" style="stop-color:#FFFFFF"/>
		<stop  offset="0.7221" style="stop-color:#FCFDFD"/>
		<stop  offset="0.8518" style="stop-color:#F4F5F5"/>
		<stop  offset="0.9578" style="stop-color:#E6E7E8"/>
		<stop  offset="1" style="stop-color:#DEDFE1"/>
	</linearGradient>
	<rect x="28.1" y="-23.8" class="st6" width="69.8" height="69.8"/>
</g>
<g>
	<defs>
		<rect id="SVGID_6_" x="4.4" y="-47.4" width="117" height="117"/>
	</defs>
	<clipPath id="SVGID_7_">
		<use xlink:href="#SVGID_6_"  style="overflow:visible;"/>
	</clipPath>
	<polygon class="st7" points="32.5,18.7 35.9,18.7 37.9,8.4 34.4,8.4 	"/>
	<polygon class="st7" points="35.4,3.5 34.7,6.9 52.1,6.9 52.7,3.5 	"/>
	<polygon class="st7" points="39.4,18.7 42.9,18.7 44.9,8.4 41.4,8.4 	"/>
	<polygon class="st7" points="46.3,18.7 49.8,18.7 51.8,8.4 48.3,8.4 	"/>
</g>
<g>
	<defs>
		<polygon id="SVGID_8_" points="56,3.5 55.4,6.9 68.7,6.9 69.4,3.5 		"/>
	</defs>
	<clipPath id="SVGID_9_">
		<use xlink:href="#SVGID_8_"  style="overflow:visible;"/>
	</clipPath>
	
		<linearGradient id="SVGID_10_" gradientUnits="userSpaceOnUse" x1="0.8528" y1="17.1483" x2="1.5049" y2="17.1483" gradientTransform="matrix(21.5536 0 0 -21.5536 36.9726 374.7935)">
		<stop  offset="0" style="stop-color:#8E0C18"/>
		<stop  offset="1" style="stop-color:#B22417"/>
	</linearGradient>
	<rect x="55.4" y="3.5" class="st8" width="14.1" height="3.5"/>
</g>
<g>
	<defs>
		<polygon id="SVGID_11_" points="58.5,8.4 55.1,8.4 54.4,11.9 53.1,18.7 56.6,18.7 57.9,11.9 67.8,11.9 68.5,8.4 		"/>
	</defs>
	<clipPath id="SVGID_12_">
		<use xlink:href="#SVGID_11_"  style="overflow:visible;"/>
	</clipPath>
	
		<linearGradient id="SVGID_13_" gradientUnits="userSpaceOnUse" x1="1.0017" y1="17.6654" x2="1.6537" y2="17.6654" gradientTransform="matrix(23.5587 0 0 -23.5587 29.4942 429.7164)">
		<stop  offset="0" style="stop-color:#8E0C18"/>
		<stop  offset="1" style="stop-color:#B22417"/>
	</linearGradient>
	<rect x="53.1" y="8.4" class="st9" width="15.4" height="10.3"/>
</g>
<g>
	<defs>
		<rect id="SVGID_14_" x="4.4" y="-47.4" width="117" height="117"/>
	</defs>
	<clipPath id="SVGID_15_">
		<use xlink:href="#SVGID_14_"  style="overflow:visible;"/>
	</clipPath>
	<path class="st10" d="M71.5,3.8c0.3-0.2,0.6-0.3,1-0.3h0.9l-0.6,3.5h-2.1L71,4.6C71.1,4.3,71.2,4,71.5,3.8"/>
	<polygon class="st10" points="80.3,3.5 77.4,18.8 73.8,18.8 76,6.9 74.8,6.9 75.5,3.5 	"/>
	<path class="st11" d="M62.9-43.9c-30.4,0-55.1,24.6-55.1,55.1c0,30.4,24.6,55,55.1,55c30.4,0,55.1-24.6,55.1-55
		C118-19.3,93.4-43.9,62.9-43.9 M62.9,65.5c-30,0-54.3-24.3-54.3-54.3c0-30,24.3-54.3,54.3-54.3s54.3,24.3,54.3,54.3
		C117.3,41.1,93,65.5,62.9,65.5"/>
	<path class="st11" d="M40.6,48.2l1.8,1.1c0.1,0,0.1,0.1,0.1,0.2l-0.7,1.2c0,0.1-0.1,0.1-0.2,0.1l-1.8-1.1l-0.8,1.3l2.3,1.4
		c0.1,0,0.1,0.1,0.1,0.2l-0.7,1.2c0,0.1-0.2,0.1-0.2,0.1l-3.6-2.2c-0.1,0-0.1-0.1-0.1-0.2l4.1-6.7c0-0.1,0.1-0.1,0.2-0.1l3.6,2.2
		c0.1,0,0.1,0.1,0.1,0.2l-0.7,1.2c0,0.1-0.2,0.1-0.2,0.1l-2.3-1.4L40.6,48.2z"/>
	<path class="st11" d="M48.5,57.2c0,0.1-0.1,0.1-0.2,0.1L47,56.8c-0.1,0-0.1-0.1-0.1-0.2l1.1-2.8l-2,2.4c-0.1,0.1-0.2,0.1-0.3,0.1
		L44.9,56c-0.1,0-0.1-0.1-0.1-0.2l0.3-3.1l-1.2,2.7c0,0.1-0.1,0.1-0.2,0.1l-1.3-0.5c-0.1,0-0.1-0.1-0.1-0.2l3.2-7.1l0,0
		c0,0,0.1-0.1,0.1-0.1c0,0,0,0,0,0c0,0,0,0,0,0l1.4,0.6c0.1,0,0.1,0.1,0.1,0.2l-0.7,4.6l-0.3,1l0.5-0.9l2.8-3.7
		c0.1-0.1,0.1-0.1,0.2-0.1l1.4,0.6c0,0,0,0,0,0c0,0,0,0,0,0c0,0,0,0.1,0,0.1l0,0c0,0,0,0,0,0L48.5,57.2z"/>
	<path class="st11" d="M56.1,55L56.1,55L56.1,55c0,0,0,0.2-0.2,0.3l-0.8,0.5c-0.2,0.1-0.3,0-0.3,0l-2.1-0.5l-0.6,2.8
		c0,0.1-0.1,0.1-0.2,0.1l-1.3-0.3c-0.1,0-0.1-0.1-0.1-0.2l1.7-7.6c0-0.1,0.1-0.1,0.2-0.1l3.6,0.8c0,0,0.2,0,0.3,0.2l0.5,0.8
		c0.1,0.2,0.1,0.3,0.1,0.3L56.1,55z M53.1,53.7l1.2,0.3c0,0,0,0,0.1,0l0.2-0.1c0,0,0.1-0.1,0.1-0.1l0.2-1.1c0,0,0,0,0-0.1l-0.1-0.2
		c0,0-0.1-0.1-0.1-0.1L53.5,52L53.1,53.7z"/>
	<path class="st11" d="M62.4,58.1l-0.1,1.4c0,0.1-0.1,0.2-0.2,0.2l-4.7-0.3c-0.1,0-0.2-0.1-0.2-0.2l0.6-7.8l0,0
		c0-0.1,0.1-0.1,0.2-0.1l1.4,0.1c0.1,0,0.1,0.1,0.2,0.1l-0.4,6.3l3.1,0.2C62.3,57.9,62.4,58,62.4,58.1"/>
	<path class="st11" d="M69.4,58.2c0,0,0,0.2-0.1,0.3l-0.6,0.7c-0.1,0.2-0.3,0.2-0.3,0.2l-3,0.2c0,0-0.2,0-0.3-0.1l-0.7-0.6
		c-0.2-0.1-0.2-0.3-0.2-0.3l-0.5-6c0,0,0-0.2,0.1-0.3l0.6-0.7c0.1-0.2,0.3-0.2,0.3-0.2l3-0.2c0,0,0.2,0,0.3,0.1l0.7,0.6
		c0.2,0.1,0.1,0.3,0.1,0.3L69.4,58.2z M65.8,53.1C65.8,53.1,65.8,53.1,65.8,53.1l-0.2,0.2c0,0,0,0.1,0,0.1l0.3,4.2c0,0,0,0,0,0.1
		l0.2,0.1l1.3-0.1l0.1-0.2c0,0,0-0.1,0-0.1l-0.3-4.2c0,0,0,0,0-0.1L67,53c0,0-0.1,0-0.1,0L65.8,53.1z"/>
	<path class="st11" d="M75.3,49.8c0,0.1,0,0.1,0,0.1l-1.1,4.5l0.8,3.5c0,0.1,0,0.2-0.1,0.2l-1.4,0.3c-0.1,0-0.2,0-0.2-0.1l-0.8-3.5
		l-3-3.5c0,0,0,0-0.1-0.1c-0.1-0.1,0-0.2,0.1-0.2l1.5-0.4c0.1,0,0.2,0,0.2,0.1l1.7,1.9l0.6-2.5c0-0.1,0.1-0.2,0.2-0.2l1.5-0.4
		C75.2,49.7,75.3,49.7,75.3,49.8"/>
	<path class="st11" d="M78.7,51.7l1.9-0.8c0.1,0,0.2,0,0.2,0.1l0.5,1.3c0,0.1,0,0.2-0.1,0.2l-1.9,0.8l0.6,1.4l2.5-1
		c0.1,0,0.2,0,0.2,0.1l0.5,1.3c0,0.1,0,0.2-0.1,0.2l-3.9,1.6c-0.1,0-0.2,0-0.2-0.1l-3-7.2c0-0.1,0-0.2,0.1-0.2l3.9-1.6
		c0.1,0,0.2,0,0.2,0.1l0.5,1.3c0,0.1,0,0.2-0.1,0.2l-2.5,1L78.7,51.7z"/>
	<path class="st11" d="M87.3,48.1c0,0,0.1,0.1,0.1,0.3l-0.2,0.9l0,0l2.5,1.9c0.1,0.1,0,0.2-0.1,0.2l-1.3,0.8c-0.1,0-0.2,0-0.3,0
		l-2.4-1.8l-0.5,0.3l1.5,2.4c0,0.1,0,0.2-0.1,0.2l-1.2,0.7c-0.1,0-0.2,0-0.2-0.1l-4-6.7c0-0.1,0-0.2,0.1-0.2l3.2-1.9
		c0,0,0.1-0.1,0.3-0.1l0.9,0.2c0.2,0,0.3,0.2,0.3,0.2L87.3,48.1z M84.2,49.3l1.1-0.6c0,0,0,0,0.1-0.1l0.1-0.3c0-0.1,0-0.1,0-0.1
		l-0.6-0.9c0,0,0,0-0.1-0.1l-0.3-0.1c-0.1,0-0.1,0-0.1,0l-1,0.6L84.2,49.3z"/>
	<path class="st11" d="M110.8,16.9c-0.9,0-1.6-0.8-1.6-1.7c0-0.9,0.8-1.7,1.7-1.7c0.9,0,1.6,0.8,1.6,1.7
		C112.4,16.2,111.7,17,110.8,16.9 M110.8,14c-0.7,0-1.3,0.5-1.3,1.3c0,0.7,0.6,1.3,1.3,1.3c0.7,0,1.3-0.5,1.4-1.3
		C112.1,14.5,111.5,14,110.8,14 M109.9,15l0-0.4l1.7,0c0,0.2,0,0.4,0,0.6c0,0.3-0.1,0.5-0.1,0.6c-0.1,0.1-0.2,0.2-0.4,0.2
		c-0.2,0-0.3-0.2-0.4-0.3h0c-0.1,0.2-0.2,0.2-0.4,0.3c-0.3,0-0.3,0.1-0.4,0.1l0-0.4c0.1,0,0.2-0.1,0.4-0.1c0.2,0,0.3-0.1,0.3-0.3
		l0-0.2L109.9,15z M110.9,15l0,0.2c0,0.2,0.1,0.4,0.2,0.4c0.2,0,0.3-0.1,0.3-0.3c0-0.1,0-0.2,0-0.2L110.9,15z"/>
	<path class="st10" d="M92.9,6.9l0.6-3.5h-7.6H83h-0.6l-0.9,4.9h0l-0.6,3.5h0l-0.6,3.5h0l-0.6,3.5H83h4.1h3.5h0l0-0.1l0.7-3.4h0
		l1.3-6.9H85l0.3-1.5H92.9z M88.5,11.9l-0.7,3.5h-4.1l0.6-3.5H88.5z"/>
</g>
</svg>
