<?xml version="1.0" encoding="utf-8"?>
<!-- Generator: Adobe Illustrator 19.1.0, SVG Export Plug-In . SVG Version: 6.00 Build 0)  -->
<!DOCTYPE svg PUBLIC "-//W3C//DTD SVG 1.1//EN" "http://www.w3.org/Graphics/SVG/1.1/DTD/svg11.dtd">
<svg version="1.1" xmlns="http://www.w3.org/2000/svg" xmlns:xlink="http://www.w3.org/1999/xlink" x="0px" y="0px"
	 viewBox="0 0 124 43.6" style="enable-background:new 0 0 124 43.6;" xml:space="preserve">
<style type="text/css">
	.st0{display:none;}
	.st1{display:inline;fill:url(#SVGID_1_);}
	.st2{display:inline;fill:#920609;}
	.st3{display:inline;}
	.st4{fill:#FFFFFF;stroke:#FFFFFF;stroke-width:0.5834;}
	.st5{fill:#FFFFFF;}
</style>
<g id="lycra" class="st0">
	<linearGradient id="SVGID_1_" gradientUnits="userSpaceOnUse" x1="36.2313" y1="1.450882e-02" x2="36.9008" y2="37.2812">
		<stop  offset="0" style="stop-color:#D92231"/>
		<stop  offset="1" style="stop-color:#B31217"/>
	</linearGradient>
	<path class="st1" d="M0.8,36.7L36.9,0.5L72,35.6c0.7,0.8,1.2,1.2,1,1.6c-0.2,0.5-1.2,0-2.2-0.5c-0.8-0.4-8.2-2.9-15-2.6
		c-8.1,0.3-11.2,1.3-22,6.2c-14.3,6.4-27.6,1.2-32.2-2.9L0.8,36.7L0.8,36.7z"/>
	<path class="st2" d="M0.7,36.7L1.5,36c4.7,4,17.9,9.3,32.2,2.8c10.8-4.9,13.9-5.9,22-6.2c6.8-0.2,14.2,2.3,15,2.6
		c0.6,0.3,1.1,0.5,1.5,0.6c0.6,0.6,0.9,0.9,0.7,1.3c-0.2,0.5-1.2,0-2.3-0.5c-0.8-0.4-8.2-2.9-15-2.6c-8.1,0.3-11.2,1.3-22,6.2
		c-14.3,6.4-27.6,1.2-32.2-2.9L0.7,36.7L0.7,36.7z"/>
	<g class="st3">
		<path class="st4" d="M32.1,20c0.1,0.2,0,0.3,0,0.3l-2.6,4.2L26.6,20h-1c0,0,0.3,0.3,0.4,0.4c0.1,0.1,3.1,4.7,3.1,4.7
			s-1.7,2.7-1.9,2.9c-0.3,0.4-0.8,0.5-1,0.5h-4.4c0,0,0-7.9,0-8.2c0-0.3,0.1-0.4,0.1-0.4h-1.2c0.1,0.2,0.1,0.5,0.1,0.5v8.9h6.8
			l6-9.4H32.1z M55.5,29.4c-0.2-0.2-0.3-0.4-0.3-0.4l-4.1-9h-1.1c0.1,0.2,0.3,0.6,0.1,0.9l-3.3,7.4l-3.2-3.8c1.3-0.2,2.2-1,2.2-2.3
			c0-1.3-1.1-2.3-2.9-2.3h-2.1c0,0,0.1,0.1,0.1,0.4v7.7c-0.5,0.3-2,0.6-3.1,0.6c-2.5,0-4.3-1.9-4.3-4c0-2.8,2.4-4,4.3-4
			c0.7,0,1.5,0.2,1.7,0.3v-0.8c0,0-0.7-0.3-1.7-0.3c-2.9,0-5.3,2.1-5.3,4.6c0,2.6,2,4.8,5.3,4.7c0.8,0,2.4-0.2,3.1-0.5
			c0,0,0,0.4-0.1,0.5h1.2c0,0-0.1-0.1-0.1-0.5c0-0.4,0-8.2,0-8.2h1c1.1,0,1.9,0.7,1.9,1.6c0,0.9-0.8,1.6-1.6,1.7c-0.5,0.1-1,0-1,0
			l4.4,5.3h1c-0.4-0.3-0.3-0.4-0.3-0.4l1.4-3.2h3.8c0,0,1.4,3.1,1.5,3.4c0.1,0.1,0,0.3,0,0.3H55.5z M49.2,25l1.5-3.5l1.6,3.5H49.2z"
			/>
		<g>
			<path class="st5" d="M57,28c0.5,0,0.9,0.3,0.9,0.8c0,0.5-0.4,0.8-0.9,0.8c-0.5,0-0.9-0.3-0.9-0.8C56.1,28.3,56.5,28,57,28L57,28z
				 M57,29.5c0.4,0,0.6-0.3,0.6-0.7c0-0.4-0.3-0.7-0.6-0.7c-0.4,0-0.6,0.3-0.6,0.7C56.3,29.2,56.6,29.5,57,29.5L57,29.5z M56.7,28.4
				H57c0.2,0,0.4,0.1,0.4,0.3c0,0.2-0.1,0.2-0.3,0.2l0.3,0.4h-0.2L57,28.9h-0.1v0.4h-0.2V28.4L56.7,28.4z M56.8,28.7H57
				c0.1,0,0.2,0,0.2-0.1c0-0.1-0.1-0.1-0.2-0.1h-0.2V28.7L56.8,28.7z"/>
		</g>
	</g>
</g>
<g id="Layer_2" class="st0">
	<g class="st3">
		<path d="M18,3.6C17.2,3.3,16.4,3,15.4,3c-1.7,0-2.6,0.9-2.6,2.1c0,0.8,0.5,1.6,2.1,2.8l1.1,0.8c2.2,1.7,3.7,2.9,3.7,5.3
			c0,2.7-2.1,4.8-5.4,4.8c-2,0-3.3-0.7-4.2-1.1l0.8-1.8c1,0.5,2,1,3.3,1c1.7,0,2.5-1.1,2.5-2.2c0-1.1-0.8-1.9-2.3-3l-1.1-0.8
			C11.4,9.4,9.8,8,9.8,5.6C9.8,3.1,12,1,15.2,1c1.5,0,2.7,0.3,3.5,0.7L18,3.6L18,3.6z"/>
		<polygon points="32.2,1.3 32.2,3.2 27.7,3.2 27.7,18.6 24.3,18.6 24.3,3.2 19.8,3.2 19.8,1.3 32.2,1.3 		"/>
		<path d="M35.5,11.8h3.8l-1.9-6.1L35.5,11.8L35.5,11.8z M39,1.3L45,18.6h-3.5l-1.7-5.1h-4.9l-1.6,5.1H31l6-17.4H39L39,1.3z"/>
		<polygon points="50.5,1.3 50.5,18.6 47.1,18.6 47.1,1.3 50.5,1.3 		"/>
		<polygon points="56.9,1.3 64.8,13.2 64.8,1.3 67.2,1.3 67.2,18.6 65,18.6 57,6.7 57,18.6 54.7,18.6 54.7,1.3 56.9,1.3 		"/>
		<polygon points="75.3,1.3 79.1,14.1 82.9,1.3 86.8,1.3 86.8,18.6 83.7,18.6 83.7,4.2 79.4,18.6 77.7,18.6 73.6,4.2 73.6,18.6 
			71.4,18.6 71.4,1.3 75.3,1.3 		"/>
		<path d="M92.9,11.8h3.8l-1.9-6.1L92.9,11.8L92.9,11.8z M96.4,1.3l6.1,17.4h-3.5l-1.7-5.1h-4.9l-1.6,5.1h-2.3l6-17.4H96.4L96.4,1.3
			z"/>
		<path d="M111.3,3.6c-0.9-0.3-1.7-0.6-2.7-0.6c-1.7,0-2.6,0.9-2.6,2.1c0,0.8,0.5,1.6,2.1,2.8l1.1,0.8c2.2,1.7,3.7,2.9,3.7,5.3
			c0,2.7-2.1,4.8-5.4,4.8c-2,0-3.3-0.7-4.2-1.1l0.8-1.8c1,0.5,2,1,3.3,1c1.7,0,2.5-1.1,2.5-2.2c0-1.1-0.8-1.9-2.3-3l-1.1-0.8
			C104.6,9.4,103,8,103,5.6c0-2.6,2.3-4.6,5.4-4.6c1.5,0,2.7,0.3,3.5,0.7L111.3,3.6L111.3,3.6z"/>
		<polygon points="125.6,1.3 125.6,3.2 121.1,3.2 121.1,18.6 117.7,18.6 117.7,3.2 113.2,3.2 113.2,1.3 125.6,1.3 		"/>
		<polygon points="136.6,1.3 136.6,3.3 130.7,3.3 130.7,8.7 136.2,8.7 136.2,10.6 130.7,10.6 130.7,16.6 136.7,16.6 136.7,18.6 
			127.3,18.6 127.3,1.3 136.6,1.3 		"/>
		<path d="M143.1,3.1v6.1h0.9c1.2,0,3.4,0,3.4-3.3c0-2.8-1.8-2.8-3.3-2.8H143.1L143.1,3.1z M144.2,1.3c2.1,0,3.2,0.1,4.4,0.7
			c1.4,0.7,2.1,2.2,2.1,3.5c0,2-1,4-3.9,4.8l8.4,12.1c0,0-1-0.4-2.2-0.8c-1-0.3-1.6-0.5-3.1-0.7l-5.9-10h-0.9v7.7h-3.3V1.3H144.2
			L144.2,1.3z"/>
		<path d="M0.4,23.4l0.7,0.8c11.4,1.6,22.3,4.7,51.9,4.7c40.8,0,51.4-2.3,71.8-3.5c20.4-1.2,31.5,0.6,38.3,4l-0.2-0.9
			c0.3,0.2-7.4-8.2-38.9-6.1C46.1,27.6,38.6,27.9,0.4,23.4L0.4,23.4z"/>
		<path d="M166.1,30.9h0.5c0.5,0,0.6-0.2,0.6-0.4c0-0.2-0.1-0.4-0.6-0.4h-0.5V30.9L166.1,30.9z M166.7,29.8c0.5,0,0.9,0.2,0.9,0.7
			c0,0.5-0.3,0.7-0.7,0.7l0.7,1.1h-0.4l-0.7-1.1h-0.4v1.1h-0.4v-2.5H166.7L166.7,29.8z M164.8,31c0,1,0.8,1.8,1.8,1.8
			c1,0,1.8-0.8,1.8-1.8c0-1-0.8-1.8-1.8-1.8C165.5,29.2,164.8,30,164.8,31L164.8,31z M168.7,31c0,1.2-0.9,2.2-2.2,2.2
			c-1.2,0-2.2-0.9-2.2-2.2c0-1.2,1-2.2,2.2-2.2C167.7,28.8,168.7,29.8,168.7,31L168.7,31z"/>
		<path d="M117.6,37.2L117.6,37.2c0-1.9,1.5-3.5,3.5-3.5c1.1,0,1.8,0.3,2.3,0.8c0.1,0.1,0.2,0.3,0.2,0.5c0,0.4-0.3,0.7-0.7,0.7
			c-0.2,0-0.4-0.1-0.5-0.2c-0.4-0.3-0.8-0.6-1.4-0.6c-1.1,0-1.9,1-1.9,2.1v0c0,1.2,0.8,2.1,2,2.1c0.6,0,1.1-0.2,1.5-0.6
			c0.1-0.1,0.2-0.2,0.4-0.2c0.4,0,0.7,0.3,0.7,0.7c0,0.2-0.1,0.4-0.2,0.5c-0.6,0.6-1.3,0.9-2.4,0.9C119,40.6,117.6,39.1,117.6,37.2
			L117.6,37.2z"/>
		<path d="M129.6,38.1v-0.5c-0.4-0.2-0.9-0.3-1.5-0.3c-1,0-1.6,0.4-1.6,1.1v0c0,0.6,0.6,1,1.3,1C128.8,39.5,129.6,38.9,129.6,38.1
			L129.6,38.1z M125,38.6L125,38.6c0-1.5,1.1-2.2,2.8-2.2c0.7,0,1.3,0.1,1.8,0.3v-0.2c0-0.9-0.6-1.5-1.7-1.5c-0.6,0-1.1,0.1-1.5,0.3
			c-0.1,0-0.2,0-0.2,0c-0.4,0-0.6-0.3-0.6-0.6c0-0.3,0.2-0.5,0.4-0.6c0.6-0.2,1.3-0.4,2.2-0.4c1,0,1.7,0.3,2.2,0.7
			c0.5,0.5,0.7,1.2,0.7,2.1v3.3c0,0.4-0.3,0.7-0.7,0.7c-0.4,0-0.7-0.3-0.7-0.6v-0.3c-0.5,0.5-1.2,1-2.2,1
			C126.1,40.6,125,39.9,125,38.6L125,38.6z"/>
		<path d="M133.1,34.5c0-0.4,0.3-0.8,0.8-0.8c0.4,0,0.8,0.3,0.8,0.8v0.7c0.4-0.8,1-1.5,1.7-1.5c0.5,0,0.8,0.3,0.8,0.8
			c0,0.4-0.3,0.7-0.6,0.7c-1.1,0.2-1.8,1-1.8,2.6v2c0,0.4-0.3,0.8-0.8,0.8c-0.4,0-0.8-0.3-0.8-0.8V34.5L133.1,34.5z"/>
		<path d="M143.9,37.1L143.9,37.1c0-1.3-0.9-2.2-1.9-2.2c-1,0-2,0.9-2,2.1v0c0,1.3,0.9,2.1,2,2.1C143.1,39.3,143.9,38.5,143.9,37.1
			L143.9,37.1z M138.6,34.5c0-0.4,0.3-0.8,0.8-0.8c0.4,0,0.8,0.3,0.8,0.8v0.4c0.5-0.7,1.2-1.3,2.3-1.3c1.6,0,3.1,1.2,3.1,3.5v0
			c0,2.2-1.5,3.5-3.1,3.5c-1.1,0-1.8-0.6-2.3-1.2v2.4c0,0.4-0.3,0.8-0.8,0.8c-0.4,0-0.8-0.3-0.8-0.8V34.5L138.6,34.5z"/>
		<path d="M151.9,36.7c-0.1-1-0.7-1.8-1.7-1.8c-0.9,0-1.6,0.7-1.7,1.8H151.9L151.9,36.7z M150.4,40.6c-1.9,0-3.4-1.4-3.4-3.5v0
			c0-1.9,1.4-3.5,3.3-3.5c2.1,0,3.2,1.7,3.2,3.3c0,0.4-0.3,0.7-0.7,0.7h-4.2c0.2,1.1,0.9,1.7,1.9,1.7c0.6,0,1.2-0.2,1.6-0.6
			c0.1-0.1,0.2-0.1,0.4-0.1c0.3,0,0.6,0.3,0.6,0.6c0,0.2-0.1,0.4-0.2,0.5C152.2,40.3,151.4,40.6,150.4,40.6L150.4,40.6z"/>
		<path d="M155.5,38.6v-3.5h-0.3c-0.4,0-0.7-0.3-0.7-0.7c0-0.4,0.3-0.7,0.7-0.7h0.3v-1.1c0-0.4,0.3-0.8,0.8-0.8
			c0.4,0,0.8,0.3,0.8,0.8v1.1h1.2c0.4,0,0.7,0.3,0.7,0.7c0,0.4-0.3,0.7-0.7,0.7h-1.2v3.3c0,0.6,0.3,0.8,0.8,0.8c0.2,0,0.3,0,0.4,0
			c0.3,0,0.6,0.3,0.6,0.6c0,0.3-0.2,0.5-0.4,0.6c-0.3,0.1-0.6,0.2-1.1,0.2C156.3,40.6,155.5,40.1,155.5,38.6L155.5,38.6z"/>
	</g>
</g>
<g id="raptor">
	<g>
		<g>
			<g>
				<path class="st5" d="M18.9,0.4L0.5,11v2.4h26.2h0.1h4.2c0.4,0,0.7,0.3,0.7,0.7v10.7c0,0.4-0.3,0.7-0.7,0.7h-3.5c0,0-0.1,0-0.1,0
					h-5.6c0,0-0.1,0-0.1,0h-6.6c-0.4,0-0.7,0.3-0.7,0.6V36l-3.6-2.1c-0.5-0.2-0.8-0.6-0.8-1.1v-1.5l0,1.3v-6.9v-3.7
					c0-0.4,0.3-0.7,0.7-0.7h16c0.4,0,0.7-0.3,0.7-0.7v-1.8c0-0.4-0.3-0.7-0.7-0.7H0.5v14.4l18.4,10.6l3.5-2V31
					c0-0.5,0.4-0.8,0.8-1.1l3.6-2.1v10.5l10.5-6.1V11L18.9,0.4z"/>
				<path class="st5" d="M52.5,23.8h3.3l1.1-1.3c0.2-0.2,0.2-0.5,0.2-0.5v-4.4c0,0,0-0.3-0.2-0.6l-1.1-1.1c-0.2-0.2-0.5-0.2-0.5-0.2
					h-8.8c-0.1,0-0.3,0.1-0.3,0.3v2.7h2.9h1h3.5c0,0,0.1,0,0.2,0.1l0.3,0.3c0.1,0.1,0.1,0.2,0.1,0.2v1.2c0,0,0,0.1-0.1,0.2l-0.3,0.3
					c-0.1,0.1-0.1,0.1-0.1,0.1h-4.5v0h-2.9v6.5c0,0.1,0.1,0.3,0.3,0.3h2.4c0.2,0,0.3-0.1,0.3-0.3v-3.6h2.4H52.5z"/>
				<path class="st5" d="M52.5,24.6l1.5,2.7c0.1,0.1,0.2,0.3,0.4,0.3h2.7c0.1,0,0.3-0.1,0.3-0.3l-1.5-2.7H52.5z"/>
				<path class="st5" d="M115.1,23.8h3.3l1.1-1.3c0.2-0.2,0.2-0.5,0.2-0.5v-4.4c0,0,0-0.3-0.2-0.6l-1.1-1.1
					c-0.2-0.2-0.5-0.2-0.5-0.2h-8.8c-0.1,0-0.3,0.1-0.3,0.3v2.7h2.9h1h3.5c0,0,0.1,0,0.2,0.1l0.3,0.3c0.1,0.1,0.1,0.2,0.1,0.2v1.2
					c0,0,0,0.1-0.1,0.2l-0.3,0.3c-0.1,0.1-0.1,0.1-0.1,0.1h-4.5v0h-2.9v6.6c0,0.1,0.1,0.3,0.3,0.3h2.4c0.2,0,0.3-0.1,0.3-0.3v-3.6
					h2.4H115.1z"/>
				<path class="st5" d="M115.1,24.6l1.5,2.7c0.1,0.1,0.2,0.3,0.4,0.3h2.7c0.1,0,0.3-0.1,0.3-0.3l-1.5-2.7H115.1z"/>
				<path class="st5" d="M87.8,19v8.5c0,0.1,0.2,0.2,0.3,0.2h2.9c0.2,0,0.3-0.1,0.3-0.2V19H87.8z"/>
				<path class="st5" d="M94.5,15.6h-9.8c-0.2,0-0.4,0.1-0.4,0.3v2c0,0.1,0.2,0.2,0.4,0.2h1.5v0h7.3v0h1c0.2,0,0.4-0.1,0.4-0.2v-2
					C94.9,15.8,94.7,15.6,94.5,15.6"/>
				<path class="st5" d="M71.3,27.4c-1.6-3.8-3.2-7.7-4.8-11.5v0c-0.1-0.2-0.2-0.2-0.3-0.2h-1.1h-0.8h-1.1c-0.2,0-0.2,0.1-0.3,0.2v0
					L58,27.4c0,0.1,0.2,0.2,0.4,0.2h2.8c0.1,0,0.3-0.1,0.4-0.1l2.1-4.8l1.1-2.6l1.5,3.5h-2.1l-1,2.3h4l0.6,1.4
					c0.1,0.1,0.2,0.2,0.4,0.2H71C71.2,27.6,71.4,27.5,71.3,27.4"/>
				<path class="st5" d="M83.3,17.5c0,0,0-0.3-0.2-0.6l-1.1-1.1c-0.2-0.2-0.5-0.2-0.5-0.2h-8.8c-0.1,0-0.3,0.1-0.3,0.3v2v0.6v8.8
					c0,0.2,0.1,0.3,0.3,0.3H75c0.2,0,0.3-0.1,0.3-0.3v-8.8h1h3.5c0,0,0.1,0,0.2,0.1l0.3,0.3c0.1,0.1,0.1,0.2,0.1,0.2v1.2
					c0,0,0,0.1-0.1,0.2l-0.3,0.3c-0.1,0.1-0.1,0.1-0.1,0.1h-3.7v2.9h1.5h1h3.1c0.2,0,0.3-0.1,0.4-0.2l0.9-1.1
					c0.2-0.2,0.2-0.5,0.2-0.5V17.5z"/>
				<path class="st5" d="M107.2,17.3c0,0,0-0.2-0.2-0.4l-1.4-1c-0.3-0.2-0.6-0.2-0.6-0.2h-6.3c0,0-0.3,0-0.6,0.2l-1.4,1
					c-0.3,0.2-0.3,0.4-0.3,0.4v0.9h5.1l1.5,0c0,0,0.1,0,0.2,0.1l0.4,0.3c0.1,0.1,0.1,0.1,0.1,0.1v6.2c0,0,0,0.1-0.1,0.1l-0.3,0.2
					h-2.8l-0.3-0.2c0-0.1-0.1-0.1-0.1-0.1V19h-3.6v7.1c0,0,0,0.2,0.3,0.4l1.4,1c0.3,0.2,0.6,0.2,0.6,0.2h6.3c0,0,0.3,0,0.6-0.2
					l1.4-1c0.3-0.2,0.2-0.4,0.2-0.4V17.3z"/>
				<polygon class="st5" points="121.8,15.6 121.8,15.9 121.3,15.9 121.3,17.3 121,17.3 121,15.9 120.6,15.9 120.6,15.6 				"/>
				<polygon class="st5" points="122,17.3 122,15.6 122.5,15.6 122.8,16.8 122.8,16.8 123.1,15.6 123.6,15.6 123.6,17.3 123.3,17.3 
					123.3,16 123.3,16 122.9,17.3 122.7,17.3 122.3,16 122.3,16 122.3,17.3 				"/>
				<path class="st5" d="M58.8,32.1C58.8,32.1,58.9,32.2,58.8,32.1l0,4.6c0,0,0,0.1,0,0.1c0,0-0.1,0-0.1,0h-0.9h-0.1
					c0,0-0.1,0-0.1,0c0,0-0.1,0-0.1-0.1L56,34v2.8c0,0.1,0,0.1-0.1,0.1h-0.9c-0.1,0-0.1,0-0.1-0.1v-4.5c0-0.1,0-0.1,0.1-0.1h1
					c0,0,0.1,0,0.1,0c0,0,0.1,0,0.1,0.1l1.5,2.8v-2.8c0,0,0-0.1,0-0.1c0,0,0.1,0,0.1,0L58.8,32.1C58.8,32.1,58.8,32.1,58.8,32.1"/>
				<path class="st5" d="M71,35.7C71.1,35.7,71.1,35.7,71,35.7c0.1,0.1,0.1,0.1,0.1,0.1v0.9c0,0,0,0.1,0,0.1c0,0-0.1,0-0.1,0h-3
					c-0.1,0-0.1,0-0.1-0.1v-4.5c0-0.1,0-0.1,0.1-0.1H69c0.1,0,0.1,0,0.1,0.1v3.4c0,0,0,0.1,0,0.1c0,0,0.1,0,0.1,0H71z"/>
				<path class="st5" d="M77.6,32.8c0,0,0,0.1,0,0.1c0,0,0,0.1,0,0.1v0.1v2.5V36c0,0,0,0.1,0,0.1c0,0,0,0.1,0,0.1L77,36.8
					c0,0-0.1,0-0.1,0c0,0-0.1,0-0.1,0h-0.1h-1.7h-0.4c0,0-0.1,0-0.1,0c0,0-0.1,0-0.1,0l-0.6-0.6c0,0,0-0.1,0-0.1c0,0,0-0.1,0-0.1
					v-0.1v-2.5V33c0,0,0-0.1,0-0.1c0,0,0-0.1,0-0.1l0.6-0.6c0,0,0.1,0,0.1,0c0,0,0.1,0,0.1,0h0.3h1.4h0.4c0,0,0.1,0,0.1,0
					c0,0,0.1,0,0.1,0L77.6,32.8z M76.4,33.2h-1.6v2.5h1.6V33.2z"/>
				<path class="st5" d="M84.5,32.1C84.5,32.1,84.6,32.2,84.5,32.1l0,4.6c0,0,0,0.1,0,0.1c0,0-0.1,0-0.1,0h-0.9h-0.1
					c0,0-0.1,0-0.1,0c0,0-0.1,0-0.1-0.1L81.7,34v2.8c0,0.1,0,0.1-0.1,0.1h-0.9c-0.1,0-0.1,0-0.1-0.1v-4.5c0-0.1,0-0.1,0.1-0.1h1
					c0,0,0.1,0,0.1,0c0,0,0.1,0,0.1,0.1l1.5,2.8v-2.8c0,0,0-0.1,0-0.1c0,0,0.1,0,0.1,0L84.5,32.1C84.5,32.1,84.5,32.1,84.5,32.1"/>
				<path class="st5" d="M95.2,32.8c0,0,0,0.1,0,0.1c0,0,0,0.1,0,0.1v0.2v1.2v0.1c0,0,0,0.1,0,0.1c0,0,0,0.1,0,0.1l-0.6,0.6
					c0,0-0.1,0-0.1,0c0,0-0.1,0-0.1,0h-0.2h-0.5h-0.7c0,0-0.1,0-0.1,0c0,0,0,0.1,0,0.1v1.1c0,0.1,0,0.1-0.1,0.1h-0.9
					c-0.1,0-0.1,0-0.1-0.1v-0.7v-2.8v-1c0,0,0-0.1,0-0.1c0,0,0.1,0,0.1,0h2.1h0.3h0.2c0,0,0.1,0,0.1,0c0,0,0.1,0,0.1,0L95.2,32.8z
					 M94.1,33.2h-1.3v1.2h1.3V33.2z"/>
				<path class="st5" d="M99,36.8c0,0.1,0,0.1-0.1,0.1h-0.9c-0.1,0-0.1,0-0.1-0.1v-4.5c0-0.1,0-0.1,0.1-0.1h0.9c0.1,0,0.1,0,0.1,0.1
					V36.8z"/>
				<path class="st5" d="M105.5,32.8c0,0,0,0.1,0,0.1c0,0,0,0.1,0,0.1v0.2v1.2v0.1c0,0,0,0.1,0,0.1c0,0,0,0.1,0,0.1l-0.6,0.6
					c0,0-0.1,0-0.1,0c0,0-0.1,0-0.1,0h-0.2h-0.5h-0.7c0,0-0.1,0-0.1,0c0,0,0,0.1,0,0.1v1.1c0,0.1,0,0.1-0.1,0.1H102
					c-0.1,0-0.1,0-0.1-0.1v-0.7v-2.8v-1c0,0,0-0.1,0-0.1c0,0,0.1,0,0.1,0h2.1h0.3h0.2c0,0,0.1,0,0.1,0c0,0,0.1,0,0.1,0L105.5,32.8z
					 M104.4,33.2H103v1.2h1.3V33.2z"/>
				<path class="st5" d="M109.3,33.2V34c0,0,0,0,0,0h0.6h0.6h0.7c0,0,0.1,0,0.1,0c0,0,0,0.1,0,0.1v0.7c0,0.1,0,0.1-0.1,0.1h-0.7
					h-0.5h-0.7c0,0,0,0,0,0v0.7c0,0,0,0,0,0h0.5h0.8h1c0,0,0.1,0,0.1,0c0,0,0,0.1,0,0.1v0.9c0,0,0,0.1,0,0.1c0,0-0.1,0-0.1,0h-0.7
					h-1.7H109c0,0-0.1,0-0.1,0c0,0-0.1,0-0.1,0l-0.6-0.6c0,0,0-0.1,0-0.1s0-0.1,0-0.1v-0.2v-2.3V33c0,0,0-0.1,0-0.1s0-0.1,0-0.1
					l0.6-0.6c0,0,0.1,0,0.1,0s0.1,0,0.1,0h0.2h1.9h0.5c0,0,0.1,0,0.1,0c0,0,0,0.1,0,0.1v0.9c0,0,0,0.1,0,0.1c0,0-0.1,0-0.1,0h-0.5
					H110L109.3,33.2C109.3,33.2,109.3,33.2,109.3,33.2"/>
				<path class="st5" d="M65.3,32.1C65.3,32.1,65.3,32.1,65.3,32.1l-1.1,0c0,0-0.1,0-0.1,0s0,0.1,0,0.1V33c0,0,0,0.1,0,0.1l-0.8,1.1
					l-0.8-1c0,0-0.1-0.2-0.1-0.2v-0.7c0,0,0-0.1,0-0.1c0,0-0.1,0-0.1,0h-0.5h-0.3h-0.2c0,0-0.1,0-0.1,0c0,0,0,0.1,0,0.1V33
					c0,0,0,0.2,0.1,0.2l1.3,1.8c0,0,0,0.1,0,0.1c0,0,0,0.1,0,0.1v1.5c0,0,0,0.1,0,0.1c0,0,0.1,0,0.1,0h1c0,0,0.1,0,0.1,0
					c0,0,0-0.1,0-0.1v-1.5c0,0,0-0.1,0-0.1c0,0,0-0.1,0-0.1l1.3-1.8c0.1-0.1,0.1-0.2,0.1-0.2L65.3,32.1
					C65.4,32.2,65.4,32.1,65.3,32.1"/>
			</g>
		</g>
	</g>
</g>
</svg>
