<?xml version="1.0" encoding="utf-8"?>
<!-- Generator: Adobe Illustrator 19.1.0, SVG Export Plug-In . SVG Version: 6.00 Build 0)  -->
<!DOCTYPE svg PUBLIC "-//W3C//DTD SVG 1.1//EN" "http://www.w3.org/Graphics/SVG/1.1/DTD/svg11.dtd">
<svg version="1.1" xmlns="http://www.w3.org/2000/svg" xmlns:xlink="http://www.w3.org/1999/xlink" x="0px" y="0px"
	 viewBox="0 0 132.3 16.7" style="enable-background:new 0 0 132.3 16.7;" xml:space="preserve">
<style type="text/css">
	.st0{display:none;}
	.st1{display:inline;}
	.st2{fill:#FFFFFF;}
	.st3{fill:#00A8DF;}
	.st4{fill-rule:evenodd;clip-rule:evenodd;fill:#00A8DF;}
</style>
<g id="wak_logo" class="st0">
	<g class="st1">
		<g>
			<g>
				<path class="st2" d="M93.2,19.3c0.1,0.1,0.4,1,0.2,1.5c0,0.1,0,0.3,0,0.4c-0.1,0.1-0.2,0.2-0.3,0.2c-0.3,0-0.6-0.1-0.9-0.3
					c-0.4-0.2-0.7-0.5-1.1-0.7c-1.2-0.6-2.9-1.7-4.2-2.1c-1.7-0.5-3.2-1.6-4.8-2.5c-0.5-0.3-1-0.6-1.5-0.9c-0.1-0.1-0.3,0-0.3,0.1
					c0,0.1-0.1,0.2-0.1,0.2s-0.1,0.2-0.1,0.3c-0.1,0.9-0.2,1.2-0.4,2.1c-0.2,0.9-0.9,2.6-1,3.2c-0.4,1.4-0.9,1.8-0.9,2.1
					c0,0.2-0.1,0.3-0.2,0.5c-0.2,0.2-0.6,0.3-0.8,0.2c-0.3-0.2-0.6-0.4-0.7-0.8c-0.2-0.8,0-0.6,0-1.4c0.1-1.1-0.1-0.6,0.1-1.8
					c0.1-0.6,0.1-0.5,0.1-1.2c0-0.7-0.1-0.1,0.1-0.8c0.1-0.3,0.1-0.7,0.1-1.1c0-0.3,0.1-0.5,0.1-0.8c0.1-0.9,0.3-1.7,0.4-2.6
					c0.1-1.5,0.4-2.9,0.5-4.4c0.2-1.9,0.4-3.8,0.7-5.7c0-0.1,0-0.2,0-0.3c0-0.6,0.2-1.2,0.1-1.7c-0.1-0.6-0.5-1-0.8-1.5
					c-0.1-0.2-0.2-0.5-0.3-0.7c-0.1-0.3,0.1-0.7,0.5-0.9c0.5-0.2,0.5,0.1,1,0.2c1.1,0.3,1.7,0.6,2.4,1.5c0.3,0.5,0.6,1,0.7,1.6
					c0,0.1,0.1,0.3,0.1,0.4c0.4,1-0.3,5.3-0.5,5.7c0,0.1,0,0.2,0.1,0.2c0.1,0,0.2,0,0.2,0c1.6-1,3.6-2.5,4.9-3.8
					c0.9-0.9,1.6-2,2.4-2.8c0.5-0.5,0.6-1.1,0.9-1.8c0.4-1.6,2.7-0.8,2.8-0.6c0.2,0.4,0.3,0.7,0.1,1.1C93,0,92.8,0.3,92.7,0.6
					c-0.1,0.2-0.3,0.5-0.4,0.7c-0.2,0.8-0.7,1.5-1,2.3c-0.1,0.4-0.4,0.7-0.6,1c-0.7,0.8-1.4,1.6-2.3,2.2c-0.4,0.3-0.8,0.6-1.2,0.9
					c-0.5,0.4-1.1,0.8-1.6,1.1c-1.1,0.7-1.4,1.1-2.5,1.8c-0.4,0.3-0.9,0.6-0.8,0.7c0.1,0.1,0.2,0.2,0.3,0.3c0.6,0.5,1.4,1.1,2.2,1.4
					c1.7,0.8,2.5,1.9,4.1,2.8c0.3,0.1,0.5,0.5,0.8,0.6C89.7,16.5,92.6,18.9,93.2,19.3"/>
				<path class="st2" d="M89.8,17.5L89.8,17.5C89.9,17.6,89.8,17.5,89.8,17.5L89.8,17.5z"/>
				<path class="st2" d="M99.6,5.8c-0.4-0.5-0.9-0.9-1.5-1c-0.9-0.2-1.8-0.1-2.6,0.5c-1,0.7-0.6-0.2-1.5,0.7
					c-1.4,1.3-2.6,2.7-3.6,4.5c-0.6,1-0.8,2-1.1,3.1c0,0.2-0.1,0.3-0.1,0.5c0.1,1.2,0.1,2.4,0.9,3.3c0.1,0.1,0.3,0.3,0.4,0.4
					c0.4,0.2,0.9,0.6,1.3,0.7c0.7,0.2,1,0.1,1.6,0c1.1-0.2,2.3-0.3,3.2-1.2c0.1-0.1,0.2-0.1,0.2-0.2c0.8-0.5,2-1.3,2.4-2.2
					c1.3-2.6,1.3-6.3,1.4-6.3C100.9,7.8,100.1,6.3,99.6,5.8 M97.8,9c-0.2,1.4-0.5,2.8-1.2,4c-0.4,0.7-0.7,1.6-1.3,2
					c-0.2,0.1-0.4,0.2-0.6,0.3c-0.6,0.6-1.3,1.1-2.1,1.2c-0.1,0-0.2-0.1-0.2-0.1c0-0.1,0-0.2,0-0.3c-0.7-2.3,0.7-4.2,1.2-5
					c1.3-1.9,2.9-3.1,3.7-2.7c0.1,0,0.2-0.1,0.3-0.1c0.1,0,0.1,0.2,0.1,0.3C97.6,8.9,97.8,8.8,97.8,9"/>
				<path class="st2" d="M28.6,17.2c0.6,0,1-0.2,1.5-0.5c0.1-0.1,0.4,0,0.4,0.2c0.1,0.1,0.1,0.2,0.2,0.3c0.2,0.7,0.2,1.8-0.5,2.1
					c-0.5,0.2-0.9,0.3-1.4,0.5c-0.5,0.1-4.2,0.8-4.9,0.6c-0.6-0.1-1.6,0.8-2.2,0.7c-0.4-0.1-0.8-0.3-1.1-0.6c-0.3-0.3-0.5-0.6-0.7-1
					c-0.3-0.8-0.5-1.5-0.4-2.3c0.1-0.9,0.2-1.9,0.3-2.8c0.1-0.8,0.3-1.6,0.5-2.3c0.3-1,0.6-2.1,0.9-3.1c0.1-0.4,0.3-0.8,0.3-1.5
					c0-0.2-0.1-0.3-0.1-0.4c0-0.1,0-0.3,0.1-0.3c0.4-0.3,2.5-0.4,2.7-0.2c0.1,0.1,0.2,0.2,0.3,0.2c0.7-0.1,2.6,0.1,3.2-0.1
					c1-0.2,1.8-0.9,2.7-0.4c0.2,0.1,0.4,0.3,0.5,0.4c0.3,0.3,0.3,0.7,0.1,1.1c-0.6,0.3-1.4,0.9-2,1.2c-0.2,0.1-1,0.4-1.2,0.5
					c-0.6,0.2-1.8,0.3-2.5,0.3c-0.3,0-0.6,0-0.9,0.1c-0.1,0-0.3,0.1-0.3,0.2c-0.2,0.6-0.5,1.2-0.7,1.8c0,0.1,0.1,0.3,0.3,0.4
					c0.4,0.1,2.9,0.1,3.3-0.1c0.3-0.1,0.6-0.2,0.9-0.4c0.3-0.1,0.6-0.2,0.9-0.1c0.1,0,0.3,0.1,0.4,0.1c0.5,0.5,0.2-0.1,0.4,0.5
					c0.1,0.2,0,0.4-0.1,0.5c-0.5,0.5-1.6,1-2.4,1.3c-0.5,0.2-3.1,0.8-3.7,0.6c-0.2-0.1-0.6,0.4-0.6,0.5c0,0.1,0,0.1,0,0.2
					c-0.1,0.8-0.1,1.7-0.2,2.5c0,0.2,0,0-0.1,0.1c0,0.1,0,0.2,0,0.3C22.3,18.5,26.8,17.3,28.6,17.2"/>
				<path class="st2" d="M60,18.9c-0.1-0.3-0.1-0.7-0.3-0.9c-0.3-0.4-0.4-0.5-0.5-1.1c0-0.3-0.7-0.7-0.8-0.6
					c-0.1,0.1-0.4-0.1-0.4-0.2c-0.2-0.2-0.5-0.4-0.7-0.7c-0.7-0.8-1.2-1.1-2-1.8c-0.2-0.2-0.4-0.4-0.6-0.6c-0.1-0.1-0.1-0.1-0.1-0.2
					c-0.1-0.1,0-0.3,0.1-0.3c0.7-0.5,1.1-1,1.8-1.5c0.9-0.6,1.7-1.4,2.5-2.1c0.4-0.3,0.7-0.7,1-1.1c0.5-0.6,0.8-1.2,1.1-1.9
					c0.3-0.7,0.3-1.3,0.2-2c0-0.1,0-0.2-0.1-0.2c-0.3-0.6-0.6-1.1-1.3-1.3c-0.1,0-0.2-0.1-0.5-0.2c-0.9-0.3-2-0.1-3,0.4
					c-1,0.4-1.8,1-2.6,1.7c-0.5,0.4-1,0.9-1.4,1.3c-0.2,0.2-0.4,0.4-0.7,0.5c-0.2,0.1-0.4,0-0.6,0c0,0-0.1,0-0.1,0
					c-0.5,0-0.8,0.4-0.8,0.9c0,0.2,0,0.4,0,0.6c0,0.4-0.2,0.7-0.5,0.9c-0.7,0.4-1.5,0.7-2.3,0.7c-0.2,0-0.4-0.1-0.4-0.4
					c0-0.1,0.2-1.5,0.2-1.6c0-0.8,0-2.7,0-3.6c0-1-0.1-2-0.1-2.9c0-0.7-0.3-1.3-0.8-1.9c-0.4-0.5-1-0.8-1.7-0.8
					C43-1.8,41.8-1.3,41,0c-0.1,0.1-0.4,0.5-0.5,0.7c-0.4,1-0.3,0.4-0.6,1.5c-0.5,0.9-1.7,5.5-2,6.4c-0.2,0.5-0.4,1-0.6,1.5
					c-0.1,0.2-0.2,0.3-0.3,0.3c-0.2,0-0.5,0.1-0.7,0.1c-0.4,0.1-0.6,0.4-0.7,0.8c-0.1,0.4-0.2,1.5,0.1,1.9c0.1,0.2,0.6,0.3,0.8,0.6
					c0.1,0.1-0.2,0.5-0.3,0.6c-0.2,0.6-0.3,0.5-0.4,1c-0.1,0.5-0.6,2.9-1,3.1c-0.1,0-0.1,0.1-0.2,0.1c-0.2,0.2-0.3,0.5-0.3,0.8
					c0,0.4,0.2,0.8,0.5,1c0.4,0.3,0.8,0.5,1.3,0.4c0.1,0,0.2,0,0.4,0c0.2,0,0.3-0.1,0.4-0.2c1-0.8,1.8-3.7,2.1-4.9
					c0.1-0.4,0.2-0.9,0.3-1.3c0.1-0.2,0.2-0.3,0.4-0.3c0.5-0.1,1.2,0,1.7-0.1c0.6-0.1,1.2-0.2,1.7-0.5c0.2-0.1,0.4-0.1,0.6-0.2
					c0.1,0,0.3,0.1,0.3,0.2c0,0.1,0,0.2,0.1,0.4c0.1,1.1,0.2,2.2,0.3,3.3c0.1,0.7,0.3,3.7,0.2,4.4c0,0.1,0,0.3,0.1,0.5
					c0.3,0.4,0.6,0.8,0.9,1.1c0.1,0.1,0.1,0.1,0.2,0.2c0.2,0.2,0.4,0.1,0.7,0c0.2-0.1,0.4-0.3,0.5-0.5c0.1-0.3,0.2-0.6,0.2-1
					c0-0.6-0.1-3.4,0-4c0-0.5,0-1,0-1.5c0-1.1,0-2.3,0-3.4c0-1,0-1.1,0.9-1.5c0.3-0.2,0.6-0.3,0.9-0.5c0.3-0.1,0.5-0.2,0.8-0.2
					c0.3,0,0.5,0.2,0.4,0.4c-0.1,0.5-0.2,0.9-0.4,1.4c-0.2,0.7-0.3,0.8-0.4,1.5c-0.2,1.1-0.4,2.2-0.7,3.2c-0.1,0.4-0.1,0.8-0.1,1.2
					c0,0.1,0,0.2,0,0.2c0.2,0.3,0.3,0.6,0.5,0.8c0.1,0.1,0.3,0.2,0.4,0.3c0.2,0.1,0.4,0,0.6-0.1c0.1-0.1,0.1-0.1,0.2-0.2
					c0.3-0.5,0.6-1.1,0.8-1.6c0.1-0.3,0.2-0.6,0.3-0.8c0.2-0.4,0.4-0.8,0.5-1.2c0.2-0.5,0.3-1,0.5-1.5c0-0.1,0.1-0.2,0.2-0.3
					c0-0.1,0.1-0.1,0.2-0.1c0.5,0.2,0.9,0.6,1.2,0.9c0.5,0.5,1,0.9,1.5,1.4c0.4,0.3,0.7,0.6,1.1,1c0.5,0.5,1,1,1.5,1.6
					c0.3,0.3,0.6,0.6,1.1,0.8c0.3,0.1,0.6,0,0.8-0.1C59.9,19.4,60.1,19.1,60,18.9 M43.6,10c-0.9,0.2-2.3,0.5-3.2,0.6
					c-0.1,0-0.2-0.1-0.2-0.2c0.1-0.3,0.2-0.6,0.3-0.9c0.4-1.5,1.4-5.2,2.3-6.5c0.1-0.2,0.7-1,0.9-1.1c0.1,0,0.2,0,0.2,0.1
					c0,0.2,0.4,0.3,0.4,0.5c0,1-0.1,4.9-0.2,5.9c0,0.5,0,1.1,0,1.6C44,9.9,43.7,9.9,43.6,10 M53.2,9.9c0,0-0.1,0-0.1,0
					c0,0-0.5,0.2-0.5,0.2C52.5,9.9,52.8,8.2,53,8c0.3-0.5,1.9-1.4,2.4-1.8c0.2-0.2,1.9-1.2,2.5-1C58,5.1,58,5,58.1,5
					c0.1,0,0.2,0,0.2,0c0.1,0,0.1,0.2,0,0.3C58.3,5.6,58.1,5.8,58,6c-0.4,0.4-0.8,0.9-1.1,1.3c0,0-0.1,0.1-0.1,0.1
					C55.7,8.3,54.5,9.2,53.2,9.9"/>
				<path class="st2" d="M71.4,15.8c0-0.1,0.3-1.3-0.1-1.5c-0.3,0.1-0.5,0-0.7,0.4c-0.3,0.7-2.6,1.7-4.1,2.2
					c-0.6,0.2-1.1,0.3-1.7,0.4c-0.3,0.1-0.7,0-1.1,0c-0.1,0-0.3-0.2-0.3-0.3c0,0,0-0.1,0-0.1c0.1-0.5,0.1-1,0.2-1.5
					c0-0.3,0.1-0.6,0.3-0.8c0.1-0.2,0.3-0.4,0.6-0.3c0.3,0.1,0.6,0,0.8,0c0.7-0.1,1.4-0.3,2.1-0.4c0.3-0.1,0.5-0.2,0.7-0.4
					c0.2-0.1,0.4-0.2,0.6-0.4c0.1-0.1,1.1-0.9,1.1-0.9c0,0,0.1-0.1,0.1-0.1c0.3-0.3,0.6-0.6,0.9-0.8c0.5-0.4,0.8-0.9,1.1-1.4
					c0,0,0-0.2,0-0.2c0-0.1-0.1-0.1-0.2-0.1c-0.4,0-0.8,0.1-1.2,0.2c-0.6,0.2-1.7,0.9-2.3,1.1c-1,0.4-2.4,0.8-3.4,1.1
					c-0.1,0-0.2,0-0.3,0.1c0,0-0.1,0-0.1-0.1c0-0.6,0-1.5,0-2.1c0-0.1,0.1-0.1,0.1-0.2c0.3,0,0.6-0.1,0.8-0.1c0.4,0,1.5-0.2,1.8-0.4
					c0.9-0.4,1-0.2,1.7-0.9c0.5-0.5,1.5-0.9,2-1.3c0.7-0.5,1.2-1.1,1.8-1.7c0.2-0.2,0.3-0.4,0.3-0.6c0-0.1,0-0.2,0-0.3
					C73,3.9,73.3,3,72.8,3.1c-0.1,0-0.2,0-0.3,0.1c-0.7,0.3-2.2,1.2-2.8,1.6c-1.3,0.7-1.7,0.7-3,1.3c-0.7,0.3-3.3,0.5-3.4,0.4
					c-0.2-0.1-0.4-0.2-0.7-0.2c-0.2,0,0.1,0-0.1,0c-0.2,0-0.5,0.1-0.6,0.2c-0.2,0.2-0.3,0.3-0.2,0.6c0.1,0.3,0.2,4.1,0,4.3
					c-0.2,0.2-0.3,0.5-0.3,0.8c0.1,0.7,0,1.4-0.1,2.1C61,15.1,61,15.9,61,16.7c0,0.8,0.3,1.6,0.9,2.3c0.2,0.2,0.6,0.6,0.8,0.7
					c0.2,0,0.5,0.1,0.7,0.1c0.4,0,0.9,0,1.3,0.1c1,0.1,1.8-0.1,2.7-0.5c0.3-0.1,0.6-0.2,0.8-0.5c0.1-0.1,0.2-0.2,0.4-0.3
					C69.5,18.2,71.4,16.3,71.4,15.8"/>
				<path class="st2" d="M89.8,17.5L89.8,17.5C89.9,17.6,89.8,17.5,89.8,17.5L89.8,17.5z"/>
				<path class="st2" d="M131.9,9.6c0-0.1,0-0.2-0.1-0.3c-0.1-0.1-0.2-0.1-0.3-0.1c-0.5,0.1-0.9,0.3-1.3,0.6
					c-0.6,0.4-0.5,0.1-3.1,0.9c-0.3,0.1-1.2,0.2-1.6,0.3c-0.1,0-0.3-0.1-0.2-0.3c0.2-0.4,0.3-0.8,0.5-1.2c0.2-0.4,0.1-0.2,0.2-0.6
					c0.3-1,0.6-2,0.9-2.9c0.2-0.8,0.3-1.5,0.2-2.3c0-0.5-0.1-1-0.2-1.5c-0.2-1.4-0.6-2.3-2-2.4c-0.1,0-0.2,0-0.3,0c-0.3,0-0.7,0-1,0
					c0,0-0.2,3.8-0.3,4.3c-0.2,0.7-0.4,1.3-0.6,2c0,0,0,0-0.1,0c-0.2,0.7-0.4,1.3-0.6,2c-0.6,1.6-0.6,1.8-1.1,3.5
					c-0.1,0.3-0.3,0.5-0.6,0.6c-0.1,0-0.2,0.1-0.3,0.1c-1.1,0.3-1.9,0.4-3,0.7c-0.2,0.1-0.4,0.1-0.6,0.1c-0.1,0-0.4-0.1-0.4-0.2
					c0.1-0.2,0.3-0.6,0.4-0.8c0.5-0.7,0.4-0.6,0.6-1c0.2-0.3,0.3-0.6,0.5-0.9c0.5-0.9,1.1-3.5,1.5-5.5c-0.1,0.2-0.2,0.4-0.4,0.6
					c-0.3-0.2-0.2-0.5-0.2-0.8c0-0.3-0.1-0.5-0.2-0.7c-0.3-0.3-0.6-0.5-1-0.6c-0.6-0.1-1.2,0-1.7,0.3c-0.3,0.2-0.5,0.4-0.5,0.7
					c-0.1,0.4-0.1,0.8-0.3,1.1c-0.5,0.9-0.1,2-0.8,2.9c-0.4,0.5-1.3,2.8-1.7,3.3c-0.8,1-1.5,1.3-2.5,2.2c-1.2,1-3.2,1.6-4.6,2.2
					c-0.5,0.2-3.3-0.1-3-2.4c0.1-0.6,0.2-1.1,0.4-1.3c1-1.5,2.6-2.3,4.3-3c1.1-0.4,2.2-0.6,3.2-1.3c0.2-0.1,0.3-0.6,0.5-0.8
					c0.3-0.3,0-1-0.3-1.4c-0.5-0.6-1.4-0.9-2.1-0.6c-0.4,0.2-0.9,0.5-1.3,0.7c-0.9,0.3-1.7,0.6-2.4,1.2c-0.3,0.2-2.1,1.3-2.7,2
					c-2.5,2.7-2.9,5.7-2.8,6.1c0.3,1,0.9,1.7,1.7,2.3c0.2,0.1,1.9,1.2,2.7,1.1c1.8-0.2,3.1-0.4,4.6-1.3c0.8-0.5,1.5-1.1,2.1-1.8
					c0.3-0.3,1-1,1.3-1.3c0,0.1-0.3,0.6-0.3,0.6c-0.6,1.1-0.7,1.2-1.3,2.3c-0.5,0.8-0.9,1.6-1.2,2.5c-0.1,0.4-0.4,0.8-0.3,1.3
					c0.1,0.5,0.3,0.9,0.5,1.4c0.1,0.1,0.1,0.3,0.2,0.4s0.2,0.2,0.3,0.3c0.2,0.2,0.6,0.1,0.8-0.1c0.2-0.2,0.4-0.4,0.5-0.7
					c0.4-0.7,0.9-1.4,1.4-2c0.2-0.2,2-3.9,2.3-3.8c0.2,0,1.7-0.1,2.1-0.2c1-0.3,2-0.3,3-0.3c0.1,0,0.2,0.1,0.2,0.2
					c0,0.6-0.5,2.3-0.7,2.9c-0.2,0.7-0.6,2-0.7,2.7c-0.1,0.6-0.4,1.2-0.5,1.8c0,0.1-0.2,0.2-0.4,0.3c-0.6,0.5,0.3,1.2,1.2,2
					c0.4,0.4,0.7,0.2,1-0.3c0-0.1,0.1-0.2,0.1-0.3c0.3-0.7,0.6-1.4,0.9-2c0.5-0.9,0.9-2,1.4-2.9c0.2-0.3,0.3-0.6,0.3-1
					c0.1-1,0.8-2.5,1-3.5c0.1-0.3,0.2-0.4,0.5-0.5c0.8-0.3,2-0.5,2.8-0.8c2.2-0.5,4.2-0.7,4.4-0.8c0.1-0.1,0.2-0.2,0.2-0.4
					c0-0.5-0.1-0.9-0.5-1.3c-0.1-0.1,0.4,0.2,0.4,0.1c-0.2-0.3-0.2-0.5-0.1-0.8C131.6,10.5,131.7,10.1,131.9,9.6"/>
				<path class="st2" d="M22.4-4.4c0-0.1-0.1-0.2-0.1-0.2c-0.1-0.1-0.3-0.2-0.4-0.2c-0.2,0.1-2.5,1.4-4.2,7.6
					c-0.4,1-0.8,1.9-1.3,2.8c-0.3,0.5-0.5,1.1-0.7,1.7c-0.1,0.3-0.1,0.5-0.2,0.7c-0.3,0.5-1.4,4.8-1.8,6.4c-0.1,0.3-0.1,0.5-0.2,0.7
					c0,0.1-0.1,0.2-0.2,0.2c-0.1,0-0.2-0.1-0.2-0.2c-0.4-1.1-0.6-2.3-0.7-3.4c-0.1-1-0.2-3.4-0.4-4.4c-0.1-0.9-0.4-1.7-0.5-2.5
					c-0.1-0.3-0.2-0.6-0.4-0.8c-0.1-0.1-0.2-0.3-0.4-0.3c-0.4-0.1-0.8-0.1-1.1,0.1C9.6,3.8,9.5,3.9,9.4,4.1C9.1,5.2,8.6,6.2,8.1,7.3
					c-0.6,1.4-1.4,4.1-2,5.4c-0.2,0.3-0.4,0.7-0.6,1c0,0-0.1,0-0.1,0.1c-0.1,0.1-0.2,0-0.2-0.1c-0.2-0.8-0.1-0.7-0.1-1.5
					C5,10.4,5.2,9.8,5,8c0-0.4-0.3-3.9-0.8-4.8C4,2.8,3.7,2.5,3.5,2.1C3.2,1.6,2.8,1.3,2.3,1C1.8,0.8,1.4,0.8,1,1
					C0.8,1.1,0.7,1.2,0.7,1.4c-0.1,0.3-0.1,0.5,0,0.8C1,2.5,1.7,5.5,1.8,7C1.9,7.6,2,8.3,2,9c0,1.6,0.1,1.9,0.1,3.5
					c0.2,0.8,0.1,0.7,0.1,1.5c0,1.1-0.1,4.9-0.3,6C1.9,20.6,2,21.4,2.1,22c0,0.1,0.1,0.2,0.2,0.3c0.4,0.4,0.9,0.8,1.4,1.1
					c0.1,0,0.2,0.1,0.2,0.1c0.7,0.2,1.1-1.3,1.4-1.5c0.7-0.7,2-6,2.1-6.3c0.4-1.2,0.7-3,1.3-4.1C8.9,11.5,9,11.3,9,11.2
					c0.2-0.8,0.6-1.5,1-2.3c0.1,0.2,0.1,0.5,0.1,0.6c0.1,0.8,0.2,1.5,0.3,2.3c0.2,1.5,0.7,3.7,1.2,5.2c0.2,0.7,0.1,1.2,0.3,2.1
					c0,0.1,0.3,0.2,0.4,0.4c0.2,0.4,0.4,0.6,0.6,1c0.4,0.6,1,0.9,1.8,0.9c0.4,0,0.8-0.2,0.9-0.6c0.1-0.2,0.1-0.4,0.2-0.6
					c0.2-0.8,0.5-1.6,0.7-2.4c0.2-0.6,0.5-2.1,0.6-2.3c0.1-0.9,0.4-1.7,0.5-2.5c0-0.6,0.3-1.2,0.4-1.8c0-0.2,1.7-5.2,1.8-5.4
					c0-0.1,0.1-0.4,0.2-0.7c0.3-0.4,0.5-0.9,0.5-1.4c0-0.5,0.1-1,0.4-1.3c0.4-0.5,0.5-1,0.7-1.5c0.3-1.2,0.6-2.3,0.7-3.5
					C22.4-3.2,22.5-3.8,22.4-4.4"/>
			</g>
		</g>
	</g>
</g>
<g id="kii_logo">
	<g>
		<g>
			<path class="st3" d="M36.6,7.4c0.1-0.1,6.3-6.6,6.3-6.6H37c0,0-5.5,5.1-5.7,5.3V0.8h-5.5v14.9h5.5v-3.2c0,0,1-0.9,1.2-1
				c0.1,0.1,3.4,4.2,3.4,4.2h7.4C43.2,15.8,36.7,7.5,36.6,7.4"/>
			<polygon class="st3" points="91.7,0.8 91.7,6.2 86.9,6.1 86.9,0.8 81.3,0.8 81.3,15.7 86.9,15.7 86.9,10.3 91.6,10.3 91.6,15.7 
				97.4,15.7 97.4,0.8 			"/>
			<path class="st3" d="M54.4,5.4v6c0,0.6-0.4,1.1-1,1.1h-3.2c-0.5,0-1-0.5-1-1.1v-6c0-0.6,0.4-1.1,1-1.1h3.2
				C54,4.3,54.4,4.8,54.4,5.4 M56.7,0.8H47c-1.8,0-3.3,1.7-3.3,3.7V12c0,2.1,1.5,3.7,3.3,3.7h9.7c1.8,0,3.3-1.7,3.3-3.7V4.6
				C60,2.5,58.5,0.8,56.7,0.8"/>
			<path class="st3" d="M78.6,6.2V5.1c0-1.3-0.5-2.7-1.3-3.5c-0.5-0.5-1.1-0.8-1.7-0.8H65.5c-1.6,0-3,1.9-3,4.3v6.3
				c0,2.4,1.3,4.3,3,4.3h10.2c1.6,0,3-1.9,3-4.3V9.7l-5.3,0l-0.1,1.4c-0.1,0.6-0.5,1.3-1,1.3h-3.1c-0.5,0-1-0.5-1-1.1v-6
				c0-0.6,0.4-1.1,1-1.1h3.1c0.5,0,1,0.5,1,1.1v0.8H78.6z"/>
			<path class="st3" d="M98.6,13.8v0.3h0.6v1.6h0.4v-1.6h0.6v-0.3H98.6z M102.1,13.8l-0.5,1.4l-0.5-1.4h-0.5v1.9h0.3v-1.5l0.5,1.5
				h0.3l0.5-1.5v1.5h0.3v-1.9H102.1z"/>
			<g>
				<path class="st4" d="M10.5,0.8L10.5,0.8H0.6v14.9l9.8,0c0,0-2.3-7.4-2.3-7.4C8.1,8.3,10.5,0.8,10.5,0.8z"/>
				<polygon class="st4" points="13.9,0.8 9.5,8.3 13.9,15.7 20.9,15.7 20.9,0.8 				"/>
			</g>
		</g>
		<g>
			<path class="st3" d="M107.5,10.9v4.9h-0.8V9.6h0.8l3.5,4.8V9.6h0.8v6.2h-0.7L107.5,10.9z"/>
			<path class="st3" d="M113.5,9.6h4v0.7h-3.3v2h3.2V13h-3.2v2.1h3.3v0.7h-4V9.6z"/>
			<path class="st3" d="M122.3,10.8l-1.4,5h-0.8l-1.8-6.2h0.8l1.4,5.1l1.4-5.1h0.6l1.4,5.1l1.4-5.1h0.8l-1.8,6.2h-0.8L122.3,10.8z"
				/>
			<path class="st3" d="M127.4,14.3c0.4,0.5,1.1,0.9,1.9,0.9c1.1,0,1.4-0.6,1.4-1.1c0-0.7-0.7-0.9-1.6-1.2c-1-0.3-2.1-0.5-2.1-1.7
				c0-1,0.9-1.7,2.1-1.7c0.9,0,1.7,0.3,2.2,0.9l-0.5,0.6c-0.5-0.5-1.1-0.7-1.8-0.7c-0.7,0-1.3,0.4-1.3,1c0,0.6,0.7,0.8,1.5,1
				c1,0.3,2.1,0.6,2.1,1.9c0,0.9-0.6,1.8-2.3,1.8c-1.1,0-1.9-0.4-2.4-1L127.4,14.3z"/>
		</g>
	</g>
</g>
</svg>
