<svg id="Layer_1" data-name="Layer 1" xmlns="http://www.w3.org/2000/svg" viewBox="0 0 199.55 204.51"><defs><style>.cls-1{fill:#231f20;}.cls-2{fill:#090a0a;}.cls-3{fill:#4d53a3;}.cls-4{fill:#fdba12;}.cls-5{fill:#313896;}.cls-6{fill:#f9f6f4;}</style></defs><title>Urban_Prep_logo_pro</title><path class="cls-1" d="M259.16,233.4a4.85,4.85,0,0,1-.58-0.21c-2.61-1.34-5.23-2.64-7.8-4.06a1.44,1.44,0,0,0-1.9.2c-1,.87-2.13,1.64-3.2,2.46-1.31,1-1.29,1-.3,2.3,0.36,0.47.65,0.65,1.14,0.17a1,1,0,0,1,1.72.24c2,2.69,4.09,5.38,6.15,8.06a1.07,1.07,0,0,1-.28,1.8c-0.54.33-.49,0.62-0.11,1a3.51,3.51,0,0,1,.55.75c0.32,0.59.64,0.55,1.13,0.15,1.15-.93,2.35-1.81,3.53-2.71,1.4-1.06,1.37-1,.28-2.44-0.34-.44-0.58-0.5-1-0.11-0.72.69-1.31,0.5-1.88-.26-1.67-2.24-3.36-4.46-5-6.69l0.2-.17c3.28,1.67,6.63,3.22,9.82,5,1.68,1,2.9,1,4.28-.41,0.55-.56.6-0.78,0.14-1.38-2.6-3.35-5.14-6.75-7.73-10.11-0.6-.78-0.67-1.43.24-2,0.53-.31.43-0.59,0.09-1a6.39,6.39,0,0,1-.63-0.82,0.56,0.56,0,0,0-1-.16q-2.18,1.74-4.43,3.39a0.53,0.53,0,0,0-.11.92,9.14,9.14,0,0,1,.63.82c0.3,0.48.61,0.61,1.05,0.16,0.69-.7,1.27-0.45,1.79.25,1.13,1.52,2.28,3,3.42,4.54Z" transform="translate(-211.29 -207.44)"/><path class="cls-1" d="M347.34,397.79h0.22q0,5.22,0,10.45a0.79,0.79,0,0,1-1,.84c-0.56-.07-0.75.17-0.69,0.7a3.43,3.43,0,0,1,0,.83c-0.1.74,0.11,1,.94,1,1.48-.08,3,0,4.46,0,1.85,0,2-.13,1.72-2,0-.38-0.15-0.58-0.56-0.53-0.94.11-1.18-.4-1.18-1.25,0-3.56,0-7.13,0-10.69a1,1,0,0,1,1.09-1.28c0.6,0,.68-0.29.64-0.77a4,4,0,0,1,0-.83c0.08-.7-0.15-1-0.91-1-1.66.06-3.32,0.07-5,0a1,1,0,0,0-1.19.93c-0.56,2.49-1.13,5-1.73,7.45a7.48,7.48,0,0,1-.73,2.35c-0.75-3.27-1.48-6.38-2.15-9.51a1.2,1.2,0,0,0-1.47-1.22c-1.27.11-2.56,0-3.84,0-1.86,0-2,.21-1.76,2.06,0,0.28.09,0.47,0.41,0.45,1.38-.09,1.45.87,1.45,1.85,0,2.91,0,5.82,0,8.72a11,11,0,0,1-.11,1.86,0.8,0.8,0,0,1-1,.82c-0.68-.09-0.85.23-0.78,0.83a4.32,4.32,0,0,1,0,.93c-0.06.58,0.15,0.78,0.75,0.76,1.18,0,2.35,0,3.53,0,1.93,0,1.91,0,1.77-1.93,0-.45-0.17-0.61-0.61-0.58-0.88.07-1.14-.43-1.13-1.22,0-2.35,0-4.71,0-7.06q0-1.41,0-2.81c0.78,2.35,1.35,4.72,1.91,7.08,0.45,1.91.94,3.81,1.33,5.73,0.2,1,.86.74,1.47,0.78a0.8,0.8,0,0,0,1-.79c0.35-1.83.85-3.62,1.29-5.43Q346.44,401.59,347.34,397.79Z" transform="translate(-211.29 -207.44)"/><path class="cls-1" d="M324.82,411.6h0c1.9,0,3.81,0,5.71,0,0.27,0,.64.18,0.77-0.28,0.56-2,1.17-4,1.65-6,0.24-1-.86-0.78-1.32-1.12s-0.57.2-.68,0.48c-1.42,3.4-2.56,4.12-6.23,4a0.76,0.76,0,0,1-.89-0.93c0-1,0-2.08,0-3.11,0-1.23.4-1.54,1.59-1.17a1.21,1.21,0,0,1,.73,1.53c-0.1.91,0.35,1,1.09,1s0.92-.28.91-1c0-2,0-3.95,0-5.92,0-.71-0.23-0.85-0.88-0.87-0.83,0-1.25.17-1.11,1.07a2,2,0,0,1,0,.62c-0.17,1.06-1,.82-1.71.87-0.87.07-.58-0.58-0.59-1,0-1,0-2,0-3,0-.27-0.05-0.57.39-0.57,3,0,4.62-.16,6,3,0.12,0.27.14,1,.7,0.54s1.66-.08,1.31-1.28c-0.42-1.46-.91-2.89-1.25-4.37a0.93,0.93,0,0,0-1.15-.83c-3.22,0-6.44,0-9.66,0-1.9,0-1.89,0-1.78,1.94,0,0.43.11,0.62,0.58,0.6,0.89,0,1.16.43,1.15,1.3,0,3.56,0,7.13,0,10.69,0,0.8-.22,1.29-1.1,1.22-0.53,0-.65.21-0.62,0.67a4.22,4.22,0,0,1,0,.93c-0.11.74,0.19,0.94,0.91,0.92C321.15,411.56,323,411.6,324.82,411.6Z" transform="translate(-211.29 -207.44)"/><path class="cls-1" d="M223.8,303.2a5.28,5.28,0,0,0,3.48-1.13,7.28,7.28,0,0,0,2.81-5.75c0.18-3.63-1.76-6.45-5.47-7q-3.69-.5-7.39-1c-1.32-.16-1.49-0.29-1.43-1.59a0.65,0.65,0,0,0-.71-0.84,6.84,6.84,0,0,1-1.13-.14c-0.47-.1-0.6.12-0.65,0.54-0.23,2-.48,4-0.72,6.07,0,0.17-.09.39,0.09,0.46a3.79,3.79,0,0,0,2,.25c0.46-.07.32-0.63,0.38-1a1,1,0,0,1,1.26-.89c2.6,0.34,5.2.67,7.8,1a3.07,3.07,0,0,1,2.49,1.46,3.46,3.46,0,0,1,0,3.56c-0.76,1.33-2.09,1.53-3.44,1.39-2.47-.26-4.93-0.64-7.4-0.91a1.18,1.18,0,0,1-1.27-1.55c0.09-.55-0.06-0.85-0.68-0.83a3,3,0,0,1-.81-0.15,0.63,0.63,0,0,0-.93.59c-0.29,2.43-.73,4.86-0.85,7.3-0.06,1.14,1.2.58,1.86,0.77,0.38,0.1.51-.14,0.57-0.52,0.21-1.35.49-1.47,1.86-1.28C218.32,302.55,221.06,302.86,223.8,303.2Z" transform="translate(-211.29 -207.44)"/><path class="cls-1" d="M311.08,207.62v-0.15c-1.8,0-3.6,0-5.4,0-0.71,0-.95.19-0.87,0.87a5.6,5.6,0,0,1,0,.93,0.49,0.49,0,0,0,.57.63,1.12,1.12,0,0,1,1.2,1.41q-0.13,5.14-.21,10.27a0.83,0.83,0,0,1-1,1,0.64,0.64,0,0,0-.79.78,10.22,10.22,0,0,1,0,1c-0.07.57,0.19,0.69,0.71,0.69,3.77,0,7.54.1,11.31,0.19a0.88,0.88,0,0,0,1-.76q0.76-2.52,1.58-5c0.39-1.2-.73-1-1.24-1.35s-0.63.27-.77,0.6c-1.27,2.93-3,3.93-6.21,3.64a0.8,0.8,0,0,1-.86-1c0-1,0-2,0-3,0-.38-0.23-1,0.24-1.11a1.92,1.92,0,0,1,1.69.23,1.44,1.44,0,0,1,.44,1.43c-0.17,1.3.82,0.69,1.31,0.82,0.77,0.2.6-.44,0.61-0.85,0-1.9,0-3.81.08-5.71,0-.7-0.22-0.86-0.87-0.9-0.82-.05-1.14.19-1,1a1.77,1.77,0,0,1-.12.81c-0.35.91-1.16,0.55-1.8,0.6s-0.49-.54-0.49-0.9c0-.93.07-1.86,0.08-2.8a0.51,0.51,0,0,1,.52-0.6c2.9-.44,4.57.4,5.79,3,0.2,0.43.4,0.79,0.87,0.42s1.48-.08,1.15-1.17c-0.43-1.45-.85-2.91-1.24-4.37a0.75,0.75,0,0,0-.87-0.64C314.68,207.64,312.88,207.62,311.08,207.62Z" transform="translate(-211.29 -207.44)"/><path class="cls-1" d="M273.13,402a7.24,7.24,0,0,1,1.27-4.7,3.05,3.05,0,0,1,4.63-.51A7.43,7.43,0,0,1,281.1,400c0.3,0.79.79,0.51,1.23,0.34s1.16-.17,1-1c-0.42-1.74-.79-3.49-1.2-5.24a1,1,0,0,0-1.63-.52c-0.45.65-.78,0.3-1.17,0.13a6.73,6.73,0,0,0-8.25,2.15c-2.91,3.75-2.72,10.24.45,13.78a6.42,6.42,0,0,0,7,2,8.52,8.52,0,0,0,4.69-3.86c0.82-1.22.79-1.22-.26-2.19-0.44-.41-0.71-0.54-1.07.1a7.59,7.59,0,0,1-2.09,2.28,3.48,3.48,0,0,1-5.3-.91A8.36,8.36,0,0,1,273.13,402Z" transform="translate(-211.29 -207.44)"/><path class="cls-1" d="M362.2,401.33c-0.75-1.55-1.41-2.91-2.06-4.28-0.31-.65-0.28-1.18.62-1.19a0.54,0.54,0,0,0,.61-0.71,7.46,7.46,0,0,1,0-1,0.63,0.63,0,0,0-.77-0.79c-1.94,0-3.88,0-5.81,0-0.4,0-.84,0-0.76.57s-0.47,1.6.37,1.93a2.75,2.75,0,0,1,1.5,1.45c0.92,1.74,1.73,3.54,2.8,5.18a8.28,8.28,0,0,1,1.07,5.35c0,0.79-.28,1.37-1.22,1.28-0.53-.05-0.66.2-0.62,0.67a5,5,0,0,1,0,1c-0.09.66,0.19,0.82,0.81,0.81q2.85-.05,5.71,0a0.6,0.6,0,0,0,.74-0.78,4.28,4.28,0,0,1,0-.83c0.06-.6,0-1-0.8-0.92a0.83,0.83,0,0,1-.93-1c0-1,0-2.08,0-3.11a2.74,2.74,0,0,1,.37-1.48c1.13-2,2.24-4,3.37-6.06,0.38-.68.68-1.47,1.64-1.57,0.32,0,.31-0.31.31-0.56a12.12,12.12,0,0,1,0-1.25c0.06-.62-0.24-0.75-0.79-0.74-1.38,0-2.77,0-4.15,0-0.43,0-1.06-.1-0.87.61s-0.76,1.76.7,1.92c0.66,0.07.85,0.37,0.54,1Z" transform="translate(-211.29 -207.44)"/><path class="cls-1" d="M409.87,294.2c-0.22-1.77-.46-3.59-0.66-5.41,0-.4-0.1-0.67-0.59-0.61-0.65.09-1.7-.08-1.8,0.53a2.74,2.74,0,0,1-1.42,1.88,49.41,49.41,0,0,0-4.18,3c-1.53,1.39-3.34,1.66-5.24,1.82a1,1,0,0,1-1.31-1c0-.67-0.36-0.72-0.88-0.63a4.07,4.07,0,0,1-.92.13c-0.66,0-.71.29-0.65,0.83,0.22,1.75.42,3.5,0.57,5.25,0.07,0.82.28,1.34,1.24,1a1.09,1.09,0,0,1,.41,0c0.64,0,1-.14.86-0.88a0.77,0.77,0,0,1,.63-1c1.67-.17,3.33-0.85,5,0,2.06,1,4.16,1.84,6.24,2.74a1.34,1.34,0,0,1,.9.64c0.3,1.24,1.2.79,2,.77a0.66,0.66,0,0,0,.71-0.92c-0.18-1.05-.28-2.12-0.38-3.19-0.18-1.91-.17-1.89-2.09-1.63-0.45.06-.61,0.18-0.54,0.63,0.17,1-.33,1-1,0.7-1.18-.48-2.36-1-3.55-1.44-0.5-.19-0.66-0.35-0.12-0.7,1.07-.7,2.13-1.42,3.2-2.11,0.57-.37,1-0.36,1.19.45,0,0.22,0,.54.31,0.58a3.69,3.69,0,0,0,1.93-.26C410.22,295.17,409.73,294.63,409.87,294.2Z" transform="translate(-211.29 -207.44)"/><path class="cls-1" d="M384.4,245.67a4.55,4.55,0,0,1,2,.46c0.56,0.36.83,0.69,0.12,1.23-2.81,2.11-5.6,4.26-8.4,6.39a1,1,0,0,1-1.65-.2,0.5,0.5,0,0,0-.9-0.1,4.45,4.45,0,0,1-.82.63c-0.58.34-.5,0.68-0.12,1.15,1,1.19,1.87,2.4,2.78,3.61,1.19,1.58,1.17,1.57,2.65.3,0.32-.27.38-0.44,0.1-0.73-0.75-.76-0.39-1.3.33-1.84,2.73-2.06,5.43-4.14,8.16-6.21,0.82-.62,1.15-0.44,1.27.62a5.25,5.25,0,0,1-.91,3.33c-0.25.42-.59,0.85,0.18,1.11,0.58,0.19,1.06,1.15,1.77.07,0.89-1.35,1.9-2.63,2.86-3.94a1,1,0,0,0-.61-1.58,1.09,1.09,0,0,1-.83-0.48c-1.35-1.79-2.72-3.57-4.07-5.36a1.08,1.08,0,0,1-.34-1.07,0.85,0.85,0,0,0-1-1,49.46,49.46,0,0,0-5.22,2c-0.86.39-.07,1.15,0,1.73s0.38,0.4.77,0.29C383.13,245.86,383.82,245.77,384.4,245.67Z" transform="translate(-211.29 -207.44)"/><path class="cls-1" d="M306.45,393.33h3.11c3.65,0,5.92,1.59,7,5.08a12.07,12.07,0,0,1-.33,8.61,7.22,7.22,0,0,1-6.91,4.55c-2.24.08-4.49,0-6.74,0-0.71,0-.91-0.24-0.84-0.89a5.66,5.66,0,0,0,0-1,0.47,0.47,0,0,1,.59-0.6c0.88,0.08,1.13-.41,1.13-1.2q0-5.44,0-10.89a0.88,0.88,0,0,0-.91-1.09c-0.72,0-.84-0.32-0.82-0.94,0.06-1.94-.21-1.59,1.56-1.63C304.38,393.31,305.42,393.33,306.45,393.33Zm0.76,9.08q0,2.64,0,5.28s0,0.07,0,.1a0.7,0.7,0,0,0,.5.87,4.25,4.25,0,0,0,4.4-1.84,9.24,9.24,0,0,0,.93-6.2c-0.46-3.23-1.87-4.48-5.09-4.39a0.63,0.63,0,0,0-.76.77C307.23,398.82,307.21,400.61,307.21,402.41Z" transform="translate(-211.29 -207.44)"/><path class="cls-2" d="M366,270.71a197.23,197.23,0,0,1-2.29,28.4,132.07,132.07,0,0,1-9,31.81c-8.54,19.69-22,35-40.62,45.74l-0.36.21c-2.61,1.5-2.61,1.5-5.24,0a93,93,0,0,1-25.93-21.55,97.36,97.36,0,0,1-15.42-26.45,132.2,132.2,0,0,1-7.32-26.93,183.58,183.58,0,0,1-2.27-21.52c-0.26-5.39-.37-10.78-0.23-16.18a0.83,0.83,0,0,1,.89-1C274,260.69,289.42,256.9,304,250c2.21-1.05,4.39-2.17,6.5-3.4a1.46,1.46,0,0,1,1.61,0,173.4,173.4,0,0,0,40.58,14.38c4.2,0.94,8.43,1.75,12.7,2.32,0.66,0.09.65,0.44,0.65,0.92C366,266.66,366,269.16,366,270.71Zm-4.61,3.08c0-2.72,0-4.87,0-7a1,1,0,0,0-.95-1.2,116.1,116.1,0,0,1-13.12-2.9q-9.78-2.65-19.32-6.1c-5.54-2-10.93-4.35-16.26-6.84a1.18,1.18,0,0,0-1.2,0q-2.58,1.38-5.18,2.73a117.75,117.75,0,0,1-17.93,7.62,120.55,120.55,0,0,1-24,5.49c-0.39,0-1,0-1,.82,0,2.84-.17,5.67-0.11,8.51,0.14,6.53.26,13,.93,19.56,0.52,5.06,1.17,10.09,2.11,15.08a123.2,123.2,0,0,0,6.36,22.32,92.32,92.32,0,0,0,12.89,22.87,85.93,85.93,0,0,0,12.37,12.87A92.06,92.06,0,0,0,310.4,377a1,1,0,0,0,1.17-.07,89.23,89.23,0,0,0,16.91-12.24,87.86,87.86,0,0,0,14.2-16.83,101.44,101.44,0,0,0,8.72-16.65,129.73,129.73,0,0,0,7.87-28.7,143.2,143.2,0,0,0,1.65-14.56C361.2,283,361.55,278.12,361.37,273.79Z" transform="translate(-211.29 -207.44)"/><path class="cls-3" d="M259.36,233.24l0,0.25-0.24-.09Z" transform="translate(-211.29 -207.44)"/><path class="cls-3" d="M251.59,234.07l0-.25,0.23,0.08Z" transform="translate(-211.29 -207.44)"/><path class="cls-1" d="M407.34,282.11c0-.16-0.07-0.57-0.15-1-0.59-2.8-1.62-5.48-2.35-8.24-0.48-1.81-.61-1.83-2.39-1.14-0.42.16-.59,0.3-0.39,0.72,0.43,0.89-.08,1.29-0.83,1.51l-9.6,2.86c-0.75.23-1.39,0.22-1.6-.72a0.52,0.52,0,0,0-.81-0.43,7.24,7.24,0,0,1-1.18.38,0.43,0.43,0,0,0-.39.65c0.61,2,1.15,4,1.84,6,0.28,0.81.89,0,1.34,0,0.7,0,1.21-.32.85-1.18-0.27-.64.15-0.91,0.63-1.07,1-.33,2-0.62,3-0.9,0.36-.1.78-0.44,1.1,0a1,1,0,0,1-.23,1.38c-1.12,1.22-2.11,2.58-3.33,3.69-1.67,1.53-2.24,3.09-1.27,5.29,0.72,1.65.54,1.71,2.27,1.17,0.45-.14.73-0.21,0.48-0.81a1.75,1.75,0,0,1,.41-1.82c0.89-1.1,1.79-2.2,2.59-3.36,0.55-.8.83-0.85,1.48,0a4.65,4.65,0,0,0,5.62,1.34A4.72,4.72,0,0,0,407.34,282.11Zm-3.29-1a1.81,1.81,0,0,1-1.37,1.94,2,2,0,0,1-2.56-.73,12.47,12.47,0,0,1-1.25-3.35c-0.13-.37.16-0.44,0.45-0.53,1.05-.31,2.09-0.65,3.14-0.95,0.27-.08.61-0.23,0.74,0.25A16.33,16.33,0,0,1,404.05,281.07Z" transform="translate(-211.29 -207.44)"/><path class="cls-1" d="M295.18,208.95a6.2,6.2,0,0,0-.7.06c-2.88.51-5.77,1-8.64,1.56-1.4.26-1.39,0.3-1,2,0.12,0.5.21,0.89,0.91,0.66A0.88,0.88,0,0,1,287,214c0.26,1.46.58,2.9,0.85,4.36q0.56,3,1.1,6a0.77,0.77,0,0,1-.61,1.09c-1.6.26-.52,1.34-0.54,2,0,0.85.76,0.49,1.18,0.41,1.69-.3,3.38-0.67,5.07-1,0.46-.09,1.14-0.07.82-0.8s0.36-1.83-1.08-1.64a0.88,0.88,0,0,1-1.15-.84c-0.16-1-.43-2-0.59-2.94-0.05-.34-0.5-0.8.11-1.07a1,1,0,0,1,1.35.3c1.65,1.85,3.38,3.64,5.06,5.47a1.11,1.11,0,0,0,1.15.48c0.8-.19,1.62-0.32,2.43-0.51,1.75-.4,1.74-0.41,1.3-2.12-0.1-.39-0.24-0.61-0.71-0.49a2,2,0,0,1-2-.68c-1-1-2-1.94-3-2.83-0.68-.58-0.81-0.86.07-1.43A4.78,4.78,0,0,0,299.7,212,4.6,4.6,0,0,0,295.18,208.95ZM294,212.06a2,2,0,0,1,2.1,1.51,2.09,2.09,0,0,1-.85,2.45,9.91,9.91,0,0,1-3.54,1c-0.36.07-.48-0.19-0.53-0.48q-0.31-1.57-.6-3.13c-0.1-.51,0-0.75.63-0.86C292.17,212.35,293.11,212.15,294,212.06Z" transform="translate(-211.29 -207.44)"/><path class="cls-1" d="M227.07,275.33c0-.35,0-0.62-0.05-0.89a4.81,4.81,0,0,0-4-4.65,4.4,4.4,0,0,0-5.22,2.72c-1.2,2.64-1.95,5.44-2.89,8.17-0.58,1.69-.37,2,1.37,2.28,0.34,0.06.56,0,.62-0.33,0.24-1.18,1-1,1.81-.71q4.64,1.6,9.3,3.14a1,1,0,0,1,.83,1.53c-0.19.45-.17,0.7,0.39,0.79a5.8,5.8,0,0,1,1,.35,0.66,0.66,0,0,0,1-.53c0.52-1.75,1.15-3.46,1.77-5.18,0.19-.54.41-1.05-0.41-1.12-0.62-.05-1.39-1.27-1.88.17a0.84,0.84,0,0,1-1.29.57c-0.93-.36-1.9-0.62-2.83-1-0.34-.13-0.93,0-0.87-0.66a1,1,0,0,1,1-1c2.43-.51,4.83-1.11,7.25-1.66a1.18,1.18,0,0,0,1-.93,23.29,23.29,0,0,1,1-3c0.29-.67,0-0.85-0.52-1a3.71,3.71,0,0,1-.79-0.26c-0.55-.28-0.89-0.24-1,0.46a1.27,1.27,0,0,1-.88,1C230.87,274.17,229,274.73,227.07,275.33Zm-2.89.41a12.94,12.94,0,0,1-.92,3.47c-0.1.37-.36,0.25-0.57,0.17-1.11-.38-2.2-0.79-3.32-1.13-0.45-.14-0.42-0.35-0.3-0.68,0.34-.93.61-1.9,1-2.8a1.88,1.88,0,0,1,2.46-1.12A2.07,2.07,0,0,1,224.18,275.74Z" transform="translate(-211.29 -207.44)"/><path class="cls-1" d="M357.42,234.95h0a10.61,10.61,0,0,1,0,1.76,3.25,3.25,0,0,0,2.17,4,4.46,4.46,0,0,1,1.14.7c0.5,0.4.84,0.34,1.11-.24a3.23,3.23,0,0,1,.43-0.71c0.38-.46.45-0.8-0.17-1.13a1.74,1.74,0,0,1-.84-1.57c-0.1-1.52-.18-3-0.33-4.55-0.07-.7.13-0.86,0.82-0.75a4.85,4.85,0,0,0,3.43-8.95c-2.25-1.42-4.5-2.82-6.76-4.22-1.6-1-1.72-.95-2.54.78-0.16.34-.18,0.59,0.21,0.75,1,0.4.8,1,.36,1.74l-5.34,8.63a0.94,0.94,0,0,1-1.53.38c-0.44-.35-0.71-0.3-0.94.22a3.52,3.52,0,0,1-.5.79c-0.43.52-.36,0.82,0.26,1.18,1.61,0.93,3.2,1.91,4.75,2.95,0.62,0.42.89,0.3,1.15-.31a2.41,2.41,0,0,1,.39-0.61c0.42-.48.47-0.86-0.19-1.17a0.83,0.83,0,0,1-.3-1.37c0.54-.89,1.06-1.78,1.63-2.65,0.19-.29.28-0.79,0.8-0.61a1,1,0,0,1,.76,1.08C357.4,232.39,357.42,233.67,357.42,234.95Zm4.19-5.35a11.33,11.33,0,0,1-3.55-1.81,0.42,0.42,0,0,1-.07-0.64c0.65-1,1.31-2,1.94-3.06,0.14-.23.26-0.28,0.48-0.14a18.54,18.54,0,0,1,2.91,2,1.78,1.78,0,0,1,.4,2.18A2.49,2.49,0,0,1,361.61,229.6Z" transform="translate(-211.29 -207.44)"/><path class="cls-1" d="M234.3,257.64a8.18,8.18,0,0,0-.39-2.11,4.27,4.27,0,0,0-3.46-2.63,4.2,4.2,0,0,0-4.29,2.31c-1.5,2.44-2.9,4.94-4.36,7.41-0.23.39-.23,0.61,0.19,0.81a4.2,4.2,0,0,1,.8.48c0.54,0.43,1,.45,1.28-0.24a0.8,0.8,0,0,1,1.24-.3c3.11,1.79,6.21,3.61,9.31,5.43a0.83,0.83,0,0,1,.31,1.31c-0.15.26-.45,0.61,0,0.89s0.89,0.52,1.35.77a0.46,0.46,0,0,0,.67-0.27c1.49-2.69,3.3-5.2,4.51-8a4.84,4.84,0,0,0-4-6.94A4.34,4.34,0,0,0,234.3,257.64Zm1.57,2.27a2.5,2.5,0,0,1,2.39,3.53c-1.08,2.55-1.08,2.55-3.42,1.21a2.72,2.72,0,0,1-.53-0.31c-0.48-.46-1.58-0.41-1.47-1.29C233,261.65,234.82,259.91,235.88,259.91Zm-6.18-3.32a2.07,2.07,0,0,1,2.07,2.8,4.76,4.76,0,0,1-1.3,2.29c-0.71.46-1.47-.5-2.18-0.88-1.64-.9-1.64-0.94-0.63-2.55C228.14,257.48,228.54,256.55,229.7,256.59Z" transform="translate(-211.29 -207.44)"/><path class="cls-1" d="M392.87,257a11.32,11.32,0,0,0-8.79,4.52A7.66,7.66,0,0,0,389,273.44c3.46,0.59,6.36-.77,8.89-3a7.27,7.27,0,0,0,2.7-6.73C400,260.1,397.4,256.88,392.87,257Zm1.06,3.74a3.59,3.59,0,0,1,2.79,1,3,3,0,0,1,.57,3.45c-1.14,2.57-6,5.12-8.8,4.65a3.07,3.07,0,0,1-2.11-4.95A10.32,10.32,0,0,1,393.93,260.71Z" transform="translate(-211.29 -207.44)"/><path class="cls-1" d="M264.5,411.6a21.65,21.65,0,0,1,2.39,0c1,0.11,1.32-.28,1.14-1.19-0.09-.44.32-1.16-0.28-1.27-1.14-.22-1.23-1.12-1.49-1.9-1.28-4-2.51-7.94-3.76-11.92-0.63-2-.63-2-2.77-2a1.36,1.36,0,0,0-1.58,1.16c-1.32,4.31-2.7,8.61-4.06,12.91-0.25.78-.36,1.67-1.47,1.75-0.28,0-.23.3-0.24,0.5,0,0.45,0,.9,0,1.35s0.23,0.64.69,0.63c1.49,0,3,0,4.46,0,0.5,0,.68-0.16.64-0.65a5.38,5.38,0,0,1,0-1c0.06-.58-0.07-0.89-0.76-0.85s-0.83-.48-0.72-1.07c0.42-2.21.43-2.21,2.68-2.21h0.52c2.1,0,2.18.07,2.47,2.18,0.09,0.64,0,1.11-.78,1.14-0.23,0-.53,0-0.53.32a4,4,0,0,0,.11,2c0.25,0.41,1,.12,1.47.15S263.88,411.6,264.5,411.6Zm-4.78-12.91c0.39,1.33.78,2.66,1.17,4,0.06,0.2.09,0.46-.18,0.5a6.88,6.88,0,0,1-2.35,0c-0.27-.06-0.09-0.34,0-0.52q0.58-2,1.17-3.93Z" transform="translate(-211.29 -207.44)"/><path class="cls-1" d="M296.61,411.6c0.93,0,1.87,0,2.8,0a0.59,0.59,0,0,0,.74-0.77c0-.41,0-0.83,0-1.25,0-.25,0-0.48-0.35-0.5-0.88-.06-1.08-0.78-1.29-1.43-1.27-4-2.52-7.94-3.74-11.92-0.76-2.48-.73-2.47-3.32-2.41a0.9,0.9,0,0,0-1,.74c-1.18,3.85-2.31,7.72-3.65,11.51-0.45,1.27-.15,3.13-2.09,3.6a0.76,0.76,0,0,0-.12.47c0,0.41,0,.83,0,1.24a0.56,0.56,0,0,0,.69.72c1.42,0,2.84,0,4.26,0a0.6,0.6,0,0,0,.73-0.79,4.73,4.73,0,0,1,0-.93c0.05-.53-0.06-0.84-0.7-0.82a0.68,0.68,0,0,1-.76-0.87c0.22-2,.66-2.42,2.63-2.42h0.42c2.22,0,2.22,0,2.69,2.16,0.14,0.66,0,1.15-.77,1.13-0.59,0-.7.24-0.66,0.74a5.54,5.54,0,0,1,0,1c-0.06.57,0.13,0.8,0.74,0.77C294.74,411.56,295.67,411.6,296.61,411.6Zm-4.89-13.28c0.47,1.61.87,3,1.27,4.31,0.07,0.22.2,0.53-.19,0.55a21.57,21.57,0,0,1-2.17,0c-0.34,0-.31-0.31-0.24-0.55Z" transform="translate(-211.29 -207.44)"/><path class="cls-1" d="M380.73,236.19a0.73,0.73,0,0,0-.37-0.61,18.93,18.93,0,0,1-1.42-1.35,0.81,0.81,0,0,0-1.22-.15c-4,2.17-7.95,4.3-11.93,6.44-0.43.23-1,.67-1.32,0.46-1.08-.71-1.48.16-2.09,0.69s-0.4.75,0,1.15c1,0.93,2,1.89,3,2.85,0.41,0.4.77,0.54,1.16,0a2.84,2.84,0,0,1,.55-0.62c0.46-.37.58-0.67,0.09-1.15s-0.28-.9.26-1.26c1.72-1.15,1.71-1.16,3.21.3l0.45,0.43c1.45,1.34,1.43,1.33.47,3.09-0.37.67-.77,0.87-1.37,0.32a0.53,0.53,0,0,0-.93.09,3.84,3.84,0,0,1-.7.76c-0.5.41-.44,0.69,0,1.11,1.26,1.12,2.51,2.27,3.68,3.49,0.66,0.69,1.13.76,1.62-.08,0.22-.38,1-0.58.65-1.12a1.89,1.89,0,0,1,.14-2.13q2.82-6,5.67-12Zm-5.13,2.18a35.56,35.56,0,0,1-1.65,3.42c-0.21.45-.41,0.33-0.69,0.07-0.51-.5-1-1-1.65-1.56l3.84-2.13Zm-0.15-.2h0.25l-0.1.21Z" transform="translate(-211.29 -207.44)"/><path class="cls-1" d="M342.55,226.37c0,0.24,0,.34,0,0.44,0,0.91,0,1.88-1.4,1.36-0.29-.11-0.41.14-0.5,0.39a4.73,4.73,0,0,1-.35.86c-0.37.65-.27,1,0.51,1.25,1.67,0.54,3.3,1.22,5,1.79,0.25,0.09.71,0.48,0.88,0s1-1.54.47-2a2.55,2.55,0,0,1-.78-2.41c0.11-3.83.26-7.67,0.39-11.5,0.08-2.45.06-2.43-2.25-3.29a0.93,0.93,0,0,0-1.27.37c-2.82,3.62-5.68,7.21-8.52,10.81a1.36,1.36,0,0,1-.92.76c-1.36-.22-1.28.89-1.63,1.62-0.21.44-.11,0.64,0.39,0.8a34.38,34.38,0,0,1,3.58,1.33c1,0.45,1.43.28,1.68-.81,0.15-.65.44-1.14-0.45-1.44-0.49-.17-0.47-0.56-0.22-1,1-1.83,1.19-1.91,3.2-1.17a7.41,7.41,0,0,0,1.26.46A1,1,0,0,1,342.55,226.37Zm0.34-8.3c0,1.42,0,2.64,0,3.87,0,0.62-.27.73-0.86,0.53-2-.69-2-0.67-0.7-2.37Z" transform="translate(-211.29 -207.44)"/><path class="cls-1" d="M279.57,213a4.09,4.09,0,0,0-1.74.3c-2.32.87-4.63,1.78-7,2.6-0.76.27-1,.59-0.62,1.32a3.38,3.38,0,0,1,.31.77,0.49,0.49,0,0,0,.76.4c1-.52,1.31.06,1.59,0.82,1.2,3.19,2.39,6.38,3.62,9.56a0.88,0.88,0,0,1-.57,1.37c-0.52.18-.73,0.45-0.42,1a4.32,4.32,0,0,1,.36,1c0.16,0.55.47,0.56,0.94,0.38,1.77-.69,3.53-1.38,5.32-2a0.67,0.67,0,0,0,.46-1.08,4,4,0,0,1-.28-0.66c-0.15-.62-0.38-0.9-1.08-0.56a0.87,0.87,0,0,1-1.27-.65c-0.31-.84-0.64-1.67-1-2.49a0.65,0.65,0,0,1,.47-1,13.2,13.2,0,0,0,3.11-1.38,5,5,0,0,0,1.88-5.77A5.12,5.12,0,0,0,279.57,213Zm-1,3.27a2.33,2.33,0,0,1,2.22,1.81,2.19,2.19,0,0,1-.73,2.59,16,16,0,0,1-1.87.86,0.41,0.41,0,0,1-.62-0.31l-1.38-3.66c-0.1-.27-0.18-0.52.21-0.66A7.18,7.18,0,0,1,278.58,216.24Z" transform="translate(-211.29 -207.44)"/><path class="cls-1" d="M254.25,247.51a4.19,4.19,0,0,0-1.2-1.19c-0.17-.14-0.38-0.65-0.73-0.28-0.7.76-1.42,0.31-2.09,0q-5.4-2.24-10.76-4.55c-2.36-1-2.33-1-4,.85a1,1,0,0,0-.11,1.4q3.5,5.8,6.94,11.64c0.34,0.58.83,1.17,0.23,1.89-0.22.26,0,.43,0.16,0.6a8.93,8.93,0,0,1,.92.84c0.36,0.4.63,0.4,1,0,0.75-.9,1.55-1.76,2.31-2.65,1-1.19,1-1.18-.15-2.21-0.43-.39-0.73-0.7-1.21,0s-0.81.33-1.19-.12c-1.28-1.53-1.28-1.83.06-3.32,0.16-.18.34-0.35,0.5-0.53,1.34-1.51,1.33-1.5,3.06-.53,0.58,0.33.89,0.71,0.35,1.29s-0.2.72,0.16,1a6.23,6.23,0,0,1,.78.68c0.39,0.44.66,0.3,1-.08,1.23-1.45,2.48-2.88,3.72-4.31C254.06,247.77,254.16,247.63,254.25,247.51Zm-14.79-1.89c1.4,0.23,2.55,1.08,3.84,1.58a0.25,0.25,0,0,1,.14.41c-0.47.55-.95,1.09-1.43,1.62-0.18.2-.34,0.15-0.48-0.09a27.36,27.36,0,0,1-2.05-3.53h0Zm0,0-0.11-.1h0.08v0.13h0Z" transform="translate(-211.29 -207.44)"/><path class="cls-1" d="M330.32,220.09a5,5,0,0,0,5.33-4.24c0.49-2.94-.65-5.15-3.45-6a70.62,70.62,0,0,0-7.08-1.45c-1.65-.3-1.62-0.24-2,1.44-0.12.54,0,.73,0.45,0.77,1,0.08,1.09.62,0.93,1.44q-1,5-1.91,10.05c-0.15.81-.5,1.2-1.34,0.94-0.52-.16-0.69.09-0.76,0.54s-0.1.68-.18,1a0.6,0.6,0,0,0,.59.89c1.83,0.3,3.67.63,5.47,1.07a0.73,0.73,0,0,0,1.09-.72,5,5,0,0,1,.09-0.72c0.18-.59.2-1-0.62-1a0.83,0.83,0,0,1-.74-1.2,17.82,17.82,0,0,0,.47-2.64c0.05-.75.41-0.74,0.95-0.63A10,10,0,0,0,330.32,220.09Zm-0.82-2.93c-2.16,0-2.17,0-1.79-2.09,0.15-.81.31-1.62,0.44-2.44a0.48,0.48,0,0,1,.36-0.53,4.28,4.28,0,0,1,3,1.11,2.71,2.71,0,0,1-.14,3.11A1.89,1.89,0,0,1,329.5,217.15Z" transform="translate(-211.29 -207.44)"/><path class="cls-4" d="M361.37,273.79c0.18,4.34-.17,9.24-0.46,14.14a143.2,143.2,0,0,1-1.65,14.56,129.73,129.73,0,0,1-7.87,28.7,101.44,101.44,0,0,1-8.72,16.65,87.86,87.86,0,0,1-14.2,16.83,89.23,89.23,0,0,1-16.91,12.24,1,1,0,0,1-1.17.07,92.06,92.06,0,0,1-13.47-9.32,85.93,85.93,0,0,1-12.37-12.87,92.32,92.32,0,0,1-12.89-22.87,123.2,123.2,0,0,1-6.36-22.32c-0.94-5-1.59-10-2.11-15.08-0.67-6.51-.79-13-0.93-19.56-0.06-2.83.12-5.67,0.11-8.51,0-.84.62-0.78,1-0.82a120.55,120.55,0,0,0,24-5.49,117.75,117.75,0,0,0,17.93-7.62q2.59-1.36,5.18-2.73a1.18,1.18,0,0,1,1.2,0c5.33,2.49,10.72,4.84,16.26,6.84q9.54,3.44,19.32,6.1a116.1,116.1,0,0,0,13.12,2.9,1,1,0,0,1,.95,1.2C361.34,268.92,361.37,271.06,361.37,273.79Zm-38.17,7.76c-0.22.31-.43,0.62-0.66,0.92a5.48,5.48,0,0,0-1.47,3.59c0,1.14.08,1.17,1.08,0.7a2.53,2.53,0,0,0-.32,2.15,2.81,2.81,0,0,1-.07,2.07c0.08-2.27-1.93-4.07-1.24-6.54,0.31-1.09-.55-2.16-1.26-3-0.38-.47-1-1.07-1.56-0.71s-0.33,1.18-.05,1.76c0.41,0.86.89,1.69,1.37,2.58a0.9,0.9,0,0,1-.62-0.35c-0.2-.11-0.32-0.44-0.6-0.3a0.6,0.6,0,0,0-.19.74,4.19,4.19,0,0,0,1,2.64c0.5,0.49,1,1,1.54,1.43a4.31,4.31,0,0,1-1-.37c-0.48-.16-1.06-0.82-1.44-0.26a1.48,1.48,0,0,0,.39,1.7c0.09,0.1.2,0.18,0.3,0.28,1.38,1.37,3.27,1.66,5,2.29,0.48,0.18.6-.21,0.59-0.59a17.26,17.26,0,0,0-.16-2.89c-0.21-1-.44-2.19-1.69-2.62a1.15,1.15,0,0,1,.52-0.93,5.16,5.16,0,0,0,1.21-3.06,1,1,0,0,0-.69-1.19,8.21,8.21,0,0,0,2-1.37,2.76,2.76,0,0,0,.93-2.2c0-.4-0.13-0.72-0.63-0.4a9,9,0,0,0-3.19,2.84c-0.24.4-.73,0.92-0.48,1.27S322.74,281.62,323.19,281.55Zm-23.11,30.82c0.12,0.91.58,1.53,0.63,2.29a6.07,6.07,0,0,1-2.53,5.15,35.94,35.94,0,0,1-6.06,3.88c-2.94,1.64-6,3.11-8.5,5.41-4,3.65-3.26,9.23,1.57,11.65a18,18,0,0,0,9.77,1.46,0.69,0.69,0,0,0,.79-0.37,29.23,29.23,0,0,0-3.34-2.38c-2.29-1.64-3.14-4-1.4-6.68s4.38-4.76,6.78-6.93a31.18,31.18,0,0,0,5.36-5.57c1.3-2,1.34-4,.06-5.52A9.22,9.22,0,0,0,300.08,312.36Zm49.15-27.65c-0.29-.49-0.55-1-0.86-1.42-0.43-.61-0.78-1.55-1.54-1.54a6.43,6.43,0,0,1-2.76-.89,3.28,3.28,0,0,0-2-.25,23,23,0,0,1-4.74.25,0.88,0.88,0,0,1-.73-0.16c0.34-1-1.62-1.83-.08-2.8a0.72,0.72,0,0,0,0-.67,11.53,11.53,0,0,1-.73-1c-1.07-.82-1.05.8-1.79,0.95-0.29.06-.26,0.72,0.05,0.84,1,0.38.47,0.82,0.09,1.24a1.38,1.38,0,0,0-.47,1c0,0.72-.47.72-1,0.61a10.15,10.15,0,0,0-6.26.53c-2.55,1.11-2.55,1.07-2.46,3.07a4.31,4.31,0,0,0,.71,1.89,1,1,0,0,1,.06,1.39c-0.26.27-.06,0.43,0.24,0.47a2.7,2.7,0,0,1,1.88,1.76,16.2,16.2,0,0,1,1.23,3.68c0.16,0.59.37,0.65,0.84,0.45a8.81,8.81,0,0,1,2.69-.62,28.39,28.39,0,0,1,10.66.81,21.7,21.7,0,0,1,.52-2.53c0.45-1.39.63-3,2.57-3.29a0.19,0.19,0,0,0,.18-0.27c-0.39-1.69.74-3.19,0.62-4.86a0.28,0.28,0,0,0,0-.08h0a15.55,15.55,0,0,0,1.29,2.74,1.24,1.24,0,0,0,2.1.13,20.57,20.57,0,0,1,1.65-1.39,4,4,0,0,0,1.47-2.28c0.13-.6.37-1.43-0.18-1.72s-1.16.33-1.6,0.82A13.05,13.05,0,0,0,349.24,284.71Zm-12,14.57a6.87,6.87,0,0,0,4.56-3.48,0.43,0.43,0,0,0,.12-0.47,0.46,0.46,0,0,0-.56-0.07,8.35,8.35,0,0,0-5.5,4,1,1,0,0,1-1.07.5c-0.57.07-.48-0.38-0.58-0.65a5,5,0,0,0-5.26-3.51,0.43,0.43,0,1,0-.36.78c0.51,0.78,1.41,1.15,2.13,2a8.33,8.33,0,0,0-3.23-.25,4.49,4.49,0,0,0-2.92,1.1c-0.46.42-.58,0.79,0.18,1a4.86,4.86,0,0,0,2.21.21,32.23,32.23,0,0,0,3.42-1,2.74,2.74,0,0,1,2.32-.06,5.86,5.86,0,0,0-3.54.68,1.27,1.27,0,0,0-.8,1.32c0.2,0.63.89,0.4,1.36,0.35a13.31,13.31,0,0,0,4-1.11c-0.63.79-1.55,1.16-1.82,2.1a1.42,1.42,0,0,0,1.63-.61c0.28-.3.47-0.68,0.72-1,0.61-.77.87-0.76,1.43,0.06a3.31,3.31,0,0,0,1.84,1.55c0.59,0.16.92,0.14,0.71-.58s0.16-.68.68-0.56a4,4,0,0,0,2.54,0c1-.42,1.08-0.74.16-1.46a9.37,9.37,0,0,0,3,0c0.6-.14,1.37-0.39,1.37-1s-0.79-.47-1.28-0.63a14.91,14.91,0,0,0,3.4-.63c0.61-.24,1.57-0.47,1.45-1.2-0.1-.56-1.06-0.54-1.71-0.58a12.53,12.53,0,0,0-4.79,1.12c0.53-.63.95-1.1,1.34-1.6a4.22,4.22,0,0,0,1.1-3.2,0.69,0.69,0,0,0-.29-0.63,0.5,0.5,0,0,0-.63.21,9.37,9.37,0,0,0-2.54,3.79c-0.5,1.49-.39,1.68,1.12,2.15a1.07,1.07,0,0,1,.26.21,8.87,8.87,0,0,0-4,.51,0.55,0.55,0,0,0-.51.43c0,0.37.47,0.1,0.56,0.27h-2.31Zm-32.51,22.45a15.1,15.1,0,0,1-.47,2.42,14.61,14.61,0,0,1-4.08,5.35c-1.75,1.65-3.73,3.06-5.18,5a3.72,3.72,0,0,0-.93,2.44,5.68,5.68,0,0,0,3.24,4c0.46,0.11.42-.19,0.42-0.47a8.15,8.15,0,0,1,2.14-5.21c1.55-1.89,3.37-3.53,4.78-5.55A6.9,6.9,0,0,0,304.72,321.73Zm2.31,14.8a0.81,0.81,0,0,0-.56.4,35.29,35.29,0,0,1-7.65,6.39,25.67,25.67,0,0,1-11.17,3.8c-0.24,0-.62-0.14-0.67.26a0.57,0.57,0,0,0,.5.45,9.85,9.85,0,0,0,9.27-.28c4.54-2.31,7.68-6,10.21-10.36A0.55,0.55,0,0,0,307,336.53Zm39.39-60.12a9.8,9.8,0,0,0-.33-1,6.18,6.18,0,0,0-1.66-2.45,1.16,1.16,0,0,0-1.17-.18c-0.37.15-.2,0.63-0.16,0.93a5.16,5.16,0,0,0,1.86,3.32,23.15,23.15,0,0,1,3.06,2.43c0.32,0.37.51,0.28,0.57-.19,0.11-.85.31-1.69,0.35-2.54a4.5,4.5,0,0,0-.52-2.48,1,1,0,0,0-.81-0.57c-0.39,0-.29.46-0.42,0.72C346.87,275,347.18,275.88,346.42,276.41Zm-23.16.71c-0.09-1-.12-1.78-0.25-2.6a1,1,0,0,0-.7-0.83c-0.37-.05-0.45.41-0.55,0.65a7.18,7.18,0,0,0-.27,4.54c0.11,0.39.36,0.6,0.77,0.35a11.15,11.15,0,0,0,3.71-3c1.06-1.56,1.11-2.77.26-3.69A28,28,0,0,0,323.26,277.12Zm24.47,14.2c0.08-.23.09-0.32,0.13-0.4a5.53,5.53,0,0,0,.53-3.18,1,1,0,0,0-.63-0.88c-0.49-.14-0.51.39-0.65,0.64a9.47,9.47,0,0,0-1,2.67,3.19,3.19,0,0,0,.29,2.3c0.17,0.3.35,0.52,0.72,0.29a27.72,27.72,0,0,1,3.47-1.47,3.38,3.38,0,0,0,1.95-2.22c0.18-.63-0.15-0.88-0.71-0.69a5.43,5.43,0,0,0-1.92,1.15A7.39,7.39,0,0,1,347.72,291.32Zm-23.36.94a8.31,8.31,0,0,0,2.76,4.61,1.32,1.32,0,0,0,1.18.43c0.41-.23,0-0.76-0.12-1.09-0.47-1.89-1.18-3.64-3.24-4.4C324.58,291.68,324.3,291.5,324.36,292.27Zm-2.77-10.71a5.4,5.4,0,0,0,0-.72,5.62,5.62,0,0,0-1.28-3.5c-0.24-.24-0.57-0.63-0.71,0-0.37,1.68-.62,3.38.43,4.94a1.16,1.16,0,0,0,1.25.73c0.65-.18.2-0.77,0.31-1.16A1.25,1.25,0,0,0,321.59,281.56Zm26.79,0a0.8,0.8,0,0,1,0-.1c-0.25-1.69-2.78-4-4.43-4.08-0.3,0-.44.06-0.41,0.4,0.14,1.53,3,4.1,4.46,4.07C348.2,281.8,348.41,281.83,348.38,281.51Zm-20.89,15.88c-2.33-1.47-5.46-1.62-6.84-.37C322.22,298.34,326.39,298.8,327.49,297.39Zm-6.14-4.71c-0.32.09-.88-0.26-1,0.25a1.22,1.22,0,0,0,.6,1,9.69,9.69,0,0,0,4,2.2,0.47,0.47,0,0,0,.58-0.06,0.61,0.61,0,0,0,0-.58A4.5,4.5,0,0,0,321.34,292.68Zm27.29-11.52a4.44,4.44,0,0,0,.2,1.32c0.12,0.2.1,0.54,0.4,0.53a0.73,0.73,0,0,0,.43-0.39,10.25,10.25,0,0,0,.92-1.93c0.3-1.07.62-2.18-.08-3.26-0.28-.42-0.46-0.69-0.8,0A8.32,8.32,0,0,0,348.63,281.16Zm3.92,4.22c0.07-.58-0.1-0.75-0.68-0.46a5.46,5.46,0,0,0-2.74,2.92,1.75,1.75,0,0,0-.15,1.3c0.08,0.22.2,0.56,0.49,0.33C350.86,288.4,352.31,287.35,352.55,285.39Zm-7.62,10.13c0,0.5.1,0.83,0.63,0.57a10.45,10.45,0,0,0,3.69-2.36,1.87,1.87,0,0,0,.52-1.08c0-.32-0.06-0.68-0.53-0.4a36.79,36.79,0,0,0-3.42,1.87A2.09,2.09,0,0,0,344.93,295.52Z" transform="translate(-211.29 -207.44)"/><path class="cls-2" d="M300.08,312.36a9.22,9.22,0,0,1,3.11,2.37c1.28,1.5,1.24,3.57-.06,5.52a31.18,31.18,0,0,1-5.36,5.57c-2.4,2.17-5,4.17-6.78,6.93s-0.89,5,1.4,6.68a29.23,29.23,0,0,1,3.34,2.38,0.69,0.69,0,0,1-.79.37,18,18,0,0,1-9.77-1.46c-4.83-2.42-5.57-8-1.57-11.65,2.52-2.3,5.57-3.77,8.5-5.41a35.94,35.94,0,0,0,6.06-3.88,6.07,6.07,0,0,0,2.53-5.15C300.66,313.9,300.2,313.27,300.08,312.36Z" transform="translate(-211.29 -207.44)"/><path class="cls-2" d="M349.24,284.71a13.05,13.05,0,0,1,1.66-3.19c0.44-.49,1-1.13,1.6-0.82s0.31,1.12.18,1.72a4,4,0,0,1-1.47,2.28,20.57,20.57,0,0,0-1.65,1.39,1.24,1.24,0,0,1-2.1-.13,15.55,15.55,0,0,1-1.29-2.74h0a0.28,0.28,0,0,1,0,.08c0.12,1.66-1,3.16-.62,4.86a0.19,0.19,0,0,1-.18.27c-1.94.24-2.12,1.9-2.57,3.29a21.7,21.7,0,0,0-.52,2.53,28.39,28.39,0,0,0-10.66-.81,8.81,8.81,0,0,0-2.69.62c-0.47.2-.68,0.15-0.84-0.45a16.2,16.2,0,0,0-1.23-3.68,2.7,2.7,0,0,0-1.88-1.76c-0.3,0-.5-0.21-0.24-0.47a1,1,0,0,0-.06-1.39,4.31,4.31,0,0,1-.71-1.89c-0.1-2-.1-2,2.46-3.07a10.15,10.15,0,0,1,6.26-.53c0.51,0.11,1,.11,1-0.61a1.38,1.38,0,0,1,.47-1c0.38-.42.93-0.85-0.09-1.24-0.31-.12-0.34-0.78-0.05-0.84,0.74-.15.72-1.77,1.79-0.95a11.53,11.53,0,0,0,.73,1,0.72,0.72,0,0,1,0,.67c-1.54,1,.42,1.85.08,2.8a0.88,0.88,0,0,0,.73.16,23,23,0,0,0,4.74-.25,3.28,3.28,0,0,1,2,.25,6.43,6.43,0,0,0,2.76.89c0.76,0,1.12.93,1.54,1.54C348.68,283.74,348.94,284.22,349.24,284.71Z" transform="translate(-211.29 -207.44)"/><path class="cls-2" d="M341.94,283.28a7.11,7.11,0,0,1-1,3.36,0.9,0.9,0,0,0,.35,1.26,0.74,0.74,0,0,0,1-.53c0.3-.55.71-0.75,1.08-0.17s0.57,0.13.76,0c1.5-1.27.83-4.67-1-5.31a1.56,1.56,0,0,0-1.31,0c-0.28.19,0.16,0.6,0.17,0.93S341.94,283.3,341.94,283.28Z" transform="translate(-211.29 -207.44)"/><path class="cls-2" d="M329,281.86c-1.59-.11-2.33.29-2.86,1.46-0.67,1.49-.56,2.72.35,3.63,0.17,0.17.35,0.63,0.68,0.2,0.68-.89,1-0.14,1.38.28,0.2,0.22.26,0.7,0.77,0.36a0.77,0.77,0,0,0,.37-1c-0.16-.38-0.37-0.73-0.52-1.11C328.72,284.42,328.18,283.2,329,281.86Z" transform="translate(-211.29 -207.44)"/><path class="cls-2" d="M337.42,288.32c0.34-.48.69-0.95,1-1.43a5.36,5.36,0,0,0,1.12-3.65c0-.27,0-0.69-0.27-0.72a6.36,6.36,0,0,0-2,0c-0.51.11-.2,0.7-0.27,1.08-0.11.57-.19,1.15-0.3,1.72A2.91,2.91,0,0,0,337.42,288.32Z" transform="translate(-211.29 -207.44)"/><path class="cls-2" d="M333.32,288.13A2.27,2.27,0,0,0,334,286c-0.12-1-.34-2-0.44-2.94-0.12-1.28-1-.47-1.58-0.63s-0.81.21-.84,0.81C331.07,285.26,332.12,286.7,333.32,288.13Z" transform="translate(-211.29 -207.44)"/><path class="cls-2" d="M332.91,290.08c-0.21-.07-0.35.11-0.34,0.39a0.37,0.37,0,0,0,.46.4c0.21,0,.52-0.07.49-0.39A0.52,0.52,0,0,0,332.91,290.08Z" transform="translate(-211.29 -207.44)"/><path class="cls-2" d="M329,291.31c0.05-.25,0-0.42-0.37-0.38s-0.51-.13-0.53.27c0,0.24,0,.5.31,0.49S329,291.78,329,291.31Z" transform="translate(-211.29 -207.44)"/><path class="cls-2" d="M336.46,290.33A0.41,0.41,0,0,0,336,290a0.46,0.46,0,0,0-.44.56,0.34,0.34,0,0,0,.42.32A0.46,0.46,0,0,0,336.46,290.33Z" transform="translate(-211.29 -207.44)"/><path class="cls-2" d="M340.42,290.52a0.38,0.38,0,0,0-.47.38,0.54,0.54,0,0,0,.55.49,0.47,0.47,0,0,0,.48-0.44A0.44,0.44,0,0,0,340.42,290.52Z" transform="translate(-211.29 -207.44)"/><path class="cls-2" d="M334.5,290.83a0.37,0.37,0,0,0,.47-0.39,0.46,0.46,0,0,0-.52-0.5,0.4,0.4,0,0,0-.41.47A0.38,0.38,0,0,0,334.5,290.83Z" transform="translate(-211.29 -207.44)"/><path class="cls-2" d="M330,290.52a0.43,0.43,0,0,0-.49.47,0.46,0.46,0,0,0,.5.41,0.38,0.38,0,0,0,.39-0.47C330.38,290.66,330.26,290.47,330,290.52Z" transform="translate(-211.29 -207.44)"/><path class="cls-2" d="M337.22,299.28h2.31c-0.09-.17-0.55.11-0.56-0.27a0.55,0.55,0,0,1,.51-0.43,8.87,8.87,0,0,1,4-.51,1.07,1.07,0,0,0-.26-0.21c-1.51-.47-1.62-0.65-1.12-2.15a9.37,9.37,0,0,1,2.54-3.79,0.5,0.5,0,0,1,.63-0.21,0.69,0.69,0,0,1,.29.63,4.22,4.22,0,0,1-1.1,3.2c-0.39.5-.81,1-1.34,1.6a12.53,12.53,0,0,1,4.79-1.12c0.65,0,1.61,0,1.71.58,0.13,0.73-.84,1-1.45,1.2a14.91,14.91,0,0,1-3.4.63c0.49,0.16,1.28.12,1.28,0.63s-0.77.9-1.37,1a9.37,9.37,0,0,1-3,0c0.92,0.72.87,1-.16,1.46a4,4,0,0,1-2.54,0c-0.52-.12-0.91-0.21-0.68.56s-0.12.74-.71,0.58a3.31,3.31,0,0,1-1.84-1.55c-0.56-.82-0.82-0.83-1.43-0.06-0.26.32-.44,0.71-0.72,1a1.42,1.42,0,0,1-1.63.61c0.27-.95,1.18-1.31,1.82-2.1a13.31,13.31,0,0,1-4,1.11c-0.47,0-1.17.28-1.36-.35a1.27,1.27,0,0,1,.8-1.32,5.86,5.86,0,0,1,3.54-.68,2.74,2.74,0,0,0-2.32.06,32.23,32.23,0,0,1-3.42,1,4.86,4.86,0,0,1-2.21-.21c-0.76-.2-0.64-0.56-0.18-1a4.49,4.49,0,0,1,2.92-1.1,8.33,8.33,0,0,1,3.23.25c-0.72-.83-1.62-1.2-2.13-2a0.43,0.43,0,1,1,.36-0.78,5,5,0,0,1,5.26,3.51c0.1,0.28,0,.72.58,0.65a1,1,0,0,0,1.07-.5,8.35,8.35,0,0,1,5.5-4,0.46,0.46,0,0,1,.56.07,0.43,0.43,0,0,1-.12.47A6.87,6.87,0,0,1,337.22,299.28Z" transform="translate(-211.29 -207.44)"/><path class="cls-2" d="M304.72,321.73a6.9,6.9,0,0,1-.09,8c-1.4,2-3.23,3.66-4.78,5.55a8.15,8.15,0,0,0-2.14,5.21c0,0.28,0,.58-0.42.47a5.68,5.68,0,0,1-3.24-4,3.72,3.72,0,0,1,.93-2.44c1.45-2,3.43-3.37,5.18-5a14.61,14.61,0,0,0,4.08-5.35A15.1,15.1,0,0,0,304.72,321.73Z" transform="translate(-211.29 -207.44)"/><path class="cls-2" d="M307,336.53a0.55,0.55,0,0,1-.08.66c-2.53,4.31-5.67,8-10.21,10.36a9.85,9.85,0,0,1-9.27.28,0.57,0.57,0,0,1-.5-0.45c0-.4.43-0.24,0.67-0.26a25.67,25.67,0,0,0,11.17-3.8,35.29,35.29,0,0,0,7.65-6.39A0.81,0.81,0,0,1,307,336.53Z" transform="translate(-211.29 -207.44)"/><path class="cls-2" d="M322.16,286.73c1.25,0.42,1.48,1.57,1.69,2.62a17.26,17.26,0,0,1,.16,2.89c0,0.38-.1.76-0.59,0.59-1.72-.63-3.6-0.92-5-2.29-0.1-.1-0.2-0.18-0.3-0.28a1.48,1.48,0,0,1-.39-1.7c0.38-.56,1,0.1,1.44.26a4.31,4.31,0,0,0,1,.37c-0.51-.48-1-0.94-1.54-1.43a4.19,4.19,0,0,1-1-2.64,0.6,0.6,0,0,1,.19-0.74c0.29-.14.4,0.19,0.6,0.3a0.9,0.9,0,0,0,.62.35c-0.48-.9-1-1.72-1.37-2.58-0.28-.58-0.64-1.35.05-1.76s1.18,0.25,1.56.71c0.72,0.88,1.57,1.95,1.26,3-0.7,2.47,1.32,4.27,1.24,6.54a2.81,2.81,0,0,0,.07-2.07,2.53,2.53,0,0,1,.32-2.15Z" transform="translate(-211.29 -207.44)"/><path class="cls-2" d="M346.42,276.41c0.76-.52.45-1.38,0.77-2,0.13-.26,0-0.72.42-0.72a1,1,0,0,1,.81.57,4.5,4.5,0,0,1,.52,2.48c0,0.85-.24,1.69-0.35,2.54-0.06.47-.25,0.57-0.57,0.19a23.15,23.15,0,0,0-3.06-2.43,5.16,5.16,0,0,1-1.86-3.32c0-.3-0.22-0.78.16-0.93a1.16,1.16,0,0,1,1.17.18,6.18,6.18,0,0,1,1.66,2.45A9.8,9.8,0,0,1,346.42,276.41Z" transform="translate(-211.29 -207.44)"/><path class="cls-2" d="M323.26,277.12a28,28,0,0,1,3-4.61c0.85,0.92.8,2.12-.26,3.69a11.15,11.15,0,0,1-3.71,3c-0.41.25-.66,0-0.77-0.35a7.18,7.18,0,0,1,.27-4.54c0.09-.24.17-0.71,0.55-0.65a1,1,0,0,1,.7.83C323.14,275.33,323.17,276.16,323.26,277.12Z" transform="translate(-211.29 -207.44)"/><path class="cls-2" d="M347.72,291.32a7.39,7.39,0,0,0,2.17-1.8,5.43,5.43,0,0,1,1.92-1.15c0.56-.19.88,0.05,0.71,0.69a3.38,3.38,0,0,1-1.95,2.22,27.72,27.72,0,0,0-3.47,1.47c-0.37.24-.56,0-0.72-0.29a3.19,3.19,0,0,1-.29-2.3,9.47,9.47,0,0,1,1-2.67c0.14-.25.16-0.78,0.65-0.64a1,1,0,0,1,.63.88,5.53,5.53,0,0,1-.53,3.18C347.82,291,347.8,291.09,347.72,291.32Z" transform="translate(-211.29 -207.44)"/><path class="cls-2" d="M324.36,292.27c-0.06-.77.22-0.59,0.59-0.45,2.05,0.76,2.77,2.51,3.24,4.4,0.08,0.34.53,0.86,0.12,1.09a1.32,1.32,0,0,1-1.18-.43A8.31,8.31,0,0,1,324.36,292.27Z" transform="translate(-211.29 -207.44)"/><path class="cls-2" d="M321.59,281.56a1.21,1.21,0,0,1,0,.31c-0.11.39,0.33,1-.31,1.16a1.16,1.16,0,0,1-1.25-.73c-1-1.56-.8-3.26-0.43-4.94,0.14-.65.47-0.25,0.71,0a5.62,5.62,0,0,1,1.28,3.5A5.25,5.25,0,0,1,321.59,281.56Z" transform="translate(-211.29 -207.44)"/><path class="cls-2" d="M348.38,281.51c0,0.32-.18.29-0.4,0.29-1.5,0-4.33-2.55-4.46-4.07,0-.34.1-0.41,0.41-0.4,1.65,0.07,4.18,2.39,4.43,4.08A0.86,0.86,0,0,0,348.38,281.51Z" transform="translate(-211.29 -207.44)"/><path class="cls-2" d="M327.49,297.39c-1.09,1.41-5.26,1-6.84-.37C322,295.77,325.15,295.92,327.49,297.39Z" transform="translate(-211.29 -207.44)"/><path class="cls-2" d="M321.34,292.68a4.5,4.5,0,0,1,4.11,2.8,0.61,0.61,0,0,1,0,.58,0.47,0.47,0,0,1-.58.06,9.69,9.69,0,0,1-4-2.2,1.22,1.22,0,0,1-.6-1C320.46,292.42,321,292.78,321.34,292.68Z" transform="translate(-211.29 -207.44)"/><path class="cls-2" d="M348.63,281.16a8.32,8.32,0,0,1,1.08-3.76c0.34-.66.52-0.39,0.8,0,0.7,1.07.38,2.19,0.08,3.26a10.25,10.25,0,0,1-.92,1.93,0.73,0.73,0,0,1-.43.39c-0.29,0-.28-0.33-0.4-0.53A4.44,4.44,0,0,1,348.63,281.16Z" transform="translate(-211.29 -207.44)"/><path class="cls-2" d="M323.19,281.55c-0.45.08-1,.58-1.32,0.14s0.25-.87.48-1.27a9,9,0,0,1,3.19-2.84c0.5-.31.58,0,0.63,0.4a2.76,2.76,0,0,1-.93,2.2,8.22,8.22,0,0,1-2,1.37h0Z" transform="translate(-211.29 -207.44)"/><path class="cls-2" d="M322.14,286.75c-1,.47-1,0.43-1.08-0.7a5.48,5.48,0,0,1,1.47-3.59c0.23-.3.44-0.61,0.66-0.92h0a1,1,0,0,1,.69,1.19,5.16,5.16,0,0,1-1.21,3.06,1.15,1.15,0,0,0-.52.93Z" transform="translate(-211.29 -207.44)"/><path class="cls-2" d="M352.55,285.39c-0.24,2-1.69,3-3.08,4.1-0.29.22-.4-0.11-0.49-0.33a1.75,1.75,0,0,1,.15-1.3,5.46,5.46,0,0,1,2.74-2.92C352.45,284.63,352.62,284.81,352.55,285.39Z" transform="translate(-211.29 -207.44)"/><path class="cls-5" d="M311.14,253.7v54.62H268.5a192.84,192.84,0,0,1-2.75-39.49A151.21,151.21,0,0,0,311.14,253.7Z" transform="translate(-211.29 -207.44)"/><path class="cls-2" d="M344.93,295.52a2.09,2.09,0,0,1,.89-1.4,36.79,36.79,0,0,1,3.42-1.87c0.48-.28.55,0.08,0.53,0.4a1.87,1.87,0,0,1-.52,1.08,10.45,10.45,0,0,1-3.69,2.36C345,296.34,344.89,296,344.93,295.52Z" transform="translate(-211.29 -207.44)"/><path class="cls-5" d="M311.33,373.5v-65h43.5S347.79,353.58,311.33,373.5Z" transform="translate(-211.29 -207.44)"/><path class="cls-6" d="M298.34,268.65c1.35,0,2.7,0,4,0a0.85,0.85,0,0,1,1,.73,62.85,62.85,0,0,1,1.73,9.76q0.6,6.4,1.17,12.8c0.06,0.69.11,1.38,0.18,2.06a0.86,0.86,0,0,1-.39.79c-4.1,3.46-8.62,6.08-14,6.88a24.85,24.85,0,0,1-18.6-4.54c-1-.7-1.9-1.49-2.89-2.19a1.19,1.19,0,0,1-.55-1.23c0.66-6.32.89-12.69,1.89-19,0.3-1.87.83-3.7,1.21-5.55a0.64,0.64,0,0,1,.82-0.53c2.84,0,5.68,0,8.52,0,0.5,0,.57.17,0.68,0.63,0.77,3.42.06,6.73-.6,10.05-0.71,3.55-1.7,7-1.54,10.72s1.84,5.65,5.7,6.25a9.37,9.37,0,0,0,6.56-1.3c2-1.22,2.2-3.25,2.28-5.26,0.13-3.42-.81-6.7-1.51-10s-1.37-6.77-.73-10.26a0.81,0.81,0,0,1,1-.84C295.64,268.68,297,268.65,298.34,268.65Zm0,1.49a15,15,0,0,1-2.28,0c-1.15-.18-1.31.43-1.34,1.34a35,35,0,0,0,1.14,8.59c0.69,3.24,1.5,6.47,1.35,9.82-0.14,3-1,5.57-4,6.95a11.33,11.33,0,0,1-8.85.47c-2.4-.86-4.23-2.32-4.78-5a17,17,0,0,1-.31-4,57.72,57.72,0,0,1,1.63-9.56,27,27,0,0,0,.77-7.8,0.7,0.7,0,0,0-.87-0.8c-1.8,0-3.6.05-5.4,0a0.89,0.89,0,0,0-1,.84,55.81,55.81,0,0,0-1.24,7.12c-0.48,5-.89,9.92-1.34,14.87a0.88,0.88,0,0,0,.3.9c4.09,3.36,8.62,5.7,14,6.16,6.71,0.58,12.56-1.57,17.78-5.7a2,2,0,0,0,.81-2c-0.29-3.1-.53-6.2-0.81-9.3a92.72,92.72,0,0,0-1.7-11.88,1.05,1.05,0,0,0-1.33-1C300,270.2,299.19,270.14,298.36,270.14Z" transform="translate(-211.29 -207.44)"/><path class="cls-6" d="M317.81,340.77a9.09,9.09,0,0,1-1.93,1.76l-2,1.31c-0.41-4.26-.16-8.15,3.55-10.91a1.07,1.07,0,0,0,.39-1c0-4.95,0-9.9-.05-14.84,0-.84.17-1,1-1,2.59,0.1,5.19.16,7.78,0,3.39-.17,6.78-0.22,10.17-0.11a16,16,0,0,1,4.76.91,9.39,9.39,0,0,1,2.64,16.59,19.45,19.45,0,0,1-11,4.06,23.2,23.2,0,0,1-4,0c-0.75-.07-0.88.12-0.87,0.79,0,2.28,0,4.57,0,6.85,0,1.9,0,3.81,0,5.71,0,0.64-.13.9-0.85,0.91-3,0-6-.17-8.92.1-0.73.07-.66-0.4-0.66-0.86q0-4.62,0-9.24C317.85,341.57,317.83,341.3,317.81,340.77Zm-2.29-.21a5.27,5.27,0,0,0,1.45-2.33,3.38,3.38,0,0,1,1.39-1.86c1-.5,1.21-0.37,1.21.69,0,3.91,0,7.82,0,11.73,0,1,.3,1.28,1.28,1.23a46.5,46.5,0,0,1,4.67,0c0.85,0,1.1-.17,1.09-1.06,0-4.29,0-8.58,0-12.88,0-.54,0-0.87.73-0.71a19.91,19.91,0,0,0,7.72.16,16.32,16.32,0,0,0,8.87-4.1c5.05-4.76,1.79-11.8-3.2-13.13a22.56,22.56,0,0,0-5.41-.79c-4.91-.09-9.82.36-14.74,0.18-0.8,0-1,.21-1,1,0,4.53,0,9.06,0,13.6a1.77,1.77,0,0,1-.84,1.7A7.21,7.21,0,0,0,315.52,340.56Z" transform="translate(-211.29 -207.44)"/><path class="cls-4" d="M341.94,283.28s0-.22,0-0.46-0.45-.74-0.17-0.93a1.56,1.56,0,0,1,1.31,0c1.87,0.64,2.54,4,1,5.31-0.19.16-.4,0.61-0.76,0s-0.77-.38-1.08.17a0.74,0.74,0,0,1-1,.53,0.9,0.9,0,0,1-.35-1.26A7.11,7.11,0,0,0,341.94,283.28Z" transform="translate(-211.29 -207.44)"/><path class="cls-4" d="M329,281.86c-0.84,1.34-.31,2.56.17,3.77,0.15,0.38.36,0.74,0.52,1.11a0.77,0.77,0,0,1-.37,1c-0.5.34-.56-0.13-0.77-0.36-0.39-.42-0.7-1.17-1.38-0.28-0.33.43-.51,0-0.68-0.2-0.91-.9-1-2.14-0.35-3.63C326.69,282.15,327.43,281.75,329,281.86Z" transform="translate(-211.29 -207.44)"/><path class="cls-4" d="M337.42,288.32a2.91,2.91,0,0,1-.75-3c0.11-.57.19-1.15,0.3-1.72,0.07-.37-0.25-1,0.27-1.08a6.36,6.36,0,0,1,2,0c0.26,0,.23.44,0.27,0.72a5.36,5.36,0,0,1-1.12,3.65C338.11,287.38,337.76,287.84,337.42,288.32Z" transform="translate(-211.29 -207.44)"/><path class="cls-4" d="M333.32,288.13c-1.19-1.43-2.25-2.87-2.18-4.84,0-.61.23-1,0.84-0.81s1.46-.65,1.58.63c0.09,1,.32,2,0.44,2.94A2.27,2.27,0,0,1,333.32,288.13Z" transform="translate(-211.29 -207.44)"/><path class="cls-4" d="M332.91,290.08a0.52,0.52,0,0,1,.62.41c0,0.32-.28.34-0.49,0.39a0.37,0.37,0,0,1-.46-0.4C332.55,290.19,332.7,290,332.91,290.08Z" transform="translate(-211.29 -207.44)"/><path class="cls-4" d="M329,291.31c0,0.47-.34.37-0.59,0.38s-0.32-.25-0.31-0.49c0-.4.32-0.24,0.53-0.27S329,291.06,329,291.31Z" transform="translate(-211.29 -207.44)"/><path class="cls-4" d="M336.46,290.33a0.46,0.46,0,0,1-.5.52,0.34,0.34,0,0,1-.42-0.32A0.46,0.46,0,0,1,336,290,0.41,0.41,0,0,1,336.46,290.33Z" transform="translate(-211.29 -207.44)"/><path class="cls-4" d="M338,290.42a0.46,0.46,0,0,1-.5.52,0.34,0.34,0,0,1-.42-0.32,0.46,0.46,0,0,1,.44-0.56A0.41,0.41,0,0,1,338,290.42Z" transform="translate(-211.29 -207.44)"/><path class="cls-4" d="M340.42,290.53a0.44,0.44,0,0,1,.56.42,0.47,0.47,0,0,1-.48.44,0.54,0.54,0,0,1-.55-0.49A0.38,0.38,0,0,1,340.42,290.53Z" transform="translate(-211.29 -207.44)"/><path class="cls-4" d="M339.08,290.28a0.44,0.44,0,0,1,.56.42,0.47,0.47,0,0,1-.48.44,0.54,0.54,0,0,1-.55-0.49A0.38,0.38,0,0,1,339.08,290.28Z" transform="translate(-211.29 -207.44)"/><path class="cls-4" d="M342,291a0.44,0.44,0,0,1,.56.42,0.47,0.47,0,0,1-.48.44,0.54,0.54,0,0,1-.55-0.49A0.38,0.38,0,0,1,342,291Z" transform="translate(-211.29 -207.44)"/><path class="cls-4" d="M334.5,290.83a0.38,0.38,0,0,1-.46-0.41,0.4,0.4,0,0,1,.41-0.47,0.46,0.46,0,0,1,.52.5A0.37,0.37,0,0,1,334.5,290.83Z" transform="translate(-211.29 -207.44)"/><path class="cls-4" d="M331.46,291.12a0.38,0.38,0,0,1-.46-0.41,0.4,0.4,0,0,1,.41-0.47,0.46,0.46,0,0,1,.52.5A0.37,0.37,0,0,1,331.46,291.12Z" transform="translate(-211.29 -207.44)"/><path class="cls-4" d="M330,290.52c0.26-.06.38,0.13,0.41,0.4a0.38,0.38,0,0,1-.39.47,0.46,0.46,0,0,1-.5-0.41A0.43,0.43,0,0,1,330,290.52Z" transform="translate(-211.29 -207.44)"/><path class="cls-2" d="M298.36,270.14c0.83,0,1.67.06,2.49,0a1.05,1.05,0,0,1,1.33,1,92.72,92.72,0,0,1,1.7,11.88c0.28,3.1.52,6.2,0.81,9.3a2,2,0,0,1-.81,2c-5.22,4.14-11.07,6.28-17.78,5.7-5.35-.46-9.89-2.8-14-6.16a0.88,0.88,0,0,1-.3-0.9c0.45-5,.85-9.92,1.34-14.87a55.81,55.81,0,0,1,1.24-7.12,0.89,0.89,0,0,1,1-.84c1.8,0.06,3.6,0,5.4,0a0.7,0.7,0,0,1,.87.8,27,27,0,0,1-.77,7.8,57.72,57.72,0,0,0-1.63,9.56,17,17,0,0,0,.31,4c0.55,2.66,2.37,4.12,4.78,5a11.33,11.33,0,0,0,8.85-.47c3-1.38,3.85-4,4-6.95,0.15-3.35-.66-6.58-1.35-9.82a35,35,0,0,1-1.14-8.59c0-.9.19-1.52,1.34-1.34A15,15,0,0,0,298.36,270.14Z" transform="translate(-211.29 -207.44)"/><path class="cls-2" d="M315.52,340.56a7.21,7.21,0,0,1,3.22-6.59,1.77,1.77,0,0,0,.84-1.7c0-4.53,0-9.06,0-13.6,0-.76.19-1,1-1,4.91,0.18,9.82-.28,14.74-0.18a22.56,22.56,0,0,1,5.41.79c5,1.33,8.25,8.37,3.2,13.13a16.32,16.32,0,0,1-8.87,4.1,19.91,19.91,0,0,1-7.72-.16c-0.68-.16-0.73.17-0.73,0.71,0,4.29,0,8.58,0,12.88,0,0.89-.25,1.1-1.09,1.06a46.5,46.5,0,0,0-4.67,0c-1,.05-1.29-0.2-1.28-1.23,0.06-3.91,0-7.82,0-11.73,0-1.06-.24-1.19-1.21-0.69a3.38,3.38,0,0,0-1.39,1.86A5.27,5.27,0,0,1,315.52,340.56Zm11-14.37c0,1.94,0,3.88,0,5.81,0,0.42,0,.76.57,0.74,3.54-.14,6.66-1.22,8.87-4.15,2.49-3.31,1.38-7-2.49-8.41a15,15,0,0,0-6.25-.58,0.69,0.69,0,0,0-.72.87C326.57,322.38,326.55,324.28,326.55,326.19Z" transform="translate(-211.29 -207.44)"/><path class="cls-6" d="M326.55,326.19c0-1.9,0-3.81,0-5.71a0.69,0.69,0,0,1,.72-0.87,15,15,0,0,1,6.25.58c3.87,1.45,5,5.11,2.49,8.41-2.21,2.93-5.33,4-8.87,4.15-0.57,0-.57-0.32-0.57-0.74C326.56,330.06,326.55,328.13,326.55,326.19Zm1.71,0h0c0,1.35,0,2.7,0,4,0,0.68.21,0.87,0.84,0.74,2.7-.56,4.93-1.78,6.16-4.38a3.16,3.16,0,0,0-1.4-4.26,9.45,9.45,0,0,0-5-.95c-0.57,0-.58.33-0.57,0.75C328.27,323.5,328.26,324.85,328.26,326.2Z" transform="translate(-211.29 -207.44)"/><path class="cls-3" d="M328.26,326.2c0-1.35,0-2.7,0-4.05,0-.41,0-0.74.57-0.75a9.45,9.45,0,0,1,5,.95,3.16,3.16,0,0,1,1.4,4.26c-1.23,2.61-3.46,3.83-6.16,4.38-0.62.13-.86-0.07-0.84-0.74,0.05-1.35,0-2.7,0-4h0Z" transform="translate(-211.29 -207.44)"/></svg>