<?xml version="1.0" encoding="utf-8"?>
<!-- Generator: Adobe Illustrator 19.1.0, SVG Export Plug-In . SVG Version: 6.00 Build 0)  -->
<!DOCTYPE svg PUBLIC "-//W3C//DTD SVG 1.1//EN" "http://www.w3.org/Graphics/SVG/1.1/DTD/svg11.dtd">
<svg version="1.1" xmlns="http://www.w3.org/2000/svg" xmlns:xlink="http://www.w3.org/1999/xlink" x="0px" y="0px"
	 viewBox="0 0 32.4 7.8" style="enable-background:new 0 0 32.4 7.8;" xml:space="preserve">
<style type="text/css">
	.st0{display:none;}
	.st1{display:inline;}
	.st2{fill-rule:evenodd;clip-rule:evenodd;}
	.st3{fill-rule:evenodd;clip-rule:evenodd;fill:#0099D8;}
	.st4{fill:#EB0029;}
	.st5{fill:#231F20;}
	.st6{fill-rule:evenodd;clip-rule:evenodd;fill:#231F20;}
	.st7{fill:#C60C46;}
	.st8{fill-rule:evenodd;clip-rule:evenodd;fill:#F3901D;}
	.st9{fill-rule:evenodd;clip-rule:evenodd;fill:#FFC425;}
	.st10{fill-rule:evenodd;clip-rule:evenodd;fill:#C60C46;}
	.st11{fill:#0067A6;}
	.st12{fill:#FFFFFF;}
	.st13{display:inline;fill:#B4A87D;}
	.st14{fill:#52302C;}
</style>
<g id="kst" class="st0">
	<g class="st1">
		<g>
			<path d="M10.7,2.1c0,0,1.8-1.9,1.8-1.9h-1.7c0,0-1.6,1.5-1.7,1.5V0.2H7.6v4.3h1.6V3.6c0,0,0.3-0.3,0.3-0.3c0,0,1,1.2,1,1.2h2.2
				C12.6,4.5,10.7,2.1,10.7,2.1"/>
			<polygon points="26.7,0.1 26.7,1.7 25.3,1.7 25.3,0.1 23.7,0.1 23.7,4.5 25.4,4.5 25.4,2.9 26.7,2.9 26.7,4.5 28.4,4.5 28.4,0.1 
							"/>
			<path d="M15.9,1.5v1.7c0,0.2-0.1,0.3-0.3,0.3h-0.9c-0.2,0-0.3-0.1-0.3-0.3V1.5c0-0.2,0.1-0.3,0.3-0.3h0.9
				C15.8,1.2,15.9,1.3,15.9,1.5 M16.6,0.2h-2.8c-0.5,0-1,0.5-1,1.1v2.2c0,0.6,0.4,1.1,1,1.1h2.8c0.5,0,1-0.5,1-1.1V1.2
				C17.5,0.6,17.1,0.2,16.6,0.2"/>
			<path d="M22.9,1.7V1.4c0-0.4-0.1-0.8-0.4-1c-0.1-0.1-0.3-0.2-0.5-0.2h-3c-0.5,0-0.9,0.6-0.9,1.2v1.8c0,0.7,0.4,1.2,0.9,1.2h3
				c0.5,0,0.9-0.6,0.9-1.2V2.7l-1.6,0l0,0.4c0,0.2-0.1,0.4-0.3,0.4h-0.9c-0.2,0-0.3-0.1-0.3-0.3V1.5c0-0.2,0.1-0.3,0.3-0.3h0.9
				c0.2,0,0.3,0.1,0.3,0.3v0.2H22.9z"/>
			<path d="M28.7,3.9L28.7,3.9L28.9,4v0.5H29V4h0.2V3.9H28.7z M29.8,3.9l-0.1,0.4l-0.1-0.4h-0.2v0.6h0.1V4l0.2,0.5h0.1L29.8,4v0.5
				h0.1V3.9H29.8z"/>
			<g>
				<path class="st2" d="M3.1,0.2L3.1,0.2H0.2v4.3l2.8,0c0,0-0.7-2.1-0.7-2.2C2.4,2.3,3.1,0.2,3.1,0.2z"/>
				<polygon class="st3" points="4.1,0.2 2.8,2.3 4.1,4.5 6.1,4.5 6.1,0.2 				"/>
			</g>
		</g>
	</g>
	<g class="st1">
		<path d="M0.2,8.2c0-0.5,0.2-0.6,0.7-0.6c0.4,0,0.7,0,0.7,0.5H1.4c0-0.3-0.1-0.4-0.5-0.4c-0.4,0-0.5,0.1-0.5,0.3
			c0,0.4,0.2,0.3,0.5,0.3c0.5,0,0.7,0,0.7,0.5c0,0.5-0.3,0.6-0.7,0.6C0.4,9.6,0.1,9.6,0.2,9h0.2c0,0.4,0.1,0.4,0.5,0.4
			c0.4,0,0.5,0,0.5-0.4c0-0.4-0.2-0.3-0.5-0.3C0.5,8.7,0.2,8.8,0.2,8.2z"/>
		<path d="M3.4,7.7v1.4c0,0.5-0.3,0.6-0.8,0.6c-0.4,0-0.8,0-0.8-0.6V7.7h0.2v1.4c0,0.3,0.1,0.4,0.5,0.4c0.4,0,0.5,0,0.5-0.4V7.7H3.4
			z"/>
		<path d="M3.8,7.7h1c0.4,0,0.5,0.3,0.5,0.6c0,0.2,0,0.6-0.5,0.6H4v0.8H3.8V7.7z M4,7.9v0.8h0.6c0.3,0,0.4,0,0.4-0.4
			c0-0.4-0.1-0.4-0.3-0.4H4z"/>
		<path d="M5.5,7.7h1c0.4,0,0.5,0.3,0.5,0.6c0,0.2,0,0.6-0.5,0.6H5.7v0.8H5.5V7.7z M5.7,7.9v0.8h0.6c0.3,0,0.4,0,0.4-0.4
			c0-0.4-0.1-0.4-0.3-0.4H5.7z"/>
		<path d="M7.5,9.4h1v0.2H7.2V7.7h0.2V9.4z"/>
		<path d="M9.2,8.8v0.8H9V8.8L8.3,7.7h0.3l0.6,0.9l0.6-0.9h0.3L9.2,8.8z"/>
		<path d="M12.4,9.4c-0.1,0.3-0.4,0.3-0.7,0.3c-0.4,0-0.7,0-0.7-0.6c0-0.5,0.1-0.5,0.4-0.5c-0.1-0.1-0.2-0.2-0.2-0.4
			c0-0.4,0.2-0.5,0.6-0.5c0.4,0,0.5,0.1,0.5,0.5v0.1h-0.2V8.2c0-0.2,0-0.3-0.3-0.3c-0.2,0-0.4,0-0.4,0.3c0,0.1,0,0.2,0.1,0.3L12.3,9
			c0,0,0-0.1,0-0.1c0,0,0-0.1,0-0.1h0.2c0,0.1,0,0.1,0,0.2c0,0.1,0,0.2,0,0.3l0.4,0.3l-0.1,0.2L12.4,9.4z M11.5,8.6
			c-0.3,0.1-0.3,0.1-0.3,0.4c0,0.4,0.1,0.4,0.5,0.4c0.2,0,0.5,0,0.6-0.2L11.5,8.6z"/>
		<path d="M14.6,9.6h-0.2V7.9h-0.6V7.7h1.5v0.2h-0.6V9.6z"/>
		<path d="M15.6,9.6h-0.2V7.7h0.9c0.4,0,0.6,0.1,0.6,0.6c0,0.3,0,0.5-0.3,0.5v0c0.2,0,0.3,0.1,0.3,0.3v0.5h-0.2V9.2
			c0-0.2-0.1-0.4-0.3-0.4h-0.7V9.6z M16.3,8.7c0.3,0,0.4-0.1,0.4-0.4c0-0.2,0-0.3-0.4-0.3h-0.7v0.8H16.3z"/>
		<path d="M17.4,9.2l-0.2,0.4h-0.2l0.7-1.9h0.3l0.7,1.9h-0.2l-0.2-0.4H17.4z M17.9,7.9L17.5,9h0.9L17.9,7.9z"/>
		<path d="M19,7.7h0.9c0.2,0,0.7,0,0.7,0.7v0.5c0,0.2,0,0.7-0.6,0.7h-1V7.7z M19.9,9.4c0.4,0,0.4-0.2,0.4-0.6V8.4
			c0-0.1,0-0.5-0.4-0.5h-0.8v1.6H19.9z"/>
		<path d="M21.1,9.6h-0.2V7.7h0.2V9.6z"/>
		<path d="M23.2,9.6h-0.4l-1.1-1.8h0v1.8h-0.2V7.7h0.4l1.1,1.8h0V7.7h0.2V9.6z"/>
		<path d="M25,8.7v0.4c0,0.5-0.2,0.6-0.6,0.6h-0.2c-0.5,0-0.7-0.1-0.7-0.7V8.4c0-0.5,0.2-0.7,0.6-0.7h0.5c0.3,0,0.5,0.1,0.5,0.4v0.2
			h-0.2V8.1c0-0.2-0.1-0.3-0.4-0.3h-0.3c-0.4,0-0.5,0.1-0.5,0.5V9c0,0.4,0.1,0.5,0.5,0.5h0.2c0.4,0,0.5,0,0.5-0.4V8.9h-0.6V8.7H25z"
			/>
	</g>
	<rect x="0.2" y="6.6" class="st1" width="28.2" height="0.2"/>
</g>
<g id="molex">
	<g>
		<rect x="16.9" y="0.1" class="st4" width="1.9" height="7.4"/>
		<path class="st4" d="M13.2,3.2c0.7,0,1.1,0.7,1.1,1.7c0,1.3-0.4,1.8-1.1,1.8c-0.7,0-1.1-0.5-1.1-1.8C12.1,4.1,12.3,3.2,13.2,3.2z
			 M10.3,5c0,1.8,1.3,2.7,3,2.7c1.7,0,3-0.9,3-2.8c0-1.6-1.1-2.7-3-2.7C11.5,2.2,10.3,3.2,10.3,5z"/>
		<path class="st4" d="M22.5,6.5c-0.5,0-1-0.4-1-1h3.8c0-1.9-1.1-3.3-3-3.3c-1.6,0-2.9,1.1-2.9,2.8c0,1.8,1.3,2.7,2.9,2.7
			c1.2,0,2.5-0.4,2.8-1.7h-1.9C23.1,6.3,22.8,6.5,22.5,6.5z M23.3,4.4h-1.8C21.5,3,23.4,3,23.3,4.4z"/>
		<path class="st4" d="M5.7,7.5l0-3.2c0-0.5,0.4-0.9,0.9-0.9c0.5,0,0.9,0.4,0.9,0.9l0,3.2l1.8,0l0-3.9c0-0.4-0.4-0.9-0.8-1.1
			C7.9,2.2,6.6,1.9,5.6,3C5.2,2.7,4.8,2.4,4.3,2.3c-0.8-0.2-1.6,0-2.2,0.6C2,2.9,2,3.1,2,3V2.3H0.1v5.1H2V4.2c0-0.5,0.4-0.9,0.9-0.9
			c0.5,0,0.9,0.4,0.9,0.9l0,3.2H5.7z"/>
		<g>
			<g>
				<path class="st4" d="M31.7,2.6V2.4h0.1c0.1,0,0.1,0,0.1,0.1c0,0.1,0,0.1-0.1,0.1H31.7z M31.6,2.9h0.1V2.7h0.1
					c0.1,0,0.1,0,0.1,0.1c0,0.1,0,0.1,0,0.1H32v0c0,0,0,0,0-0.1c0-0.1,0-0.1-0.1-0.1C32,2.6,32,2.5,32,2.5c0,0,0-0.1-0.2-0.1h-0.3
					V2.9z"/>
			</g>
			<path class="st4" d="M31.3,2.6c0-0.3,0.2-0.5,0.5-0.5c0.3,0,0.5,0.2,0.5,0.5c0,0.3-0.2,0.5-0.5,0.5C31.5,3.1,31.3,2.9,31.3,2.6z
				 M31.8,3.1c0.3,0,0.5-0.2,0.5-0.5c0-0.3-0.2-0.5-0.5-0.5c-0.3,0-0.5,0.2-0.5,0.5C31.3,2.9,31.6,3.1,31.8,3.1z"/>
		</g>
		<g>
			<path class="st4" d="M29.3,2.3l-0.9,1.2c-0.3-0.4-0.5-0.8-0.8-1.2h-2.1l1.6,2.4c0,0-1.2,1.8-1.8,2.8l1.8,0l1-1.6
				c0.2,0.2,0.6,1,0.9,1.6h2c-0.5-0.8-1.7-2.8-1.7-2.8c0.5-0.8,1.2-1.6,1.7-2.4H29.3z"/>
		</g>
	</g>
</g>
<g id="pipeline" class="st0">
	<g class="st1">
		<g>
			<path d="M10.7,2.1c0,0,1.8-1.9,1.8-1.9h-1.7c0,0-1.6,1.5-1.7,1.5V0.1H7.5v4.4h1.6V3.6c0,0,0.3-0.3,0.3-0.3c0,0,1,1.2,1,1.2h2.2
				C12.7,4.5,10.7,2.1,10.7,2.1"/>
			<polygon points="26.8,0.1 26.8,1.7 25.5,1.7 25.4,0.1 23.8,0.1 23.8,4.5 25.5,4.5 25.5,2.9 26.8,2.9 26.8,4.5 28.5,4.5 28.5,0.1 
							"/>
			<path d="M15.9,1.5v1.7c0,0.2-0.1,0.3-0.3,0.3h-0.9c-0.2,0-0.3-0.1-0.3-0.3V1.5c0-0.2,0.1-0.3,0.3-0.3h0.9
				C15.8,1.2,15.9,1.3,15.9,1.5 M16.6,0.1h-2.8c-0.5,0-1,0.5-1,1.1v2.2c0,0.6,0.4,1.1,1,1.1h2.8c0.5,0,1-0.5,1-1.1V1.2
				C17.6,0.6,17.1,0.1,16.6,0.1"/>
			<path d="M23,1.7V1.4c0-0.4-0.1-0.8-0.4-1c-0.1-0.2-0.3-0.2-0.5-0.2h-3c-0.5,0-0.9,0.6-0.9,1.3v1.9c0,0.7,0.4,1.3,0.9,1.3h3
				c0.5,0,0.9-0.6,0.9-1.3V2.8l-1.6,0l0,0.4c0,0.2-0.1,0.4-0.3,0.4h-0.9c-0.2,0-0.3-0.1-0.3-0.3V1.5c0-0.2,0.1-0.3,0.3-0.3h0.9
				c0.2,0,0.3,0.1,0.3,0.3v0.2H23z"/>
			<path d="M28.9,3.9L28.9,3.9L29.1,4v0.5h0.1V4h0.2V3.9H28.9z M29.9,3.9l-0.1,0.4l-0.1-0.4h-0.2v0.6h0.1V4l0.2,0.5h0.1L30,4v0.5
				h0.1V3.9H29.9z"/>
			<g>
				<path class="st2" d="M3.1,0.1L3.1,0.1H0.2v4.4l2.9,0c0,0-0.7-2.2-0.7-2.2C2.4,2.3,3.1,0.1,3.1,0.1z"/>
				<polygon class="st3" points="4.1,0.1 2.8,2.3 4.1,4.5 6.1,4.5 6.1,0.1 				"/>
			</g>
		</g>
	</g>
	<g class="st1">
		<path d="M0.2,7.7h1c0.4,0,0.5,0.3,0.5,0.6c0,0.2,0,0.6-0.5,0.6H0.4v0.8H0.2V7.7z M0.4,7.9v0.8H1c0.3,0,0.4,0,0.4-0.4
			c0-0.4-0.1-0.4-0.3-0.4H0.4z"/>
		<path d="M2.2,9.7H1.9v-2h0.2V9.7z"/>
		<path d="M2.5,7.7h1C3.9,7.7,4,8,4,8.3c0,0.2,0,0.6-0.5,0.6H2.7v0.8H2.5V7.7z M2.7,7.9v0.8h0.6c0.3,0,0.4,0,0.4-0.4
			c0-0.4-0.1-0.4-0.3-0.4H2.7z"/>
		<path d="M4.4,8.6h1v0.2h-1v0.7h1v0.2H4.2v-2h1.3v0.2h-1V8.6z"/>
		<path d="M5.9,9.5h1v0.2H5.7v-2h0.2V9.5z"/>
		<path d="M7.4,9.7H7.2v-2h0.2V9.7z"/>
		<path d="M9.4,9.7H9.1L8,7.9h0v1.8H7.7v-2h0.4l1.1,1.8h0V7.7h0.2V9.7z"/>
		<path d="M9.9,8.6h1v0.2h-1v0.7h1v0.2H9.7v-2H11v0.2h-1V8.6z"/>
	</g>
	<rect x="0.2" y="6.6" class="st1" width="28.4" height="0.2"/>
</g>
<g id="minerals" class="st0">
	<g class="st1">
		<g>
			<path d="M10.7,2.1c0,0,1.8-1.9,1.8-1.9h-1.7c0,0-1.6,1.5-1.7,1.5V0.1H7.5v4.4h1.6V3.6c0,0,0.3-0.3,0.3-0.3c0,0,1,1.2,1,1.2h2.2
				C12.6,4.5,10.7,2.1,10.7,2.1"/>
			<polygon points="26.8,0.1 26.8,1.7 25.4,1.7 25.4,0.1 23.7,0.1 23.7,4.5 25.4,4.5 25.4,2.9 26.8,2.9 26.8,4.5 28.5,4.5 28.5,0.1 
							"/>
			<path d="M15.9,1.5v1.7c0,0.2-0.1,0.3-0.3,0.3h-0.9c-0.2,0-0.3-0.1-0.3-0.3V1.5c0-0.2,0.1-0.3,0.3-0.3h0.9
				C15.8,1.1,15.9,1.3,15.9,1.5 M16.6,0.1h-2.8c-0.5,0-1,0.5-1,1.1v2.2c0,0.6,0.4,1.1,1,1.1h2.8c0.5,0,1-0.5,1-1.1V1.2
				C17.5,0.6,17.1,0.1,16.6,0.1"/>
			<path d="M23,1.7V1.4c0-0.4-0.1-0.8-0.4-1c-0.1-0.1-0.3-0.2-0.5-0.2h-3c-0.5,0-0.9,0.6-0.9,1.3v1.9c0,0.7,0.4,1.2,0.9,1.2h3
				c0.5,0,0.9-0.6,0.9-1.2V2.7l-1.6,0l0,0.4c0,0.2-0.1,0.4-0.3,0.4h-0.9c-0.2,0-0.3-0.1-0.3-0.3V1.5c0-0.2,0.1-0.3,0.3-0.3h0.9
				c0.2,0,0.3,0.1,0.3,0.3v0.2H23z"/>
			<path d="M28.8,3.9L28.8,3.9L29,4v0.5h0.1V4h0.2V3.9H28.8z M29.8,3.9l-0.1,0.4l-0.1-0.4h-0.2v0.6h0.1V4l0.2,0.5h0.1L29.9,4v0.5H30
				V3.9H29.8z"/>
			<g>
				<path class="st2" d="M3,0.1L3,0.1H0.1v4.4l2.9,0c0,0-0.7-2.2-0.7-2.2C2.3,2.3,3,0.1,3,0.1z"/>
				<polygon class="st3" points="4,0.1 2.7,2.3 4,4.5 6.1,4.5 6.1,0.1 				"/>
			</g>
		</g>
	</g>
	<g class="st1">
		<rect x="0.1" y="6.6" width="28.3" height="0.2"/>
	</g>
	<g class="st1">
		<path d="M1.3,9.7H1.1L0.4,7.9h0v1.8H0.2v-2h0.4l0.7,1.7l0.7-1.7h0.4v2H2.1V7.9h0L1.3,9.7z"/>
		<path d="M2.9,9.7H2.7v-2h0.2V9.7z"/>
		<path d="M4.9,9.7H4.6L3.5,7.9h0v1.8H3.3v-2h0.4l1.1,1.8h0V7.7h0.2V9.7z"/>
		<path d="M5.4,8.6h1v0.2h-1v0.7h1v0.2H5.2v-2h1.3v0.2h-1V8.6z"/>
		<path d="M7,9.7H6.8v-2h0.9c0.4,0,0.6,0.1,0.6,0.6c0,0.3,0,0.5-0.3,0.5v0c0.2,0,0.3,0.1,0.3,0.4v0.5H8V9.3C8,9,8,8.9,7.7,8.9H7V9.7
			z M7.7,8.7C8,8.7,8,8.6,8,8.3C8,8,8,7.9,7.7,7.9H7v0.8H7.7z"/>
		<path d="M8.8,9.3L8.6,9.7H8.4l0.7-2h0.3l0.7,2H9.9L9.8,9.3H8.8z M9.3,7.9L8.9,9.1h0.9L9.3,7.9z"/>
		<path d="M10.6,9.5h1v0.2h-1.2v-2h0.2V9.5z"/>
		<path d="M11.7,8.3c0-0.5,0.2-0.6,0.7-0.6c0.4,0,0.7,0,0.7,0.5h-0.2c0-0.3-0.1-0.4-0.5-0.4C12,7.9,12,8,12,8.2
			c0,0.4,0.2,0.3,0.5,0.4c0.5,0,0.7,0,0.7,0.5c0,0.6-0.3,0.6-0.8,0.6c-0.5,0-0.8-0.1-0.7-0.6h0.2c0,0.4,0.1,0.4,0.5,0.4
			c0.4,0,0.5,0,0.5-0.4c0-0.4-0.2-0.3-0.5-0.3C12.1,8.7,11.7,8.8,11.7,8.3z"/>
	</g>
</g>
<g id="kii" class="st0">
	<g class="st1">
		<path d="M13.2,2.5c0,0,2.3-2.4,2.3-2.4h-2.1c0,0-2,1.8-2.1,1.9V0.1h-2v5.4h2V4.3c0,0,0.4-0.3,0.4-0.4c0,0,1.2,1.5,1.2,1.5h2.7
			C15.6,5.5,13.2,2.5,13.2,2.5"/>
		<polygon points="33.2,0.1 33.2,2 31.5,2 31.5,0.1 29.5,0.1 29.5,5.5 31.5,5.5 31.5,3.5 33.2,3.5 33.2,5.5 35.3,5.5 35.3,0.1 		"/>
		<path d="M19.7,1.7v2.2c0,0.2-0.2,0.4-0.4,0.4h-1.2c-0.2,0-0.4-0.2-0.4-0.4V1.7c0-0.2,0.2-0.4,0.4-0.4h1.2
			C19.5,1.3,19.7,1.5,19.7,1.7 M20.5,0.1H17c-0.7,0-1.2,0.6-1.2,1.4v2.7c0,0.7,0.5,1.4,1.2,1.4h3.5c0.7,0,1.2-0.6,1.2-1.4V1.4
			C21.7,0.7,21.2,0.1,20.5,0.1"/>
		<path d="M28.5,2.1V1.6c0-0.5-0.2-1-0.5-1.3c-0.2-0.2-0.4-0.3-0.6-0.3h-3.7c-0.6,0-1.1,0.7-1.1,1.6v2.3c0,0.9,0.5,1.6,1.1,1.6h3.7
			c0.6,0,1.1-0.7,1.1-1.6V3.3l-1.9,0l0,0.5c0,0.2-0.2,0.5-0.4,0.5H25c-0.2,0-0.4-0.2-0.4-0.4V1.7c0-0.2,0.2-0.4,0.4-0.4h1.1
			c0.2,0,0.4,0.2,0.4,0.4v0.3H28.5z"/>
		<path d="M35.8,4.8v0.1H36v0.6h0.1V4.9h0.2V4.8H35.8z M37,4.8l-0.2,0.5l-0.2-0.5h-0.2v0.7h0.1V4.9l0.2,0.6h0.1l0.2-0.6v0.6h0.1V4.8
			H37z"/>
		<g>
			<path class="st2" d="M3.7,0.1L3.7,0.1H0.1v5.4l3.6,0c0,0-0.8-2.7-0.8-2.7C2.9,2.8,3.7,0.1,3.7,0.1z"/>
			<polygon class="st3" points="5,0.1 3.4,2.8 5,5.5 7.5,5.5 7.5,0.1 			"/>
		</g>
	</g>
</g>
<g id="chemtech" class="st0">
	<g class="st1">
		<g>
			<path class="st5" d="M12.2,1.2h0.2L13,0.3h0.8l-0.9,1.2l0.9,1.2H13l-0.7-1h-0.2v1h-0.7V0.3h0.7V1.2z"/>
			<path class="st5" d="M13.9,1.8V1.1c0-0.8,0.5-0.9,1.1-0.9c0.7,0,1.1,0.1,1.1,0.9v0.7c0,0.8-0.5,0.9-1.1,0.9
				C14.3,2.7,13.9,2.6,13.9,1.8z M15.4,1.8V1.2c0-0.4-0.1-0.4-0.5-0.4c-0.3,0-0.4,0-0.5,0.4v0.6c0,0.4,0.1,0.4,0.5,0.4
				C15.3,2.2,15.4,2.1,15.4,1.8z"/>
			<path class="st5" d="M18.5,1.8L18.5,1.8c0,0.3,0,0.6-0.2,0.8c-0.2,0.2-0.5,0.2-0.8,0.2c-0.7,0-1.1,0-1.1-0.9V1.2
				c0-0.8,0.4-0.9,1.1-0.9c0.7,0,1,0.1,1,0.8v0.1h-0.7V1c0-0.2-0.2-0.2-0.4-0.2C17,0.8,17,0.9,17,1.3v0.4c0,0.4,0,0.5,0.4,0.5
				c0.3,0,0.4,0,0.4-0.3V1.8H18.5z"/>
			<path class="st5" d="M20.9,2.7h-0.7v-1h-0.9v1h-0.7V0.3h0.7v0.9h0.9V0.3h0.7V2.7z"/>
			<path class="st5" d="M24.6,1.8L24.6,1.8c0,0.3,0,0.6-0.2,0.8c-0.2,0.2-0.5,0.2-0.8,0.2c-0.7,0-1.1,0-1.1-0.9V1.2
				c0-0.8,0.4-0.9,1.1-0.9c0.7,0,1,0.1,1,0.8v0.1h-0.7V1c0-0.2-0.2-0.2-0.4-0.2c-0.4,0-0.4,0.1-0.4,0.5v0.4c0,0.4,0,0.5,0.4,0.5
				c0.3,0,0.4,0,0.4-0.3V1.8H24.6z"/>
			<path class="st5" d="M27.1,2.7h-0.7v-1h-0.9v1h-0.7V0.3h0.7v0.9h0.9V0.3h0.7V2.7z"/>
			<path class="st5" d="M28.1,1.2h1v0.5h-1v0.5h1.1v0.5h-1.8V0.3h1.8v0.5h-1.1V1.2z"/>
			<path class="st5" d="M30.3,2.7h-0.7V0.3h1l0.5,1.5h0l0.4-1.5h1.1v2.4H32l0.1-1.9h0l-0.6,1.9h-0.6l-0.6-1.9h0L30.3,2.7z"/>
			<path class="st5" d="M33.7,2.7h-0.7V0.3h0.7V2.7z"/>
			<path class="st5" d="M36.2,1.8L36.2,1.8c0,0.3,0,0.6-0.2,0.8c-0.2,0.2-0.5,0.2-0.8,0.2c-0.7,0-1.1,0-1.1-0.9V1.2
				c0-0.8,0.4-0.9,1.1-0.9c0.7,0,1,0.1,1,0.8v0.1h-0.7V1c0-0.2-0.2-0.2-0.4-0.2c-0.4,0-0.4,0.1-0.4,0.5v0.4c0,0.4,0,0.5,0.4,0.5
				c0.3,0,0.4,0,0.4-0.3V1.8H36.2z"/>
			<path class="st5" d="M37.1,2.3l-0.1,0.4h-0.7L37,0.3h1l0.7,2.4h-0.7l-0.1-0.4H37.1z M37.5,0.7L37.5,0.7l-0.3,1.1h0.6L37.5,0.7z"
				/>
			<path class="st5" d="M39.5,2.1h1v0.6h-1.7V0.3h0.7V2.1z"/>
			<path class="st5" d="M12.6,6.2h-0.7V4.3h-0.6V3.8h1.9v0.6h-0.7V6.2z"/>
			<path class="st5" d="M14.1,4.7h1v0.5h-1v0.5h1.1v0.5h-1.8V3.8h1.8v0.5h-1.1V4.7z"/>
			<path class="st5" d="M17.7,5.3L17.7,5.3c0,0.3,0,0.6-0.2,0.8c-0.2,0.2-0.5,0.2-0.8,0.2c-0.7,0-1.1,0-1.1-0.9V4.7
				c0-0.8,0.4-0.9,1.1-0.9c0.7,0,1,0.1,1,0.8v0.1H17V4.6c0-0.2-0.2-0.2-0.4-0.2c-0.4,0-0.4,0.1-0.4,0.5v0.4c0,0.4,0,0.5,0.4,0.5
				c0.3,0,0.4,0,0.4-0.3V5.3H17.7z"/>
			<path class="st5" d="M20.2,6.2h-0.7v-1h-0.9v1H18V3.8h0.7v0.9h0.9V3.8h0.7V6.2z"/>
			<path class="st5" d="M21.2,6.2h-0.7V3.8h1.1l0.7,1.9h0l0-1.9H23v2.4h-1.1l-0.7-1.9h0L21.2,6.2z"/>
			<path class="st5" d="M23.3,5.3V4.6c0-0.8,0.5-0.9,1.1-0.9s1.1,0.1,1.1,0.9v0.7c0,0.8-0.5,0.9-1.1,0.9S23.3,6.1,23.3,5.3z
				 M24.9,5.3V4.7c0-0.4-0.1-0.4-0.5-0.4c-0.3,0-0.4,0-0.5,0.4v0.6c0,0.4,0.1,0.4,0.5,0.4C24.8,5.7,24.9,5.6,24.9,5.3z"/>
			<path class="st5" d="M26.5,5.6h1v0.6h-1.7V3.8h0.7V5.6z"/>
			<path class="st5" d="M27.7,5.3V4.6c0-0.8,0.5-0.9,1.1-0.9c0.7,0,1.1,0.1,1.1,0.9v0.7c0,0.8-0.5,0.9-1.1,0.9
				C28.2,6.2,27.7,6.1,27.7,5.3z M29.3,5.3V4.7c0-0.4-0.1-0.4-0.5-0.4c-0.3,0-0.4,0-0.5,0.4v0.6c0,0.4,0.1,0.4,0.5,0.4
				C29.2,5.7,29.3,5.6,29.3,5.3z"/>
			<path class="st5" d="M31.7,4.5c0-0.2-0.2-0.2-0.4-0.2c-0.5,0-0.5,0.1-0.5,0.5v0.4c0,0.4,0.1,0.5,0.5,0.5c0.3,0,0.4-0.1,0.4-0.4
				h-0.4V4.8h1.1v0.4c0,0.8-0.2,1-1.1,1c-0.8,0-1.2-0.1-1.2-0.9V4.7c0-0.8,0.4-0.9,1.2-0.9c0.6,0,1.1,0,1.1,0.8H31.7z"/>
			<path class="st5" d="M34,5.4v0.9h-0.7V5.4l-0.9-1.6h0.7l0.4,0.9h0l0.4-0.9h0.8L34,5.4z"/>
			<path class="st5" d="M37.7,4.5c0-0.2-0.2-0.2-0.4-0.2c-0.5,0-0.5,0.1-0.5,0.5v0.4c0,0.4,0.1,0.5,0.5,0.5c0.3,0,0.4-0.1,0.4-0.4
				h-0.4V4.8h1.1v0.4c0,0.8-0.2,1-1.1,1c-0.8,0-1.2-0.1-1.2-0.9V4.7c0-0.8,0.4-0.9,1.2-0.9c0.6,0,1.1,0,1.1,0.8H37.7z"/>
			<path class="st5" d="M38.7,3.8h1.3c0.6,0,0.8,0.1,0.8,0.7c0,0.4,0,0.6-0.5,0.8v0c0.3,0,0.4,0.2,0.4,0.4v0.5h-0.7V5.9
				c0-0.2-0.1-0.3-0.3-0.3h-0.5v0.6h-0.7V3.8z M39.8,5c0.3,0,0.3-0.1,0.3-0.4c0-0.2-0.1-0.3-0.3-0.3h-0.5V5H39.8z"/>
			<path class="st5" d="M41,5.3V4.6c0-0.8,0.5-0.9,1.1-0.9c0.7,0,1.1,0.1,1.1,0.9v0.7c0,0.8-0.5,0.9-1.1,0.9C41.5,6.2,41,6.1,41,5.3
				z M42.6,5.3V4.7c0-0.4-0.1-0.4-0.5-0.4c-0.3,0-0.4,0-0.5,0.4v0.6c0,0.4,0.1,0.4,0.5,0.4C42.5,5.7,42.6,5.6,42.6,5.3z"/>
			<path class="st5" d="M45.7,3.8v1.6c0,0.7-0.3,0.8-1,0.8c-1,0-1.1-0.2-1.1-0.8V3.8h0.7v1.6c0,0.3,0.2,0.3,0.4,0.3
				c0.3,0,0.4,0,0.4-0.3V3.8H45.7z"/>
			<path class="st5" d="M46,6.2V3.8h1.2c0.6,0,0.8,0.3,0.8,0.9c0,0.7-0.2,0.9-0.8,0.9h-0.6v0.6H46z M47.1,5c0.3,0,0.3,0,0.3-0.4
				c0-0.3,0-0.3-0.3-0.3h-0.4V5H47.1z"/>
			<path class="st5" d="M50.2,5.6h1v0.6h-1.7V3.8h0.7V5.6z"/>
			<path class="st5" d="M52.3,6.2h-0.7V4.3H51V3.8H53v0.6h-0.7V6.2z"/>
			<path class="st5" d="M53.1,3.8h1.2c0.7,0,1,0.3,1,0.9v0.5c0,0.7-0.2,1-0.9,1h-1.3V3.8z M53.8,5.6h0.6c0.2,0,0.3-0.2,0.3-0.4V4.7
				c0-0.3-0.1-0.4-0.3-0.4h-0.6V5.6z"/>
		</g>
	</g>
	<g class="st1">
		<path class="st5" d="M9.2,5.8L9.2,5.8l0.2,0.1v0.5h0.1V5.9h0.2V5.8H9.2z M10.2,5.8l-0.1,0.4L9.9,5.8H9.8v0.6h0.1V5.9L10,6.3h0.1
			l0.2-0.5v0.5h0.1V5.8H10.2z"/>
		<g>
			<path class="st6" d="M4.3,0.1L4.3,0.1H0.1v6.3l4.1,0c0,0-1-3.1-1-3.1C3.3,3.2,4.3,0.1,4.3,0.1z"/>
			<polygon class="st3" points="5.8,0.1 3.9,3.2 5.8,6.3 8.7,6.3 8.7,0.1 			"/>
		</g>
	</g>
</g>
<g id="kaes" class="st0">
	<g class="st1">
		<g>
			<path d="M11.3,2.1c0,0,1.9-2,1.9-2h-1.8c0,0-1.7,1.5-1.7,1.6V0.1H8v4.6h1.7v-1c0,0,0.3-0.3,0.4-0.3c0,0,1,1.3,1,1.3h2.3
				C13.3,4.7,11.3,2.2,11.3,2.1"/>
			<polygon points="28.1,0.1 28.1,1.7 26.6,1.7 26.6,0.1 24.9,0.1 24.9,4.7 26.6,4.7 26.6,3 28.1,3 28.1,4.7 29.8,4.7 29.8,0.1 			
				"/>
			<path d="M16.7,1.5v1.8c0,0.2-0.1,0.3-0.3,0.3h-1c-0.2,0-0.3-0.2-0.3-0.3V1.5c0-0.2,0.1-0.3,0.3-0.3h1C16.6,1.2,16.7,1.3,16.7,1.5
				 M17.4,0.1h-3c-0.6,0-1,0.5-1,1.1v2.3c0,0.6,0.5,1.1,1,1.1h3c0.6,0,1-0.5,1-1.1V1.3C18.4,0.6,18,0.1,17.4,0.1"/>
			<path d="M24.1,1.8V1.4c0-0.4-0.1-0.8-0.4-1.1c-0.2-0.2-0.3-0.2-0.5-0.2h-3.1c-0.5,0-0.9,0.6-0.9,1.3v1.9c0,0.7,0.4,1.3,0.9,1.3
				h3.1c0.5,0,0.9-0.6,0.9-1.3V2.8l-1.6,0l0,0.4c0,0.2-0.1,0.4-0.3,0.4h-1c-0.2,0-0.3-0.1-0.3-0.3V1.5c0-0.2,0.1-0.3,0.3-0.3h1
				c0.2,0,0.3,0.1,0.3,0.3v0.3H24.1z"/>
			<path d="M30.2,4.1L30.2,4.1l0.2,0.1v0.5h0.1V4.2h0.2V4.1H30.2z M31.3,4.1l-0.2,0.4L31,4.1h-0.2v0.6h0.1V4.2l0.2,0.5h0.1l0.2-0.5
				v0.5h0.1V4.1H31.3z"/>
			<g>
				<path class="st2" d="M3.3,0.1L3.3,0.1h-3v4.6l3,0c0,0-0.7-2.3-0.7-2.3C2.5,2.4,3.3,0.1,3.3,0.1z"/>
				<polygon class="st3" points="4.3,0.1 3,2.4 4.3,4.7 6.5,4.7 6.5,0.1 				"/>
			</g>
		</g>
	</g>
	<g class="st1">
		<rect x="0.3" y="6.8" width="34" height="0.2"/>
	</g>
	<g class="st1">
		<path d="M0.5,9.6l-0.2,0.4H0.1l0.7-2h0.3l0.8,2H1.7L1.5,9.6H0.5z M1,8.2L0.6,9.5h0.9L1,8.2z"/>
		<path d="M3.8,9.1v0.4c0,0.5-0.2,0.6-0.7,0.6H2.9c-0.5,0-0.8-0.1-0.8-0.7V8.7C2.1,8.2,2.3,8,2.7,8h0.5c0.3,0,0.5,0.1,0.5,0.5v0.2
			H3.5V8.5c0-0.2-0.1-0.3-0.4-0.3H2.8c-0.4,0-0.5,0.1-0.5,0.5v0.7c0,0.4,0.1,0.5,0.5,0.5H3c0.4,0,0.5,0,0.5-0.4V9.3H2.9V9.1H3.8z"/>
		<path d="M6.5,9.8c-0.1,0.3-0.4,0.3-0.8,0.3c-0.5,0-0.8,0-0.8-0.6C5,9,5.1,9,5.4,8.9C5.2,8.8,5.2,8.7,5.2,8.5C5.2,8.1,5.4,8,5.8,8
			c0.4,0,0.6,0.1,0.6,0.5v0.1H6.2V8.5c0-0.3,0-0.3-0.3-0.3c-0.2,0-0.4,0-0.4,0.3c0,0.1,0,0.2,0.1,0.3l0.8,0.7c0,0,0-0.1,0-0.1
			c0,0,0-0.1,0-0.1h0.2c0,0.1,0,0.1,0,0.2c0,0.1,0,0.2,0,0.3l0.4,0.3l-0.1,0.2L6.5,9.8z M5.5,9C5.2,9.1,5.2,9.1,5.2,9.5
			c0,0.4,0.1,0.4,0.5,0.4c0.2,0,0.5,0,0.6-0.2L5.5,9z"/>
		<path d="M8.2,8.9h1v0.2h-1v0.7h1.1v0.2H8V8h1.3v0.2H8.2V8.9z"/>
		<path d="M11.3,10.1H11L9.8,8.2h0v1.8H9.6V8H10l1.1,1.9h0V8h0.2V10.1z"/>
		<path d="M11.9,8.9h1v0.2h-1v0.7h1.1v0.2h-1.3V8h1.3v0.2h-1.1V8.9z"/>
		<path d="M13.5,10.1h-0.2V8h0.9c0.4,0,0.6,0.1,0.6,0.6c0,0.3,0,0.5-0.4,0.5v0c0.2,0,0.3,0.1,0.3,0.4v0.5h-0.2V9.6
			c0-0.3-0.1-0.4-0.3-0.4h-0.7V10.1z M14.2,9.1c0.4,0,0.4-0.1,0.4-0.5c0-0.3,0-0.4-0.4-0.4h-0.7v0.8H14.2z"/>
		<path d="M16.7,9.1v0.4c0,0.5-0.2,0.6-0.7,0.6h-0.2c-0.5,0-0.8-0.1-0.8-0.7V8.7c0-0.6,0.2-0.7,0.6-0.7h0.5c0.3,0,0.5,0.1,0.5,0.5
			v0.2h-0.2V8.5c0-0.2-0.1-0.3-0.4-0.3h-0.3c-0.4,0-0.5,0.1-0.5,0.5v0.7c0,0.4,0.1,0.5,0.5,0.5H16c0.4,0,0.5,0,0.5-0.4V9.3h-0.6V9.1
			H16.7z"/>
		<path d="M17.8,9.2v0.9h-0.2V9.2L16.8,8h0.3l0.6,1l0.6-1h0.3L17.8,9.2z"/>
		<path d="M19.6,8.6c0-0.5,0.3-0.6,0.8-0.6c0.4,0,0.8,0,0.7,0.6h-0.2c0-0.4-0.1-0.4-0.5-0.4c-0.5,0-0.5,0.1-0.5,0.3
			c0,0.4,0.2,0.4,0.6,0.4c0.5,0,0.7,0,0.7,0.6c0,0.6-0.3,0.6-0.8,0.6c-0.5,0-0.8-0.1-0.7-0.7h0.2c0,0.4,0.1,0.4,0.5,0.4
			c0.4,0,0.6,0,0.6-0.4c0-0.4-0.2-0.3-0.5-0.4C19.9,9.1,19.6,9.2,19.6,8.6z"/>
		<path d="M22.3,8c0.5,0,0.7,0.2,0.7,0.7v0.7c0,0.5-0.2,0.7-0.7,0.7H22c-0.5,0-0.7-0.2-0.7-0.7V8.7C21.3,8.2,21.5,8,22,8H22.3z
			 M22,8.2c-0.3,0-0.4,0.1-0.4,0.5v0.7c0,0.4,0.1,0.5,0.4,0.5h0.3c0.3,0,0.4-0.1,0.4-0.5V8.7c0-0.4-0.1-0.5-0.4-0.5H22z"/>
		<path d="M23.5,9.9h1v0.2h-1.3V8h0.2V9.9z"/>
		<path d="M26.4,8v1.5c0,0.5-0.3,0.6-0.8,0.6c-0.4,0-0.8,0-0.8-0.6V8H25v1.5c0,0.3,0.1,0.4,0.6,0.4c0.4,0,0.6,0,0.6-0.4V8H26.4z"/>
		<path d="M27.5,10.1h-0.2V8.2h-0.7V8h1.6v0.2h-0.7V10.1z"/>
		<path d="M28.5,10.1h-0.2V8h0.2V10.1z"/>
		<path d="M29.8,8c0.5,0,0.7,0.2,0.7,0.7v0.7c0,0.5-0.2,0.7-0.7,0.7h-0.3c-0.5,0-0.7-0.2-0.7-0.7V8.7C28.9,8.2,29,8,29.5,8H29.8z
			 M29.5,8.2c-0.3,0-0.4,0.1-0.4,0.5v0.7c0,0.4,0.1,0.5,0.4,0.5h0.3c0.3,0,0.4-0.1,0.4-0.5V8.7c0-0.4-0.1-0.5-0.4-0.5H29.5z"/>
		<path d="M32.5,10.1h-0.4L31,8.2h0v1.8h-0.2V8h0.4l1.1,1.9h0V8h0.2V10.1z"/>
		<path d="M32.8,8.6C32.8,8.1,33,8,33.5,8c0.4,0,0.8,0,0.7,0.6H34c0-0.4-0.1-0.4-0.5-0.4c-0.5,0-0.5,0.1-0.5,0.3
			c0,0.4,0.2,0.4,0.6,0.4c0.5,0,0.7,0,0.7,0.6c0,0.6-0.3,0.6-0.8,0.6c-0.5,0-0.8-0.1-0.7-0.7H33c0,0.4,0.1,0.4,0.5,0.4
			c0.4,0,0.6,0,0.6-0.4c0-0.4-0.2-0.3-0.5-0.4C33.1,9.1,32.8,9.2,32.8,8.6z"/>
	</g>
</g>
<g id="invista" class="st0">
	<g class="st1">
		<path class="st7" d="M48.4,4.4h-0.2v0.8H48V4.4h-0.3V4.3h0.7L48.4,4.4z M49.3,5.2V4.7c0,0,0-0.1,0-0.1h0c0,0,0,0.1-0.1,0.1L49.1,5
			H49l-0.2-0.3c0,0-0.1-0.1-0.1-0.1h0c0,0.1,0,0.1,0,0.1v0.5h-0.2V4.3h0.2L49,4.6c0,0,0,0.1,0.1,0.1h0c0,0,0-0.1,0.1-0.1l0.2-0.4
			h0.2v0.9H49.3z"/>
		<path class="st8" d="M1.7,2C2.8,0.9,4,0.4,5.2,0.2C7,0,8.7,0.5,9.6,1c2,1.1,2.7,2.7,2.5,4.7c-0.2,2.2-1.7,4.3-3.8,5.9
			c-0.9,0.7-1.6,0.8-2.2,0.7C4.8,12,3.6,10.9,2.7,9.6C1.3,7.7,0.3,5.5,0.4,4.4C0.5,3.4,1,2.7,1.7,2z M4.5,1.3
			C2.3,2.1,0.4,3.5,0.8,5.1C1,6.2,1.9,7.8,3.2,9.3C4.5,10.8,6,12,7.3,11.8c1.6-0.2,3-3,3.5-5.8c0.4-2.2,0.1-4.4-1.5-5
			C8.2,0.6,6.1,0.8,4.5,1.3z"/>
		<path class="st9" d="M0.4,7.1c-0.1-1,0.2-1.9,0.7-2.7c0.8-1.3,2-2.1,3.2-2.5c2.2-0.7,3.8,0.4,4.6,2c0.6,1.3,0.9,3,0.7,4.5
			c-0.1,0.7-0.2,1.3-0.9,1.7c-0.9,0.6-2.2,0.6-3.5,0.4c-1.8-0.3-3.6-1.1-4-1.6C0.6,8.5,0.5,7.9,0.4,7.1z M1.6,4.9
			c-0.8,1.5-1.1,3.4,0,4.2c0.6,0.4,2.2,0.9,3.7,1C7,10.2,8.6,10,9.1,9.1c0.6-1,0-3-1.1-4.7C6.8,2.7,5.3,1.6,4,2.3
			C3.1,2.7,2.2,3.8,1.6,4.9z"/>
		<path class="st10" d="M6.5,8.3C6.2,8,5.9,7.6,5.7,7.2C5.3,6.3,5.4,5.1,6,4.2C6.8,3,8.1,2.7,9.2,2.9c1.6,0.3,3.1,1.4,3.8,2.3
			c0.2,0.2,0.3,0.5,0.3,0.7c0,0.8-0.8,1.5-1.8,2.2c-1,0.6-2.5,1.2-3.2,1.2C7.6,9.1,6.9,8.8,6.5,8.3z M6.2,6.7C6.6,8.1,7.7,9.2,8.7,9
			C9,8.9,10,8.5,11,7.9c1-0.6,2-1.5,1.9-2.4C12.8,4.7,11,3.9,9.3,3.6C7.8,3.4,6.3,3.6,6,4.6C5.9,5.2,6,6,6.2,6.7z"/>
		<rect x="17.6" y="2.6" class="st7" width="0.9" height="6.5"/>
		<path class="st7" d="M24.3,9.2l-2-2.6c-0.4-0.5-0.6-0.8-0.7-1h0c0,0.2,0,0.5,0,0.8v2.8h-0.9V4.3h0.9l1.8,2.4
			c0.4,0.6,0.6,0.8,0.8,1.1h0c0-0.2,0-0.5,0-0.8V4.3h0.9v4.8H24.3z"/>
		<path class="st7" d="M29.1,9.2h-0.6l-2-4.9h0.9l1,2.6c0.1,0.3,0.3,0.7,0.4,1h0c0.1-0.3,0.2-0.6,0.4-1l1.1-2.6h0.9L29.1,9.2z"/>
		<rect x="32.5" y="4.3" class="st7" width="0.9" height="4.8"/>
		<path class="st7" d="M36.8,9.3c-0.7,0-1.1-0.2-1.5-0.4l0.3-0.7c0.3,0.2,0.7,0.4,1.2,0.4c0.5,0,0.8-0.3,0.8-0.7
			c0-0.8-1.2-0.7-1.8-1.3c-0.3-0.3-0.4-0.5-0.4-1c0-0.7,0.6-1.3,1.5-1.3c0.5,0,1,0.1,1.2,0.3v0.8c-0.4-0.2-0.8-0.3-1.1-0.3
			c-0.4,0-0.8,0.2-0.8,0.5c0,0.5,0.5,0.6,1,0.8c0.6,0.2,1.3,0.5,1.2,1.5C38.4,8.7,37.7,9.2,36.8,9.3z"/>
		<polygon class="st7" points="43.1,5.1 41.6,5.1 41.6,9.2 40.8,9.2 40.8,5.1 39.3,5.1 39.3,4.3 43.4,4.3 		"/>
		<path class="st7" d="M46.4,7.3h-1.3l0.4-1c0.1-0.3,0.2-0.5,0.2-0.7h0C45.8,5.7,45.9,6,46,6.3L46.4,7.3 M48,9.2l-2-4.8h-0.6l-2,4.8
			h0.9L44.8,8h1.8l0.4,1.1H48z"/>
	</g>
</g>
<g id="gp" class="st0">
	<g class="st1">
		<g>
			<path class="st11" d="M10.2,0.2L10.2,0.2L10.2,0.2L20,10c0,0-7.8,0-7.8,0c-0.4,0-0.6,0-0.9,0.2c-0.3,0.1-0.4,0.3-0.5,0.6
				c0,0-0.5,1.1-0.5,1.1s-0.5-1.1-0.5-1.1c-0.1-0.3-0.3-0.5-0.5-0.6C8.9,10.1,8.7,10,8.3,10c0,0-7.8,0-7.8,0L10.2,0.2L10.2,0.2
				L10.2,0.2z"/>
			<path class="st12" d="M9.9,9c-0.5,0.2-1.1,0.3-2,0.3c-1.9,0-2.7-1-2.7-2.2c0-1.4,1.1-2.3,2.8-2.3c0.9,0,1.4,0.1,1.9,0.4v1H9.8
				C9.4,5.9,8.9,5.6,8.1,5.6c-1,0-1.6,0.5-1.6,1.4c0,0.8,0.4,1.5,1.6,1.4c0.1,0,0.3,0,0.5-0.1V7.6h-1V6.8h2.3V9z"/>
			<path class="st12" d="M14.1,5.2c-0.4-0.2-0.8-0.3-1.3-0.3h-2.2v4.3h1.3V7.8h0.9c0.5,0,1-0.1,1.4-0.3c0.4-0.3,0.7-0.7,0.7-1.3
				C14.8,5.8,14.6,5.4,14.1,5.2z M13.4,6.4c0,0.3-0.2,0.5-0.3,0.6C12.9,7,12.7,7,12.5,7h-0.6V5.7h0.6c0.2,0,0.5,0,0.6,0.1
				C13.3,5.9,13.4,6,13.4,6.4z"/>
			<g>
				<g>
					<g>
						<path d="M37.7,8.4c-0.2,0-0.3,0-0.4-0.1C37.1,8.1,37,7.9,37,7.5c0-0.6,0.3-0.9,0.7-0.9c0.2,0,0.4,0.1,0.5,0.1v1.4
							C38.1,8.3,37.9,8.4,37.7,8.4z M39.2,6h-1l0,0.2C38,6,37.7,5.9,37.4,5.9c-0.7,0-1.4,0.5-1.4,1.7c0,1,0.5,1.6,1.4,1.6
							c0.4,0,0.6-0.1,0.8-0.3v0.1c0,0.1,0,0.2,0,0.3c-0.1,0.4-0.4,0.5-0.8,0.5c-0.3,0-0.7-0.1-0.9-0.2h-0.1v0.8
							c0.4,0.1,0.9,0.1,1.2,0.1c0.6,0,1.3-0.1,1.6-0.8c0.1-0.2,0.1-0.5,0.1-0.8V6z"/>
						<path d="M25.7,9c-0.3,0.2-0.9,0.3-1.6,0.3c-1.4,0-2.3-0.8-2.3-2.3c0-1.2,0.8-2.2,2.3-2.2c0.8,0,1.2,0.1,1.6,0.3v1h-0.1
							c-0.4-0.3-0.8-0.5-1.3-0.5c-0.9,0-1.3,0.7-1.3,1.4c0,0.8,0.3,1.4,1.3,1.4c0.1,0,0.3,0,0.4-0.1V7.7H24V6.8h1.7V9z"/>
						<path d="M32.2,7.6c0,0.6-0.2,1-0.7,1c-0.5,0-0.7-0.4-0.7-1c0-0.6,0.2-1,0.7-1C32,6.6,32.2,7,32.2,7.6z M33.2,7.6
							c0-1.1-0.7-1.7-1.7-1.7c-1,0-1.7,0.6-1.7,1.7c0,1.1,0.7,1.7,1.7,1.7C32.5,9.3,33.2,8.7,33.2,7.6z"/>
						<path d="M35.8,7L35.8,7c-0.2,0-0.4-0.1-0.5-0.1c-0.3,0-0.5,0.1-0.6,0.2v2.1h-1V6h1v0.5c0.1-0.1,0.3-0.3,0.5-0.4
							C35.3,6,35.4,6,35.5,6c0.1,0,0.2,0,0.2,0V7z"/>
						<path d="M49.7,6.3c0-1-0.7-1.4-1.7-1.4h-1.7V7H45v0.8h1.3v1.4h1.1V7.8h0.6C49.2,7.8,49.7,7.1,49.7,6.3z M47.6,7h-0.3V5.7h0.4
							c0.5,0,0.8,0.1,0.8,0.6C48.6,6.9,48.1,7,47.6,7z"/>
						<path d="M55,9.3c-1.1,0-1.8-0.5-1.8-1.7c0-1.1,0.7-1.7,1.8-1.7c0.5,0,0.8,0.1,1.1,0.3V7h-0.1c-0.3-0.3-0.5-0.4-0.9-0.4
							c-0.5,0-0.8,0.4-0.8,1c0,0.7,0.3,1,0.8,1c0.4,0,0.6-0.2,0.9-0.4h0.1v0.9C55.7,9.2,55.4,9.3,55,9.3z"/>
						<path d="M57.6,9.2h-1V6h1V9.2z M57.6,5.5h-1V4.7h1V5.5z"/>
						<path d="M60.3,5.5h-0.1c-0.1-0.1-0.2-0.1-0.4-0.1c-0.1,0-0.2,0-0.3,0.1c-0.1,0.1-0.1,0.2-0.1,0.4V6h0.9v0.7h-0.9v2.5h-1V6.7
							h-0.5V6h0.5V5.8c0-0.4,0.1-0.6,0.3-0.8c0.2-0.2,0.5-0.3,0.9-0.3c0.3,0,0.6,0,0.7,0.1V5.5z"/>
						<path d="M63.9,9.3c-1.1,0-1.8-0.5-1.8-1.7c0-1.1,0.7-1.7,1.8-1.7c0.5,0,0.8,0.1,1.1,0.3V7h-0.1c-0.3-0.3-0.5-0.4-0.9-0.4
							c-0.5,0-0.8,0.4-0.8,1c0,0.7,0.3,1,0.8,1c0.4,0,0.6-0.2,0.9-0.4H65v0.9C64.6,9.2,64.3,9.3,63.9,9.3z"/>
						<path d="M61.7,9.2h-1V6h1V9.2z M61.7,5.5h-1V4.7h1V5.5z"/>
						<path d="M40.9,9.2h-1V6h1V9.2z M40.9,5.5h-1V4.7h1V5.5z"/>
						<path d="M29.4,7.7c0-0.4-0.1-0.8-0.3-1.2c-0.2-0.3-0.7-0.6-1.2-0.6c-1.2,0-1.7,0.7-1.7,1.8c0,1.1,0.8,1.7,1.9,1.7
							c0.6,0,1-0.1,1.3-0.3V8.2h-0.1c-0.3,0.2-0.7,0.4-1.1,0.4c-0.7,0-1-0.4-1-0.7h2.3V7.7z M27.2,7.3c0-0.2,0-0.3,0.1-0.4
							c0.1-0.2,0.3-0.3,0.5-0.3c0.4,0,0.6,0.3,0.6,0.7H27.2z"/>
						<path d="M51.2,8.6c-0.3,0-0.5-0.1-0.5-0.4c0-0.3,0.3-0.4,0.7-0.5c0.2,0,0.3,0,0.4,0v0.7C51.6,8.5,51.4,8.6,51.2,8.6z
							 M51.8,9.2h1V7c0-0.4-0.1-0.7-0.4-0.9c-0.3-0.2-0.6-0.3-1.2-0.3C51,5.9,50.4,5.9,50,6v0.8h0.1c0.3-0.1,0.6-0.3,0.9-0.3
							c0.2,0,0.4,0,0.6,0.1c0.2,0.1,0.2,0.2,0.2,0.4v0c-0.3,0-0.6,0-0.8,0.1c-0.9,0.1-1.3,0.5-1.3,1.1c0,0.6,0.5,1,1,1
							c0.5,0,0.8-0.1,1.1-0.4V9.2z"/>
						<path d="M42.9,8.6c-0.3,0-0.5-0.1-0.5-0.4c0-0.3,0.3-0.4,0.7-0.5c0.2,0,0.3,0,0.4,0v0.7C43.4,8.5,43.1,8.6,42.9,8.6z
							 M43.5,9.2h1V7c0-0.4-0.1-0.7-0.4-0.9c-0.3-0.2-0.7-0.3-1.2-0.3c-0.2,0-0.8,0.1-1.2,0.2v0.8h0.1c0.3-0.1,0.6-0.3,0.9-0.3
							c0.2,0,0.5,0,0.6,0.1c0.2,0.1,0.2,0.2,0.2,0.4v0c-0.3,0-0.6,0-0.8,0.1c-0.9,0.1-1.3,0.5-1.3,1.1c0,0.6,0.5,1,1,1
							c0.5,0,0.8-0.1,1.1-0.4V9.2z"/>
					</g>
				</g>
			</g>
		</g>
	</g>
</g>
<g id="fhr" class="st0">
	<path class="st13" d="M12.3,4.2v7.7h0v0.9c0,0.4,0.1,0.5,0.3,0.5c0.2,0,0.3-0.2,0.3-0.5v-1h0V4.2c0-0.4-0.1-0.5-0.3-0.5
		C12.5,3.7,12.3,3.8,12.3,4.2z"/>
	<path class="st1" d="M7.8,9.4h-3v0H4.4l0-5.2h1.2C5.9,4.2,6,4.1,6,3.9c0-0.1-0.1-0.3-0.3-0.3H4.4l0-0.5c0-1.2,0.1-1.9,0.4-2.2
		c0.2-0.2,0.5-0.3,1-0.4l0.4,0c0-0.1,0-0.2,0-0.3H4.3c-0.6,0-1.1,0.2-1.5,0.7C2.4,1.3,2.1,2.1,2.1,3.2v0.2c0,0,0,0.1,0,0.1v0.2h-1
		c-0.3,0-0.3,0.1-0.3,0.2c0,0.1,0.1,0.3,0.3,0.3h1v0v5.2H1c-0.3,0-0.4,0.1-0.4,0.3C0.6,9.9,0.7,10,1,10h1.1v2.8
		c0,1.2-0.1,1.9-0.3,2.2c-0.2,0.2-0.5,0.3-1.1,0.4l-0.4,0c0,0.1,0,0.2,0,0.3h1.9c0.6,0,1.1-0.2,1.5-0.7c0.4-0.5,0.7-1.2,0.7-2.3
		v-0.2c0,0,0-0.1,0-0.1l0-2.5h0.5v0h3c0.3,0,0.4-0.1,0.4-0.3C8.3,9.5,8.1,9.4,7.8,9.4z"/>
	<path class="st13" d="M9.2,5.5v7.3c0,1.1-0.3,1.8-0.7,2.3c-0.4,0.5-0.9,0.7-1.5,0.7H5.3c0-0.1-0.1-0.2,0-0.3l0.4,0
		c0.5-0.1,0.8-0.1,1.1-0.4c0.3-0.4,0.3-1,0.3-2.2V7c0-0.5,0.2-0.9,0.7-1.2C8.3,5.5,8.7,5.5,9.2,5.5z"/>
	<g class="st1">
		<path d="M14.7,8.6l0.2,0c0.3,0,0.3-0.1,0.3-0.9V4.8c0-0.8,0-0.9-0.3-0.9l-0.2,0V3.7h3.1c0.1,0.4,0.1,0.8,0.1,1.3l-0.2,0
			c-0.1-0.7-0.2-1-1.1-1H16v2.2h0.5c0.5,0,0.7,0,0.7-0.3l0-0.3h0.2v1.6h-0.2l0-0.3c-0.1-0.3-0.2-0.3-0.7-0.3H16v1.2
			c0,0.8,0,0.9,0.3,0.9l0.2,0v0.2h-1.9V8.6z"/>
		<path d="M18.2,8.6l0.2,0c0.3-0.1,0.3,0,0.3-0.9V4.8c0-0.8,0-0.8-0.3-0.9l-0.2,0V3.7h1.9v0.2l-0.2,0C19.6,4,19.6,4,19.6,4.8v3.6
			c0.2,0.1,0.4,0.1,0.6,0.1c1,0,1-0.5,1.2-1.2l0.2,0.1c0,0.5-0.1,0.9-0.2,1.4h-3.2V8.6z"/>
		<path d="M23.3,7.7c0,0.8,0,0.9,0.3,0.9l0.2,0v0.2h-1.9V8.6l0.2,0c0.3-0.1,0.3-0.1,0.3-0.9V4.8c0-0.8,0-0.9-0.3-0.9l-0.2,0V3.7h1.9
			v0.2l-0.2,0C23.3,4,23.3,4,23.3,4.8V7.7z"/>
		<path d="M24.1,8.6l0.2,0c0.3,0,0.3-0.3,0.3-1.4V3.7c0.1,0,0.3-0.1,0.3-0.1L28,7.4V5.3c0-1.3-0.1-1.3-0.4-1.4l-0.2,0V3.7h1.5v0.2
			l-0.2,0c-0.3,0-0.3,0.3-0.3,1.4v3.5c-0.1,0-0.3,0.1-0.4,0.1l-3-3.7v2.1c0,1.2,0.1,1.3,0.4,1.3l0.2,0v0.2h-1.5V8.6z"/>
		<path d="M30.4,4h-0.3c-0.8,0-0.8,0.2-1,1h-0.2c0-0.1,0.1-1.2,0.1-1.3h3.8c0,0.2,0.1,1.2,0.1,1.3h-0.2c-0.2-0.8-0.3-1-1-1h-0.3v3.7
			c0,0.8,0,0.8,0.4,0.9l0.2,0v0.2h-2.1V8.6l0.2,0c0.4-0.1,0.4-0.1,0.4-0.9V4z"/>
		<path d="M35.4,4.8c0-0.8,0-0.9-0.3-0.9l-0.2,0V3.7h1.9v0.2l-0.2,0C36.3,4,36.3,4,36.3,4.8V6h2.1V4.8c0-0.8,0-0.9-0.3-0.9l-0.2,0
			V3.7h1.9v0.2l-0.2,0C39.2,4,39.2,4,39.2,4.8v2.8c0,0.8,0,0.9,0.3,0.9l0.2,0v0.2h-1.9V8.6l0.2,0c0.3-0.1,0.3-0.1,0.3-0.9V6.3h-2.1
			v1.4c0,0.8,0,0.9,0.3,0.9l0.2,0v0.2h-1.9V8.6l0.2,0c0.3-0.1,0.3-0.1,0.3-0.9V4.8z"/>
		<path d="M41.7,7.7c0,0.8,0,0.9,0.3,0.9l0.2,0v0.2h-1.9V8.6l0.2,0c0.3-0.1,0.3-0.1,0.3-0.9V4.8c0-0.8,0-0.9-0.3-0.9l-0.2,0V3.7h1.9
			v0.2l-0.2,0C41.7,4,41.7,4,41.7,4.8V7.7z"/>
		<path d="M42.6,8.6l0.2,0C43,8.5,43,8.5,43,7.7V4.8C43,4,43,4,42.7,3.9l-0.2,0V3.7h1.9v0.2l-0.2,0C43.9,4,43.9,4,43.9,4.8v3.6
			c0.2,0.1,0.4,0.1,0.6,0.1c1,0,1-0.5,1.2-1.2L46,7.4c0,0.5-0.1,0.9-0.2,1.4h-3.2V8.6z"/>
		<path d="M46,8.6l0.2,0c0.3-0.1,0.3,0,0.3-0.9V4.8c0-0.8,0-0.8-0.3-0.9l-0.2,0V3.7h1.9v0.2l-0.2,0C47.4,4,47.4,4,47.4,4.8v3.6
			c0.2,0.1,0.4,0.1,0.6,0.1c1,0,1-0.5,1.2-1.2l0.2,0.1c0,0.5-0.1,0.9-0.2,1.4H46V8.6z"/>
		<path d="M52.3,5c-0.1-0.4-0.2-1.2-1-1.2c-0.4,0-0.7,0.3-0.7,0.8c0,1.2,2.2,1.1,2.2,2.8c0,1.1-0.9,1.5-1.7,1.5
			c-0.6,0-1-0.2-1.2-0.3c-0.2-0.5-0.2-0.8-0.2-1.5l0.3-0.1c0.1,0.5,0.3,1.6,1.2,1.6c0.4,0,0.7-0.3,0.7-0.9c0-1.3-2.1-1.2-2.1-2.8
			c0-1,0.6-1.4,1.5-1.4c0.5,0,0.8,0.1,1.1,0.3c0.1,0.4,0.1,0.8,0.1,1.2H52.3z"/>
		<path d="M15.1,11.5c0.1-0.2,0.3-0.4,0.6-0.4c0.1,0,0.2,0,0.3,0v0.3c-0.1,0-0.2,0-0.3,0c-0.2,0-0.5,0.1-0.6,0.3
			c-0.1,0.1-0.1,0.3-0.1,0.4v0.9h-0.4v-2h0.4V11.5z"/>
		<path d="M18.7,12.2c0,0.5,0.3,0.7,0.7,0.7c0.2,0,0.4,0,0.5-0.2c0.1-0.1,0.1-0.1,0.1-0.2h0.4c0,0.2-0.1,0.3-0.3,0.4
			c-0.2,0.2-0.5,0.2-0.8,0.2c-0.7,0-1.1-0.3-1.1-1.1c0-0.3,0.1-0.5,0.3-0.7c0.3-0.2,0.6-0.3,0.9-0.3c0.4,0,0.8,0.2,0.9,0.5
			c0.1,0.2,0.1,0.4,0.1,0.6H18.7z M20.1,11.6c-0.1-0.2-0.3-0.3-0.6-0.3c-0.4,0-0.8,0.2-0.8,0.6h1.4C20.2,11.8,20.2,11.7,20.1,11.6z"
			/>
		<path d="M24.5,11.4c-0.1-0.1-0.3-0.1-0.4-0.1c-0.2,0-0.6,0-0.6,0.3c0,0.2,0.3,0.3,0.4,0.3l0.3,0c0.4,0.1,0.8,0.1,0.8,0.6
			c0,0.2-0.1,0.4-0.3,0.5c-0.2,0.1-0.5,0.1-0.7,0.1c-0.3,0-0.6,0-0.8-0.2c-0.1-0.1-0.1-0.3-0.2-0.4h0.4c0,0.1,0,0.2,0.1,0.2
			c0.1,0.1,0.3,0.2,0.5,0.2c0.2,0,0.6,0,0.6-0.3c0-0.3-0.3-0.3-0.5-0.3l-0.3,0c-0.3-0.1-0.8-0.1-0.8-0.6c0-0.2,0.1-0.4,0.3-0.5
			c0.2-0.1,0.4-0.1,0.7-0.1c0.2,0,0.5,0,0.7,0.2c0.1,0.1,0.2,0.3,0.2,0.4h-0.4C24.6,11.5,24.6,11.5,24.5,11.4z"/>
		<path d="M29.7,11.3c0.2,0.2,0.3,0.5,0.3,0.8c0,0.3-0.1,0.6-0.3,0.8c-0.3,0.2-0.6,0.3-0.9,0.3c-0.3,0-0.7-0.1-0.9-0.3
			c-0.2-0.2-0.3-0.5-0.3-0.8c0-0.3,0.1-0.6,0.3-0.8c0.2-0.2,0.6-0.3,0.9-0.3C29.1,11,29.5,11.1,29.7,11.3z M27.9,12.1
			c0,0.5,0.4,0.8,0.9,0.8c0.5,0,0.9-0.3,0.9-0.8c0-0.5-0.4-0.8-0.9-0.8C28.3,11.3,27.9,11.6,27.9,12.1z"/>
		<path d="M34.7,13.1h-0.3v-0.4c-0.1,0.1-0.1,0.2-0.2,0.2c-0.2,0.1-0.4,0.2-0.6,0.2c-0.3,0-0.6-0.1-0.8-0.4
			c-0.1-0.2-0.1-0.4-0.1-0.6v-1H33v1.1c0,0.2,0,0.4,0.1,0.5c0.1,0.1,0.3,0.2,0.5,0.2c0.2,0,0.4-0.1,0.5-0.2c0.2-0.2,0.2-0.5,0.2-0.8
			v-0.8h0.3V13.1z"/>
		<path d="M37.9,11.5c0.1-0.2,0.3-0.4,0.6-0.4c0.1,0,0.2,0,0.3,0v0.3c-0.1,0-0.2,0-0.3,0c-0.2,0-0.5,0.1-0.6,0.3
			c-0.1,0.1-0.1,0.3-0.1,0.4v0.9h-0.4v-2h0.4V11.5z"/>
		<path d="M43,11.7c0-0.3-0.3-0.5-0.6-0.5c-0.5,0-0.8,0.3-0.8,0.8c0,0.5,0.3,0.8,0.8,0.8c0.3,0,0.6-0.1,0.6-0.5l0.4,0
			c0,0.1-0.1,0.3-0.2,0.4c-0.2,0.2-0.5,0.3-0.8,0.3c-0.6,0-1.1-0.4-1.1-1.1c0-0.7,0.5-1.1,1.1-1.1c0.3,0,0.6,0.1,0.8,0.3
			c0.1,0.1,0.1,0.3,0.2,0.4L43,11.7z"/>
		<path d="M46.3,12.2c0,0.5,0.3,0.7,0.7,0.7c0.2,0,0.4,0,0.5-0.2c0.1-0.1,0.1-0.1,0.1-0.2h0.4c0,0.2-0.1,0.3-0.3,0.4
			c-0.2,0.2-0.5,0.2-0.8,0.2c-0.7,0-1.1-0.3-1.1-1.1c0-0.3,0.1-0.5,0.3-0.7c0.3-0.2,0.6-0.3,0.9-0.3c0.4,0,0.8,0.2,0.9,0.5
			c0.1,0.2,0.1,0.4,0.1,0.6H46.3z M47.6,11.6c-0.1-0.2-0.3-0.3-0.6-0.3c-0.4,0-0.8,0.2-0.8,0.6h1.4C47.7,11.8,47.7,11.7,47.6,11.6z"
			/>
		<path d="M52.1,11.4c-0.1-0.1-0.3-0.1-0.4-0.1c-0.2,0-0.6,0-0.6,0.3c0,0.2,0.3,0.3,0.4,0.3l0.3,0c0.4,0.1,0.8,0.1,0.8,0.6
			c0,0.2-0.1,0.4-0.3,0.5c-0.2,0.1-0.5,0.1-0.7,0.1c-0.3,0-0.6,0-0.8-0.2c-0.1-0.1-0.1-0.3-0.2-0.4H51c0,0.1,0,0.2,0.1,0.2
			c0.1,0.1,0.3,0.2,0.5,0.2c0.2,0,0.6,0,0.6-0.3c0-0.3-0.3-0.3-0.5-0.3l-0.3,0c-0.3-0.1-0.8-0.1-0.8-0.6c0-0.2,0.1-0.4,0.3-0.5
			c0.2-0.1,0.4-0.1,0.7-0.1c0.2,0,0.5,0,0.7,0.2c0.1,0.1,0.2,0.3,0.2,0.4h-0.4C52.1,11.5,52.1,11.5,52.1,11.4z"/>
	</g>
	<g class="st1">
		<g>
			<path d="M54.7,11c0.3,0,0.6,0.3,0.6,0.6c0,0.4-0.3,0.6-0.6,0.6c-0.3,0-0.6-0.3-0.6-0.6C54.1,11.3,54.4,11,54.7,11L54.7,11z
				 M54.7,11.1c-0.3,0-0.5,0.2-0.5,0.5c0,0.3,0.2,0.5,0.5,0.5c0.3,0,0.5-0.2,0.5-0.5C55.2,11.3,55,11.1,54.7,11.1L54.7,11.1z
				 M54.6,12h-0.1v-0.7c0.1,0,0.1,0,0.2,0c0.1,0,0.2,0,0.2,0.1c0,0,0.1,0.1,0.1,0.1c0,0.1-0.1,0.1-0.1,0.2v0c0.1,0,0.1,0.1,0.1,0.2
				c0,0.1,0,0.1,0,0.2h-0.1c0,0,0-0.1,0-0.2c0-0.1-0.1-0.1-0.1-0.1h-0.1V12z M54.6,11.6L54.6,11.6c0.2,0,0.2,0,0.2-0.1
				c0-0.1,0-0.1-0.2-0.1c0,0-0.1,0-0.1,0V11.6z"/>
		</g>
	</g>
</g>
<g id="matador" class="st0">
	<g class="st1">
		<path class="st14" d="M2.2,2.8v5c0,0.4,0,0.8,0,1c0,0.2,0.1,0.3,0.1,0.4c0,0,0.1,0.1,0.2,0.1C2.8,9.4,3,9.6,3,9.8
			c0,0.2,0,0.3-0.1,0.4c-0.1,0.1-0.2,0.1-0.3,0.1H1.1c-0.2,0-0.3,0-0.3-0.1C0.7,10.1,0.7,10,0.7,9.9c0-0.2,0.1-0.4,0.3-0.5
			c0.1,0,0.1-0.1,0.1-0.1C1.2,9.2,1.2,9,1.3,8.8c0-0.2,0-0.7,0-1.4v-5c0-0.3,0-0.5,0-0.5c0-0.1-0.1-0.1-0.1-0.2c0,0-0.1,0-0.1-0.1
			C0.8,1.5,0.7,1.3,0.7,1.1c0-0.2,0-0.3,0.1-0.4c0.1-0.1,0.2-0.1,0.5-0.1h1.5c0.2,0,0.4,0,0.4,0.1C3.2,0.8,3.3,1,3.5,1.5l1.1,4.2
			l1.2-4.3C5.8,1,5.9,0.8,6,0.7C6,0.6,6.1,0.5,6.3,0.5h1.5c0.2,0,0.3,0,0.4,0.1c0.1,0.1,0.1,0.2,0.1,0.4c0,0.2-0.1,0.4-0.3,0.5
			c0,0-0.1,0-0.1,0c-0.1,0-0.1,0.1-0.2,0.2c0,0.1,0,0.2,0,0.4v6c0,0.3,0,0.6,0.1,0.7c0,0.1,0.1,0.3,0.2,0.3c0,0,0,0,0.1,0
			c0.2,0.1,0.2,0.3,0.2,0.5c0,0.2,0,0.3-0.1,0.4c-0.1,0.1-0.2,0.1-0.4,0.1H6c-0.1,0-0.2,0-0.3-0.1c-0.1-0.1-0.1-0.2-0.1-0.3
			c0-0.2,0.1-0.4,0.3-0.5c0.1,0,0.1-0.1,0.1-0.1C6,9.3,6,9.2,6.1,9c0-0.1,0-0.3,0-0.6V3L4.7,8.4C4.6,8.7,4.5,8.9,4.4,9
			C4.4,9.1,4.3,9.2,4.2,9.2C4,9.2,4,9.1,3.9,9C3.8,8.9,3.7,8.6,3.6,8.3L2.2,2.8z"/>
		<path class="st14" d="M10.1,7.7C10,8.2,9.9,8.6,9.9,8.8c0,0.2-0.1,0.4-0.1,0.5c0,0.1,0,0.2,0.1,0.3c0,0,0,0,0,0
			c0.1,0.1,0.1,0.2,0.2,0.2c0,0.1,0,0.1,0,0.2c0,0.1,0,0.2-0.1,0.2c0,0.1-0.1,0.1-0.1,0.1H8.9c-0.1,0-0.2,0-0.2-0.1
			c0-0.1-0.1-0.1-0.1-0.2c0-0.1,0-0.2,0.1-0.3c0.1-0.1,0.2-0.2,0.2-0.2C9,9.4,9.1,9,9.3,8.2c0.2-0.8,0.3-1.4,0.5-2
			c0.2-0.7,0.3-1.4,0.5-2c0.2-0.6,0.3-1.1,0.5-1.4l0-0.1c0.2-0.5,0.4-0.8,0.7-0.8c0.2,0,0.3,0,0.3,0.1c0.1,0.1,0.2,0.2,0.2,0.3
			c0.1,0.2,0.3,0.7,0.5,1.4c0.2,0.7,0.4,1.5,0.7,2.4c0.2,0.7,0.4,1.5,0.5,2.2c0.2,0.7,0.2,1.1,0.2,1.1c0,0,0.1,0.1,0.2,0.2
			c0.1,0.1,0.1,0.2,0.1,0.4c0,0.1,0,0.2-0.1,0.3c-0.1,0.1-0.1,0.1-0.3,0.1h-1.4c-0.1,0-0.2,0-0.2-0.1c0-0.1-0.1-0.1-0.1-0.3
			c0-0.1,0-0.3,0.1-0.4c0.1-0.1,0.1-0.2,0.1-0.3c0-0.1,0-0.3-0.1-0.6c-0.1-0.3-0.1-0.6-0.2-1H10.1z M10.3,6.7h1.5
			C11.7,6,11.5,5.5,11.4,5c-0.1-0.5-0.2-0.9-0.3-1.1c-0.1,0.4-0.3,0.9-0.4,1.3C10.6,5.7,10.5,6.2,10.3,6.7z"/>
		<path class="st14" d="M16.7,8.9c0,0.2,0,0.4,0,0.5c0,0.1,0,0.1,0.1,0.2c0,0,0.1,0,0.1,0.1c0.1,0.1,0.2,0.3,0.2,0.4
			c0,0.1,0,0.2-0.1,0.2c-0.1,0.1-0.1,0.1-0.3,0.1h-1.4c-0.1,0-0.2,0-0.3-0.1C15,10.2,15,10.1,15,10c0-0.1,0.1-0.3,0.2-0.4
			c0,0,0.1-0.1,0.1-0.1c0,0,0.1-0.1,0.1-0.2c0-0.1,0-0.2,0-0.4V3.1h-0.3c-0.2,0-0.3,0-0.4,0.1c-0.1,0.1-0.3,0.3-0.4,0.6c0,0,0,0,0,0
			C14.1,4,14,4.2,13.9,4.2c-0.1,0-0.1,0-0.2-0.1c0-0.1-0.1-0.2-0.1-0.3c0-0.1,0-0.1,0-0.1c0,0,0-0.1,0-0.1l0.1-0.9
			c0-0.2,0.1-0.3,0.1-0.4c0.1-0.1,0.1-0.1,0.3-0.1h3.7c0.1,0,0.2,0,0.3,0.1c0.1,0.1,0.1,0.2,0.1,0.4l0.1,0.9c0,0,0,0.1,0,0.1
			c0,0,0,0.1,0,0.1c0,0.1,0,0.2-0.1,0.3c0,0.1-0.1,0.1-0.2,0.1c-0.1,0-0.2-0.1-0.3-0.3c0,0,0,0,0-0.1c-0.2-0.3-0.3-0.4-0.4-0.5
			c-0.1-0.1-0.3-0.1-0.4-0.1h-0.3V8.9z"/>
		<path class="st14" d="M19.4,7.7c-0.1,0.5-0.2,0.9-0.2,1.1c0,0.2-0.1,0.4-0.1,0.5c0,0.1,0,0.2,0.1,0.3c0,0,0,0,0,0
			c0.1,0.1,0.1,0.2,0.2,0.2c0,0.1,0,0.1,0,0.2c0,0.1,0,0.2-0.1,0.2c0,0.1-0.1,0.1-0.1,0.1h-1.1c-0.1,0-0.2,0-0.2-0.1
			c0-0.1-0.1-0.1-0.1-0.2c0-0.1,0-0.2,0.1-0.3c0.1-0.1,0.2-0.2,0.2-0.2c0-0.1,0.1-0.5,0.3-1.2c0.2-0.8,0.3-1.4,0.5-2
			c0.2-0.7,0.3-1.4,0.5-2c0.2-0.6,0.3-1.1,0.5-1.4l0-0.1c0.2-0.5,0.4-0.8,0.7-0.8c0.2,0,0.3,0,0.3,0.1c0.1,0.1,0.2,0.2,0.2,0.3
			c0.1,0.2,0.3,0.7,0.5,1.4c0.2,0.7,0.4,1.5,0.7,2.4c0.2,0.7,0.4,1.5,0.5,2.2C23,9,23.1,9.4,23.1,9.4c0,0,0.1,0.1,0.2,0.2
			c0.1,0.1,0.1,0.2,0.1,0.4c0,0.1,0,0.2-0.1,0.3c-0.1,0.1-0.1,0.1-0.3,0.1h-1.4c-0.1,0-0.2,0-0.2-0.1c0-0.1-0.1-0.1-0.1-0.3
			c0-0.1,0-0.3,0.1-0.4c0.1-0.1,0.1-0.2,0.1-0.3c0-0.1,0-0.3-0.1-0.6c-0.1-0.3-0.1-0.6-0.2-1H19.4z M19.6,6.7h1.5
			C20.9,6,20.8,5.5,20.7,5c-0.1-0.5-0.2-0.9-0.3-1.1c-0.1,0.4-0.3,0.9-0.4,1.3C19.8,5.7,19.7,6.2,19.6,6.7z"/>
		<path class="st14" d="M24.2,9V3.7c0-0.2,0-0.3,0-0.4c0-0.1-0.1-0.1-0.1-0.2c0,0-0.1-0.1-0.1-0.1c-0.1-0.1-0.2-0.2-0.2-0.4
			c0-0.2,0.1-0.3,0.3-0.4c0.2-0.1,0.7-0.1,1.4-0.1c0.6,0,1,0,1.4,0.1c0.4,0.1,0.7,0.2,1,0.4C28.3,2.9,28.7,3.4,29,4
			c0.3,0.6,0.4,1.4,0.4,2.2c0,0.6-0.1,1.2-0.3,1.8c-0.2,0.6-0.4,1-0.7,1.4c-0.3,0.3-0.6,0.6-0.9,0.7c-0.3,0.1-0.8,0.2-1.3,0.2h-2
			c-0.1,0-0.2,0-0.3-0.1c-0.1-0.1-0.1-0.2-0.1-0.3c0-0.2,0.1-0.3,0.2-0.4c0,0,0.1,0,0.1,0c0,0,0.1-0.1,0.1-0.1
			C24.2,9.3,24.2,9.1,24.2,9z M25.6,8.9c0,0.2,0,0.4,0.1,0.5c0.1,0.1,0.2,0.1,0.3,0.1c0.6,0,1-0.3,1.4-0.9c0.4-0.6,0.5-1.4,0.5-2.3
			c0-1-0.2-1.8-0.5-2.4C27,3.3,26.6,3,26,3c-0.2,0-0.3,0-0.3,0.1c-0.1,0.1-0.1,0.2-0.1,0.5V8.9z"/>
		<path class="st14" d="M30,6.2C30,5.6,30,5,30.2,4.4c0.2-0.5,0.4-1,0.7-1.4c0.3-0.3,0.6-0.6,0.9-0.8c0.3-0.2,0.7-0.3,1.1-0.3
			c0.4,0,0.8,0.1,1.1,0.3c0.3,0.2,0.6,0.5,0.9,0.8c0.3,0.4,0.5,0.9,0.7,1.4c0.1,0.5,0.2,1.1,0.2,1.8c0,0.7-0.1,1.3-0.2,1.8
			c-0.1,0.5-0.4,1-0.7,1.4c-0.3,0.4-0.6,0.6-0.9,0.8c-0.3,0.2-0.7,0.3-1.1,0.3c-0.4,0-0.7-0.1-1.1-0.3c-0.3-0.2-0.6-0.5-0.9-0.8
			C30.6,9,30.3,8.5,30.2,8C30,7.5,30,6.9,30,6.2z M31.4,6.2c0,1.1,0.1,2,0.4,2.6c0.3,0.6,0.6,0.9,1.1,0.9c0.5,0,0.9-0.3,1.1-0.9
			c0.3-0.6,0.4-1.5,0.4-2.7c0-1.1-0.1-1.9-0.4-2.5c-0.3-0.6-0.6-0.9-1.1-0.9c-0.5,0-0.9,0.3-1.1,0.9C31.5,4.3,31.4,5.1,31.4,6.2z"/>
		<path class="st14" d="M39.4,2.1c0.6,0,1.1,0.2,1.4,0.5c0.3,0.3,0.5,0.8,0.5,1.5c0,0.5-0.1,0.9-0.3,1.2c-0.2,0.3-0.4,0.6-0.8,0.8
			c0.3,0.7,0.5,1.5,0.7,2.2c0.2,0.8,0.3,1.1,0.3,1.1c0,0,0.1,0.1,0.2,0.2c0.1,0.1,0.2,0.2,0.2,0.4c0,0.1,0,0.2-0.1,0.3
			c0,0.1-0.1,0.1-0.3,0.1h-1.5c-0.1,0-0.2,0-0.2-0.1c-0.1-0.1-0.1-0.1-0.1-0.2c0-0.1,0-0.2,0-0.2c0-0.1,0.1-0.1,0.1-0.2c0,0,0,0,0,0
			c0.1,0,0.1-0.1,0.1-0.3c0-0.2-0.1-0.6-0.2-1.1c-0.1-0.5-0.3-1-0.6-1.6c-0.1,0-0.3,0.1-0.4,0.1c-0.2,0-0.3,0-0.5,0l0,2.4
			c0,0.1,0,0.2,0,0.2c0,0,0.1,0.1,0.2,0.1c0.1,0,0.1,0.1,0.2,0.1c0,0.1,0,0.1,0,0.2c0,0.1,0,0.2-0.1,0.3c0,0-0.1,0.1-0.3,0.1h-1.5
			c-0.1,0-0.2,0-0.2-0.1c-0.1-0.1-0.1-0.1-0.1-0.3c0-0.1,0-0.2,0-0.2c0-0.1,0.1-0.1,0.2-0.2c0.1-0.1,0.1-0.1,0.2-0.2
			c0-0.1,0-0.3,0-0.5V3.5c0-0.2,0-0.4,0-0.4c0-0.1-0.1-0.1-0.2-0.2c-0.1-0.1-0.1-0.1-0.2-0.2c0-0.1,0-0.1,0-0.2c0-0.1,0-0.2,0.1-0.3
			c0.1-0.1,0.1-0.1,0.2-0.1H39.4z M38.1,5.8c0.6,0,1.1-0.2,1.4-0.5C39.8,5.1,40,4.7,40,4.2c0-0.4-0.1-0.7-0.3-0.9
			c-0.2-0.2-0.5-0.3-0.9-0.3c-0.3,0-0.5,0-0.6,0.1c-0.1,0.1-0.1,0.3-0.1,0.5L38.1,5.8z"/>
		<g>
			<path class="st14" d="M0.4,15c0-0.3,0-0.6,0.1-0.9c0.1-0.3,0.1-0.6,0.3-0.8c0.2-0.4,0.4-0.7,0.7-0.9c0.3-0.2,0.6-0.3,0.9-0.3
				c0.2,0,0.5,0,0.7,0.1c0.2,0.1,0.4,0.2,0.6,0.4c0.1,0.1,0.1,0.1,0.1,0.3c0,0.1,0,0.4,0,0.7c0,0.1,0,0.2,0,0.3
				c0,0.1-0.1,0.1-0.1,0.1c-0.1,0-0.2-0.1-0.2-0.3c0-0.1,0-0.1,0-0.1c-0.1-0.3-0.2-0.5-0.4-0.6c-0.2-0.2-0.4-0.2-0.6-0.2
				c-0.3,0-0.6,0.2-0.8,0.6c-0.2,0.4-0.3,1-0.3,1.6c0,0.7,0.1,1.2,0.3,1.6c0.2,0.4,0.5,0.6,0.8,0.6c0.2,0,0.3,0,0.4-0.1
				C3,17,3.2,16.8,3.3,16.6c0,0,0.1-0.1,0.1-0.1c0.1-0.2,0.2-0.2,0.2-0.2c0,0,0.1,0,0.1,0.1c0,0.1,0,0.1,0,0.2c0,0.1,0,0.1,0,0.2
				c0,0.1-0.1,0.2-0.1,0.3c-0.2,0.3-0.4,0.5-0.6,0.6c-0.2,0.1-0.5,0.2-0.8,0.2c-0.2,0-0.4,0-0.6-0.1c-0.2-0.1-0.4-0.2-0.5-0.4
				c-0.2-0.3-0.4-0.6-0.6-1C0.4,16,0.4,15.5,0.4,15z"/>
			<path class="st14" d="M4.9,16.2c-0.1,0.3-0.1,0.5-0.1,0.6c0,0.1,0,0.2,0,0.3c0,0.1,0,0.1,0.1,0.1c0,0,0,0,0,0
				c0,0,0.1,0.1,0.1,0.1c0,0,0,0.1,0,0.1c0,0.1,0,0.1,0,0.1c0,0,0,0.1-0.1,0.1H4.2c0,0-0.1,0-0.1,0c0,0,0-0.1,0-0.1
				c0-0.1,0-0.1,0.1-0.2c0.1-0.1,0.1-0.1,0.1-0.1c0,0,0.1-0.3,0.2-0.7c0.1-0.4,0.2-0.8,0.3-1.1C4.8,15,4.9,14.6,5,14.3
				c0.1-0.3,0.2-0.6,0.3-0.8l0,0C5.3,13.1,5.5,13,5.6,13c0.1,0,0.1,0,0.2,0c0,0,0.1,0.1,0.1,0.2C6,13.3,6.1,13.6,6.2,14
				c0.1,0.4,0.2,0.8,0.4,1.3c0.1,0.4,0.2,0.8,0.3,1.2C6.9,16.9,7,17.2,7,17.2c0,0,0,0.1,0.1,0.1c0.1,0.1,0.1,0.1,0.1,0.2
				c0,0.1,0,0.1,0,0.1c0,0-0.1,0-0.1,0H6.2c-0.1,0-0.1,0-0.1-0.1c0,0,0-0.1,0-0.1c0-0.1,0-0.1,0.1-0.2c0.1-0.1,0.1-0.1,0.1-0.2
				c0-0.1,0-0.2,0-0.3c0-0.2-0.1-0.4-0.1-0.6H4.9z M5,15.6h0.8c-0.1-0.4-0.2-0.7-0.2-0.9c-0.1-0.3-0.1-0.5-0.2-0.6
				c-0.1,0.2-0.1,0.5-0.2,0.7C5.2,15.1,5.1,15.3,5,15.6z"/>
			<path class="st14" d="M8.6,16.9c0,0.1,0,0.2,0,0.3c0,0,0,0.1,0,0.1c0,0,0,0,0,0c0.1,0.1,0.1,0.1,0.1,0.2c0,0.1,0,0.1,0,0.1
				c0,0-0.1,0-0.1,0H7.8c-0.1,0-0.1,0-0.1,0c0,0,0-0.1,0-0.1c0-0.1,0-0.2,0.1-0.2c0,0,0,0,0,0c0,0,0-0.1,0-0.1c0,0,0-0.1,0-0.2v-3.3
				H7.7c-0.1,0-0.2,0-0.2,0.1c-0.1,0.1-0.1,0.2-0.2,0.3c0,0,0,0,0,0c-0.1,0.1-0.1,0.2-0.2,0.2c0,0-0.1,0-0.1-0.1c0,0,0-0.1,0-0.2
				c0,0,0-0.1,0-0.1c0,0,0,0,0,0L7,13.4c0-0.1,0-0.2,0.1-0.2c0,0,0.1-0.1,0.1-0.1h2.1c0.1,0,0.1,0,0.1,0.1c0,0,0.1,0.1,0.1,0.2
				l0.1,0.5c0,0,0,0,0,0c0,0,0,0,0,0.1c0,0.1,0,0.1,0,0.2c0,0-0.1,0.1-0.1,0.1c-0.1,0-0.1-0.1-0.2-0.2c0,0,0,0,0,0
				c-0.1-0.2-0.2-0.3-0.2-0.3c-0.1-0.1-0.1-0.1-0.2-0.1H8.6V16.9z"/>
			<path class="st14" d="M11.2,16.9c0,0.1,0,0.2,0,0.3c0,0,0,0.1,0,0.1c0,0,0,0,0,0c0.1,0.1,0.1,0.1,0.1,0.2c0,0.1,0,0.1,0,0.1
				c0,0-0.1,0-0.1,0h-0.8c-0.1,0-0.1,0-0.1,0c0,0,0-0.1,0-0.1c0-0.1,0-0.2,0.1-0.2c0,0,0,0,0,0c0,0,0-0.1,0-0.1c0,0,0-0.1,0-0.2
				v-3.3h-0.2c-0.1,0-0.2,0-0.2,0.1C10,13.7,9.9,13.8,9.8,14c0,0,0,0,0,0c-0.1,0.1-0.1,0.2-0.2,0.2c0,0-0.1,0-0.1-0.1
				c0,0,0-0.1,0-0.2c0,0,0-0.1,0-0.1c0,0,0,0,0,0l0.1-0.5c0-0.1,0-0.2,0.1-0.2c0,0,0.1-0.1,0.1-0.1h2.1c0.1,0,0.1,0,0.1,0.1
				c0,0,0.1,0.1,0.1,0.2l0.1,0.5c0,0,0,0,0,0c0,0,0,0,0,0.1c0,0.1,0,0.1,0,0.2c0,0-0.1,0.1-0.1,0.1c-0.1,0-0.1-0.1-0.2-0.2
				c0,0,0,0,0,0c-0.1-0.2-0.2-0.3-0.2-0.3c-0.1-0.1-0.1-0.1-0.2-0.1h-0.2V16.9z"/>
			<path class="st14" d="M12.5,17.7c-0.1,0-0.1,0-0.1,0c0,0,0-0.1,0-0.1c0-0.1,0-0.2,0.1-0.2c0,0,0,0,0,0c0,0,0.1-0.1,0.1-0.1
				c0,0,0-0.1,0-0.2v-3.3c0,0,0-0.1,0-0.1c0,0,0,0,0-0.1c0,0,0,0,0,0c-0.1-0.1-0.1-0.1-0.1-0.2c0-0.1,0-0.1,0.1-0.2
				c0,0,0.1-0.1,0.2-0.1h0.9c0.1,0,0.1,0,0.1,0.1c0,0,0,0.1,0,0.2c0,0.1,0,0.2-0.1,0.2c0,0,0,0,0,0c0,0-0.1,0.1-0.1,0.1
				c0,0,0,0.1,0,0.2v3c0,0.1,0,0.2,0.1,0.3c0,0,0.1,0.1,0.3,0.1c0.2,0,0.3,0,0.4-0.1c0.1,0,0.2-0.1,0.2-0.2c0,0,0.1-0.1,0.1-0.2
				c0.1-0.1,0.1-0.2,0.2-0.2c0,0,0.1,0,0.1,0.1c0,0,0,0.1,0,0.2c0,0.1,0,0.1,0,0.2c0,0.1,0,0.2-0.1,0.3c0,0.1-0.1,0.2-0.1,0.3
				c0,0-0.1,0.1-0.1,0.1H12.5z"/>
			<path class="st14" d="M16.6,17.2c0.2,0,0.3,0,0.4,0c0.1,0,0.1-0.1,0.2-0.2c0,0,0-0.1,0.1-0.1c0.1-0.1,0.1-0.2,0.2-0.2
				c0,0,0.1,0,0.1,0.1c0,0,0,0.1,0,0.2c0,0.3,0,0.6-0.1,0.7c0,0.1-0.1,0.1-0.3,0.1h-2.2c0,0-0.1,0-0.1,0c0,0,0-0.1,0-0.1
				c0,0,0-0.1,0-0.1c0,0,0-0.1,0.1-0.1c0,0,0.1-0.1,0.1-0.1c0,0,0-0.1,0-0.1v0v-3.3c0-0.1,0-0.1,0-0.1c0,0,0-0.1-0.1-0.1
				c0,0,0,0,0,0C15,13.4,15,13.3,15,13.3c0-0.1,0-0.1,0-0.2c0,0,0.1,0,0.1,0H17c0.2,0,0.3,0,0.3,0.1c0,0.1,0.1,0.3,0.1,0.6
				c0,0.1,0,0.1,0,0.2c0,0,0,0.1-0.1,0.1c-0.1,0-0.1-0.1-0.2-0.2c0-0.1-0.1-0.1-0.1-0.1c-0.1-0.1-0.1-0.1-0.2-0.1
				c-0.1,0-0.2,0-0.4,0h-0.3c-0.1,0-0.1,0-0.2,0.1c0,0.1,0,0.2,0,0.4v0.9h0.7c0,0,0.1,0,0.1,0c0,0,0.1,0,0.1,0c0,0,0,0,0,0
				c0.1-0.1,0.1-0.1,0.1-0.1c0,0,0.1,0,0.1,0.1c0,0,0,0.1,0,0.2v0.4c0,0.1,0,0.2,0,0.2c0,0-0.1,0.1-0.1,0.1c0,0-0.1,0-0.1-0.1
				c-0.1-0.1-0.2-0.1-0.2-0.1h-0.7v1.5c0,0.1,0,0.2,0,0.2c0,0,0.1,0,0.2,0H16.6z"/>
			<path class="st14" d="M19.2,15c0-0.3,0-0.6,0.1-0.9c0.1-0.3,0.1-0.6,0.3-0.8c0.2-0.4,0.4-0.7,0.7-0.9c0.3-0.2,0.6-0.3,0.9-0.3
				c0.2,0,0.5,0,0.7,0.1c0.2,0.1,0.4,0.2,0.6,0.4c0.1,0.1,0.1,0.1,0.1,0.3c0,0.1,0,0.4,0,0.7c0,0.1,0,0.2,0,0.3
				c0,0.1-0.1,0.1-0.1,0.1c-0.1,0-0.2-0.1-0.2-0.3c0-0.1,0-0.1,0-0.1c-0.1-0.3-0.2-0.5-0.4-0.6c-0.2-0.2-0.4-0.2-0.6-0.2
				c-0.3,0-0.6,0.2-0.8,0.6c-0.2,0.4-0.3,1-0.3,1.6c0,0.7,0.1,1.2,0.3,1.6c0.2,0.4,0.5,0.6,0.8,0.6c0.2,0,0.3,0,0.4-0.1
				c0.1-0.1,0.3-0.2,0.4-0.4c0,0,0.1-0.1,0.1-0.1c0.1-0.2,0.2-0.2,0.2-0.2c0,0,0.1,0,0.1,0.1c0,0.1,0,0.1,0,0.2c0,0.1,0,0.1,0,0.2
				c0,0.1-0.1,0.2-0.1,0.3c-0.2,0.3-0.4,0.5-0.6,0.6c-0.2,0.1-0.5,0.2-0.8,0.2c-0.2,0-0.4,0-0.6-0.1c-0.2-0.1-0.4-0.2-0.5-0.4
				c-0.2-0.3-0.4-0.6-0.6-1C19.3,16,19.2,15.5,19.2,15z"/>
			<path class="st14" d="M23.1,15.4c0-0.4,0-0.7,0.1-1c0.1-0.3,0.2-0.6,0.4-0.8c0.1-0.2,0.3-0.3,0.5-0.4c0.2-0.1,0.4-0.2,0.6-0.2
				c0.2,0,0.4,0.1,0.6,0.2c0.2,0.1,0.4,0.3,0.5,0.5c0.2,0.2,0.3,0.5,0.4,0.8c0.1,0.3,0.1,0.6,0.1,1c0,0.4,0,0.7-0.1,1
				c-0.1,0.3-0.2,0.6-0.4,0.8c-0.2,0.2-0.3,0.4-0.5,0.5c-0.2,0.1-0.4,0.2-0.6,0.2c-0.2,0-0.4-0.1-0.6-0.2c-0.2-0.1-0.4-0.3-0.5-0.5
				c-0.2-0.2-0.3-0.5-0.4-0.8C23.1,16.1,23.1,15.8,23.1,15.4z M23.9,15.4c0,0.6,0.1,1.1,0.2,1.4c0.1,0.3,0.4,0.5,0.6,0.5
				c0.3,0,0.5-0.2,0.6-0.5c0.1-0.3,0.2-0.8,0.2-1.5c0-0.6-0.1-1.1-0.2-1.4c-0.1-0.3-0.4-0.5-0.6-0.5c-0.3,0-0.5,0.2-0.6,0.5
				C23.9,14.3,23.9,14.8,23.9,15.4z"/>
			<path class="st14" d="M27.4,14.1v2.4c0,0.2,0,0.4,0,0.5c0,0.1,0,0.1,0.1,0.2c0,0,0.1,0,0.1,0.1c0.1,0.1,0.2,0.1,0.2,0.3
				c0,0.1,0,0.1,0,0.2c0,0-0.1,0.1-0.2,0.1h-0.7c-0.1,0-0.1,0-0.2-0.1c0,0-0.1-0.1-0.1-0.2c0-0.1,0-0.2,0.1-0.2c0,0,0.1,0,0.1,0
				c0,0,0.1-0.1,0.1-0.2c0-0.1,0-0.3,0-0.7V14c0-0.1,0-0.2,0-0.3c0,0,0-0.1-0.1-0.1c0,0,0,0-0.1,0c-0.1-0.1-0.2-0.1-0.2-0.2
				c0-0.1,0-0.2,0.1-0.2c0,0,0.1-0.1,0.2-0.1h0.7c0.1,0,0.2,0,0.2,0.1c0,0,0.1,0.2,0.1,0.4l0.5,2l0.6-2c0-0.2,0.1-0.3,0.1-0.3
				c0,0,0.1-0.1,0.1-0.1H30c0.1,0,0.2,0,0.2,0.1c0,0,0.1,0.1,0.1,0.2c0,0.1,0,0.2-0.1,0.2c0,0,0,0,0,0c0,0-0.1,0.1-0.1,0.1
				c0,0,0,0.1,0,0.2v2.8c0,0.2,0,0.3,0,0.3c0,0.1,0.1,0.1,0.1,0.2c0,0,0,0,0,0c0.1,0.1,0.1,0.1,0.1,0.2c0,0.1,0,0.1-0.1,0.2
				c0,0-0.1,0.1-0.2,0.1h-0.8c-0.1,0-0.1,0-0.1,0c0,0,0-0.1,0-0.1c0-0.1,0-0.2,0.1-0.2c0,0,0,0,0.1,0c0,0,0-0.1,0.1-0.1
				c0-0.1,0-0.2,0-0.3v-2.6l-0.7,2.5c0,0.1-0.1,0.2-0.1,0.3c0,0.1-0.1,0.1-0.1,0.1c-0.1,0-0.1,0-0.1-0.1c0-0.1-0.1-0.2-0.1-0.3
				L27.4,14.1z"/>
			<path class="st14" d="M31.5,16v1c0,0.1,0,0.2,0,0.2c0,0,0,0.1,0.1,0.1c0,0,0,0,0,0c0.1,0.1,0.1,0.1,0.1,0.2c0,0.1,0,0.1,0,0.2
				c0,0-0.1,0-0.2,0h-0.9c0,0-0.1,0-0.1,0c0,0,0-0.1,0-0.1c0-0.1,0-0.1,0.1-0.2c0,0,0,0,0,0c0,0,0-0.1,0.1-0.1c0,0,0-0.1,0-0.2v-0.1
				v-3c0-0.1,0-0.2,0-0.3c0,0,0-0.1-0.1-0.1c0,0,0,0,0,0c-0.1-0.1-0.1-0.1-0.1-0.2c0-0.1,0-0.1,0-0.2c0,0,0.1-0.1,0.1-0.1H32
				c0.4,0,0.6,0.1,0.9,0.3c0.2,0.2,0.3,0.5,0.3,0.9c0,0.5-0.1,0.9-0.4,1.2C32.4,15.8,32,15.9,31.5,16z M31.5,15.5
				c0.3,0,0.5-0.1,0.6-0.3c0.2-0.2,0.2-0.4,0.2-0.7c0-0.3-0.1-0.5-0.2-0.6c-0.1-0.1-0.3-0.2-0.5-0.2c-0.1,0-0.2,0-0.2,0
				c0,0,0,0.1,0,0.3V15.5z"/>
			<path class="st14" d="M33.7,16.2c-0.1,0.3-0.1,0.5-0.1,0.6c0,0.1,0,0.2,0,0.3c0,0.1,0,0.1,0.1,0.1c0,0,0,0,0,0
				c0,0,0.1,0.1,0.1,0.1c0,0,0,0.1,0,0.1c0,0.1,0,0.1,0,0.1c0,0,0,0.1-0.1,0.1H33c0,0-0.1,0-0.1,0c0,0,0-0.1,0-0.1
				c0-0.1,0-0.1,0.1-0.2c0.1-0.1,0.1-0.1,0.1-0.1c0,0,0.1-0.3,0.2-0.7c0.1-0.4,0.2-0.8,0.3-1.1c0.1-0.4,0.2-0.8,0.3-1.1
				c0.1-0.3,0.2-0.6,0.3-0.8l0,0c0.1-0.3,0.2-0.5,0.4-0.5c0.1,0,0.1,0,0.2,0c0,0,0.1,0.1,0.1,0.2c0.1,0.1,0.1,0.4,0.3,0.8
				c0.1,0.4,0.2,0.8,0.4,1.3c0.1,0.4,0.2,0.8,0.3,1.2c0.1,0.4,0.1,0.6,0.1,0.6c0,0,0,0.1,0.1,0.1c0.1,0.1,0.1,0.1,0.1,0.2
				c0,0.1,0,0.1,0,0.1c0,0-0.1,0-0.1,0H35c-0.1,0-0.1,0-0.1-0.1c0,0,0-0.1,0-0.1c0-0.1,0-0.1,0.1-0.2c0.1-0.1,0.1-0.1,0.1-0.2
				c0-0.1,0-0.2,0-0.3c0-0.2-0.1-0.4-0.1-0.6H33.7z M33.8,15.6h0.8c-0.1-0.4-0.2-0.7-0.2-0.9c-0.1-0.3-0.1-0.5-0.2-0.6
				c-0.1,0.2-0.1,0.5-0.2,0.7C34,15.1,33.9,15.3,33.8,15.6z"/>
			<path class="st14" d="M36.8,14.2v2.6c0,0.1,0,0.2,0,0.3c0,0,0,0.1,0.1,0.1c0,0,0,0,0.1,0c0.1,0,0.1,0.1,0.1,0.2
				c0,0.1,0,0.1,0,0.2c0,0-0.1,0-0.1,0h-0.7c-0.1,0-0.1,0-0.1,0c0,0,0-0.1,0-0.1c0-0.1,0-0.2,0.1-0.2c0.1,0,0.1-0.1,0.1-0.1
				c0,0,0.1-0.1,0.1-0.2c0-0.1,0-0.2,0-0.4v-2.8c0-0.1,0-0.2,0-0.2c0,0,0-0.1-0.1-0.1c0,0,0,0-0.1,0c-0.1,0-0.1-0.1-0.1-0.2
				c0-0.1,0-0.1,0-0.1c0,0,0.1,0,0.1,0h0.7c0.1,0,0.2,0.1,0.4,0.3c0,0,0,0,0,0.1c0.2,0.3,0.4,0.7,0.6,1.2c0.2,0.4,0.4,0.9,0.7,1.5
				v-2.2c0-0.1,0-0.2,0-0.2c0-0.1,0-0.1-0.1-0.1c0,0,0,0-0.1-0.1c-0.1-0.1-0.1-0.1-0.1-0.2c0-0.1,0-0.1,0-0.2c0,0,0.1-0.1,0.1-0.1
				h0.6c0.1,0,0.1,0,0.1,0.1c0,0,0,0.1,0,0.2c0,0.1,0,0.2-0.1,0.2c0,0,0,0-0.1,0c0,0-0.1,0.1-0.1,0.1c0,0.1,0,0.2,0,0.3v3.3
				c0,0.2,0,0.3-0.1,0.4c0,0.1-0.1,0.1-0.2,0.1c-0.1,0-0.2,0-0.2,0c0,0-0.1-0.1-0.1-0.1c0,0-0.1-0.1-0.1-0.3
				C37.8,16.3,37.4,15.2,36.8,14.2z"/>
			<path class="st14" d="M40.5,15.9c-0.3-0.6-0.6-1.2-0.9-1.9c0-0.1,0-0.1,0-0.1c0-0.1-0.1-0.2-0.2-0.2c-0.1-0.1-0.1-0.2-0.1-0.2
				c0-0.1,0-0.1,0.1-0.2c0,0,0.1-0.1,0.2-0.1h0.7c0.1,0,0.1,0,0.2,0.1c0,0,0.1,0.1,0.1,0.2c0,0.1,0,0.1-0.1,0.2
				c-0.1,0.1-0.1,0.1-0.1,0.1c0,0.1,0.1,0.3,0.2,0.6c0.1,0.3,0.3,0.7,0.5,1c0.2-0.3,0.3-0.7,0.4-0.9c0.1-0.3,0.2-0.5,0.2-0.6
				c0-0.1,0-0.1-0.1-0.2c0,0,0,0,0,0c0,0-0.1-0.1-0.1-0.1c0,0,0-0.1,0-0.1c0-0.1,0-0.1,0.1-0.2c0,0,0.1-0.1,0.2-0.1h0.5
				c0.1,0,0.1,0,0.1,0.1c0,0,0,0.1,0,0.2c0,0.1,0,0.2-0.1,0.2c-0.1,0.1-0.1,0.1-0.1,0.1c0,0,0,0.1-0.1,0.2c-0.2,0.7-0.5,1.3-0.8,1.9
				v1.1c0,0.1,0,0.2,0,0.2c0,0,0,0.1,0.1,0.1c0,0,0,0,0.1,0c0.1,0.1,0.1,0.1,0.1,0.2c0,0.1,0,0.1-0.1,0.2c0,0-0.1,0.1-0.2,0.1h-0.8
				c-0.1,0-0.1,0-0.2-0.1c0,0,0-0.1,0-0.2c0-0.1,0-0.2,0.1-0.3c0,0,0,0,0,0c0,0,0,0,0.1-0.1c0,0,0-0.1,0-0.2V15.9z"/>
		</g>
	</g>
</g>
</svg>
