<?xml version="1.0" encoding="utf-8"?>
<!-- Generator: Adobe Illustrator 19.1.0, SVG Export Plug-In . SVG Version: 6.00 Build 0)  -->
<!DOCTYPE svg PUBLIC "-//W3C//DTD SVG 1.1//EN" "http://www.w3.org/Graphics/SVG/1.1/DTD/svg11.dtd">
<svg version="1.1" xmlns="http://www.w3.org/2000/svg" xmlns:xlink="http://www.w3.org/1999/xlink" x="0px" y="0px"
	 viewBox="0 0 77.1 24.7" style="enable-background:new 0 0 77.1 24.7;" xml:space="preserve">
<style type="text/css">
	.st0{display:none;}
	.st1{display:inline;}
	.st2{fill:#231F20;}
	.st3{fill-rule:evenodd;clip-rule:evenodd;fill:#231F20;}
	.st4{fill-rule:evenodd;clip-rule:evenodd;fill:#0099D8;}
	.st5{fill-rule:evenodd;clip-rule:evenodd;}
	.st6{fill:#0099D8;}
	.st7{fill:none;}
	.st8{fill:#FFFFFF;}
	.st9{fill-rule:evenodd;clip-rule:evenodd;fill:#FFFFFF;}
	.st10{fill:#54B948;}
	.st11{fill:#636466;}
</style>
<g id="chemtech_logos" class="st0">
	<g id="heat_transfer">
		<g class="st1">
			<g>
				<path class="st2" d="M32.2,3.6h0.5l1.6-2.4h2.1l-2.2,3.1l2.4,3.2h-2.1l-1.8-2.5h-0.5v2.5h-1.7V1.2h1.7V3.6z"/>
				<path class="st2" d="M36.7,5.3V3.5c0-2,1.2-2.3,2.9-2.3c1.7,0,2.9,0.4,2.9,2.3v1.8c0,2-1.2,2.3-2.9,2.3
					C37.9,7.6,36.7,7.3,36.7,5.3z M40.8,5.1V3.7c0-0.9-0.3-1-1.2-1c-0.9,0-1.2,0.1-1.2,1v1.4c0,1,0.3,1,1.2,1
					C40.5,6.2,40.8,6.1,40.8,5.1z"/>
				<path class="st2" d="M48.8,5.2v0.2c0,0.7,0,1.3-0.6,1.8c-0.6,0.5-1.3,0.5-2,0.5c-1.7,0-3-0.1-3-2.4V3.6c0-2.1,1.1-2.4,3-2.4
					c1.8,0,2.6,0.2,2.6,2.1v0.2H47V3.3c-0.1-0.6-0.5-0.6-1-0.6c-1,0-1.1,0.3-1.1,1.2v1c0,1,0,1.3,1.1,1.3c0.7,0,1-0.1,1-0.8V5.2
					H48.8z"/>
				<path class="st2" d="M55.2,7.6h-1.7V5.1h-2.2v2.5h-1.7V1.2h1.7v2.4h2.2V1.2h1.7V7.6z"/>
				<path class="st2" d="M65,7.6h-1.7V5.1H61v2.5h-1.7V1.2H61v2.4h2.2V1.2H65V7.6z"/>
				<path class="st2" d="M67.7,3.8h2.7V5h-2.7v1.2h3v1.4H66V1.2h4.6v1.4h-2.9V3.8z"/>
			</g>
			<g>
				<path class="st2" d="M73.2,6.5l-0.3,1.1h-1.8l1.9-6.4h2.6l1.9,6.4h-1.7l-0.3-1.1H73.2z M74.4,2.5L74.4,2.5l-0.8,2.8h1.6
					L74.4,2.5z"/>
				<path class="st2" d="M80.6,7.6h-1.7V2.7h-1.6V1.2h5v1.5h-1.7V7.6z"/>
			</g>
			<g>
				<path class="st2" d="M88.7,7.6H87V2.7h-1.6V1.2h5v1.5h-1.7V7.6z"/>
				<path class="st2" d="M90.9,1.2h3.3c1.5,0,2.2,0.3,2.2,1.9c0,1.1,0,1.7-1.2,2v0.1c0.7,0,1.1,0.4,1.1,1.1v1.3h-1.7V6.7
					c0-0.5-0.2-0.8-0.7-0.8h-1.3v1.7h-1.7V1.2z M93.9,4.4c0.7,0,0.7-0.3,0.7-1c0-0.6-0.1-0.7-0.7-0.7h-1.3v1.7H93.9z"/>
				<path class="st2" d="M98.7,6.5l-0.3,1.1h-1.8l1.9-6.4h2.6l1.9,6.4h-1.7L101,6.5H98.7z M99.9,2.5L99.9,2.5l-0.8,2.8h1.6L99.9,2.5
					z"/>
				<path class="st2" d="M105.2,7.6h-1.7V1.2h2.9l1.8,4.9h0.1l-0.1-4.9h1.7v6.4h-2.9l-1.8-4.9h-0.1L105.2,7.6z"/>
				<path class="st2" d="M113.8,3.7c1.9,0.1,2.4,0.4,2.4,1.8c0,1.1,0,2.1-2.8,2.1c-1.6,0-2.7,0-2.7-2.1h1.6c0,0.7,0.2,0.7,1.1,0.7
					c0.8,0,1.1-0.1,1.1-0.6c0-0.6-0.1-0.5-0.9-0.6l-0.4,0c-1.6-0.1-2.5-0.1-2.5-1.9s1-1.9,2.7-1.9c1.4,0,2.6,0,2.6,1.8v0.3h-1.6
					c0-0.7-0.3-0.7-1-0.7c-0.9,0-1,0.2-1,0.5c0,0.5,0.2,0.5,0.7,0.6L113.8,3.7z"/>
				<path class="st2" d="M118.6,3.9h2.6v1.4h-2.6v2.3h-1.7V1.2h4.5v1.4h-2.8V3.9z"/>
				<path class="st2" d="M123.9,3.8h2.7V5h-2.7v1.2h3v1.4h-4.7V1.2h4.6v1.4h-2.9V3.8z"/>
				<path class="st2" d="M127.9,1.2h3.3c1.5,0,2.2,0.3,2.2,1.9c0,1.1,0,1.7-1.2,2v0.1c0.7,0,1.1,0.4,1.1,1.1v1.3h-1.7V6.7
					c0-0.5-0.2-0.8-0.7-0.8h-1.3v1.7h-1.7V1.2z M130.9,4.4c0.7,0,0.7-0.3,0.7-1c0-0.6-0.1-0.7-0.7-0.7h-1.3v1.7H130.9z"/>
			</g>
			<g>
				<path class="st2" d="M35.9,14.4v0.2c0,0.7,0,1.3-0.6,1.8c-0.6,0.5-1.3,0.5-2,0.5c-1.7,0-3-0.1-3-2.4v-1.6c0-2.1,1.1-2.4,3-2.4
					c1.8,0,2.6,0.2,2.6,2.1v0.2h-1.8v-0.2c-0.1-0.6-0.5-0.6-1-0.6c-1,0-1.1,0.3-1.1,1.2v1c0,1,0,1.3,1.1,1.3c0.7,0,1-0.1,1-0.8v-0.2
					H35.9z"/>
				<path class="st2" d="M36.5,14.5v-1.8c0-2,1.2-2.3,2.9-2.3c1.7,0,2.9,0.4,2.9,2.3v1.8c0,2-1.2,2.3-2.9,2.3
					C37.7,16.8,36.5,16.5,36.5,14.5z M40.6,14.3v-1.4c0-0.9-0.3-1-1.2-1c-0.9,0-1.2,0.1-1.2,1v1.4c0,1,0.3,1,1.2,1
					C40.3,15.4,40.6,15.3,40.6,14.3z"/>
				<path class="st2" d="M44.9,16.8h-1.7v-6.4h2.7l1.2,4h0.1l1.2-4h2.8v6.4h-1.7l0.2-4.9h-0.1l-1.6,4.9h-1.5l-1.6-4.9h-0.1
					L44.9,16.8z"/>
				<path class="st2" d="M52.1,16.8v-6.4h3.2c1.6,0,2.2,0.7,2.2,2.3c0,1.8-0.4,2.4-2.2,2.4h-1.5v1.6H52.1z M54.9,13.7
					c0.7,0,0.8-0.1,0.8-0.9c0-0.7-0.1-0.9-0.8-0.9h-1.2v1.8H54.9z"/>
			</g>
			<g>
				<path class="st2" d="M59.4,15.7l-0.3,1.1h-1.8l1.9-6.4h2.6l1.9,6.4H62l-0.3-1.1H59.4z M60.6,11.7L60.6,11.7l-0.8,2.8h1.6
					L60.6,11.7z"/>
				<path class="st2" d="M65.9,16.8h-1.7v-6.4H67l1.8,4.9h0.1l-0.1-4.9h1.7v6.4h-2.9l-1.8-4.9h-0.1L65.9,16.8z"/>
				<path class="st2" d="M74.9,14.5v2.2h-1.7v-2.2l-2.3-4.1h1.9l1.1,2.5h0.1l1.2-2.5h2L74.9,14.5z"/>
				<path class="st2" d="M82.3,15.3H85v1.5h-4.4v-6.4h1.7V15.3z"/>
				<path class="st2" d="M85.6,16.8v-6.4h3.2c1.6,0,2.2,0.7,2.2,2.3c0,1.8-0.4,2.4-2.2,2.4h-1.5v1.6H85.6z M88.5,13.7
					c0.7,0,0.8-0.1,0.8-0.9c0-0.7-0.1-0.9-0.8-0.9h-1.2v1.8H88.5z"/>
			</g>
			<path class="st2" d="M27,15.6l-0.4,1.1l-0.4-1.1h-0.4v1.5h0.3v-1.2l0.4,1.2h0.2l0.4-1.2v1.2h0.3v-1.5H27L27,15.6z M24.3,15.6v0.2
				h0.5v1.2h0.3v-1.2h0.5v-0.2H24.3L24.3,15.6z"/>
			<path class="st3" d="M11.6,0.7L11.6,0.7H0.8v16.4l10.8,0c0,0-2.5-8.1-2.6-8.2C9,8.9,11.6,0.7,11.6,0.7L11.6,0.7z"/>
			<polygon class="st4" points="15.4,0.7 10.5,8.9 15.4,17.1 23.1,17.1 23.1,0.7 15.4,0.7 			"/>
		</g>
	</g>
	<g id="optimized_process">
		<g class="st1">
			<path class="st2" d="M35.7,4.9V3.4c0-1-0.3-1.1-1.3-1.1c-0.9,0-1.3,0.1-1.3,1.1v1.5c0,1,0.3,1.1,1.3,1.1
				C35.4,6,35.7,5.9,35.7,4.9L35.7,4.9z M31.3,5.1V3.2c0-2.1,1.3-2.5,3.1-2.5c1.8,0,3.2,0.4,3.2,2.5v1.9c0,2.1-1.3,2.5-3.2,2.5
				C32.6,7.6,31.3,7.2,31.3,5.1L31.3,5.1z"/>
			<path class="st2" d="M41.5,4.2c0.7,0,0.8-0.1,0.8-1c0-0.7-0.1-0.9-0.8-0.9h-1.2v1.9H41.5L41.5,4.2z M38.4,7.5V0.7h3.4
				c1.7,0,2.3,0.7,2.3,2.5c0,1.9-0.4,2.6-2.3,2.6h-1.6v1.7H38.4L38.4,7.5z"/>
			<polygon class="st2" points="47.9,7.5 46.1,7.5 46.1,2.3 44.4,2.3 44.4,0.7 49.8,0.7 49.8,2.3 47.9,2.3 47.9,7.5 			"/>
			<polygon class="st2" points="52.1,7.5 50.3,7.5 50.3,0.7 52.1,0.7 52.1,7.5 			"/>
			<polygon class="st2" points="55.1,7.5 53.3,7.5 53.3,0.7 56.1,0.7 57.4,5 57.5,5 58.7,0.7 61.7,0.7 61.7,7.5 59.9,7.5 60,2.3 
				60,2.3 58.3,7.5 56.7,7.5 54.9,2.3 54.9,2.3 55.1,7.5 			"/>
			<polygon class="st2" points="64.6,7.5 62.8,7.5 62.8,0.7 64.6,0.7 64.6,7.5 			"/>
			<polygon class="st2" points="70.9,2.2 67.7,5.9 67.7,5.9 70.9,5.9 70.9,7.5 65.4,7.5 65.4,6 68.6,2.4 68.6,2.3 65.6,2.3 
				65.6,0.7 70.9,0.7 70.9,2.2 			"/>
			<polygon class="st2" points="73.6,3.4 76.5,3.4 76.5,4.7 73.6,4.7 73.6,6 76.7,6 76.7,7.5 71.7,7.5 71.7,0.7 76.7,0.7 76.7,2.2 
				73.6,2.2 73.6,3.4 			"/>
			<path class="st2" d="M79.6,5.9h1.6c0.7,0,0.9-0.4,0.9-1.2V3.4c0-0.9-0.3-1.1-0.9-1.1h-1.6V5.9L79.6,5.9z M77.8,0.7h3.4
				c1.9,0,2.7,0.7,2.7,2.6v1.4c0,1.9-0.6,2.7-2.5,2.7h-3.7V0.7L77.8,0.7z"/>
			<path class="st2" d="M91.2,4.2c0.7,0,0.8-0.1,0.8-1c0-0.7-0.1-0.9-0.8-0.9H90v1.9H91.2L91.2,4.2z M88.2,7.5V0.7h3.4
				c1.7,0,2.3,0.7,2.3,2.5c0,1.9-0.4,2.6-2.3,2.6H90v1.7H88.2L88.2,7.5z"/>
			<path class="st2" d="M97.8,4.1c0.8,0,0.8-0.3,0.8-1.1c0-0.6-0.2-0.8-0.8-0.8h-1.4v1.8H97.8L97.8,4.1z M94.6,0.7h3.5
				c1.6,0,2.3,0.4,2.3,2.1c0,1.1,0,1.8-1.3,2.1v0.1c0.7,0,1.2,0.4,1.2,1.2v1.4h-1.8v-1c0-0.5-0.2-0.9-0.7-0.9h-1.4v1.8h-1.8V0.7
				L94.6,0.7z"/>
			<path class="st2" d="M105.6,4.9V3.4c0-1-0.3-1.1-1.3-1.1c-0.9,0-1.3,0.1-1.3,1.1v1.5c0,1,0.3,1.1,1.3,1.1
				C105.2,6,105.6,5.9,105.6,4.9L105.6,4.9z M101.1,5.1V3.2c0-2.1,1.3-2.5,3.1-2.5c1.8,0,3.2,0.4,3.2,2.5v1.9c0,2.1-1.3,2.5-3.2,2.5
				C102.4,7.6,101.1,7.2,101.1,5.1L101.1,5.1z"/>
			<path class="st2" d="M114,4.9v0.2c0,0.7,0,1.4-0.6,1.9c-0.6,0.5-1.4,0.5-2.2,0.5c-1.9,0-3.2-0.1-3.2-2.6V3.2
				c0-2.3,1.2-2.6,3.2-2.6c1.9,0,2.7,0.2,2.8,2.2v0.3h-1.9V2.9c-0.1-0.6-0.5-0.7-1.1-0.7c-1,0-1.1,0.3-1.1,1.3v1.1
				c0,1,0,1.4,1.1,1.4c0.8,0,1.1-0.1,1.1-0.9V4.9H114L114,4.9z"/>
			<polygon class="st2" points="116.7,3.4 119.7,3.4 119.7,4.7 116.7,4.7 116.7,6 119.9,6 119.9,7.5 114.9,7.5 114.9,0.7 119.8,0.7 
				119.8,2.2 116.7,2.2 116.7,3.4 			"/>
			<g>
				<path class="st2" d="M124.2,3.4c2,0.1,2.5,0.4,2.5,2c0,1.1,0,2.2-3,2.2c-1.7,0-2.9,0-2.9-2.3h1.7c0,0.7,0.3,0.8,1.1,0.8
					c0.9,0,1.1-0.1,1.1-0.6c0-0.6-0.1-0.6-1-0.6l-0.4,0c-1.7-0.1-2.7-0.1-2.7-2.1c0-2,1.1-2.1,2.9-2.1c1.5,0,2.8,0,2.8,1.9v0.3h-1.7
					c0-0.7-0.3-0.7-1-0.7c-1,0-1.1,0.2-1.1,0.6c0,0.5,0.3,0.6,0.7,0.6L124.2,3.4L124.2,3.4z"/>
				<path class="st2" d="M130.7,3.4c2,0.1,2.5,0.4,2.5,2c0,1.1,0,2.2-2.9,2.2c-1.7,0-2.9,0-2.9-2.3h1.7c0,0.7,0.3,0.8,1.1,0.8
					c0.9,0,1.1-0.1,1.1-0.6c0-0.6-0.1-0.6-1-0.6l-0.4,0c-1.7-0.1-2.7-0.1-2.7-2.1c0-2,1.1-2.1,2.9-2.1c1.5,0,2.8,0,2.8,1.9v0.3h-1.7
					c0-0.7-0.3-0.7-1-0.7c-1,0-1.1,0.2-1.1,0.6c0,0.5,0.3,0.6,0.7,0.6L130.7,3.4L130.7,3.4z"/>
			</g>
			<path class="st2" d="M33.3,15.8h1.6c0.7,0,0.9-0.4,0.9-1.2v-1.4c0-0.9-0.3-1.1-0.9-1.1h-1.6V15.8L33.3,15.8z M31.5,10.5h3.4
				c1.9,0,2.7,0.7,2.7,2.6v1.4c0,1.9-0.6,2.7-2.5,2.7h-3.7V10.5L31.5,10.5z"/>
			<polygon class="st2" points="40.4,13.3 43.3,13.3 43.3,14.5 40.4,14.5 40.4,15.8 43.6,15.8 43.6,17.3 38.6,17.3 38.6,10.5 
				43.5,10.5 43.5,12 40.4,12 40.4,13.3 			"/>
			<path class="st2" d="M47.8,13.2c2,0.1,2.5,0.4,2.5,2c0,1.1,0,2.2-2.9,2.2c-1.7,0-2.9,0-2.9-2.3h1.7c0,0.7,0.3,0.8,1.1,0.8
				c0.9,0,1.1-0.1,1.1-0.6c0-0.6-0.1-0.6-1-0.6l-0.4,0c-1.7-0.1-2.7-0.1-2.7-2.1c0-2,1.1-2.1,2.9-2.1c1.5,0,2.8,0,2.8,1.9v0.3h-1.7
				c0-0.7-0.3-0.7-1-0.7c-1,0-1.1,0.2-1.1,0.6c0,0.5,0.3,0.6,0.7,0.6L47.8,13.2L47.8,13.2z"/>
			<polygon class="st2" points="53.1,17.3 51.3,17.3 51.3,10.5 53.1,10.5 53.1,17.3 			"/>
			<path class="st2" d="M58.3,12.6c0-0.7-0.6-0.7-1.2-0.7c-1.3,0-1.3,0.4-1.4,1.5v1.1c0,1.2,0.4,1.3,1.4,1.3c0.9,0,1.2-0.2,1.2-1.2
				h-1.3v-1.3h3.1v1.2c0,2.3-0.6,2.7-3,2.7c-2.1,0-3.2-0.4-3.2-2.6v-1.8c0-2.3,1.2-2.6,3.2-2.6c1.8,0,3,0,3,2.2H58.3L58.3,12.6z"/>
			<polygon class="st2" points="62.9,17.3 61.1,17.3 61.1,10.5 64.1,10.5 66.1,15.8 66.2,15.8 66.1,10.5 67.9,10.5 67.9,17.3 
				64.8,17.3 62.9,12.1 62.8,12.1 62.9,17.3 			"/>
			<path class="st2" d="M72.1,13.2c2,0.1,2.5,0.4,2.5,2c0,1.1,0,2.2-2.9,2.2c-1.7,0-2.9,0-2.9-2.3h1.7c0,0.7,0.3,0.8,1.1,0.8
				c0.9,0,1.1-0.1,1.1-0.6c0-0.6-0.1-0.6-1-0.6l-0.4,0c-1.7-0.1-2.7-0.1-2.7-2.1c0-2,1.1-2.1,2.9-2.1c1.5,0,2.8,0,2.8,1.9v0.3h-1.7
				c0-0.7-0.3-0.7-1-0.7c-1,0-1.1,0.2-1.1,0.6c0,0.5,0.3,0.6,0.7,0.6L72.1,13.2L72.1,13.2z"/>
			<polygon class="st2" points="80.6,15.8 83.4,15.8 83.4,17.3 78.7,17.3 78.7,10.5 80.6,10.5 80.6,15.8 			"/>
			<polygon class="st2" points="85.9,15.8 88.7,15.8 88.7,17.3 84.1,17.3 84.1,10.5 85.9,10.5 85.9,15.8 			"/>
			<path class="st2" d="M95.2,14.8V15c0,0.7,0,1.4-0.6,1.9c-0.6,0.5-1.4,0.5-2.2,0.5c-1.9,0-3.2-0.1-3.2-2.6v-1.8
				c0-2.3,1.2-2.6,3.2-2.6c1.9,0,2.7,0.2,2.8,2.2V13h-1.9v-0.3c-0.1-0.6-0.5-0.7-1.1-0.7c-1,0-1.1,0.3-1.1,1.3v1.1
				c0,1,0,1.4,1.1,1.4c0.8,0,1.1-0.1,1.1-0.9v-0.2H95.2L95.2,14.8z"/>
			<path class="st2" d="M27.9,15.9L27.5,17l-0.4-1.1h-0.4v1.5H27v-1.2l0.4,1.2h0.2l0.4-1.2v1.2h0.3v-1.5H27.9L27.9,15.9z M25.1,15.9
				v0.3h0.5v1.3h0.3v-1.3h0.5v-0.3H25.1L25.1,15.9z"/>
			<path class="st3" d="M12,0.6L12,0.6H0.9v16.9l11.1,0c0,0-2.6-8.4-2.6-8.4C9.4,9,12,0.6,12,0.6L12,0.6z"/>
			<polygon class="st4" points="16,0.6 10.9,9 16,17.4 23.8,17.4 23.8,0.6 16,0.6 			"/>
		</g>
	</g>
	<g id="koch_knight">
		<g class="st1">
			<g>
				<g>
					<path d="M19.9,4h0.7l2.3-3.4h2.9L22.7,5l3.4,4.6h-3l-2.5-3.5h-0.7v3.5h-2.4v-9h2.4V4z"/>
					<path d="M26.1,6.4V3.8c0-2.8,1.7-3.3,4.2-3.3s4.2,0.5,4.2,3.3v2.5c0,2.8-1.7,3.3-4.2,3.3S26.1,9.1,26.1,6.4z M32,6.1v-2
						c0-1.3-0.4-1.5-1.7-1.5s-1.7,0.1-1.7,1.5v2c0,1.3,0.4,1.5,1.7,1.5S32,7.4,32,6.1z"/>
					<path d="M43.2,6.2v0.3c0,1,0,1.9-0.8,2.5c-0.8,0.7-1.8,0.7-2.8,0.7c-2.4,0-4.2-0.1-4.2-3.4V3.9c0-3,1.6-3.4,4.2-3.4
						c2.5,0,3.6,0.3,3.7,2.9v0.3h-2.5V3.5c-0.1-0.8-0.6-0.9-1.5-0.9c-1.4,0-1.5,0.4-1.5,1.7v1.4c0,1.3,0.1,1.9,1.5,1.9
						c1,0,1.5-0.1,1.5-1.1V6.2H43.2z"/>
					<path d="M52.2,9.6h-2.4V6.1h-3.1v3.5h-2.4v-9h2.4V4h3.1V0.6h2.4V9.6z"/>
					<path d="M60.4,4h0.7l2.3-3.4h2.9L63.2,5l3.4,4.6h-3l-2.5-3.5h-0.7v3.5h-2.4v-9h2.4V4z"/>
					<path d="M69.4,9.6H67v-9h4l2.6,6.9h0.1l-0.1-6.9H76v9h-4.1l-2.5-6.9h-0.1L69.4,9.6z"/>
					<path d="M79.8,9.6h-2.4v-9h2.4V9.6z"/>
					<path d="M86.8,3.4c0-0.9-0.8-0.9-1.5-0.9c-1.7,0-1.8,0.5-1.8,2v1.5c0,1.6,0.6,1.8,1.8,1.8c1.2,0,1.5-0.3,1.5-1.5h-1.7V4.5h4.1
						v1.6c0,3-0.8,3.6-4,3.6c-2.8,0-4.3-0.5-4.3-3.4V3.9c0-3,1.6-3.4,4.3-3.4c2.3,0,4,0,4,2.9H86.8z"/>
					<path d="M98.3,9.6h-2.4V6.1h-3.1v3.5h-2.4v-9h2.4V4h3.1V0.6h2.4V9.6z"/>
					<path d="M103.8,9.6h-2.4V2.7h-2.3V0.6h7.1v2.1h-2.4V9.6z"/>
					<path d="M113.6,7.5h3.7v2.1h-6.1v-9h2.4V7.5z"/>
					<path d="M120.6,7.5h3.7v2.1h-6.1v-9h2.4V7.5z"/>
					<path d="M132.8,6.2v0.3c0,1,0,1.9-0.8,2.5c-0.8,0.7-1.8,0.7-2.8,0.7c-2.4,0-4.2-0.1-4.2-3.4V3.9c0-3,1.6-3.4,4.2-3.4
						c2.5,0,3.6,0.3,3.7,2.9v0.3h-2.5V3.5c-0.1-0.8-0.6-0.9-1.5-0.9c-1.4,0-1.5,0.4-1.5,1.7v1.4c0,1.3,0.1,1.9,1.5,1.9
						c1,0,1.5-0.1,1.5-1.1V6.2H132.8z"/>
				</g>
				<path d="M13.5,8.7v0.1h0.3v0.7H14V8.8h0.3V8.7H13.5z M15,8.7l-0.2,0.6l-0.2-0.6h-0.2v0.8h0.2V8.9l0.2,0.7h0.1l0.2-0.7v0.7h0.2
					V8.7H15z"/>
				<g>
					<path class="st5" d="M6.4,0.4L6.4,0.4H0.4v9.2l6,0C6.4,9.6,5,5,5,5C5,5,6.4,0.4,6.4,0.4"/>
					<polygon class="st4" points="8.6,0.4 5.8,5 8.6,9.6 12.8,9.6 12.8,0.4 					"/>
				</g>
			</g>
		</g>
	</g>
	<g id="membrane" class="st1">
		<g>
			<path d="M29.9,5.2c0.1-0.1,4.4-4.6,4.4-4.6h-0.1h-3.9c0,0-3.8,3.5-4,3.7c0-0.2,0-3.7,0-3.7h-3.8V11h3.8c0,0,0-2.2,0-2.2
				c0,0,0.7-0.6,0.8-0.7C27,8.1,29.3,11,29.3,11h5.2C34.5,11,29.9,5.2,29.9,5.2L29.9,5.2z"/>
			<path d="M72.6,0.6h-4c0,0,0,3.6,0,3.7c-0.1,0-3.2,0-3.3,0c0-0.1,0-3.7,0-3.7h-3.9V11l4,0c0,0,0-3.7,0-3.8c0.1,0,3.2,0,3.3,0
				c0,0.1,0,3.8,0,3.8l4.1,0L72.6,0.6L72.6,0.6L72.6,0.6z"/>
			<path class="st5" d="M42.5,3.7v4.2c0,0.4-0.3,0.8-0.7,0.8h-2.2c-0.4,0-0.7-0.3-0.7-0.8V3.7c0-0.4,0.3-0.8,0.7-0.8h2.2
				C42.2,3,42.5,3.3,42.5,3.7L42.5,3.7z M44.1,0.5h-6.8c-1.3,0-2.3,1.2-2.3,2.6v5.2c0,1.4,1,2.6,2.3,2.6h6.8c1.3,0,2.3-1.2,2.3-2.6
				V3.2C46.4,1.7,45.3,0.5,44.1,0.5L44.1,0.5z"/>
			<path class="st5" d="M59.5,4.3V3.6c0-0.9-0.3-1.9-0.9-2.4c-0.4-0.4-0.8-0.6-1.2-0.6h-7.1c-1.2,0-2.1,1.3-2.1,3V8
				c0,1.7,0.9,3,2.1,3h7.1c1.2,0,2.1-1.3,2.1-3V6.8l-3.7,0l-0.1,1c0,0.4-0.3,0.9-0.7,0.9h-2.2c-0.4,0-0.7-0.3-0.7-0.8V3.8
				c0-0.4,0.3-0.8,0.7-0.8h2.2c0.4,0,0.7,0.3,0.7,0.8v0.6H59.5L59.5,4.3z"/>
			<g>
				<path class="st6" d="M0.6,23.6c7.5-2.8,14.4,4,24,0c7.5-2.8,14.4,4,24,0c7.5-2.8,14.4,4,24,0V23c-9.6,4-16.5-2.8-24,0
					c-9.6,4-16.5-2.8-24,0c-9.6,4-16.5-2.8-24,0V23.6L0.6,23.6z"/>
				<path class="st6" d="M0.6,26.6c7.5-2.8,14.4,4,24,0c7.5-2.8,14.4,4,24,0c7.5-2.8,14.4,4,24,0V26c-9.6,4-16.5-2.8-24,0
					c-9.6,4-16.5-2.8-24,0c-9.6,4-16.5-2.8-24,0V26.6L0.6,26.6z"/>
				<path class="st6" d="M0.6,22.1c7.5-2.8,14.4,4,24,0c7.5-2.8,14.4,4,24,0c7.5-2.8,14.4,4,24,0v-0.6c-9.6,4-16.5-2.8-24,0
					c-9.6,4-16.5-2.8-24,0c-9.6,4-16.5-2.8-24,0V22.1L0.6,22.1z"/>
				<path class="st6" d="M0.6,25.1c7.5-2.8,14.4,4,24,0c7.5-2.8,14.4,4,24,0c7.5-2.8,14.4,4,24,0v-0.6c-9.6,4-16.5-2.8-24,0
					c-9.6,4-16.5-2.8-24,0c-9.6,4-16.5-2.8-24,0V25.1L0.6,25.1z"/>
			</g>
			<path class="st6" d="M72.5,28.6l0-0.6c0-0.1,0-0.2,0-0.3h0c0,0.1-0.1,0.2-0.1,0.3l-0.2,0.5h-0.1l-0.2-0.5c0-0.1,0-0.2-0.1-0.3h0
				c0,0.1,0,0.2,0,0.3l0,0.6h-0.1l0.1-0.9h0.2l0.2,0.5c0,0.1,0,0.1,0.1,0.2h0c0-0.1,0-0.2,0.1-0.2l0.2-0.5h0.2l0.1,0.9H72.5
				L72.5,28.6z M71.6,27.7v0.1h-0.3v0.8h-0.1v-0.8h-0.3v-0.1H71.6L71.6,27.7z"/>
			<polygon points="3.6,18.3 3.1,18.3 1.3,14 1.3,14 1.3,18.3 0.8,18.3 0.8,13.6 1.7,13.6 3.3,17.6 5,13.6 5.9,13.6 5.9,18.3 
				5.4,18.3 5.4,14 5.4,14 3.6,18.3 			"/>
			<g>
				<polygon class="st7" points="3.6,18.3 3.1,18.3 1.3,14 1.3,14 1.3,18.3 0.8,18.3 0.8,13.6 1.7,13.6 3.3,17.6 5,13.6 5.9,13.6 
					5.9,18.3 5.4,18.3 5.4,14 5.4,14 3.6,18.3 				"/>
			</g>
			<polygon points="7.4,15.6 9.8,15.6 9.8,16.1 7.4,16.1 7.4,17.8 9.9,17.8 9.9,18.3 6.9,18.3 6.9,13.6 9.9,13.6 9.9,14.1 7.4,14.1 
				7.4,15.6 			"/>
			<polygon class="st7" points="7.4,15.6 9.8,15.6 9.8,16.1 7.4,16.1 7.4,17.8 9.9,17.8 9.9,18.3 6.9,18.3 6.9,13.6 9.9,13.6 
				9.9,14.1 7.4,14.1 7.4,15.6 			"/>
			<polygon points="13.7,18.3 13.2,18.3 11.4,14 11.4,14 11.4,18.3 10.9,18.3 10.9,13.6 11.8,13.6 13.5,17.6 15.1,13.6 16.1,13.6 
				16.1,18.3 15.5,18.3 15.5,14 15.5,14 13.7,18.3 			"/>
			<polygon class="st7" points="13.7,18.3 13.2,18.3 11.4,14 11.4,14 11.4,18.3 10.9,18.3 10.9,13.6 11.8,13.6 13.5,17.6 15.1,13.6 
				16.1,13.6 16.1,18.3 15.5,18.3 15.5,14 15.5,14 13.7,18.3 			"/>
			<path d="M17.7,14.1h1.6c0.6,0,0.8,0.1,0.8,0.7c0,0.7-0.2,0.9-0.9,0.9h-1.5V14.1L17.7,14.1z M19.7,18.3c0.8,0,1.1-0.5,1.1-1.3
				c0-0.6-0.1-1-0.7-1.1v0c0.5-0.2,0.6-0.5,0.6-1c0-0.8-0.2-1.2-1.1-1.2h-2.4v4.7H19.7L19.7,18.3z M17.7,16.1h1.7
				c0.7,0,0.8,0.3,0.8,0.9c0,0.7-0.3,0.8-0.8,0.8h-1.7V16.1L17.7,16.1z"/>
			<path class="st7" d="M17.7,14.1h1.6c0.6,0,0.8,0.1,0.8,0.7c0,0.7-0.2,0.9-0.9,0.9h-1.5V14.1L17.7,14.1z M19.7,18.3
				c0.8,0,1.1-0.5,1.1-1.3c0-0.6-0.1-1-0.7-1.1v0c0.5-0.2,0.6-0.5,0.6-1c0-0.8-0.2-1.2-1.1-1.2h-2.4v4.7H19.7L19.7,18.3z M17.7,16.1
				h1.7c0.7,0,0.8,0.3,0.8,0.9c0,0.7-0.3,0.8-0.8,0.8h-1.7V16.1L17.7,16.1z"/>
			<path d="M22.4,16.4h1.7c0.6,0,0.8,0.3,0.8,0.9v1h0.5V17c0-0.5-0.2-0.8-0.8-0.8v0c0.7-0.1,0.8-0.6,0.8-1.2c0-1.1-0.4-1.3-1.4-1.3
				h-2.1v4.7h0.5V16.4L22.4,16.4z M22.4,15.9v-1.9H24c0.8,0,0.9,0.2,0.9,0.8c0,0.8-0.1,1-0.9,1H22.4L22.4,15.9z"/>
			<path class="st7" d="M22.4,16.4h1.7c0.6,0,0.8,0.3,0.8,0.9v1h0.5V17c0-0.5-0.2-0.8-0.8-0.8v0c0.7-0.1,0.8-0.6,0.8-1.2
				c0-1.1-0.4-1.3-1.4-1.3h-2.1v4.7h0.5V16.4L22.4,16.4z M22.4,15.9v-1.9H24c0.8,0,0.9,0.2,0.9,0.8c0,0.8-0.1,1-0.9,1H22.4
				L22.4,15.9z"/>
			<path d="M29.4,17.3l0.4,1h0.5l-1.7-4.7h-0.7l-1.7,4.7h0.6l0.4-1H29.4L29.4,17.3z M29.2,16.9h-2.1l1-2.8L29.2,16.9L29.2,16.9z"/>
			<path class="st7" d="M29.4,17.3l0.4,1h0.5l-1.7-4.7h-0.7l-1.7,4.7h0.6l0.4-1H29.4L29.4,17.3z M29.2,16.9h-2.1l1-2.8L29.2,16.9
				L29.2,16.9z"/>
			<polygon points="35.1,18.3 34.2,18.3 31.6,14.1 31.6,14.1 31.6,18.3 31.1,18.3 31.1,13.6 31.9,13.6 34.5,17.9 34.5,17.9 
				34.5,13.6 35.1,13.6 35.1,18.3 			"/>
			<polygon class="st7" points="35.1,18.3 34.2,18.3 31.6,14.1 31.6,14.1 31.6,18.3 31.1,18.3 31.1,13.6 31.9,13.6 34.5,17.9 
				34.5,17.9 34.5,13.6 35.1,13.6 35.1,18.3 			"/>
			<polygon points="36.6,15.7 38.9,15.7 38.9,16.1 36.6,16.1 36.6,17.8 39.1,17.8 39.1,18.3 36.1,18.3 36.1,13.6 39.1,13.6 
				39.1,14.1 36.6,14.1 36.6,15.7 			"/>
			<polygon class="st7" points="36.6,15.7 38.9,15.7 38.9,16.1 36.6,16.1 36.6,17.8 39.1,17.8 39.1,18.3 36.1,18.3 36.1,13.6 
				39.1,13.6 39.1,14.1 36.6,14.1 36.6,15.7 			"/>
			<path d="M42.3,14.9c0-1.2,0.6-1.4,1.7-1.4c1,0,1.7,0,1.7,1.3h-0.5c0-0.8-0.2-0.8-1.2-0.8c-1,0-1.2,0.1-1.2,0.8
				c0,0.9,0.4,0.8,1.3,0.8c1.1,0.1,1.7,0,1.7,1.3c0,1.3-0.6,1.4-1.8,1.4c-1.2,0-1.8-0.1-1.7-1.5h0.5c0,1,0.2,1,1.2,1
				c1,0,1.3,0,1.3-0.9c0-0.9-0.4-0.7-1.2-0.8C43.1,16.1,42.3,16.2,42.3,14.9L42.3,14.9z"/>
			<path class="st7" d="M42.3,14.9c0-1.2,0.6-1.4,1.7-1.4c1,0,1.7,0,1.7,1.3h-0.5c0-0.8-0.2-0.8-1.2-0.8c-1,0-1.2,0.1-1.2,0.8
				c0,0.9,0.4,0.8,1.3,0.8c1.1,0.1,1.7,0,1.7,1.3c0,1.3-0.6,1.4-1.8,1.4c-1.2,0-1.8-0.1-1.7-1.5h0.5c0,1,0.2,1,1.2,1
				c1,0,1.3,0,1.3-0.9c0-0.9-0.4-0.7-1.2-0.8C43.1,16.1,42.3,16.2,42.3,14.9L42.3,14.9z"/>
			<polygon points="48.4,16.3 48.4,18.3 47.9,18.3 47.9,16.3 46.2,13.6 46.8,13.6 48.2,15.8 49.6,13.6 50.2,13.6 48.4,16.3 			"/>
			<polygon class="st7" points="48.4,16.3 48.4,18.3 47.9,18.3 47.9,16.3 46.2,13.6 46.8,13.6 48.2,15.8 49.6,13.6 50.2,13.6 
				48.4,16.3 			"/>
			<path d="M50.7,14.9c0-1.2,0.6-1.4,1.7-1.4c1,0,1.7,0,1.7,1.3h-0.5c0-0.8-0.2-0.8-1.2-0.8c-1,0-1.2,0.1-1.2,0.8
				c0,0.9,0.4,0.8,1.3,0.8c1.1,0.1,1.7,0,1.7,1.3c0,1.3-0.6,1.4-1.8,1.4c-1.2,0-1.8-0.1-1.7-1.5h0.5c0,1,0.2,1,1.2,1
				c1,0,1.3,0,1.3-0.9c0-0.9-0.4-0.7-1.2-0.8C51.5,16.1,50.7,16.2,50.7,14.9L50.7,14.9z"/>
			<path class="st7" d="M50.7,14.9c0-1.2,0.6-1.4,1.7-1.4c1,0,1.7,0,1.7,1.3h-0.5c0-0.8-0.2-0.8-1.2-0.8c-1,0-1.2,0.1-1.2,0.8
				c0,0.9,0.4,0.8,1.3,0.8c1.1,0.1,1.7,0,1.7,1.3c0,1.3-0.6,1.4-1.8,1.4c-1.2,0-1.8-0.1-1.7-1.5h0.5c0,1,0.2,1,1.2,1
				c1,0,1.3,0,1.3-0.9c0-0.9-0.4-0.7-1.2-0.8C51.5,16.1,50.7,16.2,50.7,14.9L50.7,14.9z"/>
			<polygon points="56.8,18.3 56.2,18.3 56.2,14.1 54.7,14.1 54.7,13.6 58.3,13.6 58.3,14.1 56.8,14.1 56.8,18.3 			"/>
			<polygon class="st7" points="56.8,18.3 56.2,18.3 56.2,14.1 54.7,14.1 54.7,13.6 58.3,13.6 58.3,14.1 56.8,14.1 56.8,18.3 			"/>
			<polygon points="59.4,15.7 61.7,15.7 61.7,16.1 59.4,16.1 59.4,17.8 61.8,17.8 61.8,18.3 58.9,18.3 58.9,13.6 61.8,13.6 
				61.8,14.1 59.4,14.1 59.4,15.7 			"/>
			<polygon class="st7" points="59.4,15.7 61.7,15.7 61.7,16.1 59.4,16.1 59.4,17.8 61.8,17.8 61.8,18.3 58.9,18.3 58.9,13.6 
				61.8,13.6 61.8,14.1 59.4,14.1 59.4,15.7 			"/>
			<polygon points="65.6,18.3 65.1,18.3 63.4,14 63.3,14 63.3,18.3 62.8,18.3 62.8,13.6 63.7,13.6 65.4,17.6 67,13.6 67.9,13.6 
				67.9,18.3 67.4,18.3 67.4,14 67.4,14 65.6,18.3 			"/>
			<polygon class="st7" points="65.6,18.3 65.1,18.3 63.4,14 63.3,14 63.3,18.3 62.8,18.3 62.8,13.6 63.7,13.6 65.4,17.6 67,13.6 
				67.9,13.6 67.9,18.3 67.4,18.3 67.4,14 67.4,14 65.6,18.3 			"/>
			<path d="M68.9,14.9c0-1.2,0.6-1.4,1.7-1.4c1,0,1.7,0,1.7,1.3h-0.5c0-0.8-0.2-0.8-1.2-0.8c-1,0-1.2,0.1-1.2,0.8
				c0,0.9,0.4,0.8,1.3,0.8c1.1,0.1,1.7,0,1.7,1.3c0,1.3-0.6,1.4-1.8,1.4c-1.2,0-1.8-0.1-1.7-1.5h0.5c0,1,0.2,1,1.2,1
				c1,0,1.3,0,1.3-0.9c0-0.9-0.4-0.7-1.2-0.8C69.7,16.1,68.9,16.2,68.9,14.9L68.9,14.9z"/>
			<g>
				<path class="st7" d="M68.9,14.9c0-1.2,0.6-1.4,1.7-1.4c1,0,1.7,0,1.7,1.3h-0.5c0-0.8-0.2-0.8-1.2-0.8c-1,0-1.2,0.1-1.2,0.8
					c0,0.9,0.4,0.8,1.3,0.8c1.1,0.1,1.7,0,1.7,1.3c0,1.3-0.6,1.4-1.8,1.4c-1.2,0-1.8-0.1-1.7-1.5h0.5c0,1,0.2,1,1.2,1
					c1,0,1.3,0,1.3-0.9c0-0.9-0.4-0.7-1.2-0.8C69.7,16.1,68.9,16.2,68.9,14.9L68.9,14.9z"/>
			</g>
			<path class="st5" d="M7.4,0.7L7.4,0.7H0.6v10.4l6.8,0c0,0-1.6-5.2-1.6-5.2C5.8,5.9,7.4,0.7,7.4,0.7L7.4,0.7z"/>
			<polygon class="st4" points="9.9,0.7 6.8,5.9 9.9,11.1 14.7,11.1 14.7,0.7 9.9,0.7 			"/>
		</g>
	</g>
	<g id="glitsch">
		<g class="st1">
			<path d="M21.8,0.3c0,0-2.3,3.2-2.4,3.3c-0.1,0-0.3,0-0.5,0c0-0.3,0-3.3,0-3.3h-2.8v9.2h2.8c0,0,0-3.2,0-3.5c0.2,0,0.4,0,0.5,0
				C19.5,6.1,22,9.5,22,9.5h3.5c0,0-3.6-4.5-3.7-4.7c0.1-0.2,3.4-4.5,3.4-4.5H21.8L21.8,0.3z"/>
			<g>
				<path d="M35.6,3.7V6c0,3.5,2.2,3.5,4.6,3.5h0.1c1.1,0,2.1,0,3-0.7c0.9-0.7,0.9-1.7,0.9-2.6V5.8h-2.9v0.4c0,0.9-0.3,1-1.4,1
					c-1.3,0-1.4-0.3-1.4-1.7V4.1c0-1.3,0.1-1.5,1.4-1.5c0.9,0,1.3,0.1,1.4,0.7l0,0.5h2.9V3.3c-0.1-2.8-1.3-3.1-4-3.1
					C37.7,0.2,35.6,0.5,35.6,3.7L35.6,3.7z"/>
			</g>
			<path d="M51.3,0.3c0,0,0,3.1,0,3.3c-0.3,0-2.7,0-2.9,0c0-0.3,0-3.3,0-3.3h-2.8v9.2h2.8c0,0,0-3.2,0-3.5c0.3,0,2.7,0,2.9,0
				c0,0.3,0,3.5,0,3.5h2.8V0.3H51.3L51.3,0.3z"/>
			<path d="M55,4.9v2.3h3.7V4.9H55L55,4.9z"/>
			<path d="M59.5,3.7V6c0,3,1.6,3.5,4.6,3.5c3.3,0,4.3-0.5,4.3-3.7V4.1h-4.6v2c0,0,1.4,0,1.7,0c0,1-0.3,1.2-1.4,1.2
				c-1.2,0-1.7-0.1-1.7-1.6V4.2c0-1.4,0-1.8,1.7-1.8c0.9,0,1.4,0,1.5,0.7l0,0.1h2.8V3.2c0-3-1.9-3-4.3-3C61.6,0.2,59.5,0.5,59.5,3.7
				L59.5,3.7z"/>
			<path d="M69.8,0.3v9.2h6.7V7.1c0,0-3.6,0-3.9,0c0-0.3,0-6.8,0-6.8H69.8L69.8,0.3z"/>
			<path d="M77.6,0.3v9.2h2.8V0.3H77.6L77.6,0.3z"/>
			<path d="M81.4,0.3v2.4c0,0,2.1,0,2.4,0c0,0.3,0,6.8,0,6.8h2.8c0,0,0-6.5,0-6.8c0.3,0,2.5,0,2.5,0V0.3H81.4L81.4,0.3z"/>
			<path d="M89.8,3.1c0,2.6,1.4,2.7,3.6,2.8l0.9,0.1C95.3,6,95.3,6,95.3,6.6c0,0.6-0.2,0.7-1.4,0.7c-1.2,0-1.4-0.1-1.4-0.9V6.3h-2.7
				v0.2c0,3.1,1.8,3.1,4.1,3.1c1.9,0,3-0.3,3.6-0.9c0.6-0.6,0.6-1.4,0.6-2.1V6.5c0-2.2-0.8-2.5-3.6-2.7l0,0l-1-0.1
				c-0.7,0-0.9-0.1-0.9-0.6c0-0.4,0-0.6,1.3-0.6c1,0,1.2,0,1.2,0.8v0.2h2.7V2.8c0-2.6-2-2.6-4-2.6C91.4,0.2,89.8,0.4,89.8,3.1
				L89.8,3.1z"/>
			<g>
				<path d="M99.2,3.7V6c0,3.5,2.2,3.5,4.6,3.5h0.1c1.1,0,2.1,0,3-0.7c0.9-0.7,0.9-1.7,0.9-2.6V5.8h-2.9v0.4c0,0.9-0.3,1-1.4,1
					c-1.3,0-1.4-0.3-1.4-1.7V4.1c0-1.3,0.1-1.5,1.4-1.5c0.9,0,1.3,0.1,1.4,0.7l0,0.5h2.9V3.3c-0.1-2.8-1.3-3.1-4-3.1
					C101.3,0.2,99.2,0.5,99.2,3.7L99.2,3.7z"/>
			</g>
			<g>
				<path d="M114.9,0.3c0,0,0,3.1,0,3.3c-0.3,0-2.7,0-2.9,0c0-0.3,0-3.3,0-3.3h-2.8v9.2h2.8c0,0,0-3.2,0-3.5c0.3,0,2.7,0,2.9,0
					c0,0.3,0,3.5,0,3.5h2.8V0.3H114.9L114.9,0.3z"/>
				<path class="st5" d="M6.4,0.3L6.4,0.3H0.3v9.2l6,0c0,0-1.4-4.6-1.4-4.6C4.9,4.9,6.4,0.3,6.4,0.3L6.4,0.3z"/>
			</g>
			<polygon class="st4" points="8.5,0.3 5.8,4.9 8.5,9.5 12.8,9.5 12.8,0.3 8.5,0.3 			"/>
			<path d="M119.4,1.1h0.1c0.1,0,0.2,0,0.2-0.2c0-0.1-0.1-0.2-0.2-0.2c-0.1,0-0.1,0-0.1,0V1.1L119.4,1.1z M119.4,1.6h-0.2v-1
				c0.1,0,0.2,0,0.3,0c0.1,0,0.2,0,0.3,0.1c0.1,0,0.1,0.1,0.1,0.2c0,0.1-0.1,0.2-0.2,0.2v0c0.1,0,0.1,0.1,0.2,0.2
				c0,0.2,0,0.2,0.1,0.2h-0.2c0,0,0-0.1-0.1-0.2c0-0.1-0.1-0.2-0.2-0.2h-0.1V1.6L119.4,1.6z M119.5,0.4c-0.4,0-0.7,0.3-0.7,0.7
				c0,0.4,0.3,0.7,0.7,0.7c0.4,0,0.7-0.3,0.7-0.7C120.2,0.7,119.9,0.4,119.5,0.4L119.5,0.4L119.5,0.4z M119.6,0.3
				c0.5,0,0.9,0.4,0.9,0.9c0,0.5-0.4,0.9-0.9,0.9c-0.5,0-0.9-0.4-0.9-0.9C118.7,0.7,119.1,0.3,119.6,0.3L119.6,0.3L119.6,0.3z"/>
			<path d="M30.1,0.2c-2.3,0-4.5,0.4-4.5,3.4v2.5c0,3,2.2,3.4,4.5,3.4c2.3,0,4.5-0.4,4.5-3.4V3.6C34.6,0.6,32.4,0.2,30.1,0.2z
				 M31.7,5.9c0,1.2-0.3,1.3-1.6,1.3c-1.3,0-1.6-0.1-1.6-1.3v-2c0-1.2,0.3-1.3,1.6-1.3c1.3,0,1.6,0.1,1.6,1.3V5.9z"/>
		</g>
	</g>
	<g id="zink">
		<g class="st1">
			<g>
				<polygon points="0.2,0.2 0.2,15.9 10.8,15.9 8.3,8.1 11,0.2 				"/>
				<polygon class="st6" points="14.8,0.2 9.9,8 14.8,15.9 22.3,15.9 22.3,0.2 				"/>
				<g>
					<path d="M32.5,20.4c-0.1-0.5-0.5-0.8-1.1-0.8c-1.2,0-1.5,1-1.5,2s0.3,2,1.5,2c0.5,0,1-0.2,1.1-0.8h0.4
						c-0.1,0.8-0.8,1.2-1.5,1.2c-1.4,0-1.9-1.1-1.9-2.3c0-1.2,0.6-2.3,1.9-2.3c0.7,0,1.4,0.3,1.5,1.1H32.5z"/>
					<path d="M35.9,23.9c-1.3,0-2-0.9-2-2.3c0-1.4,0.7-2.3,2-2.3c1.3,0,2,0.9,2,2.3C37.9,23,37.2,23.9,35.9,23.9 M35.9,23.5
						c1.1,0,1.6-1,1.6-2c0-1-0.4-2-1.6-2c-1.1,0-1.6,1-1.6,2C34.3,22.5,34.8,23.5,35.9,23.5"/>
					<polygon points="39.5,23.8 39.5,19.3 40.1,19.3 41.8,23.2 43.5,19.3 44.1,19.3 44.1,23.8 43.7,23.8 43.7,19.6 43.7,19.6 
						42,23.8 41.6,23.8 39.9,19.7 39.9,19.7 39.9,23.8 					"/>
					<path d="M45.9,23.8v-4.5l1.6,0c0.7,0,1.3,0.4,1.3,1.1c0,0.5-0.4,0.9-0.8,1v0c0.6,0.1,1,0.5,1,1.1c0,0.6-0.4,1.2-1.3,1.2H45.9z
						 M47.2,21.3c0.5,0,1-0.2,1-0.8c0-0.7-0.5-0.8-1.1-0.8h-1v1.6H47.2z M46.3,23.4h1c0.8,0,1.2-0.2,1.2-0.9c0-0.8-0.6-0.9-1.5-0.9
						h-0.7V23.4z"/>
					<path d="M50.8,19.3v2.9c0,0.8,0.5,1.3,1.2,1.3c0.7,0,1.2-0.5,1.2-1.3v-2.9h0.4v2.9c0,1-0.6,1.7-1.6,1.7c-1.1,0-1.6-0.7-1.6-1.7
						v-2.9H50.8z"/>
					<path d="M56.4,23.9c-0.7,0-1.3-0.5-1.3-1.3h0.4c0,0.7,0.5,0.9,1.1,0.9c0.5,0,1.1-0.3,1.1-0.9c0-0.4-0.3-0.7-0.7-0.8
						c-0.7-0.2-1.8-0.5-1.8-1.4c0-0.8,0.7-1.2,1.4-1.2c0.6,0,1.4,0.2,1.5,1.1h-0.4c0-0.6-0.5-0.7-1-0.7c-0.5,0-1,0.2-1,0.8
						c0,1.3,2.5,0.7,2.5,2.3C58.1,23.6,57.3,23.9,56.4,23.9"/>
					<polygon points="60.5,19.7 59.1,19.7 59.1,19.3 62.4,19.3 62.4,19.7 60.9,19.7 60.9,23.8 60.5,23.8 					"/>
					<rect x="63.6" y="19.3" width="0.4" height="4.5"/>
					<path d="M67.5,23.9c-1.3,0-2-0.9-2-2.3c0-1.4,0.7-2.3,2-2.3c1.3,0,2,0.9,2,2.3C69.5,23,68.8,23.9,67.5,23.9 M67.5,23.5
						c1.1,0,1.6-1,1.6-2c0-1-0.4-2-1.6-2c-1.1,0-1.6,1-1.6,2C65.9,22.5,66.4,23.5,67.5,23.5"/>
					<polygon points="70.9,19.3 71.3,19.3 73.8,23.3 73.8,23.3 73.8,19.3 74.2,19.3 74.2,23.8 73.7,23.8 71.3,19.9 71.3,19.9 
						71.3,23.8 70.9,23.8 					"/>
					<polygon points="34.9,16.1 33.1,16.1 33.1,13.5 30.8,13.5 30.8,16.1 29.1,16.1 29.1,9.4 30.8,9.4 30.8,11.9 33.1,11.9 
						33.1,9.4 34.9,9.4 					"/>
					<path d="M37.5,14.9l-0.3,1.1h-1.8l2-6.6h2.7l2,6.6h-1.8l-0.3-1.1H37.5z M38.7,10.8L38.7,10.8l-0.8,2.9h1.6L38.7,10.8z"/>
					<polygon points="44.3,16.1 42.5,16.1 42.5,9.4 45.3,9.4 46.6,13.6 46.6,13.6 47.8,9.4 50.7,9.4 50.7,16.1 48.9,16.1 49.1,11 
						49.1,11 47.4,16.1 45.8,16.1 44.1,11 44.1,11 					"/>
					<polygon points="59.3,9.4 61.1,9.4 59.6,16.1 57.1,16.1 56.2,11.9 56.1,11.9 55.1,16.1 52.6,16.1 51.2,9.4 53,9.4 53.9,14.5 
						54,14.5 55.2,9.4 57.1,9.4 58.2,14.5 58.3,14.5 					"/>
					<path d="M61.3,13.7v-1.9c0-2,1.3-2.4,3.1-2.4c1.8,0,3.1,0.4,3.1,2.4v1.9c0,2-1.3,2.4-3.1,2.4C62.6,16.1,61.3,15.7,61.3,13.7
						 M65.6,13.5V12c0-1-0.3-1.1-1.2-1.1c-0.9,0-1.2,0.1-1.2,1.1v1.5c0,1,0.3,1.1,1.2,1.1C65.3,14.6,65.6,14.5,65.6,13.5"/>
					<path d="M68.2,9.4h3.4c1.5,0,2.3,0.4,2.3,2c0,1.1,0,1.8-1.3,2v0.1c0.7,0,1.2,0.4,1.2,1.2v1.3h-1.8v-0.9c0-0.5-0.2-0.8-0.7-0.8
						H70v1.8h-1.8V9.4z M71.4,12.8c0.8,0,0.7-0.3,0.7-1c0-0.6-0.1-0.8-0.7-0.8H70v1.8H71.4z"/>
					<polygon points="77.9,16.1 76.2,16.1 76.2,11 74.5,11 74.5,9.4 79.7,9.4 79.7,11 77.9,11 					"/>
					<polygon points="86.3,16.1 84.5,16.1 84.5,13.5 82.2,13.5 82.2,16.1 80.5,16.1 80.5,9.4 82.2,9.4 82.2,11.9 84.5,11.9 
						84.5,9.4 86.3,9.4 					"/>
					<polygon points="91,13.7 91,16.1 89.3,16.1 89.3,13.7 86.9,9.4 88.9,9.4 90.1,12 90.2,12 91.4,9.4 93.4,9.4 					"/>
					<path d="M33.3,0.2v4.6c0,1.8-0.5,2.1-2.4,2.1c-1.8,0-2.2-0.4-2.2-2.3V4.1h1.7v0.5c0,0.5,0.1,0.7,0.5,0.7c0.5,0,0.6-0.1,0.6-0.6
						V0.2H33.3z"/>
					<path d="M34.1,4.5V2.6c0-2,1.3-2.4,3.1-2.4c1.8,0,3.1,0.4,3.1,2.4v1.9c0,2-1.3,2.4-3.1,2.4C35.4,6.9,34.1,6.5,34.1,4.5
						 M38.4,4.3V2.8c0-1-0.3-1.1-1.2-1.1c-0.9,0-1.2,0.1-1.2,1.1v1.5c0,1,0.3,1.1,1.2,1.1C38.1,5.4,38.4,5.3,38.4,4.3"/>
					<polygon points="46.8,6.9 45,6.9 45,4.3 42.7,4.3 42.7,6.9 40.9,6.9 40.9,0.2 42.7,0.2 42.7,2.7 45,2.7 45,0.2 46.8,0.2 					
						"/>
					<polygon points="49.5,6.9 47.7,6.9 47.7,0.2 50.7,0.2 52.6,5.3 52.7,5.3 52.6,0.2 54.3,0.2 54.3,6.9 51.3,6.9 49.4,1.8 
						49.4,1.8 					"/>
					<polygon points="63.7,1.7 60.5,5.3 60.5,5.3 63.7,5.3 63.7,6.9 58.3,6.9 58.3,5.4 61.4,1.8 61.4,1.8 58.5,1.8 58.5,0.2 
						63.7,0.2 					"/>
					<rect x="64.6" y="0.2" width="1.8" height="6.6"/>
					<polygon points="69.2,6.9 67.5,6.9 67.5,0.2 70.5,0.2 72.4,5.3 72.4,5.3 72.3,0.2 74.1,0.2 74.1,6.9 71.1,6.9 69.2,1.8 
						69.1,1.8 					"/>
					<polygon points="76.8,2.7 77.3,2.7 79,0.2 81.2,0.2 78.8,3.5 81.4,6.9 79.2,6.9 77.3,4.3 76.8,4.3 76.8,6.9 75,6.9 75,0.2 
						76.8,0.2 					"/>
					<polygon points="23.5,14.5 23.1,14.5 23.1,14.4 24.2,14.4 24.2,14.5 23.7,14.5 23.7,15.9 23.5,15.9 					"/>
					<path d="M25.7,15.2c0-0.2,0-0.5,0-0.7h0c-0.1,0.2-0.1,0.4-0.2,0.6l-0.3,0.8H25l-0.3-0.7c-0.1-0.2-0.1-0.4-0.2-0.6h0
						c0,0.2,0,0.4,0,0.7l0,0.7h-0.2l0.1-1.5h0.3l0.3,0.7c0.1,0.2,0.1,0.4,0.2,0.5h0c0-0.2,0.1-0.3,0.2-0.5l0.3-0.7h0.3l0.1,1.5h-0.2
						L25.7,15.2z"/>
				</g>
			</g>
		</g>
	</g>
	<g id="Koch_ChemTech_LTD">
		<g class="st1">
			<polygon class="st8" points="23.2,2.3 23.6,2.3 24.8,0.5 26.3,0.5 24.7,2.8 26.4,5.2 24.9,5.2 23.6,3.4 23.2,3.4 23.2,5.2 
				22,5.2 22,0.5 23.2,0.5 23.2,2.3 			"/>
			<path class="st8" d="M29.5,3.4V2.3c0-0.7-0.2-0.8-0.9-0.8c-0.7,0-0.9,0.1-0.9,0.8v1.1c0,0.7,0.2,0.8,0.9,0.8
				C29.3,4.1,29.5,4.1,29.5,3.4L29.5,3.4z M26.5,3.5V2.2c0-1.4,0.9-1.7,2.2-1.7s2.2,0.3,2.2,1.7v1.3c0,1.4-0.9,1.7-2.2,1.7
				S26.5,5,26.5,3.5L26.5,3.5z"/>
			<path class="st8" d="M35.4,3.4v0.1c0,0.5,0,1-0.4,1.3c-0.4,0.4-0.9,0.3-1.5,0.3c-1.3,0-2.2-0.1-2.2-1.8V2.2
				c0-1.6,0.8-1.8,2.2-1.8c1.3,0,1.9,0.1,1.9,1.5v0.2h-1.3V2c0-0.4-0.3-0.5-0.8-0.5c-0.7,0-0.8,0.2-0.8,0.9v0.7c0,0.7,0,1,0.8,1
				c0.5,0,0.8,0,0.8-0.6V3.4H35.4L35.4,3.4z"/>
			<polygon class="st8" points="40.1,5.2 38.8,5.2 38.8,3.4 37.2,3.4 37.2,5.2 36,5.2 36,0.5 37.2,0.5 37.2,2.3 38.8,2.3 38.8,0.5 
				40.1,0.5 40.1,5.2 			"/>
			<path class="st8" d="M47.1,3.4v0.1c0,0.5,0,1-0.4,1.3c-0.4,0.4-0.9,0.3-1.5,0.3c-1.3,0-2.2-0.1-2.2-1.8V2.2
				c0-1.6,0.8-1.8,2.2-1.8c1.3,0,1.9,0.1,1.9,1.5v0.2h-1.3V2c0-0.4-0.3-0.5-0.8-0.5c-0.7,0-0.8,0.2-0.8,0.9v0.7c0,0.7,0,1,0.8,1
				c0.5,0,0.8,0,0.8-0.6V3.4H47.1L47.1,3.4z"/>
			<polygon class="st8" points="51.8,5.2 50.6,5.2 50.6,3.4 48.9,3.4 48.9,5.2 47.7,5.2 47.7,0.5 48.9,0.5 48.9,2.3 50.6,2.3 
				50.6,0.5 51.8,0.5 51.8,5.2 			"/>
			<polygon class="st8" points="53.9,2.4 55.9,2.4 55.9,3.3 53.9,3.3 53.9,4.2 56,4.2 56,5.2 52.6,5.2 52.6,0.5 56,0.5 56,1.5 
				53.9,1.5 53.9,2.4 			"/>
			<polygon class="st8" points="58.1,5.2 56.8,5.2 56.8,0.5 58.8,0.5 59.7,3.4 59.7,3.4 60.6,0.5 62.6,0.5 62.6,5.2 61.4,5.2 
				61.5,1.6 61.5,1.6 60.3,5.2 59.2,5.2 58,1.6 58,1.6 58.1,5.2 			"/>
			<polygon class="st8" points="64.6,5.2 63.4,5.2 63.4,0.5 64.6,0.5 64.6,5.2 			"/>
			<path class="st8" d="M69.4,3.4v0.1c0,0.5,0,1-0.4,1.3c-0.4,0.4-0.9,0.3-1.5,0.3c-1.3,0-2.2-0.1-2.2-1.8V2.2
				c0-1.6,0.8-1.8,2.2-1.8c1.3,0,1.9,0.1,1.9,1.5v0.2h-1.3V2c0-0.4-0.3-0.5-0.8-0.5c-0.7,0-0.8,0.2-0.8,0.9v0.7c0,0.7,0,1,0.8,1
				c0.5,0,0.8,0,0.8-0.6V3.4H69.4L69.4,3.4z"/>
			<path class="st8" d="M71.9,1.4L71.9,1.4l-0.6,2h1.2L71.9,1.4L71.9,1.4z M71,4.4l-0.2,0.8h-1.3l1.4-4.7h1.9l1.4,4.7H73l-0.2-0.8
				H71L71,4.4z"/>
			<polygon class="st8" points="75.8,4.1 77.7,4.1 77.7,5.2 74.5,5.2 74.5,0.5 75.8,0.5 75.8,4.1 			"/>
			<polygon class="st8" points="24,11.9 22.8,11.9 22.8,8.3 21.6,8.3 21.6,7.3 25.3,7.3 25.3,8.3 24,8.3 24,11.9 			"/>
			<polygon class="st8" points="26.9,9.1 28.9,9.1 28.9,10 26.9,10 26.9,10.9 29.1,10.9 29.1,11.9 25.7,11.9 25.7,7.3 29.1,7.3 
				29.1,8.3 26.9,8.3 26.9,9.1 			"/>
			<path class="st8" d="M33.9,10.2v0.1c0,0.5,0,1-0.4,1.3C33,12,32.5,12,31.9,12c-1.3,0-2.2-0.1-2.2-1.8V9c0-1.6,0.8-1.8,2.2-1.8
				c1.3,0,1.9,0.1,1.9,1.5v0.2h-1.3V8.8c0-0.4-0.3-0.5-0.8-0.5c-0.7,0-0.8,0.2-0.8,0.9v0.7c0,0.7,0,1,0.8,1c0.5,0,0.8,0,0.8-0.6
				v-0.1H33.9L33.9,10.2z"/>
			<polygon class="st8" points="38.6,11.9 37.3,11.9 37.3,10.1 35.7,10.1 35.7,11.9 34.5,11.9 34.5,7.3 35.7,7.3 35.7,9 37.3,9 
				37.3,7.3 38.6,7.3 38.6,11.9 			"/>
			<polygon class="st8" points="40.6,11.9 39.4,11.9 39.4,7.3 41.5,7.3 42.8,10.9 42.9,10.9 42.8,7.3 44.1,7.3 44.1,11.9 41.9,11.9 
				40.6,8.3 40.5,8.3 40.6,11.9 			"/>
			<path class="st8" d="M47.7,10.1V9.1c0-0.7-0.2-0.8-0.9-0.8c-0.7,0-0.9,0.1-0.9,0.8v1.1c0,0.7,0.2,0.8,0.9,0.8
				C47.5,10.9,47.7,10.8,47.7,10.1L47.7,10.1z M44.6,10.3V8.9c0-1.4,0.9-1.7,2.2-1.7c1.3,0,2.2,0.3,2.2,1.7v1.3
				c0,1.4-0.9,1.7-2.2,1.7C45.5,12,44.6,11.7,44.6,10.3L44.6,10.3z"/>
			<polygon class="st8" points="50.8,10.9 52.8,10.9 52.8,11.9 49.5,11.9 49.5,7.3 50.8,7.3 50.8,10.9 			"/>
			<path class="st8" d="M56.1,10.1V9.1c0-0.7-0.2-0.8-0.9-0.8c-0.7,0-0.9,0.1-0.9,0.8v1.1c0,0.7,0.2,0.8,0.9,0.8
				C55.9,10.9,56.1,10.8,56.1,10.1L56.1,10.1z M53,10.3V8.9c0-1.4,0.9-1.7,2.2-1.7c1.3,0,2.2,0.3,2.2,1.7v1.3c0,1.4-0.9,1.7-2.2,1.7
				C53.9,12,53,11.7,53,10.3L53,10.3z"/>
			<path class="st8" d="M60.8,8.7c0-0.5-0.4-0.5-0.8-0.5c-0.9,0-0.9,0.3-0.9,1V10c0,0.8,0.3,0.9,0.9,0.9c0.6,0,0.8-0.1,0.8-0.8H60
				V9.3h2.1v0.8c0,1.6-0.4,1.9-2.1,1.9c-1.5,0-2.2-0.2-2.2-1.8V9c0-1.6,0.9-1.8,2.2-1.8c1.2,0,2.1,0,2.1,1.5H60.8L60.8,8.7z"/>
			<polygon class="st8" points="65.1,10.3 65.1,11.9 63.9,11.9 63.9,10.3 62.2,7.3 63.7,7.3 64.5,9.1 64.5,9.1 65.4,7.3 66.9,7.3 
				65.1,10.3 			"/>
			<path class="st8" d="M72.2,8.7c0-0.5-0.4-0.5-0.8-0.5c-0.9,0-0.9,0.3-0.9,1V10c0,0.8,0.3,0.9,0.9,0.9c0.6,0,0.8-0.1,0.8-0.8h-0.9
				V9.3h2.1v0.8c0,1.6-0.4,1.9-2.1,1.9c-1.5,0-2.2-0.2-2.2-1.8V9c0-1.6,0.9-1.8,2.2-1.8c1.2,0,2.1,0,2.1,1.5H72.2L72.2,8.7z"/>
			<path class="st8" d="M76.3,9.6c0.5,0,0.5-0.2,0.5-0.7c0-0.4-0.1-0.5-0.5-0.5h-1v1.3H76.3L76.3,9.6z M74.1,7.3h2.4
				c1.1,0,1.6,0.2,1.6,1.4c0,0.8,0,1.2-0.9,1.4v0.1c0.5,0,0.8,0.3,0.8,0.8v0.9h-1.3v-0.7c0-0.3-0.1-0.6-0.5-0.6h-1v1.2h-1.3V7.3
				L74.1,7.3z"/>
			<path class="st8" d="M81.6,10.1V9.1c0-0.7-0.2-0.8-0.9-0.8c-0.7,0-0.9,0.1-0.9,0.8v1.1c0,0.7,0.2,0.8,0.9,0.8
				C81.4,10.9,81.6,10.8,81.6,10.1L81.6,10.1z M78.6,10.3V8.9c0-1.4,0.9-1.7,2.2-1.7c1.3,0,2.2,0.3,2.2,1.7v1.3
				c0,1.4-0.9,1.7-2.2,1.7C79.5,12,78.6,11.7,78.6,10.3L78.6,10.3z"/>
			<path class="st8" d="M87.6,7.3v3.1c0,1.3-0.6,1.6-2,1.6c-1.9,0-2.1-0.5-2.1-1.6V7.3h1.3v3.1c0,0.5,0.3,0.5,0.8,0.5
				c0.5,0,0.7,0,0.7-0.6v-3H87.6L87.6,7.3z"/>
			<path class="st8" d="M90.4,9.7C90.9,9.6,91,9.6,91,9c0-0.5-0.1-0.6-0.6-0.6h-0.9v1.3H90.4L90.4,9.7z M88.3,11.9V7.3h2.4
				c1.2,0,1.6,0.5,1.6,1.7c0,1.3-0.3,1.8-1.6,1.8h-1.1v1.2H88.3L88.3,11.9z"/>
			<polygon class="st8" points="96.3,10.9 98.2,10.9 98.2,11.9 95,11.9 95,7.3 96.3,7.3 96.3,10.9 			"/>
			<polygon class="st8" points="100.3,11.9 99.1,11.9 99.1,8.3 97.9,8.3 97.9,7.3 101.6,7.3 101.6,8.3 100.3,8.3 100.3,11.9 			"/>
			<path class="st8" d="M103.2,10.9h1.1c0.5,0,0.6-0.3,0.6-0.8v-1c0-0.6-0.2-0.7-0.6-0.7h-1.1V10.9L103.2,10.9z M101.9,7.3h2.4
				c1.3,0,1.9,0.5,1.9,1.8v1c0,1.3-0.4,1.9-1.7,1.9h-2.5V7.3L101.9,7.3z"/>
			<path class="st8" d="M19.5,11.1l-0.3,0.8l-0.3-0.8h-0.3v1.1h0.2v-0.9l0.3,0.9h0.2l0.3-0.9v0.9h0.2v-1.1H19.5L19.5,11.1z
				 M17.5,11.1v0.2h0.4v0.9h0.2v-0.9h0.4v-0.2H17.5L17.5,11.1z"/>
			<path class="st9" d="M8.1,0.1L8.1,0.1h-8v12.1l7.9,0c0,0-1.9-6-1.9-6C6.2,6.1,8.1,0.1,8.1,0.1L8.1,0.1z"/>
			<polygon class="st9" points="10.9,0.1 7.3,6.2 10.9,12.2 16.5,12.2 16.5,0.1 10.9,0.1 			"/>
		</g>
	</g>
</g>
<g id="kaes_logos">
	<g class="st0">
		<g class="st1">
			<g>
				<path class="st10" d="M14.3-440.2c0,0-10.9-29.2,14.6-38.8c2.9-1.1,3.8-0.5,2.8,1c-0.6,0.9-12.7,11.3-13,42.3c0,1.8-2,1.2-2.5,0
					C15.5-437.4,14.7-439.3,14.3-440.2z"/>
				<path class="st10" d="M5.1-464.4c0,5.8-4.3,17.4,8.8,35c0,0,3.5,4.7,5.4,12.1c1.9,7.4,2.2,14,1.4,14.1c0,0,0.1,0.2-1.5,0.1
					c-0.8,0-2-3.2-2.7-4.5c-2.5-5.2-17.9-20.3-18.9-32.9c-1.1-12.6,1.7-21.7,4.6-25.3C5.1-469.4,5.1-464.4,5.1-464.4z"/>
				<path class="st10" d="M-14.2-445.4c1.5,5.8,8.9,19.8,15.6,27.1c6.3,6.9,17,18.5,22.5,27.7c3.3,5.5,5.3,14.9,5.8,19
					c0.5,4.1,0.4,11.1,0,12.8c-0.3,1.1-2.6,0.6-2.7-0.3c-0.2-0.9-0.2-14.7-5.7-21.8c-5.4-7.1-29.7-27.2-35.5-42.8
					c-4-10.7-3.6-19.9-3.6-23.1C-17.8-450.2-15.5-450.7-14.2-445.4z"/>
			</g>
			<g>
				<g>
					<path d="M119.7-440.3c-7.4,13.3-14.4,26.7-21.2,40.4c-3.2,6.5-4.1,9-5.3,12.2c-0.5-0.1-1-0.2-1.4-0.2c-0.4,0-0.8,0.1-1.3,0.2
						c-1.8-4.2-3-6.8-4.8-10.3c-7.2-13.8-15.4-29.5-22.1-41.3C61-424,59.1-397,59.2-387.7c-1.6-0.4-2.6-0.6-3.9-0.6
						c-2,0-3.9,0.4-4.9,0.6c1-4.8,8.2-48.9,10.6-71.3c0.5,0.1,1.1,0.2,1.7,0.2c0.5,0,1.3-0.1,2-0.2c3,6.8,23.1,44.7,29.6,55.2
						c16.5-30.6,18.3-34,24.4-45.5c2.5-4.8,3-5.8,4.7-9.7c0.7,0.1,1.2,0.2,1.8,0.2c0.5,0,1.1-0.1,1.9-0.2
						c2.4,21.6,5.7,52.1,8.4,68.6c0.1,0.7,0.2,1.4,0.6,2.8c-2.8-0.4-3.9-0.6-5.7-0.6c-3,0-4.6,0.3-6.4,0.6
						C124.1-398.7,120-437.6,119.7-440.3z"/>
					<path d="M154.4-412.6c0,2.9,0,8.7,2.8,13.4c4.7,7.7,11.4,8,14.3,8c10,0,14.8-6.1,16.3-8.3l1.2,0.3c-0.6,2.9-0.6,4.5-0.7,6.1
						c-4.5,4.3-10.8,6.7-19.1,6.7c-15.6,0-25.1-9.8-25.1-25.6c0-14.1,7.8-26,24.6-26c22.9,0,22.5,19.9,22.4,25.4H154.4z M181-417
						c0-3.4,0-17-12.3-17c-8.9,0-13.2,6.8-14.1,17H181z"/>
					<path d="M201.9-437.8c1.8,0.3,3.2,0.6,5.1,0.6c1.9,0,3.3-0.3,5-0.6c-0.1,1.5-0.4,8.3-0.5,9.7c2.7-4.8,8.3-10,18-10
						c16.8,0,17.6,12,17.6,17.8c0,1-0.4,18.3-0.4,21.8c0,1.9,0.1,9.1,0.3,10.7c-1.4-0.4-2.7-0.6-5.2-0.6c-2.7,0-3.9,0.2-5.4,0.6
						c0.9-11,0.9-22.2,0.9-24.1c0-10.2-0.5-20-11.9-20c-5.4,0-9.7,2.5-12.2,7.1c-1.8,3.6-1.8,15.2-1.8,20c0,8,0.5,13.2,0.8,17
						c-1.4-0.3-3.1-0.6-5.4-0.6c-2.4,0-3.9,0.3-5.4,0.6c0.5-6.3,1-12.8,1-28.2C202.4-422.7,202.1-430.6,201.9-437.8z"/>
					<path d="M280.5-438.4c9.6,0,15.1,5.3,16.7,9.5c0.1-11.6,0.1-24.6-0.4-34.5c1.4,0.3,2.7,0.6,5.1,0.6c2.5,0,4-0.3,5.6-0.6
						c-0.7,14.3-1,28.8-1,43.1c0,10.6,0.1,21.8,0.3,32.5c-1.4-0.3-2.6-0.6-4.8-0.6c-2.3,0-3.6,0.3-5,0.6c0.3-3.8,0.3-6.9,0.3-8.3
						c-3.4,6.3-10.2,9.7-17.4,9.7c-10.4,0-22.8-7.6-22.8-25.7C257.1-428.2,267.1-438.4,280.5-438.4z M293.3-396.8
						c1.8-2.5,4.2-6.1,4.2-16.3c0-4.1-0.3-8.3-2.3-12c-3.4-6.4-8.4-8.1-12.9-8.1c-14.7,0-14.7,17.2-14.7,20.6
						c0,15.5,7.4,21.1,14,21.1C287.3-391.4,291-393.7,293.3-396.8z"/>
					<path d="M327.4-412.6c0,2.9,0,8.7,2.8,13.4c4.7,7.7,11.4,8,14.3,8c10,0,14.8-6.1,16.3-8.3l1.2,0.3c-0.6,2.9-0.6,4.5-0.7,6.1
						c-4.5,4.3-10.8,6.7-19.1,6.7c-15.6,0-25.1-9.8-25.1-25.6c0-14.1,7.8-26,24.6-26c22.9,0,22.5,19.9,22.4,25.4H327.4z M354-417
						c0-3.4,0-17-12.3-17c-8.9,0-13.2,6.8-14.1,17H354z"/>
					<path d="M374.9-463.4c1.7,0.3,3.4,0.6,5.3,0.6c1.8,0,3.6-0.3,5.4-0.6c-0.5,14.9-0.7,20.7-0.7,38.4c0,16.1,0.2,22.9,0.8,37.2
						c-1.5-0.4-2.8-0.7-5.5-0.7c-2.6,0-3.7,0.3-5.2,0.7c0.6-10.3,0.6-13.2,0.6-39.5C375.5-450.6,375.5-453.1,374.9-463.4z"/>
				</g>
			</g>
		</g>
		<g class="st1">
			<path class="st11" d="M56.3-359.9H52v-16.4h4.4c4,0,5.9,1.7,5.9,4.3c0,1.7-1,2.8-2.6,3.4c2,0.5,3.4,1.8,3.4,3.9
				C63-361.5,60.5-359.9,56.3-359.9z M56.3-374.4h-1.9v5h1.7c2.4,0,3.7-1,3.7-2.6C59.8-373.5,58.8-374.4,56.3-374.4z M56.4-367.6h-2
				v5.8h2.1c2.6,0,4.1-1,4.1-2.9C60.6-366.6,59.1-367.6,56.4-367.6z"/>
			<path class="st11" d="M68.7-359.9v-16.4h2.5v16.4H68.7z"/>
			<path class="st11" d="M85.6-359.6c-5.1,0-8.4-3.4-8.4-8.5c0-5.1,3.3-8.5,8.4-8.5c5.2,0,8.4,3.4,8.4,8.5
				C94-363.1,90.7-359.6,85.6-359.6z M85.6-374.6c-3.6,0-5.8,2.5-5.8,6.5c0,3.9,2.2,6.5,5.8,6.5c3.6,0,5.8-2.5,5.8-6.5
				C91.5-372.1,89.2-374.6,85.6-374.6z"/>
			<path class="st11" d="M99.9-359.9v-16.4h2.5v14.4h6.6l0.3,2H99.9z"/>
			<path class="st11" d="M120.9-359.6c-5.1,0-8.4-3.4-8.4-8.5c0-5.1,3.3-8.5,8.4-8.5c5.2,0,8.4,3.4,8.4,8.5
				C129.3-363.1,126-359.6,120.9-359.6z M120.9-374.6c-3.6,0-5.8,2.5-5.8,6.5c0,3.9,2.2,6.5,5.8,6.5c3.6,0,5.8-2.5,5.8-6.5
				C126.8-372.1,124.5-374.6,120.9-374.6z"/>
			<path class="st11" d="M143.3-359.6c-5.8,0-8.9-3.4-8.9-8.5c0-5.1,3.2-8.5,8.7-8.5c2.4,0,4.1,0.5,5.5,1.4l-0.4,2.3
				c-1.3-1-3-1.6-5.2-1.6c-4,0-6.1,2.5-6.1,6.5c0,3.9,2.1,6.4,6.3,6.4c1.6,0,2.6-0.3,3.7-0.8v-4.3h-4.2l-0.3-2h7v7.7
				C147.9-360.3,145.7-359.6,143.3-359.6z"/>
			<path class="st11" d="M156-359.9v-16.4h2.5v16.4H156z"/>
			<path class="st11" d="M172.9-359.6c-5.1,0-8.4-3.4-8.4-8.5c0-5.1,3.4-8.5,8.5-8.5c2.2,0,3.8,0.5,5.2,1.4l-0.4,2.3
				c-1.3-0.9-2.9-1.6-4.8-1.6c-3.7,0-5.9,2.5-5.9,6.5c0,3.9,2.2,6.4,5.9,6.4c2,0,3.7-0.7,5.1-1.6l0.4,2.1
				C177-360.3,175-359.6,172.9-359.6z"/>
			<path class="st11" d="M189.9-376.4h2.5l7,16.2l-2.4,0.5l-2.2-5.1h-7.5l-2.1,4.9h-2.5L189.9-376.4z M188.2-366.8h5.8l-2.9-7
				L188.2-366.8z"/>
			<path class="st11" d="M204.6-359.9v-16.4h2.5v14.4h6.6l0.3,2H204.6z"/>
			<path class="st11" d="M239.5-359.7c-2,0-3.7-0.4-5.1-1.1l0.4-2.3c1.2,0.7,3,1.4,4.8,1.4c1.9,0,3.2-0.9,3.2-2.5
				c0-1.5-0.7-2.1-3.5-3.2c-3.4-1.4-4.7-2.4-4.7-4.8c0-2.6,2.2-4.3,5.5-4.3c1.8,0,3.1,0.4,4.1,0.9l-0.4,2.2c-1-0.7-2.4-1.2-3.8-1.2
				c-2.1,0-3,1-3,2.2c0,1.3,0.7,1.9,3.5,3c3.5,1.5,4.8,2.5,4.8,5C245.3-361.5,243-359.7,239.5-359.7z"/>
			<path class="st11" d="M258.5-359.6c-5.1,0-8.4-3.4-8.4-8.5c0-5.1,3.3-8.5,8.4-8.5c5.2,0,8.4,3.4,8.4,8.5
				C266.9-363.1,263.7-359.6,258.5-359.6z M258.5-374.6c-3.6,0-5.8,2.5-5.8,6.5c0,3.9,2.2,6.5,5.8,6.5c3.6,0,5.8-2.5,5.8-6.5
				C264.4-372.1,262.1-374.6,258.5-374.6z"/>
			<path class="st11" d="M272.8-359.9v-16.4h2.5v14.4h6.6l0.3,2H272.8z"/>
			<path class="st11" d="M293.7-359.6c-4.4,0-7.1-2.5-7.1-6.5v-10.2h2.5v9.9c0,2.9,1.4,4.8,4.6,4.8c3.1,0,4.6-1.7,4.6-4.7v-10h2.5
				v10.1C300.8-362.1,298.1-359.6,293.7-359.6z"/>
			<path class="st11" d="M314.2-374.3v14.4h-2.5v-14.4h-5.8v-2h13.9l0.4,2H314.2z"/>
			<path class="st11" d="M325.5-359.9v-16.4h2.5v16.4H325.5z"/>
			<path class="st11" d="M342.3-359.6c-5.1,0-8.4-3.4-8.4-8.5c0-5.1,3.3-8.5,8.4-8.5c5.2,0,8.4,3.4,8.4,8.5
				C350.8-363.1,347.5-359.6,342.3-359.6z M342.4-374.6c-3.6,0-5.8,2.5-5.8,6.5c0,3.9,2.2,6.5,5.8,6.5c3.6,0,5.8-2.5,5.8-6.5
				C348.2-372.1,345.9-374.6,342.4-374.6z"/>
			<path class="st11" d="M368.9-359.9l-10-12.8v12.8h-2.3v-16.4h2.2l9.7,12.3v-12.3h2.3v16.4H368.9z"/>
			<path class="st11" d="M381.7-359.7c-2,0-3.7-0.4-5.1-1.1l0.4-2.3c1.2,0.7,3,1.4,4.8,1.4c1.9,0,3.2-0.9,3.2-2.5
				c0-1.5-0.7-2.1-3.5-3.2c-3.4-1.4-4.7-2.4-4.7-4.8c0-2.6,2.2-4.3,5.5-4.3c1.8,0,3.1,0.4,4.1,0.9l-0.4,2.2c-1-0.7-2.4-1.2-3.8-1.2
				c-2.1,0-3,1-3,2.2c0,1.3,0.7,1.9,3.5,3c3.5,1.5,4.8,2.5,4.8,5C387.5-361.5,385.1-359.7,381.7-359.7z"/>
		</g>
	</g>
	<g id="agromic_services" class="st0">
		<g class="st1">
			<g>
				<path d="M27.2,5.1c0.1-0.1,4.7-5,4.7-5h-4.4c0,0-4.1,3.8-4.3,4v-4h-4.1v11.2h4.1V9c0,0,0.8-0.7,0.9-0.8c0.1,0.1,2.6,3.2,2.6,3.2
					h5.6C32.2,11.4,27.2,5.2,27.2,5.1"/>
				<polygon points="68.5,0.2 68.5,4.2 64.9,4.2 64.9,0.2 60.7,0.2 60.7,11.4 64.9,11.4 64.9,7.3 68.4,7.3 68.4,11.4 72.8,11.4 
					72.8,0.2 				"/>
				<path d="M40.6,3.6v4.5c0,0.5-0.3,0.8-0.7,0.8h-2.4c-0.4,0-0.7-0.4-0.7-0.8V3.6c0-0.5,0.3-0.8,0.7-0.8h2.4
					C40.2,2.8,40.6,3.1,40.6,3.6 M42.3,0.2H35c-1.4,0-2.5,1.3-2.5,2.8v5.6c0,1.5,1.1,2.8,2.5,2.8h7.3c1.4,0,2.5-1.3,2.5-2.8V3
					C44.8,1.4,43.6,0.2,42.3,0.2"/>
				<path d="M58.7,4.2V3.4c0-1-0.4-2-1-2.6c-0.4-0.4-0.8-0.6-1.3-0.6h-7.6c-1.2,0-2.2,1.4-2.2,3.2v4.8c0,1.8,1,3.2,2.2,3.2h7.6
					c1.2,0,2.2-1.4,2.2-3.2V6.9l-4,0l-0.1,1.1c0,0.5-0.4,0.9-0.7,0.9h-2.3c-0.4,0-0.7-0.4-0.7-0.8V3.6c0-0.4,0.3-0.8,0.7-0.8h2.3
					c0.4,0,0.7,0.4,0.7,0.8v0.6H58.7z"/>
				<path d="M73.7,9.9v0.2h0.5v1.2h0.3v-1.2h0.5V9.9H73.7z M76.3,9.9l-0.4,1l-0.4-1h-0.4v1.4h0.3v-1.2l0.4,1.2h0.2l0.4-1.2v1.2h0.3
					V9.9H76.3z"/>
				<g>
					<path class="st5" d="M7.6,0.2L7.6,0.2H0.2v11.2l7.3,0c0,0-1.7-5.5-1.7-5.6C5.8,5.8,7.6,0.2,7.6,0.2z"/>
					<polygon class="st4" points="10.2,0.2 6.9,5.8 10.2,11.4 15.4,11.4 15.4,0.2 					"/>
				</g>
			</g>
			<rect x="0.2" y="16.6" width="72.6" height="0.6"/>
		</g>
		<g class="st1">
			<path d="M1.2,23.6l-0.4,1.1H0.2l1.8-5h0.8l1.9,5H4.1l-0.4-1.1H1.2z M2.5,20.1l-1.1,3h2.2L2.5,20.1z"/>
			<path d="M9.2,22.1v1.1c0,1.2-0.5,1.5-1.7,1.5H7c-1.3,0-1.9-0.2-1.9-1.8v-1.5c0-1.4,0.6-1.7,1.5-1.7h1.3c0.8,0,1.3,0.3,1.3,1.1
				v0.4H8.6v-0.3c0-0.6-0.2-0.7-1-0.7H6.9c-1.1,0-1.2,0.2-1.2,1.3V23c0,1,0.3,1.2,1.3,1.2h0.5c1,0,1.2-0.1,1.2-0.9v-0.6H7v-0.5H9.2z
				"/>
			<path d="M10.4,24.6H9.9v-5h2.3c1.1,0,1.6,0.3,1.6,1.4c0,0.7-0.1,1.2-0.9,1.3v0c0.6,0,0.8,0.4,0.8,0.9v1.3h-0.6v-1.1
				c0-0.6-0.2-0.9-0.8-0.9h-1.8V24.6z M12.2,22.1c0.9,0,1-0.3,1-1.1c0-0.6-0.1-0.9-1-0.9h-1.7v2H12.2z"/>
			<path d="M16.7,19.6c1.2,0,1.6,0.4,1.6,1.7V23c0,1.2-0.4,1.6-1.6,1.6H16c-1.2,0-1.6-0.4-1.6-1.6v-1.8c0-1.3,0.4-1.7,1.6-1.7H16.7z
				 M16,20.1c-0.8,0-1.1,0.2-1.1,1.2V23c0,1,0.3,1.1,1.1,1.1h0.7c0.7,0,1.1-0.1,1.1-1.1v-1.8c0-1-0.2-1.2-1.1-1.2H16z"/>
			<path d="M23.3,24.6h-0.9l-2.8-4.5h0v4.5H19v-5h0.9l2.8,4.6h0v-4.6h0.6V24.6z"/>
			<path d="M26.4,19.6c1.2,0,1.6,0.4,1.6,1.7V23c0,1.2-0.4,1.6-1.6,1.6h-0.7c-1.2,0-1.6-0.4-1.6-1.6v-1.8c0-1.3,0.4-1.7,1.6-1.7
				H26.4z M25.7,20.1c-0.8,0-1.1,0.2-1.1,1.2V23c0,1,0.3,1.1,1.1,1.1h0.7c0.7,0,1.1-0.1,1.1-1.1v-1.8c0-1-0.2-1.2-1.1-1.2H25.7z"/>
			<path d="M31.8,24.6h-0.6L29.3,20h0v4.6h-0.6v-5h1l1.8,4.3l1.8-4.3h1v5h-0.6V20h0L31.8,24.6z"/>
			<path d="M35.7,24.6h-0.6v-5h0.6V24.6z"/>
			<path d="M38,24.7c-0.9,0-1.5-0.6-1.5-1.6v-1.9c0-1.4,0.9-1.6,2.1-1.6h0.5c1,0,1.4,0.5,1.4,1.4v0.2h-0.6V21c0-0.7-0.1-1-0.9-1
				h-0.3c-1.2,0-1.6,0.1-1.6,1.1v1.4c0,1.1,0,1.7,1,1.7h0.7c0.9,0,1.2-0.1,1.2-0.8v-0.4h0.6v0.5c0,1.1-0.7,1.3-1.7,1.3H38z"/>
			<path d="M43.2,21c0-1.3,0.6-1.5,1.8-1.5c1.1,0,1.9,0,1.8,1.4h-0.6c0-0.9-0.2-0.9-1.3-0.9c-1.1,0-1.3,0.1-1.3,0.8
				c0,1,0.5,0.9,1.4,0.9c1.2,0.1,1.8,0,1.8,1.4c0,1.4-0.7,1.5-1.9,1.5c-1.3,0-1.9-0.2-1.8-1.6h0.6c0,1.1,0.2,1.1,1.3,1.1
				c1.1,0,1.4,0,1.4-1c0-1-0.4-0.8-1.3-0.9C44,22.2,43.2,22.4,43.2,21z"/>
			<path d="M48,21.8h2.5v0.5H48v1.8h2.7v0.5h-3.2v-5h3.2v0.5H48V21.8z"/>
			<path d="M51.9,24.6h-0.6v-5h2.3c1.1,0,1.6,0.3,1.6,1.4c0,0.7-0.1,1.2-0.9,1.3v0c0.6,0,0.8,0.4,0.8,0.9v1.3h-0.6v-1.1
				c0-0.6-0.2-0.9-0.8-0.9h-1.8V24.6z M53.7,22.1c0.9,0,1-0.3,1-1.1c0-0.6-0.1-0.9-1-0.9h-1.7v2H53.7z"/>
			<path d="M59.9,19.6l-1.8,5h-0.8l-1.8-5h0.6l1.6,4.6h0l1.6-4.6H59.9z"/>
			<path d="M60.9,24.6h-0.6v-5h0.6V24.6z"/>
			<path d="M63.1,24.7c-0.9,0-1.5-0.6-1.5-1.6v-1.9c0-1.4,0.9-1.6,2.1-1.6h0.5c1,0,1.4,0.5,1.4,1.4v0.2H65V21c0-0.7-0.1-1-0.9-1
				h-0.3c-1.2,0-1.6,0.1-1.6,1.1v1.4c0,1.1,0,1.7,1,1.7h0.7c0.9,0,1.2-0.1,1.2-0.8v-0.4h0.6v0.5c0,1.1-0.7,1.3-1.7,1.3H63.1z"/>
			<path d="M66.7,21.8h2.5v0.5h-2.5v1.8h2.7v0.5h-3.2v-5h3.2v0.5h-2.7V21.8z"/>
			<path d="M69.8,21c0-1.3,0.6-1.5,1.8-1.5c1.1,0,1.9,0,1.8,1.4h-0.6c0-0.9-0.2-0.9-1.3-0.9c-1.1,0-1.3,0.1-1.3,0.8
				c0,1,0.5,0.9,1.4,0.9c1.2,0.1,1.8,0,1.8,1.4c0,1.4-0.7,1.5-1.9,1.5c-1.3,0-1.9-0.2-1.8-1.6h0.6c0,1.1,0.2,1.1,1.3,1.1
				c1.1,0,1.4,0,1.4-1c0-1-0.4-0.8-1.3-0.9C70.7,22.2,69.8,22.4,69.8,21z"/>
		</g>
	</g>
	<g id="mendel" class="st0">
		<g class="st1">
			<g>
				<g>
					<path class="st10" d="M5.8,8.6c0,0-1.9-5.2,2.6-6.9C9,1.5,9.1,1.6,8.9,1.8C8.8,2,6.7,3.8,6.6,9.4c0,0.3-0.4,0.2-0.4,0
						C6,9.1,5.9,8.7,5.8,8.6z"/>
					<path class="st10" d="M4.2,4.2c0,1-0.8,3.1,1.6,6.3c0,0,0.6,0.8,1,2.2C7.1,14,7.1,15.2,7,15.2c0,0,0,0-0.3,0
						c-0.1,0-0.4-0.6-0.5-0.8C5.8,13.5,3,10.8,2.8,8.5C2.6,6.3,3.2,4.6,3.7,4C4.2,3.4,4.2,4.2,4.2,4.2z"/>
					<path class="st10" d="M0.7,7.6c0.3,1,1.6,3.5,2.8,4.8c1.1,1.2,3,3.3,4,4.9c0.6,1,0.9,2.7,1,3.4c0.1,0.7,0.1,2,0,2.3
						c0,0.2-0.5,0.1-0.5-0.1c0-0.2,0-2.6-1-3.9c-1-1.3-5.3-4.9-6.3-7.6C0,9.6,0.1,8,0.1,7.4C0.1,6.8,0.5,6.7,0.7,7.6z"/>
				</g>
				<g>
					<g>
						<path d="M24.6,8.6c-1.3,2.4-2.6,4.8-3.8,7.2c-0.6,1.2-0.7,1.6-1,2.2c-0.1,0-0.2,0-0.3,0c-0.1,0-0.1,0-0.2,0
							c-0.3-0.7-0.5-1.2-0.9-1.8c-1.3-2.5-2.7-5.3-4-7.4c-0.4,2.7-0.8,7.6-0.7,9.2c-0.3-0.1-0.5-0.1-0.7-0.1c-0.4,0-0.7,0.1-0.9,0.1
							c0.2-0.9,1.5-8.7,1.9-12.7c0.1,0,0.2,0,0.3,0c0.1,0,0.2,0,0.4,0c0.5,1.2,4.1,8,5.3,9.9c2.9-5.5,3.3-6.1,4.4-8.1
							c0.4-0.9,0.5-1,0.8-1.7c0.1,0,0.2,0,0.3,0c0.1,0,0.2,0,0.3,0c0.4,3.9,1,9.3,1.5,12.2c0,0.1,0,0.3,0.1,0.5
							c-0.5-0.1-0.7-0.1-1-0.1c-0.5,0-0.8,0.1-1.1,0.1C25.4,16,24.7,9,24.6,8.6z"/>
						<path d="M30.8,13.5c0,0.5,0,1.6,0.5,2.4c0.8,1.4,2,1.4,2.6,1.4c1.8,0,2.6-1.1,2.9-1.5l0.2,0.1c-0.1,0.5-0.1,0.8-0.1,1.1
							c-0.8,0.8-1.9,1.2-3.4,1.2c-2.8,0-4.5-1.8-4.5-4.6c0-2.5,1.4-4.6,4.4-4.6c4.1,0,4,3.5,4,4.5H30.8z M35.6,12.7c0-0.6,0-3-2.2-3
							c-1.6,0-2.4,1.2-2.5,3H35.6z"/>
						<path d="M39.3,9c0.3,0.1,0.6,0.1,0.9,0.1c0.3,0,0.6-0.1,0.9-0.1c0,0.3-0.1,1.5-0.1,1.7C41.5,9.9,42.5,9,44.2,9
							c3,0,3.1,2.1,3.1,3.2c0,0.2-0.1,3.3-0.1,3.9c0,0.3,0,1.6,0.1,1.9c-0.3-0.1-0.5-0.1-0.9-0.1c-0.5,0-0.7,0-1,0.1
							c0.2-2,0.2-4,0.2-4.3c0-1.8-0.1-3.6-2.1-3.6c-1,0-1.7,0.4-2.2,1.3C41,12,41,14,41,14.9c0,1.4,0.1,2.4,0.1,3
							c-0.3-0.1-0.5-0.1-1-0.1c-0.4,0-0.7,0.1-1,0.1c0.1-1.1,0.2-2.3,0.2-5C39.4,11.7,39.3,10.3,39.3,9z"/>
						<path d="M53.3,8.9c1.7,0,2.7,1,3,1.7c0-2.1,0-4.4-0.1-6.2c0.3,0.1,0.5,0.1,0.9,0.1c0.4,0,0.7-0.1,1-0.1C58,7,58,9.6,58,12.1
							c0,1.9,0,3.9,0.1,5.8c-0.3-0.1-0.5-0.1-0.9-0.1c-0.4,0-0.6,0.1-0.9,0.1c0.1-0.7,0.1-1.2,0.1-1.5c-0.6,1.1-1.8,1.7-3.1,1.7
							c-1.8,0-4.1-1.4-4.1-4.6C49.2,10.7,50.9,8.9,53.3,8.9z M55.6,16.3c0.3-0.4,0.7-1.1,0.7-2.9c0-0.7-0.1-1.5-0.4-2.1
							c-0.6-1.1-1.5-1.4-2.3-1.4c-2.6,0-2.6,3.1-2.6,3.7c0,2.8,1.3,3.8,2.5,3.8C54.5,17.3,55.2,16.9,55.6,16.3z"/>
						<path d="M61.7,13.5c0,0.5,0,1.6,0.5,2.4c0.8,1.4,2,1.4,2.6,1.4c1.8,0,2.6-1.1,2.9-1.5l0.2,0.1c-0.1,0.5-0.1,0.8-0.1,1.1
							c-0.8,0.8-1.9,1.2-3.4,1.2c-2.8,0-4.5-1.8-4.5-4.6c0-2.5,1.4-4.6,4.4-4.6c4.1,0,4,3.5,4,4.5H61.7z M66.4,12.7c0-0.6,0-3-2.2-3
							c-1.6,0-2.4,1.2-2.5,3H66.4z"/>
						<path d="M70.2,4.4c0.3,0.1,0.6,0.1,1,0.1c0.3,0,0.6-0.1,1-0.1C72,7.1,72,8.1,72,11.3c0,2.9,0,4.1,0.1,6.6
							c-0.3-0.1-0.5-0.1-1-0.1c-0.5,0-0.7,0.1-0.9,0.1c0.1-1.8,0.1-2.4,0.1-7C70.3,6.7,70.3,6.3,70.2,4.4z"/>
					</g>
				</g>
			</g>
			<g>
				<path class="st11" d="M13.3,22.9h-0.8V20h0.8c0.7,0,1.1,0.3,1.1,0.8c0,0.3-0.2,0.5-0.5,0.6c0.4,0.1,0.6,0.3,0.6,0.7
					C14.5,22.6,14.1,22.9,13.3,22.9z M13.3,20.3H13v0.9h0.3c0.4,0,0.7-0.2,0.7-0.5C13.9,20.5,13.8,20.3,13.3,20.3z M13.3,21.5H13v1
					h0.4c0.5,0,0.7-0.2,0.7-0.5C14.1,21.7,13.8,21.5,13.3,21.5z"/>
				<path class="st11" d="M15.5,22.9V20H16v2.9H15.5z"/>
				<path class="st11" d="M18.5,23c-0.9,0-1.5-0.6-1.5-1.5c0-0.9,0.6-1.5,1.5-1.5c0.9,0,1.5,0.6,1.5,1.5C20,22.3,19.5,23,18.5,23z
					 M18.5,20.3c-0.6,0-1,0.4-1,1.2c0,0.7,0.4,1.2,1,1.2c0.6,0,1-0.4,1-1.2C19.6,20.7,19.2,20.3,18.5,20.3z"/>
				<path class="st11" d="M21.1,22.9V20h0.4v2.6h1.2l0.1,0.4H21.1z"/>
				<path class="st11" d="M24.8,23c-0.9,0-1.5-0.6-1.5-1.5c0-0.9,0.6-1.5,1.5-1.5c0.9,0,1.5,0.6,1.5,1.5C26.3,22.3,25.8,23,24.8,23z
					 M24.8,20.3c-0.6,0-1,0.4-1,1.2c0,0.7,0.4,1.2,1,1.2c0.6,0,1-0.4,1-1.2C25.9,20.7,25.5,20.3,24.8,20.3z"/>
				<path class="st11" d="M28.8,23c-1,0-1.6-0.6-1.6-1.5c0-0.9,0.6-1.5,1.5-1.5c0.4,0,0.7,0.1,1,0.3l-0.1,0.4
					c-0.2-0.2-0.5-0.3-0.9-0.3c-0.7,0-1.1,0.4-1.1,1.2c0,0.7,0.4,1.1,1.1,1.1c0.3,0,0.5-0.1,0.7-0.1v-0.8h-0.7l-0.1-0.4h1.2v1.4
					C29.7,22.8,29.3,23,28.8,23z"/>
				<path class="st11" d="M31.1,22.9V20h0.4v2.9H31.1z"/>
				<path class="st11" d="M34.1,23c-0.9,0-1.5-0.6-1.5-1.5c0-0.9,0.6-1.5,1.5-1.5c0.4,0,0.7,0.1,0.9,0.2L35,20.6
					c-0.2-0.2-0.5-0.3-0.9-0.3c-0.7,0-1.1,0.4-1.1,1.2c0,0.7,0.4,1.1,1.1,1.1c0.3,0,0.7-0.1,0.9-0.3l0.1,0.4
					C34.9,22.8,34.5,23,34.1,23z"/>
				<path class="st11" d="M37.2,20h0.4l1.3,2.9l-0.4,0.1L38,22h-1.3l-0.4,0.9h-0.4L37.2,20z M36.9,21.7h1l-0.5-1.2L36.9,21.7z"/>
				<path class="st11" d="M39.8,22.9V20h0.4v2.6h1.2l0.1,0.4H39.8z"/>
				<path class="st11" d="M46,22.9c-0.4,0-0.7-0.1-0.9-0.2l0.1-0.4c0.2,0.1,0.5,0.3,0.9,0.3c0.3,0,0.6-0.2,0.6-0.4
					c0-0.3-0.1-0.4-0.6-0.6c-0.6-0.3-0.8-0.4-0.8-0.9c0-0.5,0.4-0.8,1-0.8c0.3,0,0.6,0.1,0.7,0.2l-0.1,0.4c-0.2-0.1-0.4-0.2-0.7-0.2
					c-0.4,0-0.5,0.2-0.5,0.4c0,0.2,0.1,0.3,0.6,0.5c0.6,0.3,0.8,0.5,0.8,0.9C47,22.6,46.6,22.9,46,22.9z"/>
				<path class="st11" d="M49.4,23c-0.9,0-1.5-0.6-1.5-1.5c0-0.9,0.6-1.5,1.5-1.5c0.9,0,1.5,0.6,1.5,1.5C50.9,22.3,50.3,23,49.4,23z
					 M49.4,20.3c-0.6,0-1,0.4-1,1.2c0,0.7,0.4,1.2,1,1.2c0.6,0,1-0.4,1-1.2C50.4,20.7,50,20.3,49.4,20.3z"/>
				<path class="st11" d="M51.9,22.9V20h0.4v2.6h1.2l0.1,0.4H51.9z"/>
				<path class="st11" d="M55.7,23c-0.8,0-1.3-0.4-1.3-1.2V20h0.4v1.8c0,0.5,0.3,0.8,0.8,0.8c0.6,0,0.8-0.3,0.8-0.8V20H57v1.8
					C57,22.5,56.5,23,55.7,23z"/>
				<path class="st11" d="M59.3,20.3v2.6h-0.4v-2.6h-1V20h2.5l0.1,0.4H59.3z"/>
				<path class="st11" d="M61.3,22.9V20h0.4v2.9H61.3z"/>
				<path class="st11" d="M64.4,23c-0.9,0-1.5-0.6-1.5-1.5c0-0.9,0.6-1.5,1.5-1.5c0.9,0,1.5,0.6,1.5,1.5C65.9,22.3,65.3,23,64.4,23z
					 M64.4,20.3c-0.6,0-1,0.4-1,1.2c0,0.7,0.4,1.2,1,1.2c0.6,0,1-0.4,1-1.2C65.4,20.7,65,20.3,64.4,20.3z"/>
				<path class="st11" d="M69.1,22.9l-1.8-2.3v2.3h-0.4V20h0.4l1.7,2.2V20h0.4v2.9H69.1z"/>
				<path class="st11" d="M71.4,22.9c-0.4,0-0.7-0.1-0.9-0.2l0.1-0.4c0.2,0.1,0.5,0.3,0.9,0.3c0.3,0,0.6-0.2,0.6-0.4
					c0-0.3-0.1-0.4-0.6-0.6c-0.6-0.3-0.8-0.4-0.8-0.9c0-0.5,0.4-0.8,1-0.8c0.3,0,0.6,0.1,0.7,0.2l-0.1,0.4c-0.2-0.1-0.4-0.2-0.7-0.2
					c-0.4,0-0.5,0.2-0.5,0.4c0,0.2,0.1,0.3,0.6,0.5c0.6,0.3,0.8,0.5,0.8,0.9C72.4,22.6,72,22.9,71.4,22.9z"/>
			</g>
		</g>
	</g>
	<g id="fertilizer" class="st0">
		<g class="st1">
			<g>
				<path d="M27.2,5.2c0.1-0.1,4.7-5,4.7-5h-4.4c0,0-4.1,3.8-4.3,4v-4h-4.1v11.2h4.1V9c0,0,0.8-0.7,0.9-0.8c0.1,0.1,2.6,3.2,2.6,3.2
					h5.6C32.2,11.4,27.3,5.2,27.2,5.2"/>
				<polygon points="68.5,0.2 68.5,4.2 65,4.2 65,0.2 60.7,0.2 60.7,11.4 65,11.4 65,7.3 68.5,7.3 68.5,11.4 72.8,11.4 72.8,0.2 
									"/>
				<path d="M40.6,3.6v4.5c0,0.5-0.3,0.8-0.7,0.8h-2.4c-0.4,0-0.7-0.4-0.7-0.8V3.6c0-0.5,0.3-0.8,0.7-0.8h2.4
					C40.3,2.8,40.6,3.2,40.6,3.6 M42.3,0.2H35c-1.4,0-2.5,1.3-2.5,2.8v5.6c0,1.5,1.1,2.8,2.5,2.8h7.3c1.4,0,2.5-1.3,2.5-2.8V3
					C44.8,1.5,43.7,0.2,42.3,0.2"/>
				<path d="M58.8,4.3V3.4c0-1-0.4-2-1-2.6c-0.4-0.4-0.8-0.6-1.3-0.6h-7.6c-1.2,0-2.2,1.4-2.2,3.2v4.8c0,1.8,1,3.2,2.2,3.2h7.6
					c1.2,0,2.2-1.4,2.2-3.2V6.9l-4,0L54.7,8c0,0.5-0.4,0.9-0.7,0.9h-2.3c-0.4,0-0.7-0.4-0.7-0.8V3.6c0-0.4,0.3-0.8,0.7-0.8h2.3
					c0.4,0,0.7,0.4,0.7,0.8v0.6H58.8z"/>
				<path d="M73.7,9.9v0.2h0.5v1.2h0.3v-1.2H75V9.9H73.7z M76.4,9.9l-0.4,1l-0.4-1h-0.4v1.4h0.3v-1.2l0.4,1.2h0.2l0.4-1.2v1.2h0.3
					V9.9H76.4z"/>
				<g>
					<path class="st5" d="M7.7,0.2L7.7,0.2H0.3v11.2l7.3,0c0,0-1.7-5.5-1.7-5.6C5.9,5.8,7.7,0.2,7.7,0.2z"/>
					<polygon class="st4" points="10.3,0.2 6.9,5.8 10.3,11.4 15.4,11.4 15.4,0.2 					"/>
				</g>
			</g>
			<g>
				<path d="M0.8,21.9h2.4v0.5H0.8v2.3H0.3v-5h3.1v0.5H0.8V21.9z"/>
				<path d="M4.3,21.8h2.5v0.5H4.3v1.8H7v0.5H3.8v-5H7v0.5H4.3V21.8z"/>
				<path d="M8.3,24.6H7.7v-5H10c1.1,0,1.6,0.3,1.6,1.4c0,0.7-0.1,1.2-0.9,1.3v0c0.6,0,0.8,0.4,0.8,0.9v1.3h-0.6v-1.1
					c0-0.6-0.2-0.9-0.8-0.9H8.3V24.6z M10,22.1c0.9,0,1-0.3,1-1.1c0-0.6-0.1-0.9-1-0.9H8.3v2H10z"/>
				<path d="M14.1,24.6h-0.6v-4.5h-1.6v-0.5h3.8v0.5h-1.6V24.6z"/>
				<path d="M16.8,24.6h-0.6v-5h0.6V24.6z"/>
				<path d="M18.3,24.1h2.5v0.5h-3.1v-5h0.6V24.1z"/>
				<path d="M22,24.6h-0.6v-5H22V24.6z"/>
				<path d="M26.5,20.2l-3.1,4h3.2v0.5h-3.9v-0.5l3.1-4h-3v-0.5h3.7V20.2z"/>
				<path d="M27.6,21.8h2.5v0.5h-2.5v1.8h2.6v0.5H27v-5h3.2v0.5h-2.6V21.8z"/>
				<path d="M31.5,24.6h-0.6v-5h2.3c1.1,0,1.6,0.3,1.6,1.4c0,0.7-0.1,1.2-0.9,1.3v0c0.6,0,0.8,0.4,0.8,0.9v1.3h-0.6v-1.1
					c0-0.6-0.2-0.9-0.8-0.9h-1.8V24.6z M33.3,22.1c0.9,0,1-0.3,1-1.1c0-0.6-0.1-0.9-1-0.9h-1.7v2H33.3z"/>
			</g>
		</g>
		<rect x="0.2" y="16.7" class="st1" width="72.6" height="0.4"/>
	</g>
	<g id="energy" class="st0">
		<g class="st1">
			<g>
				<g>
					<path d="M27.3,5c0.1-0.1,4.7-5,4.7-5h-4.4c0,0-4.1,3.8-4.3,4v-4h-4.1v11.2h4.1V8.9c0,0,0.8-0.7,0.9-0.8
						c0.1,0.1,2.6,3.2,2.6,3.2h5.6C32.3,11.3,27.4,5.1,27.3,5"/>
					<polygon points="68.6,0.1 68.6,4.1 65.1,4.1 65,0.1 60.8,0.1 60.8,11.3 65.1,11.3 65.1,7.2 68.6,7.2 68.6,11.3 72.9,11.3 
						72.9,0.1 					"/>
					<path d="M40.7,3.5V8c0,0.5-0.3,0.8-0.7,0.8h-2.4c-0.4,0-0.7-0.4-0.7-0.8V3.5c0-0.5,0.3-0.8,0.7-0.8H40
						C40.4,2.7,40.7,3.1,40.7,3.5 M42.4,0.1h-7.3c-1.4,0-2.5,1.3-2.5,2.8v5.6c0,1.5,1.1,2.8,2.5,2.8h7.3c1.4,0,2.5-1.3,2.5-2.8V2.9
						C44.9,1.4,43.8,0.1,42.4,0.1"/>
					<path d="M58.8,4.2V3.3c0-1-0.4-2-1-2.6c-0.4-0.4-0.8-0.6-1.3-0.6H49c-1.2,0-2.2,1.4-2.2,3.2v4.8c0,1.8,1,3.2,2.2,3.2h7.6
						c1.2,0,2.2-1.4,2.2-3.2V6.8l-4,0l-0.1,1.1c0,0.5-0.4,0.9-0.7,0.9h-2.3c-0.4,0-0.7-0.4-0.7-0.8V3.5c0-0.4,0.3-0.8,0.7-0.8H54
						c0.4,0,0.7,0.4,0.7,0.8v0.6H58.8z"/>
					<path d="M73.8,9.8v0.2h0.5v1.2h0.3v-1.2h0.5V9.8H73.8z M76.5,9.8l-0.4,1l-0.4-1h-0.4v1.4h0.3v-1.2l0.4,1.2h0.2l0.4-1.2v1.2h0.3
						V9.8H76.5z"/>
					<g>
						<path class="st5" d="M7.7,0.1L7.7,0.1H0.3v11.2l7.3,0c0,0-1.7-5.5-1.7-5.6C5.9,5.7,7.7,0.1,7.7,0.1z"/>
						<polygon class="st4" points="10.3,0.1 7,5.7 10.3,11.3 15.5,11.3 15.5,0.1 						"/>
					</g>
				</g>
			</g>
			<g>
				<rect x="0.3" y="16.6" width="72.6" height="0.4"/>
			</g>
			<g>
				<path d="M0.8,21.7h2.5v0.5H0.8V24h2.6v0.5H0.2v-5h3.2V20H0.8V21.7z"/>
				<path d="M8.4,24.5H7.5L4.7,20h0v4.5H4.1v-5h0.9l2.8,4.6h0v-4.6h0.6V24.5z"/>
				<path d="M9.7,21.7h2.5v0.5H9.7V24h2.6v0.5H9.2v-5h3.2V20H9.7V21.7z"/>
				<path d="M13.7,24.5h-0.6v-5h2.3c1.1,0,1.6,0.3,1.6,1.4c0,0.7-0.1,1.2-0.9,1.3v0c0.6,0,0.8,0.4,0.8,0.9v1.3h-0.6v-1.1
					c0-0.6-0.2-0.9-0.8-0.9h-1.8V24.5z M15.4,22c0.9,0,1-0.3,1-1.1c0-0.6-0.1-0.9-1-0.9h-1.7v2H15.4z"/>
				<path d="M21.7,22v1.1c0,1.2-0.5,1.5-1.7,1.5h-0.5c-1.3,0-1.9-0.2-1.9-1.8v-1.5c0-1.4,0.6-1.7,1.5-1.7h1.3c0.8,0,1.3,0.3,1.3,1.1
					V21h-0.6v-0.3c0-0.6-0.2-0.7-1-0.7h-0.7c-1.1,0-1.2,0.2-1.2,1.3v1.6c0,1,0.3,1.2,1.3,1.2H20c1,0,1.2-0.1,1.2-0.9v-0.6h-1.6V22
					H21.7z"/>
				<path d="M24.3,22.5v2.1h-0.6v-2.1l-1.8-2.9h0.7l1.5,2.3l1.5-2.3h0.7L24.3,22.5z"/>
			</g>
		</g>
	</g>
	<g id="methanol">
		<g>
			<g>
				<path d="M27.2,5.1c0.1-0.1,4.7-5,4.7-5h-4.4c0,0-4.1,3.8-4.3,4v-4h-4.1v11.2h4.1V9c0,0,0.8-0.7,0.9-0.8c0.1,0.1,2.6,3.2,2.6,3.2
					h5.6C32.2,11.4,27.3,5.2,27.2,5.1"/>
				<polygon points="68.5,0.2 68.5,4.2 65,4.2 65,0.2 60.7,0.2 60.7,11.3 65,11.3 65,7.3 68.5,7.3 68.5,11.3 72.8,11.3 72.8,0.2 
									"/>
				<path d="M40.6,3.6v4.5c0,0.5-0.3,0.8-0.7,0.8h-2.4c-0.4,0-0.7-0.4-0.7-0.8V3.6c0-0.5,0.3-0.8,0.7-0.8h2.4
					C40.3,2.8,40.6,3.1,40.6,3.6 M42.3,0.2H35c-1.4,0-2.5,1.3-2.5,2.8v5.6c0,1.5,1.1,2.8,2.5,2.8h7.3c1.4,0,2.5-1.3,2.5-2.8V3
					C44.8,1.4,43.7,0.2,42.3,0.2"/>
				<path d="M58.8,4.2V3.4c0-1-0.4-2-1-2.6c-0.4-0.4-0.8-0.6-1.3-0.6h-7.6c-1.2,0-2.2,1.4-2.2,3.2v4.8c0,1.8,1,3.2,2.2,3.2h7.6
					c1.2,0,2.2-1.4,2.2-3.2V6.9l-4,0l-0.1,1.1c0,0.5-0.4,0.9-0.7,0.9h-2.3c-0.4,0-0.7-0.4-0.7-0.8V3.6c0-0.4,0.3-0.8,0.7-0.8h2.3
					c0.4,0,0.7,0.4,0.7,0.8v0.6H58.8z"/>
				<path d="M73.7,9.9v0.2h0.5v1.2h0.3v-1.2H75V9.9H73.7z M76.4,9.9l-0.4,1l-0.4-1h-0.4v1.4h0.3v-1.2l0.4,1.2h0.2l0.4-1.2v1.2h0.3
					V9.9H76.4z"/>
				<g>
					<path class="st5" d="M7.6,0.2L7.6,0.2H0.3v11.2l7.3,0c0,0-1.7-5.5-1.7-5.6C5.9,5.8,7.6,0.2,7.6,0.2z"/>
					<polygon class="st4" points="10.3,0.2 6.9,5.8 10.3,11.4 15.4,11.4 15.4,0.2 					"/>
				</g>
			</g>
		</g>
		<g>
			<rect x="0.3" y="16.7" width="72.6" height="0.4"/>
		</g>
		<g>
			<path d="M3.3,24.6H2.8L0.9,20h0v4.6H0.3v-5h1l1.8,4.3l1.8-4.3h1v5H5.2V20h0L3.3,24.6z"/>
			<path d="M7.1,21.8h2.5v0.5H7.1v1.8h2.6v0.5H6.6v-5h3.2v0.5H7.1V21.8z"/>
			<path d="M12.2,24.6h-0.6v-4.5H10v-0.5h3.8v0.5h-1.6V24.6z"/>
			<path d="M18.4,24.6h-0.6v-2.3h-2.9v2.3h-0.6v-5h0.6v2.2h2.9v-2.2h0.6V24.6z"/>
			<path d="M19.9,23.6l-0.4,1.1h-0.6l1.8-5h0.8l1.9,5h-0.6l-0.4-1.1H19.9z M21.2,20.1l-1.1,3h2.2L21.2,20.1z"/>
			<path d="M28.2,24.6h-0.9l-2.8-4.5h0v4.5h-0.6v-5h0.9l2.8,4.6h0v-4.6h0.6V24.6z"/>
			<path d="M31.2,19.6c1.2,0,1.6,0.4,1.6,1.7V23c0,1.2-0.4,1.6-1.6,1.6h-0.7c-1.2,0-1.6-0.4-1.6-1.6v-1.8c0-1.3,0.4-1.7,1.6-1.7
				H31.2z M30.6,20.1c-0.8,0-1.1,0.2-1.1,1.2V23c0,1,0.3,1.1,1.1,1.1h0.7c0.7,0,1.1-0.1,1.1-1.1v-1.8c0-1-0.2-1.2-1.1-1.2H30.6z"/>
			<path d="M34.2,24.1h2.5v0.5h-3.1v-5h0.6V24.1z"/>
		</g>
	</g>
</g>
</svg>
