<?xml version="1.0" encoding="utf-8"?>
<!-- Generator: Adobe Illustrator 19.1.0, SVG Export Plug-In . SVG Version: 6.00 Build 0)  -->
<!DOCTYPE svg PUBLIC "-//W3C//DTD SVG 1.1//EN" "http://www.w3.org/Graphics/SVG/1.1/DTD/svg11.dtd">
<svg version="1.1" xmlns="http://www.w3.org/2000/svg" xmlns:xlink="http://www.w3.org/1999/xlink" x="0px" y="0px"
	 viewBox="-48 66.4 72 21.6" style="enable-background:new -48 66.4 72 21.6;" xml:space="preserve">
<style type="text/css">
	.st0{display:none;}
	.st1{display:inline;}
	.st2{fill:#FFFFFF;}
	.st3{fill-rule:evenodd;clip-rule:evenodd;fill:#FFFFFF;}
</style>
<g id="kbs" class="st0">
	<g id="guides" class="st1">
	</g>
	<g id="chemtech">
		<g class="st1">
			<path class="st2" d="M-6.5,58.8v-0.6c0-0.6,0.4-0.7,0.9-0.7s0.9,0.1,0.9,0.7v0.6c0,0.6-0.4,0.7-0.9,0.7S-6.5,59.4-6.5,58.8
				 M-5.2,58.7v-0.4c0-0.3-0.1-0.3-0.4-0.3C-5.9,58-6,58-6,58.3v0.4C-6,59-5.9,59-5.6,59C-5.3,59-5.2,59-5.2,58.7"/>
			<path class="st2" d="M-2.7,58.7L-2.7,58.7c0,0.3,0,0.5-0.2,0.6c-0.2,0.1-0.4,0.1-0.6,0.1c-0.5,0-0.9,0-0.9-0.7v-0.5
				c0-0.7,0.3-0.7,0.9-0.7c0.5,0,0.8,0.1,0.8,0.6v0.1h-0.5v-0.1c0-0.2-0.1-0.2-0.3-0.2c-0.3,0-0.3,0.1-0.3,0.4v0.3
				c0,0.3,0,0.4,0.3,0.4c0.2,0,0.3,0,0.3-0.2v-0.1C-3.2,58.7-2.7,58.7-2.7,58.7z"/>
			<polygon class="st2" points="-0.8,59.5 -1.3,59.5 -1.3,58.7 -2,58.7 -2,59.5 -2.5,59.5 -2.5,57.5 -2,57.5 -2,58.2 -1.3,58.2 
				-1.3,57.5 -0.8,57.5 			"/>
			<path class="st2" d="M2.2,58.7L2.2,58.7c0,0.3,0,0.5-0.2,0.6c-0.2,0.1-0.4,0.1-0.6,0.1c-0.5,0-0.9,0-0.9-0.7v-0.5
				c0-0.7,0.3-0.7,0.9-0.7c0.5,0,0.8,0.1,0.8,0.6v0.1H1.7v-0.1c0-0.2-0.1-0.2-0.3-0.2C1,57.9,1,58,1,58.3v0.3C1,58.9,1,59,1.3,59
				c0.2,0,0.3,0,0.3-0.2v-0.1H2.2z"/>
			<polygon class="st2" points="4.2,59.5 3.6,59.5 3.6,58.7 3,58.7 3,59.5 2.4,59.5 2.4,57.5 3,57.5 3,58.2 3.6,58.2 3.6,57.5 
				4.2,57.5 			"/>
			<polygon class="st2" points="5,58.3 5.9,58.3 5.9,58.7 5,58.7 5,59 5.9,59 5.9,59.5 4.5,59.5 4.5,57.5 5.9,57.5 5.9,57.9 5,57.9 
							"/>
			<polygon class="st2" points="6.8,59.5 6.3,59.5 6.3,57.5 7.1,57.5 7.5,58.7 7.5,58.7 7.8,57.5 8.7,57.5 8.7,59.5 8.2,59.5 
				8.2,58 8.2,58 7.7,59.5 7.3,59.5 6.7,58 6.7,58 			"/>
			<rect x="9" y="57.5" class="st2" width="0.5" height="2"/>
			<path class="st2" d="M11.5,58.7L11.5,58.7c0,0.3,0,0.5-0.2,0.6c-0.2,0.1-0.4,0.1-0.6,0.1c-0.5,0-0.9,0-0.9-0.7v-0.5
				c0-0.7,0.3-0.7,0.9-0.7c0.5,0,0.8,0.1,0.8,0.6v0.1H11v-0.1c0-0.2-0.1-0.2-0.3-0.2c-0.3,0-0.3,0.1-0.3,0.4v0.3
				c0,0.3,0,0.4,0.3,0.4c0.2,0,0.3,0,0.3-0.2v-0.1C11,58.7,11.5,58.7,11.5,58.7z"/>
			<path class="st2" d="M12.2,59.1l-0.1,0.3h-0.5l0.6-2H13l0.6,2H13l-0.1-0.3H12.2z M12.6,57.9L12.6,57.9l-0.2,0.9h0.5L12.6,57.9z"
				/>
			<polygon class="st2" points="14.2,59 15,59 15,59.5 13.7,59.5 13.7,57.5 14.2,57.5 			"/>
			<polygon class="st2" points="-7.5,62.3 -8,62.3 -8,60.8 -8.5,60.8 -8.5,60.3 -7,60.3 -7,60.8 -7.5,60.8 			"/>
			<polygon class="st2" points="-6.3,61.1 -5.4,61.1 -5.4,61.5 -6.3,61.5 -6.3,61.9 -5.4,61.9 -5.4,62.3 -6.8,62.3 -6.8,60.3 
				-5.4,60.3 -5.4,60.8 -6.3,60.8 			"/>
			<path class="st2" d="M-3.4,61.6L-3.4,61.6c0,0.3,0,0.5-0.2,0.6c-0.2,0.1-0.4,0.1-0.6,0.1c-0.5,0-0.9,0-0.9-0.7v-0.5
				c0-0.7,0.3-0.7,0.9-0.7c0.5,0,0.8,0.1,0.8,0.6v0.1h-0.5V61c0-0.2-0.1-0.2-0.3-0.2c-0.3,0-0.3,0.1-0.3,0.4v0.3
				c0,0.3,0,0.4,0.3,0.4c0.2,0,0.3,0,0.3-0.2v-0.1C-3.9,61.6-3.4,61.6-3.4,61.6z"/>
			<polygon class="st2" points="-1.4,62.3 -1.9,62.3 -1.9,61.5 -2.6,61.5 -2.6,62.3 -3.1,62.3 -3.1,60.3 -2.6,60.3 -2.6,61.1 
				-1.9,61.1 -1.9,60.3 -1.4,60.3 			"/>
			<polygon class="st2" points="-0.5,62.3 -1.1,62.3 -1.1,60.3 -0.2,60.3 0.4,61.8 0.4,61.8 0.4,60.3 0.9,60.3 0.9,62.3 0,62.3 
				-0.5,60.8 -0.6,60.8 			"/>
			<path class="st2" d="M1.2,61.6V61c0-0.6,0.4-0.7,0.9-0.7C2.6,60.3,3,60.4,3,61v0.6c0,0.6-0.4,0.7-0.9,0.7
				C1.5,62.3,1.2,62.2,1.2,61.6 M2.4,61.5v-0.4c0-0.3-0.1-0.3-0.4-0.3c-0.3,0-0.4,0-0.4,0.3v0.4c0,0.3,0.1,0.3,0.4,0.3
				C2.3,61.9,2.4,61.8,2.4,61.5"/>
			<polygon class="st2" points="3.7,61.8 4.6,61.8 4.6,62.3 3.2,62.3 3.2,60.3 3.7,60.3 			"/>
			<path class="st2" d="M4.7,61.6V61c0-0.6,0.4-0.7,0.9-0.7s0.9,0.1,0.9,0.7v0.6c0,0.6-0.4,0.7-0.9,0.7S4.7,62.2,4.7,61.6 M6,61.5
				v-0.4c0-0.3-0.1-0.3-0.4-0.3c-0.3,0-0.4,0-0.4,0.3v0.4c0,0.3,0.1,0.3,0.4,0.3C5.9,61.9,6,61.8,6,61.5"/>
			<path class="st2" d="M7.9,60.9c0-0.2-0.2-0.2-0.3-0.2c-0.4,0-0.4,0.1-0.4,0.4v0.3c0,0.3,0.1,0.4,0.4,0.4c0.3,0,0.3-0.1,0.3-0.3
				H7.5v-0.4h0.9v0.3c0,0.7-0.2,0.8-0.9,0.8c-0.6,0-0.9-0.1-0.9-0.7V61c0-0.7,0.4-0.7,0.9-0.7s0.9,0,0.9,0.6
				C8.4,60.9,7.9,60.9,7.9,60.9z"/>
			<polygon class="st2" points="9.7,61.6 9.7,62.3 9.2,62.3 9.2,61.6 8.5,60.3 9.1,60.3 9.5,61.1 9.5,61.1 9.9,60.3 10.5,60.3 			
				"/>
			<path class="st2" d="M12.7,60.9c0-0.2-0.2-0.2-0.3-0.2C12,60.8,12,60.9,12,61.2v0.3c0,0.3,0.1,0.4,0.4,0.4c0.3,0,0.3-0.1,0.3-0.3
				h-0.4v-0.4h0.9v0.3c0,0.7-0.2,0.8-0.9,0.8c-0.6,0-0.9-0.1-0.9-0.7v-0.5c0-0.7,0.4-0.7,0.9-0.7s0.9,0,0.9,0.6h-0.5V60.9z"/>
			<path class="st2" d="M13.5,60.3h1c0.5,0,0.7,0.1,0.7,0.6c0,0.3,0,0.5-0.4,0.6l0,0c0.2,0,0.4,0.1,0.4,0.3v0.4h-0.5v-0.3
				c0-0.1-0.1-0.2-0.2-0.2H14v0.5h-0.5V60.3z M14.4,61.3c0.2,0,0.2-0.1,0.2-0.3c0-0.2,0-0.2-0.2-0.2H14v0.5H14.4z"/>
			<path class="st2" d="M15.4,61.6V61c0-0.6,0.4-0.7,0.9-0.7s0.9,0.1,0.9,0.7v0.6c0,0.6-0.4,0.7-0.9,0.7
				C15.8,62.3,15.4,62.2,15.4,61.6 M16.7,61.5v-0.4c0-0.3-0.1-0.3-0.4-0.3c-0.3,0-0.4,0-0.4,0.3v0.4c0,0.3,0.1,0.3,0.4,0.3
				C16.6,61.9,16.7,61.8,16.7,61.5"/>
			<path class="st2" d="M19.1,60.3v1.3c0,0.5-0.2,0.7-0.8,0.7c-0.8,0-0.9-0.2-0.9-0.7v-1.3H18v1.3c0,0.2,0.1,0.2,0.3,0.2
				c0.2,0,0.3,0,0.3-0.2v-1.3C18.6,60.3,19.1,60.3,19.1,60.3z"/>
			<path class="st2" d="M19.5,62.3v-2h1c0.5,0,0.7,0.2,0.7,0.7c0,0.6-0.1,0.7-0.7,0.7H20v0.5h-0.5V62.3z M20.3,61.3
				c0.2,0,0.2,0,0.2-0.3c0-0.2,0-0.3-0.2-0.3H20v0.6C20,61.3,20.3,61.3,20.3,61.3z"/>
			<polygon class="st2" points="22.8,61.8 23.6,61.8 23.6,62.3 22.3,62.3 22.3,60.3 22.8,60.3 			"/>
			<polygon class="st2" points="24.5,62.3 24,62.3 24,60.8 23.5,60.8 23.5,60.3 25,60.3 25,60.8 24.5,60.8 			"/>
			<path class="st2" d="M25.2,60.3h1c0.5,0,0.8,0.2,0.8,0.8v0.4c0,0.5-0.2,0.8-0.7,0.8h-1.1C25.2,62.3,25.2,60.3,25.2,60.3z
				 M25.7,61.8h0.5c0.2,0,0.3-0.1,0.3-0.3v-0.4c0-0.3-0.1-0.3-0.3-0.3h-0.5V61.8z"/>
			<path class="st2" d="M-10.2,61.9L-10.2,61.9L-10,62v0.4l0,0V62h0.2v-0.1H-10.2z M-9.4,61.9l-0.1,0.3l-0.1-0.3h-0.1v0.5h0.1V62
				v0.4h0.1L-9.4,61.9v0.5h0.1L-9.4,61.9L-9.4,61.9z"/>
			<path class="st2" d="M-14.2,57.3L-14.2,57.3h-3.3v5.1h3.3l-0.8-2.5L-14.2,57.3"/>
			<polygon class="st2" points="-13,57.3 -14.5,59.9 -13,62.4 -10.6,62.4 -10.6,57.3 			"/>
		</g>
	</g>
	<g id="invista">
		<g class="st1">
			<path class="st2" d="M-6.9,71.1h-0.2v0.6h-0.1v-0.6h-0.2V71L-6.9,71.1L-6.9,71.1z M-6.2,71.8v-0.5v-0.1l0,0c0,0,0,0.1-0.1,0.1
				l-0.2,0.2h-0.1l-0.2-0.2c0,0,0-0.1-0.1-0.1l0,0v0.1v0.4H-7V71h0.1l0.2,0.3c0,0,0,0.1,0.1,0.1l0,0c0,0,0-0.1,0.1-0.1l0.2-0.3h0.1
				V71.8L-6.2,71.8L-6.2,71.8z"/>
			<path class="st2" d="M-44.2,69.2c0.9-0.9,1.9-1.3,2.8-1.4c1.5-0.2,2.8,0.2,3.6,0.6c1.6,0.8,2.2,2.2,2,3.7c-0.2,1.7-1.4,3.4-3,4.7
				c-0.8,0.6-1.4,0.7-1.8,0.6c-1-0.2-2-1.1-2.7-2.1c-1.2-1.6-1.9-3.3-1.8-4.2C-45.1,70.3-44.7,69.7-44.2,69.2 M-41.9,68.6
				c-1.7,0.6-3.3,1.7-3,3c0.2,0.9,1,2.2,1.9,3.4c1,1.2,2.3,2.2,3.3,2c1.2-0.2,2.4-2.4,2.8-4.6c0.3-1.8,0.1-3.5-1.2-4
				C-39,68.1-40.7,68.2-41.9,68.6"/>
			<path class="st2" d="M-45.2,73.3c0-0.8,0.2-1.5,0.5-2.1c0.7-1.1,1.7-1.8,2.6-2.1c1.8-0.6,3,0.3,3.6,1.6c0.5,1,0.7,2.3,0.5,3.6
				c0,0.6-0.1,1.1-0.6,1.4c-0.7,0.4-1.8,0.5-2.8,0.3c-1.5-0.2-2.9-0.9-3.2-1.2C-45,74.4-45.1,73.9-45.2,73.3 M-44.2,71.5
				c-0.7,1.2-0.8,2.8,0,3.3c0.5,0.3,1.7,0.7,3,0.8c1.3,0.1,2.6,0,3-0.8c0.5-0.8,0-2.4-0.9-3.7c-1-1.3-2.2-2.2-3.2-1.7
				C-43.1,69.8-43.7,70.6-44.2,71.5"/>
			<path class="st2" d="M-40.3,74.2c-0.3-0.2-0.5-0.5-0.7-0.9c-0.2-0.7-0.2-1.6,0.3-2.4c0.7-1,1.7-1.2,2.5-1.1
				c1.3,0.2,2.5,1.1,3,1.8c0.2,0.3,0.2,0.5,0.2,0.7c0,0.6-0.6,1.2-1.5,1.7c-0.8,0.5-2,0.9-2.6,0.9C-39.4,74.9-40,74.6-40.3,74.2
				 M-40.6,73c0.4,1.1,1.2,1.9,2,1.8c0.2,0,1-0.4,1.8-0.9s1.6-1.2,1.5-1.9c0-0.6-1.4-1.3-2.8-1.5c-1.2-0.2-2.3,0-2.6,0.7
				C-40.8,71.7-40.8,72.4-40.6,73"/>
			<rect x="-31.5" y="69.7" class="st2" width="0.7" height="5.2"/>
			<path class="st2" d="M-26.1,74.9l-1.6-2.1c-0.3-0.4-0.4-0.6-0.6-0.8l0,0c0,0.2,0,0.4,0,0.6v2.2H-29V71h0.7l1.5,1.9
				c0.3,0.5,0.5,0.7,0.6,0.9l0,0c0-0.2,0-0.4,0-0.7V71h0.7v3.8L-26.1,74.9L-26.1,74.9z"/>
			<path class="st2" d="M-22.3,74.9h-0.5l-1.6-3.9h0.7l0.8,2c0.1,0.3,0.2,0.5,0.3,0.8l0,0c0.1-0.3,0.2-0.5,0.3-0.8l0.8-2h0.7
				L-22.3,74.9z"/>
			<rect x="-19.6" y="71" class="st2" width="0.7" height="3.8"/>
			<path class="st2" d="M-16.2,75c-0.5,0-0.9-0.1-1.2-0.3l0.3-0.5c0.2,0.1,0.5,0.2,0.9,0.2c0.4,0,0.6-0.2,0.6-0.6
				c0-0.6-0.9-0.6-1.4-1c-0.2-0.2-0.3-0.4-0.3-0.8c0-0.6,0.5-1,1.2-1c0.4,0,0.8,0.1,1,0.2v0.6c-0.3-0.2-0.6-0.3-0.9-0.3
				c-0.3,0-0.6,0.1-0.6,0.4c0,0.4,0.4,0.5,0.8,0.6c0.5,0.2,1,0.4,1,1.2C-14.9,74.5-15.5,74.9-16.2,75"/>
			<polygon class="st2" points="-11.2,71.6 -12.4,71.6 -12.4,74.9 -13,74.9 -13,71.6 -14.2,71.6 -14.2,71 -11,71 			"/>
			<path class="st2" d="M-8.6,73.4h-1l0.3-0.8c0.1-0.2,0.2-0.4,0.2-0.6l0,0c0.1,0.2,0.1,0.4,0.2,0.6L-8.6,73.4 M-7.3,74.9L-8.9,71
				h-0.5l-1.6,3.9h0.7l0.4-0.9h1.5l0.4,0.9H-7.3z"/>
		</g>
	</g>
	<g class="st1">
		<path class="st2" d="M-21.6,70.9c0.1-0.1,4-4.2,4-4.2h-3.7c0,0-3.5,3.2-3.7,3.4v-3.4h-3.5v9.5h3.5v-2c0,0,0.7-0.6,0.7-0.6
			c0.1,0.1,2.2,2.7,2.2,2.7h4.7C-17.4,76.3-21.6,71-21.6,70.9"/>
		<polygon class="st2" points="13.5,66.7 13.5,70.1 10.5,70.1 10.5,66.7 6.9,66.7 6.9,76.2 10.5,76.2 10.5,72.8 13.5,72.8 
			13.5,76.2 17.2,76.2 17.2,66.7 13.5,66.7 		"/>
		<path class="st2" d="M-8.8,66.7H-15c-1.2,0-2.1,1.1-2.1,2.4v4.7c0,1.3,0.9,2.4,2.1,2.4h6.2c1.2,0,2.1-1.1,2.1-2.4v-4.7
			C-6.7,67.8-7.6,66.7-8.8,66.7 M-10.2,69.6v3.8c0,0.4-0.3,0.7-0.6,0.7h-2c-0.3,0-0.6-0.3-0.6-0.7v-3.8c0-0.4,0.3-0.7,0.6-0.7h2
			C-10.5,68.9-10.2,69.2-10.2,69.6"/>
		<path class="st2" d="M5.2,70.2v-0.7c0-0.9-0.3-1.7-0.8-2.2c-0.3-0.3-0.7-0.5-1.1-0.5h-6.5c-1,0-1.9,1.2-1.9,2.7v4
			c0,1.5,0.9,2.7,1.9,2.7h6.5c1,0,1.9-1.2,1.9-2.7v-1.1l-3.4,0l-0.1,0.9c0,0.4-0.3,0.8-0.6,0.8h-2c-0.3,0-0.6-0.3-0.6-0.7v-3.8
			c0-0.4,0.3-0.7,0.6-0.7h2c0.3,0,0.6,0.3,0.6,0.7v0.5H5.2L5.2,70.2z"/>
		<path class="st2" d="M20.2,75l-0.3,0.9L19.6,75h-0.4v1.2h0.2v-1l0.3,1H20l0.3-1v1h0.2V75H20.2L20.2,75z M18,75v0.2h0.4v1h0.2v-1
			H19V75H18L18,75z"/>
		<path class="st3" d="M-38.3,66.7L-38.3,66.7h-6.3v9.5l6.2,0c0,0-1.5-4.7-1.5-4.7C-39.8,71.5-38.3,66.7-38.3,66.7L-38.3,66.7z"/>
		<polygon class="st3" points="-36.1,66.7 -38.9,71.5 -36.1,76.2 -31.7,76.2 -31.7,66.7 -36.1,66.7 		"/>
		<path class="st2" d="M-44.1,87.1h1.5c0.5,0,0.8-0.1,0.8-0.7c0-0.6-0.1-0.8-0.7-0.8h-1.6V87.1L-44.1,87.1z M-44.1,85.1h1.4
			c0.6,0,0.8-0.1,0.8-0.8c0-0.6-0.2-0.6-0.7-0.6h-1.5V85.1L-44.1,85.1z M-44.6,87.5v-4.3h2.2c0.8,0,1,0.4,1,1.1
			c0,0.4-0.1,0.7-0.5,0.9v0c0.6,0.1,0.7,0.5,0.7,1c0,0.8-0.3,1.2-1,1.2H-44.6L-44.6,87.5z"/>
		<path class="st2" d="M-37.2,83.3v3.1c0,1.1-0.7,1.2-1.7,1.2c-0.9,0-1.7,0-1.7-1.2v-3.1h0.5v3.1c0,0.7,0.2,0.8,1.2,0.8
			c0.9,0,1.2,0,1.2-0.8v-3.1H-37.2L-37.2,83.3z"/>
		<path class="st2" d="M-36.6,84.5c0-1.1,0.5-1.2,1.6-1.2c0.9,0,1.6,0,1.5,1.2H-34c0-0.7-0.2-0.8-1.1-0.8c-0.9,0-1.1,0.1-1.1,0.7
			c0,0.8,0.4,0.7,1.2,0.8c1,0.1,1.5,0,1.5,1.2c0,1.2-0.6,1.2-1.6,1.2c-1.1,0-1.6-0.1-1.6-1.4h0.5c0,0.9,0.2,0.9,1.1,0.9
			c0.9,0,1.2,0,1.2-0.8c0-0.8-0.4-0.7-1.1-0.7C-35.9,85.5-36.6,85.6-36.6,84.5L-36.6,84.5z"/>
		<polygon class="st2" points="-32.3,87.5 -32.8,87.5 -32.8,83.3 -32.3,83.3 -32.3,87.5 		"/>
		<polygon class="st2" points="-27.9,87.5 -28.7,87.5 -31.1,83.7 -31.1,83.7 -31.1,87.5 -31.6,87.5 -31.6,83.3 -30.8,83.3 
			-28.4,87.2 -28.4,87.2 -28.4,83.3 -27.9,83.3 -27.9,87.5 		"/>
		<polygon class="st2" points="-26.8,85.2 -24.6,85.2 -24.6,85.5 -26.8,85.5 -26.8,87.1 -24.5,87.1 -24.5,87.5 -27.3,87.5 
			-27.3,83.3 -24.5,83.3 -24.5,83.7 -26.8,83.7 -26.8,85.2 		"/>
		<path class="st2" d="M-24.1,84.5c0-1.1,0.5-1.2,1.6-1.2c0.9,0,1.6,0,1.5,1.2h-0.5c0-0.7-0.2-0.8-1.1-0.8c-0.9,0-1.1,0.1-1.1,0.7
			c0,0.8,0.4,0.7,1.2,0.8c1,0.1,1.5,0,1.5,1.2c0,1.2-0.6,1.2-1.6,1.2c-1.1,0-1.6-0.1-1.6-1.4h0.5c0,0.9,0.2,0.9,1.1,0.9
			c0.9,0,1.2,0,1.2-0.8c0-0.8-0.4-0.7-1.1-0.7C-23.4,85.5-24.1,85.6-24.1,84.5L-24.1,84.5z"/>
		<path class="st2" d="M-20.5,84.5c0-1.1,0.5-1.2,1.6-1.2c0.9,0,1.6,0,1.5,1.2h-0.5c0-0.7-0.2-0.8-1.1-0.8c-0.9,0-1.1,0.1-1.1,0.7
			c0,0.8,0.4,0.7,1.2,0.8c1,0.1,1.5,0,1.5,1.2c0,1.2-0.6,1.2-1.6,1.2c-1.1,0-1.6-0.1-1.6-1.4h0.5c0,0.9,0.2,0.9,1.1,0.9
			c0.9,0,1.2,0,1.2-0.8c0-0.8-0.4-0.7-1.1-0.7C-19.8,85.5-20.5,85.6-20.5,84.5L-20.5,84.5z"/>
		<path class="st2" d="M-15,84.5c0-1.1,0.5-1.2,1.6-1.2c0.9,0,1.6,0,1.5,1.2h-0.5c0-0.7-0.2-0.8-1.1-0.8c-0.9,0-1.1,0.1-1.1,0.7
			c0,0.8,0.4,0.7,1.2,0.8c1,0.1,1.5,0,1.5,1.2c0,1.2-0.6,1.2-1.6,1.2c-1.1,0-1.6-0.1-1.6-1.4h0.5c0,0.9,0.2,0.9,1.1,0.9
			c0.9,0,1.2,0,1.2-0.8c0-0.8-0.4-0.7-1.1-0.7C-14.3,85.5-15,85.6-15,84.5L-15,84.5z"/>
		<path class="st2" d="M-10,83.7c-0.7,0-0.9,0.2-0.9,1v1.5c0,0.8,0.3,0.9,0.9,1h0.6c0.6,0,0.9-0.1,0.9-1v-1.5c0-0.8-0.2-1-0.9-1H-10
			L-10,83.7z M-9.5,83.2c1.1,0,1.4,0.4,1.4,1.4v1.5c0,1-0.4,1.4-1.4,1.4H-10c-1,0-1.4-0.4-1.4-1.4v-1.5c0-1.1,0.3-1.4,1.4-1.4H-9.5
			L-9.5,83.2z"/>
		<polygon class="st2" points="-6.9,87.1 -4.8,87.1 -4.8,87.5 -7.4,87.5 -7.4,83.3 -6.9,83.3 -6.9,87.1 		"/>
		<path class="st2" d="M-0.9,83.3v3.1c0,1.1-0.7,1.2-1.7,1.2c-0.9,0-1.7,0-1.7-1.2v-3.1h0.5v3.1c0,0.7,0.2,0.8,1.2,0.8
			c0.9,0,1.2,0,1.2-0.8v-3.1H-0.9L-0.9,83.3z"/>
		<polygon class="st2" points="1.4,87.5 0.9,87.5 0.9,83.7 -0.5,83.7 -0.5,83.3 2.8,83.3 2.8,83.7 1.4,83.7 1.4,87.5 		"/>
		<polygon class="st2" points="3.7,87.5 3.2,87.5 3.2,83.3 3.7,83.3 3.7,87.5 		"/>
		<path class="st2" d="M5.7,83.7c-0.7,0-0.9,0.2-0.9,1v1.5c0,0.8,0.3,0.9,0.9,1h0.6c0.6,0,0.9-0.1,0.9-1v-1.5c0-0.8-0.2-1-0.9-1H5.7
			L5.7,83.7z M6.3,83.2c1.1,0,1.4,0.4,1.4,1.4v1.5c0,1-0.4,1.4-1.4,1.4H5.7c-1,0-1.4-0.4-1.4-1.4v-1.5c0-1.1,0.3-1.4,1.4-1.4H6.3
			L6.3,83.2z"/>
		<polygon class="st2" points="12,87.5 11.2,87.5 8.8,83.7 8.8,83.7 8.8,87.5 8.3,87.5 8.3,83.3 9.1,83.3 11.5,87.2 11.5,87.2 
			11.5,83.3 12,83.3 12,87.5 		"/>
		<path class="st2" d="M12.6,84.5c0-1.1,0.5-1.2,1.6-1.2c0.9,0,1.6,0,1.5,1.2h-0.5c0-0.7-0.2-0.8-1.1-0.8c-0.9,0-1.1,0.1-1.1,0.7
			c0,0.8,0.4,0.7,1.2,0.8c1,0.1,1.5,0,1.5,1.2c0,1.2-0.6,1.2-1.6,1.2c-1.1,0-1.6-0.1-1.6-1.4H13c0,0.9,0.2,0.9,1.1,0.9
			c0.9,0,1.2,0,1.2-0.8c0-0.8-0.4-0.7-1.1-0.7C13.3,85.5,12.6,85.6,12.6,84.5L12.6,84.5z"/>
		<g>
			<rect x="-44.6" y="80.5" class="st2" width="61.8" height="1"/>
		</g>
	</g>
</g>
<g id="pipeline" class="st0">
	<g class="st1">
		<path class="st2" d="M-21.9,71c0.1-0.1,4.1-4.2,4.1-4.2h-3.9c0,0-3.6,3.2-3.8,3.4v-3.4h-3.6v9.5h3.6v-2c0,0,0.7-0.6,0.8-0.6
			c0.1,0.1,2.3,2.7,2.3,2.7h4.9C-17.5,76.3-21.9,71-21.9,71"/>
		<polygon class="st2" points="14.5,66.8 14.5,70.2 11.3,70.2 11.3,66.8 7.6,66.8 7.6,76.3 11.3,76.3 11.3,72.8 14.4,72.8 
			14.4,76.3 18.3,76.3 18.3,66.8 14.5,66.8 		"/>
		<path class="st2" d="M-8.6,66.8h-6.4c-1.2,0-2.2,1.1-2.2,2.4v4.7c0,1.3,1,2.4,2.2,2.4h6.4c1.2,0,2.2-1.1,2.2-2.4v-4.7
			C-6.4,67.8-7.4,66.8-8.6,66.8 M-10.1,69.7v3.8c0,0.4-0.3,0.7-0.6,0.7h-2.1c-0.4,0-0.6-0.3-0.6-0.7v-3.8c0-0.4,0.3-0.7,0.6-0.7h2.1
			C-10.4,69-10.1,69.3-10.1,69.7"/>
		<path class="st2" d="M5.9,70.2v-0.7c0-0.9-0.3-1.7-0.8-2.2c-0.3-0.3-0.7-0.5-1.1-0.5h-6.7c-1.1,0-2,1.2-2,2.7v4
			c0,1.5,0.9,2.7,2,2.7h6.7c1.1,0,2-1.2,2-2.7v-1.1l-3.5,0l-0.1,0.9c0,0.4-0.3,0.8-0.6,0.8h-2.1c-0.4,0-0.6-0.3-0.6-0.7v-3.8
			c0-0.4,0.3-0.7,0.6-0.7h2.1c0.4,0,0.6,0.3,0.6,0.7v0.5H5.9L5.9,70.2z"/>
		<path class="st2" d="M21.4,75l-0.3,0.9L20.7,75h-0.4v1.2h0.2v-1l0.4,1h0.2l0.4-1v1h0.2V75H21.4L21.4,75z M19.1,75v0.2h0.4v1h0.3
			v-1h0.4V75H19.1L19.1,75z"/>
		<path class="st3" d="M-39.2,66.8L-39.2,66.8h-6.5v9.5l6.5,0c0,0-1.5-4.7-1.5-4.7C-40.8,71.5-39.2,66.8-39.2,66.8L-39.2,66.8z"/>
		<polygon class="st3" points="-36.9,66.8 -39.8,71.5 -36.9,76.3 -32.3,76.3 -32.3,66.8 -36.9,66.8 		"/>
		<path class="st2" d="M-45.2,83.7v1.7h1.3c0.7,0,1,0,1-0.8c0-0.8-0.2-0.9-0.8-0.9H-45.2L-45.2,83.7z M-45.7,83.3h2.2
			c0.9,0,1.1,0.6,1.1,1.3c0,0.4,0,1.3-1.1,1.3h-1.7v1.7h-0.5V83.3L-45.7,83.3z"/>
		<polygon class="st2" points="-41.3,87.5 -41.8,87.5 -41.8,83.3 -41.3,83.3 -41.3,87.5 		"/>
		<path class="st2" d="M-40,83.7v1.7h1.3c0.7,0,1,0,1-0.8c0-0.8-0.2-0.9-0.8-0.9H-40L-40,83.7z M-40.5,83.3h2.2
			c0.9,0,1.1,0.6,1.1,1.3c0,0.4,0,1.3-1.1,1.3H-40v1.7h-0.5V83.3L-40.5,83.3z"/>
		<polygon class="st2" points="-36.2,85.2 -34,85.2 -34,85.6 -36.2,85.6 -36.2,87.1 -33.9,87.1 -33.9,87.5 -36.7,87.5 -36.7,83.3 
			-33.9,83.3 -33.9,83.7 -36.2,83.7 -36.2,85.2 		"/>
		<polygon class="st2" points="-32.7,87.1 -30.5,87.1 -30.5,87.5 -33.2,87.5 -33.2,83.3 -32.7,83.3 -32.7,87.1 		"/>
		<polygon class="st2" points="-29.5,87.5 -30,87.5 -30,83.3 -29.5,83.3 -29.5,87.5 		"/>
		<polygon class="st2" points="-24.8,87.5 -25.7,87.5 -28.1,83.7 -28.1,83.7 -28.1,87.5 -28.6,87.5 -28.6,83.3 -27.8,83.3 
			-25.3,87.2 -25.3,87.2 -25.3,83.3 -24.8,83.3 -24.8,87.5 		"/>
		<polygon class="st2" points="-23.7,85.2 -21.5,85.2 -21.5,85.6 -23.7,85.6 -23.7,87.1 -21.4,87.1 -21.4,87.5 -24.2,87.5 
			-24.2,83.3 -21.4,83.3 -21.4,83.7 -23.7,83.7 -23.7,85.2 		"/>
		<g>
			<rect x="-45.7" y="80.1" class="st2" width="64" height="1.8"/>
		</g>
	</g>
</g>
<g id="kst">
	<g>
		<path class="st2" d="M-21.5,71c0.1-0.1,4-4.2,4-4.2h-3.7c0,0-3.5,3.2-3.6,3.4v-3.4h-3.5v9.5h3.5v-2c0,0,0.7-0.6,0.7-0.6
			c0.1,0.1,2.2,2.7,2.2,2.7h4.7C-17.3,76.3-21.5,71.1-21.5,71"/>
		<polygon class="st2" points="13.5,66.8 13.5,70.2 10.4,70.2 10.4,66.8 6.9,66.8 6.9,76.3 10.5,76.3 10.5,72.8 13.4,72.8 
			13.4,76.3 17.1,76.3 17.1,66.8 13.5,66.8 		"/>
		<path class="st2" d="M-8.7,66.8h-6.2c-1.2,0-2.1,1.1-2.1,2.4v4.7c0,1.3,0.9,2.4,2.1,2.4h6.2c1.2,0,2.1-1.1,2.1-2.4v-4.7
			C-6.6,67.9-7.6,66.8-8.7,66.8 M-10.2,69.7v3.8c0,0.4-0.3,0.7-0.6,0.7h-2c-0.3,0-0.6-0.3-0.6-0.7v-3.8c0-0.4,0.3-0.7,0.6-0.7h2
			C-10.5,69-10.2,69.3-10.2,69.7"/>
		<path class="st2" d="M5.2,70.2v-0.7c0-0.8-0.3-1.7-0.8-2.2c-0.3-0.3-0.7-0.5-1.1-0.5h-6.5c-1,0-1.9,1.2-1.9,2.7v4
			c0,1.5,0.8,2.7,1.9,2.7h6.5c1,0,1.9-1.2,1.9-2.7v-1.1l-3.4,0l-0.1,0.9c0,0.4-0.3,0.8-0.6,0.8h-2c-0.3,0-0.6-0.3-0.6-0.7v-3.8
			c0-0.4,0.3-0.7,0.6-0.7h2c0.3,0,0.6,0.3,0.6,0.7v0.5H5.2L5.2,70.2z"/>
		<path class="st2" d="M20.1,75l-0.3,0.9L19.5,75h-0.4v1.2h0.2v-1l0.3,1h0.2l0.3-1v1h0.2V75H20.1L20.1,75z M17.9,75v0.2h0.4v1h0.2
			v-1h0.4V75H17.9L17.9,75z"/>
		<path class="st3" d="M-38.1,66.8L-38.1,66.8h-6.3v9.5l6.2,0c0,0-1.5-4.7-1.5-4.7C-39.6,71.5-38.1,66.8-38.1,66.8L-38.1,66.8z"/>
		<g>
			<polygon class="st3" points="-35.9,66.8 -38.7,71.6 -35.9,76.3 -31.5,76.3 -31.5,66.8 -35.9,66.8 			"/>
			<path class="st2" d="M-44.5,84.5c0-1.1,0.5-1.2,1.6-1.2c0.9,0,1.6,0,1.5,1.2h-0.5c0-0.7-0.2-0.8-1.1-0.8c-0.9,0-1.1,0.1-1.1,0.7
				c0,0.8,0.4,0.7,1.2,0.8c1,0.1,1.5,0,1.5,1.2c0,1.2-0.6,1.2-1.6,1.2c-1.1,0-1.6-0.1-1.5-1.4h0.5c0,0.9,0.2,0.9,1.1,0.9
				c0.9,0,1.2,0,1.2-0.8c0-0.8-0.4-0.7-1.1-0.7C-43.8,85.5-44.5,85.6-44.5,84.5L-44.5,84.5z"/>
		</g>
		<path class="st2" d="M-37.4,83.3v3.1c0,1.1-0.7,1.2-1.7,1.2c-0.9,0-1.7,0-1.7-1.2v-3.1h0.5v3.1c0,0.7,0.2,0.8,1.2,0.8
			c0.9,0,1.2,0,1.2-0.8v-3.1H-37.4L-37.4,83.3z"/>
		<path class="st2" d="M-36.2,83.7v1.7h1.2c0.6,0,1,0,1-0.8c0-0.8-0.1-0.9-0.7-0.9H-36.2L-36.2,83.7z M-36.6,83.3h2.2
			c0.8,0,1,0.6,1,1.3c0,0.4,0,1.3-1,1.3h-1.7v1.6h-0.5V83.3L-36.6,83.3z"/>
		<path class="st2" d="M-32.4,83.7v1.7h1.2c0.6,0,1,0,1-0.8c0-0.8-0.1-0.9-0.7-0.9H-32.4L-32.4,83.7z M-32.9,83.3h2.2
			c0.8,0,1,0.6,1,1.3c0,0.4,0,1.3-1,1.3h-1.7v1.6h-0.5V83.3L-32.9,83.3z"/>
		<polygon class="st2" points="-28.6,87.1 -26.5,87.1 -26.5,87.5 -29.1,87.5 -29.1,83.3 -28.6,83.3 -28.6,87.1 		"/>
		<g>
			<polygon class="st2" points="-24.8,85.7 -24.8,87.5 -25.3,87.5 -25.3,85.7 -26.9,83.3 -26.3,83.3 -25,85.3 -23.8,83.3 
				-23.2,83.3 -24.8,85.7 			"/>
			<path class="st2" d="M-19.8,85.3c-0.6,0.1-0.7,0.2-0.7,0.9c0,0.8,0.1,0.9,1.1,0.9c0.5,0,1.1,0,1.2-0.4L-19.8,85.3L-19.8,85.3z
				 M-17.7,87c-0.2,0.6-0.9,0.6-1.6,0.6c-0.9,0-1.6,0-1.6-1.3c0-1,0.3-1,0.9-1.2c-0.3-0.2-0.4-0.4-0.4-0.8c0-0.8,0.5-1,1.3-1
				c0.8,0,1.2,0.2,1.2,1.1v0.3h-0.5v-0.3c0-0.5-0.1-0.6-0.7-0.6c-0.5,0-0.8,0-0.8,0.6c0,0.3,0.1,0.4,0.3,0.6l1.6,1.4
				c0-0.1,0-0.2,0-0.3c0-0.1,0-0.2,0-0.3h0.4c0,0.1,0,0.2,0,0.3c0,0.2,0,0.4-0.1,0.6l0.8,0.6l-0.3,0.3L-17.7,87L-17.7,87z"/>
		</g>
		<polygon class="st2" points="-13,87.5 -13.5,87.5 -13.5,83.7 -14.9,83.7 -14.9,83.3 -11.7,83.3 -11.7,83.7 -13,83.7 -13,87.5 		
			"/>
		<path class="st2" d="M-9.3,85.4c0.7,0,0.8-0.2,0.8-0.9c0-0.5-0.1-0.7-0.8-0.7h-1.5v1.7H-9.3L-9.3,85.4z M-10.8,87.5h-0.5v-4.2h2
			c0.9,0,1.3,0.3,1.3,1.2c0,0.6-0.1,1-0.7,1.1v0c0.5,0,0.7,0.3,0.7,0.8v1.1h-0.5v-0.9c0-0.5-0.1-0.8-0.7-0.8h-1.5V87.5L-10.8,87.5z"
			/>
		<path class="st2" d="M-5.7,83.7l-0.9,2.5h1.9L-5.7,83.7L-5.7,83.7z M-6.8,86.6l-0.3,0.9h-0.5l1.5-4.2h0.7l1.6,4.2h-0.5l-0.3-0.9
			H-6.8L-6.8,86.6z"/>
		<path class="st2" d="M-1.4,87.1c0.8,0,1-0.5,1-1.3v-1.1c0-0.2-0.1-1-0.9-1H-3v3.4H-1.4L-1.4,87.1z M-3.4,83.3h2.1
			c0.5,0,1.5,0.1,1.5,1.6v1c0,0.4-0.1,1.6-1.3,1.6h-2.2V83.3L-3.4,83.3z"/>
		<polygon class="st2" points="1.2,87.5 0.8,87.5 0.8,83.3 1.2,83.3 1.2,87.5 		"/>
		<polygon class="st2" points="5.7,87.5 4.9,87.5 2.5,83.7 2.5,83.7 2.5,87.5 2,87.5 2,83.3 2.8,83.3 5.2,87.1 5.2,87.1 5.2,83.3 
			5.7,83.3 5.7,87.5 		"/>
		<path class="st2" d="M9.8,85.4v0.9c0,1-0.4,1.2-1.4,1.2H7.9c-1.1,0-1.6-0.2-1.6-1.5v-1.3c0-1.1,0.5-1.5,1.2-1.5h1.1
			c0.6,0,1.1,0.3,1.1,0.9v0.3H9.3v-0.2c0-0.5-0.2-0.6-0.9-0.6H7.8c-0.9,0-1.1,0.2-1.1,1.1v1.4c0,0.8,0.3,1,1.1,1h0.5
			c0.8,0,1-0.1,1-0.8v-0.5H8v-0.4H9.8L9.8,85.4z"/>
		<polygon class="st2" points="17.1,81.1 -44.4,81.1 -44.4,80.8 17.1,80.8 17.1,81.1 		"/>
	</g>
</g>
</svg>
