<?xml version="1.0" encoding="utf-8"?>
<!-- Generator: Adobe Illustrator 19.2.1, SVG Export Plug-In . SVG Version: 6.00 Build 0)  -->
<svg version="1.1" id="Layer_1" xmlns="http://www.w3.org/2000/svg" xmlns:xlink="http://www.w3.org/1999/xlink" x="0px" y="0px"
	 viewBox="0 0 234 25.7" style="enable-background:new 0 0 234 25.7;" xml:space="preserve">
<style type="text/css">
	.st0{fill:#FFFFFF;}
	.st1{opacity:0.47;fill:#FFFFFF;enable-background:new    ;}
</style>
<g>
	<path class="st0" d="M51.1,11.2c0.1-0.1,8.7-10,8.7-10h-8.2c0,0-7.6,7.7-8,8v-8h-7.6v22.7h7.6V19c0.1-0.1,1.5-1.4,1.6-1.5
		c0.1,0.2,4.8,6.4,4.8,6.4h10.3C60.5,23.9,51.2,11.4,51.1,11.2"/>
	<polygon class="st0" points="128.1,1.2 128.1,9.3 121.4,9.3 121.4,1.2 113.6,1.2 113.6,23.8 121.5,23.8 121.5,15.6 128,15.6 
		128,23.8 136.1,23.8 136.1,1.2 	"/>
	<path class="st0" d="M76.1,8.1v9.1c0,0.9-0.7,1.7-1.4,1.7h-4.5c-0.7,0-1.4-0.7-1.4-1.7V8.1c0-0.9,0.7-1.7,1.4-1.7h4.5
		C75.4,6.4,76.1,7.1,76.1,8.1 M79.3,1.2H65.7c-2.5,0-4.7,2.5-4.7,5.7v11.3c0,3.1,2,5.7,4.7,5.7h13.6c2.5,0,4.7-2.5,4.7-5.7V6.8
		C83.9,3.7,81.9,1.2,79.3,1.2"/>
	<path class="st0" d="M109.9,9.4V7.6c0-2-0.7-4.1-1.8-5.3c-0.7-0.8-1.5-1.2-2.3-1.2H91.5c-2.3,0-4.2,2.9-4.2,6.5v9.6
		c0,3.6,1.9,6.5,4.2,6.5h14.2c2.3,0,4.2-2.9,4.2-6.5v-2.6h-7.4l-0.2,2.1c-0.1,0.9-0.7,1.9-1.4,1.9h-4.4c-0.7,0-1.4-0.7-1.4-1.6v-9
		c0-0.9,0.7-1.6,1.4-1.6h4.4c0.7,0,1.4,0.7,1.4,1.6v1.2h7.5V9.4z"/>
	<path class="st0" d="M137.8,20.8v0.5h0.8v2.4h0.6v-2.4h0.8v-0.5H137.8z M142.7,20.8l-0.7,2.1l-0.7-2.1h-0.8v2.9h0.5v-2.3l0.7,2.3
		h0.5l0.7-2.3v2.3h0.5v-2.9H142.7z"/>
	<g>
		<path class="st0" d="M14.7,1.2L14.7,1.2H0.9v22.7h13.7l-3.3-11.3C11.3,12.5,14.7,1.2,14.7,1.2z"/>
		<polygon class="st0" points="19.5,1.2 13.3,12.5 19.5,23.9 29.2,23.9 29.2,1.2 		"/>
	</g>
</g>
<g>
	<g>
		<path class="st0" d="M160.5,15.3c0.7,0.8,1.8,1.5,3.3,1.5c1.7,0,2.2-0.9,2.2-1.7c0-1.2-1.2-1.5-2.4-1.8c-1.7-0.5-3.5-1-3.5-3.2
			c0-1.8,1.5-3.1,3.6-3.1c1.6,0,2.8,0.5,3.7,1.5l-0.9,1.2c-0.7-0.9-1.9-1.3-3-1.3s-2,0.6-2,1.5c0,1,1.1,1.3,2.4,1.6
			c1.7,0.5,3.6,1,3.6,3.5c0,1.7-1.1,3.3-3.8,3.3c-1.9,0-3.2-0.7-4-1.7L160.5,15.3z"/>
		<path class="st0" d="M172.6,8.4h-3.2V6.9h7.8v1.4h-3.2V18h-1.5V8.4z"/>
		<path class="st0" d="M184.1,6.7c3.1,0,5.1,2.4,5.1,5.8s-2.1,5.8-5.1,5.8c-3,0-5.1-2.4-5.1-5.8C178.9,9.2,181.1,6.7,184.1,6.7z
			 M184.1,8.3c-2.2,0-3.5,1.8-3.5,4.3s1.4,4.3,3.5,4.3c2.1,0,3.5-1.8,3.5-4.3S186.3,8.3,184.1,8.3z"/>
		<path class="st0" d="M195.2,13.7h-2V18h-1.5V6.8h4.3c2,0,3.3,1.3,3.3,3.5c0,2-1.2,3-2.5,3.2l2.6,4.5h-1.8L195.2,13.7z M195.9,8.4
			h-2.6v4h2.6c1.1,0,1.9-0.8,1.9-1.9C197.7,9.2,197,8.4,195.9,8.4z"/>
		<path class="st0" d="M202.1,6.9h1.5v11.2h-1.5V6.9z"/>
		<path class="st0" d="M206.8,6.9h6.9v1.4h-5.3v3.2h5.2V13h-5.2v3.5h5.3v1.4h-6.9V6.9z"/>
		<path class="st0" d="M216.8,15.3c0.7,0.8,1.8,1.5,3.3,1.5c1.7,0,2.2-0.9,2.2-1.7c0-1.2-1.2-1.5-2.4-1.8c-1.7-0.5-3.5-1-3.5-3.2
			c0-1.8,1.5-3.1,3.6-3.1c1.6,0,2.8,0.5,3.7,1.5l-0.9,1.2c-0.7-0.9-1.9-1.3-3-1.3c-1.1,0-2,0.6-2,1.5c0,1,1.1,1.3,2.4,1.6
			c1.7,0.5,3.6,1,3.6,3.5c0,1.7-1.1,3.3-3.8,3.3c-1.9,0-3.2-0.7-4-1.7L216.8,15.3z"/>
	</g>
</g>
<path class="st1" d="M231.3,25h-79.1c-1,0-1.9-0.9-1.9-2V2c0-1.1,0.8-2,1.9-2h79.1c1,0,1.9,0.9,1.9,2v21
	C233.1,24.1,232.2,25,231.3,25z M152.2,2v21h79.1l0,0V2H152.2z"/>
</svg>
