<?xml version="1.0" encoding="utf-8"?>
<!-- Generator: Adobe Illustrator 19.1.0, SVG Export Plug-In . SVG Version: 6.00 Build 0)  -->
<!DOCTYPE svg PUBLIC "-//W3C//DTD SVG 1.1//EN" "http://www.w3.org/Graphics/SVG/1.1/DTD/svg11.dtd">
<svg version="1.1" xmlns="http://www.w3.org/2000/svg" xmlns:xlink="http://www.w3.org/1999/xlink" x="0px" y="0px"
	 viewBox="-44.8 66.2 65.5 21.7" style="enable-background:new -44.8 66.2 65.5 21.7;" xml:space="preserve">
<style type="text/css">
	.st0{display:none;}
	.st1{display:inline;}
	.st2{fill:#FFFFFF;}
	.st3{fill-rule:evenodd;clip-rule:evenodd;fill:#FFFFFF;}
</style>
<g id="kbs" class="st0">
	<g id="guides" class="st1">
	</g>
	<g id="chemtech">
		<g class="st1">
			<path class="st2" d="M-6.5,58.8v-0.6c0-0.6,0.4-0.7,0.9-0.7s0.9,0.1,0.9,0.7v0.6c0,0.6-0.4,0.7-0.9,0.7S-6.5,59.4-6.5,58.8
				 M-5.2,58.7v-0.4c0-0.3-0.1-0.3-0.4-0.3C-5.9,58-6,58-6,58.3v0.4C-6,59-5.9,59-5.6,59C-5.3,59-5.2,59-5.2,58.7"/>
			<path class="st2" d="M-2.7,58.7L-2.7,58.7c0,0.3,0,0.5-0.2,0.6c-0.2,0.1-0.4,0.1-0.6,0.1c-0.5,0-0.9,0-0.9-0.7v-0.5
				c0-0.7,0.3-0.7,0.9-0.7c0.5,0,0.8,0.1,0.8,0.6v0.1h-0.5v-0.1c0-0.2-0.1-0.2-0.3-0.2c-0.3,0-0.3,0.1-0.3,0.4v0.3
				c0,0.3,0,0.4,0.3,0.4c0.2,0,0.3,0,0.3-0.2v-0.1L-2.7,58.7z"/>
			<polygon class="st2" points="-0.8,59.5 -1.3,59.5 -1.3,58.7 -2,58.7 -2,59.5 -2.5,59.5 -2.5,57.5 -2,57.5 -2,58.2 -1.3,58.2 
				-1.3,57.5 -0.8,57.5 			"/>
			<path class="st2" d="M2.2,58.7L2.2,58.7c0,0.3,0,0.5-0.2,0.6c-0.2,0.1-0.4,0.1-0.6,0.1c-0.5,0-0.9,0-0.9-0.7v-0.5
				c0-0.7,0.3-0.7,0.9-0.7c0.5,0,0.8,0.1,0.8,0.6v0.1H1.7v-0.1c0-0.2-0.1-0.2-0.3-0.2C1,57.9,1,58,1,58.3v0.3C1,58.9,1,59,1.3,59
				c0.2,0,0.3,0,0.3-0.2v-0.1H2.2z"/>
			<polygon class="st2" points="4.2,59.5 3.6,59.5 3.6,58.7 3,58.7 3,59.5 2.4,59.5 2.4,57.5 3,57.5 3,58.2 3.6,58.2 3.6,57.5 
				4.2,57.5 			"/>
			<polygon class="st2" points="5,58.3 5.9,58.3 5.9,58.7 5,58.7 5,59 5.9,59 5.9,59.5 4.5,59.5 4.5,57.5 5.9,57.5 5.9,57.9 5,57.9 
							"/>
			<polygon class="st2" points="6.8,59.5 6.3,59.5 6.3,57.5 7.1,57.5 7.5,58.7 7.5,58.7 7.8,57.5 8.7,57.5 8.7,59.5 8.2,59.5 
				8.2,58 8.2,58 7.7,59.5 7.3,59.5 6.7,58 6.7,58 			"/>
			<rect x="9" y="57.5" class="st2" width="0.5" height="2"/>
			<path class="st2" d="M11.5,58.7L11.5,58.7c0,0.3,0,0.5-0.2,0.6c-0.2,0.1-0.4,0.1-0.6,0.1c-0.5,0-0.9,0-0.9-0.7v-0.5
				c0-0.7,0.3-0.7,0.9-0.7c0.5,0,0.8,0.1,0.8,0.6v0.1H11v-0.1c0-0.2-0.1-0.2-0.3-0.2c-0.3,0-0.3,0.1-0.3,0.4v0.3
				c0,0.3,0,0.4,0.3,0.4c0.2,0,0.3,0,0.3-0.2v-0.1L11.5,58.7z"/>
			<path class="st2" d="M12.2,59.1l-0.1,0.3h-0.5l0.6-2H13l0.6,2H13l-0.1-0.3H12.2z M12.6,57.9L12.6,57.9l-0.2,0.9h0.5L12.6,57.9z"
				/>
			<polygon class="st2" points="14.2,59 15,59 15,59.5 13.7,59.5 13.7,57.5 14.2,57.5 			"/>
			<polygon class="st2" points="-7.5,62.3 -8,62.3 -8,60.8 -8.5,60.8 -8.5,60.3 -7,60.3 -7,60.8 -7.5,60.8 			"/>
			<polygon class="st2" points="-6.3,61.1 -5.4,61.1 -5.4,61.5 -6.3,61.5 -6.3,61.9 -5.4,61.9 -5.4,62.3 -6.8,62.3 -6.8,60.3 
				-5.4,60.3 -5.4,60.8 -6.3,60.8 			"/>
			<path class="st2" d="M-3.4,61.6L-3.4,61.6c0,0.3,0,0.5-0.2,0.6c-0.2,0.1-0.4,0.1-0.6,0.1c-0.5,0-0.9,0-0.9-0.7v-0.5
				c0-0.7,0.3-0.7,0.9-0.7c0.5,0,0.8,0.1,0.8,0.6v0.1h-0.5V61c0-0.2-0.1-0.2-0.3-0.2c-0.3,0-0.3,0.1-0.3,0.4v0.3
				c0,0.3,0,0.4,0.3,0.4c0.2,0,0.3,0,0.3-0.2v-0.1H-3.4z"/>
			<polygon class="st2" points="-1.4,62.3 -1.9,62.3 -1.9,61.5 -2.6,61.5 -2.6,62.3 -3.1,62.3 -3.1,60.3 -2.6,60.3 -2.6,61.1 
				-1.9,61.1 -1.9,60.3 -1.4,60.3 			"/>
			<polygon class="st2" points="-0.5,62.3 -1.1,62.3 -1.1,60.3 -0.2,60.3 0.4,61.8 0.4,61.8 0.4,60.3 0.9,60.3 0.9,62.3 0,62.3 
				-0.5,60.8 -0.6,60.8 			"/>
			<path class="st2" d="M1.2,61.6V61c0-0.6,0.4-0.7,0.9-0.7C2.6,60.3,3,60.4,3,61v0.6c0,0.6-0.4,0.7-0.9,0.7
				C1.5,62.3,1.2,62.2,1.2,61.6 M2.4,61.5v-0.4c0-0.3-0.1-0.3-0.4-0.3c-0.3,0-0.4,0-0.4,0.3v0.4c0,0.3,0.1,0.3,0.4,0.3
				C2.3,61.9,2.4,61.8,2.4,61.5"/>
			<polygon class="st2" points="3.7,61.8 4.6,61.8 4.6,62.3 3.2,62.3 3.2,60.3 3.7,60.3 			"/>
			<path class="st2" d="M4.7,61.6V61c0-0.6,0.4-0.7,0.9-0.7s0.9,0.1,0.9,0.7v0.6c0,0.6-0.4,0.7-0.9,0.7S4.7,62.2,4.7,61.6 M6,61.5
				v-0.4c0-0.3-0.1-0.3-0.4-0.3c-0.3,0-0.4,0-0.4,0.3v0.4c0,0.3,0.1,0.3,0.4,0.3C5.9,61.9,6,61.8,6,61.5"/>
			<path class="st2" d="M7.9,60.9c0-0.2-0.2-0.2-0.3-0.2c-0.4,0-0.4,0.1-0.4,0.4v0.3c0,0.3,0.1,0.4,0.4,0.4c0.3,0,0.3-0.1,0.3-0.3
				H7.5v-0.4h0.9v0.3c0,0.7-0.2,0.8-0.9,0.8c-0.6,0-0.9-0.1-0.9-0.7V61c0-0.7,0.4-0.7,0.9-0.7s0.9,0,0.9,0.6H7.9z"/>
			<polygon class="st2" points="9.7,61.6 9.7,62.3 9.2,62.3 9.2,61.6 8.5,60.3 9.1,60.3 9.5,61.1 9.5,61.1 9.9,60.3 10.5,60.3 			
				"/>
			<path class="st2" d="M12.7,60.9c0-0.2-0.2-0.2-0.3-0.2C12,60.8,12,60.9,12,61.2v0.3c0,0.3,0.1,0.4,0.4,0.4c0.3,0,0.3-0.1,0.3-0.3
				h-0.4v-0.4h0.9v0.3c0,0.7-0.2,0.8-0.9,0.8c-0.6,0-0.9-0.1-0.9-0.7v-0.5c0-0.7,0.4-0.7,0.9-0.7s0.9,0,0.9,0.6h-0.5V60.9z"/>
			<path class="st2" d="M13.5,60.3h1c0.5,0,0.7,0.1,0.7,0.6c0,0.3,0,0.5-0.4,0.6l0,0c0.2,0,0.4,0.1,0.4,0.3v0.4h-0.5v-0.3
				c0-0.1-0.1-0.2-0.2-0.2H14v0.5h-0.5V60.3z M14.4,61.3c0.2,0,0.2-0.1,0.2-0.3c0-0.2,0-0.2-0.2-0.2H14v0.5H14.4z"/>
			<path class="st2" d="M15.4,61.6V61c0-0.6,0.4-0.7,0.9-0.7s0.9,0.1,0.9,0.7v0.6c0,0.6-0.4,0.7-0.9,0.7
				C15.8,62.3,15.4,62.2,15.4,61.6 M16.7,61.5v-0.4c0-0.3-0.1-0.3-0.4-0.3c-0.3,0-0.4,0-0.4,0.3v0.4c0,0.3,0.1,0.3,0.4,0.3
				C16.6,61.9,16.7,61.8,16.7,61.5"/>
			<path class="st2" d="M19.1,60.3v1.3c0,0.5-0.2,0.7-0.8,0.7c-0.8,0-0.9-0.2-0.9-0.7v-1.3H18v1.3c0,0.2,0.1,0.2,0.3,0.2
				c0.2,0,0.3,0,0.3-0.2v-1.3H19.1z"/>
			<path class="st2" d="M19.5,62.3v-2h1c0.5,0,0.7,0.2,0.7,0.7c0,0.6-0.1,0.7-0.7,0.7H20v0.5h-0.5V62.3z M20.3,61.3
				c0.2,0,0.2,0,0.2-0.3c0-0.2,0-0.3-0.2-0.3H20v0.6H20.3z"/>
			<polygon class="st2" points="22.8,61.8 23.6,61.8 23.6,62.3 22.3,62.3 22.3,60.3 22.8,60.3 			"/>
			<polygon class="st2" points="24.5,62.3 24,62.3 24,60.8 23.5,60.8 23.5,60.3 25,60.3 25,60.8 24.5,60.8 			"/>
			<path class="st2" d="M25.2,60.3h1c0.5,0,0.8,0.2,0.8,0.8v0.4c0,0.5-0.2,0.8-0.7,0.8h-1.1L25.2,60.3z M25.7,61.8h0.5
				c0.2,0,0.3-0.1,0.3-0.3v-0.4c0-0.3-0.1-0.3-0.3-0.3h-0.5V61.8z"/>
			<path class="st2" d="M-10.2,61.9L-10.2,61.9L-10,62v0.4l0,0V62h0.2v-0.1H-10.2z M-9.4,61.9l-0.1,0.3l-0.1-0.3h-0.1v0.5h0.1V62
				v0.4h0.1L-9.4,61.9v0.5h0.1L-9.4,61.9L-9.4,61.9z"/>
			<path class="st2" d="M-14.2,57.3L-14.2,57.3h-3.3v5.1h3.3l-0.8-2.5L-14.2,57.3"/>
			<polygon class="st2" points="-13,57.3 -14.5,59.9 -13,62.4 -10.6,62.4 -10.6,57.3 			"/>
		</g>
	</g>
	<g id="invista">
		<g class="st1">
			<path class="st2" d="M-6.9,71.1h-0.2v0.6h-0.1v-0.6h-0.2V71L-6.9,71.1L-6.9,71.1z M-6.2,71.8v-0.5v-0.1l0,0c0,0,0,0.1-0.1,0.1
				l-0.2,0.2h-0.1l-0.2-0.2c0,0,0-0.1-0.1-0.1l0,0v0.1v0.4H-7V71h0.1l0.2,0.3c0,0,0,0.1,0.1,0.1l0,0c0,0,0-0.1,0.1-0.1l0.2-0.3h0.1
				V71.8L-6.2,71.8L-6.2,71.8z"/>
			<path class="st2" d="M-44.2,69.2c0.9-0.9,1.9-1.3,2.8-1.4c1.5-0.2,2.8,0.2,3.6,0.6c1.6,0.8,2.2,2.2,2,3.7c-0.2,1.7-1.4,3.4-3,4.7
				c-0.8,0.6-1.4,0.7-1.8,0.6c-1-0.2-2-1.1-2.7-2.1c-1.2-1.6-1.9-3.3-1.8-4.2C-45.1,70.3-44.7,69.7-44.2,69.2 M-41.9,68.6
				c-1.7,0.6-3.3,1.7-3,3c0.2,0.9,1,2.2,1.9,3.4c1,1.2,2.3,2.2,3.3,2c1.2-0.2,2.4-2.4,2.8-4.6c0.3-1.8,0.1-3.5-1.2-4
				C-39,68.1-40.7,68.2-41.9,68.6"/>
			<path class="st2" d="M-45.2,73.3c0-0.8,0.2-1.5,0.5-2.1c0.7-1.1,1.7-1.8,2.6-2.1c1.8-0.6,3,0.3,3.6,1.6c0.5,1,0.7,2.3,0.5,3.6
				c0,0.6-0.1,1.1-0.6,1.4c-0.7,0.4-1.8,0.5-2.8,0.3c-1.5-0.2-2.9-0.9-3.2-1.2C-45,74.4-45.1,73.9-45.2,73.3 M-44.2,71.5
				c-0.7,1.2-0.8,2.8,0,3.3c0.5,0.3,1.7,0.7,3,0.8c1.3,0.1,2.6,0,3-0.8c0.5-0.8,0-2.4-0.9-3.7c-1-1.3-2.2-2.2-3.2-1.7
				C-43.1,69.8-43.7,70.6-44.2,71.5"/>
			<path class="st2" d="M-40.3,74.2c-0.3-0.2-0.5-0.5-0.7-0.9c-0.2-0.7-0.2-1.6,0.3-2.4c0.7-1,1.7-1.2,2.5-1.1
				c1.3,0.2,2.5,1.1,3,1.8c0.2,0.3,0.2,0.5,0.2,0.7c0,0.6-0.6,1.2-1.5,1.7c-0.8,0.5-2,0.9-2.6,0.9C-39.4,74.9-40,74.6-40.3,74.2
				 M-40.6,73c0.4,1.1,1.2,1.9,2,1.8c0.2,0,1-0.4,1.8-0.9s1.6-1.2,1.5-1.9c0-0.6-1.4-1.3-2.8-1.5c-1.2-0.2-2.3,0-2.6,0.7
				C-40.8,71.7-40.8,72.4-40.6,73"/>
			<rect x="-31.5" y="69.7" class="st2" width="0.7" height="5.2"/>
			<path class="st2" d="M-26.1,74.9l-1.6-2.1c-0.3-0.4-0.4-0.6-0.6-0.8l0,0c0,0.2,0,0.4,0,0.6v2.2H-29V71h0.7l1.5,1.9
				c0.3,0.5,0.5,0.7,0.6,0.9l0,0c0-0.2,0-0.4,0-0.7V71h0.7v3.8L-26.1,74.9L-26.1,74.9z"/>
			<path class="st2" d="M-22.3,74.9h-0.5l-1.6-3.9h0.7l0.8,2c0.1,0.3,0.2,0.5,0.3,0.8l0,0c0.1-0.3,0.2-0.5,0.3-0.8l0.8-2h0.7
				L-22.3,74.9z"/>
			<rect x="-19.6" y="71" class="st2" width="0.7" height="3.8"/>
			<path class="st2" d="M-16.2,75c-0.5,0-0.9-0.1-1.2-0.3l0.3-0.5c0.2,0.1,0.5,0.2,0.9,0.2c0.4,0,0.6-0.2,0.6-0.6
				c0-0.6-0.9-0.6-1.4-1c-0.2-0.2-0.3-0.4-0.3-0.8c0-0.6,0.5-1,1.2-1c0.4,0,0.8,0.1,1,0.2v0.6c-0.3-0.2-0.6-0.3-0.9-0.3
				c-0.3,0-0.6,0.1-0.6,0.4c0,0.4,0.4,0.5,0.8,0.6c0.5,0.2,1,0.4,1,1.2C-14.9,74.5-15.5,74.9-16.2,75"/>
			<polygon class="st2" points="-11.2,71.6 -12.4,71.6 -12.4,74.9 -13,74.9 -13,71.6 -14.2,71.6 -14.2,71 -11,71 			"/>
			<path class="st2" d="M-8.6,73.4h-1l0.3-0.8c0.1-0.2,0.2-0.4,0.2-0.6l0,0c0.1,0.2,0.1,0.4,0.2,0.6L-8.6,73.4 M-7.3,74.9L-8.9,71
				h-0.5l-1.6,3.9h0.7l0.4-0.9h1.5l0.4,0.9H-7.3z"/>
		</g>
	</g>
	<g class="st1">
		<path class="st2" d="M-21.6,70.9c0.1-0.1,4-4.2,4-4.2h-3.7c0,0-3.5,3.2-3.7,3.4v-3.4h-3.5v9.5h3.5v-2c0,0,0.7-0.6,0.7-0.6
			c0.1,0.1,2.2,2.7,2.2,2.7h4.7C-17.4,76.3-21.6,71-21.6,70.9"/>
		<polygon class="st2" points="13.5,66.7 13.5,70.1 10.5,70.1 10.5,66.7 6.9,66.7 6.9,76.2 10.5,76.2 10.5,72.8 13.5,72.8 
			13.5,76.2 17.2,76.2 17.2,66.7 13.5,66.7 		"/>
		<path class="st2" d="M-8.8,66.7H-15c-1.2,0-2.1,1.1-2.1,2.4v4.7c0,1.3,0.9,2.4,2.1,2.4h6.2c1.2,0,2.1-1.1,2.1-2.4v-4.7
			C-6.7,67.8-7.6,66.7-8.8,66.7 M-10.2,69.6v3.8c0,0.4-0.3,0.7-0.6,0.7h-2c-0.3,0-0.6-0.3-0.6-0.7v-3.8c0-0.4,0.3-0.7,0.6-0.7h2
			C-10.5,68.9-10.2,69.2-10.2,69.6"/>
		<path class="st2" d="M5.2,70.2v-0.7c0-0.9-0.3-1.7-0.8-2.2c-0.3-0.3-0.7-0.5-1.1-0.5h-6.5c-1,0-1.9,1.2-1.9,2.7v4
			c0,1.5,0.9,2.7,1.9,2.7h6.5c1,0,1.9-1.2,1.9-2.7v-1.1l-3.4,0l-0.1,0.9c0,0.4-0.3,0.8-0.6,0.8h-2c-0.3,0-0.6-0.3-0.6-0.7v-3.8
			c0-0.4,0.3-0.7,0.6-0.7h2c0.3,0,0.6,0.3,0.6,0.7v0.5H5.2L5.2,70.2z"/>
		<path class="st2" d="M20.2,75l-0.3,0.9L19.6,75h-0.4v1.2h0.2v-1l0.3,1H20l0.3-1v1h0.2V75H20.2L20.2,75z M18,75v0.2h0.4v1h0.2v-1
			H19V75H18L18,75z"/>
		<path class="st3" d="M-38.3,66.7L-38.3,66.7h-6.3v9.5l6.2,0c0,0-1.5-4.7-1.5-4.7C-39.8,71.5-38.3,66.7-38.3,66.7L-38.3,66.7z"/>
		<polygon class="st3" points="-36.1,66.7 -38.9,71.5 -36.1,76.2 -31.7,76.2 -31.7,66.7 -36.1,66.7 		"/>
		<path class="st2" d="M-44.1,87.1h1.5c0.5,0,0.8-0.1,0.8-0.7c0-0.6-0.1-0.8-0.7-0.8h-1.6V87.1L-44.1,87.1z M-44.1,85.1h1.4
			c0.6,0,0.8-0.1,0.8-0.8c0-0.6-0.2-0.6-0.7-0.6h-1.5V85.1L-44.1,85.1z M-44.6,87.5v-4.3h2.2c0.8,0,1,0.4,1,1.1
			c0,0.4-0.1,0.7-0.5,0.9v0c0.6,0.1,0.7,0.5,0.7,1c0,0.8-0.3,1.2-1,1.2H-44.6L-44.6,87.5z"/>
		<path class="st2" d="M-37.2,83.3v3.1c0,1.1-0.7,1.2-1.7,1.2c-0.9,0-1.7,0-1.7-1.2v-3.1h0.5v3.1c0,0.7,0.2,0.8,1.2,0.8
			c0.9,0,1.2,0,1.2-0.8v-3.1H-37.2L-37.2,83.3z"/>
		<path class="st2" d="M-36.6,84.5c0-1.1,0.5-1.2,1.6-1.2c0.9,0,1.6,0,1.5,1.2H-34c0-0.7-0.2-0.8-1.1-0.8c-0.9,0-1.1,0.1-1.1,0.7
			c0,0.8,0.4,0.7,1.2,0.8c1,0.1,1.5,0,1.5,1.2c0,1.2-0.6,1.2-1.6,1.2c-1.1,0-1.6-0.1-1.6-1.4h0.5c0,0.9,0.2,0.9,1.1,0.9
			c0.9,0,1.2,0,1.2-0.8c0-0.8-0.4-0.7-1.1-0.7C-35.9,85.5-36.6,85.6-36.6,84.5L-36.6,84.5z"/>
		<polygon class="st2" points="-32.3,87.5 -32.8,87.5 -32.8,83.3 -32.3,83.3 -32.3,87.5 		"/>
		<polygon class="st2" points="-27.9,87.5 -28.7,87.5 -31.1,83.7 -31.1,83.7 -31.1,87.5 -31.6,87.5 -31.6,83.3 -30.8,83.3 
			-28.4,87.2 -28.4,87.2 -28.4,83.3 -27.9,83.3 -27.9,87.5 		"/>
		<polygon class="st2" points="-26.8,85.2 -24.6,85.2 -24.6,85.5 -26.8,85.5 -26.8,87.1 -24.5,87.1 -24.5,87.5 -27.3,87.5 
			-27.3,83.3 -24.5,83.3 -24.5,83.7 -26.8,83.7 -26.8,85.2 		"/>
		<path class="st2" d="M-24.1,84.5c0-1.1,0.5-1.2,1.6-1.2c0.9,0,1.6,0,1.5,1.2h-0.5c0-0.7-0.2-0.8-1.1-0.8c-0.9,0-1.1,0.1-1.1,0.7
			c0,0.8,0.4,0.7,1.2,0.8c1,0.1,1.5,0,1.5,1.2c0,1.2-0.6,1.2-1.6,1.2c-1.1,0-1.6-0.1-1.6-1.4h0.5c0,0.9,0.2,0.9,1.1,0.9
			c0.9,0,1.2,0,1.2-0.8c0-0.8-0.4-0.7-1.1-0.7C-23.4,85.5-24.1,85.6-24.1,84.5L-24.1,84.5z"/>
		<path class="st2" d="M-20.5,84.5c0-1.1,0.5-1.2,1.6-1.2c0.9,0,1.6,0,1.5,1.2h-0.5c0-0.7-0.2-0.8-1.1-0.8c-0.9,0-1.1,0.1-1.1,0.7
			c0,0.8,0.4,0.7,1.2,0.8c1,0.1,1.5,0,1.5,1.2c0,1.2-0.6,1.2-1.6,1.2c-1.1,0-1.6-0.1-1.6-1.4h0.5c0,0.9,0.2,0.9,1.1,0.9
			c0.9,0,1.2,0,1.2-0.8c0-0.8-0.4-0.7-1.1-0.7C-19.8,85.5-20.5,85.6-20.5,84.5L-20.5,84.5z"/>
		<path class="st2" d="M-15,84.5c0-1.1,0.5-1.2,1.6-1.2c0.9,0,1.6,0,1.5,1.2h-0.5c0-0.7-0.2-0.8-1.1-0.8c-0.9,0-1.1,0.1-1.1,0.7
			c0,0.8,0.4,0.7,1.2,0.8c1,0.1,1.5,0,1.5,1.2c0,1.2-0.6,1.2-1.6,1.2c-1.1,0-1.6-0.1-1.6-1.4h0.5c0,0.9,0.2,0.9,1.1,0.9
			c0.9,0,1.2,0,1.2-0.8c0-0.8-0.4-0.7-1.1-0.7C-14.3,85.5-15,85.6-15,84.5L-15,84.5z"/>
		<path class="st2" d="M-10,83.7c-0.7,0-0.9,0.2-0.9,1v1.5c0,0.8,0.3,0.9,0.9,1h0.6c0.6,0,0.9-0.1,0.9-1v-1.5c0-0.8-0.2-1-0.9-1H-10
			L-10,83.7z M-9.5,83.2c1.1,0,1.4,0.4,1.4,1.4v1.5c0,1-0.4,1.4-1.4,1.4H-10c-1,0-1.4-0.4-1.4-1.4v-1.5c0-1.1,0.3-1.4,1.4-1.4H-9.5
			L-9.5,83.2z"/>
		<polygon class="st2" points="-6.9,87.1 -4.8,87.1 -4.8,87.5 -7.4,87.5 -7.4,83.3 -6.9,83.3 -6.9,87.1 		"/>
		<path class="st2" d="M-0.9,83.3v3.1c0,1.1-0.7,1.2-1.7,1.2c-0.9,0-1.7,0-1.7-1.2v-3.1h0.5v3.1c0,0.7,0.2,0.8,1.2,0.8
			c0.9,0,1.2,0,1.2-0.8v-3.1H-0.9L-0.9,83.3z"/>
		<polygon class="st2" points="1.4,87.5 0.9,87.5 0.9,83.7 -0.5,83.7 -0.5,83.3 2.8,83.3 2.8,83.7 1.4,83.7 1.4,87.5 		"/>
		<polygon class="st2" points="3.7,87.5 3.2,87.5 3.2,83.3 3.7,83.3 3.7,87.5 		"/>
		<path class="st2" d="M5.7,83.7c-0.7,0-0.9,0.2-0.9,1v1.5c0,0.8,0.3,0.9,0.9,1h0.6c0.6,0,0.9-0.1,0.9-1v-1.5c0-0.8-0.2-1-0.9-1H5.7
			L5.7,83.7z M6.3,83.2c1.1,0,1.4,0.4,1.4,1.4v1.5c0,1-0.4,1.4-1.4,1.4H5.7c-1,0-1.4-0.4-1.4-1.4v-1.5c0-1.1,0.3-1.4,1.4-1.4H6.3
			L6.3,83.2z"/>
		<polygon class="st2" points="12,87.5 11.2,87.5 8.8,83.7 8.8,83.7 8.8,87.5 8.3,87.5 8.3,83.3 9.1,83.3 11.5,87.2 11.5,87.2 
			11.5,83.3 12,83.3 12,87.5 		"/>
		<path class="st2" d="M12.6,84.5c0-1.1,0.5-1.2,1.6-1.2c0.9,0,1.6,0,1.5,1.2h-0.5c0-0.7-0.2-0.8-1.1-0.8c-0.9,0-1.1,0.1-1.1,0.7
			c0,0.8,0.4,0.7,1.2,0.8c1,0.1,1.5,0,1.5,1.2c0,1.2-0.6,1.2-1.6,1.2c-1.1,0-1.6-0.1-1.6-1.4H13c0,0.9,0.2,0.9,1.1,0.9
			c0.9,0,1.2,0,1.2-0.8c0-0.8-0.4-0.7-1.1-0.7C13.3,85.5,12.6,85.6,12.6,84.5L12.6,84.5z"/>
		<g>
			<rect x="-44.6" y="80.5" class="st2" width="61.8" height="1"/>
		</g>
	</g>
</g>
<g id="pipeline" class="st0">
	<g class="st1">
		<path class="st2" d="M-21.9,71c0.1-0.1,4.1-4.2,4.1-4.2h-3.9c0,0-3.6,3.2-3.8,3.4v-3.4h-3.6v9.5h3.6v-2c0,0,0.7-0.6,0.8-0.6
			c0.1,0.1,2.3,2.7,2.3,2.7h4.9C-17.5,76.3-21.9,71-21.9,71"/>
		<polygon class="st2" points="14.5,66.8 14.5,70.2 11.3,70.2 11.3,66.8 7.6,66.8 7.6,76.3 11.3,76.3 11.3,72.8 14.4,72.8 
			14.4,76.3 18.3,76.3 18.3,66.8 14.5,66.8 		"/>
		<path class="st2" d="M-8.6,66.8h-6.4c-1.2,0-2.2,1.1-2.2,2.4v4.7c0,1.3,1,2.4,2.2,2.4h6.4c1.2,0,2.2-1.1,2.2-2.4v-4.7
			C-6.4,67.8-7.4,66.8-8.6,66.8 M-10.1,69.7v3.8c0,0.4-0.3,0.7-0.6,0.7h-2.1c-0.4,0-0.6-0.3-0.6-0.7v-3.8c0-0.4,0.3-0.7,0.6-0.7h2.1
			C-10.4,69-10.1,69.3-10.1,69.7"/>
		<path class="st2" d="M5.9,70.2v-0.7c0-0.9-0.3-1.7-0.8-2.2c-0.3-0.3-0.7-0.5-1.1-0.5h-6.7c-1.1,0-2,1.2-2,2.7v4
			c0,1.5,0.9,2.7,2,2.7h6.7c1.1,0,2-1.2,2-2.7v-1.1l-3.5,0l-0.1,0.9c0,0.4-0.3,0.8-0.6,0.8h-2.1c-0.4,0-0.6-0.3-0.6-0.7v-3.8
			c0-0.4,0.3-0.7,0.6-0.7h2.1c0.4,0,0.6,0.3,0.6,0.7v0.5H5.9L5.9,70.2z"/>
		<path class="st2" d="M21.4,75l-0.3,0.9L20.7,75h-0.4v1.2h0.2v-1l0.4,1h0.2l0.4-1v1h0.2V75H21.4L21.4,75z M19.1,75v0.2h0.4v1h0.3
			v-1h0.4V75H19.1L19.1,75z"/>
		<path class="st3" d="M-39.2,66.8L-39.2,66.8h-6.5v9.5l6.5,0c0,0-1.5-4.7-1.5-4.7C-40.8,71.5-39.2,66.8-39.2,66.8L-39.2,66.8z"/>
		<polygon class="st3" points="-36.9,66.8 -39.8,71.5 -36.9,76.3 -32.3,76.3 -32.3,66.8 -36.9,66.8 		"/>
		<path class="st2" d="M-45.2,83.7v1.7h1.3c0.7,0,1,0,1-0.8c0-0.8-0.2-0.9-0.8-0.9H-45.2L-45.2,83.7z M-45.7,83.3h2.2
			c0.9,0,1.1,0.6,1.1,1.3c0,0.4,0,1.3-1.1,1.3h-1.7v1.7h-0.5V83.3L-45.7,83.3z"/>
		<polygon class="st2" points="-41.3,87.5 -41.8,87.5 -41.8,83.3 -41.3,83.3 -41.3,87.5 		"/>
		<path class="st2" d="M-40,83.7v1.7h1.3c0.7,0,1,0,1-0.8c0-0.8-0.2-0.9-0.8-0.9H-40L-40,83.7z M-40.5,83.3h2.2
			c0.9,0,1.1,0.6,1.1,1.3c0,0.4,0,1.3-1.1,1.3H-40v1.7h-0.5V83.3L-40.5,83.3z"/>
		<polygon class="st2" points="-36.2,85.2 -34,85.2 -34,85.6 -36.2,85.6 -36.2,87.1 -33.9,87.1 -33.9,87.5 -36.7,87.5 -36.7,83.3 
			-33.9,83.3 -33.9,83.7 -36.2,83.7 -36.2,85.2 		"/>
		<polygon class="st2" points="-32.7,87.1 -30.5,87.1 -30.5,87.5 -33.2,87.5 -33.2,83.3 -32.7,83.3 -32.7,87.1 		"/>
		<polygon class="st2" points="-29.5,87.5 -30,87.5 -30,83.3 -29.5,83.3 -29.5,87.5 		"/>
		<polygon class="st2" points="-24.8,87.5 -25.7,87.5 -28.1,83.7 -28.1,83.7 -28.1,87.5 -28.6,87.5 -28.6,83.3 -27.8,83.3 
			-25.3,87.2 -25.3,87.2 -25.3,83.3 -24.8,83.3 -24.8,87.5 		"/>
		<polygon class="st2" points="-23.7,85.2 -21.5,85.2 -21.5,85.6 -23.7,85.6 -23.7,87.1 -21.4,87.1 -21.4,87.5 -24.2,87.5 
			-24.2,83.3 -21.4,83.3 -21.4,83.7 -23.7,83.7 -23.7,85.2 		"/>
		<g>
			<rect x="-45.7" y="80.1" class="st2" width="64" height="1.8"/>
		</g>
	</g>
</g>
<g id="kst" class="st0">
	<g class="st1">
		<path class="st2" d="M-21.5,71c0.1-0.1,4-4.2,4-4.2h-3.7c0,0-3.5,3.2-3.6,3.4v-3.4h-3.5v9.5h3.5v-2c0,0,0.7-0.6,0.7-0.6
			c0.1,0.1,2.2,2.7,2.2,2.7h4.7C-17.3,76.3-21.5,71.1-21.5,71"/>
		<polygon class="st2" points="13.5,66.8 13.5,70.2 10.4,70.2 10.4,66.8 6.9,66.8 6.9,76.3 10.5,76.3 10.5,72.8 13.4,72.8 
			13.4,76.3 17.1,76.3 17.1,66.8 13.5,66.8 		"/>
		<path class="st2" d="M-8.7,66.8h-6.2c-1.2,0-2.1,1.1-2.1,2.4v4.7c0,1.3,0.9,2.4,2.1,2.4h6.2c1.2,0,2.1-1.1,2.1-2.4v-4.7
			C-6.6,67.9-7.6,66.8-8.7,66.8 M-10.2,69.7v3.8c0,0.4-0.3,0.7-0.6,0.7h-2c-0.3,0-0.6-0.3-0.6-0.7v-3.8c0-0.4,0.3-0.7,0.6-0.7h2
			C-10.5,69-10.2,69.3-10.2,69.7"/>
		<path class="st2" d="M5.2,70.2v-0.7c0-0.8-0.3-1.7-0.8-2.2c-0.3-0.3-0.7-0.5-1.1-0.5h-6.5c-1,0-1.9,1.2-1.9,2.7v4
			c0,1.5,0.8,2.7,1.9,2.7h6.5c1,0,1.9-1.2,1.9-2.7v-1.1l-3.4,0l-0.1,0.9c0,0.4-0.3,0.8-0.6,0.8h-2c-0.3,0-0.6-0.3-0.6-0.7v-3.8
			c0-0.4,0.3-0.7,0.6-0.7h2c0.3,0,0.6,0.3,0.6,0.7v0.5H5.2L5.2,70.2z"/>
		<path class="st2" d="M20.1,75l-0.3,0.9L19.5,75h-0.4v1.2h0.2v-1l0.3,1h0.2l0.3-1v1h0.2V75H20.1L20.1,75z M17.9,75v0.2h0.4v1h0.2
			v-1h0.4V75H17.9L17.9,75z"/>
		<path class="st3" d="M-38.1,66.8L-38.1,66.8h-6.3v9.5l6.2,0c0,0-1.5-4.7-1.5-4.7C-39.6,71.5-38.1,66.8-38.1,66.8L-38.1,66.8z"/>
		<g>
			<polygon class="st3" points="-35.9,66.8 -38.7,71.6 -35.9,76.3 -31.5,76.3 -31.5,66.8 -35.9,66.8 			"/>
			<path class="st2" d="M-44.5,84.5c0-1.1,0.5-1.2,1.6-1.2c0.9,0,1.6,0,1.5,1.2h-0.5c0-0.7-0.2-0.8-1.1-0.8c-0.9,0-1.1,0.1-1.1,0.7
				c0,0.8,0.4,0.7,1.2,0.8c1,0.1,1.5,0,1.5,1.2c0,1.2-0.6,1.2-1.6,1.2c-1.1,0-1.6-0.1-1.5-1.4h0.5c0,0.9,0.2,0.9,1.1,0.9
				c0.9,0,1.2,0,1.2-0.8c0-0.8-0.4-0.7-1.1-0.7C-43.8,85.5-44.5,85.6-44.5,84.5L-44.5,84.5z"/>
		</g>
		<path class="st2" d="M-37.4,83.3v3.1c0,1.1-0.7,1.2-1.7,1.2c-0.9,0-1.7,0-1.7-1.2v-3.1h0.5v3.1c0,0.7,0.2,0.8,1.2,0.8
			c0.9,0,1.2,0,1.2-0.8v-3.1H-37.4L-37.4,83.3z"/>
		<path class="st2" d="M-36.2,83.7v1.7h1.2c0.6,0,1,0,1-0.8c0-0.8-0.1-0.9-0.7-0.9H-36.2L-36.2,83.7z M-36.6,83.3h2.2
			c0.8,0,1,0.6,1,1.3c0,0.4,0,1.3-1,1.3h-1.7v1.6h-0.5V83.3L-36.6,83.3z"/>
		<path class="st2" d="M-32.4,83.7v1.7h1.2c0.6,0,1,0,1-0.8c0-0.8-0.1-0.9-0.7-0.9H-32.4L-32.4,83.7z M-32.9,83.3h2.2
			c0.8,0,1,0.6,1,1.3c0,0.4,0,1.3-1,1.3h-1.7v1.6h-0.5V83.3L-32.9,83.3z"/>
		<polygon class="st2" points="-28.6,87.1 -26.5,87.1 -26.5,87.5 -29.1,87.5 -29.1,83.3 -28.6,83.3 -28.6,87.1 		"/>
		<g>
			<polygon class="st2" points="-24.8,85.7 -24.8,87.5 -25.3,87.5 -25.3,85.7 -26.9,83.3 -26.3,83.3 -25,85.3 -23.8,83.3 
				-23.2,83.3 -24.8,85.7 			"/>
			<path class="st2" d="M-19.8,85.3c-0.6,0.1-0.7,0.2-0.7,0.9c0,0.8,0.1,0.9,1.1,0.9c0.5,0,1.1,0,1.2-0.4L-19.8,85.3L-19.8,85.3z
				 M-17.7,87c-0.2,0.6-0.9,0.6-1.6,0.6c-0.9,0-1.6,0-1.6-1.3c0-1,0.3-1,0.9-1.2c-0.3-0.2-0.4-0.4-0.4-0.8c0-0.8,0.5-1,1.3-1
				c0.8,0,1.2,0.2,1.2,1.1v0.3h-0.5v-0.3c0-0.5-0.1-0.6-0.7-0.6c-0.5,0-0.8,0-0.8,0.6c0,0.3,0.1,0.4,0.3,0.6l1.6,1.4
				c0-0.1,0-0.2,0-0.3c0-0.1,0-0.2,0-0.3h0.4c0,0.1,0,0.2,0,0.3c0,0.2,0,0.4-0.1,0.6l0.8,0.6l-0.3,0.3L-17.7,87L-17.7,87z"/>
		</g>
		<polygon class="st2" points="-13,87.5 -13.5,87.5 -13.5,83.7 -14.9,83.7 -14.9,83.3 -11.7,83.3 -11.7,83.7 -13,83.7 -13,87.5 		
			"/>
		<path class="st2" d="M-9.3,85.4c0.7,0,0.8-0.2,0.8-0.9c0-0.5-0.1-0.7-0.8-0.7h-1.5v1.7H-9.3L-9.3,85.4z M-10.8,87.5h-0.5v-4.2h2
			c0.9,0,1.3,0.3,1.3,1.2c0,0.6-0.1,1-0.7,1.1v0c0.5,0,0.7,0.3,0.7,0.8v1.1h-0.5v-0.9c0-0.5-0.1-0.8-0.7-0.8h-1.5V87.5L-10.8,87.5z"
			/>
		<path class="st2" d="M-5.7,83.7l-0.9,2.5h1.9L-5.7,83.7L-5.7,83.7z M-6.8,86.6l-0.3,0.9h-0.5l1.5-4.2h0.7l1.6,4.2h-0.5l-0.3-0.9
			H-6.8L-6.8,86.6z"/>
		<path class="st2" d="M-1.4,87.1c0.8,0,1-0.5,1-1.3v-1.1c0-0.2-0.1-1-0.9-1H-3v3.4H-1.4L-1.4,87.1z M-3.4,83.3h2.1
			c0.5,0,1.5,0.1,1.5,1.6v1c0,0.4-0.1,1.6-1.3,1.6h-2.2V83.3L-3.4,83.3z"/>
		<polygon class="st2" points="1.2,87.5 0.8,87.5 0.8,83.3 1.2,83.3 1.2,87.5 		"/>
		<polygon class="st2" points="5.7,87.5 4.9,87.5 2.5,83.7 2.5,83.7 2.5,87.5 2,87.5 2,83.3 2.8,83.3 5.2,87.1 5.2,87.1 5.2,83.3 
			5.7,83.3 5.7,87.5 		"/>
		<path class="st2" d="M9.8,85.4v0.9c0,1-0.4,1.2-1.4,1.2H7.9c-1.1,0-1.6-0.2-1.6-1.5v-1.3c0-1.1,0.5-1.5,1.2-1.5h1.1
			c0.6,0,1.1,0.3,1.1,0.9v0.3H9.3v-0.2c0-0.5-0.2-0.6-0.9-0.6H7.8c-0.9,0-1.1,0.2-1.1,1.1v1.4c0,0.8,0.3,1,1.1,1h0.5
			c0.8,0,1-0.1,1-0.8v-0.5H8v-0.4H9.8L9.8,85.4z"/>
		<polygon class="st2" points="17.1,81.1 -44.4,81.1 -44.4,80.8 17.1,80.8 17.1,81.1 		"/>
	</g>
</g>
<g id="molex" class="st0">
	<g class="st1">
		<polygon class="st2" points="-6.5,84.4 -10.6,84.4 -10.6,68.2 -6.5,68.2 -6.5,84.4 		"/>
		<path class="st2" d="M-25.1,79.1c0,4,2.9,6,6.6,6c3.7,0,6.6-2,6.6-6.2c0-3.6-2.5-6-6.6-6C-22.4,72.8-25.1,75.1-25.1,79.1
			L-25.1,79.1z M-18.6,75.1c1.5-0.1,2.4,1.5,2.4,3.7c0,2.8-0.9,4-2.5,4c-1.5,0-2.5-1.2-2.5-4C-21.1,77.1-20.5,75.1-18.6,75.1
			L-18.6,75.1z"/>
		<path class="st2" d="M3.6,77.6h-4C-0.4,74.6,3.6,74.6,3.6,77.6L3.6,77.6z M1.8,82.2c-1.2,0-2.2-0.9-2.2-2.3H8
			c0.1-4.2-2.4-7.1-6.5-7.1c-3.6,0-6.3,2.4-6.3,6.2c0,3.9,2.8,6,6.3,6c2.6,0,5.4-1,6.2-3.8H3.4C3.1,81.9,2.5,82.2,1.8,82.2L1.8,82.2
			z"/>
		<path class="st2" d="M-35.1,84.4l0-7.1c0-1.1,0.9-2,2-2c1.1,0,2,0.9,2,2l0,7.1l3.9,0l0-8.5c-0.1-0.8-0.8-2-1.8-2.5
			c-1.3-0.6-4.1-1.3-6.4,1.3c-0.8-0.8-1.7-1.4-2.7-1.7c-1.7-0.4-3.6,0-4.8,1.3c-0.2,0.1-0.3,0.5-0.3,0.2v-1.4h-4v11.3h4v-7.1
			c0-1.1,0.9-2,2-2c1.1,0,2,0.9,2,2l0,7.1H-35.1L-35.1,84.4z"/>
		<path class="st2" d="M21.7,74.3h0.2v-0.4h0.3c0.2,0,0.2,0.1,0.2,0.2c0,0.1,0,0.2,0,0.2h0.3v0c-0.1,0-0.1-0.1-0.1-0.2
			c0-0.2-0.1-0.2-0.2-0.3c0.1,0,0.2-0.1,0.2-0.3c0-0.1-0.1-0.3-0.4-0.3h-0.6V74.3L21.7,74.3z M21.9,73.7v-0.3h0.3
			c0.1,0,0.2,0.1,0.2,0.1c0,0.1-0.1,0.2-0.2,0.2H21.9L21.9,73.7z"/>
		<path class="st2" d="M22.2,74.7c0.6,0,1-0.4,1-1c0-0.6-0.4-1-1-1c-0.6,0-1,0.4-1,1C21.2,74.3,21.6,74.7,22.2,74.7L22.2,74.7z
			 M21,73.7c0-0.6,0.5-1.2,1.2-1.2c0.6,0,1.2,0.5,1.2,1.2c0,0.6-0.5,1.2-1.2,1.2C21.5,74.9,21,74.4,21,73.7L21,73.7z"/>
		<path class="st2" d="M16.8,73.1l-1.9,2.7c-0.6-0.8-1.2-1.9-1.7-2.7H8.6l3.6,5.2c0,0-2.6,3.9-4,6l4,0l2.2-3.6
			c0.4,0.5,1.2,2.2,2.1,3.6h4.4c-1.1-1.8-3.7-6.1-3.7-6.1c1.1-1.8,2.5-3.4,3.7-5.2H16.8L16.8,73.1z"/>
	</g>
</g>
<g id="fhr" class="st0">
	<g class="st1">
		<g>
			<path class="st2" d="M-31.7,72.1v9.8h0v1.2c0,0.5,0.2,0.6,0.4,0.6c0.2,0,0.4-0.2,0.4-0.6v-1.2h0v-9.7c0-0.5-0.2-0.6-0.4-0.6
				C-31.6,71.5-31.7,71.7-31.7,72.1L-31.7,72.1z"/>
			<path class="st2" d="M-37.5,78.8h-3.9v0h-0.5l0-6.7h1.6c0.3,0,0.4-0.1,0.4-0.3c0-0.2-0.1-0.3-0.4-0.3h-1.6l0-0.6
				c0-1.6,0.1-2.4,0.4-2.8c0.3-0.3,0.7-0.4,1.3-0.5l0.6-0.1c0.1-0.1,0-0.3,0-0.4H-42c-0.8,0-1.4,0.3-1.9,0.8
				c-0.5,0.6-0.8,1.5-0.8,2.9v0.2c0,0,0,0.1,0,0.1v0.2h-1.3c-0.3,0-0.4,0.1-0.4,0.3c0,0.2,0.1,0.3,0.4,0.3h1.3v0v6.6h-1.4
				c-0.4,0-0.5,0.2-0.5,0.4c0,0.2,0.2,0.4,0.5,0.4h1.4v3.5c0,1.6-0.1,2.4-0.4,2.8c-0.3,0.3-0.7,0.4-1.3,0.5l-0.6,0.1
				c-0.1,0.1,0,0.3,0,0.4h2.4c0.8,0,1.4-0.3,1.9-0.8c0.5-0.6,0.8-1.5,0.8-2.9v-0.3c0,0,0-0.1,0-0.1l0-3.2h0.6v0h3.8
				c0.4,0,0.5-0.2,0.5-0.4C-37,79-37.1,78.8-37.5,78.8L-37.5,78.8z"/>
		</g>
		<path class="st2" d="M-35.7,73.8v9.3c0,1.4-0.3,2.3-0.8,2.9c-0.5,0.6-1.2,0.8-1.9,0.8h-2.2c-0.1-0.1-0.1-0.3,0-0.4l0.6-0.1
			c0.7-0.1,1.1-0.2,1.3-0.5c0.4-0.4,0.4-1.3,0.4-2.8v-7.4c0-0.7,0.3-1.2,0.8-1.5C-36.9,73.8-36.4,73.8-35.7,73.8L-35.7,73.8z"/>
		<path class="st2" d="M-28.8,77.8l0.2,0c0.4-0.1,0.4-0.1,0.4-1.2v-3.6c0-1,0-1.1-0.4-1.2l-0.2,0v-0.3h4c0.1,0.5,0.1,1.1,0.1,1.6
			l-0.3,0c-0.2-0.9-0.2-1.3-1.4-1.3H-27v2.8h0.7c0.7,0,0.9,0,0.9-0.4l0.1-0.3h0.2v2h-0.2l0-0.4c-0.1-0.4-0.3-0.4-0.9-0.4H-27v1.5
			c0,1.1,0,1.1,0.4,1.2l0.2,0V78h-2.4V77.8L-28.8,77.8z"/>
		<path class="st2" d="M-24.2,77.8l0.2,0c0.4-0.1,0.4,0,0.4-1.2v-3.6c0-1,0-1.1-0.4-1.2l-0.2,0v-0.3h2.4v0.3l-0.2,0
			c-0.4,0.1-0.4,0.2-0.4,1.2v4.6c0.3,0.1,0.5,0.1,0.8,0.1c1.2,0,1.2-0.7,1.5-1.5l0.3,0.1c-0.1,0.6-0.1,1.2-0.3,1.8h-4.1V77.8
			L-24.2,77.8z"/>
		<path class="st2" d="M-17.7,76.6c0,1,0,1.1,0.4,1.2l0.2,0V78h-2.4v-0.3l0.2,0c0.4-0.1,0.4-0.2,0.4-1.2V73c0-1,0-1.1-0.4-1.2
			l-0.2,0v-0.3h2.4v0.3l-0.2,0c-0.4,0.1-0.4,0.2-0.4,1.2V76.6L-17.7,76.6z"/>
		<path class="st2" d="M-16.7,77.8l0.3,0c0.4-0.1,0.4-0.4,0.4-1.7v-4.5c0.1,0,0.4-0.1,0.4-0.1l3.9,4.8v-2.7c0-1.6-0.1-1.7-0.5-1.7
			l-0.3,0v-0.3h2v0.3l-0.3,0c-0.4,0.1-0.4,0.4-0.4,1.7V78c-0.1,0-0.3,0.1-0.5,0.1l-3.9-4.7v2.6c0,1.6,0.1,1.6,0.5,1.7l0.3,0V78h-2
			V77.8L-16.7,77.8z"/>
		<path class="st2" d="M-8.7,71.9h-0.3c-1,0-1.1,0.3-1.3,1.3h-0.3c0-0.2,0.1-1.5,0.1-1.7h4.8c0,0.2,0.1,1.6,0.1,1.7h-0.3
			c-0.2-1.1-0.3-1.3-1.3-1.3h-0.3v4.7c0,1,0,1.1,0.6,1.2l0.2,0V78h-2.7v-0.3l0.2,0c0.6-0.1,0.6-0.1,0.6-1.2V71.9L-8.7,71.9z"/>
		<path class="st2" d="M-2.3,73c0-1,0-1.1-0.4-1.2l-0.2,0v-0.3h2.4v0.3l-0.2,0c-0.4,0.1-0.4,0.2-0.4,1.2v1.5h2.6V73
			c0-1,0-1.1-0.4-1.2l-0.2,0v-0.3h2.4v0.3l-0.2,0C2.6,71.8,2.6,72,2.6,73v3.6c0,1,0,1.1,0.4,1.2l0.2,0V78H0.9v-0.3l0.2,0
			c0.4-0.1,0.4-0.2,0.4-1.2v-1.7h-2.6v1.7c0,1,0,1.1,0.4,1.2l0.2,0V78h-2.4v-0.3l0.2,0c0.4-0.1,0.4-0.2,0.4-1.2V73L-2.3,73z"/>
		<path class="st2" d="M5.7,76.6c0,1,0,1.1,0.4,1.2l0.2,0V78H4v-0.3l0.2,0c0.4-0.1,0.4-0.2,0.4-1.2V73c0-1,0-1.1-0.4-1.2l-0.2,0
			v-0.3h2.4v0.3l-0.2,0c-0.4,0.1-0.4,0.2-0.4,1.2V76.6L5.7,76.6z"/>
		<path class="st2" d="M6.9,77.8l0.2,0c0.4-0.1,0.4,0,0.4-1.2v-3.6c0-1,0-1.1-0.4-1.2l-0.2,0v-0.3h2.4v0.3l-0.2,0
			c-0.4,0.1-0.4,0.2-0.4,1.2v4.6c0.3,0.1,0.5,0.1,0.8,0.1c1.2,0,1.2-0.7,1.5-1.5l0.3,0.1c-0.1,0.6-0.1,1.2-0.3,1.8H6.9V77.8
			L6.9,77.8z"/>
		<path class="st2" d="M11.3,77.8l0.2,0c0.4-0.1,0.4,0,0.4-1.2v-3.6c0-1,0-1.1-0.4-1.2l-0.2,0v-0.3h2.4v0.3l-0.2,0
			c-0.4,0.1-0.4,0.2-0.4,1.2v4.6c0.3,0.1,0.5,0.1,0.8,0.1c1.2,0,1.2-0.7,1.5-1.5l0.3,0.1c-0.1,0.6-0.1,1.2-0.3,1.8h-4.1V77.8
			L11.3,77.8z"/>
		<path class="st2" d="M19.3,73.2c-0.1-0.5-0.3-1.5-1.2-1.5c-0.5,0-0.9,0.4-0.9,1c0,1.5,2.8,1.4,2.8,3.6c0,1.4-1.1,1.9-2.1,1.9
			c-0.8,0-1.3-0.2-1.5-0.4c-0.2-0.6-0.3-1.1-0.3-1.9l0.4-0.1c0.1,0.6,0.4,2,1.5,2c0.5,0,0.9-0.4,0.9-1.1c0-1.7-2.7-1.6-2.7-3.6
			c0-1.3,0.8-1.8,1.9-1.8c0.7,0,1,0.2,1.4,0.4c0.1,0.5,0.1,1,0.1,1.5H19.3L19.3,73.2z"/>
		<path class="st2" d="M-28.2,81.5c0.2-0.3,0.4-0.5,0.8-0.5c0.1,0,0.3,0,0.4,0v0.4c-0.1,0-0.2,0-0.4,0c-0.3,0-0.6,0.2-0.7,0.4
			c-0.1,0.2-0.1,0.4-0.1,0.5v1.2h-0.5V81h0.5V81.5L-28.2,81.5z"/>
		<path class="st2" d="M-21.8,81.6c-0.2-0.2-0.4-0.3-0.7-0.3c-0.6,0-1,0.2-1,0.8h1.9C-21.7,81.9-21.7,81.7-21.8,81.6L-21.8,81.6z
			 M-23.6,82.3c0,0.6,0.4,0.9,0.9,0.9c0.2,0,0.5,0,0.7-0.2c0.1-0.1,0.1-0.2,0.1-0.3h0.5c0,0.2-0.1,0.4-0.3,0.6
			c-0.3,0.2-0.7,0.3-1,0.3c-0.9,0-1.4-0.4-1.4-1.4c0-0.3,0.1-0.7,0.4-0.9c0.3-0.3,0.8-0.4,1.2-0.4c0.5,0,1,0.2,1.2,0.7
			c0.1,0.3,0.1,0.5,0.1,0.8H-23.6L-23.6,82.3z"/>
		<path class="st2" d="M-16.2,81.4c-0.1-0.1-0.4-0.2-0.5-0.2c-0.2,0-0.7,0-0.7,0.4c0,0.3,0.3,0.3,0.6,0.4l0.4,0.1
			c0.5,0.1,1.1,0.2,1.1,0.8c0,0.3-0.2,0.5-0.4,0.7c-0.3,0.1-0.6,0.2-0.9,0.2c-0.3,0-0.8,0-1-0.3c-0.1-0.1-0.2-0.3-0.2-0.5h0.5
			c0,0.1,0.1,0.2,0.1,0.3c0.2,0.2,0.4,0.2,0.6,0.2c0.3,0,0.8-0.1,0.8-0.4c0-0.3-0.4-0.4-0.6-0.4l-0.3,0c-0.4-0.1-1-0.2-1-0.7
			c0-0.3,0.2-0.5,0.4-0.6c0.3-0.1,0.6-0.2,0.9-0.2c0.3,0,0.7,0.1,0.9,0.2c0.2,0.1,0.2,0.3,0.2,0.5h-0.5
			C-16.1,81.5-16.1,81.4-16.2,81.4L-16.2,81.4z"/>
		<path class="st2" d="M-11.8,82.2c0,0.7,0.5,1,1.1,1c0.6,0,1.1-0.4,1.1-1c0-0.7-0.5-1-1.1-1C-11.4,81.2-11.8,81.6-11.8,82.2
			L-11.8,82.2z M-9.5,81.2c0.3,0.3,0.4,0.6,0.4,1c0,0.4-0.1,0.7-0.4,1c-0.3,0.3-0.8,0.4-1.2,0.4c-0.4,0-0.9-0.1-1.2-0.4
			c-0.3-0.3-0.4-0.6-0.4-1c0-0.4,0.1-0.7,0.4-1c0.3-0.3,0.8-0.4,1.2-0.4C-10.3,80.9-9.9,81-9.5,81.2L-9.5,81.2z"/>
		<path class="st2" d="M-3.1,83.5h-0.4V83c-0.1,0.1-0.1,0.2-0.3,0.3c-0.2,0.2-0.5,0.2-0.8,0.2c-0.4,0-0.8-0.1-1-0.5
			c-0.1-0.2-0.1-0.5-0.1-0.8V81h0.5v1.4c0,0.2,0,0.5,0.2,0.7c0.2,0.2,0.4,0.2,0.6,0.2c0.2,0,0.5-0.1,0.6-0.2c0.3-0.2,0.3-0.7,0.3-1
			V81h0.4V83.5L-3.1,83.5z"/>
		<path class="st2" d="M0.9,81.5c0.2-0.3,0.4-0.5,0.8-0.5c0.1,0,0.3,0,0.4,0v0.4c-0.1,0-0.2,0-0.4,0c-0.3,0-0.6,0.2-0.7,0.4
			C1,82,1,82.2,0.9,82.3v1.2H0.5V81h0.5V81.5L0.9,81.5z"/>
		<path class="st2" d="M7.5,81.8c0-0.4-0.4-0.6-0.8-0.6c-0.6,0-1,0.4-1,1c0,0.6,0.4,1,1,1c0.4,0,0.7-0.2,0.8-0.6l0.5,0
			c0,0.2-0.1,0.4-0.2,0.5c-0.3,0.3-0.7,0.4-1,0.4c-0.8,0-1.5-0.5-1.5-1.3c0-0.9,0.7-1.4,1.5-1.4c0.4,0,0.8,0.1,1.1,0.4
			c0.1,0.2,0.2,0.3,0.2,0.5L7.5,81.8L7.5,81.8z"/>
		<path class="st2" d="M13.4,81.6c-0.2-0.2-0.4-0.3-0.7-0.3c-0.6,0-1,0.2-1,0.8h1.9C13.5,81.9,13.5,81.7,13.4,81.6L13.4,81.6z
			 M11.6,82.3c0,0.6,0.4,0.9,0.9,0.9c0.2,0,0.5,0,0.7-0.2c0.1-0.1,0.1-0.2,0.1-0.3h0.5c0,0.2-0.1,0.4-0.3,0.6
			c-0.3,0.2-0.7,0.3-1,0.3c-0.9,0-1.4-0.4-1.4-1.4c0-0.3,0.1-0.7,0.4-0.9c0.3-0.3,0.8-0.4,1.2-0.4c0.5,0,1,0.2,1.2,0.7
			c0.1,0.3,0.1,0.5,0.1,0.8H11.6L11.6,82.3z"/>
		<path class="st2" d="M19,81.4c-0.1-0.1-0.4-0.2-0.5-0.2c-0.2,0-0.7,0-0.7,0.4c0,0.3,0.3,0.3,0.6,0.4l0.4,0.1
			c0.5,0.1,1.1,0.2,1.1,0.8c0,0.3-0.2,0.5-0.4,0.7c-0.3,0.1-0.6,0.2-0.9,0.2c-0.3,0-0.8,0-1-0.3c-0.1-0.1-0.2-0.3-0.2-0.5h0.5
			c0,0.1,0.1,0.2,0.1,0.3c0.2,0.2,0.4,0.2,0.6,0.2c0.3,0,0.8-0.1,0.8-0.4c0-0.3-0.4-0.4-0.6-0.4l-0.3,0c-0.4-0.1-1-0.2-1-0.7
			c0-0.3,0.2-0.5,0.4-0.6c0.3-0.1,0.6-0.2,0.9-0.2c0.3,0,0.7,0.1,0.9,0.2c0.2,0.1,0.2,0.3,0.2,0.5h-0.5C19.1,81.5,19.1,81.4,19,81.4
			L19,81.4z"/>
		<path class="st2" d="M22.2,81.6h0.1c0.1,0,0.2,0,0.2-0.2c0-0.1-0.1-0.2-0.2-0.2c0,0-0.1,0-0.1,0V81.6L22.2,81.6z M22.2,82.1h-0.1
			v-0.9c0.1,0,0.1,0,0.3,0c0.1,0,0.2,0,0.3,0.1c0.1,0,0.1,0.1,0.1,0.2c0,0.1-0.1,0.2-0.2,0.2v0c0.1,0,0.1,0.1,0.1,0.2
			c0,0.1,0,0.2,0.1,0.2h-0.1c0,0,0-0.1-0.1-0.2c0-0.1-0.1-0.2-0.2-0.2h-0.1V82.1L22.2,82.1z M22.4,80.9c-0.4,0-0.6,0.3-0.6,0.7
			c0,0.4,0.3,0.7,0.6,0.7c0.4,0,0.6-0.3,0.6-0.7S22.7,80.9,22.4,80.9L22.4,80.9L22.4,80.9z M22.4,80.8c0.4,0,0.8,0.4,0.8,0.8
			c0,0.5-0.3,0.8-0.8,0.8c-0.4,0-0.8-0.4-0.8-0.8C21.6,81.2,21.9,80.8,22.4,80.8L22.4,80.8L22.4,80.8z"/>
	</g>
</g>
<g id="invista_1_" class="st0">
	<g class="st1">
		<g>
			<path class="st2" d="M23.2,75.6v-0.7c0-0.1,0-0.1,0-0.2h0c0,0.1-0.1,0.1-0.1,0.2l-0.3,0.4h-0.1l-0.3-0.4c0,0-0.1-0.1-0.1-0.2h0
				c0,0.1,0,0.1,0,0.2v0.7h-0.2v-1.3h0.2l0.4,0.5c0,0.1,0.1,0.1,0.1,0.2h0c0-0.1,0-0.1,0.1-0.2l0.3-0.5h0.2v1.3H23.2L23.2,75.6z
				 M21.9,74.5h-0.4v1.1h-0.2v-1.1h-0.4v-0.2H22L21.9,74.5"/>
			<path class="st2" d="M-41.6,70.2c-3.2,1-6,3-5.5,5.2c0.4,1.6,1.7,3.8,3.5,5.8c1.9,2.1,4.1,3.7,5.9,3.5c2.2-0.3,4.4-4.2,5-7.9
				c0.5-3.1,0.1-6.1-2.1-6.9C-36.4,69.3-39.4,69.5-41.6,70.2L-41.6,70.2z M-45.7,71.2c1.6-1.5,3.4-2.2,5.2-2.5c2.6-0.4,5,0.4,6.4,1
				c2.9,1.5,3.9,3.7,3.6,6.5c-0.3,3-2.5,5.9-5.5,8.2c-1.2,0.9-2.4,1.1-3.2,0.9c-1.8-0.4-3.6-1.9-5-3.6c-2.1-2.7-3.4-5.7-3.2-7.1
				C-47.4,73.2-46.7,72.1-45.7,71.2"/>
			<path class="st2" d="M-45.8,75.2c-1.2,2.1-1.5,4.7,0,5.8c0.8,0.6,3.1,1.2,5.4,1.4c2.3,0.2,4.6-0.1,5.4-1.3c0.9-1.4,0-4.2-1.6-6.4
				c-1.7-2.4-3.9-4-5.8-3.1C-43.7,72.2-44.9,73.6-45.8,75.2L-45.8,75.2z M-47.5,78.2c-0.1-1.4,0.3-2.6,1-3.7
				c1.1-1.7,2.9-2.9,4.6-3.5c3.2-1,5.5,0.6,6.6,2.8c0.9,1.8,1.2,4.1,1,6.2c-0.1,0.9-0.3,1.8-1.3,2.4c-1.3,0.8-3.2,0.8-5.1,0.5
				c-2.6-0.4-5.2-1.5-5.8-2.1C-47.2,80.1-47.5,79.3-47.5,78.2"/>
		</g>
		<path class="st2" d="M-39.2,77.7c0.6,1.9,2.1,3.3,3.6,3c0.5-0.1,1.9-0.6,3.3-1.5c1.5-0.9,2.9-2.1,2.8-3.3c-0.1-1-2.7-2.2-5.2-2.5
			c-2.1-0.3-4.2-0.1-4.7,1.3C-39.7,75.6-39.5,76.7-39.2,77.7L-39.2,77.7z M-38.7,79.9c-0.5-0.4-0.9-1-1.2-1.6
			c-0.5-1.2-0.4-2.8,0.4-4.1c1.2-1.7,3-2.1,4.6-1.8c2.3,0.4,4.5,1.9,5.5,3.2c0.2,0.3,0.4,0.6,0.4,0.9c0,1-1.2,2.1-2.6,3
			c-1.5,0.9-3.6,1.6-4.7,1.6C-37.1,81-38.1,80.5-38.7,79.9"/>
		<polyline class="st2" points="-22.7,81 -22.7,72 -21.4,72 -21.4,81 -22.7,81 		"/>
		<path class="st2" d="M-12.9,81l-2.8-3.6c-0.5-0.7-0.8-1-1-1.4h0c0,0.3,0,0.7,0,1.1V81H-18v-6.6h1.3l2.6,3.3
			c0.6,0.8,0.9,1.1,1.1,1.5h0c0-0.3,0-0.7,0-1.2v-3.7h1.3V81H-12.9"/>
		<path class="st2" d="M-6.1,81.1h-0.8l-2.9-6.7h1.3l1.5,3.5c0.2,0.5,0.4,0.9,0.5,1.4h0c0.1-0.4,0.3-0.9,0.6-1.4l1.5-3.5H-3
			L-6.1,81.1"/>
		<polyline class="st2" points="-1.1,81 -1.1,74.4 0.1,74.4 0.1,81 -1.1,81 		"/>
		<path class="st2" d="M5.1,81.2c-1,0-1.7-0.2-2.2-0.6l0.5-0.9c0.5,0.3,1.1,0.6,1.7,0.6c0.7,0,1.2-0.4,1.2-1c0-1.1-1.7-1-2.6-1.8
			C3.3,77,3,76.7,3.1,76c0-1,0.8-1.8,2.2-1.8c0.8,0,1.4,0.2,1.8,0.4v1.1c-0.5-0.3-1.1-0.5-1.6-0.5c-0.6,0-1.1,0.2-1.1,0.8
			c0,0.7,0.7,0.8,1.4,1.1c0.9,0.3,1.8,0.7,1.8,2.1C7.5,80.3,6.4,81.1,5.1,81.2"/>
		<polyline class="st2" points="14.1,75.4 12.1,75.4 12.1,81 10.8,81 10.8,75.4 8.7,75.4 8.7,74.4 14.6,74.4 14.1,75.4 		"/>
		<path class="st2" d="M21.3,81l-2.8-6.7h-0.9L14.7,81H16l0.6-1.6h2.7L20,81H21.3L21.3,81z M18.9,78.5h-1.9l0.6-1.4
			c0.2-0.4,0.3-0.7,0.4-1h0c0.1,0.3,0.2,0.6,0.4,1L18.9,78.5"/>
	</g>
</g>
<g id="chemical_technology" class="st0">
	<g class="st1">
		<polygon class="st2" points="-26.4,73.5 -26,73.5 -24.9,71.9 -23.6,71.9 -25.1,74 -23.4,76.1 -24.8,76.1 -26,74.5 -26.4,74.5 
			-26.4,76.1 -27.5,76.1 -27.5,71.9 -26.4,71.9 -26.4,73.5 		"/>
		<path class="st2" d="M-20.7,74.5v-1c0-0.6-0.2-0.7-0.8-0.7c-0.6,0-0.8,0.1-0.8,0.7v1c0,0.6,0.2,0.7,0.8,0.7
			C-20.9,75.2-20.7,75.1-20.7,74.5L-20.7,74.5z M-23.4,74.6v-1.2c0-1.3,0.8-1.6,2-1.6c1.1,0,2,0.2,2,1.6v1.2c0,1.3-0.8,1.6-2,1.6
			C-22.6,76.2-23.4,75.9-23.4,74.6L-23.4,74.6z"/>
		<path class="st2" d="M-15.4,74.5v0.1c0,0.5,0,0.9-0.4,1.2c-0.4,0.3-0.9,0.3-1.3,0.3c-1.2,0-2-0.1-2-1.6v-1.1c0-1.4,0.8-1.6,2-1.6
			c1.2,0,1.7,0.1,1.7,1.4v0.2h-1.2v-0.2c0-0.4-0.3-0.4-0.7-0.4c-0.6,0-0.7,0.2-0.7,0.8v0.7c0,0.6,0,0.9,0.7,0.9c0.5,0,0.7,0,0.7-0.5
			v-0.1H-15.4L-15.4,74.5z"/>
		<polygon class="st2" points="-11.1,76.1 -12.2,76.1 -12.2,74.5 -13.7,74.5 -13.7,76.1 -14.8,76.1 -14.8,71.9 -13.7,71.9 
			-13.7,73.5 -12.2,73.5 -12.2,71.9 -11.1,71.9 -11.1,76.1 		"/>
		<path class="st2" d="M-4.8,74.5v0.1c0,0.5,0,0.9-0.4,1.2c-0.4,0.3-0.9,0.3-1.3,0.3c-1.2,0-2-0.1-2-1.6v-1.1c0-1.4,0.8-1.6,2-1.6
			c1.2,0,1.7,0.1,1.7,1.4v0.2H-6v-0.2c0-0.4-0.3-0.4-0.7-0.4c-0.6,0-0.7,0.2-0.7,0.8v0.7c0,0.6,0,0.9,0.7,0.9c0.5,0,0.7,0,0.7-0.5
			v-0.1H-4.8L-4.8,74.5z"/>
		<polygon class="st2" points="-0.5,76.1 -1.7,76.1 -1.7,74.5 -3.1,74.5 -3.1,76.1 -4.3,76.1 -4.3,71.9 -3.1,71.9 -3.1,73.5 
			-1.7,73.5 -1.7,71.9 -0.5,71.9 -0.5,76.1 		"/>
		<polygon class="st2" points="1.3,73.6 3.1,73.6 3.1,74.4 1.3,74.4 1.3,75.2 3.3,75.2 3.3,76.1 0.2,76.1 0.2,71.9 3.2,71.9 
			3.2,72.8 1.3,72.8 1.3,73.6 		"/>
		<polygon class="st2" points="5.1,76.1 4,76.1 4,71.9 5.8,71.9 6.6,74.6 6.6,74.6 7.4,71.9 9.2,71.9 9.2,76.1 8.1,76.1 8.2,72.9 
			8.2,72.9 7.1,76.1 6.1,76.1 5,72.9 5,72.9 5.1,76.1 		"/>
		<polygon class="st2" points="11.1,76.1 9.9,76.1 9.9,71.9 11.1,71.9 11.1,76.1 		"/>
		<path class="st2" d="M15.3,74.5v0.1c0,0.5,0,0.9-0.4,1.2c-0.4,0.3-0.9,0.3-1.3,0.3c-1.2,0-2-0.1-2-1.6v-1.1c0-1.4,0.8-1.6,2-1.6
			c1.2,0,1.7,0.1,1.7,1.4v0.2h-1.2v-0.2c0-0.4-0.3-0.4-0.7-0.4c-0.6,0-0.7,0.2-0.7,0.8v0.7c0,0.6,0,0.9,0.7,0.9c0.5,0,0.7,0,0.7-0.5
			v-0.1H15.3L15.3,74.5z"/>
		<path class="st2" d="M17.6,72.7L17.6,72.7l-0.5,1.8h1.1L17.6,72.7L17.6,72.7z M16.8,75.4l-0.2,0.7h-1.2l1.3-4.2h1.7l1.3,4.2h-1.2
			l-0.2-0.7H16.8L16.8,75.4z"/>
		<polygon class="st2" points="21.1,75.2 22.9,75.2 22.9,76.1 20,76.1 20,71.9 21.1,71.9 21.1,75.2 		"/>
		<polygon class="st2" points="-25.6,82.2 -26.8,82.2 -26.8,79 -27.8,79 -27.8,78 -24.5,78 -24.5,79 -25.6,79 -25.6,82.2 		"/>
		<polygon class="st2" points="-23,79.7 -21.2,79.7 -21.2,80.5 -23,80.5 -23,81.3 -21,81.3 -21,82.2 -24.1,82.2 -24.1,78 -21.1,78 
			-21.1,78.9 -23,78.9 -23,79.7 		"/>
		<path class="st2" d="M-16.7,80.6v0.1c0,0.5,0,0.9-0.4,1.2c-0.4,0.3-0.9,0.3-1.3,0.3c-1.2,0-2-0.1-2-1.6v-1.1c0-1.4,0.8-1.6,2-1.6
			c1.2,0,1.7,0.1,1.7,1.4v0.2h-1.2v-0.2c0-0.4-0.3-0.4-0.7-0.4c-0.6,0-0.7,0.2-0.7,0.8v0.7c0,0.6,0,0.9,0.7,0.9c0.5,0,0.7,0,0.7-0.5
			v-0.1H-16.7L-16.7,80.6z"/>
		<polygon class="st2" points="-12.5,82.2 -13.6,82.2 -13.6,80.6 -15.1,80.6 -15.1,82.2 -16.2,82.2 -16.2,78 -15.1,78 -15.1,79.6 
			-13.6,79.6 -13.6,78 -12.5,78 -12.5,82.2 		"/>
		<polygon class="st2" points="-10.6,82.2 -11.8,82.2 -11.8,78 -9.9,78 -8.6,81.2 -8.6,81.2 -8.7,78 -7.5,78 -7.5,82.2 -9.5,82.2 
			-10.7,79 -10.7,79 -10.6,82.2 		"/>
		<path class="st2" d="M-4.3,80.6v-1c0-0.6-0.2-0.7-0.8-0.7c-0.6,0-0.8,0.1-0.8,0.7v1c0,0.6,0.2,0.7,0.8,0.7
			C-4.5,81.3-4.3,81.2-4.3,80.6L-4.3,80.6z M-7,80.7v-1.2c0-1.3,0.8-1.6,2-1.6c1.1,0,2,0.2,2,1.6v1.2c0,1.3-0.8,1.6-2,1.6
			C-6.2,82.3-7,82-7,80.7L-7,80.7z"/>
		<polygon class="st2" points="-1.4,81.2 0.3,81.2 0.3,82.2 -2.6,82.2 -2.6,78 -1.4,78 -1.4,81.2 		"/>
		<path class="st2" d="M3.3,80.6v-1c0-0.6-0.2-0.7-0.8-0.7c-0.6,0-0.8,0.1-0.8,0.7v1c0,0.6,0.2,0.7,0.8,0.7
			C3.1,81.3,3.3,81.2,3.3,80.6L3.3,80.6z M0.6,80.7v-1.2c0-1.3,0.8-1.6,2-1.6c1.1,0,2,0.2,2,1.6v1.2c0,1.3-0.8,1.6-2,1.6
			C1.4,82.3,0.6,82,0.6,80.7L0.6,80.7z"/>
		<path class="st2" d="M7.6,79.3c0-0.4-0.4-0.4-0.7-0.4c-0.8,0-0.8,0.2-0.8,0.9v0.7c0,0.8,0.3,0.8,0.8,0.8c0.6,0,0.7-0.1,0.7-0.7
			H6.8v-0.8h1.9v0.7c0,1.4-0.4,1.7-1.9,1.7c-1.3,0-2-0.2-2-1.6v-1.1c0-1.4,0.8-1.6,2-1.6c1.1,0,1.9,0,1.9,1.4H7.6L7.6,79.3z"/>
		<polygon class="st2" points="11.5,80.7 11.5,82.2 10.4,82.2 10.4,80.7 8.9,78 10.2,78 10.9,79.6 11,79.6 11.7,78 13.1,78 
			11.5,80.7 		"/>
		<path class="st2" d="M17.9,79.3c0-0.4-0.4-0.4-0.7-0.4c-0.8,0-0.8,0.2-0.8,0.9v0.7c0,0.8,0.3,0.8,0.8,0.8c0.6,0,0.7-0.1,0.7-0.7
			h-0.8v-0.8h1.9v0.7c0,1.4-0.4,1.7-1.9,1.7c-1.3,0-2-0.2-2-1.6v-1.1c0-1.4,0.8-1.6,2-1.6c1.1,0,1.9,0,1.9,1.4H17.9L17.9,79.3z"/>
		<path class="st2" d="M21.6,80.1c0.5,0,0.5-0.2,0.5-0.7c0-0.4-0.1-0.5-0.5-0.5h-0.9v1.1H21.6L21.6,80.1z M19.6,78h2.2
			c1,0,1.5,0.2,1.5,1.3c0,0.7,0,1.1-0.8,1.3v0c0.5,0,0.8,0.3,0.8,0.8v0.9h-1.1v-0.6c0-0.3-0.1-0.5-0.5-0.5h-0.9v1.1h-1.1V78L19.6,78
			z"/>
		<path class="st2" d="M26.4,80.6v-1c0-0.6-0.2-0.7-0.8-0.7c-0.6,0-0.8,0.1-0.8,0.7v1c0,0.6,0.2,0.7,0.8,0.7
			C26.2,81.3,26.4,81.2,26.4,80.6L26.4,80.6z M23.6,80.7v-1.2c0-1.3,0.8-1.6,2-1.6c1.1,0,2,0.2,2,1.6v1.2c0,1.3-0.8,1.6-2,1.6
			C24.5,82.3,23.6,82,23.6,80.7L23.6,80.7z"/>
		<path class="st2" d="M31.7,78v2.8c0,1.1-0.5,1.4-1.8,1.4c-1.7,0-1.9-0.4-1.9-1.4V78h1.1v2.8c0,0.5,0.3,0.5,0.7,0.5
			c0.5,0,0.6,0,0.6-0.5V78H31.7L31.7,78z"/>
		<path class="st2" d="M34.3,80.2c0.4,0,0.5-0.1,0.5-0.6c0-0.4-0.1-0.6-0.5-0.6h-0.8v1.2H34.3L34.3,80.2z M32.4,82.2V78h2.1
			c1.1,0,1.4,0.4,1.4,1.6c0,1.2-0.3,1.6-1.4,1.6h-1v1.1H32.4L32.4,82.2z"/>
		<polygon class="st2" points="39.6,81.2 41.4,81.2 41.4,82.2 38.5,82.2 38.5,78 39.6,78 39.6,81.2 		"/>
		<polygon class="st2" points="43.3,82.2 42.1,82.2 42.1,79 41.1,79 41.1,78 44.4,78 44.4,79 43.3,79 43.3,82.2 		"/>
		<path class="st2" d="M45.8,81.2h1c0.4,0,0.6-0.3,0.6-0.7v-0.9c0-0.5-0.2-0.7-0.6-0.7h-1V81.2L45.8,81.2z M44.7,78h2.1
			c1.2,0,1.7,0.4,1.7,1.6v0.9c0,1.2-0.4,1.7-1.6,1.7h-2.3V78L44.7,78z"/>
		<path class="st2" d="M-29.7,81.4l-0.3,0.7l-0.3-0.7h-0.3v1h0.2v-0.8l0.3,0.8h0.2l0.3-0.8v0.8h0.2v-1H-29.7L-29.7,81.4z
			 M-31.5,81.4v0.2h0.3v0.8h0.2v-0.8h0.3v-0.2H-31.5L-31.5,81.4z"/>
		<path class="st3" d="M-40,71.5L-40,71.5h-7.2v10.9l7.2,0c0,0-1.7-5.4-1.7-5.4C-41.7,77-40,71.5-40,71.5L-40,71.5z"/>
		<polygon class="st3" points="-37.4,71.5 -40.7,77 -37.4,82.4 -32.4,82.4 -32.4,71.5 -37.4,71.5 		"/>
	</g>
</g>
<g id="matador" class="st0">
	<g class="st1">
		<path class="st2" d="M-34.9,69.5v6.1c0,0.5,0,0.9,0,1.2c0,0.2,0.1,0.4,0.2,0.4c0.1,0,0.1,0.1,0.2,0.1c0.3,0.1,0.4,0.4,0.4,0.6
			c0,0.2,0,0.4-0.1,0.4c-0.1,0.1-0.2,0.1-0.4,0.1h-1.7c-0.2,0-0.3,0-0.4-0.1c-0.1-0.1-0.1-0.2-0.1-0.4c0-0.3,0.1-0.5,0.4-0.6
			c0.1,0,0.1-0.1,0.2-0.1c0.1-0.1,0.1-0.3,0.2-0.5c0-0.2,0-0.8,0-1.7v-6c0-0.3,0-0.6,0-0.7c0-0.1-0.1-0.2-0.2-0.2
			c0,0-0.1-0.1-0.2-0.1c-0.3-0.1-0.4-0.3-0.4-0.6c0-0.2,0.1-0.4,0.2-0.5c0.1-0.1,0.3-0.2,0.5-0.2h1.8c0.2,0,0.4,0.1,0.5,0.2
			c0.1,0.1,0.2,0.4,0.3,0.9l1.3,5l1.4-5.2c0.1-0.4,0.2-0.7,0.3-0.8c0.1-0.1,0.2-0.2,0.3-0.2h1.8c0.2,0,0.4,0.1,0.5,0.2
			c0.1,0.1,0.1,0.3,0.1,0.5c0,0.3-0.1,0.5-0.4,0.6c0,0-0.1,0-0.1,0c-0.1,0.1-0.2,0.1-0.2,0.2c0,0.1-0.1,0.3-0.1,0.5v7.3
			c0,0.4,0,0.7,0.1,0.9c0,0.2,0.1,0.3,0.3,0.4c0,0,0,0,0.1,0c0.2,0.1,0.3,0.3,0.3,0.5c0,0.2,0,0.3-0.1,0.4c-0.1,0.1-0.3,0.1-0.5,0.1
			h-2.1c-0.2,0-0.3,0-0.4-0.1c-0.1-0.1-0.1-0.2-0.1-0.4c0-0.2,0.1-0.5,0.3-0.6c0.1-0.1,0.1-0.1,0.2-0.1c0.1-0.1,0.1-0.2,0.1-0.3
			c0-0.2,0-0.4,0-0.7v-6.5l-1.7,6.5c-0.1,0.4-0.2,0.6-0.3,0.8c-0.1,0.1-0.2,0.2-0.3,0.2c-0.1,0-0.2-0.1-0.3-0.2
			c-0.1-0.1-0.2-0.4-0.3-0.8L-34.9,69.5z"/>
		<path class="st2" d="M-25.4,75.4c-0.1,0.6-0.2,1-0.3,1.3c0,0.3-0.1,0.5-0.1,0.6c0,0.1,0,0.2,0.1,0.3c0,0,0,0,0.1,0.1
			c0.1,0.1,0.1,0.2,0.2,0.3c0,0.1,0,0.1,0,0.2c0,0.1,0,0.2-0.1,0.3c0,0.1-0.1,0.1-0.2,0.1h-1.3c-0.1,0-0.2,0-0.2-0.1
			c-0.1-0.1-0.1-0.2-0.1-0.3c0-0.1,0.1-0.3,0.2-0.4c0.1-0.1,0.2-0.2,0.2-0.2c0-0.1,0.2-0.6,0.4-1.5c0.2-0.9,0.4-1.7,0.6-2.4
			c0.2-0.9,0.4-1.7,0.6-2.4c0.2-0.7,0.4-1.3,0.5-1.7l0-0.1c0.2-0.7,0.5-1,0.8-1c0.2,0,0.3,0,0.4,0.1c0.1,0.1,0.2,0.2,0.3,0.4
			c0.1,0.2,0.3,0.8,0.6,1.6c0.3,0.8,0.5,1.8,0.8,2.9c0.2,0.9,0.4,1.8,0.6,2.7c0.2,0.9,0.3,1.3,0.3,1.3c0,0,0.1,0.1,0.2,0.3
			c0.1,0.1,0.2,0.3,0.2,0.4c0,0.1,0,0.2-0.1,0.3c-0.1,0.1-0.2,0.1-0.3,0.1h-1.7c-0.1,0-0.2,0-0.3-0.1c-0.1-0.1-0.1-0.2-0.1-0.3
			c0-0.2,0.1-0.3,0.2-0.4c0.1-0.1,0.2-0.2,0.2-0.3c0-0.1,0-0.4-0.1-0.7c-0.1-0.4-0.2-0.8-0.3-1.3H-25.4z M-25.1,74.1h1.8
			c-0.2-0.8-0.3-1.4-0.5-2c-0.2-0.6-0.3-1-0.4-1.3c-0.2,0.5-0.3,1-0.5,1.6C-24.8,72.9-25,73.5-25.1,74.1z"/>
		<path class="st2" d="M-17.4,76.8c0,0.3,0,0.5,0,0.6c0,0.1,0,0.2,0.1,0.2c0,0,0.1,0.1,0.1,0.1C-17,77.8-17,78-17,78.1
			c0,0.1,0,0.2-0.1,0.3c-0.1,0.1-0.2,0.1-0.3,0.1h-1.7c-0.1,0-0.2,0-0.3-0.1c-0.1-0.1-0.1-0.2-0.1-0.3c0-0.2,0.1-0.3,0.3-0.5
			c0,0,0.1-0.1,0.1-0.1c0,0,0.1-0.1,0.1-0.2c0-0.1,0-0.3,0-0.5v-7.1h-0.4c-0.2,0-0.4,0.1-0.5,0.2c-0.1,0.1-0.3,0.3-0.5,0.7
			c0,0,0,0,0,0.1c-0.2,0.3-0.3,0.4-0.4,0.4c-0.1,0-0.2,0-0.2-0.1c0-0.1-0.1-0.2-0.1-0.3c0-0.1,0-0.1,0-0.1c0,0,0-0.1,0-0.1l0.2-1.1
			c0-0.2,0.1-0.4,0.1-0.5c0.1-0.1,0.2-0.1,0.3-0.1h4.5c0.1,0,0.3,0,0.3,0.1c0.1,0.1,0.1,0.3,0.1,0.5l0.2,1.1c0,0,0,0.1,0,0.1
			c0,0,0,0.1,0,0.1c0,0.1,0,0.3-0.1,0.3c0,0.1-0.1,0.1-0.2,0.1c-0.1,0-0.3-0.1-0.4-0.4c0,0,0,0,0-0.1c-0.2-0.3-0.3-0.5-0.5-0.7
			c-0.1-0.1-0.3-0.2-0.5-0.2h-0.4V76.8z"/>
		<path class="st2" d="M-14.3,75.4c-0.1,0.6-0.2,1-0.3,1.3c0,0.3-0.1,0.5-0.1,0.6c0,0.1,0,0.2,0.1,0.3c0,0,0,0,0.1,0.1
			c0.1,0.1,0.1,0.2,0.2,0.3c0,0.1,0,0.1,0,0.2c0,0.1,0,0.2-0.1,0.3c0,0.1-0.1,0.1-0.2,0.1h-1.3c-0.1,0-0.2,0-0.2-0.1
			c-0.1-0.1-0.1-0.2-0.1-0.3c0-0.1,0.1-0.3,0.2-0.4c0.1-0.1,0.2-0.2,0.2-0.2c0-0.1,0.2-0.6,0.4-1.5c0.2-0.9,0.4-1.7,0.6-2.4
			c0.2-0.9,0.4-1.7,0.6-2.4c0.2-0.7,0.4-1.3,0.5-1.7l0-0.1c0.2-0.7,0.5-1,0.8-1c0.2,0,0.3,0,0.4,0.1c0.1,0.1,0.2,0.2,0.3,0.4
			c0.1,0.2,0.3,0.8,0.6,1.6c0.3,0.8,0.5,1.8,0.8,2.9c0.2,0.9,0.4,1.8,0.6,2.7c0.2,0.9,0.3,1.3,0.3,1.3c0,0,0.1,0.1,0.2,0.3
			c0.1,0.1,0.2,0.3,0.2,0.4c0,0.1,0,0.2-0.1,0.3c-0.1,0.1-0.2,0.1-0.3,0.1h-1.7c-0.1,0-0.2,0-0.3-0.1c-0.1-0.1-0.1-0.2-0.1-0.3
			c0-0.2,0.1-0.3,0.2-0.4c0.1-0.1,0.2-0.2,0.2-0.3c0-0.1,0-0.4-0.1-0.7c-0.1-0.4-0.2-0.8-0.3-1.3H-14.3z M-14,74.1h1.8
			c-0.2-0.8-0.3-1.4-0.5-2c-0.2-0.6-0.3-1-0.4-1.3c-0.2,0.5-0.3,1-0.5,1.6C-13.7,72.9-13.9,73.5-14,74.1z"/>
		<path class="st2" d="M-8.5,76.9v-6.4c0-0.2,0-0.4,0-0.5c0-0.1-0.1-0.2-0.1-0.2c0,0-0.1-0.1-0.2-0.1C-9,69.6-9,69.4-9,69.3
			c0-0.2,0.1-0.4,0.4-0.5c0.3-0.1,0.8-0.1,1.6-0.1c0.7,0,1.3,0,1.7,0.1c0.5,0.1,0.8,0.2,1.2,0.4c0.6,0.4,1.1,1,1.4,1.7
			c0.3,0.7,0.5,1.6,0.5,2.7c0,0.8-0.1,1.5-0.3,2.2C-2.8,76.4-3,77-3.4,77.4c-0.3,0.4-0.7,0.7-1.1,0.8c-0.4,0.2-1,0.3-1.6,0.3h-2.4
			c-0.1,0-0.3,0-0.4-0.1C-8.9,78.3-9,78.2-9,78c0-0.2,0.1-0.4,0.3-0.5c0,0,0.1,0,0.1-0.1c0,0,0.1-0.1,0.1-0.2
			C-8.5,77.2-8.5,77.1-8.5,76.9z M-6.8,76.8c0,0.3,0,0.5,0.1,0.6c0.1,0.1,0.2,0.2,0.4,0.2c0.7,0,1.2-0.4,1.7-1.1
			c0.4-0.7,0.6-1.7,0.6-2.8c0-1.2-0.2-2.2-0.6-2.9c-0.4-0.7-1-1.1-1.7-1.1c-0.2,0-0.3,0.1-0.4,0.2c-0.1,0.1-0.1,0.3-0.1,0.6V76.8z"
			/>
		<path class="st2" d="M-1.5,73.6c0-0.8,0.1-1.5,0.3-2.2c0.2-0.6,0.5-1.2,0.9-1.7c0.3-0.4,0.7-0.7,1.1-1c0.4-0.2,0.8-0.3,1.3-0.3
			c0.5,0,0.9,0.1,1.3,0.3c0.4,0.2,0.8,0.5,1.1,1c0.4,0.5,0.7,1.1,0.8,1.7c0.2,0.6,0.3,1.4,0.3,2.2c0,0.8-0.1,1.6-0.3,2.2
			c-0.2,0.6-0.5,1.2-0.9,1.7c-0.3,0.4-0.7,0.8-1.1,1c-0.4,0.2-0.8,0.3-1.3,0.3c-0.5,0-0.9-0.1-1.3-0.3c-0.4-0.2-0.8-0.6-1.1-1
			c-0.4-0.5-0.7-1.1-0.9-1.7C-1.5,75.1-1.5,74.4-1.5,73.6z M0.2,73.6c0,1.3,0.2,2.4,0.5,3.1C1,77.4,1.4,77.8,2,77.8
			c0.6,0,1.1-0.4,1.4-1.1c0.3-0.7,0.5-1.8,0.5-3.2c0-1.3-0.2-2.3-0.5-3C3,69.8,2.6,69.4,2,69.4c-0.6,0-1,0.4-1.4,1.1
			C0.3,71.2,0.2,72.2,0.2,73.6z"/>
		<path class="st2" d="M9.9,68.6c0.8,0,1.3,0.2,1.7,0.6c0.4,0.4,0.6,1,0.6,1.7c0,0.6-0.1,1.1-0.3,1.5c-0.2,0.4-0.5,0.7-0.9,1
			c0.3,0.9,0.6,1.8,0.9,2.7c0.2,0.9,0.4,1.4,0.4,1.4c0,0,0.1,0.1,0.2,0.2c0.1,0.1,0.2,0.3,0.2,0.4c0,0.2,0,0.3-0.1,0.3
			c-0.1,0.1-0.2,0.1-0.4,0.1h-1.8c-0.1,0-0.2,0-0.3-0.1C10,78.3,10,78.3,10,78.1c0-0.1,0-0.2,0-0.3c0-0.1,0.1-0.1,0.1-0.2
			c0,0,0,0,0.1,0c0.1-0.1,0.1-0.2,0.1-0.3c0-0.3-0.1-0.7-0.3-1.3c-0.2-0.6-0.4-1.2-0.7-1.9c-0.2,0-0.3,0.1-0.5,0.1
			c-0.2,0-0.4,0-0.6,0.1l0,2.9c0,0.1,0,0.2,0,0.3c0,0.1,0.1,0.1,0.2,0.2c0.1,0.1,0.2,0.1,0.2,0.2c0,0.1,0.1,0.2,0.1,0.3
			c0,0.2,0,0.3-0.1,0.3c-0.1,0.1-0.2,0.1-0.3,0.1H6.5c-0.1,0-0.2,0-0.3-0.1c-0.1-0.1-0.1-0.2-0.1-0.3c0-0.1,0-0.2,0-0.3
			c0-0.1,0.1-0.1,0.2-0.2c0.1-0.1,0.2-0.2,0.2-0.2c0-0.1,0.1-0.3,0.1-0.6v-6.4c0-0.3,0-0.4,0-0.5c0-0.1-0.1-0.2-0.2-0.2
			c-0.1-0.1-0.2-0.1-0.2-0.2c0-0.1-0.1-0.2-0.1-0.3c0-0.1,0-0.3,0.1-0.3c0.1-0.1,0.2-0.1,0.3-0.1H9.9z M8.2,73.1
			c0.8,0,1.3-0.2,1.7-0.6c0.4-0.3,0.6-0.8,0.6-1.5c0-0.5-0.1-0.9-0.3-1.1c-0.2-0.2-0.6-0.4-1.1-0.4c-0.4,0-0.6,0.1-0.7,0.2
			c-0.1,0.1-0.2,0.3-0.2,0.6L8.2,73.1z"/>
		<g>
			<path class="st2" d="M-37.1,84.2c0-0.4,0-0.7,0.1-1.1c0.1-0.3,0.2-0.7,0.3-1c0.2-0.5,0.5-0.9,0.8-1.1c0.3-0.3,0.7-0.4,1.1-0.4
				c0.3,0,0.6,0.1,0.9,0.2c0.3,0.1,0.5,0.3,0.7,0.5c0.1,0.1,0.1,0.2,0.1,0.3c0,0.1,0,0.4,0,0.9c0,0.1,0,0.2,0,0.3
				c0,0.1-0.1,0.1-0.1,0.1c-0.1,0-0.2-0.1-0.2-0.3c0-0.1,0-0.1,0-0.2c-0.1-0.3-0.2-0.6-0.4-0.7c-0.2-0.2-0.4-0.3-0.7-0.3
				c-0.4,0-0.7,0.2-1,0.7c-0.2,0.5-0.4,1.1-0.4,2c0,0.8,0.1,1.5,0.4,2c0.2,0.5,0.6,0.7,1,0.7c0.2,0,0.4,0,0.5-0.1
				c0.2-0.1,0.3-0.3,0.5-0.5c0,0,0.1-0.1,0.1-0.2c0.1-0.2,0.2-0.3,0.3-0.3c0.1,0,0.1,0,0.1,0.1c0,0.1,0.1,0.1,0.1,0.2
				c0,0.1,0,0.2-0.1,0.3c0,0.1-0.1,0.2-0.2,0.3c-0.2,0.3-0.5,0.5-0.7,0.7c-0.3,0.2-0.6,0.2-0.9,0.2c-0.3,0-0.5,0-0.7-0.1
				c-0.2-0.1-0.4-0.2-0.6-0.4c-0.3-0.3-0.5-0.7-0.7-1.2C-37.1,85.3-37.1,84.8-37.1,84.2z"/>
			<path class="st2" d="M-31.7,85.6c-0.1,0.3-0.1,0.6-0.2,0.7c0,0.2,0,0.3,0,0.3c0,0.1,0,0.1,0.1,0.2c0,0,0,0,0,0
				c0.1,0.1,0.1,0.1,0.1,0.1c0,0,0,0.1,0,0.1c0,0.1,0,0.1,0,0.2c0,0-0.1,0.1-0.1,0.1h-0.7c-0.1,0-0.1,0-0.1-0.1c0,0,0-0.1,0-0.2
				c0-0.1,0-0.2,0.1-0.2c0.1-0.1,0.1-0.1,0.1-0.1c0,0,0.1-0.3,0.2-0.8c0.1-0.5,0.2-1,0.3-1.4c0.1-0.5,0.2-0.9,0.3-1.3
				c0.1-0.4,0.2-0.7,0.3-1l0-0.1c0.1-0.4,0.3-0.6,0.4-0.6c0.1,0,0.2,0,0.2,0.1c0.1,0,0.1,0.1,0.2,0.2c0.1,0.1,0.2,0.4,0.3,0.9
				c0.1,0.5,0.3,1,0.4,1.6c0.1,0.5,0.2,1,0.3,1.5c0.1,0.5,0.2,0.7,0.2,0.8c0,0,0,0.1,0.1,0.1C-29,86.9-29,87-29,87.1
				c0,0.1,0,0.1-0.1,0.2c0,0-0.1,0.1-0.2,0.1h-1c-0.1,0-0.1,0-0.1-0.1c0,0,0-0.1,0-0.2c0-0.1,0-0.2,0.1-0.2c0.1-0.1,0.1-0.1,0.1-0.2
				c0-0.1,0-0.2-0.1-0.4c0-0.2-0.1-0.4-0.1-0.7H-31.7z M-31.5,84.9h1c-0.1-0.4-0.2-0.8-0.3-1.1c-0.1-0.3-0.2-0.6-0.2-0.8
				c-0.1,0.3-0.2,0.6-0.3,0.9C-31.4,84.2-31.5,84.5-31.5,84.9z"/>
			<path class="st2" d="M-27.2,86.4c0,0.2,0,0.3,0,0.3c0,0.1,0,0.1,0,0.1c0,0,0,0,0.1,0.1C-27,86.9-27,87-27,87.1
				c0,0.1,0,0.1-0.1,0.2c0,0-0.1,0.1-0.2,0.1h-1c-0.1,0-0.1,0-0.2-0.1c0,0-0.1-0.1-0.1-0.2c0-0.1,0-0.2,0.1-0.3c0,0,0,0,0.1,0
				c0,0,0-0.1,0.1-0.1c0-0.1,0-0.2,0-0.3v-4h-0.2c-0.1,0-0.2,0-0.3,0.1c-0.1,0.1-0.2,0.2-0.3,0.4c0,0,0,0,0,0
				c-0.1,0.2-0.2,0.2-0.2,0.2c0,0-0.1,0-0.1-0.1c0,0,0-0.1,0-0.2c0,0,0-0.1,0-0.1c0,0,0,0,0-0.1l0.1-0.6c0-0.1,0-0.2,0.1-0.3
				c0-0.1,0.1-0.1,0.2-0.1h2.5c0.1,0,0.1,0,0.2,0.1c0,0.1,0.1,0.1,0.1,0.3l0.1,0.6c0,0,0,0,0,0.1c0,0,0,0,0,0.1c0,0.1,0,0.1,0,0.2
				c0,0-0.1,0.1-0.1,0.1c-0.1,0-0.1-0.1-0.2-0.2c0,0,0,0,0,0c-0.1-0.2-0.2-0.3-0.3-0.4c-0.1-0.1-0.2-0.1-0.3-0.1h-0.2V86.4z"/>
			<path class="st2" d="M-24.1,86.4c0,0.2,0,0.3,0,0.3c0,0.1,0,0.1,0,0.1c0,0,0,0,0.1,0.1c0.1,0.1,0.1,0.2,0.1,0.3
				c0,0.1,0,0.1-0.1,0.2c0,0-0.1,0.1-0.2,0.1h-1c-0.1,0-0.1,0-0.2-0.1c0,0-0.1-0.1-0.1-0.2c0-0.1,0-0.2,0.1-0.3c0,0,0,0,0,0
				c0,0,0-0.1,0.1-0.1c0-0.1,0-0.2,0-0.3v-4h-0.2c-0.1,0-0.2,0-0.3,0.1c-0.1,0.1-0.2,0.2-0.3,0.4c0,0,0,0,0,0
				c-0.1,0.2-0.2,0.2-0.2,0.2c0,0-0.1,0-0.1-0.1c0,0,0-0.1,0-0.2c0,0,0-0.1,0-0.1c0,0,0,0,0-0.1l0.1-0.6c0-0.1,0-0.2,0.1-0.3
				c0-0.1,0.1-0.1,0.2-0.1h2.5c0.1,0,0.1,0,0.2,0.1c0,0.1,0.1,0.1,0.1,0.3l0.1,0.6c0,0,0,0,0,0.1c0,0,0,0,0,0.1c0,0.1,0,0.1,0,0.2
				c0,0-0.1,0.1-0.1,0.1c-0.1,0-0.1-0.1-0.2-0.2c0,0,0,0,0,0c-0.1-0.2-0.2-0.3-0.3-0.4c-0.1-0.1-0.2-0.1-0.3-0.1h-0.2V86.4z"/>
			<path class="st2" d="M-22.6,87.4c-0.1,0-0.1,0-0.2-0.1c0,0-0.1-0.1-0.1-0.2c0-0.1,0-0.2,0.1-0.3c0,0,0,0,0,0c0,0,0.1-0.1,0.1-0.1
				c0,0,0-0.1,0-0.2v-3.9c0,0,0-0.1,0-0.1c0,0,0-0.1-0.1-0.1c0,0,0,0,0,0c-0.1-0.1-0.2-0.2-0.2-0.3c0-0.1,0-0.2,0.1-0.2
				c0,0,0.1-0.1,0.2-0.1h1.1c0.1,0,0.1,0,0.2,0.1c0,0,0.1,0.1,0.1,0.2c0,0.1,0,0.2-0.1,0.3c0,0,0,0-0.1,0c-0.1,0-0.1,0.1-0.1,0.1
				c0,0,0,0.1,0,0.3v3.7c0,0.2,0,0.3,0.1,0.3c0,0,0.2,0.1,0.3,0.1c0.2,0,0.4,0,0.5-0.1c0.1,0,0.2-0.1,0.3-0.2c0,0,0.1-0.1,0.1-0.2
				c0.1-0.1,0.2-0.2,0.2-0.2c0.1,0,0.1,0,0.1,0.1c0,0,0,0.1,0,0.2c0,0.1,0,0.2,0,0.3c0,0.1,0,0.2-0.1,0.4c0,0.2-0.1,0.3-0.1,0.3
				c0,0-0.1,0.1-0.2,0.1H-22.6z"/>
			<path class="st2" d="M-17.6,86.8c0.2,0,0.3,0,0.4-0.1c0.1,0,0.2-0.1,0.3-0.2c0,0,0-0.1,0.1-0.1c0.1-0.1,0.1-0.2,0.2-0.2
				c0.1,0,0.1,0,0.1,0.1c0,0,0,0.1,0,0.2c0,0.4,0,0.7-0.1,0.8c0,0.1-0.1,0.2-0.3,0.2h-2.6c-0.1,0-0.1,0-0.1-0.1c0,0,0-0.1,0-0.2
				c0-0.1,0-0.1,0-0.1c0,0,0-0.1,0.1-0.1c0,0,0.1-0.1,0.1-0.1c0,0,0-0.1,0-0.2v0v-4c0-0.1,0-0.1,0-0.1c0,0,0-0.1-0.1-0.1
				c0,0,0,0,0,0c-0.1-0.1-0.1-0.1-0.1-0.2c0-0.1,0-0.1,0.1-0.2c0,0,0.1-0.1,0.2-0.1h2.2c0.2,0,0.3,0.1,0.4,0.2
				c0.1,0.1,0.1,0.3,0.1,0.7c0,0.1,0,0.2,0,0.2c0,0-0.1,0.1-0.1,0.1c-0.1,0-0.1-0.1-0.2-0.2c0-0.1-0.1-0.1-0.1-0.1
				c-0.1-0.1-0.2-0.1-0.3-0.2c-0.1,0-0.3-0.1-0.5-0.1h-0.3c-0.1,0-0.2,0-0.2,0.1c0,0.1-0.1,0.2-0.1,0.4V84h0.8c0.1,0,0.1,0,0.1,0
				c0,0,0.1,0,0.1,0c0,0,0,0,0-0.1c0.1-0.1,0.1-0.1,0.2-0.1c0.1,0,0.1,0,0.1,0.1c0,0.1,0,0.1,0,0.2v0.5c0,0.1,0,0.2,0,0.3
				c0,0.1-0.1,0.1-0.1,0.1c0,0-0.1,0-0.2-0.1c-0.1-0.1-0.2-0.1-0.3-0.1h-0.8v1.8c0,0.1,0,0.2,0,0.2c0,0,0.1,0.1,0.2,0.1H-17.6z"/>
			<path class="st2" d="M-14.5,84.2c0-0.4,0-0.7,0.1-1.1c0.1-0.3,0.2-0.7,0.3-1c0.2-0.5,0.5-0.9,0.8-1.1c0.3-0.3,0.7-0.4,1.1-0.4
				c0.3,0,0.6,0.1,0.9,0.2c0.3,0.1,0.5,0.3,0.7,0.5c0.1,0.1,0.1,0.2,0.1,0.3c0,0.1,0,0.4,0,0.9c0,0.1,0,0.2,0,0.3
				c0,0.1-0.1,0.1-0.1,0.1c-0.1,0-0.2-0.1-0.2-0.3c0-0.1,0-0.1,0-0.2c-0.1-0.3-0.2-0.6-0.4-0.7c-0.2-0.2-0.4-0.3-0.7-0.3
				c-0.4,0-0.7,0.2-1,0.7c-0.2,0.5-0.4,1.1-0.4,2c0,0.8,0.1,1.5,0.4,2c0.2,0.5,0.6,0.7,1,0.7c0.2,0,0.4,0,0.5-0.1
				c0.2-0.1,0.3-0.3,0.5-0.5c0,0,0.1-0.1,0.1-0.2c0.1-0.2,0.2-0.3,0.3-0.3c0.1,0,0.1,0,0.1,0.1c0,0.1,0.1,0.1,0.1,0.2
				c0,0.1,0,0.2-0.1,0.3c0,0.1-0.1,0.2-0.2,0.3c-0.2,0.3-0.5,0.5-0.7,0.7c-0.3,0.2-0.6,0.2-0.9,0.2c-0.3,0-0.5,0-0.7-0.1
				c-0.2-0.1-0.4-0.2-0.6-0.4c-0.3-0.3-0.5-0.7-0.7-1.2C-14.4,85.3-14.5,84.8-14.5,84.2z"/>
			<path class="st2" d="M-9.8,84.6c0-0.5,0.1-0.9,0.2-1.2c0.1-0.4,0.3-0.7,0.5-1c0.2-0.2,0.4-0.4,0.6-0.5c0.2-0.1,0.5-0.2,0.7-0.2
				c0.3,0,0.5,0.1,0.8,0.2c0.2,0.1,0.4,0.3,0.6,0.5c0.2,0.3,0.4,0.6,0.5,1c0.1,0.4,0.2,0.8,0.2,1.2c0,0.5-0.1,0.9-0.2,1.2
				c-0.1,0.3-0.3,0.7-0.5,1c-0.2,0.2-0.4,0.4-0.6,0.6c-0.2,0.1-0.5,0.2-0.7,0.2c-0.3,0-0.5-0.1-0.7-0.2C-8.8,87.2-9,87-9.2,86.8
				c-0.2-0.3-0.4-0.6-0.5-1C-9.8,85.4-9.8,85-9.8,84.6z M-8.9,84.6c0,0.7,0.1,1.3,0.3,1.7c0.2,0.4,0.4,0.6,0.8,0.6
				c0.3,0,0.6-0.2,0.8-0.6c0.2-0.4,0.3-1,0.3-1.8c0-0.7-0.1-1.3-0.3-1.7c-0.2-0.4-0.4-0.6-0.8-0.6c-0.3,0-0.6,0.2-0.8,0.6
				C-8.8,83.3-8.9,83.8-8.9,84.6z"/>
			<path class="st2" d="M-4.6,83.1V86c0,0.3,0,0.4,0,0.5c0,0.1,0,0.2,0.1,0.2c0,0,0.1,0,0.1,0.1c0.1,0.1,0.2,0.2,0.2,0.3
				c0,0.1,0,0.2-0.1,0.2c0,0-0.1,0.1-0.2,0.1h-0.8c-0.1,0-0.1,0-0.2-0.1c0,0-0.1-0.1-0.1-0.2c0-0.1,0.1-0.2,0.2-0.3
				c0,0,0.1,0,0.1-0.1c0,0,0.1-0.1,0.1-0.2c0-0.1,0-0.4,0-0.8v-2.8c0-0.2,0-0.3,0-0.3c0,0,0-0.1-0.1-0.1c0,0,0,0-0.1,0
				c-0.1-0.1-0.2-0.2-0.2-0.3c0-0.1,0-0.2,0.1-0.2c0.1-0.1,0.1-0.1,0.3-0.1h0.8c0.1,0,0.2,0,0.2,0.1c0,0.1,0.1,0.2,0.2,0.4l0.6,2.4
				l0.7-2.5c0.1-0.2,0.1-0.3,0.1-0.4c0-0.1,0.1-0.1,0.2-0.1h0.9c0.1,0,0.2,0,0.2,0.1c0,0.1,0.1,0.1,0.1,0.3c0,0.1-0.1,0.2-0.2,0.3
				c0,0,0,0,0,0c0,0-0.1,0.1-0.1,0.1c0,0,0,0.1,0,0.2v3.4c0,0.2,0,0.3,0,0.4c0,0.1,0.1,0.1,0.1,0.2c0,0,0,0,0,0
				c0.1,0.1,0.1,0.2,0.1,0.3c0,0.1,0,0.2-0.1,0.2c0,0-0.1,0.1-0.2,0.1h-1c-0.1,0-0.1,0-0.2-0.1c0,0-0.1-0.1-0.1-0.2
				c0-0.1,0-0.2,0.1-0.3c0,0,0.1,0,0.1-0.1c0,0,0.1-0.1,0.1-0.2c0-0.1,0-0.2,0-0.4v-3.1l-0.8,3c0,0.2-0.1,0.3-0.1,0.4
				c0,0.1-0.1,0.1-0.2,0.1c-0.1,0-0.1,0-0.2-0.1c0-0.1-0.1-0.2-0.1-0.4L-4.6,83.1z"/>
			<path class="st2" d="M0.3,85.3v1.1c0,0.2,0,0.3,0,0.3c0,0,0.1,0.1,0.1,0.1c0,0,0,0,0,0c0.1,0.1,0.2,0.2,0.2,0.3
				c0,0.1,0,0.2,0,0.2c0,0-0.1,0.1-0.2,0.1h-1.1c0,0-0.1,0-0.1-0.1c0,0,0-0.1,0-0.2c0-0.1,0-0.2,0.1-0.2c0,0,0,0,0.1,0
				c0,0,0.1-0.1,0.1-0.1c0,0,0-0.1,0-0.2v-0.1v-3.6c0-0.2,0-0.3,0-0.3c0-0.1,0-0.1-0.1-0.1c0,0,0,0-0.1,0c-0.1-0.1-0.1-0.2-0.1-0.3
				c0-0.1,0-0.1,0-0.2c0,0,0.1-0.1,0.1-0.1h1.6c0.4,0,0.8,0.1,1,0.4c0.3,0.3,0.4,0.6,0.4,1.1c0,0.6-0.2,1-0.5,1.4
				C1.4,85.1,0.9,85.3,0.3,85.3z M0.3,84.7c0.3,0,0.6-0.2,0.8-0.4c0.2-0.2,0.3-0.5,0.3-0.9c0-0.3-0.1-0.6-0.2-0.8
				c-0.1-0.2-0.3-0.3-0.6-0.3c-0.1,0-0.2,0-0.2,0.1c0,0-0.1,0.1-0.1,0.3V84.7z"/>
			<path class="st2" d="M3,85.6c-0.1,0.3-0.1,0.6-0.2,0.7c0,0.2,0,0.3,0,0.3c0,0.1,0,0.1,0.1,0.2c0,0,0,0,0,0C2.9,86.9,3,87,3,87
				c0,0,0,0.1,0,0.1c0,0.1,0,0.1,0,0.2c0,0-0.1,0.1-0.1,0.1H2.2c-0.1,0-0.1,0-0.1-0.1c0,0,0-0.1,0-0.2C2,87,2,87,2.1,86.9
				c0.1-0.1,0.1-0.1,0.1-0.1c0,0,0.1-0.3,0.2-0.8c0.1-0.5,0.2-1,0.3-1.4c0.1-0.5,0.2-0.9,0.3-1.3c0.1-0.4,0.2-0.7,0.3-1l0-0.1
				c0.1-0.4,0.3-0.6,0.4-0.6c0.1,0,0.2,0,0.2,0.1c0.1,0,0.1,0.1,0.2,0.2c0.1,0.1,0.2,0.4,0.3,0.9c0.1,0.5,0.3,1,0.4,1.6
				c0.1,0.5,0.2,1,0.3,1.5c0.1,0.5,0.2,0.7,0.2,0.8c0,0,0,0.1,0.1,0.1c0.1,0.1,0.1,0.2,0.1,0.2c0,0.1,0,0.1-0.1,0.2
				c0,0-0.1,0.1-0.2,0.1h-1c-0.1,0-0.1,0-0.1-0.1c0,0,0-0.1,0-0.2c0-0.1,0-0.2,0.1-0.2c0.1-0.1,0.1-0.1,0.1-0.2c0-0.1,0-0.2-0.1-0.4
				c0-0.2-0.1-0.4-0.1-0.7H3z M3.1,84.9h1c-0.1-0.4-0.2-0.8-0.3-1.1c-0.1-0.3-0.2-0.6-0.2-0.8c-0.1,0.3-0.2,0.6-0.3,0.9
				C3.3,84.2,3.2,84.5,3.1,84.9z"/>
			<path class="st2" d="M6.7,83.2v3.2c0,0.2,0,0.3,0,0.4c0,0.1,0.1,0.1,0.1,0.1c0,0,0,0,0.1,0c0.1,0,0.1,0.1,0.1,0.2
				c0,0.1,0,0.2,0,0.2c0,0-0.1,0.1-0.2,0.1H6.1c-0.1,0-0.1,0-0.2-0.1c0,0,0-0.1,0-0.2c0-0.1,0-0.2,0.1-0.2c0.1,0,0.1-0.1,0.1-0.1
				c0,0,0.1-0.1,0.1-0.2c0-0.1,0-0.2,0-0.4v-3.4c0-0.1,0-0.2,0-0.3c0,0-0.1-0.1-0.1-0.1c0,0,0,0-0.1,0c-0.1-0.1-0.2-0.1-0.2-0.3
				c0-0.1,0-0.1,0-0.2c0,0,0.1-0.1,0.1-0.1h0.8c0.2,0,0.3,0.1,0.4,0.4c0,0,0,0.1,0,0.1c0.2,0.4,0.5,0.9,0.7,1.4
				c0.3,0.5,0.5,1.1,0.8,1.8v-2.6c0-0.1,0-0.2,0-0.3c0-0.1,0-0.1-0.1-0.1c0,0-0.1,0-0.1-0.1c-0.1-0.1-0.2-0.2-0.2-0.3
				c0-0.1,0-0.1,0.1-0.2c0,0,0.1-0.1,0.2-0.1h0.7c0.1,0,0.1,0,0.1,0.1c0,0.1,0.1,0.1,0.1,0.2c0,0.1,0,0.2-0.1,0.2c0,0-0.1,0-0.1,0
				c0,0-0.1,0.1-0.1,0.2c0,0.1,0,0.2,0,0.4v3.9c0,0.3,0,0.4-0.1,0.5c0,0.1-0.1,0.1-0.3,0.1c-0.1,0-0.2,0-0.2,0
				c-0.1,0-0.1-0.1-0.1-0.2c0,0-0.1-0.2-0.2-0.4C8,85.6,7.4,84.4,6.7,83.2z"/>
			<path class="st2" d="M11.2,85.2c-0.4-0.7-0.7-1.5-1-2.3c0-0.1,0-0.1-0.1-0.1c0-0.1-0.1-0.2-0.2-0.3c-0.1-0.1-0.1-0.2-0.1-0.3
				c0-0.1,0-0.2,0.1-0.2c0-0.1,0.1-0.1,0.2-0.1H11c0.1,0,0.1,0,0.2,0.1c0,0.1,0.1,0.1,0.1,0.2c0,0.1,0,0.2-0.1,0.2
				c-0.1,0.1-0.1,0.1-0.1,0.2c0,0.1,0.1,0.3,0.2,0.7c0.2,0.4,0.3,0.8,0.6,1.2c0.2-0.4,0.4-0.8,0.5-1.1c0.1-0.3,0.2-0.6,0.2-0.7
				c0-0.1,0-0.2-0.1-0.2c0,0,0,0,0,0c0,0-0.1-0.1-0.1-0.1c0,0,0-0.1,0-0.1c0-0.1,0-0.2,0.1-0.2c0,0,0.1-0.1,0.2-0.1h0.6
				c0.1,0,0.1,0,0.2,0.1c0,0,0.1,0.1,0.1,0.2c0,0.1,0,0.2-0.1,0.3c-0.1,0.1-0.1,0.1-0.1,0.1c0,0,0,0.1-0.1,0.2
				c-0.3,0.8-0.6,1.6-1,2.3v1.3c0,0.1,0,0.2,0,0.3c0,0,0,0.1,0.1,0.1c0,0,0,0,0.1,0.1c0.1,0.1,0.1,0.2,0.1,0.3c0,0.1,0,0.2-0.1,0.2
				c0,0-0.1,0.1-0.2,0.1h-1c-0.1,0-0.1,0-0.2-0.1c0,0-0.1-0.1-0.1-0.2c0-0.1,0.1-0.2,0.2-0.3c0,0,0,0,0,0c0,0,0.1-0.1,0.1-0.1
				c0-0.1,0-0.1,0-0.3V85.2z"/>
		</g>
	</g>
</g>
<g id="kpl">
	<g>
		<path class="st2" d="M-21.5,71c0.1-0.1,4-4.2,4-4.2h-3.7c0,0-3.5,3.2-3.6,3.4v-3.4h-3.5v9.5h3.5v-2c0,0,0.7-0.6,0.7-0.6
			c0.1,0.1,2.2,2.7,2.2,2.7h4.7C-17.2,76.3-21.4,71.1-21.5,71"/>
		<polygon class="st2" points="13.6,66.8 13.6,70.2 10.6,70.2 10.5,66.8 7,66.8 7,76.3 10.6,76.3 10.6,72.8 13.5,72.8 13.5,76.3 
			17.2,76.3 17.2,66.8 13.6,66.8 		"/>
		<path class="st2" d="M-8.7,66.8h-6.2c-1.2,0-2.1,1.1-2.1,2.4v4.7c0,1.3,0.9,2.4,2.1,2.4h6.2c1.2,0,2.1-1.1,2.1-2.4v-4.7
			C-6.6,67.9-7.5,66.8-8.7,66.8 M-10.1,69.7v3.8c0,0.4-0.3,0.7-0.6,0.7h-2c-0.3,0-0.6-0.3-0.6-0.7v-3.8c0-0.4,0.3-0.7,0.6-0.7h2
			C-10.4,69-10.1,69.3-10.1,69.7"/>
		<path class="st2" d="M5.3,70.3v-0.7c0-0.9-0.3-1.7-0.8-2.2c-0.3-0.3-0.7-0.5-1.1-0.5h-6.5c-1,0-1.9,1.2-1.9,2.7v4
			c0,1.5,0.8,2.7,1.9,2.7h6.5c1,0,1.9-1.2,1.9-2.7v-1.1l-3.4,0l-0.1,0.9c0,0.4-0.3,0.8-0.6,0.8h-2c-0.3,0-0.6-0.3-0.6-0.7v-3.8
			c0-0.4,0.3-0.7,0.6-0.7h2c0.3,0,0.6,0.3,0.6,0.7v0.5H5.3L5.3,70.3z"/>
		<path class="st2" d="M20.2,75.1l-0.3,0.9l-0.3-0.9h-0.4v1.2h0.2v-1l0.3,1H20l0.3-1v1h0.2v-1.2H20.2L20.2,75.1z M18,75.1v0.2h0.4v1
			h0.2v-1H19v-0.2H18L18,75.1z"/>
		<path class="st3" d="M-38.1,66.8L-38.1,66.8h-6.3v9.5l6.2,0c0,0-1.5-4.7-1.5-4.7C-39.6,71.6-38.1,66.8-38.1,66.8L-38.1,66.8z"/>
		<polygon class="st3" points="-35.9,66.8 -38.7,71.6 -35.9,76.3 -31.5,76.3 -31.5,66.8 -35.9,66.8 		"/>
		<path class="st2" d="M-43.9,83.7v1.7h1.2c0.6,0,1,0,1-0.8c0-0.8-0.1-0.9-0.7-0.9H-43.9L-43.9,83.7z M-44.4,83.3h2.2
			c0.8,0,1,0.6,1,1.3c0,0.4,0,1.3-1,1.3h-1.7v1.7h-0.5V83.3L-44.4,83.3z"/>
		<polygon class="st2" points="-40.1,87.6 -40.6,87.6 -40.6,83.3 -40.1,83.3 -40.1,87.6 		"/>
		<path class="st2" d="M-38.9,83.7v1.7h1.2c0.6,0,1,0,1-0.8c0-0.8-0.1-0.9-0.7-0.9H-38.9L-38.9,83.7z M-39.3,83.3h2.2
			c0.8,0,1,0.6,1,1.3c0,0.4,0,1.3-1,1.3h-1.7v1.7h-0.5V83.3L-39.3,83.3z"/>
		<polygon class="st2" points="-35.2,85.2 -33.1,85.2 -33.1,85.6 -35.2,85.6 -35.2,87.1 -33,87.1 -33,87.6 -35.7,87.6 -35.7,83.3 
			-33,83.3 -33,83.7 -35.2,83.7 -35.2,85.2 		"/>
		<polygon class="st2" points="-31.9,87.1 -29.7,87.1 -29.7,87.6 -32.3,87.6 -32.3,83.3 -31.9,83.3 -31.9,87.1 		"/>
		<polygon class="st2" points="-28.7,87.6 -29.2,87.6 -29.2,83.3 -28.7,83.3 -28.7,87.6 		"/>
		<polygon class="st2" points="-24.3,87.6 -25.1,87.6 -27.4,83.7 -27.4,83.7 -27.4,87.6 -27.9,87.6 -27.9,83.3 -27.1,83.3 
			-24.8,87.2 -24.7,87.2 -24.7,83.3 -24.3,83.3 -24.3,87.6 		"/>
		<polygon class="st2" points="-23.2,85.2 -21,85.2 -21,85.6 -23.2,85.6 -23.2,87.1 -20.9,87.1 -20.9,87.6 -23.6,87.6 -23.6,83.3 
			-20.9,83.3 -20.9,83.7 -23.2,83.7 -23.2,85.2 		"/>
		<g>
			<rect x="-44.4" y="80.8" class="st2" width="61.6" height="0.4"/>
		</g>
	</g>
</g>
</svg>
