<?xml version="1.0" encoding="utf-8"?>
<!-- Generator: Adobe Illustrator 19.1.0, SVG Export Plug-In . SVG Version: 6.00 Build 0)  -->
<!DOCTYPE svg PUBLIC "-//W3C//DTD SVG 1.1//EN" "http://www.w3.org/Graphics/SVG/1.1/DTD/svg11.dtd">
<svg version="1.1" id="Layer_1" xmlns="http://www.w3.org/2000/svg" xmlns:xlink="http://www.w3.org/1999/xlink" x="0px" y="0px"
	 viewBox="8 42.8 115 17.2" style="enable-background:new 8 42.8 115 17.2;" xml:space="preserve">
<style type="text/css">
	.st0{fill:#0099D8;}
</style>
<g>
	<path d="M48.5,50.3c0.1-0.1,7-7.4,7-7.4H49c0,0-6.2,5.7-6.4,5.9v-5.9h-6.2v16.8h6.2v-3.6c0.1,0,1.2-1,1.3-1.1
		c0.1,0.1,3.9,4.7,3.9,4.7H56C56,59.7,48.6,50.4,48.5,50.3"/>
	<polygon points="110.4,42.9 110.4,48.9 105.1,48.9 105.1,42.9 98.8,42.9 98.8,59.6 105.1,59.6 105.1,53.5 110.4,53.5 110.4,59.6 
		116.9,59.6 116.9,42.9 	"/>
	<path d="M68.6,48v6.7c0,0.7-0.5,1.2-1.1,1.2h-3.6c-0.6,0-1.1-0.6-1.1-1.2V48c0-0.7,0.5-1.2,1.1-1.2h3.6
		C68.1,46.8,68.6,47.3,68.6,48 M71.2,42.9h-11c-2,0-3.7,1.9-3.7,4.2v8.3c0,2.3,1.7,4.2,3.7,4.2h10.9c2,0,3.7-1.9,3.7-4.2v-8.3
		C74.9,44.8,73.2,42.9,71.2,42.9"/>
	<path d="M95.8,49v-1.3c0-1.5-0.5-3-1.4-3.9c-0.6-0.6-1.2-0.9-1.9-0.9H81c-1.8,0-3.3,2.2-3.3,4.8v7.1c0,2.6,1.5,4.8,3.3,4.8h11.4
		c1.8,0,3.3-2.2,3.3-4.8v-1.9h-6l-0.1,1.6c-0.1,0.7-0.5,1.4-1.1,1.4H85c-0.6,0-1.1-0.5-1.1-1.2V48c0-0.6,0.5-1.2,1.1-1.2h3.5
		c0.6,0,1.1,0.5,1.1,1.2v0.9h6.2V49z"/>
	<path d="M118.3,57.4v0.4h0.7v1.8h0.4v-1.8h0.7v-0.4H118.3z M122.2,57.4l-0.6,1.6l-0.6-1.6h-0.6v2.2h0.4v-1.8l0.6,1.8h0.3l0.6-1.8
		v1.8h0.4v-2.2C122.7,57.4,122.2,57.4,122.2,57.4z"/>
	<g>
		<path d="M19.2,42.9L19.2,42.9H8.1v16.7h11l-2.6-8.3C16.5,51.3,19.2,42.9,19.2,42.9z"/>
		<polygon class="st0" points="23.1,42.9 18.1,51.3 23.1,59.6 30.9,59.6 30.9,42.9 		"/>
	</g>
</g>
</svg>
