<?xml version="1.0" encoding="utf-8"?>
<!-- Generator: Adobe Illustrator 19.1.0, SVG Export Plug-In . SVG Version: 6.00 Build 0)  -->
<!DOCTYPE svg PUBLIC "-//W3C//DTD SVG 1.1//EN" "http://www.w3.org/Graphics/SVG/1.1/DTD/svg11.dtd">
<svg version="1.1" id="Layer_1" xmlns="http://www.w3.org/2000/svg" xmlns:xlink="http://www.w3.org/1999/xlink" x="0px" y="0px"
	 viewBox="0 0 3.9 6.4" style="enable-background:new 0 0 3.9 6.4;" xml:space="preserve">
<style type="text/css">
	.st0{fill:#F68B1F;}
</style>
<path class="st0" d="M2,0.1C0.9,0.1,0.1,1,0.1,2c0,0.2,0,0.4,0.1,0.6c0,0,1.8,3.7,1.8,3.7l1.7-3.6C3.8,2.5,3.8,2.3,3.8,2
	C3.8,1,3,0.1,2,0.1z M2,3.3C1.2,3.3,0.6,2.7,0.6,2c0-0.7,0.6-1.3,1.3-1.3S3.3,1.3,3.3,2C3.3,2.7,2.7,3.3,2,3.3z"/>
</svg>
