<?xml version="1.0" encoding="UTF-8" standalone="no"?>
<svg width="175px" height="52px" viewBox="0 0 175 52" version="1.1" xmlns="http://www.w3.org/2000/svg" xmlns:xlink="http://www.w3.org/1999/xlink">
    <!-- Generator: Sketch 3.7.2 (28276) - http://www.bohemiancoding.com/sketch -->
    <title>Group 3</title>
    <desc>Created with Sketch.</desc>
    <defs>
        <polygon id="path-1" points="141.941481 12 141.941481 38.5559765 29 38.5559765 29 12 141.941481 12"></polygon>
    </defs>
    <g id="KochInd---Home" stroke="none" stroke-width="1" fill="none" fill-rule="evenodd">
        <g id="Homepage-Manny" transform="translate(-1385.000000, -800.000000)">
            <g id="Group-3" transform="translate(1385.000000, 800.000000)">
                <polygon id="Rectangle-93-Copy" fill="#00A8E1" points="13.5 0 175 0 175 52 0 52"></polygon>
                <path d="M108.87304,33.7359834 C108.991466,33.807802 109.230316,34.5840542 109.085906,35.0842377 C109.121884,35.1738836 109.087905,35.3119179 109.045931,35.4097135 C108.999461,35.5176961 108.88903,35.5706687 108.765608,35.5757622 C108.485284,35.5864586 108.243936,35.4687983 108.018078,35.3210863 C107.697779,35.1112333 107.400466,34.8616509 107.068175,34.6752282 C106.064806,34.1123944 104.532769,33.1950518 103.436459,32.8415617 C101.976377,32.3709206 100.677694,31.4051896 99.3425331,30.6513489 C98.9103049,30.4073694 98.5065587,30.112964 98.087822,29.8445356 C98.0188654,29.800222 97.817492,29.8796809 97.7895096,29.9535369 C97.7625266,30.0263742 97.7325454,30.0981928 97.7085605,30.1720488 C97.6850753,30.2459048 97.6550941,30.3207796 97.6490979,30.396673 C97.5896353,31.1764906 97.4697107,31.4663118 97.2938213,32.2216805 C97.1009426,33.0509053 96.5577841,34.5346471 96.4063794,35.0567327 C96.03961,36.324 95.6618475,36.6408168 95.5998865,36.8634035 C95.5594119,37.0090782 95.4844591,37.1491499 95.4030103,37.2775066 C95.2720926,37.4848128 94.8933308,37.5739493 94.6829631,37.4532329 C94.4091352,37.2963526 94.1892735,37.0854809 94.0963319,36.7671361 C93.898956,36.0902075 94.0578561,36.2669526 94.1083244,35.5660845 C94.1802791,34.5585866 94.03587,34.9971385 94.2322465,34.000337 C94.3446758,33.4303724 94.2862125,33.5459952 94.3171931,32.9663529 C94.3486733,32.3775422 94.2577304,32.8573516 94.3806532,32.2878962 C94.446112,31.9853413 94.4675985,31.6731086 94.5075733,31.3649508 C94.5380542,31.1342144 94.5640378,30.9024593 94.5970171,30.671723 C94.7079473,29.9031111 94.8558543,29.1380647 94.924811,28.365378 C95.039239,27.088433 95.2316181,25.8211657 95.3415489,24.5442207 C95.4844591,22.879659 95.6828343,21.2212095 95.9041951,19.5658161 C95.9146885,19.4883946 95.9276804,19.4114825 95.9331769,19.334061 C95.9701537,18.8313308 96.0785855,18.3194322 96.0201222,17.8284171 C95.9611593,17.330271 95.5918915,16.9289018 95.3645345,16.4816909 C95.2610995,16.2774408 95.1816495,16.0548541 95.1281831,15.8312487 C95.0557287,15.5281843 95.2566023,15.2083114 95.5399242,15.0763893 C95.9876427,14.8680644 95.9746508,15.1380208 96.4143743,15.2668869 C97.4037522,15.5561987 97.8734568,15.7563739 98.4510936,16.6131037 C98.730418,17.0277161 98.9872565,17.4657586 99.0906914,17.973073 C99.113677,18.0866585 99.1561503,18.1976972 99.202621,18.3036423 C99.5773854,19.1644469 98.9078064,22.908692 98.8078693,23.3238138 C98.7943778,23.3808612 98.8228598,23.4944466 98.8583375,23.5076898 C98.9187995,23.5306106 99.0132401,23.5158394 99.0717034,23.4796754 C100.449337,22.6295673 102.206732,21.3235892 103.30654,20.1220283 C104.122527,19.3503603 104.717653,18.3927789 105.356751,17.6715367 C105.767493,17.2075172 105.888417,16.668623 106.173238,16.1164857 C106.533012,14.6826603 108.524759,15.4064493 108.624197,15.5719886 C108.813078,15.8872774 108.863546,16.2290524 108.745121,16.5799958 C108.658675,16.8361998 108.552242,17.0862915 108.441312,17.3328178 C108.346371,17.5441988 108.193467,17.7362244 108.133505,17.9557551 C107.938128,18.6729224 107.532883,19.296369 107.287037,19.9921436 C107.173109,20.3145633 106.982229,20.6232305 106.770862,20.8931869 C106.199221,21.6235974 105.571616,22.3025634 104.831581,22.8643784 C104.495293,23.120073 104.153008,23.3711835 103.841204,23.6559111 C103.410975,24.0476027 102.929777,24.3532138 102.443083,24.663409 C101.539152,25.2394859 101.196367,25.5909387 100.312423,26.1996141 C99.9661409,26.4379907 99.5558989,26.7542982 99.58588,26.8087988 C99.6393464,26.9076131 99.7177971,26.9992964 99.8037431,27.0726431 C100.361392,27.5534712 101.030472,28.0037382 101.680063,28.3256485 C103.118659,29.0377224 103.814721,29.9953038 105.218338,30.7807242 C105.450692,30.910609 105.626582,31.2024675 105.874426,31.3028098 C105.874426,31.3028098 108.320388,33.40083 108.87304,33.7359834" id="Fill-1" fill="#FFFFFF"></path>
                <path d="M112.33671,24.8758733 C112.175811,26.1105421 111.898486,27.2937663 111.30286,28.3491433 C110.973068,28.9338791 110.679252,29.7172622 110.17407,30.0926545 C109.997681,30.2240673 109.842279,30.2342543 109.679381,30.3880785 C109.135223,30.9020145 108.52011,31.3721462 107.842536,31.4302123 C107.776078,31.4358152 107.67814,31.3711275 107.642162,31.3038931 C107.604686,31.2341119 107.641163,31.1113581 107.625673,31.0609323 C106.987574,29.0153754 108.24978,27.4073518 108.699997,26.7110678 C109.795808,25.014417 111.188932,23.9513997 111.851515,24.3690682 C111.912977,24.4082883 112.015412,24.2829878 112.078373,24.3110021 C112.128341,24.3334136 112.169815,24.4607515 112.173313,24.5437759 C112.184306,24.7913209 112.36819,24.6339312 112.33671,24.8758733 L112.33671,24.8758733 Z M113.901726,21.9949794 C113.553945,21.5625398 113.128212,21.2217834 112.631025,21.0918987 C111.868005,20.8922328 111.106983,21.0134585 110.433407,21.4993801 C109.602929,22.0988872 109.918231,21.3363876 109.163705,22.0780038 C107.982448,23.2393259 106.891134,24.483163 106.028677,26.0137652 C105.54648,26.870495 105.319623,27.7893656 105.072278,28.7520405 C105.035301,28.8951684 104.991829,29.049502 105.001323,29.1931392 C105.070779,30.2342543 105.058287,31.3069492 105.736361,32.1264963 C105.843293,32.256381 105.983205,32.3546859 106.069151,32.5085101 C106.442916,32.725494 106.826675,33.0433295 107.222926,33.1406157 C107.791068,33.2796688 108.056402,33.2643882 108.641034,33.1614991 C109.562455,33.0000346 110.627285,32.8966362 111.356826,32.1020474 C111.418288,32.0353223 111.498237,31.9904993 111.572691,31.9431296 C112.221782,31.5325921 113.252634,30.778242 113.621902,30.0473222 C114.756688,27.8041368 114.780174,24.5284953 114.785171,24.4984436 C115.04051,23.7985942 114.27749,22.4625644 113.901726,21.9949794 L113.901726,21.9949794 Z" id="Fill-3" fill="#FFFFFF"></path>
                <path d="M52.9308002,31.8062862 C53.4369819,31.7711409 53.7777676,31.606111 54.1910078,31.3825055 C54.3039368,31.3218927 54.5073089,31.4120479 54.5667715,31.5409139 C54.6117432,31.6387095 54.6652096,31.734977 54.6981889,31.8343006 C54.9080569,32.4699716 54.8610864,33.4132912 54.2779531,33.6613455 C53.8602158,33.8385999 53.5034401,33.9389422 53.0662151,34.0835982 C52.6779592,34.2114455 49.4839676,34.7447368 48.8243824,34.6123053 C48.2862208,34.5043228 47.4522452,35.2973835 46.9120849,35.2138498 C46.5268271,35.1542557 46.2330119,34.9673235 45.973675,34.7162131 C45.7043443,34.4559343 45.5019716,34.1482858 45.3605605,33.8279035 C45.0637471,33.1565779 44.9603122,32.4796493 45.0132789,31.8062862 C45.078238,30.9770615 45.1511921,30.1478367 45.2646208,29.3277803 C45.3600608,28.639646 45.4874807,27.9555865 45.6568742,27.2862983 C45.8867296,26.3755772 46.1535618,25.4755526 46.4348849,24.5816402 C46.550812,24.2123601 46.7047153,23.8593793 46.7142093,23.2430636 C46.716208,23.1106321 46.6187693,22.997556 46.5992816,22.8753116 C46.5837913,22.7785348 46.5822922,22.6461033 46.6442533,22.5905839 C46.9825406,22.2865009 48.8193855,22.2279255 49.0077671,22.4179137 C49.0787225,22.4892229 49.2206332,22.5661351 49.3075786,22.5579854 C49.9082009,22.5019567 51.5351778,22.6501781 52.1018215,22.5121438 C52.9312999,22.3099311 53.6593421,21.7333449 54.4118689,22.1443918 C54.580263,22.2360751 54.7326672,22.3725814 54.8575886,22.5111251 C55.0989369,22.7795535 55.1184246,23.124894 54.9375384,23.4371267 C54.3963787,23.6642976 53.770772,24.2638046 53.2146218,24.4680547 C53.0127487,24.5424201 52.3961364,24.8393722 52.1942634,24.9147562 C51.6830848,25.1052538 50.6137572,25.1724883 50.032123,25.1694322 C49.7692882,25.1684134 49.5129494,25.2137458 49.2521134,25.2315731 C49.1251932,25.2407414 49.0337507,25.302373 48.9997721,25.3899815 C48.7954006,25.909011 48.6035213,26.433134 48.4101429,26.9562383 C48.370168,27.0637115 48.5115791,27.251153 48.6424968,27.2857889 C48.9957746,27.380019 51.1414254,27.3433457 51.4592256,27.2211012 C51.7270572,27.1177028 51.9908913,27.0076828 52.2622206,26.9098873 C52.5020698,26.8238068 52.7574093,26.7682875 53.0342352,26.8024141 C53.142667,26.8161666 53.2910737,26.8477464 53.3515357,26.9159995 C53.777268,27.3942809 53.5454138,26.7891709 53.7267997,27.3784909 C53.7702724,27.5200908 53.7427896,27.7329998 53.6438519,27.8338515 C53.1741472,28.3146796 52.2757122,28.7333668 51.5696561,28.9773463 C51.1774028,29.1128339 48.9198224,29.7179438 48.362173,29.48517 C48.214266,29.4235385 47.8454979,29.8177768 47.8225124,29.9364557 C47.8100202,30.0016528 47.7880341,30.064303 47.7820378,30.1300094 C47.716579,30.8594012 47.6566167,31.588793 47.5876601,32.3171661 C47.5721698,32.4827054 47.5641748,32.2764179 47.5421887,32.4409386 C47.5286971,32.5382248 47.5341937,32.6406045 47.5356927,32.7409468 C47.5391905,32.9655709 51.3777768,31.9152875 52.9308002,31.8062862" id="Fill-4" fill="#FFFFFF"></path>
                <path d="M74.3379319,25.3318471 C74.3114485,25.3466183 74.2704743,25.3338845 74.235996,25.3333752 C74.2135101,25.311473 73.8467408,25.5248914 73.8347483,25.4973864 C73.7642926,25.3333752 74.0256283,23.8557456 74.1335604,23.6871501 C74.4023914,23.2664255 75.7820238,22.4764209 76.2407354,22.0913509 C76.4291169,21.9334518 77.8392302,21.0079596 78.3878852,21.1770644 C78.4533441,21.1974385 78.5128067,21.1108487 78.5792649,21.0970962 C78.6432247,21.0843624 78.7146797,21.0853811 78.7776402,21.101171 C78.8361034,21.1159422 78.8490952,21.3033837 78.7971279,21.3930296 C78.6901951,21.5769056 78.5972536,21.7750434 78.4643372,21.9370173 C78.1505345,22.3200499 77.8162447,22.6862738 77.4899499,23.05861 C77.4664646,23.0850963 77.4424797,23.1110732 77.4159964,23.1345034 C76.4665934,23.9830835 75.446235,24.7241904 74.3379319,25.3318471 L74.3379319,25.3318471 Z M66.0976135,25.4255678 C65.2941187,25.6364395 64.1313499,25.8447644 63.3068684,25.9420506 C63.2094296,25.9532563 63.1239834,25.8355961 63.1534648,25.7291415 C63.2304164,25.4535822 63.3113655,25.1795509 63.3903159,24.9045009 C63.7675787,23.5822236 64.5690747,20.3269562 65.3330942,19.2053636 C65.4505204,19.033712 65.8977392,18.3267317 66.1081069,18.2472728 C66.1905551,18.2162023 66.2470196,18.2299548 66.2655079,18.3226569 C66.2934903,18.4596725 66.5763125,18.6252118 66.5728147,18.7632462 C66.5503288,19.6199759 66.4938643,23.0540258 66.4349014,23.9122836 C66.4029215,24.373247 66.4613848,24.8387946 66.4663816,25.3028141 C66.4668813,25.3527305 66.1495808,25.4118153 66.0976135,25.4255678 L66.0976135,25.4255678 Z M80.1722632,33.2278189 C80.0798213,32.9996292 80.061333,32.5850169 79.914925,32.3965567 C79.6206101,32.0170896 79.5376622,31.9192941 79.4757012,31.4557839 C79.4432216,31.2087483 78.9165528,30.8659545 78.8226119,30.970881 C78.7606508,31.0396435 78.5098086,30.8746135 78.4483472,30.8150193 C78.2489726,30.6199376 78.0391046,30.4350429 77.8552202,30.2251899 C77.2555972,29.5390931 76.8223697,29.2737208 76.1517913,28.6630079 C75.9719044,28.4984873 75.80401,28.3202142 75.6346165,28.1434691 C75.5876461,28.094062 75.5576649,28.0278462 75.5181897,27.9702895 C75.4727183,27.903055 75.4932054,27.7247819 75.5621621,27.6738467 C76.1832715,27.2174675 76.4755877,26.799799 77.1101887,26.3648126 C77.8961944,25.8248997 78.574268,25.1525553 79.2803241,24.5153562 C79.592128,24.2336846 79.8489665,23.8857973 80.1317887,23.5689805 C80.5645165,23.0840776 80.8033664,22.489664 81.0627033,21.8988159 C81.3190421,21.3150987 81.3235393,20.7217039 81.2735707,20.1135378 C81.2680741,20.0437566 81.2445889,19.9734661 81.2171062,19.9092878 C80.9877504,19.3663187 80.6614556,18.9277668 80.0693279,18.7769987 C79.9688911,18.7515311 79.8729514,18.7102736 79.6136145,18.6201183 C78.8371028,18.363405 77.9236771,18.5391314 77.0517254,18.933879 C76.2232464,19.3092713 75.4647234,19.824226 74.7826522,20.448182 C74.3659143,20.8286678 73.9616685,21.2239248 73.5439312,21.6033919 C73.3630449,21.7674032 73.1786609,21.948223 72.9642957,22.0449999 C72.8258827,22.1076502 72.6300059,22.030738 72.4601127,22.0185136 C72.4256344,22.0159668 72.3911561,22.0241165 72.3566777,22.0266632 C71.9314451,22.0572243 71.6356311,22.3638541 71.6356311,22.7891629 C71.6356311,22.967436 71.667611,23.1446904 71.6716085,23.3229636 C71.6796035,23.6810379 71.5152069,23.9520131 71.2108982,24.1027812 C70.5847919,24.4124671 69.9446944,24.6849703 69.2416365,24.7364148 C69.070744,24.7491486 68.9238363,24.6136611 68.9123436,24.4124671 C68.9063473,24.3055032 69.0562531,23.1019049 69.054754,22.994941 C69.046759,22.2813391 69.0597509,20.5938566 69.0387641,19.8807641 C69.0127804,19.0245437 68.9738049,18.1683233 68.9268345,17.3136309 C68.8928558,16.6856002 68.652507,16.1497621 68.2592542,15.6709714 C67.8744962,15.2023677 67.399295,14.9670472 66.8131636,15.0037205 C65.5739428,15.0806326 64.5281004,15.5471989 63.8400331,16.6932404 C63.7665793,16.8149755 63.4592725,17.1598067 63.4053065,17.2891821 C63.0345396,18.1785103 63.1864441,17.627901 62.9281065,18.573258 C62.5168651,19.3678468 61.4985055,23.3575995 61.2151836,24.2056703 C61.068276,24.6462596 60.8968838,25.0776806 60.7299887,25.5111389 C60.6780214,25.6461172 60.5960729,25.7546091 60.4356738,25.7760019 C60.2303029,25.8024882 60.021934,25.825409 59.8240584,25.8839845 C59.4967642,25.980252 59.2958905,26.2303437 59.2104442,26.5598943 C59.1085083,26.9526046 59.056541,27.8836997 59.2594134,28.2422833 C59.3808371,28.4572298 59.7830842,28.5229362 59.9060069,28.7363546 C59.9794607,28.8642019 59.7286184,29.150967 59.6891432,29.2930761 C59.5547277,29.7759416 59.4712802,29.7117633 59.3478578,30.1971756 C59.2359282,30.6352181 58.846673,32.7439346 58.4444259,32.9578624 C58.3834642,32.9904609 58.3260004,33.0347745 58.2750324,33.0821442 C58.0826534,33.2614361 57.9857144,33.4906444 58.0017043,33.7524512 C58.0241902,34.1247874 58.1566069,34.445679 58.4719086,34.655532 C58.8231877,34.8898338 59.1829615,35.0910278 59.6301803,34.9886481 C59.7306171,34.9657272 59.8395486,34.9835545 59.9384864,34.9575776 C60.0704035,34.9229417 60.2168114,34.8918712 60.3212458,34.8098656 C61.1697122,34.1441428 61.8957557,31.5973837 62.1715822,30.4976932 C62.2585276,30.1513339 62.3084961,29.6761087 62.4174276,29.3353523 C62.4643981,29.1891684 62.574329,29.1015598 62.7217363,29.0781297 C63.130979,29.013442 63.7470915,29.0689613 64.1588326,29.0307599 C64.6825033,28.9818622 65.177692,28.8448465 65.6553916,28.6166569 C65.8112935,28.5422916 65.9781886,28.4928844 66.1405865,28.4348183 C66.2185375,28.4073133 66.371941,28.5005247 66.3854325,28.5815117 C66.4029215,28.6854194 66.4259071,28.7898365 66.4329027,28.8952724 C66.4968625,29.8579473 66.5843075,30.8170567 66.6962371,31.7751475 C66.7656934,32.3726172 66.9315891,34.9779517 66.8391472,35.5912112 C66.8196595,35.7185492 66.8711271,35.8810324 66.9410831,35.9920711 C67.1664414,36.3491267 67.416784,36.6888644 67.7375823,36.9639144 C67.790549,37.0092467 67.8380191,37.0617099 67.8939839,37.1024581 C68.0803667,37.2369269 68.2792417,37.2328521 68.4831135,37.1406594 C68.6839872,37.0494855 68.817903,36.8931145 68.8998514,36.6837709 C69.0052851,36.4122864 69.0347666,36.1311242 69.035766,35.8418123 C69.0377647,35.3411195 68.983299,32.8381647 68.9957911,32.3379812 C69.0062845,31.909107 69.035766,31.4797234 69.0352663,31.0508492 C69.0332675,30.0509916 69.0217748,29.0506247 69.0067842,28.0507671 C68.994292,27.1981121 69.0272713,27.1288403 69.7758006,26.7081157 C70.020147,26.5711001 70.2674914,26.4412154 70.516335,26.3128587 C70.7361967,26.1992732 70.96955,26.1442632 71.2158951,26.1320388 C71.4677367,26.1198144 71.6341321,26.2797508 71.5771679,26.5120153 C71.4747323,26.9291744 71.3628027,27.3437868 71.2543709,27.7594178 C71.101467,28.3487379 71.023516,28.5045995 70.9150842,29.1015598 C70.7416933,30.0535384 70.5398202,30.9968579 70.3134625,31.9371214 C70.2310144,32.2814432 70.2250181,32.6456297 70.1920389,33.0011573 C70.185543,33.0689011 70.2000339,33.1493787 70.2320137,33.2079541 C70.3669289,33.4544804 70.4968472,33.7066096 70.6602445,33.9322524 C70.7366964,34.0376882 70.8796065,34.0972824 71.0015299,34.158914 C71.1464387,34.23277 71.3842892,34.1752132 71.4812282,34.0606091 C71.5266996,34.0066178 71.5821648,33.9572106 71.6141446,33.8955791 C71.8629882,33.4229006 72.1478091,32.9700868 72.3127054,32.4536041 C72.3886576,32.2157368 72.459613,31.9676825 72.5850341,31.7573202 C72.7899053,31.4135077 72.8958387,31.0386248 73.0092674,30.6611951 C73.1431832,30.2160216 73.2860933,29.7728855 73.4320016,29.3312775 C73.4644811,29.2319539 73.5234441,29.1407799 73.5749117,29.0485873 C73.6163856,28.9752406 73.6773473,28.9681097 73.7557979,28.9996895 C74.1840287,29.1708317 74.5053266,29.5049665 74.8186296,29.8202553 C75.2373663,30.2425079 75.6740917,30.6372556 76.1283061,31.0162133 C76.4486047,31.2831136 76.7559114,31.56886 77.0497267,31.8663215 C77.4914489,32.313023 77.9141831,32.7790799 78.3494094,33.232403 C78.6167413,33.5105091 78.8975647,33.7692598 79.2703303,33.8950697 C79.5201732,33.9791128 79.7450318,33.9297056 79.9608961,33.7860684 C80.1392839,33.6668801 80.2472161,33.4127136 80.1722632,33.2278189 L80.1722632,33.2278189 Z" id="Fill-5" fill="#FFFFFF"></path>
                <path d="M89.9739178,30.1369235 C89.9769159,30.0401467 90.1952786,28.9618489 89.898965,28.8324736 C89.6471233,28.889521 89.4882232,28.834511 89.2578681,29.2083752 C89.0360076,29.7961672 87.0167773,30.6768365 85.7520726,31.1082574 C85.2718745,31.2717594 84.7966733,31.371083 84.2909913,31.4592008 C83.9936783,31.5111547 83.6753784,31.4851778 83.3665726,31.4882339 C83.2516449,31.4892526 83.1012394,31.3206572 83.1062363,31.2111465 C83.1072357,31.178548 83.1027385,31.1454401 83.1072357,31.1138603 C83.167198,30.6671588 83.2241621,30.2199479 83.2901207,29.7742651 C83.3280968,29.5180611 83.4155418,29.277647 83.551956,29.0555697 C83.6583891,28.8834087 83.7818115,28.7418089 84.0336531,28.7937628 C84.2784992,28.8441887 84.5128518,28.8080247 84.7532007,28.7830664 C85.3718117,28.7188881 85.9494485,28.5294092 86.5440745,28.3939217 C86.7784272,28.3404397 86.9793009,28.2268543 87.1636849,28.0827077 C87.3170885,27.96301 87.4904794,27.8636864 87.6618717,27.7648722 C87.7782985,27.6981471 88.6437542,26.9616244 88.6437542,26.9616244 C88.6627423,26.9208762 88.6872269,26.8826748 88.723704,26.8500763 C88.9910359,26.6096623 89.256369,26.3667015 89.5401906,26.1436054 C89.962425,25.8109986 90.2212623,25.3683719 90.4726042,24.9206517 C90.4965892,24.8778661 90.4686068,24.7887296 90.4336287,24.7398318 C90.3991504,24.6919527 90.3246972,24.6410175 90.2677331,24.6379614 C89.9139555,24.6186061 89.5761679,24.6934808 89.256369,24.7989166 C88.7102125,24.9787178 87.8127768,25.5721126 87.2806114,25.7819656 C86.435143,26.1150817 85.2338984,26.4522726 84.3894294,26.7884448 C84.3004853,26.8240994 84.1930529,26.8261368 84.0926161,26.8342864 C84.0661327,26.8363238 84.0086688,26.8037253 84.0076695,26.7869167 C83.9736908,26.235798 84.0126663,25.4743171 83.9916795,24.9231984 C83.9896808,24.87481 84.0566387,24.7933137 84.1051082,24.7866921 C84.3404602,24.7525656 84.57931,24.7260793 84.8191592,24.7214951 C85.1354603,24.7153829 86.0978551,24.517245 86.3736817,24.3837949 C87.157189,24.0048371 87.2306428,24.1795448 87.8657435,23.5927715 C88.3204575,23.1730656 89.1254513,22.8139726 89.6131447,22.4304307 C90.1852849,21.980673 90.6539902,21.4427975 91.1796596,20.9548385 C91.3270669,20.8173135 91.4105145,20.6420965 91.4539871,20.4521083 C91.4744743,20.3614436 91.4799708,20.2570265 91.4539871,20.1663619 C91.3405585,19.7736516 91.536935,18.9103003 91.1516772,19.0075865 C91.0527394,19.0325448 90.9488048,19.0503721 90.8583617,19.0916296 C90.2782265,19.3539458 88.9985312,20.1760396 88.445379,20.4791039 C87.365558,21.0714801 86.9832984,21.0994944 85.8640022,21.6338045 C85.2858657,21.9098731 83.0038007,22.0723564 82.9163557,22.0147996 C82.7339704,21.8940832 82.540592,21.8324517 82.3222293,21.8395826 C82.184316,21.8441668 82.3871884,21.8349984 82.2492752,21.8395826 C82.0354096,21.8462042 81.8525246,21.9231163 81.6941243,22.0514729 C81.5297276,22.1854325 81.4327886,22.3509718 81.4977477,22.5618434 C81.575199,22.8149913 81.6286654,26.1593953 81.4707647,26.3335936 C81.2878797,26.5352969 81.2189231,26.7915009 81.2514026,27.0558545 C81.3283543,27.6849039 81.2279174,28.2864484 81.1229834,28.8925771 C81.0070563,29.561356 80.9830714,30.2449061 81.0100544,30.9279469 C81.0390362,31.6603948 81.2753876,32.3515852 81.7640803,32.9658635 C81.9159847,33.1568704 82.2547717,33.5006829 82.4651394,33.5842166 C82.6240395,33.6157964 82.863389,33.6845589 83.1042376,33.706461 C83.4859975,33.7410969 83.8697562,33.723779 84.2500171,33.7655458 C85.083493,33.8567198 85.8255264,33.6458482 86.5400771,33.3295407 C86.7844234,33.2210488 87.0272707,33.1125568 87.1996623,32.9016852 C87.2786127,32.804399 87.4015354,32.7341084 87.5179622,32.6714581 C88.3214569,32.2390185 89.9594269,30.6228452 89.9739178,30.1369235" id="Fill-6" fill="#FFFFFF"></path>
                <mask id="mask-2" fill="white">
                    <use xlink:href="#path-1"></use>
                </mask>
                <g id="Clip-8"></g>
                <path d="M142.034712,24.6007006 C142.0542,24.527354 142.035212,24.4122405 141.988241,24.3592679 C141.941771,24.3083327 141.83234,24.2854119 141.757886,24.2966176 C141.330655,24.3607959 140.974379,24.5966258 140.617603,24.8222687 C140.117418,25.1380668 140.17738,24.8874657 137.93479,25.6204229 C137.655466,25.7115969 136.877455,25.7788314 136.592634,25.852178 C136.471211,25.8837578 136.364778,25.7472515 136.414246,25.6153294 C136.549661,25.2562364 136.688074,24.8981621 136.832983,24.5431439 C136.977892,24.187107 136.912433,24.4081656 137.02886,24.0434697 C137.302688,23.1877587 137.551531,22.323898 137.803373,21.4610561 C137.997751,20.7948239 138.033228,20.1112738 137.973766,19.4231395 C137.937289,18.9963027 137.889319,18.5699752 137.829856,18.1461945 C137.659963,16.9339372 137.33067,16.1444419 136.140419,16.0379874 C136.056471,16.0303471 135.972025,16.0303471 135.888577,16.0206694 C135.596261,15.9860335 135.321933,15.9962205 135.062596,16.0415528 C135.062596,16.0415528 134.906195,19.4068402 134.800261,19.7761203 C134.634865,20.3506691 134.459476,20.9221619 134.288083,21.4946733 C134.271094,21.4895798 134.254604,21.4844863 134.237615,21.4788834 C134.066223,22.0519042 133.918816,22.6335839 133.719441,23.1959083 C133.205264,24.6429768 133.190274,24.7535062 132.781031,26.237248 C132.710076,26.4954894 132.558171,26.6936272 132.297335,26.7858199 C132.217885,26.8138342 132.143432,26.8561104 132.063982,26.8825967 C131.147059,27.1866798 130.431009,27.2187689 129.510588,27.5131743 C129.354686,27.5625814 129.181295,27.5615627 129.015399,27.5702217 C128.929453,27.5742965 128.655126,27.5131743 128.682109,27.4184348 C128.738573,27.2162222 128.916461,26.872919 129.02989,26.7033049 C129.456622,26.0666151 129.377171,26.1399618 129.519082,25.8562528 C129.6505,25.5939367 129.802904,25.3336579 129.959805,25.0815287 C130.364051,24.2976363 130.927696,22.0412078 131.289969,20.2610232 C131.185035,20.4347122 131.079601,20.6073824 130.974667,20.7810714 C130.74731,20.5737652 130.82726,20.3083929 130.818265,20.0633947 C130.809771,19.8428454 130.756304,19.6340111 130.615893,19.4669437 C130.393532,19.2015715 130.118206,19.01413 129.77642,18.9326337 C129.25275,18.8078425 128.778548,18.9188812 128.332328,19.2117585 C128.109469,19.3579425 127.938576,19.5413091 127.898601,19.8117749 C127.848133,20.1515126 127.82065,20.495325 127.658252,20.8050109 C127.221527,21.6362731 127.5818,22.5694056 126.996668,23.306947 C126.652885,23.7398961 125.88087,25.7706817 125.543582,26.2087243 C124.865508,27.0878655 124.21042,27.3817615 123.380442,28.1142094 C122.34959,29.0239117 120.631171,29.4782535 119.384955,30.0130729 C118.960721,30.1949115 116.540743,29.9448198 116.773597,27.8712486 C116.830561,27.3618968 116.985464,26.9340413 117.119879,26.7185854 C117.956353,25.3820463 119.390451,24.6964588 120.781077,24.0877834 C121.752966,23.6981292 122.694374,23.6003337 123.549836,22.910162 C123.712733,22.7787492 123.826162,22.3804361 123.958579,22.2159155 C124.185436,21.9342439 123.966074,21.3179282 123.739716,21.0174106 C123.331473,20.474951 122.518484,20.2218031 121.930354,20.5279236 C121.556589,20.7230053 121.195316,20.9573071 120.802064,21.0989069 C120.040043,21.3739569 119.349477,21.652063 118.705382,22.1435875 C118.47003,22.3233887 116.916007,23.2870823 116.385341,23.8748743 C114.272669,26.2143272 113.909398,28.8420731 114.01683,29.2317273 C114.257179,30.1022095 114.776852,30.7480676 115.520385,31.2166713 C115.661296,31.3058078 117.164851,32.2353749 117.845423,32.1462383 C119.370464,31.9455537 120.527736,31.8319683 121.804933,30.9635234 C122.46202,30.5168219 123.091624,30.0278441 123.646775,29.4222248 C123.923101,29.1201792 124.475254,28.5879066 124.76757,28.3098005 C124.76757,28.4203298 124.508733,28.8166055 124.478252,28.8756904 C123.970571,29.859758 123.904613,29.932086 123.341467,30.8825365 C122.924229,31.5874794 122.583443,32.3127964 122.344594,33.0936327 C122.232164,33.4598566 122.013302,33.8245525 122.081759,34.2055477 C122.155712,34.6201601 122.344594,35.0143984 122.497497,35.4116928 C122.54197,35.5283343 122.623918,35.6352982 122.705866,35.7310563 C122.787315,35.8273238 122.886753,35.9093295 122.985191,35.9887884 C123.182567,36.1471968 123.486875,36.1166357 123.680753,35.9424373 C123.873632,35.7687484 124.016542,35.5644983 124.133469,35.3322339 C124.462262,34.6802636 124.901486,34.1052054 125.359698,33.5454277 C125.532089,33.3350654 127.110597,30.1129059 127.380927,30.179631 C127.544324,30.2198698 128.879984,30.059424 129.162307,29.9845492 C130.020267,29.7563596 130.900713,29.7023683 131.783658,29.6850504 C131.882096,29.683013 131.942059,29.7461726 131.938561,29.8516084 C131.918074,30.4062925 131.499337,31.8457208 131.348932,32.386143 C131.188033,32.9642573 130.829258,34.1143737 130.739815,34.7103153 C130.664862,35.2135549 130.435006,35.7687484 130.299591,36.2618009 C130.275607,36.3494094 130.099217,36.4533172 129.994783,36.5500941 C129.505591,37.0049452 130.248623,37.5800034 131.056615,38.3272225 C131.411892,38.6552451 131.648243,38.4764626 131.894089,38.0333265 C131.935563,37.9589612 131.975038,37.8830677 132.009516,37.8051369 C132.268853,37.2198917 132.486216,36.6107069 132.794023,36.053476 C133.249237,35.2288355 133.557043,34.3374698 133.976779,33.498058 C134.108197,33.2347231 134.223124,32.9398084 134.250107,32.6499873 C134.329557,31.7845985 134.905195,30.4246292 135.106069,29.5938764 C135.160035,29.370271 135.31194,29.2281618 135.526305,29.1578713 C136.21737,28.9296816 137.255218,28.6953798 137.948282,28.4753398 C139.844589,28.012339 141.557512,27.8254069 141.753889,27.7337236 C141.86382,27.6822791 141.935774,27.5666562 141.940771,27.4214909 C141.955262,26.9676585 141.876812,26.6167151 141.520036,26.3233284 C141.455077,26.2693371 141.873813,26.4705311 141.827343,26.3997312 C141.647456,26.1267186 141.648455,25.9672915 141.712915,25.7070128 C141.805356,25.3346766 141.934775,24.9715087 142.034712,24.6007006" id="Fill-9" fill="#FFFFFF" mask="url(#mask-2)"></path>
                <path d="M47.7768214,12.3742749 C47.7693261,12.3019469 47.7278521,12.2336938 47.7008691,12.1639126 C47.6509005,12.0355559 47.4220444,11.9510035 47.3261048,12.0314811 C47.1851934,12.1511788 45.1589675,13.241701 43.7373614,18.6703726 C43.4045707,19.5118218 43.0417988,20.3425746 42.6520439,21.1575375 C42.4231878,21.6368375 42.2123204,22.1151189 42.088898,22.6341483 C42.036431,22.853679 41.9819652,23.0818686 41.8785303,23.2789877 C41.6291871,23.7537036 40.7072668,27.4964207 40.3699789,28.8543526 C40.3155131,29.0743926 40.2625464,29.2954513 40.1950888,29.5114165 C40.1771001,29.5684639 40.1006482,29.654035 40.0646708,29.6479228 C40.0052082,29.6372264 39.9277569,29.5725387 39.9077695,29.5129445 C39.5804753,28.5431387 39.4090831,27.5341127 39.2646739,26.5261055 C39.1362546,25.629137 39.0628008,23.5224579 38.9393784,22.6239613 C38.8359435,21.87063 38.6115846,21.1504065 38.4751703,20.4077716 C38.4286996,20.1546237 38.2982816,19.9091162 38.1688629,19.682964 C38.0999063,19.5627569 37.9634921,19.4466247 37.8340735,19.4058766 C37.5092777,19.3024782 37.1749879,19.3243803 36.8591865,19.4664894 C36.7207735,19.5291397 36.6143405,19.6386504 36.5693687,19.7909466 C36.2780519,20.7704301 35.8458237,21.6908288 35.4475741,22.6265081 C34.9303993,23.8418215 34.2703144,26.2057232 33.7176619,27.4021906 C33.5762508,27.7083111 33.4023602,27.9981322 33.2394626,28.2930469 C33.2239724,28.3210613 33.1819987,28.3348138 33.1505185,28.3526411 C33.0595757,28.4030669 33.0126053,28.3725058 32.9921181,28.26707 C32.857203,27.559071 32.9181646,27.6843715 32.8866844,26.9677135 C32.8152294,25.3439 32.971631,24.8630719 32.8187272,23.2428238 C32.7867473,22.9041048 32.5908705,19.8225264 32.0876869,19.0096009 C31.8898113,18.6897279 31.6764455,18.380042 31.4830671,18.057113 C31.2222311,17.6226359 30.8494655,17.3256838 30.4147388,17.0949474 C30.0544654,16.9034311 29.69719,16.9564037 29.3434125,17.1041158 C29.2015017,17.1637099 29.1075608,17.2874824 29.0570925,17.4351944 C28.9811403,17.6577812 28.9701472,17.8890269 29.0910712,18.093277 C29.3014389,18.4488045 29.9550279,21.0561764 30.0604616,22.3366869 C30.1099305,22.9397594 30.2103673,23.5413039 30.2158639,24.1438671 C30.2278563,25.5445846 30.2918161,25.7844893 30.2783246,27.1857161 C30.4152385,27.8947338 30.3487803,27.7689239 30.3617721,28.4876193 C30.3792611,29.4686309 30.2333529,32.8033572 30.1264201,33.788953 C30.0724541,34.285571 30.1773881,35.0215843 30.3173001,35.4906974 C30.3482806,35.5935864 30.4262316,35.6908726 30.5041826,35.7688034 C30.8759488,36.1401209 31.2846918,36.4650874 31.7374071,36.7284222 C31.8008672,36.7650956 31.8753204,36.7854696 31.9467755,36.8017689 C32.5658862,36.9428594 32.935154,35.6251662 33.1145412,35.4575895 C33.7351509,34.8769284 34.8374578,30.1944572 34.9259022,29.9464029 C35.2946703,28.9164936 35.5605031,27.3400497 36.0811757,26.3758467 C36.1346421,26.2770325 36.1811129,26.1710873 36.2115937,26.0631047 C36.4084699,25.3683489 36.7382625,24.7311497 37.0575617,24.0144917 C37.1195228,24.233513 37.1440074,24.4102581 37.168492,24.5834377 C37.2644317,25.2573102 37.3508773,25.9322013 37.4433192,26.6065831 C37.6282029,27.9589122 38.0469396,29.8277239 38.4436901,31.1316646 C38.6175808,31.7031573 38.5636147,32.2237149 38.7205161,32.970934 C38.7415029,33.072295 39.0023388,33.1863898 39.0568046,33.2821479 C39.2436871,33.6086424 39.3756041,33.843963 39.5849725,34.1556863 C39.9457456,34.6930524 40.4744132,34.9380506 41.0960223,34.983383 C41.4158212,35.0068131 41.7915849,34.7669084 41.907512,34.4806527 C41.9784674,34.3064544 42.0354316,34.1251252 42.0849005,33.9432866 C42.271783,33.2495494 42.5276221,32.5542842 42.7060099,31.8580003 C42.8464216,31.3094284 43.1717171,30.0350301 43.1887064,29.8847713 C43.2721539,29.1334774 43.5589736,28.4290439 43.5984488,27.6757126 C43.6269309,27.1347809 43.8707775,26.6564996 43.925743,26.1293205 C43.9452307,25.943407 45.3783296,21.6037296 45.4782667,21.4010076 C45.5162428,21.3240955 45.5901963,21.0847001 45.6851366,20.7510747 C45.9284836,20.3817946 46.0753912,19.987047 46.1213623,19.5316865 C46.1623366,19.124205 46.183823,18.6153626 46.4231725,18.3515183 C46.7899419,17.9465837 46.8369124,17.4494563 47.052277,17.0083576 C47.341595,15.9458497 47.5599577,14.9836842 47.6658911,13.9547935 C47.7813185,13.4388201 47.8332858,12.9136784 47.7768214,12.3742749" id="Fill-10" fill="#FFFFFF" mask="url(#mask-2)"></path>
            </g>
        </g>
    </g>
</svg>