<svg width="154" height="45" viewBox="0 0 154 45" xmlns="http://www.w3.org/2000/svg"><title>FHR_logo</title><g fill="#FFF" fill-rule="evenodd"><path d="M34.207 11.815v21.92h-.001v2.614c0 1.097.385 1.44.831 1.44.5 0 .884-.48.884-1.44v-2.76h-.003V11.815c0-1.1-.383-1.444-.826-1.444-.499 0-.885.481-.885 1.444M21.455 26.805h-8.603v-.002h-1.184l.051-14.944h3.46c.734 0 .965-.321.965-.692 0-.418-.321-.742-.964-.742h-3.504l-.039-1.4c0-3.541.172-5.376.992-6.378.64-.646 1.515-.823 2.974-1.06l1.229-.117c.114-.296.055-.708-.055-.883H11.4c-1.696 0-3.209.587-4.26 1.886-1.113 1.298-1.867 3.419-1.867 6.551v.532c-.008.11-.02.218-.02.331v.538h-2.95c-.732 0-.96.323-.96.696 0 .419.32.74.96.74h2.95v14.942H2.182c-.921 0-1.21.407-1.21.875 0 .527.404.931 1.21.931h3.072v7.953c0 3.538-.17 5.37-.986 6.376-.642.643-1.522.822-2.977 1.057l-1.228.116c-.115.303-.057.715.056.889h5.375c1.693 0 3.21-.586 4.257-1.887 1.115-1.298 1.87-3.428 1.87-6.55v-.568c.005-.098.016-.192.016-.293l.024-7.093h1.312v-.002h8.482c.923 0 1.213-.405 1.213-.87 0-.526-.404-.932-1.213-.932"/><path d="M25 16v20.638c0 3.094-.746 5.205-1.85 6.492-1.034 1.289-2.534 1.87-4.207 1.87h-4.827c-.111-.172-.167-.581-.054-.88l1.213-.115c1.439-.234 2.308-.41 2.942-1.048.808-.996.977-2.813.977-6.319v-16.48c0-1.528.694-2.69 1.848-3.337C22.426 16 23.502 16 25 16M40 24.41l.44-.07c.914-.135.914-.181.914-2.68v-8.32c0-2.386 0-2.5-.896-2.68L40 10.59V10h8.79c.153 1.159.21 2.477.21 3.682l-.687.09c-.4-2.136-.496-2.909-2.974-2.909h-1.506v6.319h1.487c1.487 0 1.868 0 2.002-.978l.114-.795h.496v4.568h-.496l-.095-.864c-.153-.909-.63-.909-2.002-.909h-1.506v3.455c0 2.432 0 2.5.915 2.682l.438.068V25H40v-.59M50 24.41l.48-.07c.94-.204.94-.113.94-2.704v-8.341c0-2.204 0-2.477-.94-2.636l-.48-.068V10h5.44v.59l-.48.07c-.94.158-.94.43-.94 2.635v10.523c.6.159 1.22.318 1.84.318 2.82 0 2.84-1.545 3.42-3.432l.72.159c-.12 1.478-.26 2.682-.7 4.137H50v-.59M64.695 21.66c0 2.25 0 2.522.864 2.68l.441.07V25h-5v-.59l.44-.07c.865-.158.865-.43.865-2.68v-8.297c0-2.272 0-2.545-.864-2.704L61 10.591V10h5v.59l-.44.07c-.865.158-.865.43-.865 2.68v8.32M67 24.245l.553-.089c.812-.134.812-.956.812-3.89v-10.11c.203-.068.774-.156.904-.156l8.26 10.689V14.71c0-3.622-.147-3.778-1.124-3.91l-.535-.067v-.578H80v.578l-.553.088c-.811.133-.811.956-.811 3.89v10.11c-.203.067-.72.178-.959.178l-8.206-10.556v5.911c0 3.49.148 3.645 1.125 3.823l.535.067v.577H67v-.577M84.271 10.863h-.756c-2.136 0-2.343.59-2.834 3.046H80c0-.364.17-3.41.245-3.909h10.51c.075.5.245 3.545.245 3.909h-.681c-.491-2.455-.7-3.046-2.834-3.046h-.756v10.841c0 2.319 0 2.41 1.228 2.637l.453.068V25H82.59v-.59l.453-.07c1.23-.226 1.23-.317 1.23-2.636V10.863M98.311 13.363c0-2.272 0-2.545-.868-2.704L97 10.591V10h5.023v.59l-.443.07c-.868.158-.868.43-.868 2.68v3.319h5.576v-3.296c0-2.272 0-2.545-.868-2.704l-.443-.068V10H110v.59l-.425.07c-.887.158-.887.43-.887 2.703v8.273c0 2.273 0 2.546.887 2.705l.425.068V25h-5.023v-.59l.443-.07c.868-.158.868-.43.868-2.704v-3.954h-5.576v3.977c0 2.25 0 2.523.868 2.682l.443.068V25H97v-.59l.443-.07c.868-.158.868-.43.868-2.68v-8.297M115.695 21.66c0 2.25 0 2.522.864 2.68l.441.07V25h-5v-.59l.441-.07c.864-.158.864-.43.864-2.68v-8.297c0-2.272 0-2.545-.864-2.704l-.441-.068V10h5v.59l-.441.07c-.864.158-.864.43-.864 2.68v8.32M119 24.41l.48-.07c.94-.204.94-.113.94-2.704v-8.341c0-2.204 0-2.477-.94-2.636l-.48-.068V10h5.44v.59l-.48.07c-.94.158-.94.43-.94 2.635v10.523c.6.159 1.22.318 1.84.318 2.82 0 2.84-1.545 3.42-3.432l.72.159c-.12 1.478-.26 2.682-.7 4.137H119v-.59"/><path d="M128 24.41l.48-.07c.94-.204.94-.113.94-2.704v-8.341c0-2.204 0-2.477-.94-2.636l-.48-.068V10h5.44v.59l-.48.07c-.94.158-.94.43-.94 2.635v10.523c.6.159 1.22.318 1.84.318 2.82 0 2.84-1.545 3.42-3.432l.72.159c-.12 1.478-.26 2.682-.7 4.137H128v-.59M146.424 14.13c-.26-1.108-.639-3.304-2.813-3.304-1.139 0-1.997.826-1.997 2.174 0 3.348 6.386 3.13 6.386 7.782 0 3.088-2.514 4.218-4.909 4.218-1.736 0-2.874-.5-3.512-.869-.479-1.37-.579-2.348-.579-4.088l.938-.217c.28 1.305.938 4.348 3.492 4.348 1.257 0 2.096-.956 2.096-2.413 0-3.674-6.187-3.391-6.187-7.848 0-2.761 1.877-3.913 4.45-3.913 1.497 0 2.395.348 3.134.804.16 1.065.219 2.218.219 3.326h-.718M42.14 33.248c.45-.687.98-1.118 1.866-1.233.332-.037.663 0 .994.05v.98c-.291-.051-.57-.09-.874-.064-.702.05-1.43.394-1.722 1.042-.186.407-.186.838-.265 1.27V38H41v-5.934h1.14v1.182M55.711 32.515c-.319-.522-.924-.776-1.494-.776-1.153 0-2.02.534-2.133 1.794h3.879c-.012-.351-.058-.703-.252-1.018zm-3.696 1.757c-.023 1.322.753 2 1.985 2 .513 0 1.072-.072 1.46-.46.182-.182.263-.412.308-.654h1.05c-.057.533-.251.908-.674 1.236C55.54 36.867 54.73 37 54 37c-1.86 0-3-.945-3-3.03 0-.752.24-1.528.764-2.061.673-.667 1.586-.909 2.487-.909.98 0 2.042.46 2.475 1.454.252.558.274 1.2.274 1.818h-4.985zM68.37 32.079c-.332-.267-.828-.352-1.262-.352-.56 0-1.745.085-1.745.836 0 .643.79.752 1.312.824l.867.122c1.069.146 2.458.376 2.458 1.697 0 .642-.42 1.2-1.045 1.454-.637.267-1.363.34-2.05.34-.79 0-1.86-.097-2.433-.655-.344-.327-.446-.727-.472-1.175h1.185c.05.254.127.485.318.678.37.364.917.462 1.44.462.675 0 1.872-.122 1.872-.97 0-.728-.88-.825-1.44-.898l-.814-.109c-1.02-.145-2.357-.364-2.357-1.587 0-.595.395-1.117.943-1.383.61-.303 1.311-.363 1.999-.363.714 0 1.542.12 2.115.545.382.291.471.716.484 1.152H68.65c-.026-.23-.09-.461-.28-.618M78.07 33.994c0 1.491 1.02 2.29 2.436 2.29 1.417 0 2.425-.811 2.425-2.29 0-1.48-1.008-2.28-2.425-2.28-1.43 0-2.437.8-2.437 2.28zm5.03-2.182c.612.558.9 1.37.9 2.182 0 .824-.288 1.636-.9 2.194-.71.63-1.682.812-2.594.812-.925 0-1.897-.182-2.605-.812-.613-.558-.901-1.37-.901-2.194 0-.812.288-1.624.9-2.182.696-.63 1.681-.812 2.606-.812.912 0 1.885.181 2.593.812zM97 37.826h-1.02v-1.048c-.163.261-.337.523-.586.723-.498.375-1.157.499-1.767.499-.897 0-1.842-.312-2.315-1.135-.325-.561-.312-1.21-.312-1.833V32h1.058v3.106c0 .549-.012 1.147.386 1.585.361.41.921.536 1.457.536.497 0 1.033-.175 1.406-.512.585-.523.672-1.546.672-2.307V32H97v5.826M106.14 33.248c.45-.687.98-1.118 1.866-1.233.331-.037.663 0 .994.05v.98c-.291-.051-.57-.09-.874-.064-.702.05-1.43.394-1.722 1.042-.186.407-.186.838-.265 1.27V38H105v-5.934h1.14v1.182M119.984 33.012c-.06-.958-.884-1.333-1.745-1.333-1.315 0-2.176.933-2.176 2.242 0 1.322.85 2.327 2.176 2.327.848 0 1.566-.411 1.686-1.297l1.04.012c-.06.425-.192.825-.49 1.152-.574.643-1.435.885-2.272.885-1.769 0-3.203-1.103-3.203-2.994 0-1.891 1.434-3.006 3.215-3.006.813 0 1.757.158 2.32.812.286.339.406.75.465 1.188l-1.016.012M132.711 32.515c-.319-.522-.924-.776-1.494-.776-1.152 0-2.019.534-2.133 1.794h3.878c-.011-.351-.057-.703-.251-1.018zm-3.696 1.757c-.022 1.322.753 2 1.985 2 .513 0 1.072-.072 1.46-.46.183-.182.263-.412.308-.654h1.05c-.058.533-.251.908-.674 1.236-.604.473-1.414.606-2.144.606-1.86 0-3-.945-3-3.03 0-.752.24-1.528.764-2.061.673-.667 1.586-.909 2.487-.909.981 0 2.042.46 2.476 1.454.25.558.273 1.2.273 1.818h-4.985zM145.37 32.079c-.331-.267-.828-.352-1.262-.352-.56 0-1.745.085-1.745.836 0 .643.79.752 1.312.824l.867.122c1.07.146 2.458.376 2.458 1.697 0 .642-.42 1.2-1.045 1.454-.637.267-1.363.34-2.05.34-.79 0-1.86-.097-2.433-.655-.344-.327-.446-.727-.472-1.175h1.185c.05.254.127.485.319.678.369.364.916.462 1.439.462.675 0 1.872-.122 1.872-.97 0-.728-.879-.825-1.44-.898l-.814-.109c-1.019-.145-2.357-.364-2.357-1.587 0-.595.395-1.117.943-1.383.611-.303 1.312-.363 2-.363.713 0 1.54.12 2.114.545.382.291.472.716.484 1.152h-1.095c-.026-.23-.09-.461-.28-.618M152.22 32.925h.196c.222 0 .411-.107.411-.382 0-.195-.108-.39-.411-.39-.088 0-.149.009-.196.018v.754zm0 1.232h-.27v-2.226c.142-.026.277-.053.48-.053.256 0 .424.07.525.169.101.097.155.248.155.46 0 .293-.148.47-.33.542v.018c.148.035.25.212.283.54.04.346.08.48.108.55h-.283c-.04-.07-.081-.274-.115-.567-.04-.285-.148-.39-.364-.39h-.189v.957zm.283-2.847c-.667 0-1.213.754-1.213 1.685 0 .95.546 1.695 1.22 1.695.674.008 1.214-.745 1.214-1.686 0-.94-.54-1.694-1.214-1.694h-.007zm.007-.31c.83 0 1.49.886 1.49 1.995 0 1.128-.66 2.005-1.497 2.005-.829 0-1.503-.877-1.503-2.005 0-1.109.674-1.995 1.503-1.995h.007z"/></g></svg>