<svg width="157" height="39" viewBox="0 0 157 39" xmlns="http://www.w3.org/2000/svg" xmlns:xlink="http://www.w3.org/1999/xlink"><title>INVISTA_BUS_wht</title><defs><path id="a" d="M.02 38.98h156.675V.061H.02z"/></defs><g fill="none" fill-rule="evenodd"><g><mask id="b" fill="#fff"><use xlink:href="#a"/></mask><path d="M156.156 16.24v-1.742c0-.144 0-.26.016-.421h-.008a2.664 2.664 0 0 1-.213.383l-.608.948h-.305l-.643-.948a2.673 2.673 0 0 1-.217-.383h-.005c.014.16.014.277.014.42v1.742h-.54v-3.02h.526l.79 1.188c.091.136.151.244.22.372h.014c.061-.128.106-.22.207-.372l.752-1.188h.54v3.02h-.54zm-2.928-2.53h-.785v2.53h-.539v-2.53h-.832v-.49h2.322l-.166.49zM13.145 3.69C6.143 6.117.01 10.686 1.08 15.763c.8 3.791 3.813 8.912 7.76 13.555 4.1 4.824 9.072 8.685 13.058 8.164 4.951-.648 9.661-9.751 11.1-18.546 1.177-7.195.22-14.254-4.684-16.111-3.625-1.373-10.275-.833-15.169.863zM3.957 6.046C7.53 2.518 11.536.85 15.364.289c5.771-.844 11.14.817 14.035 2.326 6.497 3.39 8.655 8.715 7.966 15.079-.751 6.94-5.441 13.79-12.161 19.044-2.715 2.125-5.242 2.51-7.026 2.136-4.047-.85-8.054-4.44-10.951-8.4C2.684 24.268-.24 17.282.089 13.79c.303-3.233 1.852-5.754 3.868-7.743z" fill="#FFF" mask="url(#b)"/><path d="M3.89 15.271C1.232 20.168.52 26.334 3.814 28.706c1.825 1.312 6.899 2.774 11.958 3.213 5.128.444 10.241-.163 11.942-3.047 1.904-3.229-.087-9.723-3.53-14.968-3.692-5.623-8.65-9.361-12.77-7.156-2.935 1.57-5.58 4.94-7.524 8.523zM.02 22.304c-.166-3.24.686-6.119 2.13-8.551C4.557 9.697 8.613 6.876 12.353 5.67c7.07-2.279 12.043 1.33 14.55 6.538 1.99 4.14 2.715 9.476 2.159 14.459-.24 2.15-.76 4.157-2.84 5.494-2.789 1.79-7.083 1.878-11.298 1.177-5.76-.958-11.374-3.394-12.812-4.992C.678 26.748.157 24.96.02 22.304z" fill="#FFF" mask="url(#b)"/></g><path d="M18.301 21.38c1.445 4.354 4.759 7.593 8.102 6.963 1.008-.191 4.124-1.476 7.313-3.438 3.33-2.043 6.394-4.75 6.155-7.494-.209-2.396-6.053-4.98-11.68-5.794-4.78-.692-9.461-.184-10.4 2.905-.596 1.965-.26 4.543.51 6.857zm.965 5c-1.064-1.001-2.034-2.263-2.597-3.672-1.105-2.771-.885-6.528.99-9.326 2.646-3.947 6.695-4.79 10.272-4.222 5.087.81 10.119 4.45 12.226 7.22.54.707.833 1.435.843 2.167.035 2.385-2.628 4.884-5.894 6.825-3.378 2.006-7.995 3.676-10.37 3.627-1.864-.037-4.035-1.268-5.47-2.62zM55 29h3V8h-3zM76.347 29l-6.328-8.658c-1.181-1.612-1.82-2.503-2.269-3.292h-.064c.031.724.064 1.581.064 2.7V29H65V13h2.878l5.88 8.067c1.374 1.875 2.012 2.766 2.46 3.589h.065c-.03-.789-.065-1.58-.065-2.8V13H79v16h-2.653M91.287 29h-1.858L83 13h2.963l3.256 8.393c.418 1.08.872 2.247 1.17 3.298h.061c.319-1.034.744-2.086 1.235-3.298L95.07 13H98l-6.713 16M102 29h3V13h-3zM115.773 28.993c-2.146.08-3.595-.522-4.773-1.39l1.023-2.12c1.028.777 2.333 1.375 3.697 1.318 1.476-.059 2.556-.94 2.556-2.367 0-2.57-3.625-2.28-5.593-4.152-.863-.842-1.338-1.703-1.308-3.157.046-2.348 1.813-4.125 4.844-4.125 1.688 0 3.082.445 3.83.828V16.3c-1.127-.667-2.42-1.079-3.58-1.079-1.31 0-2.407.567-2.437 1.741-.041 1.588 1.422 1.911 3.079 2.558 1.895.74 3.953 1.738 3.887 4.811-.06 2.796-2.297 4.547-5.225 4.66M136.048 15.469h-4.546V29h-2.733V15.469H124V13h13l-.952 2.469M151 29l-6.07-16h-1.859L137 29h2.802l1.362-3.768h5.676L148.198 29H151zm-5.012-6.128h-3.974l1.19-3.303c.363-1.013.61-1.78.764-2.407h.062c.166.603.42 1.402.773 2.397l1.185 3.313z" fill="#FFF"/></g></svg>