<svg id="Layer_1" xmlns="http://www.w3.org/2000/svg" viewBox="0 0 123.8 52.8"><style>.st0{fill:#fff}</style><title>GP-Stack-Wht-BlckGP</title><path class="st0" d="M45.5 46.9c-.4 0-.9-.1-1.3-.4-.5-.5-.8-1.3-.7-2.1 0-1.6.8-2.6 2.1-2.6.5 0 1 .1 1.4.4v4.1c-.4.4-.9.5-1.5.6zm4.4-7h-2.8v.5c-.7-.5-1.6-.8-2.5-.7-1.9 0-3.9 1.5-4 4.8 0 2.9 1.5 4.7 4 4.6.9 0 1.8-.4 2.4-1v.2c0 .3 0 .7-.1 1-.3 1-1.2 1.4-2.4 1.3-.9 0-1.8-.3-2.6-.6h-.4v2.4c1.1.3 2.2.4 3.4.4 1.7 0 3.8-.3 4.6-2.4.3-.7.4-1.5.4-2.2v-8.3zM11.2 48.6c-1.5.7-3.1 1-4.7.9C2.6 49.5 0 47.1 0 43c-.1-3.4 2.5-6.3 6-6.4h.6c1.6-.1 3.1.2 4.6.9v2.8h-.3c-1-1-2.4-1.5-3.9-1.4-2.5.1-3.8 1.9-3.8 4.1s1 4.1 3.7 4.1c.4 0 .8-.1 1.1-.2v-2.3H6.3v-2.3h4.9v6.3zM29.7 44.6c0 1.8-.5 2.9-1.9 2.9s-1.9-1.1-1.9-2.9.5-2.9 1.9-2.9 1.9 1.1 1.9 2.9zm3 0c0-3.2-2-5-4.9-5s-4.9 1.7-4.9 5 2 4.9 4.9 4.9 4.9-1.7 4.9-4.9zM40.1 42.8h-.2c-.4-.1-.8-.2-1.3-.2-.6 0-1.3.2-1.8.5v6.1h-2.9v-9.3h2.9v1.4c.4-.5.8-.8 1.4-1.1.4-.2.8-.3 1.3-.3h.7v2.9h-.1zM79.9 40.8c-.1-3-2.1-3.9-4.7-3.9h-5v6h-3.6v2.3h3.6v4h3v-4h1.7c3.6 0 5.1-2 5-4.4zM74 42.9h-.8v-3.7h1.1c1.4 0 2.4.4 2.4 1.7 0 1.7-1.2 2-2.7 2zM95.1 49.5c-3.1 0-5.3-1.5-5.3-4.9s2.1-5 5.2-5c1.1 0 2.2.3 3.1.8v2.5h-.4c-.7-.7-1.6-1.2-2.6-1.1-1.4 0-2.4 1-2.4 2.8s.9 2.8 2.4 2.8c1 0 1.9-.4 2.5-1.1h.4v2.5c-.8.5-1.8.7-2.9.7zM102.5 49.3h-2.9V40h2.9v9.3zm0-10.7h-2.9v-2.3h2.9v2.3zM110.2 38.6h-.3c-.3-.2-.7-.3-1.1-.3-.3 0-.6.1-.8.3-.2.3-.3.7-.3 1.1v.3h2.5v2h-2.4v7.3h-2.9V42h-1.3v-2h1.3v-.5c-.1-.8.2-1.7.7-2.3.7-.6 1.6-.9 2.5-.8.7 0 1.4.1 2.1.2v2zM120.7 49.5c-3.1 0-5.3-1.5-5.3-4.9s2.1-5 5.2-5c1.1 0 2.2.3 3.1.8v2.5h-.4c-.7-.7-1.6-1.2-2.6-1.1-1.4 0-2.4 1-2.4 2.8s.9 2.8 2.4 2.8c1 0 1.9-.4 2.5-1.1h.4v2.5c-.8.5-1.8.7-2.9.7zM114.3 49.3h-2.9V40h2.9v9.3zm0-10.7h-2.9v-2.3h2.9v2.3zM54.7 49.3h-2.9V40h2.9v9.3zm0-10.7h-2.9v-2.3h2.9v2.3zM21.8 44.7c.1-1.2-.2-2.3-.8-3.3-.8-1.1-2.2-1.8-3.6-1.8-3.4 0-5 2.1-5 5.1 0 3.2 2.4 4.8 5.5 4.8 1.3 0 2.6-.3 3.7-.9v-2.2h-.3c-.9.7-2 1.1-3.1 1.1-2 0-2.8-1-2.9-2.1h6.5v-.7zm-6.5-1.1c0-.4.1-.9.4-1.2.4-.5 1-.8 1.6-.8 1.1 0 1.7.8 1.7 2h-3.7zM84.2 47.5c-1 .1-1.5-.2-1.5-1s.7-1.3 1.9-1.4c.5-.1.9-.1 1.3-.1v1.9c-.5.3-1.1.5-1.7.6zm1.7 1.8h2.8v-6.4c.1-1-.3-1.9-1.1-2.5-1-.6-2.2-.9-3.4-.8-1.1 0-2.3.2-3.4.5v2.2h.3c.8-.5 1.7-.7 2.6-.7.5 0 1.1 0 1.6.2.4.2.7.7.6 1.2-.8.1-1.6.1-2.4.2-2.6.4-3.6 1.4-3.6 3.2 0 1.6 1.2 2.9 2.8 2.9h.2c1.1.1 2.3-.3 3.1-1.1l-.1 1.1zM60.5 47.5c-1 .1-1.5-.2-1.5-1s.7-1.3 1.9-1.4c.5-.1.9-.1 1.3-.1v1.9c-.5.3-1.1.5-1.7.6zm1.7 1.8H65v-6.4c.1-1-.3-1.9-1.1-2.5-1.1-.6-2.3-.9-3.5-.8-1.2 0-2.4.2-3.5.5v2.2h.3c.8-.5 1.8-.7 2.7-.7.6 0 1.2 0 1.7.2.4.2.7.7.6 1.2-.8.1-1.6.1-2.4.2-2.6.4-3.6 1.4-3.6 3.2 0 1.6 1.2 2.9 2.8 2.9h.2c1.1.1 2.3-.3 3.1-1.1l-.1 1.1zM61.9 0L34 28.2h22.4c.8-.1 1.7.1 2.5.5.7.4 1.2 1.1 1.5 1.8l1.5 3.1 1.5-3.1c.3-.8.8-1.4 1.5-1.8.8-.4 1.6-.5 2.4-.5h22.4L61.9 0zm-.8 25.2c-1.8.6-3.8 1-5.7 1-5.5 0-7.8-2.8-7.8-6.3 0-4.1 3.2-6.5 8-6.5 1.9 0 3.8.3 5.6 1.1v2.9h-.4c-1.3-1.1-3-1.7-4.7-1.7-2.8 0-4.5 1.5-4.5 4 0 2.2 1.1 4.2 4.6 4.1.5 0 .9-.1 1.3-.2v-2.2h-2.9V19h6.6l-.1 6.2zM73 21.1c-1.2.6-2.6.9-3.9.8h-2.6v4h-3.7V13.6h6.4c1.3-.1 2.6.2 3.8.7 1.2.6 2 1.8 2 3.2.1 1.5-.7 2.9-2 3.6z"/><path class="st0" d="M71.2 17.7c0 .7-.4 1.3-1 1.6-.6.2-1.2.3-1.8.3h-1.8v-3.7h1.8c.6 0 1.2 0 1.8.2.6.3 1 .9 1 1.6z"/></svg>