<svg width="111" height="36" viewBox="0 0 111 36" xmlns="http://www.w3.org/2000/svg" xmlns:xlink="http://www.w3.org/1999/xlink"><title>KochAgronomicServices_white</title><defs><path id="a" d="M.018.126v35.816h110.878V.126H.018z"/></defs><g fill="none" fill-rule="evenodd"><path d="M39.74 7.519L46.537 0H40.19l-6.224 6.023V0H28v17h5.966v-3.651l1.25-1.152c.106.133 3.732 4.803 3.732 4.803H47s-7.171-9.367-7.26-9.481M98.934 0v6.081l-4.999-.007L93.926 0H88v17l5.961-.002V10.82h4.922v6.178L105 17V0h-6.066M60.562 0H50.438C48.542 0 47 1.91 47 4.258v8.48C47 15.089 48.542 17 50.438 17h10.124C62.456 17 64 15.09 64 12.738v-8.48C64 1.91 62.456 0 60.562 0m-2.376 5.192v6.822c0 .695-.458 1.26-1.02 1.26h-3.3c-.566 0-1.023-.565-1.023-1.26V5.192c0-.696.457-1.261 1.022-1.261h3.3c.563 0 1.021.565 1.021 1.26M85 6.173V4.881c.018-1.526-.499-3.054-1.347-3.987C83.12.31 82.5 0 81.865 0h-10.73C69.407 0 68 2.188 68 4.881v7.243C68 14.814 69.407 17 71.135 17h10.73C83.595 17 85 14.813 85 12.124v-1.961l-5.63.012-.13 1.63c-.064.696-.495 1.442-1.036 1.442h-3.28c-.572 0-1.036-.55-1.036-1.227V5.224c0-.676.464-1.226 1.035-1.226h3.281c.572 0 1.036.55 1.036 1.226v.95H85" fill="#FFF"/><g><mask id="b" fill="#fff"><use xlink:href="#a"/></mask><path d="M110.299 14.35l-.538 1.52-.538-1.52h-.6v2.123h.386V14.76l.585 1.712h.337l.579-1.712v1.712h.386V14.35h-.597zm-3.817 0v.357h.684v1.766h.417v-1.766h.686v-.356h-1.787zM10.7.126H0v16.377l10.62-.005S8.112 8.384 8.1 8.34L10.7.126" fill="#FFF" mask="url(#b)"/><path fill="#FFF" mask="url(#b)" d="M14.489.127L9.62 8.324l4.867 8.176H22V.127h-7.512M.018 25.087h105.164v-.947H.018zM3.242 29.286L1.645 33.7h3.213l-1.616-4.414zm-1.82 5.099l-.56 1.557H0l2.642-7.34h1.16l2.71 7.34H5.66l-.57-1.557H1.423z"/></g><path d="M13 32.5v1.498C13 35.615 12.235 36 10.586 36h-.794C7.852 36 7 35.66 7 33.53v-2.133C7 29.532 7.892 29 9.133 29h1.909c1.095 0 1.939.422 1.939 1.534v.533h-.824v-.395c0-.79-.33-.983-1.513-.983H9.627c-1.57 0-1.803.294-1.803 1.8v2.215c0 1.313.465 1.607 1.822 1.607h.775c1.445 0 1.755-.165 1.755-1.268v-.854H9.86V32.5H13M16.996 32.5c1.132-.037 1.27-.411 1.27-1.568 0-.897-.113-1.232-1.27-1.232h-2.262v2.8h2.262zM14.734 36H14v-7h2.987c1.4 0 2.013.42 2.013 2.015 0 .98-.104 1.708-1.132 1.849v.019c.726.055 1.045.503 1.045 1.26V36h-.734v-1.485c0-.886-.198-1.315-1.088-1.315h-2.357V36zM23.485 29.689c-1.283 0-1.619.284-1.619 1.626v2.452c0 1.37.499 1.535 1.62 1.544h1.028c1.121-.01 1.62-.175 1.62-1.544v-2.452c0-1.342-.336-1.626-1.62-1.626h-1.029zm1.03-.689c1.904.018 2.485.588 2.485 2.315v2.452C27 35.394 26.348 36 24.514 36h-1.029C21.652 36 21 35.394 21 33.767v-2.452c0-1.727.58-2.297 2.485-2.315h1.03zM33 36h-1.289l-3.904-6.347h-.019V36H27v-7h1.299l3.894 6.393h.019V29H33v7M37.486 29.689c-1.284 0-1.62.284-1.62 1.626v2.452c0 1.37.499 1.535 1.62 1.544h1.029c1.12-.01 1.62-.175 1.62-1.544v-2.452c0-1.342-.337-1.626-1.62-1.626h-1.03zM38.515 29c1.904.018 2.485.588 2.485 2.315v2.452C41 35.394 40.348 36 38.515 36h-1.03C35.653 36 35 35.394 35 33.767v-2.452c0-1.727.58-2.297 2.486-2.315h1.029zM46.412 36h-.814l-2.754-6.403h-.02V36H42v-7h1.426l2.57 5.992L48.575 29H50v7h-.823v-6.403h-.02L46.411 36M50 36h1v-7h-1zM55.188 36C53.813 36 53 35.21 53 33.832v-2.664C53 29.22 54.315 29 56.14 29h.703c1.575 0 2.056.625 2.056 1.984v.22h-.853v-.192c0-.965-.22-1.323-1.324-1.323h-.481c-1.766 0-2.388.193-2.388 1.452v1.891c0 1.572.07 2.28 1.495 2.28h1.014c1.363 0 1.785-.176 1.785-1.159v-.55H59v.643C59 35.826 57.896 36 56.39 36h-1.202M62.032 31.002c0-1.837.815-2.002 2.453-2.002 1.434 0 2.47.064 2.39 1.938h-.752c-.035-1.203-.256-1.249-1.665-1.249-1.47 0-1.673.193-1.673 1.148 0 1.313.602 1.204 1.842 1.24 1.576.093 2.373.047 2.373 1.911C67 35.936 66.115 36 64.44 36c-1.69 0-2.567-.211-2.425-2.205h.752c-.017 1.516.266 1.516 1.674 1.516 1.416 0 1.806 0 1.806-1.35 0-1.314-.567-1.094-1.78-1.195-1.31-.11-2.435.056-2.435-1.764M69.706 32.08h3.154v.653h-3.154V35.3H73v.7h-4v-7h4v.7h-3.294v2.38M76.997 32.5c1.131-.037 1.27-.411 1.27-1.568 0-.897-.113-1.232-1.27-1.232h-2.263v2.8h2.263zM74.734 36H74v-7h2.988c1.4 0 2.012.42 2.012 2.015 0 .98-.103 1.708-1.131 1.849v.019c.725.055 1.045.503 1.045 1.26V36h-.734v-1.485c0-.886-.199-1.315-1.089-1.315h-2.357V36zM86 29l-2.437 7h-1.109L80 29h.834l2.162 6.393h.026L85.166 29H86M87 36h1v-7h-1zM91.188 36C89.813 36 89 35.21 89 33.832v-2.664C89 29.22 90.315 29 92.14 29h.703c1.575 0 2.056.625 2.056 1.984v.22h-.853v-.192c0-.965-.22-1.323-1.324-1.323h-.481c-1.766 0-2.388.193-2.388 1.452v1.891c0 1.572.07 2.28 1.495 2.28h1.014c1.363 0 1.785-.176 1.785-1.159v-.55H95v.643C95 35.826 93.896 36 92.39 36h-1.202M95.706 32.08h3.154v.653h-3.154V35.3H99v.7h-4v-7h4v.7h-3.294v2.38M101.032 31.002c0-1.837.815-2.002 2.453-2.002 1.434 0 2.47.064 2.39 1.938h-.752c-.035-1.203-.256-1.249-1.665-1.249-1.47 0-1.673.193-1.673 1.148 0 1.313.602 1.204 1.842 1.24 1.576.093 2.373.047 2.373 1.911 0 1.948-.885 2.012-2.56 2.012-1.69 0-2.567-.211-2.425-2.205h.752c-.017 1.516.266 1.516 1.674 1.516 1.416 0 1.806 0 1.806-1.35 0-1.314-.567-1.094-1.78-1.195-1.31-.11-2.435.056-2.435-1.764" fill="#FFF"/></g></svg>