<svg xmlns="http://www.w3.org/2000/svg" viewBox="0 0 218 47"><style>.st0{fill:none}.st1,.st2{fill:#fff}.st2{display:none}</style><g id="SAFE_AREA"><path id="SAFE_AREA_1_" class="st0" d="M-32.6-32.7h283.5V79.9H-32.6z"/></g><g id="GUARDIAN-INDUSTRIES_x5F_White"><g id="Guardian_Industries_logo"><g id="INDUSTRIES"><path class="st1" d="M108.5 46.1h-.9v-8.5h.9v8.5zM119.1 46.1h-.9l-4-6.9v6.9h-.9v-8.5h.9l4 6.9v-6.9h.9v8.5zM123.9 37.6h3.8c.8 0 1.4.6 1.4 1.4v5.7c0 .8-.6 1.4-1.4 1.4h-3.8v-8.5zm.9 7.7h2.7c.5 0 .7-.3.7-.7v-5.4c0-.5-.3-.7-.7-.7h-2.7v6.8zM139.2 37.6v7.1c0 .8-.6 1.4-1.4 1.4h-2.5c-.8 0-1.4-.6-1.4-1.4v-7.1h.9v6.9c0 .5.3.7.7.7h2.1c.5 0 .7-.3.7-.7v-6.9h.9zM143.8 40.5V39c0-.8.6-1.4 1.4-1.4h2.4c.8 0 1.4.6 1.4 1.4v.9l-.9.2v-.9c0-.5-.3-.8-.7-.8h-1.9c-.5 0-.7.3-.7.8v1.2c0 .4.3.6.7.8 1.1.3 1.3.4 2.3.7.7.2 1.3.6 1.3 1.4v1.6c0 .8-.6 1.4-1.4 1.4h-2.4c-.8 0-1.4-.6-1.4-1.4V44l.9-.2v.9c0 .5.3.7.7.7h2c.5 0 .7-.3.7-.7v-1.3c0-.4-.2-.6-.7-.8-1-.3-1.3-.4-2.3-.6-.8-.3-1.4-.7-1.4-1.5zM152.8 37.6h6v.8h-2.5v7.7h-.9v-7.7h-2.5v-.8zM162.8 37.6h3.9c.8 0 1.4.6 1.4 1.4v2.1c0 .8-.5 1.3-1.2 1.4l1.7 3.6h-1l-1.7-3.6h-2.3v3.6h-.9v-8.5zm.9 4.1h2.8c.5 0 .7-.3.7-.7v-1.8c0-.5-.3-.7-.7-.7h-2.8v3.2zM173.9 46.1h-.9v-8.5h.9v8.5zM178.8 37.6h4.9v.8h-4v2.9h3.6v.8h-3.6v3.2h4v.8h-4.9v-8.5zM188.1 40.5V39c0-.8.6-1.4 1.4-1.4h2.4c.8 0 1.4.6 1.4 1.4v.9l-.9.2v-.9c0-.5-.3-.8-.7-.8h-1.9c-.5 0-.7.3-.7.8v1.2c0 .4.3.6.7.8 1.1.3 1.3.4 2.3.7.7.2 1.3.6 1.3 1.4v1.6c0 .8-.6 1.4-1.4 1.4h-2.4c-.8 0-1.4-.6-1.4-1.4V44l.9-.2v.9c0 .5.3.7.7.7h2c.5 0 .7-.3.7-.7v-1.3c0-.4-.2-.6-.7-.8-1-.3-1.3-.4-2.3-.6-.8-.3-1.4-.7-1.4-1.5z"/></g><g id="GUARDIAN"><path id="Old_R" class="st2" d="M76.7 30.5h2.9v2.8h-11v-2.8h2.9V15.1h-2.9v-2.8H80c6.3 0 8.4 2.7 8.4 5.3 0 2.5-1.6 4.6-6.5 5.1v.3c4 .3 5.3 2.1 5.4 4.6l.1 1.2c.1 1.4.3 1.7 1 1.7.4 0 .8-.4 1.3-1.9l1.9.6c-.6 2.5-1.9 4.4-4.7 4.4-3.3 0-4.7-1.7-4.7-5.2v-1.1c0-2.3-.6-3.3-2.9-3.3h-2.6v6.5zm2.8-8.9c2.5 0 3.5-1 3.5-3.4 0-2.2-.7-3.2-3.5-3.2h-2.9v6.6h2.9z"/><path class="st1" d="M148.2 17.3h-.3v13.1h2.6v2.8h-8v-2.8h2.5V15.1h-2.5v-2.8h8.7l8.8 14.6h.3V15.1H158v-2.8h7.5v2.8h-2.3v18.2H158l-9.8-16zM132.7 26.6h-7.1l-1.3 3.9h2.4v2.8H119v-2.8h2.1l6.7-18.2h5.2l6.6 18.2h2v2.8h-10.1v-2.8h2.4l-1.2-3.9zm-6.3-2.5h5.5l-2.6-7.8h-.1l-2.8 7.8zM107.6 30.5h2.7V15.1h-2.7v-2.8h10.6v2.8h-2.7v15.3h2.7v2.8h-10.6v-2.7z"/><path class="st1" d="M86.6 30.5h2.6V15.1h-2.6v-2.8h9.1c8.5 0 12.5 4.1 12.5 10.3 0 6.1-3.9 10.6-12.3 10.6h-9.3v-2.7zm9.6 0c4.6 0 6.3-2 6.3-7.8 0-5.5-1.8-7.6-6.6-7.6h-1.6v15.5h1.9z"/><path id="New_R" class="st1" d="M85.6 30.5c-.6 0-2.2.3-2.2-1.6l-.1-1.2c-.1-2.5-1.4-4.2-5.4-4.6v-.2c4.9-.6 6.5-2.6 6.5-5.1 0-2.6-2.1-5.3-8.4-5.3H65.4v2.8h2v15.3h-2v2.8h10.1v-2.8h-2.9v-6.3h2.6c2.3 0 2.9 1 2.9 3.3v1.1c0 3.5 1.2 5.1 4.7 5.1.7 0 2.4-.2 2.8-.3v-3zm-10.3-8.9h-2.8V15h2.9c2.7 0 3.5 1 3.5 3.2-.1 2.4-1.1 3.4-3.6 3.4z"/><path class="st1" d="M56.2 26.6H49l-1.3 3.9h2.4v2.8h-7.8v-2.8h2.3l6.7-18.2h5.2l6.6 18.2h1.4v2.8h-9.6v-2.8h2.6l-1.3-3.9zm-6.3-2.5h5.5l-2.6-7.8h-.1l-2.8 7.8zM24.9 26.1v-11h-2.5v-2.8h10.3v2.8H30v10.2c0 3.9 1.7 5.2 4.8 5.2 1.5 0 2.5-.4 3.4-1.2.9-.9 1.3-2.4 1.3-4.6v-9.6H37v-2.8h7.9v2.8h-2.4v10.8c0 4.2-2.7 7.8-8.5 7.8-6.1 0-9.1-2.9-9.1-7.6zM11.2 33.7c-5.8 0-10-4.4-10-10.9 0-6.3 4.8-11 10.2-11 2.6 0 4.5 1 5.8 2.6l.6-2.1h3V20h-3.5c-1.2-3.8-2.9-5.6-5.3-5.6-2.9 0-5.1 2.4-5.1 8.1 0 5.2 1.7 8.3 5.2 8.3 1.4 0 2.3-.6 2.9-1.4.7-.8 1-2.2 1-3.7v-.6h-2.4v-2.8h9.2v2.8h-1.7v8.1h-2.9l-1.1-2.9c-1.1 2-2.8 3.4-5.9 3.4z"/></g><path id="Knight" class="st1" d="M215.6 5c-1.4 0-.9.2-1.9.7l-.2.1c-.1-1.1-3.1-1.5-4.5-2 .2-.1.1-.5-.2-.7-4.4-2.2-9.2-2.7-14.5-1.5-.1 0-.6.1-.7.5-.1.2 0 .4-.2.6-3 .4-5.9.5-8.8-.5-.1 0-.2.1-.1.1 1.9 1.1 3.8 1.6 5.8 1.9-2.4.2-4.7.1-7-.6-.1 0-.1.1-.1.1 2.9 1.5 5.7 2 8.6 2.1.5 0 1.3 0 1.7-.4.2-.2.2-.7.4-.9 3.4-.5 6-.2 8.6 1-.1.1-.2.2-.3.2-.4.3-.3 1 .2 1.1 1 .2 1.5.6 1.7 1.2-5.8 1.5-12.2 3.1-12.3 3.1-.9.2-.8-.1-1.4-.7-.4-.4-1-.6-1.4-1-.2-.2-.4-.5-.6-.8-.1-.1-.3-.3-.4-.3-.5-.2-.3.3-.5.8-.1.2-.6.9-.9 1.3-.4.6-.6 1.3-1 1.8-.5.7-1.5 1.1-2.5 1-.4 0-.5-.1-.7-.6-.1-.3-.3-.9-.4-1.1-.4-.6-1-.4-1-.7 0-.5.1-.2.5-.3.2-.1.1-.4.1-.8 0-.2.3 0 .2-.3-.1-.3-.2-.7-.3-1-.3-.6-.9-.7-1.5-.6-.5.1-.9.5-1 .9-.2.5 0 1.1.4 1.6.5.6-.7.8-1.7 1.6l-.2.1c-.8.7-.9 1.8-1.2 2.5-.2.5-.3.7-.7.8-.9.4-6.2 1.5-6.7 1.8-.1 0-.1.1-.2.2-.1.2-.2.6-.2.6s2.8-.6 4.7-1.2c1.5-.4 2.9-.8 3.4-.8.4 0 1.6 0 1.7.4.1.2-.7 1-1 1-.2.1-.5 0-.8.1-.3.1-.5.2-.8.3-.2.1-.4.1-.6.1-.5.2-1.3 1-1.8 1.1-.4.1-.9-.1-1.5-.1h-.4c-1.5.2-1.8 2.9-2.1 4.4-.1.4-.2.9-.5 1.3-.2.4-.6.8-.7 1.1 0 .2 0 .2.1.5v.1s-.5.2-.6.3c-.2 0-.2 0-.2.1 0 .7 1.5 1 1.8 1 .3 0 .4 0 .6-.1.2-.1.4-.3.4-.3 1.1-1.1 1.1-2.8 1.5-4.6.1-.3.5-2 1-2.1.3 0 .5.6.6 1 .2.7.7 1.2.9 1.8.1.3.2 1.2.1 1.4-.2.6-.9 1.2-1.3 1.9-.2.3-.1.3-.2.7 0 .5-1.6 4-1.6 4.4v.3c.1.3.2.5.3.7-.9.1-1.5.2-1.5.2 0 .3 4.9.5 10.9.5s10.9-.2 10.9-.5c0-.1-1.1-.2-3-.3.1 0 .3-.1.4-.2.5-.3.1-.5-.2-1-.3-.5-.3-2.5-.2-2.8 0-.4.8-4.2 1-4.4.5-.6 2-1.1 2.9-1 .3 0 .4.2.6.6.2.5-.3.7-.9 1-.5.3-.5 1-.2 1.7.2.5.6.1 1.2-.3.7-.6 1-.7 1.1-1.6 0-.6-.2-2-.4-2.4-.2-.3-.7-.4-1.1-.4-.9 0-1.5.3-2.1-.1-.4-.3-.4-.4-.2-.7.1-.2.1-.4.2-.6.2-1 .1-1.4-.3-2.5-.1-.2-1.6-2.6-1.4-3.4.1-.4.5-.8.7-1 .8-.4 1.1 0 1.9.2.4.1.9.1 1.2-.1.3-.3.5-1 .2-1.3-.1-.1-.2-.1-.3-.3-.2-.2-.4-.6-.4-.6s19.7-5.3 21.2-5.6c1.2-.2.6.3 2-.4.2-.1 1.3-.8 1.3-.8s-.8.4-1.4.4zm-32.1 9.4c.1-.1.5-.3.9-.3.2 0 .7-.1.8 0v.4c-.1.3-.4.9-.6 1.1-.1.1-.4.3-.5.2 0 0-.1 0-.1-.1-.4-.2-.7-1.1-.5-1.3zm-2.3 18.5c-2.8 0-5.4 0-7.3.1-.1-.1-.2-.3-.4-.5-.1-.2-.2-1.5-.2-1.8.1-.5.3-.9.5-1.3.4-.7 1.9-2.5 2.8-3.1.5-.3 1.1-.7 1.2-.2 0 .1-.2.5-.4.8-.4.6-.7 1.1-.5 1.5.1.1 1 .7 1.4.9.7.3 1.5.8 1.6.9.1.2.1.3 0 .7-.1.7.2.7.9.9l.6.2s0-.1.1-.2c.1-.2.1-.3.1-.4.1-1 .1-1.6-.7-2.1-.4-.3-1.4-.6-1.7-1-.4-.8.2-1.5.7-2.1.3-.3.9-1.1 1.2-1.3.5-.2.6 0 1.1.1.2 0 .5-.1.7 0 .2 0 .4.1.7.2.6.3 1.6.6 1.6.6s.4-.4.7-.6h.2c.2 0 .6-.2 1.1-.4h.1c.1.1.3.1.3.2.3.3 0 2.5 0 3.1 0 1.1.2 1.6-.1 2.7-.1.5-.2.6-.1 1.2s.3 1 .7 1.1c-1.6-.2-4.1-.2-6.9-.2z"/></g><path class="st1" d="M166.6 13.7c0-.3.1-.5.2-.8s.2-.4.4-.6c.2-.2.4-.3.6-.4s.5-.1.8-.1c.3 0 .5 0 .8.1s.4.2.6.4c.2.2.3.4.4.6s.2.5.2.8c0 .3-.1.5-.2.8-.1.2-.2.4-.4.6-.2.2-.4.3-.6.4s-.5.1-.8.1c-.3 0-.5 0-.8-.1s-.4-.2-.6-.4c-.2-.2-.3-.4-.4-.6s-.2-.5-.2-.8zm.3 0c0 .2 0 .4.1.6.1.2.2.4.4.5.1.1.3.3.5.3.2.1.4.1.6.1.2 0 .4 0 .6-.1.2-.1.4-.2.5-.4.1-.1.3-.3.4-.5.1-.2.1-.4.1-.7 0-.2 0-.5-.1-.7-.1-.2-.2-.4-.4-.5-.1-.1-.3-.3-.5-.3-.2-.1-.4-.1-.6-.1-.2 0-.4 0-.6.1-.2.1-.4.2-.5.4-.1.1-.3.3-.4.5 0 .4-.1.6-.1.8zm.9-1.1h.8c.3 0 .5.1.6.2.1.1.2.3.2.5s-.1.3-.2.4c-.1.1-.3.1-.4.2l.6 1h-.3l-.6-1h-.4v1h-.3v-2.3zm.3 1h.8c.1 0 .1-.1.1-.1v-.2-.2l-.1-.1h-.9v.6z"/></g></svg>