<?xml version="1.0" encoding="utf-8"?>
<!-- Generator: Adobe Illustrator 19.1.0, SVG Export Plug-In . SVG Version: 6.00 Build 0)  -->
<!DOCTYPE svg PUBLIC "-//W3C//DTD SVG 1.1//EN" "http://www.w3.org/Graphics/SVG/1.1/DTD/svg11.dtd">
<svg version="1.1" xmlns="http://www.w3.org/2000/svg" xmlns:xlink="http://www.w3.org/1999/xlink" x="0px" y="0px"
	 viewBox="-18 -13.1 47.8 25.7" style="enable-background:new -18 -13.1 47.8 25.7;" xml:space="preserve">
<style type="text/css">
	.st0{display:none;}
	.st1{display:inline;}
	.st2{clip-path:url(#SVGID_2_);fill:#FFFFFF;}
	.st3{clip-path:url(#SVGID_2_);fill:none;stroke:#00A8E0;stroke-linecap:round;stroke-linejoin:round;stroke-miterlimit:10;}
	.st4{clip-path:url(#SVGID_2_);fill:none;stroke:#00A8E0;stroke-linecap:round;stroke-miterlimit:10;}
	.st5{clip-path:url(#SVGID_4_);fill:none;stroke:#00A8E0;stroke-linecap:round;stroke-linejoin:round;stroke-miterlimit:10;}
	.st6{fill:#00A8E0;}
	.st7{fill:#26A9E0;}
</style>
<g id="Layer_1" class="st0">
	<g class="st1">
		<defs>
			<rect id="SVGID_1_" x="-17" y="-30.9" width="34.4" height="45.4"/>
		</defs>
		<clipPath id="SVGID_2_">
			<use xlink:href="#SVGID_1_"  style="overflow:visible;"/>
		</clipPath>
		<path class="st2" d="M-9.9-1.8L-16.5,8l6.7-0.3l3.7,6.3L1.3,2.1c-0.2,0-0.4,0-0.6,0C-3.4,2.1-7.1,0.6-9.9-1.8"/>
		<path class="st3" d="M-9.9-1.8L-16.5,8l6.7-0.3l3.7,6.3L1.3,2.1c-0.2,0-0.4,0-0.6,0C-3.4,2.1-7.1,0.6-9.9-1.8z"/>
		<path class="st2" d="M-1,2l7.6,12l3.7-6.3L16.9,8l-5.6-9.9c-2.8,2.5-6.5,4-10.6,4C0.1,2.1-0.5,2.1-1,2"/>
		<path class="st3" d="M-1,2l7.6,12l3.7-6.3L16.9,8l-5.6-9.9c-2.8,2.5-6.5,4-10.6,4C0.1,2.1-0.5,2.1-1,2z"/>
		<circle class="st4" cx="0.7" cy="-14.1" r="16.2"/>
		<circle class="st3" cx="0.7" cy="-14.1" r="11.6"/>
	</g>
</g>
<g id="Layer_2" class="st0">
	<g class="st1">
		<defs>
			<rect id="SVGID_3_" x="-16.9" y="-37" width="45.8" height="48.9"/>
		</defs>
		<clipPath id="SVGID_4_">
			<use xlink:href="#SVGID_3_"  style="overflow:visible;"/>
		</clipPath>
		<path class="st5" d="M-7.5,11.4c0.1-1,0.1-2.1,0.1-3.1c0-9.7-3.4-18.6-9.1-25.5c9,6.5,15.1,16.8,16.2,28.6 M3.2,11.5
			c0-0.9-0.1-1.8-0.1-2.7c0-18.4,8.4-34.7,21.5-45.3C15.6-26.4,10.1-13,10.1,1.8c0,3.3,0.3,6.6,0.8,9.7 M10.3,6
			c1.9-10,7.9-18.6,16.1-23.8C20.5-10.9,17-1.9,17,7.9c0,1.2,0.1,2.4,0.2,3.6 M17.1,10.8c0.6-6.9,5.1-12.7,11.3-15.1
			c-4.4,3.5-7.3,9-7.5,15.1"/>
	</g>
</g>
<g id="Layer_3">
	<path class="st6" d="M5.8,2.9c-0.1,0-0.1,0-0.2,0L2.8,1.4L0,2.9C-0.1,3-0.3,3-0.4,2.9c-0.1-0.1-0.2-0.3-0.2-0.4l0.5-3.1l-2.3-2.2
		C-2.4-3-2.5-3.1-2.4-3.3c0-0.2,0.2-0.3,0.3-0.3L1-4l1.4-2.8c0.1-0.3,0.6-0.3,0.8,0L4.6-4l3.1,0.5C7.9-3.6,8-3.5,8-3.3
		c0,0.2,0,0.3-0.1,0.4L5.7-0.7l0.5,3.1c0,0.2,0,0.3-0.2,0.4C6,2.9,5.9,2.9,5.8,2.9z M-1.1-2.9l1.8,1.8C0.8-1,0.8-0.9,0.8-0.7
		L0.4,1.7l2.2-1.2c0.1-0.1,0.3-0.1,0.4,0l2.2,1.2L4.8-0.7c0-0.1,0-0.3,0.1-0.4l1.8-1.8L4.2-3.2C4.1-3.2,4-3.3,3.9-3.5L2.8-5.7
		L1.7-3.5C1.6-3.3,1.5-3.2,1.4-3.2L-1.1-2.9z"/>
	<g>
		<path class="st7" d="M29.1,11.9h-45.6c-0.3,0-0.5-0.2-0.5-0.5v-5c0-10.4,8.9-18.9,19.8-18.9c10.7,0,19.6,8.3,19.8,18.5
			c5.9,1.3,6.9,5.1,7,5.3c0,0.2,0,0.3-0.1,0.4C29.4,11.8,29.2,11.9,29.1,11.9z M-16,10.9h44.3c-0.6-1.1-2.1-3.2-6.3-4
			c-0.3-0.1-0.4-0.3-0.4-0.6c0,0,0,0,0,0l0-0.2C21.4-3.6,13-11.5,2.8-11.5C-7.6-11.5-16-3.5-16,6.4v0.3c0,0,0,0,0,0h33.5
			c0.3,0,0.5,0.2,0.5,0.5s-0.2,0.5-0.5,0.5H-16c0,0,0,0,0,0V10.9z"/>
	</g>
</g>
</svg>
