<?xml version="1.0" encoding="utf-8"?>
<!-- Generator: Adobe Illustrator 19.1.0, SVG Export Plug-In . SVG Version: 6.00 Build 0)  -->
<!DOCTYPE svg PUBLIC "-//W3C//DTD SVG 1.1//EN" "http://www.w3.org/Graphics/SVG/1.1/DTD/svg11.dtd">
<svg version="1.1" xmlns="http://www.w3.org/2000/svg" xmlns:xlink="http://www.w3.org/1999/xlink" x="0px" y="0px"
	 viewBox="0 0 75 88.7" style="enable-background:new 0 0 75 88.7;" xml:space="preserve">
<style type="text/css">
	.st0{fill:#FFFFFF;}
	.st1{fill:#ED1C24;}
	.st2{display:none;}
	.st3{display:inline;}
	.st4{fill:#82BC00;}
	.st5{display:inline;fill-rule:evenodd;clip-rule:evenodd;fill:#0A95CE;}
	.st6{display:inline;fill-rule:evenodd;clip-rule:evenodd;fill:#262829;}
</style>
<g id="Layer_1">
	<g>
		<circle class="st0" cx="50.9" cy="84.7" r="2.6"/>
		<path class="st0" d="M3.9,5.1h1.9c0,0,9.1,3.7,15,3.2c5.9-0.5,9-1.2,16.5-7.3c0,0,8.2,7.6,16.6,7.3c8.4-0.2,13.7-2.7,16.2-3.6
			c0,0,1.9,0.2,1.4,1.9C71,8.4,67.2,16,71,36.5c3.8,20.5,3.2,28-6.5,35.9c-9.7,8-14.6,3.6-26.9,14.9c-3-1-7-7.1-18.8-10.1
			C7.9,73.5,1.4,65.9,1.6,53.3c0.2-9.7,2.2-18,2.9-22.1c0.7-4.1,2.4-10-1.1-24.9L3.9,5.1z"/>
		<path class="st1" d="M50.9,81.9c-1.5,0-2.8,1.2-2.8,2.8c0,1.6,1.3,2.8,2.8,2.8c1.5,0,2.8-1.2,2.8-2.8
			C53.7,83.1,52.4,81.9,50.9,81.9z M50.9,87c-1.2,0-2.2-1-2.2-2.3c0-1.3,1-2.3,2.2-2.3c1.2,0,2.2,1,2.2,2.3C53.1,86,52.2,87,50.9,87
			z M52.2,84c0-0.6-0.4-0.9-1.1-0.9h-1.2v3.2h0.5v-1.4h0.5l0.8,1.4h0.5l-0.9-1.4C51.8,84.8,52.2,84.6,52.2,84z M50.3,84.5v-1H51
			c0.3,0,0.7,0.1,0.7,0.5c0,0.5-0.4,0.5-0.8,0.5H50.3z M71.7,37.3c-0.9-5.4-1.9-10.9-1.9-17.5c0-5.9,0.9-8.8,1.5-10.7
			c0.3-1,0.6-1.7,0.6-2.6c0-2-1.2-2.2-1.7-2.2c-0.9,0-2.1,0.5-3.6,1c-2.6,1-6.2,2.4-10.9,2.4c-9.7,0-13.8-3.8-16-5.8
			c-1-0.9-1.6-1.5-2.3-1.5c-0.7,0-1.4,0.6-2.3,1.5c-2.2,2-6.3,5.8-16,5.8c-4.7,0-8.3-1.4-10.9-2.4c-1.5-0.6-2.7-1-3.6-1
			C4,4.4,2.8,4.6,2.8,6.6c0,0.8,0.2,1.6,0.6,2.6c0.6,1.9,1.5,4.8,1.5,10.7C4.9,26.4,4,32,3,37.3c-0.9,5.4-1.9,11-1.9,17.8
			c0,11.5,6.5,18.9,21.2,23.8c7.5,2.5,10.9,5.7,12.8,7.4c1,0.9,1.6,1.5,2.3,1.5h0c0.7,0,1.3-0.6,2.3-1.5c1.8-1.7,5.3-4.9,12.8-7.4
			C67.1,74,73.7,66.6,73.7,55.1C73.7,48.3,72.7,42.7,71.7,37.3z M52.2,77.9c-7.7,2.6-11.2,5.9-13.1,7.7c-0.7,0.7-1.3,1.2-1.6,1.2
			c-0.3,0-0.9-0.6-1.6-1.2c-1.9-1.8-5.4-5.1-13.1-7.7C8.3,73.1,2.2,66.3,2.2,55.1c0-6.7,1-12.2,1.9-17.6C5,32.1,6,26.5,6,19.8
			c0-6.1-1-9-1.6-11C4.1,7.9,3.9,7.2,3.9,6.6c0-1.1,0.4-1.1,0.7-1.1c0.7,0,1.8,0.4,3.2,1c2.7,1,6.4,2.5,11.3,2.5
			c10.1,0,14.4-4,16.8-6.1c0.7-0.6,1.3-1.2,1.6-1.2c0.3,0,0.9,0.6,1.6,1.2c2.3,2.1,6.6,6.1,16.8,6.1c4.9,0,8.6-1.4,11.3-2.5
			c1.4-0.5,2.5-1,3.2-1c0.2,0,0.7,0,0.7,1.1c0,0.6-0.2,1.3-0.5,2.2c-0.6,2-1.6,4.9-1.6,11c0,6.7,1,12.3,1.9,17.7
			c0.9,5.4,1.9,10.9,1.9,17.6C72.6,66.3,66.5,73.1,52.2,77.9z M37.6,42.3l1.9-1.1c-0.4-1.7-0.9-3.9-0.9-3.9S38,39.9,37.6,42.3z
			 M41.5,54.4c-0.6,0-1.1,0.3-1.1,0.3s0,3.4,0,6.6c0.1,0,0.2,0,0.3,0c0.8,0,2.4-1.5,2.4-4.3C43.1,54.7,42.4,54.4,41.5,54.4z
			 M69.7,37.7c-1-5.4-1.9-11.1-1.9-17.9c0-6.2,1-9.3,1.7-11.3c0.3-0.8,0.5-1.4,0.5-1.9c0,0,0,0,0,0c-0.6,0.1-1.5,0.5-2.4,0.8
			C64.6,8.5,60.9,10,55.8,10c-10.5,0-15-4.1-17.5-6.4C38,3.4,37.6,3,37.4,2.8c-0.3,0.2-0.6,0.5-0.9,0.8C34.1,5.8,29.5,10,19,10
			c-5.1,0-8.9-1.5-11.6-2.5C6.4,7.1,5.6,6.7,4.9,6.6v0c0,0.5,0.2,1.1,0.5,1.9c0.7,2,1.7,5.1,1.7,11.3c0,6.8-1,12.4-1.9,17.9
			C4.2,43,3.2,48.5,3.2,55.1c0,10.6,5.9,17.2,19.7,21.8c7.9,2.7,11.6,6.1,13.5,7.9c0.3,0.3,0.6,0.6,0.9,0.8c0.3-0.2,0.6-0.6,0.9-0.8
			c2-1.8,5.6-5.2,13.5-7.9c13.8-4.7,19.7-11.2,19.7-21.8C71.6,48.5,70.6,43,69.7,37.7z M51.3,23.8c-0.2,0.4-0.4,1-0.4,1.9v11.9
			c0,0.9,0.4,1.4,0.7,1.6l-3.4,2.1c0.5-1.1,0.6-1.8,0.6-2.5V27.4c0-0.8-0.4-1.3-0.8-1.5L51.3,23.8z M46.3,42.3l-3.1,1.9
			c0,0.1,0,0,0,0c0.1-0.4,0.4-1.4,0.4-2.4V31.3c0-1.7-0.8-1.2-1.3-0.3c-0.5,0.9-1.1,3-1.1,3v-4.2l6.2-3.7v5.1c0,0-0.8-1.8-1.2-2.2
			c-0.4-0.4-0.9-0.1-0.9,0.5v10.8C45.3,41.7,45.9,42.2,46.3,42.3z M39.8,42.8c0,0,0-0.1,0-0.2l-2.5,1.4c-0.1,0.8-0.3,1.4-0.3,1.7
			c-0.2,1.1,0.4,1.7,0.7,1.9l-3.3,2c0,0,0.9-2.2,1.3-4.2c0.4-2,3.1-16.1,3.1-16.1s2.7,11.5,3.1,13.3c0.3,1.2,0.7,1.6,1,1.7
			c0,0,0,0,0,0L40,46.3C40.1,45.8,40.3,44.5,39.8,42.8z M40,9.1v3.1c0,0-0.9-1.2-2.2-0.6c-1.1,0.5-1.2,0.7-1.2,0.7s0,2.1,0,4.5
			c0.2-0.2,0.5-0.4,1.3-0.8c0.9-0.4,1.4-0.3,2.5-0.8c0.9-0.4,1.5-1.6,1.5-1.6s0.3,2.2-1.3,3c-1.4,0.7-2.2,0.4-3.2,0.8
			c-0.3,0.2-0.6,0.4-0.8,0.6v4.9c0,1,0.3,1.3,1.6,0.2c2.1-1.7,3-4.3,3-4.3l0,3.4l-7,4.3c0.2-0.5,0.6-1.3,0.6-2.2v-9.5
			c0-1.1-0.9-1.4-1.5-1.5L40,9.1z M33,34.9l3.3-2c0,0-0.6,1.4-1.1,4.4c-0.5,2.5-2.7,15-2.7,15s-3.1-12-3.3-12.9
			c-0.2-0.9-0.8-1.3-1.1-1.5l3.2-1.9c-0.2,0.6-0.3,1.6,0,2.9c0.5,2.1,1.4,5.9,1.4,5.9s1.2-6.7,1.3-8.3C33.9,35.6,33.4,35.1,33,34.9z
			 M27.5,16.7c-0.3,0.5-0.6,1.2-0.6,1.9v3.5l3-1.6v-2.7c0-0.9-0.7-1.6-1.1-2l3-1.8c-0.2,0.4-0.4,1-0.4,1.4v10.3
			c0,0.8,0.5,1.3,0.9,1.7l-3,1.8c0.2-0.5,0.5-1.5,0.5-2.8v-4.4l-3,1.6v4.7c0,0.9,0.6,1.5,0.9,1.8l-3.6,2.2c0.3-0.5,0.8-1.6,0.8-2.8
			v-9.3c0-1.1-1.2-1.4-1.2-1.4L27.5,16.7z M16.2,21.6l6.5-4v5c0,0-0.8-1.5-1.3-2c-0.6-0.6-0.7,0-0.7,1.3V32c0,1.2,0.8,1.7,1.2,1.9
			l-3.6,2.2c0,0,0.6-1.5,0.6-2.4V22.2c0-0.7-0.7-0.7-1.1,0.4c-0.5,1.1-1.5,4.5-1.5,4.5V21.6z M14.7,50.2c0.2,0.6,0.5,1.6,0.5,1.6
			L13,50.2c1-1.8-0.7-2.8-1.6-2.8c-0.9,0-2.2,0.4-2.2,1.9c0,1.9,1.7,3.2,3.3,4.6c1.4,1.2,2.7,2.6,2.7,5.3c0,3.2-2.4,5.6-4.8,5.6
			s-3.9-2.2-3.9-3.5c0-1.4,0.9-2.6,2.4-2.6c1.8,0,1.9,2,1.9,2s-0.7-0.4-1.1-0.4c-0.4,0-0.8,0.3-0.8,0.9c0,0.6,0.8,1.6,1.9,1.6
			c1.2,0,2.3-1.2,2.3-2.6c0-1.9-1.6-3.2-3.1-4.7c-1.5-1.4-2.9-3-2.9-5.4c0-2.8,2.3-4,3.7-4c1.4,0,1.8,0.7,2.6,0.7
			c1.1,0,1.9-1.2,1.9-1.2s-0.5,1.4-0.7,2.1C14.4,48.4,14.5,49.7,14.7,50.2z M21.1,58.3c0.2-0.6,0.4-1.7,0.1-3
			c-0.1-0.3-0.2-0.6-0.2-1l-2.4,1.4c-0.1,0.9-0.2,1.7-0.3,2.1c-0.1,1.1,0.7,1.4,1.4,1.4l-4.1,2.6c0,0,0.9-2.2,1.2-4.5
			c0.3-2.3,2.9-16.9,2.9-16.9s3,12.6,3.4,14.1c0.3,1.2,0.7,1.7,0.9,1.9L21.1,58.3z M23.5,40.7l3.7-2.2c-0.3,0.6-0.7,1.8-0.7,3.4
			v11.2c0,0.5,0.7,0.4,1.4-0.6c1-1.6,1.9-4.5,1.9-4.5v4.8l-5.2,3.3V42.7C24.5,40.8,23.5,40.7,23.5,40.7z M34.8,72.6
			c0.1-0.6,0.3-1.8,0-3.1c-0.1-0.3-0.2-0.8-0.3-1.3l-3,1.9c-0.2,1.2-0.3,2.2-0.4,2.5c-0.1,0.9,0.6,1.4,1,1.6L27.9,77
			c0,0,1.2-2,1.6-4.2c0.4-2.1,3.5-19.1,3.5-19.1s3.2,13,3.6,14.8c0.3,1.4,0.8,2,1.1,2.2L34.8,72.6z M46,70c-1.1,0-2.5-1.1-3.1-2.5
			c-0.5-1.3-1.8-4-2.1-4.6c-0.1,0-0.1,0-0.2,0c-0.1,0-0.1,0-0.2,0v4c0,0.8,0.5,1.3,0.9,1.5l-3.1,2c0.3-1,0.2-1,0.2-2.4V56.8
			c0-1.5-1.3-1.4-1.3-1.4s1.1-0.7,2.1-1.3c1-0.7,1.9-1.1,3-1.1c1.7,0,2.9,1.2,2.9,3.6c0,2.5-1.5,4.4-2.8,5.5c0.3,0.6,1.3,2.7,2,3.9
			c0.7,1.5,1.6,2.4,2.6,2.4c1,0,1.7-1,1.7-1S48,70,46,70z M51.5,61.9c0.3-0.7,0.7-2,0.7-3c0-1.4,0-7.3,0-7.3l-1.9,6.7l-2-4
			c0,0,0,6.2,0,7.5c0,0.9,0.6,1.4,1,1.6l-3.6,2.3c0.3-0.6,0.7-1.6,0.7-2.8V52.5c0-1.9-1.7-2-1.7-2l2.8-1.8l2.5,4.6l2-7.5l2.3-1.4
			c-0.2,0.5-0.5,1.3-0.5,2.1v11.5c0,1.1,0.4,1.6,0.7,1.8L51.5,61.9z M51.6,29.1c0-5,2.1-8,4-8c2,0,3,2.8,3,7.2
			c0,4.4-1.6,8.8-3.9,8.8C52.8,37.1,51.6,34,51.6,29.1z M63.1,42.6c-0.4,1.2-2.4,6.7-2.4,6.7s0,2.2,0,4.1c0,1.9,0.9,2,0.9,2
			l-3.6,2.3c0.3-0.6,0.7-1.6,0.7-2.5c0-1.4,0-5.3,0-5.3s-1.9-4.1-2.3-5c-0.3-0.6-0.9-0.8-1.4-0.9l3.3-2.1c0,0-0.4,1.6,0,2.7
			c0.3,0.9,1.4,3.1,1.4,3.1s0.8-2,1.3-3.3c0.5-1.3,1.1-2.6,1.1-3.8c0-1.3-0.9-1.7-0.9-1.7s0.9-1,1.3-1s1.3,1.1,1.3,2
			C63.9,40.8,63.5,41.4,63.1,42.6z M65.3,17.7c0,1.3,0,14.4,0,14.4H65L61.1,24c0,0,0,4.6,0,6.4c0,1.8,0.9,2.1,0.9,2.1l-3,1.9
			c0.3-0.5,0.6-1.5,0.6-2.8V20.8c0-1-0.7-1.2-1.2-1.2l2.5-1.5l2.4,5.2c0,0,0.3-5.6,0.3-6.9s-1-1.8-1-1.8s0.8-0.7,1.2-0.7
			c0.4,0,0.9,0.1,1.3,0.9C65.6,15.6,65.3,16.4,65.3,17.7z M55.4,22.7c-1,0-2,2.5-2,6.5c0,4,0.7,6.5,1.5,6.5c1.1,0,2-4,2-7.1
			C56.9,25,56.6,22.7,55.4,22.7z M31.8,68.4l2.4-1.5c-0.5-2.4-1.2-5.4-1.2-5.4S32.3,65.2,31.8,68.4z M18.8,53.7l1.7-1
			c-0.5-2-0.9-4.1-0.9-4.1S19.2,51.2,18.8,53.7z"/>
	</g>
</g>
<g id="Layer_3" class="st2">
	<g class="st3">
		<g>
			<path d="M299.2,56.6c-0.5-0.5-1.3-0.8-2-0.8c-0.8,0-1.5,0.3-2,0.8l-18.8,18.8c-1.1,1.1-1.1,2.9,0,4.1c1.1,1.1,2.9,1.1,4.1,0
				l18.8-18.8C300.3,59.5,300.3,57.7,299.2,56.6z"/>
			<path class="st4" d="M330,69.9L330,69.9c-1.1-1.1-2.9-1.1-4.1,0c0,0-25.2,25.2-25.6,25.6c-0.3-0.3-3-3-3.3-3.3
				c0.4-0.4,21.9-21.9,21.9-21.9c0.6-0.6,0.8-1.3,0.8-2c0-0.7-0.3-1.5-0.8-2c-1.1-1.1-2.9-1.1-4.1,0c0,0-21.6,21.6-21.9,21.9
				c-0.3-0.3-3-3-3.3-3.3c0.4-0.4,27.4-27.4,27.4-27.4c0.6-0.6,0.8-1.3,0.8-2c0-0.7-0.3-1.5-0.8-2c-0.5-0.5-1.3-0.8-2-0.8
				c-0.8,0-1.5,0.3-2,0.8l-29.4,29.4c-1.1,1.1-1.1,2.9,0,4.1l14.7,14.7c0.5,0.5,1.3,0.8,2,0.8c0.8,0,1.5-0.3,2-0.8L330,73.9
				C331.2,72.8,331.2,71,330,69.9z"/>
			<path d="M335.6,79.1c-0.5-0.5-1.3-0.8-2-0.8c-0.8,0-1.5,0.3-2,0.8l-25.8,25.8c-1.1,1.1-1.1,2.9,0,4.1c0.5,0.5,1.3,0.8,2,0.8
				c0.8,0,1.5-0.3,2-0.8l25.8-25.8C336.7,82,336.7,80.2,335.6,79.1z"/>
		</g>
		<g>
			<polygon points="228.4,121.8 228.3,121.9 226.2,128 224.2,121.9 224.1,121.8 222.2,121.8 222.4,122.1 225.3,130.4 223,136.9 
				222.9,137.2 224.7,137.2 224.7,137 227.1,130.5 230.1,122.1 230.2,121.8 			"/>
			<path d="M231.7,121.8v8.8h7.8v-8.8H231.7z M233.4,123.4h4.4v5.7h-4.4V123.4z"/>
			<polygon points="247.9,121.8 247.9,129 244,129 244,121.8 242.3,121.8 242.3,130.6 249.6,130.6 249.6,121.8 			"/>
			<path d="M257.2,128.8c-0.3,0.2-0.9,0.5-1.5,0.5c-0.7,0-1.2-0.3-1.2-1.5v-4.5h2.7l0.1-0.1l0.4-1l0.1-0.3h-3.2v-3.3h-1.7v3.3h-1.4
				l-0.1,0.1l-0.4,1l-0.1,0.3h1.9v4.5c0,2.8,1.7,3.2,2.7,3.2c1.1,0,1.8-0.4,2.1-0.6l0,0l0.1-0.1c0,0,0-0.1,0-0.1v-1.5l-0.3,0.2
				C257.3,128.7,257.2,128.8,257.2,128.8z"/>
			<path d="M261,121.8c0-0.4,0-6.6,0-6.6h-1.7v15.4h1.7c0,0,0-6.8,0-7.3h3.9c0,0.4,0,7.3,0,7.3h1.7v-8.8
				C266.6,121.8,261.4,121.8,261,121.8z"/>
			<path d="M282.2,125.7l0-0.2c-0.1-2.3-1.7-4-3.9-4c-2.2,0-4.5,1.8-4.5,4.7c0,3,2.4,4.7,4.6,4.7c1.8,0,2.8-0.6,3.4-0.9l0.1,0
				l0.1-0.1v-1.7c0,0-0.3,0.2-0.3,0.2l-0.1,0c-0.4,0.2-1.5,0.9-3,0.9c-1.3,0-2.3-0.7-2.7-1.9l6.2-1.6L282.2,125.7z M278.2,123.1
				c1.1,0,1.8,0.6,2.1,1.6l-4.8,1.3C275.7,124.2,276.7,123.1,278.2,123.1z"/>
			<polygon points="284.4,121.8 284.4,130.6 286.1,130.6 286.1,123.4 290.2,123.4 290.2,130.6 291.9,130.6 291.9,121.8 			"/>
			<path d="M299.4,128.8c-0.3,0.2-0.9,0.4-1.5,0.4c-0.7,0-1.2-0.3-1.2-1.5v-4.5h2.7l0.1-0.1l0.4-1l0.1-0.3h-3.2v-3.3H295v3.3h-1.4
				l-0.1,0.1l-0.4,1l-0.1,0.3h1.9v4.5c0,2.8,1.7,3.2,2.7,3.2c1,0,1.8-0.4,2-0.6l0.2-0.1c0,0,0-0.1,0-0.1v-1.5l-0.3,0.1
				C299.5,128.7,299.5,128.8,299.4,128.8z"/>
			<path d="M306.4,121.6c-0.2-0.1-0.5-0.1-0.8-0.1c-1.1,0-1.8,0.6-2.3,1.1v-0.8h-1.7v8.8h1.7v-6.3c0.9-0.9,1.6-1.1,2.1-1.1
				c0.3,0,0.5,0,0.7,0.1c0.1,0,0.2,0,0.3,0h0.2v-1.6L306.4,121.6z"/>
			<path d="M316.2,125.7l0-0.2c-0.1-2.3-1.7-4-3.9-4c-2.2,0-4.5,1.8-4.5,4.7c0,3,2.4,4.7,4.6,4.7c1.8,0,2.8-0.6,3.4-0.9l0.1,0
				l0.1-0.1c0,0,0-0.1,0-0.1v-1.6c0,0-0.3,0.2-0.3,0.2l-0.1,0c-0.4,0.2-1.5,0.9-3,0.9c-1.3,0-2.3-0.7-2.7-1.9l6.2-1.6L316.2,125.7z
				 M312.3,123.1c1.1,0,1.8,0.6,2.1,1.6l-4.8,1.3C309.8,124.2,310.8,123.1,312.3,123.1z"/>
			<path d="M322.7,121.6c-2.5,0-4.4,1.9-4.4,4.4v11.2h1.7v-7.3c0.8,0.6,1.7,1,2.7,1c2.4,0,4.4-2.1,4.4-4.7
				C327.2,123.7,325.1,121.6,322.7,121.6z M322.5,129.3c-1,0-2-0.6-2.5-1.5V126c0-1.6,1.2-2.8,2.7-2.8c1.5,0,2.7,1.3,2.7,3
				C325.4,127.9,324.1,129.3,322.5,129.3z"/>
			<path d="M334.2,121.6c-0.2-0.1-0.5-0.1-0.8-0.1c-1.1,0-1.8,0.6-2.3,1.1v-0.8h-1.7v8.8h1.7v-6.3c0.9-0.9,1.6-1.1,2.1-1.1
				c0.3,0,0.5,0,0.7,0.1c0.1,0,0.2,0,0.2,0h0.2v-1.6L334.2,121.6z"/>
			<path d="M344.1,125.7l0-0.2c-0.1-2.3-1.7-4-3.9-4c-2.2,0-4.5,1.8-4.5,4.7c0,3,2.4,4.7,4.6,4.7c1.8,0,2.8-0.6,3.4-0.9l0.1,0
				l0.1-0.1c0,0,0-0.1,0-0.1v-1.6c0,0-0.3,0.2-0.3,0.2l-0.1,0c-0.4,0.2-1.5,0.9-3,0.9c-1.3,0-2.3-0.7-2.7-1.9l6.2-1.6L344.1,125.7z
				 M340.2,123.1c1.1,0,1.8,0.6,2.1,1.6l-4.8,1.3C337.6,124.2,338.6,123.1,340.2,123.1z"/>
			<polygon points="346.4,121.8 346.4,130.6 348.1,130.6 348.1,123.4 352.1,123.4 352.1,130.6 353.8,130.6 353.8,121.8 			"/>
			<path d="M364.5,125.7l0-0.2c0-2.3-1.7-4-3.9-4c-2.2,0-4.5,1.8-4.5,4.7c0,3,2.4,4.7,4.6,4.7c1.8,0,2.8-0.6,3.4-0.9l0,0l0.1-0.1
				c0,0,0-0.1,0-0.1v-1.6l-0.3,0.2c0,0-0.1,0-0.1,0.1c-0.4,0.2-1.5,0.9-3,0.9c-1.3,0-2.3-0.7-2.7-1.9l6.2-1.6L364.5,125.7z
				 M360.6,123.1c1.1,0,1.8,0.6,2.1,1.6l-4.8,1.3C358,124.2,359.1,123.1,360.6,123.1z"/>
			<polygon points="372.4,121.8 372.4,129 368.5,129 368.5,121.8 366.8,121.8 366.8,130.6 374.1,130.6 374.1,121.8 			"/>
			<path d="M381.7,121.6c-0.2-0.1-0.5-0.1-0.8-0.1c-1.1,0-1.8,0.6-2.3,1.1v-0.8h-1.7v8.8h1.7v-6.3c0.7-0.7,1.5-1.1,2.1-1.1
				c0.3,0,0.5,0,0.7,0.1c0.1,0,0.2,0,0.2,0h0.2v-1.6L381.7,121.6z"/>
			<path d="M389.5,128.9l-4.3-5.4c0.3-0.2,1-0.4,1.6-0.4c0.7,0,1.4,0.2,2.2,0.5l0.3,0.2v-1.7l-0.1-0.1c-0.3-0.1-1.1-0.5-2.3-0.5
				c-1.4,0-2.7,0.5-3.7,1.6c0,0-0.1,0.1-0.1,0.1l-0.2,0.1l0.1,0.2l4.2,5.4c-0.3,0.2-0.9,0.4-1.6,0.4c-0.8,0-1.6-0.3-2-0.5
				c-0.1,0-0.1-0.1-0.2-0.1l-0.3-0.1v1.8l0.2,0.1c0,0,0.1,0,0.1,0c0.3,0.1,1.2,0.4,2.2,0.4c1,0,2.5-0.3,3.8-1.6l0,0l0.1-0.1
				C389.6,129.1,389.5,128.9,389.5,128.9z"/>
			<g>
				<path d="M393,116.8c1.5,0,2.7,1.2,2.7,2.7c0,1.5-1.2,2.7-2.7,2.7s-2.7-1.2-2.7-2.7C390.3,118,391.5,116.8,393,116.8z
					 M393.1,121.8c1.2,0,2.2-1,2.2-2.3c0-1.3-0.9-2.3-2.2-2.3c-1.3,0-2.2,1-2.2,2.3C390.8,120.8,391.8,121.8,393.1,121.8z
					 M392,117.9h1.2c0.7,0,1.1,0.3,1.1,0.9c0,0.5-0.3,0.9-0.8,0.9l0.9,1.4h-0.5l-0.9-1.4h-0.4v1.4H392V117.9z M392.5,119.3h0.6
					c0.4,0,0.7-0.1,0.7-0.5c0-0.4-0.3-0.5-0.7-0.5h-0.6V119.3z"/>
			</g>
		</g>
	</g>
</g>
<g id="Layer_2" class="st2">
	<path class="st5" d="M342.3,78.3l-22.6,22.9h0.1c-0.4,0.3-0.8,0.6-1.3,0.7c-0.6,0.2-1.2,0.4-1.8,0.4c-0.6,0-1.3-0.2-1.8-0.4
		c-0.4-0.2-0.8-0.4-1.2-0.7l0,0l-25-25.3l1.1-1l-0.1-0.1c0.4-0.3,1.6-1.6,3.1-1.5c0.7-0.1,1.3,0.2,1.7,0.4v0.1l14.9,15.1l0.1-0.1
		c1,1,2.4,2,4.6,2c2.1,0,4.5-1.5,5.4-2.6L336,71.7l-13.6-14.3c-1-1.2-2.5-1.8-4.7-1.9h-0.8c-1.4,0-3.1,0.4-4.2,1.1
		c-1-0.7-2.2-1.1-3.9-1.1h-0.7c-1.4,0-3,0.4-4.2,1.1c-1-0.7-2.2-1.1-3.8-1.1h-0.7c-1.5,0-3.3,0.4-4.5,1.2c-1-0.7-2.3-1.2-4-1.2
		c0,0,0,0,0,0c0,0,0,0,0,0c0,0,0,0,0,0c0,0,0,0,0,0s0,0,0,0c0,0,0,0,0,0c0,0,0,0,0,0c0,0,0,0,0,0c0,0,0,0,0,0c0,0,0,0,0,0
		c0,0,0,0,0,0c0,0,0,0,0,0c0,0,0,0,0,0s0,0,0,0c0,0,0,0,0,0c0,0,0,0,0,0c0,0,0,0,0,0c0,0,0,0,0,0c0,0,0,0,0,0c0,0,0,0,0,0
		c0,0,0,0,0,0c0,0,0,0,0,0c0,0,0,0,0,0c0,0,0,0,0,0c0,0,0,0,0,0c0,0,0,0,0,0s0,0,0,0c0,0,0,0,0,0s0,0,0,0c0,0,0,0,0,0c0,0,0,0,0,0
		c0,0,0,0,0,0c0,0,0,0,0,0c0,0,0,0,0,0c0,0,0,0,0,0c0,0,0,0,0,0c0,0,0,0,0,0c0,0,0,0,0,0c0,0,0,0,0,0c0,0,0,0,0,0c0,0,0,0,0,0
		c0,0,0,0,0,0c0,0,0,0,0,0c0,0,0,0,0,0c0,0,0,0,0,0c0,0,0,0,0,0c0,0,0,0,0,0c0,0,0,0,0,0c0,0,0,0,0,0c0,0,0,0,0,0c0,0,0,0,0,0
		c0,0,0,0,0,0s0,0,0,0c0,0,0,0,0,0c0,0,0,0,0,0c0,0,0,0,0,0c0,0,0,0,0,0c0,0,0,0,0,0c0,0,0,0,0,0c0,0,0,0,0,0c0,0,0,0,0,0
		c0,0,0,0,0,0c0,0,0,0,0,0s0,0,0,0s0,0,0,0c0,0,0,0,0,0c0,0,0,0,0,0c0,0,0,0,0,0c0,0,0,0,0,0c0,0,0,0,0,0c0,0,0,0,0,0c0,0,0,0,0,0
		s0,0,0,0c0,0,0,0,0,0c0,0,0,0,0,0c0,0,0,0,0,0c0,0,0,0,0,0c0,0,0,0,0,0c0,0,0,0,0,0c0,0,0,0,0,0c0,0,0,0,0,0c0,0,0,0,0,0
		c0,0,0,0,0,0c0,0,0,0,0,0c0,0,0,0,0,0c0,0,0,0,0,0s0,0,0,0c0,0,0,0,0,0c0,0,0,0,0,0c0,0,0,0,0,0c0,0,0,0,0,0c0,0,0,0,0,0
		c0,0,0,0,0,0c0,0,0,0,0,0c0,0,0,0,0,0s0,0,0,0c0,0,0,0,0,0c0,0,0,0,0,0c0,0,0,0,0,0c0,0,0,0,0,0c0,0,0,0,0,0c0,0,0,0,0,0
		c0,0,0,0,0,0c0,0,0,0,0,0c0,0,0,0,0,0s0,0,0,0c0,0,0,0,0,0s0,0,0,0c0,0,0,0,0,0c0,0,0,0,0,0c0,0,0,0,0,0c0,0,0,0,0,0c0,0,0,0,0,0
		c0,0,0,0,0,0s0,0,0,0c0,0,0,0,0,0c0,0,0,0,0,0c0,0,0,0,0,0c0,0,0,0,0,0c0,0,0,0,0,0c0,0,0,0,0,0c0,0,0,0,0,0c0,0,0,0,0,0
		c0,0,0,0,0,0c0,0,0,0,0,0c0,0,0,0,0,0c0,0,0,0,0,0c0,0,0,0,0,0c-2.2,0.1-3.8,0.7-4.7,1.9l-22.5,22.9l2.2,2.3l22.6-22.9l0,0
		c0.4-0.3,0.8-0.6,1.2-0.7c0.6-0.2,1.2-0.4,1.8-0.4c0.6,0,1.2,0.2,1.8,0.4c0.5,0.2,0.9,0.4,1.3,0.7h-0.1l25,25.3l-1.1,1l0.1,0.1
		c-0.4,0.3-1.6,1.6-3.1,1.5c-1.7,0.1-2.7-1.2-3.1-1.5v-0.1l-13.1-13.2c-1-1.1-2.5-2.6-5.2-2.6c-2.1,0-4.4,1.5-5.4,2.6L271,89.1
		l13.6,14.4c1,1.1,2.5,1.7,4.7,1.8c1.6,0.1,3.6-0.2,5-1.1c1,0.7,2.2,1.1,3.9,1.1c1.5,0.1,3.5-0.2,5-1.1c1,0.7,2.2,1.1,3.8,1.1
		c1.6,0.1,3.8-0.3,5.2-1.2c1,0.7,2.3,1.2,4,1.2c0.2,0,0.4,0,0.6,0c0.2,0,0.4,0,0.6,0c2.2-0.1,3.8-0.7,4.7-1.8l22.6-22.9L342.3,78.3
		L342.3,78.3z M317.5,58.6c1,0.1,1.9,0.4,2.6,1.1h-0.1l2.6,2.6l0.4,0.4l8.6,8.7l-2.1,2.2l-14.5-14.6
		C315.8,58.6,316.7,58.5,317.5,58.6L317.5,58.6z M308.7,58.6c1,0.1,1.8,0.4,2.6,1.1l0,0l16,16.1l-2.1,2.2l-18.9-19
		C307.1,58.6,307.9,58.5,308.7,58.6L308.7,58.6z M297.2,59c0.8-0.4,1.8-0.6,2.7-0.5c1,0.1,1.9,0.4,2.6,1.1l0,0l20.4,20.6l-2.3,2.4
		L297.2,59L297.2,59z M289.5,102.3c-1-0.1-1.9-0.4-2.6-1.1l0,0l-2.6-2.6l-0.4-0.4l-8.6-8.7l2.1-2.2l14.5,14.6
		C291.1,102.2,290.3,102.4,289.5,102.3L289.5,102.3z M298.3,102.3c-1-0.1-1.8-0.4-2.6-1.1h0.1l-2.6-2.6l-0.4-0.4l-13-13.1l2.1-2.2
		l18.9,19C299.9,102.2,299.1,102.4,298.3,102.3L298.3,102.3z M307.1,102.3c-1-0.1-1.8-0.4-2.6-1.1l0,0l-2.6-2.6l-0.4-0.4l-17.4-17.6
		l2.4-2.4l23.3,23.6C308.9,102.2,308,102.4,307.1,102.3L307.1,102.3z"/>
	<path class="st6" d="M241.2,117.1L241.2,117.1L241.2,117.1L241.2,117.1c-0.1,0-0.2-0.1-0.2-0.1c0-0.1,0.1-0.1,0.1-0.1h0.3
		c0.8-0.1,1.5-0.8,1.5-1.7v-0.6c0-1-0.8-1.7-1.7-1.7h-6.9c-0.1,0-0.1,0.1-0.1,0.1v1.1c0,0,0,0.1,0.1,0.1h0.1
		c0.3,0.1,0.8,0.3,0.8,0.5v5.4c0,0.2-0.4,0.4-0.8,0.5c0,0-0.1,0.1-0.1,0.1c-0.1,0-0.1,0.1-0.1,0.1v1.1c0,0.1,0.1,0.1,0.1,0.1h0.8
		c0.1,0,0.1,0,0.1,0h6c1.2,0,2.1-1.2,2.1-2.2v-0.9C243.3,117.9,242.8,117.1,241.2,117.1L241.2,117.1z M241,119.2
		c0,1-0.6,1.2-1.3,1.2h-2l-0.1-0.1c-0.1-0.1-0.1-0.1-0.1-0.1v-5.9v-0.1c0.1-0.1,0.1-0.1,0.1-0.1h2c0.4,0,0.9,0.4,0.9,0.8v0.5
		c0,0.2-0.4,0.8-0.9,0.8h-0.9c-0.2,0-0.3,0.1-0.3,0.3v1c0,0.2,0.2,0.3,0.3,0.3h1c1,0.1,1.2,0.6,1.2,0.8V119.2L241,119.2z"/>
	<path class="st6" d="M365.3,117.1L365.3,117.1L365.3,117.1L365.3,117.1c-0.1,0-0.2-0.1-0.2-0.1c0-0.1,0.1-0.1,0.1-0.1h0.3
		c0.8-0.1,1.5-0.8,1.5-1.7v-0.6c0-1-0.8-1.7-1.7-1.7h-6.9c-0.1,0-0.1,0.1-0.1,0.1v1.1c0,0,0,0.1,0.1,0.1c0.1,0,0.1,0,0.1,0
		c0.3,0.1,0.8,0.3,0.8,0.5v5.4c0,0.2-0.5,0.4-0.8,0.5c0,0-0.1,0.1-0.1,0.1c-0.1,0-0.1,0.1-0.1,0.1v1.1c0,0.1,0.1,0.1,0.1,0.1h0.9
		h0.1h6c1.3,0,2.1-1.2,2.1-2.2v-0.9C367.4,117.9,366.8,117.1,365.3,117.1L365.3,117.1z M365,119.2c0,1-0.5,1.2-1.3,1.2h-2.1
		l-0.1-0.1c-0.1-0.1-0.1-0.1-0.1-0.1v-5.9c0,0,0-0.1,0.1-0.1c0-0.1,0.1-0.1,0.1-0.1h2c0.4,0,0.8,0.4,0.8,0.8v0.5
		c0,0.2-0.4,0.8-0.9,0.8h-0.9c-0.2,0-0.3,0.1-0.3,0.3v1c0,0.2,0.1,0.3,0.3,0.3h1c1,0.1,1.2,0.6,1.2,0.8V119.2L365,119.2z"/>
	<path class="st6" d="M261.9,112.8h-2.8c-0.3,0-0.3,0-0.3,0.3v0.6c0,0.2,0.2,0.1,0.2,0.1s0.2,0,0.3,0.2l0.1,0.1c0,0,0,0.2-0.1,0.4
		c-0.2,0.3-0.7,1.2-1,1.6c0,0.1-0.2,0.2-0.3,0.2l0,0c-0.1,0-0.2-0.1-0.3-0.2l-1.1-1.5c0,0-0.2-0.4,0-0.6c0.1-0.1,0.3-0.2,0.3-0.2
		c0.1,0,0.2,0,0.2-0.2c0-0.1,0-0.5,0-0.5c0-0.1-0.1-0.2-0.2-0.2h-3.5c-0.1,0-0.3,0-0.3,0.2v0.7c0,0.3,0,0.3,0.2,0.4
		c0.3,0,0.6,0.3,0.6,0.3l2.5,3.5v2.4c0,0.1-0.3,0.2-0.5,0.2l-0.2,0.1c-0.1,0-0.1,0.1-0.1,0.1l0,0v1.2l0,0c0,0.1,0.1,0.1,0.1,0.1h3.9
		c0.1,0,0.1-0.1,0.1-0.1l0,0v-1.2l0,0c-0.1,0-0.1-0.1-0.1-0.1h-0.1c-0.3-0.1-0.7-0.2-0.7-0.4v-2.1l2.1-3.2c0,0,0.3-0.5,0.5-0.6
		c0.1-0.2,0.2-0.2,0.4-0.3l0.3-0.1c0.3,0,0.3-0.1,0.3-0.2V113C262.2,112.8,262.1,112.8,261.9,112.8L261.9,112.8z"/>
	<path class="st6" d="M348.2,120.4v-1.9c0-0.1-0.1-0.3-0.3-0.3h-0.7c-0.2,0-0.3,0.2-0.3,0.3v0.4c0,0.2-0.1,0.4-0.1,0.5
		c-0.2,0.4-0.6,0.7-0.8,0.8c-0.4,0.2-1.1,0.1-1.1,0.1l0,0h-1c-0.1-0.1-0.2-0.2-0.2-0.2v-5.4c0-0.2,0.5-0.4,0.8-0.5
		c0,0,0.1,0,0.1-0.1c0-0.1,0-0.1,0-0.1v-1.1c0-0.1-0.1-0.1-0.1-0.1h-3.8c-0.1,0-0.1,0.1-0.1,0.1v1.1c0,0,0,0,0,0.1
		c0.1,0.1,0.1,0.1,0.1,0.1c0.4,0.1,0.8,0.3,0.8,0.5v5.4c0,0.2-0.5,0.4-0.8,0.5c0,0-0.1,0-0.1,0.1v0.1v1.1c0,0.1,0.1,0.1,0.1,0.1h3
		l0,0h4.1c0.2,0,0.3-0.2,0.3-0.3v-1C348.2,120.5,348.2,120.4,348.2,120.4L348.2,120.4z"/>
	<path class="st6" d="M319.7,120.4v-1.9c0-0.1-0.1-0.3-0.3-0.3h-0.7c-0.2,0-0.3,0.2-0.3,0.3v0.4c0,0.2-0.1,0.4-0.1,0.5
		c-0.2,0.4-0.7,0.7-0.8,0.8c-0.5,0.2-1.1,0.1-1.1,0.1l0,0h-1c-0.1-0.1-0.2-0.2-0.2-0.2v-5.4c0-0.2,0.5-0.4,0.9-0.5
		c0,0,0.1,0,0.1-0.1c0.1,0,0.1-0.1,0.1-0.1v-1.1c0-0.1-0.1-0.1-0.1-0.1h-3.8c-0.1,0-0.1,0.1-0.1,0.1l-0.1,1.1c0.1,0,0,0.1,0.1,0.1
		c0,0.1,0.1,0.1,0.1,0.1c0.4,0.1,0.9,0.3,0.9,0.5v5.4c0,0.2-0.5,0.4-0.9,0.5c0,0-0.1,0-0.1,0.1c-0.1,0,0,0.1-0.1,0.1l0.1,1.1
		c0,0.1,0,0.1,0.1,0.1h3l0,0h4c0.2,0,0.3-0.2,0.3-0.3v-1C319.8,120.5,319.7,120.4,319.7,120.4L319.7,120.4z"/>
	<path class="st6" d="M352.8,120.3c-0.3,0-0.8,0-1-0.1c-0.3,0-0.6-0.2-0.7-0.4c-0.2-0.3-0.1-1-0.1-1.2v-4.1c0-0.2,0.5-0.4,0.9-0.5
		c0,0,0.1,0,0.1-0.1c0-0.1,0-0.1,0-0.1v-1.1c0-0.1-0.1-0.1-0.1-0.1h-4.1c0,0-0.1,0.1-0.1,0.1v1.1c0,0,0,0,0,0.1
		c0.1,0.1,0.1,0.1,0.1,0.1c0.4,0.1,0.8,0.3,0.8,0.5v3.9l0,0v0.8c0,0,0,1.2,0.2,1.5c0.5,0.8,1.3,1.2,3.6,1.2c0.1,0,0.4,0,0.5,0
		c2.3,0,3.2-0.4,3.7-1.2c0.2-0.3,0.2-1.5,0.2-1.5v-0.8l0,0v-3.9c0-0.2,0.5-0.4,0.8-0.5c0,0,0.1,0,0.1-0.1c0.1-0.1,0-0.1,0-0.1v-1.1
		c0-0.1,0-0.1-0.1-0.1h-4.1c-0.1,0-0.1,0.1-0.1,0.1v1.1c0,0,0,0,0.1,0.1c0,0.1,0.1,0.1,0.1,0.1c0.4,0.1,0.9,0.3,0.9,0.5v4.1
		c0,0.2,0.1,1-0.1,1.2c-0.2,0.3-0.5,0.4-0.7,0.4C353.6,120.3,353,120.3,352.8,120.3L352.8,120.3z"/>
	<path class="st6" d="M340.3,119.3c0-0.2-0.1-0.3-0.3-0.3h-0.7c-0.2,0-0.3,0.1-0.3,0.3v0.1c0,0.4-0.5,0.8-0.8,1
		c-0.4,0.2-0.6,0.2-1.3,0.2l0,0l0,0c-0.7,0-0.8,0-1.3-0.2c-0.3-0.1-0.7-0.6-0.9-1.1c-0.2-0.3-0.3-0.7-0.3-2.1c0-1.3,0.1-2,0.3-2.2
		c0.3-0.5,0.7-1,1.8-1c1.1,0,1.5,0.4,1.7,0.6c0,0,0.3,0.3,0.3,0.6v0.1c0,0.2,0.1,0.3,0.3,0.3h0.7c0.2,0,0.3-0.1,0.3-0.3l0.1-2.2
		c0,0,0-0.2-0.2-0.3c0,0-1.1-0.3-2.8-0.3c-1.5,0.1-2.6,0.3-3.3,0.7c-0.6,0.4-1.7,1.5-1.7,3.8c0,2.3,0.5,3.2,1.1,3.7
		c0.5,0.5,1.3,1,2.8,1.2c0.1,0.1,0.4,0.1,0.8,0.1c0.1,0,0.2,0,0.3,0c0.3,0,0.6,0,0.8-0.1c1.8-0.1,2.3-0.3,2.3-0.3
		c0.2,0,0.3-0.1,0.3-0.3L340.3,119.3L340.3,119.3z"/>
	<path class="st6" d="M296.7,119.3L296.7,119.3v-2.2c0-0.2-0.2-0.3-0.3-0.3h-3.3c-0.2,0-0.3,0.2-0.3,0.3v1c0,0.1,0.1,0.3,0.3,0.3
		h1.3v2c-0.1,0.1-0.2,0.1-0.2,0.1c-0.4,0.2-0.6,0.2-1.3,0.2l0,0h-0.1c-0.6,0-0.8,0-1.3-0.2c-0.3-0.1-0.7-0.6-0.9-1.1
		c-0.2-0.3-0.3-0.7-0.3-2.1c0-1.3,0.1-2,0.3-2.2c0.3-0.5,0.7-1,1.8-1c1.1,0,1.5,0.4,1.7,0.6c0,0,0.3,0.3,0.3,0.6v0.1
		c0,0.2,0.1,0.3,0.3,0.3h0.7c0.2,0,0.3-0.1,0.3-0.3l0.1-2.2c0,0,0-0.2-0.2-0.3c0,0-1.1-0.3-2.8-0.3c-1.5,0.1-2.6,0.3-3.3,0.7
		c-0.6,0.4-1.7,1.5-1.7,3.8c0,2.3,0.5,3.2,1.1,3.7c0.5,0.5,1.3,1,2.8,1.2c0.1,0.1,0.4,0.1,0.8,0.1c0.1,0,0.2,0,0.3,0
		c0.3,0,0.6,0,0.8-0.1c1.8-0.1,2.7-0.3,2.7-0.3c0.2,0,0.3-0.1,0.3-0.3V119.3L296.7,119.3L296.7,119.3z"/>
	<path class="st6" d="M251.8,113.3c-0.6-0.4-1.7-0.7-3.1-0.7l0,0c-0.1,0-0.2,0-0.3,0l0,0c-1.4,0.1-2.5,0.4-3.1,0.7
		c-0.6,0.4-1.7,1.5-1.7,3.8c0,2.3,0.5,3.2,1.1,3.7c0.5,0.5,1.3,1,2.7,1.2c0.1,0.1,0.5,0.1,0.8,0.1c0.1,0,0.4,0,0.4,0
		c0.1,0,0.9-0.1,1-0.1c1.5-0.2,2.3-0.7,2.7-1.2c0.6-0.5,1.1-1.4,1.1-3.7C253.5,114.8,252.4,113.7,251.8,113.3L251.8,113.3z
		 M250.8,119.3c-0.2,0.4-0.7,1-1,1.1c-0.4,0.2-0.6,0.2-1.2,0.2c-0.6,0-0.8,0-1.3-0.2c-0.3-0.1-0.8-0.6-1-1.1
		c-0.1-0.3-0.3-0.7-0.3-2.1c0-1.3,0.1-2,0.3-2.2c0.3-0.5,0.8-1,1.9-1c0.1,0,0.5,0,0.6,0c1.3-0.1,1.6,0.5,1.9,1
		c0.2,0.3,0.3,0.9,0.3,2.2C251,118.5,250.9,119,250.8,119.3L250.8,119.3z"/>
	<path class="st6" d="M279.4,126.6c-0.5-0.3-1.3-0.5-2.4-0.5l0,0c0,0,0,0-0.1,0c0,0,0,0-0.1,0l0,0c-0.1,0-0.1,0-0.1,0l0,0
		c-1.1,0-2,0.2-2.4,0.5c-0.5,0.3-1.4,1.2-1.4,2.9c0,1.7,0.4,2.4,0.8,2.9c0.4,0.4,1,0.7,2.2,0.9c0.1,0,0.4,0.1,0.6,0.1
		c0.1,0,0.1,0,0.2,0l0,0c0,0,0,0,0.1,0l0,0c0.1,0,0.1,0,0.1,0h0.1l0,0c0.1,0,0.1,0,0.2,0c0.2,0,0.5-0.1,0.6-0.1
		c1.2-0.2,1.7-0.5,2.1-0.9c0.5-0.4,0.9-1.1,0.9-2.9C280.8,127.8,279.9,126.9,279.4,126.6L279.4,126.6z M278.6,131.2
		c-0.1,0.3-0.5,0.7-0.7,0.8c-0.4,0.1-0.5,0.1-1,0.2c-0.5-0.1-0.6-0.1-1-0.2c-0.2-0.1-0.6-0.5-0.7-0.8c-0.1-0.2-0.2-0.5-0.2-1.6
		c0-1.1,0.1-1.5,0.2-1.7c0.2-0.3,0.6-0.7,1.4-0.7c0.1,0,0.1,0,0.2,0v0.1h0.1c0.1,0,0.1,0,0.1,0v-0.1c0.1,0,0.1,0,0.2,0
		c0.8,0,1.2,0.4,1.4,0.7c0.2,0.2,0.2,0.7,0.2,1.7C278.9,130.7,278.8,131,278.6,131.2L278.6,131.2z"/>
	<path class="st6" d="M301.5,120.6c-0.1-0.1-0.1-0.1-0.1-0.1c-0.4-0.1-0.8-0.3-0.8-0.5v-5.4c0-0.2,0.5-0.5,0.8-0.5c0,0,0.1,0,0.1,0
		c0-0.1,0-0.1,0-0.1v-1.1c0-0.1-0.1-0.1-0.1-0.1h-3.7c-0.1,0-0.1,0-0.1,0.1v1.1c0,0,0,0.1,0,0.1c0.1,0,0.1,0,0.1,0
		c0.4,0.1,0.8,0.3,0.8,0.5v5.4c0,0.2-0.5,0.4-0.8,0.5c0,0-0.1,0-0.1,0.1v0.1v1.1c0,0.1,0.1,0.1,0.1,0.1h3.7c0.1,0,0.1-0.1,0.1-0.1
		V120.6L301.5,120.6L301.5,120.6z"/>
	<path class="st6" d="M323.5,132.1C323.5,132.1,323.4,132.1,323.5,132.1c-0.4-0.1-0.7-0.3-0.7-0.4v-4.2c0-0.2,0.4-0.3,0.7-0.4h0.1
		c0.1-0.1,0-0.1,0-0.1v-0.8c0,0,0-0.1-0.1-0.1h-2.9c-0.1,0-0.1,0.1-0.1,0.1v0.8c0,0,0,0.1,0.1,0.1h0.1c0.3,0.1,0.6,0.2,0.6,0.4v4.2
		c0,0.2-0.4,0.3-0.6,0.4c0,0-0.1,0-0.1,0.1c-0.1,0-0.1,0.1-0.1,0.1v0.8c0,0.1,0.1,0.1,0.1,0.1h2.9c0.1,0,0.1,0,0.1-0.1V132.1
		C323.5,132.2,323.5,132.1,323.5,132.1L323.5,132.1z"/>
	<path class="st6" d="M311.9,120.6c-0.1-0.1-0.1-0.1-0.1-0.1c-0.4-0.1-0.8-0.3-0.8-0.5v-1.3c0-1-0.3-1.7-1.8-1.7h-0.1V117h-0.1
		c-0.1,0-0.1-0.1-0.1-0.1c0-0.1,0.1-0.1,0.1-0.1h0.3c0.9-0.1,1.5-0.9,1.5-1.7v-0.5c0-1-0.7-1.7-1.7-1.7h-3.8v0.1h-3.2
		c-0.1,0-0.1,0-0.1,0.1v1.1c0,0,0,0.1,0,0.1c0.1,0,0.1,0,0.1,0c0.4,0.1,0.8,0.3,0.8,0.5v5.4c0,0.2-0.5,0.4-0.8,0.5
		c0,0-0.1,0-0.1,0.1v0.1v1.1c0,0.1,0.1,0.1,0.1,0.1h3.7c0.1,0,0.1-0.1,0.1-0.1v-1.1v-0.1c-0.1-0.1-0.1-0.1-0.1-0.1
		c-0.4-0.1-0.8-0.3-0.8-0.5v-5.4c0-0.2,0.1-0.3,0.3-0.4h2.2c0.4,0,0.8,0.4,0.8,0.8v0.4c0,0.2-0.4,1-0.9,0.9l0,0h-1.3
		c-0.2,0-0.3,0.2-0.3,0.3v1c0,0.2,0.1,0.3,0.3,0.3h1.4c1,0.1,1,0.6,1,0.8v2.5c0,0,0,0.2,0,0.3c0.1,0.2,0.4,0.2,0.4,0.2h2.8
		c0.1,0,0.1-0.1,0.1-0.1V120.6L311.9,120.6L311.9,120.6z"/>
	<path class="st6" d="M320.1,132.1c-0.1-0.1-0.1-0.1-0.1-0.1c-0.3-0.1-0.6-0.2-0.6-0.4v-1c0-0.7-0.2-1.3-1.4-1.3l0,0l0,0h-0.1
		c0,0-0.1-0.1-0.1-0.1c0-0.1,0.1-0.1,0.1-0.1h0.2c0.7-0.1,1.2-0.7,1.2-1.4v-0.4c0-0.7-0.6-1.3-1.3-1.3h-2.9l0,0h-2.5l-0.1,0.1v0.8
		c0,0,0,0.1,0,0.1c0.1,0,0.1,0,0.1,0c0.3,0.1,0.6,0.2,0.6,0.4v4.2c0,0.2-0.4,0.3-0.6,0.4c0,0-0.1,0-0.1,0.1v0.1v0.8
		c0,0.1,0.1,0.1,0.1,0.1h2.9c0.1,0,0.1,0,0.1-0.1v-0.8v-0.1c0-0.1-0.1-0.1-0.1-0.1c-0.3-0.1-0.7-0.2-0.7-0.4v-4.2
		c0-0.1,0.1-0.2,0.3-0.2h1.6c0.4,0,0.7,0.3,0.7,0.6v0.3c0,0.2-0.3,0.7-0.7,0.7l0,0h-1c-0.1,0-0.2,0.1-0.2,0.3v0.7
		c0,0.1,0.1,0.2,0.2,0.2h1.1c0.7,0.1,0.7,0.5,0.7,0.6v2c0,0,0,0.2,0,0.2c0.1,0.2,0.3,0.2,0.3,0.2h2.2c0,0,0.1,0,0.1-0.1V132.1
		L320.1,132.1L320.1,132.1z"/>
	<path class="st6" d="M263.7,117.5c0.7,0.2,2,0.6,2.9,0.7c0.8,0.1,1.2,0.5,1.1,1.3c-0.2,0.7-1,0.9-1.5,0.9c0,0-1.1,0.1-1.6-0.1
		c-0.2-0.1-0.7-0.7-0.8-0.8l-0.2-0.4c0-0.1-0.1-0.2-0.3-0.2h-0.8c-0.2,0-0.2,0-0.2,0.2v1.7v0.7c0,0.3,0.4,0.3,1.4,0.3h2.6
		c0,0,1.2,0.1,2-0.5c0.7-0.4,1.3-1.5,1.3-2.3c-0.1-1.3-0.2-2-0.9-2.5c-0.6-0.4-2-0.6-2.9-0.7c-0.9-0.2-1.6-0.3-1.6-1.1
		c0-0.8,1.1-0.9,1.5-1c0,0,0.6-0.1,1.1,0.2c0.2,0.1,0.4,0.1,0.6,0.4c0.1,0.2,0.3,0.7,0.3,0.7c0,0.2,0.1,0.3,0.3,0.3h0.7
		c0.2,0,0.3-0.1,0.3-0.3v-2.3c0-0.2-0.9-0.2-1.3-0.2h-3c0,0-1,0-1.6,0.6c-0.5,0.4-0.9,1.3-0.9,2.1
		C262.4,116.2,262.5,117.1,263.7,117.5L263.7,117.5z"/>
	<path class="st6" d="M321.6,117.5c0.7,0.2,2,0.6,2.9,0.7c0.9,0.1,1.3,0.5,1.1,1.3c-0.1,0.7-1,0.9-1.4,0.9c0,0-1.1,0.1-1.6-0.1
		c-0.2-0.1-0.7-0.7-0.8-0.8l-0.2-0.4c0-0.1-0.1-0.2-0.2-0.2h-0.8c-0.1,0-0.2,0-0.2,0.2v1.7v0.7c0,0.3,0.3,0.3,1.3,0.3h2.7
		c0,0,1.1,0.1,2-0.5c0.7-0.4,1.3-1.5,1.3-2.3c-0.1-1.3-0.1-2-0.8-2.5c-0.7-0.4-2-0.6-2.9-0.7c-0.8-0.2-1.6-0.3-1.6-1.1
		c0-0.8,1-0.9,1.5-1c0,0,0.6-0.1,1.1,0.2c0.2,0.1,0.4,0.1,0.6,0.4c0.1,0.2,0.3,0.7,0.3,0.7c0,0.2,0.1,0.3,0.3,0.3h0.7
		c0.2,0,0.3-0.1,0.3-0.3v-2.3c0-0.2-0.9-0.2-1.4-0.2h-3c0,0-1,0-1.6,0.6c-0.5,0.4-1,1.3-0.9,2.1
		C320.2,116.2,320.3,117.1,321.6,117.5L321.6,117.5z"/>
	<path class="st6" d="M369.4,117.5c0.7,0.2,2,0.6,2.9,0.7c0.9,0.1,1.3,0.5,1.1,1.3c-0.1,0.7-1,0.9-1.5,0.9c0,0-1.1,0.1-1.5-0.1
		c-0.2-0.1-0.7-0.7-0.8-0.8l-0.2-0.4c0-0.1-0.1-0.2-0.3-0.2h-0.8c-0.2,0-0.2,0-0.2,0.2v1.7v0.7c0,0.3,0.4,0.3,1.4,0.3h2.7
		c0,0,1.1,0.1,2-0.5c0.6-0.3,1.2-1.3,1.3-2.1v-0.2c-0.1-1.3-0.2-2-0.9-2.5c-0.6-0.4-2-0.6-2.9-0.7c-0.8-0.2-1.6-0.3-1.6-1.1
		c0-0.8,1-0.9,1.5-1c0,0,0.6-0.1,1,0.2c0.2,0.1,0.4,0.1,0.6,0.4c0.2,0.2,0.4,0.7,0.4,0.7c0,0.2,0.1,0.3,0.3,0.3h0.7
		c0.3,0,0.3-0.1,0.3-0.3v-2.3c0-0.2-0.9-0.2-1.4-0.2h-3c0,0-1,0-1.6,0.6c-0.4,0.4-0.9,1.3-0.8,2.1
		C368,116.2,368.2,117.1,369.4,117.5L369.4,117.5z"/>
	<path class="st6" d="M284.7,121.1c-0.1-0.1-0.2-0.1-0.4-0.1c-0.2-0.1-0.4-0.2-0.4-0.2l-1.1-0.8c0.2-0.3,0.3-0.5,0.4-0.7
		c0.2-0.3,0.2-1.3,0.2-1.7c0-0.4,0.1-1-0.1-1.1c0-0.1-0.2-0.1-0.2-0.1h-1.5c0,0-0.1,0-0.2,0.1c-0.1,0.1-0.1,0.3-0.1,0.3s0,0.5,0,0.7
		c0.1,0.4-0.1,0.8-0.2,1.2l-2.2-1.8c1.2-0.5,2-1.5,2-2.3c-0.1-1.5-1.4-2.1-3.3-2.1c-2.2-0.1-3.6,0.8-3.6,2.1c0,0.4,0.1,0.7,0.3,1.1
		l-0.1,0.1l0.1,0.1c0.2,0.2,0.3,0.4,0.5,0.5c-1,0.7-1.5,1.6-1.5,2.6c0,1.8,0.8,3.2,4.4,3.3c1.3,0,2.5-0.3,3.4-0.8l0.4,0.2
		c0.2,0.1,0.3,0.3,0.6,0.3h2.1c0.2,0,0.2-0.1,0.2-0.2v-0.1C284.7,121.5,284.7,121.2,284.7,121.1L284.7,121.1z M277.8,113.9
		c0.8,0,1.3,0.4,1.3,0.8c0,0.5-1.1,1-1.4,1c-0.1,0-0.1,0-0.2,0c-0.1-0.1-0.3-0.2-0.4-0.2c-0.4-0.2-0.7-0.5-0.7-0.8
		C276.4,114.3,277,113.8,277.8,113.9L277.8,113.9z M278.2,120.7c-2-0.1-2.3-0.7-2.3-1.8c0-0.5,0.2-1,0.6-1.3l3.5,2.8
		C279.8,120.6,279,120.7,278.2,120.7L278.2,120.7z"/>
	<path class="st6" d="M312.3,131.1c0-0.1-0.1-0.2-0.2-0.2h-0.6c-0.1,0-0.2,0.1-0.2,0.2l-0.2,0.4c0,0.1-0.1,0.2-0.2,0.3
		c-0.2,0.3-2.7,0.1-2.7,0.1c-0.1-0.1-0.2-0.1-0.2-0.2v-1.8h2.2c0.1,0,0.3,0.2,0.3,0.4c0,0,0,0,0.1,0.1h0.1h0.6
		c0.1,0,0.1-0.1,0.1-0.1v-2.1c0-0.1,0-0.1-0.1-0.1h-0.6h-0.1c-0.1,0-0.1,0.1-0.1,0.1c0,0.2-0.2,0.4-0.3,0.4H308v-1.1l0.1-0.2
		c0.1-0.1,0.2-0.1,0.2-0.1s1.6,0,2,0.1c0.2,0,0.5-0.1,0.6,0.1c0.1,0.1,0.1,0.2,0.1,0.2c0,0.1,0.1,0.2,0.2,0.2h0.5
		c0.2,0,0.2-0.1,0.2-0.2l0.1-1.3c0-0.1-0.1-0.2-0.2-0.2h-3.1h-2.9c-0.1,0-0.1,0.1-0.1,0.1v0.8c0,0,0,0.1,0.1,0.1h0.1
		c0.3,0.1,0.7,0.2,0.7,0.4v4.2c0,0.2-0.4,0.3-0.7,0.4c0,0-0.1,0-0.1,0.1c-0.1,0-0.1,0.1-0.1,0.1v0.8c0,0.1,0.1,0.1,0.1,0.1h2.3l0,0
		h3.9c0.1,0,0.2-0.1,0.2-0.2V131.1L312.3,131.1z"/>
	<path class="st6" d="M286.9,126.2h-2.7h-2.9l-0.1,0.1v0.8c0,0,0,0.1,0,0.1c0.1,0,0.1,0,0.1,0c0.3,0.1,0.7,0.2,0.7,0.4v4.2
		c0,0.2-0.4,0.3-0.7,0.4c0,0,0,0-0.1,0.1v0.1v0.8c0,0.1,0.1,0.1,0.1,0.1h2.3l0,0l0,0h0.6c0,0,0.1,0,0.1-0.1v-0.8v-0.1
		c-0.1-0.1-0.1-0.1-0.1-0.1c-0.2,0-0.4-0.1-0.6-0.2l0,0c-0.1,0-0.1,0-0.1-0.1l0,0l0,0c-0.1-0.1-0.1-0.1-0.1-0.1l0,0v-0.1v-1.8h1.9
		c0.1,0,0.3,0.2,0.3,0.4c0,0,0,0,0,0.1c0.1,0,0.1,0,0.1,0h0.7l0.1-0.1v-2h-0.1l-0.7-0.1c0,0,0,0-0.1,0.1v0.1
		c-0.1,0.2-0.2,0.4-0.3,0.4h-1.9v-1.3v-0.2c0.1-0.1,0.2-0.1,0.2-0.1s1.3,0,1.7,0.1c0.2,0,0.6-0.1,0.6,0.1c0.1,0.1,0.1,0.2,0.1,0.2
		c0,0.1,0.1,0.2,0.2,0.2h0.6c0.1,0,0.2-0.1,0.2-0.2v-1.3C287.2,126.3,287.1,126.2,286.9,126.2L286.9,126.2z"/>
	<path class="st6" d="M292.3,126.2c0,0-0.1,0-0.1,0.1c-0.1,0.1-0.1,0.2-0.1,0.2L292.3,126.2L292.3,126.2z"/>
	<path class="st6" d="M305.4,132.2L305.4,132.2c-0.1-0.1-0.1-0.1-0.1-0.1c-0.3-0.1-0.6-0.2-0.6-0.4l-0.9-4.2c0-0.2,0.2-0.3,0.5-0.4
		h0.1c0.1-0.1,0-0.1,0-0.1v-0.8c0,0,0-0.1-0.1-0.1h-2.1c0,0-0.3,0-0.3,0.1c-0.1,0.1-0.2,0.2-0.2,0.2l-0.5,1.4c0,0-0.3,1-0.3,1
		c-0.1,0-0.3-0.9-0.3-0.9l-0.5-1.4c0,0-0.1-0.3-0.2-0.3c-0.1-0.1-0.4-0.1-0.4-0.1h-2.1c-0.1,0-0.1,0.1-0.1,0.1v0.8
		c0,0,0,0.1,0.1,0.1h0.1c0.3,0.1,0.4,0.2,0.4,0.4l-0.8,4.2c-0.1,0.2-0.1,0.3-0.3,0.3c-0.1,0-0.2-0.1-0.3-0.3l-2.1-5.3
		c0,0-0.1-0.1-0.1-0.2c-0.1-0.1-0.1-0.1-0.1-0.1h-1.9c0,0-0.1,0-0.1,0.1c-0.1,0.1-0.1,0.2-0.1,0.2l-2.1,5.3c0,0.2-0.4,0.3-0.7,0.4
		c0,0-0.1,0-0.1,0.1v0.1v0.8c0,0.1,0,0.1,0.1,0.1h2.7c0.1,0,0.1,0,0.1-0.1v-0.8c0,0,0.1-0.1,0-0.1c0-0.1-0.1-0.1-0.1-0.1
		c-0.3-0.1-0.6-0.2-0.5-0.4l0.4-1.1h2.2l0.4,1.1c0.1,0.2-0.1,0.3-0.4,0.4c0,0-0.1,0-0.1,0.1v0.1v0.8c0,0.1,0,0.1,0.1,0.1h4.8
		c0.1,0,0.1,0,0.1-0.1v-0.8v-0.1c-0.1-0.1-0.1-0.1-0.1-0.1c-0.3-0.1-0.4-0.2-0.4-0.4l0.4-2.9c0,0,0-0.3,0.1-0.3
		c0.1,0,0.2,0.5,0.2,0.5l0.6,2.1c0,0,0.1,0.2,0.2,0.3c0.1,0.1,0.3,0.2,0.3,0.2h0.9c0,0,0.1,0,0.2-0.1c0.1-0.1,0.2-0.4,0.2-0.4
		l0.7-2.3c0,0,0.1-0.2,0.1-0.2c0.1,0,0.1,0.3,0.1,0.3l0.4,2.9c0,0.2-0.1,0.3-0.4,0.4c0,0-0.1,0-0.1,0.1c-0.1,0-0.1,0.1-0.1,0.1v0.8
		c0,0.1,0,0.1,0.1,0.1h2.9c0.1,0,0.1,0,0.1-0.1V132.2L305.4,132.2z M293.6,129.4c0,0.1-0.1,0-0.1,0h-1c0,0-0.1,0-0.1,0l0.1-0.1
		l0.6-1.6l0.6,1.5C293.6,129.3,293.7,129.4,293.6,129.4L293.6,129.4z"/>
	<path class="st6" d="M336.3,132.1C336.3,132.1,336.3,132.1,336.3,132.1c-0.3-0.1-0.7-0.3-0.7-0.4l-2.1-5.3c0,0,0-0.1-0.1-0.2
		c-0.1-0.1-0.1-0.1-0.1-0.1h-1.9c0,0-0.1,0-0.1,0.1c-0.1,0.1-0.1,0.2-0.1,0.2l-1.8,4.5c0,0-0.4,0.9-0.9,1.1
		c-0.4,0.1-0.7,0.2-1.2,0.2l0,0l0,0c-0.5,0-0.6,0-1-0.2c-0.2-0.1-0.6-0.5-0.7-0.8c-0.1-0.3-0.2-0.6-0.2-1.6c0-1,0.1-1.5,0.2-1.7
		c0.3-0.4,0.6-0.7,1.5-0.7c0.8,0,1.2,0.3,1.3,0.5c0,0,0.3,0.2,0.3,0.5v0.1c0,0.2,0.1,0.2,0.2,0.2h0.6c0.1,0,0.2-0.1,0.2-0.2v-1.6
		c0,0,0.1-0.2-0.1-0.3c0,0-0.8-0.2-2.2-0.2c-1.1,0-2,0.2-2.5,0.5c-0.5,0.3-1.4,1.2-1.4,2.9c0,1.8,0.4,2.4,0.8,2.9
		c0.4,0.4,0.8,0.6,1.8,0.8c0.1,0,0.6,0.1,0.9,0.1c0.1,0,0.2,0,0.3,0c0.2,0,0.4,0,0.6-0.1c0.8,0,1.3,0.1,1.5,0h1.7
		c0.1,0,0.1,0,0.1-0.1l0.1-0.8c-0.1,0,0-0.1-0.1-0.1c0-0.1-0.1-0.1-0.1-0.1c-0.3-0.1-0.6-0.2-0.5-0.4l0.4-1.1h2.2l0.4,1.1
		c0.1,0.2-0.1,0.3-0.4,0.4c0,0-0.1,0-0.1,0.1v0.1v0.8c0,0.1,0,0.1,0.1,0.1h3c0.1,0,0.1,0,0.1-0.1L336.3,132.1
		C336.4,132.2,336.4,132.1,336.3,132.1L336.3,132.1z M332.8,129.4c-0.1,0.1-0.2,0-0.2,0h-1c0,0-0.1,0-0.1,0l0.1-0.1l0.6-1.6l0.6,1.5
		C332.8,129.3,332.8,129.4,332.8,129.4L332.8,129.4z"/>
</g>
</svg>
