<?xml version="1.0" encoding="utf-8"?>
<!-- Generator: Adobe Illustrator 19.1.0, SVG Export Plug-In . SVG Version: 6.00 Build 0)  -->
<!DOCTYPE svg PUBLIC "-//W3C//DTD SVG 1.1//EN" "http://www.w3.org/Graphics/SVG/1.1/DTD/svg11.dtd">
<svg version="1.1" xmlns="http://www.w3.org/2000/svg" xmlns:xlink="http://www.w3.org/1999/xlink" x="0px" y="0px"
	 viewBox="0 0 142.3 91.5" style="enable-background:new 0 0 142.3 91.5;" xml:space="preserve">
<style type="text/css">
	.st0{display:none;}
	.st1{display:inline;}
	.st2{fill:#27AAE1;}
	.st3{display:inline;fill:#27AAE1;}
</style>
<g id="Layer_1" class="st0">
	<g class="st1">
		<path class="st2" d="M72.1,100.5H60.8c-0.3,0-0.5-0.2-0.6-0.5l-1.7-8c-1.3-0.3-2.5-0.6-3.7-1l-5.5,6c-0.2,0.2-0.5,0.3-0.7,0.1
			l-9.8-5.7c0,0-0.1,0-0.1-0.1H26.4l-5.3,3.4c-0.3,0.2-0.6,0.1-0.8-0.2c-0.2-0.3-0.1-0.6,0.2-0.8l5.4-3.5c0.1-0.1,0.2-0.1,0.3-0.1
			h12.5l1.3-4H22.5c-0.2,0-0.3-0.1-0.5-0.2l-9.6-11.6l-6.3-0.3c-0.4,1.2-1.6,2-2.9,2c-1.7,0-3.1-1.4-3.1-3.1c0-1.7,1.4-3.1,3.1-3.1
			c1.6,0,3,1.3,3.1,2.9l6.4,0.3c0.2,0,0.3,0.1,0.4,0.2l9.6,11.6h17.6l0.6-2c-1-0.9-1.9-1.8-2.7-2.7l-7.8,2.5c-0.3,0.1-0.6,0-0.7-0.3
			l-5.6-9.8c-0.1-0.2-0.1-0.5,0.1-0.7l6-5.5c-0.4-1.3-0.7-2.5-1-3.7l-8-1.7c-0.3-0.1-0.5-0.3-0.5-0.6V49.4c0-0.3,0.2-0.5,0.5-0.6
			l8-1.7c0.2-1.2,0.6-2.4,1-3.7l-6-5.5c-0.2-0.2-0.3-0.5-0.1-0.7l5.6-9.8c0.1-0.2,0.4-0.4,0.7-0.3l7.8,2.5c0.9-0.9,1.8-1.8,2.7-2.7
			l-2.5-7.8c-0.1-0.3,0-0.6,0.3-0.7l9.8-5.7c0.2-0.1,0.5-0.1,0.7,0.1l5.5,6c1.2-0.4,2.4-0.7,3.7-1l1.7-8c0.1-0.3,0.3-0.5,0.6-0.5
			h11.3c0.3,0,0.5,0.2,0.6,0.5l1.7,8c1.3,0.3,2.5,0.6,3.7,1l5.5-6c0.2-0.2,0.5-0.3,0.7-0.1l9.8,5.7c0.2,0.1,0.4,0.4,0.3,0.7
			l-2.5,7.8c0.9,0.9,1.8,1.8,2.7,2.7l4.9-1.6v-1.9c0-0.3,0.3-0.6,0.6-0.6c0.3,0,0.6,0.3,0.6,0.6v27c0,0.2-0.2,0.5-0.4,0.6
			c-8.2,3-13.7,10.7-13.7,19.1c0,11.3,9.6,20.5,21.4,20.5c6.4,0,12.4-2.7,16.5-7.5V59.8l-0.2-0.2c-2.3-2.6-5.3-4.7-8.7-5.9
			c-0.2-0.1-0.4-0.3-0.4-0.6v-27c0-0.3,0.3-0.6,0.6-0.6c0.3,0,0.6,0.3,0.6,0.6v26.6c3,1.2,5.8,3,8.1,5.3v-3.5c0-0.3,0.3-0.6,0.6-0.6
			c0.3,0,0.6,0.3,0.6,0.6v31.5c0,0,0,0,0,0v4c0,4.3,3,7.8,6.6,7.8s6.6-3.5,6.6-7.8V54.5c0-0.3,0.3-0.6,0.6-0.6
			c0.3,0,0.6,0.3,0.6,0.6V90c0,4.9-3.5,9-7.8,9s-7.8-4-7.8-9v-2.4c-4.3,4.4-10.2,6.9-16.5,6.9c-5.2,0-10-1.7-13.9-4.6l0.3,1
			c0.1,0.3,0,0.6-0.3,0.7l-9.8,5.7c-0.2,0.1-0.5,0.1-0.7-0.1l-5.5-6c-1.2,0.4-2.4,0.7-3.7,1l-1.7,8
			C72.7,100.3,72.4,100.5,72.1,100.5z M61.3,99.3h10.3l1.7-7.9c0.1-0.2,0.2-0.4,0.5-0.5c1.5-0.3,2.9-0.7,4.3-1.2
			c0.2-0.1,0.5,0,0.6,0.2l5.4,6l9-5.2l-0.7-2.3c-4.3-4-7-9.5-7-15.7c0-8.8,5.7-16.8,14.1-20.1V29.3l-4.9,1.6c-0.2,0.1-0.5,0-0.6-0.2
			c-1-1.1-2-2.1-3.1-3.1c-0.2-0.2-0.2-0.4-0.2-0.6l2.5-7.7l-9-5.2l-5.4,6c-0.2,0.2-0.4,0.2-0.6,0.2c-1.3-0.5-2.8-0.8-4.3-1.2
			c-0.2,0-0.4-0.2-0.5-0.5l-1.7-7.9H61.3l-1.7,7.9c-0.1,0.2-0.2,0.4-0.5,0.5c-1.5,0.3-3,0.7-4.3,1.1c-0.2,0.1-0.5,0-0.6-0.2l-5.4-6
			l-9,5.2l2.4,7.7c0.1,0.2,0,0.5-0.2,0.6c-1.1,1-2.1,2-3.1,3.1c-0.2,0.2-0.4,0.2-0.6,0.2l-7.7-2.4l-5.2,9l6,5.4
			c0.2,0.2,0.2,0.4,0.2,0.6c-0.5,1.6-0.9,3-1.2,4.3c0,0.2-0.2,0.4-0.5,0.5l-7.9,1.7v10.3l7.9,1.7c0.2,0.1,0.4,0.2,0.5,0.5
			c0.3,1.3,0.6,2.7,1.2,4.3c0.1,0.2,0,0.5-0.2,0.6l-6,5.4l5.2,9l7.7-2.5c0.2-0.1,0.5,0,0.6,0.2c0.9,1.1,2,2.1,3.1,3.1
			c0.2,0.2,0.2,0.4,0.2,0.6l-2.4,7.6c0,0,0,0.1,0,0.1l8.9,5.2l5.4-6c0.2-0.2,0.4-0.2,0.6-0.2c1.4,0.5,2.8,0.9,4.3,1.2
			c0.2,0,0.4,0.2,0.5,0.5L61.3,99.3z M3.4,71.3c-1,0-1.9,0.8-1.9,1.9c0,1,0.8,1.9,1.9,1.9c0.8,0,1.5-0.6,1.8-1.3c0,0,0-0.1,0-0.1
			c0-0.1,0-0.2,0.1-0.3c0,0,0-0.1,0-0.1C5.2,72.1,4.4,71.3,3.4,71.3z M66.5,73.9c-10.4,0-18.9-8.5-18.9-18.9
			c0-10.4,8.5-18.9,18.9-18.9c10.4,0,18.9,8.5,18.9,18.9C85.4,65.4,76.9,73.9,66.5,73.9z M66.5,37.3c-9.8,0-17.7,7.9-17.7,17.7
			c0,9.8,7.9,17.7,17.7,17.7c9.8,0,17.7-7.9,17.7-17.7C84.2,45.2,76.3,37.3,66.5,37.3z M106,12.9c-2.1,0-3.9-1.7-3.9-3.9
			c0-2.1,1.7-3.9,3.9-3.9c2.1,0,3.9,1.7,3.9,3.9C109.9,11.2,108.1,12.9,106,12.9z M106,6.4c-1.5,0-2.7,1.2-2.7,2.7
			c0,1.5,1.2,2.7,2.7,2.7c1.5,0,2.7-1.2,2.7-2.7C108.7,7.6,107.5,6.4,106,6.4z M110.6,3.2c-1.5,0-2.7-1.2-2.7-2.7
			c0-1.5,1.2-2.7,2.7-2.7s2.7,1.2,2.7,2.7C113.3,2,112.1,3.2,110.6,3.2z M110.6-1c-0.8,0-1.5,0.7-1.5,1.5c0,0.8,0.7,1.5,1.5,1.5
			s1.5-0.7,1.5-1.5C112.1-0.3,111.5-1,110.6-1z M105.1-4.1c-1.2,0-2.3-1-2.3-2.3s1-2.3,2.3-2.3s2.3,1,2.3,2.3S106.3-4.1,105.1-4.1z
			 M105.1-7.5c-0.6,0-1.1,0.5-1.1,1.1s0.5,1.1,1.1,1.1s1.1-0.5,1.1-1.1S105.7-7.5,105.1-7.5z"/>
		<path class="st2" d="M18.9,98.9c-1.7,0-3.1-1.4-3.1-3.1c0-1.7,1.4-3.1,3.1-3.1c1.7,0,3.1,1.4,3.1,3.1C22,97.6,20.6,98.9,18.9,98.9
			z M18.9,94c-1,0-1.9,0.8-1.9,1.9c0,1,0.8,1.9,1.9,1.9c1,0,1.9-0.8,1.9-1.9C20.8,94.9,19.9,94,18.9,94z M132.3,55.8
			c-4.5,0-9-1.1-9-3.3s4.5-3.3,9-3.3c4.5,0,9,1.1,9,3.3S136.8,55.8,132.3,55.8z M132.3,50.3c-4.8,0-7.8,1.3-7.8,2.1s3.1,2.1,7.8,2.1
			c4.8,0,7.8-1.3,7.8-2.1S137.1,50.3,132.3,50.3z M108,27.3c-4.7,0-9.8-1-9.8-3.1c0-2.2,5.1-3.1,9.8-3.1c4.7,0,9.8,1,9.8,3.1
			C117.7,26.4,112.7,27.3,108,27.3z M108,22.2c-5.3,0-8.6,1.3-8.6,2c0,0.7,3,2,8.6,2c5.5,0,8.6-1.3,8.6-2
			C116.5,23.5,113.5,22.2,108,22.2z"/>
	</g>
</g>
<g id="Layer_5" class="st0">
	<g class="st1">
		<path class="st2" d="M80.8,89.1H8.8c-0.3,0-0.6-0.3-0.6-0.6V1.8c0-0.3,0.3-0.6,0.6-0.6h71.9c0.3,0,0.6,0.3,0.6,0.6l0,19.1
			c1.5-0.7,3-1.2,4.7-1.5v-5c0-0.3,0.3-0.6,0.6-0.6h8c0.3,0,0.6,0.3,0.6,0.6v5c5,0.8,9.4,2.7,13.5,6c0.2,0.2,0.3,0.6,0.1,0.8
			l-4.7,6.6c-0.1,0.1-0.2,0.2-0.4,0.2c-0.2,0-0.3,0-0.5-0.1c-4.5-3.3-8.8-5-13.1-5c-4.5,0-7.5,2.1-7.5,5.3v0.1
			c0,3.3,1.7,4.9,11.3,7.2c0,0,0,0,0,0c11.6,2.8,16.4,7.2,16.4,15.1v0.1c0,8.4-5.8,14.2-15.2,15.2V76c0,0.3-0.3,0.6-0.6,0.6h-8
			c-0.3,0-0.6-0.3-0.6-0.6v-5.5c-1.6-0.3-3.1-0.7-4.7-1.3l0,19.3c0,0.2-0.1,0.3-0.2,0.4C81.1,89.1,81,89.1,80.8,89.1z M9.4,87.9
			h70.9l0-19.5c0,0,0,0,0,0l0-9c0,0,0,0,0,0l0-13.5c0,0,0,0,0,0l0-24c0,0,0,0,0,0l0-19.4H9.4V87.9z M87.3,75.4H94v-5
			c0-0.3,0.2-0.6,0.5-0.6c9-0.8,14.7-6.2,14.7-14.1v-0.1c0-7.3-4.3-11.2-15.5-13.9l0,0c-9.6-2.3-12.2-4.1-12.2-8.4v-0.1
			c0-3.8,3.6-6.5,8.7-6.5c4.4,0,8.8,1.6,13.3,4.9l4-5.6c-3.9-3-8.2-4.8-13-5.5c-0.3,0-0.5-0.3-0.5-0.6v-4.9h-6.8v4.9
			c0,0.3-0.2,0.5-0.5,0.6c-2,0.3-3.8,0.9-5.4,1.8l0,23.2c2.2,1,4.9,1.9,8.7,2.8c8.9,2.1,11.6,4,11.6,8.2v0.1c0,4.1-3.7,6.8-9.4,6.8
			c-4,0-7.5-0.9-10.9-2.9l0,7.5c1.7,0.7,3.5,1.2,5.4,1.5c0.3,0,0.5,0.3,0.5,0.6V75.4z M81.4,59.1c3.5,2.1,7,3.1,10.9,3.1
			c5,0,8.2-2.2,8.2-5.6v-0.1c0-3.1-1.6-4.9-10.7-7c-3.6-0.9-6.3-1.7-8.4-2.7L81.4,59.1z M66.9,80.5h-7.9c-1.9,0-3.4-1.5-3.4-3.4
			c0-1.9,1.5-3.4,3.4-3.4h7.9c1.9,0,3.4,1.5,3.4,3.4C70.3,79,68.8,80.5,66.9,80.5z M58.9,74.9c-1.2,0-2.2,1-2.2,2.2s1,2.2,2.2,2.2
			h7.9c1.2,0,2.2-1,2.2-2.2s-1-2.2-2.2-2.2H58.9z M48.8,80.5h-7.9c-1.9,0-3.4-1.5-3.4-3.4c0-1.9,1.5-3.4,3.4-3.4h7.9
			c1.9,0,3.4,1.5,3.4,3.4C52.2,79,50.7,80.5,48.8,80.5z M40.8,74.9c-1.2,0-2.2,1-2.2,2.2s1,2.2,2.2,2.2h7.9c1.2,0,2.2-1,2.2-2.2
			s-1-2.2-2.2-2.2H40.8z M30.7,80.5h-7.9c-1.9,0-3.4-1.5-3.4-3.4c0-1.9,1.5-3.4,3.4-3.4h7.9c1.9,0,3.4,1.5,3.4,3.4
			C34.1,79,32.5,80.5,30.7,80.5z M22.7,74.9c-1.2,0-2.2,1-2.2,2.2s1,2.2,2.2,2.2h7.9c1.2,0,2.2-1,2.2-2.2s-1-2.2-2.2-2.2H22.7z
			 M66.9,69.4h-7.9c-1.9,0-3.4-1.5-3.4-3.4c0-1.9,1.5-3.4,3.4-3.4h7.9c1.9,0,3.4,1.5,3.4,3.4C70.3,67.8,68.8,69.4,66.9,69.4z
			 M58.9,63.7c-1.2,0-2.2,1-2.2,2.2c0,1.2,1,2.2,2.2,2.2h7.9c1.2,0,2.2-1,2.2-2.2c0-1.2-1-2.2-2.2-2.2H58.9z M48.8,69.4h-7.9
			c-1.9,0-3.4-1.5-3.4-3.4c0-1.9,1.5-3.4,3.4-3.4h7.9c1.9,0,3.4,1.5,3.4,3.4C52.2,67.8,50.7,69.4,48.8,69.4z M40.8,63.7
			c-1.2,0-2.2,1-2.2,2.2c0,1.2,1,2.2,2.2,2.2h7.9c1.2,0,2.2-1,2.2-2.2c0-1.2-1-2.2-2.2-2.2H40.8z M30.7,69.4h-7.9
			c-1.9,0-3.4-1.5-3.4-3.4c0-1.9,1.5-3.4,3.4-3.4h7.9c1.9,0,3.4,1.5,3.4,3.4C34.1,67.8,32.5,69.4,30.7,69.4z M22.7,63.7
			c-1.2,0-2.2,1-2.2,2.2c0,1.2,1,2.2,2.2,2.2h7.9c1.2,0,2.2-1,2.2-2.2c0-1.2-1-2.2-2.2-2.2H22.7z M66.9,58.2h-7.9
			c-1.9,0-3.4-1.5-3.4-3.4c0-1.9,1.5-3.4,3.4-3.4h7.9c1.9,0,3.4,1.5,3.4,3.4C70.3,56.7,68.8,58.2,66.9,58.2z M58.9,52.6
			c-1.2,0-2.2,1-2.2,2.2s1,2.2,2.2,2.2h7.9c1.2,0,2.2-1,2.2-2.2s-1-2.2-2.2-2.2H58.9z M48.8,58.2h-7.9c-1.9,0-3.4-1.5-3.4-3.4
			c0-1.9,1.5-3.4,3.4-3.4h7.9c1.9,0,3.4,1.5,3.4,3.4C52.2,56.7,50.7,58.2,48.8,58.2z M40.8,52.6c-1.2,0-2.2,1-2.2,2.2s1,2.2,2.2,2.2
			h7.9c1.2,0,2.2-1,2.2-2.2s-1-2.2-2.2-2.2H40.8z M30.7,58.2h-7.9c-1.9,0-3.4-1.5-3.4-3.4c0-1.9,1.5-3.4,3.4-3.4h7.9
			c1.9,0,3.4,1.5,3.4,3.4C34.1,56.7,32.5,58.2,30.7,58.2z M22.7,52.6c-1.2,0-2.2,1-2.2,2.2s1,2.2,2.2,2.2h7.9c1.2,0,2.2-1,2.2-2.2
			s-1-2.2-2.2-2.2H22.7z M119.5,57.3c-0.1,0-0.3-0.1-0.4-0.2l-5.2-4.9c-0.1-0.1-0.2-0.3-0.2-0.4s0.1-0.3,0.2-0.4l4.8-5.1
			c0.2-0.2,0.6-0.2,0.8,0c0.2,0.2,0.2,0.6,0,0.8l-3.9,4.1l19.9,0c0.3,0,0.6,0.3,0.6,0.6s-0.3,0.6-0.6,0.6l-19.7,0l4.1,3.9
			c0.2,0.2,0.2,0.6,0,0.8C119.8,57.3,119.7,57.3,119.5,57.3z M130.3,46c-0.2,0-0.3-0.1-0.4-0.2c-0.2-0.2-0.2-0.6,0-0.8l4.1-3.9
			l-19.7,0c-0.3,0-0.6-0.3-0.6-0.6s0.3-0.6,0.6-0.6l19.9,0l-3.9-4.1c-0.2-0.2-0.2-0.6,0-0.8c0.2-0.2,0.6-0.2,0.8,0L136,40
			c0.1,0.1,0.2,0.3,0.2,0.4c0,0.2-0.1,0.3-0.2,0.4l-5.2,4.9C130.6,46,130.5,46,130.3,46z M70.5,41H19.1c-0.3,0-0.6-0.3-0.6-0.6V9.5
			c0-0.3,0.3-0.6,0.6-0.6h51.4c0.3,0,0.6,0.3,0.6,0.6v30.9C71.1,40.7,70.8,41,70.5,41z M19.7,39.8h50.2V10.1H19.7V39.8z"/>
	</g>
</g>
<g id="Layer_4" class="st0">
	<g class="st1">
		<path class="st2" d="M123.8,100.5H63.7c-0.3,0-0.6-0.2-0.6-0.6v-5l-43.5,0c-0.1,0-0.3-0.1-0.4-0.2c-0.1-0.1-0.2-0.2-0.2-0.4V26.8
			c0-0.3,0.2-0.6,0.6-0.6h30.9l0-20.8c0-0.3,0.2-0.6,0.6-0.6H71c0.3,0,0.6,0.2,0.6,0.6v34.4c3.7-1.9,19.4-8.5,33.7,1.4
			c0.1,0.1,0.2,0.3,0.2,0.5l0,32c0,0.1,0,0.1,0,0.2c5.8,4.5,9.6,11.3,9.7,18.9c7.8,1.7,9.2,6.7,9.2,7c0,0.2,0,0.3-0.1,0.5
			C124.2,100.4,124,100.5,123.8,100.5z M64.3,99.4H123c-0.7-1.4-2.7-4.4-8.5-5.5c-0.3-0.1-0.5-0.3-0.4-0.6c0,0,0,0,0-0.1
			c0,0,0,0,0-0.1c0-0.1,0-0.1,0-0.2c-0.2-12.9-11.4-23.4-24.9-23.4c-13.7,0-24.9,10.7-24.9,23.8v0.5c0.1,0,0.1,0,0.2,0h18.9v-2
			c0-0.3,0.2-0.6,0.6-0.6h6.7c0.3,0,0.6,0.2,0.6,0.6v2h17.4c0.3,0,0.6,0.2,0.6,0.6s-0.2,0.6-0.6,0.6H64.4c-0.1,0-0.1,0-0.2,0V99.4z
			 M20.2,70.4v23.4l43,0v-0.5c0-6.7,2.8-12.8,7.3-17.3c0,0,0-0.1,0-0.1V6H51.6l0,20.8c0,0,0,0,0,0.1V76c0,0.3-0.2,0.6-0.6,0.6
			c-0.1,0-0.3-0.1-0.4-0.2c-0.1-0.1-0.2-0.2-0.2-0.4l0-48.7H20.2v17.9h13.9c0.3,0,0.6,0.2,0.6,0.6c0,0.3-0.2,0.6-0.6,0.6H20.2v4.9
			h13.9c0.3,0,0.6,0.2,0.6,0.6s-0.2,0.6-0.6,0.6H20.2v4.9h13.9c0.3,0,0.6,0.2,0.6,0.6c0,0.3-0.2,0.6-0.6,0.6H20.2v4.9h13.9
			c0.3,0,0.6,0.2,0.6,0.6s-0.2,0.6-0.6,0.6H20.2v4.9h13.9c0.3,0,0.6,0.2,0.6,0.6s-0.2,0.6-0.6,0.6H20.2z M84.4,93.7H90v-1.3h-5.6
			V93.7z M71.5,41.1V75c4.6-4.1,10.8-6.6,17.6-6.6c5.7,0,10.9,1.8,15.2,4.8l0-31.2C89.8,32.1,73.8,39.9,71.5,41.1z M105.5,82.6
			c-0.2,0-0.3-0.1-0.4-0.2c-3.8-5.1-9.9-8.1-16.5-8.1c-2.5,0-4.9,0.4-7.2,1.3c-0.3,0.1-0.6,0-0.7-0.3c-0.1-0.3,0-0.6,0.3-0.7
			c2.4-0.9,5-1.3,7.6-1.3c6.9,0,13.4,3.2,17.4,8.6c0.2,0.2,0.1,0.6-0.1,0.8C105.7,82.6,105.6,82.6,105.5,82.6z M62.1,3.6
			c-0.6,0-0.6-0.6-0.6-1c0-1.2,0.4-5.1,6.7-5.3c4.9-0.6,6.6-2.1,6.5-5.8c0-0.3,0.2-0.6,0.5-0.6c0.3,0,0.6,0.2,0.6,0.5
			c0.2,4.2-2,6.2-7.5,6.9c-2.3,0.1-3.9,0.6-4.8,1.7c-1,1.2-0.8,2.6-0.8,2.7c0,0,0,0.1,0,0.1C62.7,3.3,62.4,3.6,62.1,3.6z M56.8,3.5
			c-0.3,0-0.5-0.2-0.5-0.5c0-0.1-0.9-7.2,6.7-8.4c0.5-0.1,1-0.1,1.6-0.2c3.2-0.3,5.5-0.7,5.8-3.3c0-0.3,0.3-0.5,0.6-0.5
			c0.3,0,0.5,0.3,0.5,0.6c-0.4,3.8-4.1,4.1-6.8,4.3c-0.5,0-1.1,0.1-1.5,0.2c-6.6,1-5.8,6.9-5.8,7.1C57.4,3.2,57.2,3.4,56.8,3.5
			C56.9,3.5,56.9,3.5,56.8,3.5z"/>
	</g>
</g>
<g id="Layer_3">
	<g>
		<path class="st2" d="M116.6,90.9c-3.1,0-5.6-2.5-5.6-5.6c0-2.4,1.6-4.5,3.7-5.3L111,67.4c-0.4,0.1-0.8,0.2-1.1,0.2
			c-1.2,0.3-2.4,0.4-3.6,0.4H52.4v4.7c0,0.3-0.3,0.6-0.6,0.6H25.3c-0.3,0-0.6-0.3-0.6-0.6v-5.1C11.5,66.9,1.2,56,1.2,42.8
			C1.2,29.2,12.3,18,26,18c1.7,0,3.5,0.2,5.3,0.6c5.8-11.1,17.2-17.9,30-17.9c15.4,0,28.7,10,32.6,24.5c3.6-2.2,7.8-3.4,12.1-3.4
			c6.7,0,12.8,2.9,17,7.5l9.7-8.9c-0.9-0.9-1.4-2.1-1.4-3.4c0-2.7,2.2-4.9,4.9-4.9s4.9,2.2,4.9,4.9s-2.2,4.9-4.9,4.9
			c-0.9,0-1.8-0.3-2.5-0.7l-9.9,9.1c3.3,4,5.2,9.1,5.2,14.6c0,10.4-6.9,19.4-16.8,22.2l3.6,12.6c0.2,0,0.5,0,0.7,0
			c3.1,0,5.6,2.5,5.6,5.6S119.7,90.9,116.6,90.9z M116.6,80.8c-2.4,0-4.4,2-4.4,4.4c0,2.4,2,4.4,4.4,4.4c2.4,0,4.4-2,4.4-4.4
			C121,82.8,119,80.8,116.6,80.8z M25.9,72.1h25.3V50.2H25.9V72.1z M52.4,66.8h53.9c1.1,0,2.2-0.1,3.4-0.4c0.3-0.1,0.7-0.1,1-0.2
			l-2.9-10.1c-1,0.3-2.1,0.4-3.2,0.4c-6.5,0-11.8-5.3-11.8-11.8c0-0.4,0-0.9,0.1-1.3l-14.9-4c-0.6,1.9-2.5,3.3-4.6,3.3
			c-2.7,0-4.9-2.2-4.9-4.9c0-2.7,2.2-4.9,4.9-4.9c2.7,0,4.9,2.2,4.9,4.9c0,0.1,0,0.2,0,0.3l14.8,4c1.2-5.3,5.9-9.3,11.5-9.3
			c3.8,0,7.2,1.8,9.4,4.7c0,0,0,0,0,0l8-7.4c-4-4.4-9.7-7.1-16.1-7.1c-4.3,0-8.5,1.3-12.1,3.7c-0.2,0.1-0.4,0.1-0.6,0.1
			c-0.2-0.1-0.3-0.2-0.4-0.4C89.4,12,76.4,1.9,61.3,1.9c-12.4,0-23.6,6.8-29.1,17.7c-0.1,0.3-0.4,0.4-0.7,0.3
			c-1.9-0.5-3.7-0.7-5.5-0.7c-13,0-23.6,10.6-23.6,23.6c0,12.5,9.8,22.8,22.3,23.5V49.6c0-0.3,0.3-0.6,0.6-0.6h4.1v-2.4
			c0-5.3,4.1-9.6,9.1-9.6c5,0,9.1,4.3,9.1,9.6v2.4h4.1c0.3,0,0.6,0.3,0.6,0.6V66.8z M108.9,55.7l2.9,10.2c9.3-2.6,15.9-11.1,15.9-21
			c0-5.2-1.8-10-4.9-13.8l-8,7.4c-0.1,0-0.1,0.1-0.2,0.1c1.1,1.8,1.7,3.9,1.7,6.1C116.4,49.7,113.3,53.9,108.9,55.7z M104.6,34.1
			c-5.8,0-10.6,4.7-10.6,10.6c0,5.8,4.7,10.6,10.6,10.6c5.8,0,10.6-4.7,10.6-10.6C115.2,38.9,110.4,34.1,104.6,34.1z M30.7,48.9
			h15.8v-2.4c0-4.6-3.5-8.4-7.9-8.4c-4.4,0-7.9,3.8-7.9,8.4V48.9z M73.4,34.2c-2,0-3.6,1.6-3.6,3.6c0,2,1.6,3.6,3.6,3.6
			c1.7,0,3.2-1.2,3.5-2.8c0-0.1,0-0.1,0-0.2c0,0,0-0.1,0-0.1c0-0.2,0-0.3,0-0.5C77,35.9,75.4,34.2,73.4,34.2z M136.1,13.4
			c-2,0-3.6,1.6-3.6,3.6s1.6,3.6,3.6,3.6s3.6-1.6,3.6-3.6S138.1,13.4,136.1,13.4z M38.6,64.3c-1.7,0-3-1.4-3-3c0-1.7,1.4-3,3-3
			s3,1.4,3,3C41.6,63,40.2,64.3,38.6,64.3z M38.6,59.5c-1,0-1.8,0.8-1.8,1.8c0,1,0.8,1.8,1.8,1.8s1.8-0.8,1.8-1.8
			C40.3,60.3,39.5,59.5,38.6,59.5z"/>
	</g>
</g>
<g id="Layer_2" class="st0">
	<path class="st3" d="M479.1,185.2h-3.9c-0.3,0-0.6-0.3-0.6-0.6s0.3-0.6,0.6-0.6h3.3v-8.2h-3.8c-0.3,0-0.6-0.3-0.6-0.6
		c0-0.3,0.3-0.6,0.6-0.6h4.4c0.3,0,0.6,0.3,0.6,0.6v9.4C479.7,184.9,479.4,185.2,479.1,185.2z"/>
	<path class="st3" d="M493.2,185.2h-7.3c-0.3,0-0.6-0.3-0.6-0.6v-9.4c0-0.3,0.3-0.6,0.6-0.6h7.3c0.3,0,0.6,0.3,0.6,0.6v9.4
		C493.8,184.9,493.5,185.2,493.2,185.2z M486.5,184h6.1v-8.2h-6.1V184z"/>
	<path class="st3" d="M493.2,202.1h-4.5c-0.3,0-0.6-0.3-0.6-0.6s0.3-0.6,0.6-0.6h3.9v-8.2h-6.1v1.7c0,0.3-0.3,0.6-0.6,0.6
		s-0.6-0.3-0.6-0.6v-2.3c0-0.3,0.3-0.6,0.6-0.6h7.3c0.3,0,0.6,0.3,0.6,0.6v9.4C493.8,201.8,493.5,202.1,493.2,202.1z"/>
	<g class="st1">
		<path class="st2" d="M505.4,210.5h-16.9c-0.3,0-0.6-0.3-0.6-0.6s0.3-0.6,0.6-0.6h16.3v-93.6H460v50.1c0,0.3-0.3,0.6-0.6,0.6
			s-0.6-0.3-0.6-0.6V115c0-0.3,0.3-0.6,0.6-0.6h46c0.3,0,0.6,0.3,0.6,0.6v94.8C506,210.2,505.7,210.5,505.4,210.5z"/>
	</g>
	<path class="st3" d="M479.1,167.1h-7.3c-0.3,0-0.6-0.3-0.6-0.6v-9.4c0-0.3,0.3-0.6,0.6-0.6h7.3c0.3,0,0.6,0.3,0.6,0.6v9.4
		C479.7,166.9,479.4,167.1,479.1,167.1z M472.4,165.9h6.1v-8.2h-6.1V165.9z"/>
	<path class="st3" d="M493.2,167.1h-7.3c-0.3,0-0.6-0.3-0.6-0.6v-9.4c0-0.3,0.3-0.6,0.6-0.6h7.3c0.3,0,0.6,0.3,0.6,0.6v9.4
		C493.8,166.9,493.5,167.1,493.2,167.1z M486.5,165.9h6.1v-8.2h-6.1V165.9z"/>
	<path class="st3" d="M479.1,134.4h-7.3c-0.3,0-0.6-0.3-0.6-0.6v-9.4c0-0.3,0.3-0.6,0.6-0.6h7.3c0.3,0,0.6,0.3,0.6,0.6v9.4
		C479.7,134.2,479.4,134.4,479.1,134.4z M472.4,133.2h6.1V125h-6.1V133.2z"/>
	<path class="st3" d="M479.1,150.4h-7.3c-0.3,0-0.6-0.3-0.6-0.6v-9.4c0-0.3,0.3-0.6,0.6-0.6h7.3c0.3,0,0.6,0.3,0.6,0.6v9.4
		C479.7,150.1,479.4,150.4,479.1,150.4z M472.4,149.2h6.1V141h-6.1V149.2z"/>
	<path class="st3" d="M493.2,134.4h-7.3c-0.3,0-0.6-0.3-0.6-0.6v-9.4c0-0.3,0.3-0.6,0.6-0.6h7.3c0.3,0,0.6,0.3,0.6,0.6v9.4
		C493.8,134.2,493.5,134.4,493.2,134.4z M486.5,133.2h6.1V125h-6.1V133.2z"/>
	<path class="st3" d="M493.2,150.4h-7.3c-0.3,0-0.6-0.3-0.6-0.6v-9.4c0-0.3,0.3-0.6,0.6-0.6h7.3c0.3,0,0.6,0.3,0.6,0.6v9.4
		C493.8,150.1,493.5,150.4,493.2,150.4z M486.5,149.2h6.1V141h-6.1V149.2z"/>
	<g class="st1">
		<path class="st2" d="M432.3,229.3c-0.3,0-0.6-0.3-0.6-0.6v-15.6h-31.1c-0.3,0-0.6-0.3-0.6-0.6v-4c0-0.1,0-0.1,0-0.2
			c0-0.1,0-0.1,0-0.2v-23.8c0-4.9,4-8.9,8.9-8.9h5.9c-2.5-2.5-4-6-4-9.8c0-7.7,6.2-13.9,13.9-13.9c7.7,0,13.9,6.2,13.9,13.9
			c0,3.8-1.5,7.2-4,9.8h6.1c1.9,0,3.7,0.6,5.2,1.7c0.3,0.2,0.3,0.6,0.1,0.8c-0.2,0.3-0.6,0.3-0.8,0.1c-1.3-0.9-2.9-1.4-4.5-1.4h-7.5
			c-2.4,1.9-5.4,3-8.6,3s-6.2-1.1-8.6-3h-7.2c-4.2,0-7.7,3.4-7.7,7.7v23.8c0,0.1,0,0.1,0,0.2c0,0.1,0,0.1,0,0.2v3.4h30.5v-10.8
			c0-5.6,4.6-10.2,10.2-10.2h7.4c0.3,0,0.6,0.3,0.6,0.6s-0.3,0.6-0.6,0.6H442c-5,0-9,4-9,9v27.6C432.9,229,432.7,229.3,432.3,229.3z
			 M424.7,153c-7,0-12.7,5.7-12.7,12.7s5.7,12.7,12.7,12.7c7,0,12.7-5.7,12.7-12.7S431.7,153,424.7,153z"/>
		<path class="st2" d="M488.5,234.3h-56.2c-0.3,0-0.6-0.3-0.6-0.6V229c0-0.3,0.3-0.6,0.6-0.6s0.6,0.3,0.6,0.6v4.1h55l0-32
			c0-5-4-9-9-9H471c-0.3,0-0.6-0.3-0.6-0.6s0.3-0.6,0.6-0.6h7.9c5.6,0,10.2,4.6,10.2,10.2l0,32.6c0,0.2-0.1,0.3-0.2,0.4
			C488.8,234.3,488.7,234.3,488.5,234.3z"/>
		<path class="st2" d="M460.6,228.6c-0.1,0-0.3,0-0.4-0.1l-3.8-3.1c-0.1-0.1-0.2-0.3-0.2-0.5v-20.5h-0.8c-0.3,0-0.6-0.3-0.6-0.6
			v-5.1c0-0.3,0.3-0.6,0.6-0.6h10.4c0.3,0,0.6,0.3,0.6,0.6v5.1c0,0.3-0.3,0.6-0.6,0.6H465v20.5c0,0.2-0.1,0.4-0.2,0.5l-3.8,3.1
			C460.9,228.6,460.8,228.6,460.6,228.6z M457.4,224.6l3.2,2.6l3.2-2.6v-20.2h-6.4V224.6z M456,203.3h9.2v-3.9H456V203.3z
			 M460.3,196.6c-8.6,0-15.5-7-15.5-15.5c0-8.6,7-15.5,15.5-15.5c8.6,0,15.5,7,15.5,15.5C475.8,189.6,468.9,196.6,460.3,196.6z
			 M460.3,166.7c-7.9,0-14.3,6.4-14.3,14.3s6.4,14.3,14.3,14.3s14.3-6.4,14.3-14.3S468.2,166.7,460.3,166.7z"/>
	</g>
</g>
<g id="Layer_6">
</g>
</svg>
