<?xml version="1.0" encoding="utf-8"?>
<!-- Generator: Adobe Illustrator 19.1.0, SVG Export Plug-In . SVG Version: 6.00 Build 0)  -->
<!DOCTYPE svg PUBLIC "-//W3C//DTD SVG 1.1//EN" "http://www.w3.org/Graphics/SVG/1.1/DTD/svg11.dtd">
<svg version="1.1" id="Layer_1" xmlns="http://www.w3.org/2000/svg" xmlns:xlink="http://www.w3.org/1999/xlink" x="0px" y="0px"
	 viewBox="1 -47 123 115" style="enable-background:new 1 -47 123 115;" xml:space="preserve">
<style type="text/css">
	.st0{display:none;}
	.st1{display:inline;}
	.st2{fill:#27AAE1;}
	.st3{fill:none;stroke:#26A9E0;stroke-width:1.25;stroke-linecap:round;stroke-linejoin:round;stroke-miterlimit:10;}
	.st4{fill:#26A9E0;}
</style>
<g id="Layer_1_1_" class="st0">
	<g class="st1">
		<path class="st2" d="M73.1,65.5H61.8c-0.3,0-0.5-0.2-0.6-0.5l-1.7-8c-1.3-0.3-2.5-0.6-3.7-1l-5.5,6c-0.2,0.2-0.5,0.3-0.7,0.1
			l-9.8-5.7c0,0-0.1,0-0.1-0.1H27.4l-5.3,3.4c-0.3,0.2-0.6,0.1-0.8-0.2c-0.2-0.3-0.1-0.6,0.2-0.8l5.4-3.5c0.1-0.1,0.2-0.1,0.3-0.1
			h12.5l1.3-4H23.5c-0.2,0-0.3-0.1-0.5-0.2l-9.6-11.6L7.1,39c-0.4,1.2-1.6,2-2.9,2c-1.7,0-3.1-1.4-3.1-3.1s1.4-3.1,3.1-3.1
			c1.6,0,3,1.3,3.1,2.9l6.4,0.3c0.2,0,0.3,0.1,0.4,0.2l9.6,11.6h17.6l0.6-2c-1-0.9-1.9-1.8-2.7-2.7l-7.8,2.5c-0.3,0.1-0.6,0-0.7-0.3
			l-5.6-9.8C25,37.3,25,37,25.2,36.8l6-5.5c-0.4-1.3-0.7-2.5-1-3.7l-8-1.7c-0.3-0.1-0.5-0.3-0.5-0.6V14.4c0-0.3,0.2-0.5,0.5-0.6
			l8-1.7c0.2-1.2,0.6-2.4,1-3.7l-6-5.5c-0.2-0.2-0.3-0.5-0.1-0.7l5.6-9.8c0.1-0.2,0.4-0.4,0.7-0.3l7.8,2.5c0.9-0.9,1.8-1.8,2.7-2.7
			l-2.5-7.8c-0.1-0.3,0-0.6,0.3-0.7l9.8-5.7c0.2-0.1,0.5-0.1,0.7,0.1l5.5,6c1.2-0.4,2.4-0.7,3.7-1l1.7-8c0.1-0.3,0.3-0.5,0.6-0.5H73
			c0.3,0,0.5,0.2,0.6,0.5l1.7,8c1.3,0.3,2.5,0.6,3.7,1l5.5-6c0.2-0.2,0.5-0.3,0.7-0.1l9.8,5.7c0.2,0.1,0.4,0.4,0.3,0.7l-2.5,7.8
			c0.9,0.9,1.8,1.8,2.7,2.7l4.9-1.6v-1.9c0-0.3,0.3-0.6,0.6-0.6c0.3,0,0.6,0.3,0.6,0.6v27c0,0.2-0.2,0.5-0.4,0.6
			c-8.2,3-13.7,10.7-13.7,19.1c0,11.3,9.6,20.5,21.4,20.5c6.4,0,12.4-2.7,16.5-7.5v-26l-0.2-0.2c-2.3-2.6-5.3-4.7-8.7-5.9
			c-0.2-0.1-0.4-0.3-0.4-0.6v-27c0-0.3,0.3-0.6,0.6-0.6c0.3,0,0.6,0.3,0.6,0.6v26.6c3,1.2,5.8,3,8.1,5.3v-3.5c0-0.3,0.3-0.6,0.6-0.6
			c0.3,0,0.6,0.3,0.6,0.6V51l0,0v4c0,4.3,3,7.8,6.6,7.8s6.6-3.5,6.6-7.8V19.5c0-0.3,0.3-0.6,0.6-0.6s0.6,0.3,0.6,0.6V55
			c0,4.9-3.5,9-7.8,9s-7.8-4-7.8-9v-2.4c-4.3,4.4-10.2,6.9-16.5,6.9c-5.2,0-10-1.7-13.9-4.6l0.3,1c0.1,0.3,0,0.6-0.3,0.7l-9.8,5.7
			c-0.2,0.1-0.5,0.1-0.7-0.1l-5.5-6c-1.2,0.4-2.4,0.7-3.7,1l-1.7,8C73.7,65.3,73.4,65.5,73.1,65.5z M62.3,64.3h10.3l1.7-7.9
			c0.1-0.2,0.2-0.4,0.5-0.5c1.5-0.3,2.9-0.7,4.3-1.2c0.2-0.1,0.5,0,0.6,0.2l5.4,6l9-5.2l-0.7-2.3c-4.3-4-7-9.5-7-15.7
			c0-8.8,5.7-16.8,14.1-20.1V-5.7l-4.9,1.6c-0.2,0.1-0.5,0-0.6-0.2c-1-1.1-2-2.1-3.1-3.1c-0.2-0.2-0.2-0.4-0.2-0.6l2.5-7.7l-9-5.2
			l-5.4,6c-0.2,0.2-0.4,0.2-0.6,0.2c-1.3-0.5-2.8-0.8-4.3-1.2c-0.2,0-0.4-0.2-0.5-0.5l-1.7-7.9H62.3l-1.7,7.9
			c-0.1,0.2-0.2,0.4-0.5,0.5c-1.5,0.3-3,0.7-4.3,1.1c-0.2,0.1-0.5,0-0.6-0.2l-5.4-6l-9,5.2l2.4,7.7c0.1,0.2,0,0.5-0.2,0.6
			c-1.1,1-2.1,2-3.1,3.1c-0.2,0.2-0.4,0.2-0.6,0.2l-7.7-2.4l-5.2,9l6,5.4c0.2,0.2,0.2,0.4,0.2,0.6c-0.5,1.6-0.9,3-1.2,4.3
			c0,0.2-0.2,0.4-0.5,0.5L23,14.9v10.3l7.9,1.7c0.2,0.1,0.4,0.2,0.5,0.5c0.3,1.3,0.6,2.7,1.2,4.3c0.1,0.2,0,0.5-0.2,0.6l-6,5.4
			l5.2,9l7.7-2.5c0.2-0.1,0.5,0,0.6,0.2c0.9,1.1,2,2.1,3.1,3.1c0.2,0.2,0.2,0.4,0.2,0.6l-2.4,7.6v0.1l8.9,5.2l5.4-6
			c0.2-0.2,0.4-0.2,0.6-0.2c1.4,0.5,2.8,0.9,4.3,1.2c0.2,0,0.4,0.2,0.5,0.5L62.3,64.3z M4.4,36.3c-1,0-1.9,0.8-1.9,1.9
			c0,1,0.8,1.9,1.9,1.9c0.8,0,1.5-0.6,1.8-1.3v-0.1c0-0.1,0-0.2,0.1-0.3v-0.1C6.2,37.1,5.4,36.3,4.4,36.3z M67.5,38.9
			c-10.4,0-18.9-8.5-18.9-18.9S57.1,1.1,67.5,1.1S86.4,9.6,86.4,20S77.9,38.9,67.5,38.9z M67.5,2.3c-9.8,0-17.7,7.9-17.7,17.7
			s7.9,17.7,17.7,17.7S85.2,29.8,85.2,20S77.3,2.3,67.5,2.3z M107-22.1c-2.1,0-3.9-1.7-3.9-3.9c0-2.1,1.7-3.9,3.9-3.9
			c2.1,0,3.9,1.7,3.9,3.9S109.1-22.1,107-22.1z M107-28.6c-1.5,0-2.7,1.2-2.7,2.7s1.2,2.7,2.7,2.7s2.7-1.2,2.7-2.7
			S108.5-28.6,107-28.6z M111.6-31.8c-1.5,0-2.7-1.2-2.7-2.7s1.2-2.7,2.7-2.7s2.7,1.2,2.7,2.7C114.3-33,113.1-31.8,111.6-31.8z
			 M111.6-36c-0.8,0-1.5,0.7-1.5,1.5s0.7,1.5,1.5,1.5s1.5-0.7,1.5-1.5S112.5-36,111.6-36z M106.1-39.1c-1.2,0-2.3-1-2.3-2.3
			c0-1.3,1-2.3,2.3-2.3s2.3,1,2.3,2.3C108.4-40.1,107.3-39.1,106.1-39.1z M106.1-42.5c-0.6,0-1.1,0.5-1.1,1.1c0,0.6,0.5,1.1,1.1,1.1
			s1.1-0.5,1.1-1.1C107.2-42,106.7-42.5,106.1-42.5z"/>
		<path class="st2" d="M19.9,63.9c-1.7,0-3.1-1.4-3.1-3.1s1.4-3.1,3.1-3.1s3.1,1.4,3.1,3.1C23,62.6,21.6,63.9,19.9,63.9z M19.9,59
			c-1,0-1.9,0.8-1.9,1.9c0,1,0.8,1.9,1.9,1.9c1,0,1.9-0.8,1.9-1.9C21.8,59.9,20.9,59,19.9,59z M133.3,20.8c-4.5,0-9-1.1-9-3.3
			c0-2.2,4.5-3.3,9-3.3s9,1.1,9,3.3C142.3,19.7,137.8,20.8,133.3,20.8z M133.3,15.3c-4.8,0-7.8,1.3-7.8,2.1s3.1,2.1,7.8,2.1
			c4.8,0,7.8-1.3,7.8-2.1S138.1,15.3,133.3,15.3z M109-7.7c-4.7,0-9.8-1-9.8-3.1c0-2.2,5.1-3.1,9.8-3.1c4.7,0,9.8,1,9.8,3.1
			C118.7-8.6,113.7-7.7,109-7.7z M109-12.8c-5.3,0-8.6,1.3-8.6,2s3,2,8.6,2c5.5,0,8.6-1.3,8.6-2C117.5-11.5,114.5-12.8,109-12.8z"/>
	</g>
</g>
<g id="Layer_5" class="st0">
	<g class="st1">
		<path class="st2" d="M81.8,54.1h-72c-0.3,0-0.6-0.3-0.6-0.6v-86.7c0-0.3,0.3-0.6,0.6-0.6h71.9c0.3,0,0.6,0.3,0.6,0.6v19.1
			c1.5-0.7,3-1.2,4.7-1.5v-5c0-0.3,0.3-0.6,0.6-0.6h8c0.3,0,0.6,0.3,0.6,0.6v5c5,0.8,9.4,2.7,13.5,6c0.2,0.2,0.3,0.6,0.1,0.8
			l-4.7,6.6C105-2.1,104.9-2,104.7-2c-0.2,0-0.3,0-0.5-0.1c-4.5-3.3-8.8-5-13.1-5c-4.5,0-7.5,2.1-7.5,5.3v0.1
			c0,3.3,1.7,4.9,11.3,7.2l0,0c11.6,2.8,16.4,7.2,16.4,15.1v0.1c0,8.4-5.8,14.2-15.2,15.2V41c0,0.3-0.3,0.6-0.6,0.6h-8
			c-0.3,0-0.6-0.3-0.6-0.6v-5.5c-1.6-0.3-3.1-0.7-4.7-1.3v19.3c0,0.2-0.1,0.3-0.2,0.4C82.1,54.1,82,54.1,81.8,54.1z M10.4,52.9h70.9
			V33.4l0,0v-9l0,0V10.9l0,0v-24l0,0v-19.4H10.4V52.9z M88.3,40.4H95v-5c0-0.3,0.2-0.6,0.5-0.6c9-0.8,14.7-6.2,14.7-14.1v-0.1
			c0-7.3-4.3-11.2-15.5-13.9l0,0c-9.6-2.3-12.2-4.1-12.2-8.4v-0.1c0-3.8,3.6-6.5,8.7-6.5c4.4,0,8.8,1.6,13.3,4.9l4-5.6
			c-3.9-3-8.2-4.8-13-5.5c-0.3,0-0.5-0.3-0.5-0.6V-20h-6.8v4.9c0,0.3-0.2,0.5-0.5,0.6c-2,0.3-3.8,0.9-5.4,1.8v23.2
			c2.2,1,4.9,1.9,8.7,2.8c8.9,2.1,11.6,4,11.6,8.2v0.1c0,4.1-3.7,6.8-9.4,6.8c-4,0-7.5-0.9-10.9-2.9V33c1.7,0.7,3.5,1.2,5.4,1.5
			c0.3,0,0.5,0.3,0.5,0.6v5.3H88.3z M82.4,24.1c3.5,2.1,7,3.1,10.9,3.1c5,0,8.2-2.2,8.2-5.6v-0.1c0-3.1-1.6-4.9-10.7-7
			c-3.6-0.9-6.3-1.7-8.4-2.7V24.1z M67.9,45.5H60c-1.9,0-3.4-1.5-3.4-3.4s1.5-3.4,3.4-3.4h7.9c1.9,0,3.4,1.5,3.4,3.4
			S69.8,45.5,67.9,45.5z M59.9,39.9c-1.2,0-2.2,1-2.2,2.2s1,2.2,2.2,2.2h7.9c1.2,0,2.2-1,2.2-2.2s-1-2.2-2.2-2.2H59.9z M49.8,45.5
			h-7.9c-1.9,0-3.4-1.5-3.4-3.4s1.5-3.4,3.4-3.4h7.9c1.9,0,3.4,1.5,3.4,3.4S51.7,45.5,49.8,45.5z M41.8,39.9c-1.2,0-2.2,1-2.2,2.2
			s1,2.2,2.2,2.2h7.9c1.2,0,2.2-1,2.2-2.2s-1-2.2-2.2-2.2H41.8z M31.7,45.5h-7.9c-1.9,0-3.4-1.5-3.4-3.4s1.5-3.4,3.4-3.4h7.9
			c1.9,0,3.4,1.5,3.4,3.4C35.1,44,33.5,45.5,31.7,45.5z M23.7,39.9c-1.2,0-2.2,1-2.2,2.2s1,2.2,2.2,2.2h7.9c1.2,0,2.2-1,2.2-2.2
			s-1-2.2-2.2-2.2H23.7z M67.9,34.4H60c-1.9,0-3.4-1.5-3.4-3.4s1.5-3.4,3.4-3.4h7.9c1.9,0,3.4,1.5,3.4,3.4
			C71.3,32.8,69.8,34.4,67.9,34.4z M59.9,28.7c-1.2,0-2.2,1-2.2,2.2s1,2.2,2.2,2.2h7.9c1.2,0,2.2-1,2.2-2.2s-1-2.2-2.2-2.2H59.9z
			 M49.8,34.4h-7.9c-1.9,0-3.4-1.5-3.4-3.4s1.5-3.4,3.4-3.4h7.9c1.9,0,3.4,1.5,3.4,3.4C53.2,32.8,51.7,34.4,49.8,34.4z M41.8,28.7
			c-1.2,0-2.2,1-2.2,2.2s1,2.2,2.2,2.2h7.9c1.2,0,2.2-1,2.2-2.2s-1-2.2-2.2-2.2H41.8z M31.7,34.4h-7.9c-1.9,0-3.4-1.5-3.4-3.4
			s1.5-3.4,3.4-3.4h7.9c1.9,0,3.4,1.5,3.4,3.4C35.1,32.8,33.5,34.4,31.7,34.4z M23.7,28.7c-1.2,0-2.2,1-2.2,2.2s1,2.2,2.2,2.2h7.9
			c1.2,0,2.2-1,2.2-2.2s-1-2.2-2.2-2.2H23.7z M67.9,23.2H60c-1.9,0-3.4-1.5-3.4-3.4s1.5-3.4,3.4-3.4h7.9c1.9,0,3.4,1.5,3.4,3.4
			S69.8,23.2,67.9,23.2z M59.9,17.6c-1.2,0-2.2,1-2.2,2.2s1,2.2,2.2,2.2h7.9c1.2,0,2.2-1,2.2-2.2s-1-2.2-2.2-2.2H59.9z M49.8,23.2
			h-7.9c-1.9,0-3.4-1.5-3.4-3.4s1.5-3.4,3.4-3.4h7.9c1.9,0,3.4,1.5,3.4,3.4S51.7,23.2,49.8,23.2z M41.8,17.6c-1.2,0-2.2,1-2.2,2.2
			s1,2.2,2.2,2.2h7.9c1.2,0,2.2-1,2.2-2.2s-1-2.2-2.2-2.2H41.8z M31.7,23.2h-7.9c-1.9,0-3.4-1.5-3.4-3.4s1.5-3.4,3.4-3.4h7.9
			c1.9,0,3.4,1.5,3.4,3.4C35.1,21.7,33.5,23.2,31.7,23.2z M23.7,17.6c-1.2,0-2.2,1-2.2,2.2s1,2.2,2.2,2.2h7.9c1.2,0,2.2-1,2.2-2.2
			s-1-2.2-2.2-2.2H23.7z M120.5,22.3c-0.1,0-0.3-0.1-0.4-0.2l-5.2-4.9c-0.1-0.1-0.2-0.3-0.2-0.4s0.1-0.3,0.2-0.4l4.8-5.1
			c0.2-0.2,0.6-0.2,0.8,0c0.2,0.2,0.2,0.6,0,0.8l-3.9,4.1h19.9c0.3,0,0.6,0.3,0.6,0.6s-0.3,0.6-0.6,0.6h-19.7l4.1,3.9
			c0.2,0.2,0.2,0.6,0,0.8C120.8,22.3,120.7,22.3,120.5,22.3z M131.3,11c-0.2,0-0.3-0.1-0.4-0.2c-0.2-0.2-0.2-0.6,0-0.8l4.1-3.9
			h-19.7c-0.3,0-0.6-0.3-0.6-0.6s0.3-0.6,0.6-0.6h19.9l-3.9-4.1c-0.2-0.2-0.2-0.6,0-0.8s0.6-0.2,0.8,0l4.9,5
			c0.1,0.1,0.2,0.3,0.2,0.4c0,0.2-0.1,0.3-0.2,0.4l-5.2,4.9C131.6,11,131.5,11,131.3,11z M71.5,6H20.1c-0.3,0-0.6-0.3-0.6-0.6v-30.9
			c0-0.3,0.3-0.6,0.6-0.6h51.4c0.3,0,0.6,0.3,0.6,0.6V5.4C72.1,5.7,71.8,6,71.5,6z M20.7,4.8h50.2v-29.7H20.7V4.8z"/>
	</g>
</g>
<g id="Layer_4" class="st0">
	<g class="st1">
		<path class="st2" d="M124.8,65.5H64.7c-0.3,0-0.6-0.2-0.6-0.6v-5H20.6c-0.1,0-0.3-0.1-0.4-0.2S20,59.5,20,59.3V-8.2
			c0-0.3,0.2-0.6,0.6-0.6h30.9v-20.8c0-0.3,0.2-0.6,0.6-0.6H72c0.3,0,0.6,0.2,0.6,0.6V4.8c3.7-1.9,19.4-8.5,33.7,1.4
			c0.1,0.1,0.2,0.3,0.2,0.5v32c0,0.1,0,0.1,0,0.2c5.8,4.5,9.6,11.3,9.7,18.9c7.8,1.7,9.2,6.7,9.2,7c0,0.2,0,0.3-0.1,0.5
			C125.2,65.4,125,65.5,124.8,65.5z M65.3,64.4H124c-0.7-1.4-2.7-4.4-8.5-5.5c-0.3-0.1-0.5-0.3-0.4-0.6c0,0,0,0,0-0.1c0,0,0,0,0-0.1
			s0-0.1,0-0.2c-0.2-12.9-11.4-23.4-24.9-23.4c-13.7,0-24.9,10.7-24.9,23.8v0.5c0.1,0,0.1,0,0.2,0h18.9v-2c0-0.3,0.2-0.6,0.6-0.6
			h6.7c0.3,0,0.6,0.2,0.6,0.6v2h17.4c0.3,0,0.6,0.2,0.6,0.6s-0.2,0.6-0.6,0.6H65.4c-0.1,0-0.1,0-0.2,0L65.3,64.4L65.3,64.4z
			 M21.2,35.4v23.4h43v-0.5c0-6.7,2.8-12.8,7.3-17.3v-0.1V-29H52.6v20.8c0,0,0,0,0,0.1V41c0,0.3-0.2,0.6-0.6,0.6
			c-0.1,0-0.3-0.1-0.4-0.2c-0.1-0.1-0.2-0.2-0.2-0.4V-7.7H21.2v17.9h13.9c0.3,0,0.6,0.2,0.6,0.6c0,0.3-0.2,0.6-0.6,0.6H21.2v4.9
			h13.9c0.3,0,0.6,0.2,0.6,0.6c0,0.3-0.2,0.6-0.6,0.6H21.2v4.9h13.9c0.3,0,0.6,0.2,0.6,0.6s-0.2,0.6-0.6,0.6H21.2v4.9h13.9
			c0.3,0,0.6,0.2,0.6,0.6s-0.2,0.6-0.6,0.6H21.2v4.9h13.9c0.3,0,0.6,0.2,0.6,0.6s-0.2,0.6-0.6,0.6H21.2V35.4z M85.4,58.7H91v-1.3
			h-5.6V58.7z M72.5,6.1V40c4.6-4.1,10.8-6.6,17.6-6.6c5.7,0,10.9,1.8,15.2,4.8V7C90.8-2.9,74.8,4.9,72.5,6.1z M106.5,47.6
			c-0.2,0-0.3-0.1-0.4-0.2c-3.8-5.1-9.9-8.1-16.5-8.1c-2.5,0-4.9,0.4-7.2,1.3c-0.3,0.1-0.6,0-0.7-0.3s0-0.6,0.3-0.7
			c2.4-0.9,5-1.3,7.6-1.3c6.9,0,13.4,3.2,17.4,8.6c0.2,0.2,0.1,0.6-0.1,0.8C106.7,47.6,106.6,47.6,106.5,47.6z M63.1-31.4
			c-0.6,0-0.6-0.6-0.6-1c0-1.2,0.4-5.1,6.7-5.3c4.9-0.6,6.6-2.1,6.5-5.8c0-0.3,0.2-0.6,0.5-0.6s0.6,0.2,0.6,0.5
			c0.2,4.2-2,6.2-7.5,6.9c-2.3,0.1-3.9,0.6-4.8,1.7c-1,1.2-0.8,2.6-0.8,2.7v0.1C63.7-31.7,63.4-31.4,63.1-31.4z M57.8-31.5
			c-0.3,0-0.5-0.2-0.5-0.5c0-0.1-0.9-7.2,6.7-8.4c0.5-0.1,1-0.1,1.6-0.2c3.2-0.3,5.5-0.7,5.8-3.3c0-0.3,0.3-0.5,0.6-0.5
			c0.3,0,0.5,0.3,0.5,0.6c-0.4,3.8-4.1,4.1-6.8,4.3c-0.5,0-1.1,0.1-1.5,0.2c-6.6,1-5.8,6.9-5.8,7.1C58.4-31.8,58.2-31.6,57.8-31.5
			C57.9-31.5,57.9-31.5,57.8-31.5z"/>
	</g>
</g>
<g id="Layer_3" class="st0">
	<g class="st1">
		<path class="st2" d="M117.6,55.9c-3.1,0-5.6-2.5-5.6-5.6c0-2.4,1.6-4.5,3.7-5.3L112,32.4c-0.4,0.1-0.8,0.2-1.1,0.2
			c-1.2,0.3-2.4,0.4-3.6,0.4H53.4v4.7c0,0.3-0.3,0.6-0.6,0.6H26.3c-0.3,0-0.6-0.3-0.6-0.6v-5.1C12.5,31.9,2.2,21,2.2,7.8
			C2.2-5.8,13.3-17,27-17c1.7,0,3.5,0.2,5.3,0.6c5.8-11.1,17.2-17.9,30-17.9c15.4,0,28.7,10,32.6,24.5c3.6-2.2,7.8-3.4,12.1-3.4
			c6.7,0,12.8,2.9,17,7.5l9.7-8.9c-0.9-0.9-1.4-2.1-1.4-3.4c0-2.7,2.2-4.9,4.9-4.9s4.9,2.2,4.9,4.9s-2.2,4.9-4.9,4.9
			c-0.9,0-1.8-0.3-2.5-0.7l-9.9,9.1c3.3,4,5.2,9.1,5.2,14.6c0,10.4-6.9,19.4-16.8,22.2l3.6,12.6c0.2,0,0.5,0,0.7,0
			c3.1,0,5.6,2.5,5.6,5.6S120.7,55.9,117.6,55.9z M117.6,45.8c-2.4,0-4.4,2-4.4,4.4s2,4.4,4.4,4.4s4.4-2,4.4-4.4
			S120,45.8,117.6,45.8z M26.9,37.1h25.3V15.2H26.9V37.1z M53.4,31.8h53.9c1.1,0,2.2-0.1,3.4-0.4c0.3-0.1,0.7-0.1,1-0.2l-2.9-10.1
			c-1,0.3-2.1,0.4-3.2,0.4c-6.5,0-11.8-5.3-11.8-11.8c0-0.4,0-0.9,0.1-1.3L79,4.4c-0.6,1.9-2.5,3.3-4.6,3.3c-2.7,0-4.9-2.2-4.9-4.9
			s2.2-4.9,4.9-4.9c2.7,0,4.9,2.2,4.9,4.9c0,0.1,0,0.2,0,0.3l14.8,4c1.2-5.3,5.9-9.3,11.5-9.3c3.8,0,7.2,1.8,9.4,4.7l0,0l8-7.4
			c-4-4.4-9.7-7.1-16.1-7.1c-4.3,0-8.5,1.3-12.1,3.7c-0.2,0.1-0.4,0.1-0.6,0.1c-0.2-0.1-0.3-0.2-0.4-0.4
			C90.4-23,77.4-33.1,62.3-33.1c-12.4,0-23.6,6.8-29.1,17.7c-0.1,0.3-0.4,0.4-0.7,0.3c-1.9-0.5-3.7-0.7-5.5-0.7
			C14-15.8,3.4-5.2,3.4,7.8c0,12.5,9.8,22.8,22.3,23.5V14.6c0-0.3,0.3-0.6,0.6-0.6h4.1v-2.4c0-5.3,4.1-9.6,9.1-9.6s9.1,4.3,9.1,9.6
			V14h4.1c0.3,0,0.6,0.3,0.6,0.6v17.2H53.4z M109.9,20.7l2.9,10.2c9.3-2.6,15.9-11.1,15.9-21c0-5.2-1.8-10-4.9-13.8l-8,7.4
			c-0.1,0-0.1,0.1-0.2,0.1c1.1,1.8,1.7,3.9,1.7,6.1C117.4,14.7,114.3,18.9,109.9,20.7z M105.6-0.9C99.8-0.9,95,3.8,95,9.7
			c0,5.8,4.7,10.6,10.6,10.6c5.8,0,10.6-4.7,10.6-10.6C116.2,3.9,111.4-0.9,105.6-0.9z M31.7,13.9h15.8v-2.4c0-4.6-3.5-8.4-7.9-8.4
			s-7.9,3.8-7.9,8.4C31.7,11.5,31.7,13.9,31.7,13.9z M74.4-0.8c-2,0-3.6,1.6-3.6,3.6s1.6,3.6,3.6,3.6c1.7,0,3.2-1.2,3.5-2.8
			c0-0.1,0-0.1,0-0.2V3.3c0-0.2,0-0.3,0-0.5C78,0.9,76.4-0.8,74.4-0.8z M137.1-21.6c-2,0-3.6,1.6-3.6,3.6s1.6,3.6,3.6,3.6
			s3.6-1.6,3.6-3.6S139.1-21.6,137.1-21.6z M39.6,29.3c-1.7,0-3-1.4-3-3c0-1.7,1.4-3,3-3s3,1.4,3,3C42.6,28,41.2,29.3,39.6,29.3z
			 M39.6,24.5c-1,0-1.8,0.8-1.8,1.8s0.8,1.8,1.8,1.8s1.8-0.8,1.8-1.8C41.3,25.3,40.5,24.5,39.6,24.5z"/>
	</g>
</g>
<g id="Layer_6">
</g>
<g>
	<path class="st3" d="M40.9,16.7"/>
	<path class="st4" d="M114.1,40H53.7c-0.3,0-0.6-0.3-0.6-0.6s0.3-0.6,0.6-0.6h59.8v-73.1h-72l0.1,32.6c0,0.3-0.3,0.6-0.6,0.6
		c0,0,0,0,0,0c-0.3,0-0.6-0.3-0.6-0.6l-0.1-33.2c0-0.2,0.1-0.3,0.2-0.4c0.1-0.1,0.3-0.2,0.4-0.2h73.2c0.3,0,0.6,0.3,0.6,0.6v74.3
		C114.6,39.7,114.4,40,114.1,40z"/>
	<path class="st4" d="M50,5c-0.2,0-0.3-0.1-0.4-0.2c-0.2-0.2-0.2-0.6,0.1-0.8L65.5-9.8c0.2-0.2,0.6-0.2,0.8,0l9.5,9.5L101.3-23
		c0.2-0.2,0.6-0.2,0.8,0c0.2,0.2,0.2,0.6,0,0.8L76.1,1c-0.2,0.2-0.6,0.2-0.8,0l-9.5-9.5L50.3,4.8C50.2,4.9,50.1,5,50,5z"/>
	<path class="st4" d="M102.7-16.5L102.7-16.5c-0.3,0-0.6-0.3-0.6-0.6l0-6l-5.7,0l0,0c-0.3,0-0.6-0.3-0.6-0.6c0-0.3,0.3-0.6,0.6-0.6
		l6.3,0l0,0c0.2,0,0.3,0.1,0.4,0.2c0.1,0.1,0.2,0.3,0.2,0.4l0,6.6C103.3-16.7,103-16.5,102.7-16.5z"/>
	<path class="st4" d="M83.6,29.6h-8.6c-0.3,0-0.6-0.3-0.6-0.6V7.2c0-0.3,0.3-0.6,0.6-0.6h8.6c0.3,0,0.6,0.3,0.6,0.6V29
		C84.2,29.3,83.9,29.6,83.6,29.6z M75.6,28.5h7.4V7.8h-7.4V28.5z"/>
	<path class="st4" d="M68.7,29.2h-8.6c-0.3,0-0.6-0.3-0.6-0.6V2.3c0-0.3,0.3-0.6,0.6-0.6h8.6c0.3,0,0.6,0.3,0.6,0.6v26.4
		C69.3,29,69,29.2,68.7,29.2z M60.7,28.1h7.4V2.8h-7.4V28.1z"/>
	<path class="st4" d="M99.1,29.2h-9.6c-0.3,0-0.6-0.3-0.6-0.6V-6c0-0.3,0.3-0.6,0.6-0.6h9.6c0.3,0,0.6,0.3,0.6,0.6v34.6
		C99.6,29,99.4,29.2,99.1,29.2z M90,28.1h8.5V-5.4H90V28.1z"/>
</g>
<g>
	<path class="st4" d="M33,41.9c-12.6,0-22.8-10.2-22.8-22.8C10.1,6.5,20.4-3.7,33-3.7S55.8,6.5,55.8,19.1c0,5.3-1.9,10.5-5.3,14.6
		c-0.2,0.2-0.6,0.3-0.8,0.1c-0.2-0.2-0.3-0.6-0.1-0.8c3.3-3.9,5-8.8,5-13.9c0-12-9.7-21.7-21.7-21.7c-12,0-21.7,9.7-21.7,21.7
		c0,12,9.7,21.7,21.7,21.7c2.6,0,5.2-0.5,7.6-1.4c0.3-0.1,0.6,0,0.7,0.3c0.1,0.3,0,0.6-0.3,0.7C38.4,41.4,35.7,41.9,33,41.9z
		 M33,36.4c-9.5,0-17.3-7.8-17.3-17.3c0-9.5,7.8-17.3,17.3-17.3s17.3,7.8,17.3,17.3C50.3,28.6,42.5,36.4,33,36.4z M33,2.9
		c-8.9,0-16.2,7.2-16.2,16.2c0,8.9,7.2,16.2,16.2,16.2S49.1,28,49.1,19.1C49.1,10.2,41.9,2.9,33,2.9z"/>
	<path class="st4" d="M44.7,45.6C44.7,45.6,44.7,45.6,44.7,45.6c-0.2,0-0.4-0.1-0.5-0.2l-3.9-5.1c-0.1-0.1-0.1-0.3-0.1-0.5
		s0.2-0.3,0.3-0.4c3.5-1.3,6.6-3.5,9-6.4c0.1-0.1,0.3-0.2,0.4-0.2c0.2,0,0.3,0.1,0.4,0.2l3.7,4.8c0.2,0.2,0.1,0.6-0.1,0.8l-9,6.9
		C45,45.5,44.9,45.6,44.7,45.6z M41.7,40.2l3.1,4.1l8.1-6.2L50,34.2C47.7,36.8,44.9,38.8,41.7,40.2z"/>
	<path class="st4" d="M61.7,65.2c-0.2,0-0.3-0.1-0.5-0.2L45.5,44.5c-0.1-0.1-0.1-0.3-0.1-0.4c0-0.2,0.1-0.3,0.2-0.4l6.7-5.2
		c0.2-0.2,0.6-0.1,0.8,0.1l15.8,20.5c0.1,0.1,0.1,0.3,0.1,0.4c0,0.2-0.1,0.3-0.2,0.4l-6.7,5.2C62,65.2,61.8,65.2,61.7,65.2z
		 M46.7,44.3l15.1,19.6l5.8-4.5L52.5,39.8L46.7,44.3z"/>
</g>
</svg>
