<?xml version="1.0" encoding="utf-8"?>
<!-- Generator: Adobe Illustrator 19.1.0, SVG Export Plug-In . SVG Version: 6.00 Build 0)  -->
<!DOCTYPE svg PUBLIC "-//W3C//DTD SVG 1.1//EN" "http://www.w3.org/Graphics/SVG/1.1/DTD/svg11.dtd">
<svg version="1.1" id="Layer_1" xmlns="http://www.w3.org/2000/svg" xmlns:xlink="http://www.w3.org/1999/xlink" x="0px" y="0px"
	 viewBox="0 0 155.3 130" style="enable-background:new 0 0 155.3 130;" xml:space="preserve">
<style type="text/css">
	.st0{fill:#4D555B;}
	.st1{fill:#EF3E33;}
	.st2{fill:none;}
	.st3{fill:#C1272D;}
	.st4{fill:#97795D;}
	.st5{fill:#C7B59E;}
	.st6{fill:#A88D73;}
</style>
<g>
	<path class="st0" d="M53.3,62.2H56c0.6,0,1.5,0,1.5-0.8c0-0.2-0.1-0.4-0.3-0.6c-0.3-0.2-0.7-0.3-0.9-0.3h-3V62.2L53.3,62.2z
		 M49.7,58.4h7.4c0.9,0,2,0,2.8,0.6c0.7,0.5,1.2,1.4,1.2,2.4c0,0.7-0.2,1.3-0.6,1.8c-0.6,0.6-1.3,0.8-1.7,0.9l2.5,3.7h-4l-2.1-3.4
		h-1.9v3.4h-3.6V58.4"/>
	<path class="st0" d="M60.3,60.7h3.3v6.9h-3.3V60.7L60.3,60.7z M60.3,58.4h3.3V60h-3.3V58.4"/>
	<path class="st0" d="M66.3,65.4c0,0.1,0.1,0.2,0.2,0.4c0.3,0.3,1,0.4,1.5,0.4c0.7,0,1.3-0.2,1.3-0.6c0-0.1-0.1-0.2-0.1-0.2
		c-0.2-0.2-0.7-0.3-1.8-0.4c-0.6-0.1-1.2-0.2-1.8-0.3c-1.5-0.3-2.5-0.7-2.5-2c0-2.2,3.7-2.2,4.7-2.2c2.2,0,4.3,0.5,4.8,2.3l-3.3,0.1
		c-0.1-0.7-1.4-0.7-1.7-0.7c-0.6,0-1.2,0.2-1.2,0.5c0,0.2,0.2,0.3,0.6,0.4c0.4,0.1,2.5,0.3,3,0.4c1.1,0.2,2.5,0.4,2.5,1.8
		c0,0.7-0.4,1.1-0.7,1.4c-0.6,0.5-1.7,1.1-4.1,1.1c-1.6,0-3.1-0.3-3.9-0.6c-0.9-0.4-1.1-1-1.2-1.7L66.3,65.4"/>
	<polyline class="st0" points="72.1,58.4 75.5,58.4 75.5,62.9 78,60.7 82.3,60.7 79.1,63.3 82.4,67.7 78.7,67.7 76.8,65.1 
		75.5,66.2 75.5,67.7 72.2,67.7 72.1,58.4 	"/>
	<path class="st1" d="M6.7,67.8h8.1v-2.1H9.3v-1.8h4.9v-1.9H9.3v-1.6h5.3v-1.9H6.7V67.8L6.7,67.8z M15,67.8h2.4v-3.7
		c0-0.7,0.4-1.4,1.3-1.4c1.3,0,1.2,0.9,1.2,1.8v3.2h2.4v-4.3c0-1-0.2-2.6-2.6-2.6c-0.9,0-1.8,0.4-2.3,1.1h0V61H15V67.8L15,67.8z
		 M24.5,63.7c0.1-0.8,0.7-1.4,1.5-1.4c0.8,0,1.4,0.6,1.4,1.4H24.5L24.5,63.7z M29.9,64.9c0.1-2.3-1.2-4.1-3.8-4.1
		c-2.1,0-3.9,1.5-3.9,3.5c0,2.2,1.6,3.6,4,3.6c1.6,0,3.2-0.7,3.6-2.2h-2.2c-0.2,0.5-0.8,0.7-1.4,0.7c-1,0-1.6-0.6-1.6-1.5H29.9
		L29.9,64.9z M29.9,67.8h2.4v-3.3c0-0.8,0.6-1.6,1.8-1.6c0.3,0,0.6,0.1,0.9,0.1v-2c-0.2,0-0.4-0.1-0.6-0.1c-1,0-1.8,0.5-2.2,1.3h0
		V61h-2.3V67.8L29.9,67.8z M39.7,64.2c0,0.8-0.4,1.6-1.4,1.6c-1,0-1.4-0.8-1.4-1.6c0-0.8,0.3-1.7,1.4-1.7
		C39.4,62.5,39.7,63.4,39.7,64.2L39.7,64.2z M42,61h-2.3v0.8h0c-0.4-0.7-1.1-1-1.9-1c-2.1,0-3.2,1.5-3.2,3.3c0,1.9,1,3.3,3.2,3.3
		c0.8,0,1.5-0.4,1.9-1h0v0.6c0,0.8-0.1,1.6-1.2,1.6c-0.4,0-0.7,0-0.9-0.1c-0.2-0.1-0.3-0.3-0.4-0.6h-2.4c0.3,1.8,1.9,2.1,3.6,2.1
		c3.4,0,3.6-2.1,3.6-3.2V61L42,61z M49.7,61h-2.4l-1.4,4.4h0L44.5,61H42l1.9,4.7c0.1,0.4,0.6,1.4,0.6,1.8c0,0.5-0.4,0.7-1,0.7h-0.8
		V70h1.1c1.6,0,2.5-0.2,3-1.7L49.7,61L49.7,61z"/>
</g>
<g>
	<polygon class="st2" points="52,78 50.2,83.3 53.7,83.3 52.1,78 	"/>
	<polygon class="st3" points="61.5,89.4 61.5,89.4 61.5,89.3 	"/>
	<polygon class="st4" points="39.9,72.3 38.4,79.2 37.6,83 37.5,83 36.6,78.6 35.4,72.3 34.9,72.3 30.3,72.3 29.8,74.5 29.6,75.9 
		28.1,82.8 28,82.8 26.6,76 26.3,74.6 26,73.2 25.8,72.3 24.1,72.3 20.2,72.3 21,75.1 21.9,78.1 24.2,85.9 25.2,89.4 26.5,89.4 
		30.8,89.4 31,88.5 31.4,86.2 32.7,79 32.8,79 34,85.1 34.8,89.4 40.3,89.4 42.8,81.1 42.9,81 45.5,72.3 	"/>
	<path class="st4" d="M21,84.7l-2.1-5.2l-0.7-1.8l-2.1-5.3H14h-3.4h0l-2.8,6.9l-1.5,3.9l-1.9,4.7l-0.6,1.6h5.7l0.8-2.4h3.8h2.1
		l0.8,2.4h1.4h4.6L21,84.7z M13.6,83.3h-2.1l0.1-0.2l0.4-1l0.3-0.8l0.6-1.7l0.5-1.6h0.1l0.3,0.9l0.7,2.2l0.1,0.4l0.3,0.9l0.3,1h-0.6
		H13.6z"/>
	<path class="st4" d="M59,82.9l-4.2-10.6h-5.6l-0.2,0.4l0,0l-2.7,6.8l-0.9,2.4l-3,7.5h5.7l0.8-2.4h4.1h1.8l0.8,2.4h5.9v-0.1L59,82.9
		z M50.2,83.3L52,78h0.1l1.7,5.3H50.2z"/>
	<path class="st4" d="M78.4,85.7c-0.2-1.6-0.8-2.9-1.7-3.7c-0.3-0.2-0.6-0.4-1-0.6c1.9-0.6,2.8-2.5,2.8-4.3c0-3.2-2.8-4.9-6-4.9
		h-9.8h-1v10.5v6.6l0,0.1h5.7v-6h3c2.3,0,2.4,1.7,2.6,3.3c0,0.3,0.1,0.5,0.1,0.8c0.1,0.6,0.2,1.2,0.4,1.8H79
		C78.4,88.6,78.4,86.5,78.4,85.7z M67.2,76.3h2.7c2.2,0,2.8,0.6,2.8,1.7c0,1.4-1.2,1.6-2.2,1.7c-0.1,0-0.2,0-0.4,0h-3v-3.1V76.3z"/>
	<path class="st4" d="M97.1,80.5c0-2.3-0.7-4.6-2.4-6.2c-0.7-0.7-1.5-1.2-2.6-1.6c-1-0.3-2.1-0.5-3.4-0.5h-4.3h-4.9h-0.1v9.6v7.3
		v0.2h5.9h2.4c2.8,0,5-0.6,6.5-1.8c0.9-0.7,1.6-1.5,2.1-2.5c0.6-1.2,0.9-2.7,0.9-4.3C97.1,80.7,97.1,80.6,97.1,80.5z M90.8,83.3
		c-0.5,0.9-1.5,1.6-3.2,1.7c-0.1,0-0.1,0-0.2,0h-2.2v-0.3v-3.1v-4.1v-0.8h1.7H87c1.8,0,2.9,0.6,3.6,1.3c0.3,0.4,0.5,0.8,0.7,1.1
		l0.3,2c0,0.4-0.1,0.8-0.2,1.2C91.1,82.7,91,83,90.8,83.3z"/>
	<path class="st4" d="M109.4,79.2c-0.2-0.1-0.5-0.1-0.7-0.2c-0.8-0.2-1.5-0.3-2.2-0.5c-1.7-0.4-3.1-0.8-3.1-1.7c0-1,1.3-1.2,2-1.2
		c0.6,0,1.2,0.1,1.7,0.4c0.3,0.2,0.5,0.4,0.6,0.8c0.1,0.2,0.1,0.4,0,0.6h5.4c-0.1-2.1-1.1-3.6-2.6-4.4c-1.4-0.8-3.2-1.2-5.2-1.2
		c-3.8,0-7.5,1.7-7.5,5.7c0,1.2,0.4,2.1,1.1,2.8c1.2,1.2,3.3,1.7,5.1,2.2c0.4,0.1,0.8,0.2,1.1,0.3c2.3,0.6,2.9,0.9,2.9,1.7
		c0,0.6-0.3,0.9-0.7,1.2c-0.5,0.3-1.1,0.4-1.7,0.4c-1.1,0-2.3-0.2-2.7-1.2c-0.1-0.3-0.2-0.7-0.2-1.1h-5.7c0,0.8,0.2,1.5,0.4,2.2
		c1.3,3.3,5.5,3.9,7.4,4c0.1,0,0.2,0,0.3,0c1.6,0,3.3-0.2,4.8-0.8c2.2-0.8,3.8-2.4,3.8-5.1C113.8,81,111.7,79.9,109.4,79.2z"/>
</g>
<g>
	<polygon class="st2" points="113.8,18.9 109.3,31.4 94.4,31.7 106.1,39.8 101.7,53.1 113.8,45.3 127,53.9 122.3,39.8 134,31.7 
		118.2,31.4 	"/>
	<polygon class="st5" points="113.8,18.9 118.2,31.4 134,31.7 141,27 144.6,28 147.9,23.9 124.7,23.4 117.4,3 113.8,7.5 116.6,11 	
		"/>
	<polygon class="st5" points="94.4,31.7 109.3,31.4 113.8,18.9 111,11 113.8,7.5 110.2,3 102.9,23.4 79.7,23.9 83.2,28.3 87.4,27 	
		"/>
	<polygon class="st6" points="113.8,18.9 116.6,11 113.8,7.5 111,11 	"/>
	<polygon class="st5" points="101.7,53.1 106.1,39.8 94.4,31.7 86.1,31.9 83.2,28.3 77.2,30.1 95.8,42.9 89.1,63.4 94.8,61.7 
		94.8,57.6 	"/>
	<polygon class="st6" points="94.4,31.7 87.4,27 83.2,28.3 86.1,31.9 	"/>
	<polygon class="st5" points="132.6,42.9 151.2,30.1 144.6,28 141.5,31.9 134,31.7 122.3,39.8 127,53.9 132.8,57.7 132.8,61.4 
		139.4,63.4 	"/>
	<polygon class="st6" points="134,31.7 141.5,31.9 144.6,28 141,27 	"/>
	<polygon class="st5" points="127,53.9 113.8,45.3 101.7,53.1 99.3,60.3 94.8,61.7 94.8,67.5 113.8,55.3 132.7,67.7 132.8,61.4 
		129.1,60.3 	"/>
	<polygon class="st6" points="101.7,53.1 94.8,57.6 94.8,61.7 99.3,60.3 	"/>
	<polygon class="st6" points="127,53.9 129.1,60.3 132.8,61.4 132.8,57.7 	"/>
</g>
<g>
	<path class="st5" d="M74.7,96.5c-0.2-3.1,1.9-4.9,5.2-4.9c3,0,5,1.1,5,3.5c0,2.9-3,3.8-5.3,5.1v0H85v2.7H74.5
		c-0.1-1.1,0.3-2,0.9-2.8c1-1.3,2.7-2.2,4.3-3c0.6-0.4,1.6-0.8,1.6-1.6c0-1-0.6-1.4-1.5-1.4c-1.4,0-1.9,0.9-1.8,2.3H74.7z"/>
	<path class="st5" d="M90.4,91.6c2.2,0,5.2,1.4,5.2,5.8c0,4.3-3,5.8-5.2,5.8c-2.2,0-5.2-1.4-5.2-5.8C85.2,93,88.2,91.6,90.4,91.6z
		 M90.4,100.6c1.8,0,1.9-2.1,1.9-3.3c0-1.2-0.1-3.3-1.8-3.3c-1.8,0-1.9,2.1-1.9,3.3C88.5,98.5,88.6,100.6,90.4,100.6z"/>
	<path class="st5" d="M98.8,96.5h-2.9v-2.3c1.7,0,3.5-0.6,3.6-2.4h2.9V103h-3.6V96.5z"/>
	<path class="st5" d="M108.6,100.7h-5.4v-3l5.6-6h3.5V98h1.6v2.7h-1.6v2.2h-3.6V100.7z M105.6,98h3v-3.2L105.6,98z"/>
</g>
<g>
	<path class="st0" d="M16.3,102.8h-3.5l-1.3-6.6h0l-1.2,6.6H6.7L3.5,92h3.6l1.4,6.7h0L10,92h3.2l1.4,6.8h0L16,92h3.6L16.3,102.8z"/>
	<path class="st0" d="M20,92h3.6v10.9H20V92z"/>
	<path class="st0" d="M25.1,92h3.7l3.4,5.8h0V92h3.4v10.9h-3.5l-3.6-5.9h0v5.9h-3.4V92z"/>
	<path class="st0" d="M37.2,92h3.7l3.4,5.8h0V92h3.4v10.9h-3.5l-3.6-5.9h0v5.9h-3.4V92z"/>
	<path class="st0" d="M49.2,92H59v2.8h-6.1v1.4h5.5v2.6h-5.5v1.4h6.3v2.8h-9.9V92z"/>
	<path class="st0" d="M60.4,92h6.9c2,0,3.8,1,3.8,3.1c0,1.1-0.6,2.3-1.8,2.7c1,0.4,1.6,1.4,1.7,2.7c0,0.5,0,1.9,0.4,2.3h-3.6
		c-0.2-0.5-0.2-1.1-0.3-1.7c-0.1-1-0.2-2.1-1.6-2.1H64v3.8h-3.6V92z M64,96.7h1.9c0.7,0,1.6-0.1,1.6-1.1c0-0.7-0.4-1.1-1.8-1.1H64
		V96.7z"/>
</g>
<g>
	<path class="st4" d="M4.6,106.8h2.5l2.3,3.9h0v-3.9h2.3v7.3H9.3l-2.4-4h0v4H4.6V106.8z"/>
	<path class="st4" d="M18.3,113c0,0.4,0,0.9,0.3,1.2h-2.2c-0.1-0.2-0.1-0.3-0.1-0.5h0c-0.5,0.5-1.1,0.6-1.9,0.6c-1.1,0-2-0.5-2-1.6
		c0-1.7,2.1-1.6,3.3-1.8c0.3-0.1,0.6-0.1,0.6-0.5c0-0.4-0.4-0.5-0.7-0.5c-0.7,0-0.8,0.3-0.8,0.5h-2c0.1-1.5,1.6-1.7,3-1.7
		c2.8,0,2.7,1.1,2.7,2.1V113z M16.2,111.8c-0.3,0.1-0.6,0.2-0.9,0.3c-0.5,0.1-0.7,0.2-0.7,0.6c0,0.2,0.3,0.5,0.7,0.5
		c0.5,0,0.9-0.3,0.9-0.8V111.8z"/>
	<path class="st4" d="M21.9,108.9H23v1.3h-1.2v1.9c0,0.5,0.1,0.7,0.7,0.7c0.2,0,0.3,0,0.5,0v1.5c-0.4,0-0.9,0.1-1.4,0.1
		c-0.9,0-2-0.1-2-1.6v-2.6h-1v-1.3h1v-1.6h2.2V108.9z"/>
	<path class="st4" d="M29.5,114.2h-2.1v-0.7h0c-0.4,0.5-1,0.8-1.9,0.8c-1,0-2-0.6-2-1.8v-3.7h2.2v2.8c0,0.6,0.1,1,0.7,1
		c0.4,0,0.9-0.2,0.9-1v-2.8h2.2V114.2z"/>
	<path class="st4" d="M30.4,108.9h2.1v0.9h0c0.4-0.6,0.8-1,1.6-1c0.2,0,0.4,0,0.6,0.1v1.8c-0.2-0.1-0.4-0.1-0.9-0.1
		c-0.9,0-1.3,0.5-1.3,1.6v2.1h-2.2V108.9z"/>
	<path class="st4" d="M40.7,113c0,0.4,0,0.9,0.3,1.2h-2.2c-0.1-0.2-0.1-0.3-0.1-0.5h0c-0.5,0.5-1.1,0.6-1.9,0.6c-1.1,0-2-0.5-2-1.6
		c0-1.7,2.1-1.6,3.3-1.8c0.3-0.1,0.6-0.1,0.6-0.5c0-0.4-0.4-0.5-0.7-0.5c-0.7,0-0.8,0.3-0.8,0.5h-2c0.1-1.5,1.6-1.7,3-1.7
		c2.8,0,2.7,1.1,2.7,2.1V113z M38.6,111.8c-0.3,0.1-0.6,0.2-0.9,0.3c-0.5,0.1-0.7,0.2-0.7,0.6c0,0.2,0.3,0.5,0.7,0.5
		c0.5,0,0.9-0.3,0.9-0.8V111.8z"/>
	<path class="st4" d="M41.6,106.8h2.2v7.3h-2.2V106.8z"/>
	<path class="st4" d="M54.1,113.4c-0.5,0.7-1.4,0.9-2.3,0.9c-2.3,0-3.8-1.7-3.8-3.8c0-2.8,2.1-3.9,3.9-3.9c2,0,3.3,1,3.7,2.7h-2.3
		c-0.1-0.5-0.6-0.9-1.2-0.9c-1.7,0-1.6,1.6-1.6,2.1c0,0.7,0.3,1.9,1.8,1.9c0.6,0,1.1-0.3,1.3-0.8h-1.1v-1.6h3.2v4h-1.5L54.1,113.4z"
		/>
	<path class="st4" d="M62.2,113c0,0.4,0,0.9,0.3,1.2h-2.2c-0.1-0.2-0.1-0.3-0.1-0.5h0c-0.5,0.5-1.1,0.6-1.9,0.6c-1.1,0-2-0.5-2-1.6
		c0-1.7,2.1-1.6,3.3-1.8c0.3-0.1,0.6-0.1,0.6-0.5c0-0.4-0.4-0.5-0.7-0.5c-0.7,0-0.8,0.3-0.8,0.5h-2c0.1-1.5,1.6-1.7,3-1.7
		c2.8,0,2.7,1.1,2.7,2.1V113z M60.1,111.8c-0.3,0.1-0.6,0.2-0.9,0.3c-0.5,0.1-0.7,0.2-0.7,0.6c0,0.2,0.3,0.5,0.7,0.5
		c0.5,0,0.9-0.3,0.9-0.8V111.8z"/>
	<path class="st4" d="M66.5,110.4c0-0.2-0.1-0.3-0.3-0.4c-0.1-0.1-0.3-0.2-0.5-0.2c-0.3,0-0.7,0.1-0.7,0.4c0,0.2,0.1,0.2,0.3,0.3
		c0.4,0.1,1.2,0.2,1.9,0.4c0.7,0.2,1.4,0.6,1.4,1.5c0,1.5-1.5,1.9-2.9,1.9c-1.4,0-2.8-0.5-2.9-1.9h2.1c0,0.2,0.1,0.3,0.3,0.5
		c0.1,0.1,0.3,0.2,0.6,0.2c0.3,0,0.7-0.1,0.7-0.4c0-0.3-0.2-0.4-1.2-0.6c-1.7-0.3-2.4-0.8-2.4-1.7c0-1.3,1.6-1.7,2.7-1.7
		c1.2,0,2.7,0.3,2.8,1.7H66.5z"/>
	<path class="st4" d="M4.5,117.1H7v2.6h2.3v-2.6h2.4v7.3H9.3v-2.9H7v2.9H4.5V117.1z"/>
	<path class="st4" d="M15.6,124.6c-2.2,0-3.1-1.3-3.1-2.8c0-1.5,1-2.8,3.1-2.8c2.2,0,3.1,1.3,3.1,2.8
		C18.7,123.3,17.8,124.6,15.6,124.6z M15.6,120.5c-0.8,0-0.9,0.8-0.9,1.3c0,0.6,0.1,1.3,0.9,1.3c0.8,0,0.9-0.8,0.9-1.3
		C16.5,121.2,16.4,120.5,15.6,120.5z"/>
	<path class="st4" d="M25.4,124.5h-2.1v-0.7h0c-0.4,0.5-1,0.8-1.9,0.8c-1,0-2-0.6-2-1.8v-3.7h2.2v2.8c0,0.6,0.1,1,0.7,1
		c0.4,0,0.9-0.2,0.9-1v-2.8h2.2V124.5z"/>
	<path class="st4" d="M29.7,120.7c0-0.2-0.1-0.3-0.3-0.4c-0.1-0.1-0.3-0.2-0.5-0.2c-0.3,0-0.7,0.1-0.7,0.4c0,0.2,0.1,0.2,0.3,0.3
		c0.4,0.1,1.2,0.2,1.9,0.4c0.7,0.2,1.4,0.6,1.4,1.5c0,1.5-1.5,1.9-2.9,1.9c-1.4,0-2.8-0.5-2.9-1.9h2.1c0,0.2,0.1,0.3,0.3,0.5
		c0.1,0.1,0.3,0.2,0.6,0.2c0.3,0,0.7-0.1,0.7-0.4c0-0.3-0.2-0.4-1.2-0.6c-1.7-0.3-2.4-0.8-2.4-1.7c0-1.3,1.6-1.7,2.7-1.7
		c1.2,0,2.7,0.3,2.8,1.7H29.7z"/>
	<path class="st4" d="M34.3,122.3c0.1,0.6,0.4,1,1.1,1c0.4,0,0.7-0.1,0.9-0.4h2.1c-0.4,1.2-1.7,1.7-3,1.7c-1.8,0-3.2-1-3.2-2.8
		c0-1.6,1.2-2.8,3-2.8c2.3,0,3.3,1.2,3.3,3.3H34.3z M36.4,121.2c0-0.5-0.4-0.9-1-0.9c-0.7,0-1,0.3-1.1,0.9H36.4z"/>
	<path class="st4" d="M45.5,124.6c-2.2,0-3.1-1.3-3.1-2.8c0-1.5,1-2.8,3.1-2.8c2.2,0,3.1,1.3,3.1,2.8
		C48.7,123.3,47.7,124.6,45.5,124.6z M45.5,120.5c-0.8,0-0.9,0.8-0.9,1.3c0,0.6,0.1,1.3,0.9,1.3c0.8,0,0.9-0.8,0.9-1.3
		C46.5,121.2,46.4,120.5,45.5,120.5z"/>
	<path class="st4" d="M49.7,120.4h-0.9v-1.3h0.9c0-0.5,0-1.1,0.5-1.5c0.5-0.4,1-0.5,1.9-0.5c0.3,0,0.6,0,1,0v1.4
		c-0.2,0-0.4-0.1-0.5-0.1c-0.5,0-0.7,0.1-0.7,0.6H53v1.3h-1.1v4.1h-2.2V120.4z"/>
	<path class="st4" d="M59.5,119.1h1.2v1.3h-1.2v1.9c0,0.5,0.1,0.7,0.7,0.7c0.2,0,0.3,0,0.5,0v1.5c-0.4,0-0.9,0.1-1.4,0.1
		c-0.9,0-2-0.1-2-1.6v-2.6h-1v-1.3h1v-1.6h2.2V119.1z"/>
	<path class="st4" d="M61.1,117.1h2.2v2.6h0c0.4-0.4,0.9-0.7,1.8-0.7c1,0,2,0.6,2,1.8v3.7h-2.2v-2.8c0-0.6-0.1-1-0.7-1
		c-0.4,0-0.9,0.2-0.9,1v2.8h-2.2V117.1z"/>
	<path class="st4" d="M69.9,122.3c0.1,0.6,0.4,1,1.1,1c0.4,0,0.7-0.1,0.9-0.4H74c-0.4,1.2-1.7,1.7-3,1.7c-1.8,0-3.2-1-3.2-2.8
		c0-1.6,1.2-2.8,3-2.8c2.3,0,3.3,1.2,3.3,3.3H69.9z M72,121.2c0-0.5-0.4-0.9-1-0.9c-0.7,0-1,0.3-1.1,0.9H72z"/>
	<path class="st4" d="M80.1,121.8l-2.8-4.6H80l1.3,2.7l1.4-2.7h2.7l-2.8,4.6v2.7h-2.4V121.8z"/>
	<path class="st4" d="M86.2,122.3c0.1,0.6,0.4,1,1.1,1c0.4,0,0.7-0.1,0.9-0.4h2.1c-0.4,1.2-1.7,1.7-3,1.7c-1.8,0-3.2-1-3.2-2.8
		c0-1.6,1.2-2.8,3-2.8c2.3,0,3.3,1.2,3.3,3.3H86.2z M88.3,121.2c0-0.5-0.4-0.9-1-0.9c-0.7,0-1,0.3-1.1,0.9H88.3z"/>
	<path class="st4" d="M96.7,123.3c0,0.4,0,0.9,0.3,1.2h-2.2c-0.1-0.2-0.1-0.3-0.1-0.5h0c-0.5,0.5-1.1,0.6-1.9,0.6
		c-1.1,0-2-0.5-2-1.6c0-1.7,2.1-1.6,3.3-1.8c0.3-0.1,0.6-0.1,0.6-0.5c0-0.4-0.4-0.5-0.7-0.5c-0.7,0-0.8,0.3-0.8,0.5h-2
		c0.1-1.5,1.6-1.7,3-1.7c2.8,0,2.7,1.1,2.7,2.1V123.3z M94.6,122.1c-0.3,0.1-0.6,0.2-0.9,0.3c-0.5,0.1-0.7,0.2-0.7,0.6
		c0,0.2,0.3,0.5,0.7,0.5c0.5,0,0.9-0.3,0.9-0.8V122.1z"/>
	<path class="st4" d="M97.6,119.1h2.1v0.9h0c0.4-0.6,0.8-1,1.6-1c0.2,0,0.4,0,0.6,0.1v1.8c-0.2-0.1-0.4-0.1-0.9-0.1
		c-0.9,0-1.3,0.5-1.3,1.6v2.1h-2.2V119.1z"/>
</g>
</svg>
