<?xml version="1.0" encoding="utf-8"?>
<!-- Generator: Adobe Illustrator 19.1.0, SVG Export Plug-In . SVG Version: 6.00 Build 0)  -->
<!DOCTYPE svg PUBLIC "-//W3C//DTD SVG 1.1//EN" "http://www.w3.org/Graphics/SVG/1.1/DTD/svg11.dtd">
<svg version="1.1" xmlns="http://www.w3.org/2000/svg" xmlns:xlink="http://www.w3.org/1999/xlink" x="0px" y="0px"
	 viewBox="0 0 55.6 16.1" style="enable-background:new 0 0 55.6 16.1;" xml:space="preserve">
<style type="text/css">
	.st0{display:none;}
	.st1{display:inline;}
	.st2{fill-rule:evenodd;clip-rule:evenodd;}
	.st3{fill-rule:evenodd;clip-rule:evenodd;fill:#0099D8;}
	.st4{fill:#231F20;}
	.st5{fill-rule:evenodd;clip-rule:evenodd;fill:#231F20;}
	.st6{fill:#C60C46;}
	.st7{fill-rule:evenodd;clip-rule:evenodd;fill:#F3901D;}
	.st8{fill-rule:evenodd;clip-rule:evenodd;fill:#FFC425;}
	.st9{fill-rule:evenodd;clip-rule:evenodd;fill:#C60C46;}
	.st10{fill:#0067A6;}
	.st11{fill:#FFFFFF;}
	.st12{fill:#B4A87D;}
	.st13{fill:#52302C;}
</style>
<g id="kst" class="st0">
	<g class="st1">
		<g>
			<path d="M112.6,98c0,0,2.5-2.7,2.5-2.7h-2.4c0,0-2.2,2-2.3,2.1v-2.1h-2.2v6h2.2v-1.3c0,0,0.4-0.4,0.5-0.4c0,0,1.4,1.7,1.4,1.7h3
				C115.3,101.3,112.6,98,112.6,98"/>
			<polygon points="134.8,95.3 134.8,97.5 132.9,97.5 132.9,95.3 130.6,95.3 130.6,101.3 132.9,101.3 132.9,99.1 134.8,99.1 
				134.8,101.3 137.1,101.3 137.1,95.3 			"/>
			<path d="M119.8,97.2v2.4c0,0.2-0.2,0.4-0.4,0.4h-1.3c-0.2,0-0.4-0.2-0.4-0.4v-2.4c0-0.2,0.2-0.4,0.4-0.4h1.3
				C119.6,96.7,119.8,96.9,119.8,97.2 M120.7,95.3h-3.9c-0.7,0-1.3,0.7-1.3,1.5v3c0,0.8,0.6,1.5,1.3,1.5h3.9c0.7,0,1.3-0.7,1.3-1.5
				v-3C122.1,96,121.5,95.3,120.7,95.3"/>
			<path d="M129.5,97.5v-0.5c0-0.5-0.2-1.1-0.5-1.4c-0.2-0.2-0.4-0.3-0.7-0.3h-4.1c-0.7,0-1.2,0.8-1.2,1.7v2.6
				c0,0.9,0.5,1.7,1.2,1.7h4.1c0.7,0,1.2-0.8,1.2-1.7v-0.7l-2.2,0l0,0.6c0,0.2-0.2,0.5-0.4,0.5h-1.3c-0.2,0-0.4-0.2-0.4-0.4v-2.4
				c0-0.2,0.2-0.4,0.4-0.4h1.3c0.2,0,0.4,0.2,0.4,0.4v0.3H129.5z"/>
			<path d="M137.6,100.6v0.1h0.3v0.6h0.2v-0.6h0.3v-0.1H137.6z M139,100.6l-0.2,0.6l-0.2-0.6h-0.2v0.8h0.1v-0.6l0.2,0.6h0.1l0.2-0.6
				v0.6h0.1v-0.8H139z"/>
			<g>
				<path class="st2" d="M102.1,95.3L102.1,95.3h-4v6l3.9,0c0,0-0.9-3-0.9-3C101.1,98.3,102.1,95.3,102.1,95.3z"/>
				<polygon class="st3" points="103.5,95.3 101.7,98.3 103.5,101.3 106.3,101.3 106.3,95.3 				"/>
			</g>
		</g>
	</g>
	<g class="st1">
		<path d="M98,106.5c0-0.7,0.3-0.8,1-0.8c0.6,0,1,0,1,0.8h-0.3c0-0.5-0.1-0.5-0.7-0.5c-0.6,0-0.7,0.1-0.7,0.4c0,0.5,0.2,0.5,0.7,0.5
			c0.6,0,1,0,1,0.7c0,0.8-0.4,0.8-1,0.8c-0.7,0-1-0.1-1-0.9h0.3c0,0.6,0.1,0.6,0.7,0.6c0.6,0,0.7,0,0.7-0.5c0-0.5-0.2-0.4-0.7-0.5
			C98.5,107.2,98,107.2,98,106.5z"/>
		<path d="M102.5,105.8v1.9c0,0.7-0.4,0.8-1.1,0.8c-0.6,0-1.1,0-1.1-0.8v-1.9h0.3v1.9c0,0.4,0.1,0.5,0.8,0.5c0.5,0,0.8,0,0.8-0.5
			v-1.9H102.5z"/>
		<path d="M103,105.8h1.4c0.5,0,0.6,0.4,0.6,0.8c0,0.2,0,0.8-0.7,0.8h-1v1H103V105.8z M103.3,106v1.1h0.8c0.4,0,0.6,0,0.6-0.5
			c0-0.5-0.1-0.6-0.5-0.6H103.3z"/>
		<path d="M105.4,105.8h1.4c0.5,0,0.6,0.4,0.6,0.8c0,0.2,0,0.8-0.7,0.8h-1v1h-0.3V105.8z M105.7,106v1.1h0.8c0.4,0,0.6,0,0.6-0.5
			c0-0.5-0.1-0.6-0.5-0.6H105.7z"/>
		<path d="M108.1,108.2h1.4v0.3h-1.7v-2.7h0.3V108.2z"/>
		<path d="M110.5,107.3v1.1h-0.3v-1.1l-1-1.6h0.4l0.8,1.3l0.8-1.3h0.4L110.5,107.3z"/>
		<path d="M115,108.1c-0.2,0.4-0.6,0.4-1,0.4c-0.6,0-1,0-1-0.8c0-0.7,0.2-0.6,0.5-0.7c-0.2-0.1-0.2-0.2-0.2-0.5
			c0-0.5,0.3-0.6,0.8-0.6c0.5,0,0.8,0.1,0.8,0.7v0.2h-0.3v-0.2c0-0.3-0.1-0.4-0.5-0.4c-0.3,0-0.5,0-0.5,0.4c0,0.2,0,0.3,0.2,0.4
			l1,0.9c0-0.1,0-0.1,0-0.2c0-0.1,0-0.1,0-0.2h0.3c0,0.1,0,0.1,0,0.2c0,0.1,0,0.3,0,0.4l0.5,0.4l-0.2,0.2L115,108.1z M113.7,107.1
			c-0.4,0.1-0.4,0.1-0.4,0.6c0,0.5,0.1,0.6,0.7,0.6c0.3,0,0.7,0,0.8-0.3L113.7,107.1z"/>
		<path d="M118,108.5h-0.3V106h-0.9v-0.3h2v0.3H118V108.5z"/>
		<path d="M119.4,108.5h-0.3v-2.7h1.2c0.6,0,0.8,0.2,0.8,0.8c0,0.4,0,0.7-0.5,0.7v0c0.3,0,0.4,0.2,0.4,0.5v0.7h-0.3v-0.6
			c0-0.3-0.1-0.5-0.5-0.5h-1V108.5z M120.4,107.1c0.5,0,0.5-0.2,0.5-0.6c0-0.3,0-0.5-0.5-0.5h-0.9v1.1H120.4z"/>
		<path d="M121.9,107.9l-0.2,0.6h-0.3l1-2.7h0.4l1,2.7h-0.3l-0.2-0.6H121.9z M122.6,106l-0.6,1.6h1.2L122.6,106z"/>
		<path d="M124.1,105.8h1.3c0.3,0,0.9,0,0.9,1v0.6c0,0.3,0,1-0.8,1h-1.4V105.8z M125.4,108.2c0.5,0,0.6-0.3,0.6-0.8v-0.7
			c0-0.2-0.1-0.6-0.6-0.6h-1.1v2.1H125.4z"/>
		<path d="M127,108.5h-0.3v-2.7h0.3V108.5z"/>
		<path d="M129.9,108.5h-0.5l-1.5-2.4h0v2.4h-0.3v-2.7h0.5l1.5,2.5h0v-2.5h0.3V108.5z"/>
		<path d="M132.5,107.1v0.6c0,0.6-0.3,0.8-0.9,0.8h-0.3c-0.7,0-1-0.1-1-1v-0.8c0-0.7,0.3-0.9,0.8-0.9h0.7c0.4,0,0.7,0.2,0.7,0.6v0.2
			h-0.3v-0.2c0-0.3-0.1-0.4-0.6-0.4h-0.4c-0.6,0-0.7,0.1-0.7,0.7v0.9c0,0.5,0.2,0.6,0.7,0.6h0.3c0.5,0,0.6-0.1,0.6-0.5v-0.3h-0.9
			v-0.3H132.5z"/>
	</g>
	<rect x="98.1" y="104.2" class="st1" width="39" height="0.2"/>
</g>
<g id="pipeline" class="st0">
	<g class="st1">
		<g>
			<path d="M113.6,77.7c0,0,2.8-3,2.8-3h-2.7c0,0-2.5,2.3-2.6,2.4v-2.4h-2.5v6.8h2.5V80c0,0,0.5-0.4,0.5-0.5c0,0.1,1.6,1.9,1.6,1.9
				h3.4C116.6,81.5,113.6,77.7,113.6,77.7"/>
			<polygon points="138.7,74.7 138.7,77.1 136.5,77.1 136.5,74.7 133.9,74.7 133.9,81.4 136.5,81.4 136.5,79 138.6,79 138.6,81.4 
				141.3,81.4 141.3,74.7 			"/>
			<path d="M121.7,76.7v2.7c0,0.3-0.2,0.5-0.4,0.5h-1.4c-0.2,0-0.4-0.2-0.4-0.5v-2.7c0-0.3,0.2-0.5,0.4-0.5h1.4
				C121.5,76.2,121.7,76.5,121.7,76.7 M122.8,74.7h-4.4c-0.8,0-1.5,0.8-1.5,1.7v3.4c0,0.9,0.7,1.7,1.5,1.7h4.4
				c0.8,0,1.5-0.8,1.5-1.7v-3.4C124.3,75.4,123.6,74.7,122.8,74.7"/>
			<path d="M132.7,77.1v-0.5c0-0.6-0.2-1.2-0.6-1.6c-0.2-0.2-0.5-0.4-0.8-0.4h-4.6c-0.7,0-1.4,0.9-1.4,1.9v2.9
				c0,1.1,0.6,1.9,1.4,1.9h4.6c0.7,0,1.4-0.9,1.4-1.9v-0.8l-2.4,0l-0.1,0.6c0,0.3-0.2,0.6-0.4,0.6h-1.4c-0.2,0-0.4-0.2-0.4-0.5v-2.7
				c0-0.3,0.2-0.5,0.4-0.5h1.4c0.2,0,0.4,0.2,0.4,0.5v0.4H132.7z"/>
			<path d="M141.8,80.6v0.1h0.3v0.7h0.2v-0.7h0.3v-0.1H141.8z M143.4,80.6l-0.2,0.6l-0.2-0.6h-0.3v0.9h0.2v-0.7l0.2,0.7h0.1l0.2-0.7
				v0.7h0.2v-0.9H143.4z"/>
			<g>
				<path class="st2" d="M101.7,74.7L101.7,74.7h-4.5v6.8l4.4,0c0,0-1.1-3.4-1.1-3.4C100.6,78.1,101.7,74.7,101.7,74.7z"/>
				<polygon class="st3" points="103.3,74.7 101.3,78.1 103.3,81.4 106.5,81.4 106.5,74.7 				"/>
			</g>
		</g>
	</g>
	<g class="st1">
		<path d="M97.2,86.5h1.5c0.6,0,0.7,0.4,0.7,0.9c0,0.3,0,0.9-0.7,0.9h-1.2v1.2h-0.3V86.5z M97.6,86.8V88h0.9c0.5,0,0.7,0,0.7-0.6
			c0-0.6-0.1-0.7-0.5-0.7H97.6z"/>
		<path d="M100.3,89.5H100v-3h0.3V89.5z"/>
		<path d="M100.8,86.5h1.5c0.6,0,0.7,0.4,0.7,0.9c0,0.3,0,0.9-0.7,0.9h-1.2v1.2h-0.3V86.5z M101.2,86.8V88h0.9c0.5,0,0.7,0,0.7-0.6
			c0-0.6-0.1-0.7-0.5-0.7H101.2z"/>
		<path d="M103.8,87.8h1.5v0.3h-1.5v1.1h1.6v0.3h-2v-3h2v0.3h-1.6V87.8z"/>
		<path d="M106.2,89.2h1.5v0.3h-1.9v-3h0.3V89.2z"/>
		<path d="M108.4,89.5h-0.3v-3h0.3V89.5z"/>
		<path d="M111.6,89.5H111l-1.7-2.8h0v2.8H109v-3h0.6l1.7,2.8h0v-2.8h0.3V89.5z"/>
		<path d="M112.4,87.8h1.5v0.3h-1.5v1.1h1.6v0.3h-2v-3h2v0.3h-1.6V87.8z"/>
	</g>
	<rect x="97.2" y="84.7" class="st1" width="44.1" height="0.3"/>
</g>
<g id="minerals" class="st0">
	<g class="st1">
		<g>
			<path d="M108.3,61.2c0,0,1.8-1.9,1.8-1.9h-1.7c0,0-1.6,1.4-1.6,1.5v-1.5h-1.6v4.3h1.6v-0.9c0,0,0.3-0.3,0.3-0.3c0,0,1,1.2,1,1.2
				h2.1C110.3,63.6,108.4,61.3,108.3,61.2"/>
			<polygon points="124.1,59.3 124.1,60.9 122.7,60.9 122.7,59.3 121.1,59.3 121.1,63.6 122.7,63.6 122.7,62 124.1,62 124.1,63.6 
				125.7,63.6 125.7,59.3 			"/>
			<path d="M113.4,60.6v1.7c0,0.2-0.1,0.3-0.3,0.3h-0.9c-0.2,0-0.3-0.1-0.3-0.3v-1.7c0-0.2,0.1-0.3,0.3-0.3h0.9
				C113.3,60.3,113.4,60.5,113.4,60.6 M114.1,59.3h-2.8c-0.5,0-0.9,0.5-0.9,1.1v2.1c0,0.6,0.4,1.1,0.9,1.1h2.8
				c0.5,0,0.9-0.5,0.9-1.1v-2.1C115,59.8,114.6,59.3,114.1,59.3"/>
			<path d="M120.3,60.9v-0.3c0-0.4-0.1-0.8-0.4-1c-0.1-0.1-0.3-0.2-0.5-0.2h-2.9c-0.5,0-0.8,0.5-0.8,1.2v1.8c0,0.7,0.4,1.2,0.8,1.2
				h2.9c0.5,0,0.8-0.5,0.8-1.2v-0.5l-1.5,0l0,0.4c0,0.2-0.1,0.4-0.3,0.4h-0.9c-0.2,0-0.3-0.1-0.3-0.3v-1.7c0-0.2,0.1-0.3,0.3-0.3
				h0.9c0.2,0,0.3,0.1,0.3,0.3v0.2H120.3z"/>
			<path d="M126,63L126,63l0.2,0.1v0.5h0.1v-0.5h0.2V63H126z M127.1,63l-0.1,0.4l-0.1-0.4h-0.2v0.6h0.1v-0.4l0.2,0.4h0.1l0.2-0.4
				v0.4h0.1V63H127.1z"/>
			<g>
				<path class="st2" d="M100.9,59.3L100.9,59.3h-2.8v4.3l2.8,0c0,0-0.7-2.1-0.7-2.1C100.2,61.5,100.9,59.3,100.9,59.3z"/>
				<polygon class="st3" points="101.9,59.3 100.6,61.5 101.9,63.6 103.9,63.6 103.9,59.3 				"/>
			</g>
		</g>
	</g>
	<g class="st1">
		<rect x="98.1" y="65.6" width="27.6" height="0.2"/>
	</g>
	<g class="st1">
		<path d="M99.3,68.6h-0.2l-0.7-1.7h0v1.7h-0.2v-1.9h0.4l0.7,1.6l0.7-1.6h0.4v1.9H100v-1.7h0L99.3,68.6z"/>
		<path d="M100.8,68.6h-0.2v-1.9h0.2V68.6z"/>
		<path d="M102.8,68.6h-0.4l-1.1-1.7h0v1.7h-0.2v-1.9h0.4l1.1,1.7h0v-1.7h0.2V68.6z"/>
		<path d="M103.3,67.6h1v0.2h-1v0.7h1v0.2h-1.2v-1.9h1.2v0.2h-1V67.6z"/>
		<path d="M104.8,68.6h-0.2v-1.9h0.9c0.4,0,0.6,0.1,0.6,0.5c0,0.3,0,0.5-0.3,0.5v0c0.2,0,0.3,0.1,0.3,0.3v0.5h-0.2v-0.4
			c0-0.2-0.1-0.4-0.3-0.4h-0.7V68.6z M105.4,67.7c0.3,0,0.4-0.1,0.4-0.4c0-0.2,0-0.3-0.4-0.3h-0.7v0.8H105.4z"/>
		<path d="M106.5,68.2l-0.1,0.4h-0.2l0.7-1.9h0.3l0.7,1.9h-0.2l-0.1-0.4H106.5z M107,66.9l-0.4,1.1h0.8L107,66.9z"/>
		<path d="M108.3,68.5h1v0.2h-1.2v-1.9h0.2V68.5z"/>
		<path d="M109.4,67.3c0-0.5,0.2-0.6,0.7-0.6c0.4,0,0.7,0,0.7,0.5h-0.2c0-0.3-0.1-0.3-0.5-0.3c-0.4,0-0.5,0.1-0.5,0.3
			c0,0.4,0.2,0.3,0.5,0.3c0.5,0,0.7,0,0.7,0.5c0,0.5-0.3,0.6-0.7,0.6c-0.5,0-0.7-0.1-0.7-0.6h0.2c0,0.4,0.1,0.4,0.5,0.4
			c0.4,0,0.5,0,0.5-0.4c0-0.4-0.2-0.3-0.5-0.3C109.7,67.7,109.4,67.8,109.4,67.3z"/>
	</g>
</g>
<g id="kii" class="st0">
	<g class="st1">
		<path d="M103.9,49.8c0,0,1.7-1.8,1.7-1.8H104c0,0-1.5,1.3-1.5,1.4V48H101v4h1.5v-0.9c0,0,0.3-0.2,0.3-0.3c0,0,0.9,1.1,0.9,1.1h2
			C105.7,52,103.9,49.8,103.9,49.8"/>
		<polygon points="118.5,48 118.5,49.4 117.3,49.4 117.3,48 115.8,48 115.8,52 117.3,52 117.3,50.5 118.5,50.5 118.5,52 120.1,52 
			120.1,48 		"/>
		<path d="M108.6,49.2v1.6c0,0.2-0.1,0.3-0.3,0.3h-0.8c-0.1,0-0.3-0.1-0.3-0.3v-1.6c0-0.2,0.1-0.3,0.3-0.3h0.8
			C108.5,48.9,108.6,49.1,108.6,49.2 M109.2,48h-2.6c-0.5,0-0.9,0.4-0.9,1v2c0,0.5,0.4,1,0.9,1h2.6c0.5,0,0.9-0.4,0.9-1v-2
			C110.1,48.4,109.7,48,109.2,48"/>
		<path d="M115.1,49.4v-0.3c0-0.4-0.1-0.7-0.3-0.9c-0.1-0.1-0.3-0.2-0.5-0.2h-2.7c-0.4,0-0.8,0.5-0.8,1.1v1.7c0,0.6,0.4,1.1,0.8,1.1
			h2.7c0.4,0,0.8-0.5,0.8-1.1v-0.5l-1.4,0l0,0.4c0,0.2-0.1,0.3-0.3,0.3h-0.8c-0.1,0-0.3-0.1-0.3-0.3v-1.6c0-0.2,0.1-0.3,0.3-0.3h0.8
			c0.1,0,0.3,0.1,0.3,0.3v0.2H115.1z"/>
		<path d="M120.4,51.4L120.4,51.4l0.2,0.1V52h0.1v-0.4h0.2v-0.1H120.4z M121.3,51.4l-0.1,0.4l-0.1-0.4h-0.1V52h0.1v-0.4l0.1,0.4h0.1
			L121.3,51.4l0.1,0.5h0.1v-0.5H121.3z"/>
		<g>
			<path class="st2" d="M97,48L97,48h-2.6v4l2.6,0c0,0-0.6-2-0.6-2C96.3,50,97,48,97,48z"/>
			<polygon class="st3" points="97.9,48 96.7,50 97.9,52 99.7,52 99.7,48 			"/>
		</g>
	</g>
</g>
<g id="chemtech" class="st0">
	<g class="st1">
		<g>
			<path class="st4" d="M101.7,33.5h0.2l0.6-0.8h0.7l-0.8,1.1l0.8,1.1h-0.7l-0.6-0.9h-0.2v0.9h-0.6v-2.2h0.6V33.5z"/>
			<path class="st4" d="M103.2,34.1v-0.6c0-0.7,0.4-0.8,1-0.8c0.6,0,1,0.1,1,0.8v0.6c0,0.7-0.4,0.8-1,0.8
				C103.7,34.9,103.2,34.7,103.2,34.1z M104.7,34v-0.5c0-0.3-0.1-0.4-0.4-0.4c-0.3,0-0.4,0-0.4,0.4V34c0,0.3,0.1,0.4,0.4,0.4
				C104.5,34.3,104.7,34.3,104.7,34z"/>
			<path class="st4" d="M107.4,34L107.4,34c0,0.3,0,0.5-0.2,0.7c-0.2,0.2-0.4,0.2-0.7,0.2c-0.6,0-1,0-1-0.8v-0.6
				c0-0.7,0.4-0.8,1-0.8c0.6,0,0.9,0.1,0.9,0.7v0.1h-0.6v-0.1c0-0.2-0.2-0.2-0.4-0.2c-0.3,0-0.4,0.1-0.4,0.4v0.3
				c0,0.3,0,0.4,0.4,0.4c0.2,0,0.4,0,0.4-0.3V34H107.4z"/>
			<path class="st4" d="M109.5,34.8H109V34h-0.8v0.9h-0.6v-2.2h0.6v0.8h0.8v-0.8h0.6V34.8z"/>
			<path class="st4" d="M112.8,34L112.8,34c0,0.3,0,0.5-0.2,0.7c-0.2,0.2-0.4,0.2-0.7,0.2c-0.6,0-1,0-1-0.8v-0.6
				c0-0.7,0.4-0.8,1-0.8c0.6,0,0.9,0.1,0.9,0.7v0.1h-0.6v-0.1c0-0.2-0.2-0.2-0.4-0.2c-0.3,0-0.4,0.1-0.4,0.4v0.3
				c0,0.3,0,0.4,0.4,0.4c0.2,0,0.4,0,0.4-0.3V34H112.8z"/>
			<path class="st4" d="M115,34.8h-0.6V34h-0.8v0.9h-0.6v-2.2h0.6v0.8h0.8v-0.8h0.6V34.8z"/>
			<path class="st4" d="M115.9,33.5h0.9v0.4h-0.9v0.4h1v0.5h-1.6v-2.2h1.6v0.5h-1V33.5z"/>
			<path class="st4" d="M117.9,34.8h-0.6v-2.2h0.9l0.4,1.4h0l0.4-1.4h0.9v2.2h-0.6l0.1-1.7h0l-0.5,1.7h-0.5l-0.6-1.7h0L117.9,34.8z"
				/>
			<path class="st4" d="M120.9,34.8h-0.6v-2.2h0.6V34.8z"/>
			<path class="st4" d="M123.1,34L123.1,34c0,0.3,0,0.5-0.2,0.7c-0.2,0.2-0.4,0.2-0.7,0.2c-0.6,0-1,0-1-0.8v-0.6
				c0-0.7,0.4-0.8,1-0.8c0.6,0,0.9,0.1,0.9,0.7v0.1h-0.6v-0.1c0-0.2-0.2-0.2-0.4-0.2c-0.3,0-0.4,0.1-0.4,0.4v0.3
				c0,0.3,0,0.4,0.4,0.4c0.2,0,0.4,0,0.4-0.3V34H123.1z"/>
			<path class="st4" d="M123.9,34.5l-0.1,0.4h-0.6l0.7-2.2h0.9l0.7,2.2h-0.6l-0.1-0.4H123.9z M124.2,33.1L124.2,33.1L124,34h0.5
				L124.2,33.1z"/>
			<path class="st4" d="M126,34.3h0.9v0.5h-1.5v-2.2h0.6V34.3z"/>
			<path class="st4" d="M102.1,38h-0.6v-1.7H101v-0.5h1.7v0.5h-0.6V38z"/>
			<path class="st4" d="M103.5,36.7h0.9v0.4h-0.9v0.4h1V38h-1.6v-2.2h1.6v0.5h-1V36.7z"/>
			<path class="st4" d="M106.7,37.1L106.7,37.1c0,0.3,0,0.5-0.2,0.7c-0.2,0.2-0.4,0.2-0.7,0.2c-0.6,0-1,0-1-0.8v-0.6
				c0-0.7,0.4-0.8,1-0.8c0.6,0,0.9,0.1,0.9,0.7v0.1h-0.6v-0.1c0-0.2-0.2-0.2-0.4-0.2c-0.3,0-0.4,0.1-0.4,0.4V37c0,0.3,0,0.4,0.4,0.4
				c0.2,0,0.4,0,0.4-0.3v-0.1H106.7z"/>
			<path class="st4" d="M108.9,38h-0.6v-0.9h-0.8V38h-0.6v-2.2h0.6v0.8h0.8v-0.8h0.6V38z"/>
			<path class="st4" d="M109.8,38h-0.6v-2.2h1l0.6,1.7h0l0-1.7h0.6V38h-1l-0.6-1.7h0L109.8,38z"/>
			<path class="st4" d="M111.6,37.2v-0.6c0-0.7,0.4-0.8,1-0.8c0.6,0,1,0.1,1,0.8v0.6c0,0.7-0.4,0.8-1,0.8
				C112.1,38,111.6,37.8,111.6,37.2z M113.1,37.1v-0.5c0-0.3-0.1-0.4-0.4-0.4c-0.3,0-0.4,0-0.4,0.4v0.5c0,0.3,0.1,0.4,0.4,0.4
				C113,37.5,113.1,37.4,113.1,37.1z"/>
			<path class="st4" d="M114.5,37.5h0.9V38h-1.5v-2.2h0.6V37.5z"/>
			<path class="st4" d="M115.5,37.2v-0.6c0-0.7,0.4-0.8,1-0.8c0.6,0,1,0.1,1,0.8v0.6c0,0.7-0.4,0.8-1,0.8
				C116,38,115.5,37.8,115.5,37.2z M116.9,37.1v-0.5c0-0.3-0.1-0.4-0.4-0.4c-0.3,0-0.4,0-0.4,0.4v0.5c0,0.3,0.1,0.4,0.4,0.4
				C116.8,37.5,116.9,37.4,116.9,37.1z"/>
			<path class="st4" d="M119.1,36.5c0-0.2-0.2-0.2-0.4-0.2c-0.4,0-0.4,0.1-0.4,0.5v0.4c0,0.4,0.1,0.4,0.4,0.4c0.3,0,0.4-0.1,0.4-0.4
				h-0.4v-0.4h1v0.4c0,0.7-0.2,0.9-1,0.9c-0.7,0-1-0.1-1-0.8v-0.6c0-0.7,0.4-0.8,1-0.8c0.6,0,1,0,1,0.7H119.1z"/>
			<path class="st4" d="M121.1,37.2V38h-0.6v-0.8l-0.8-1.4h0.7l0.4,0.8h0l0.4-0.8h0.7L121.1,37.2z"/>
			<path class="st4" d="M124.4,36.5c0-0.2-0.2-0.2-0.4-0.2c-0.4,0-0.4,0.1-0.4,0.5v0.4c0,0.4,0.1,0.4,0.4,0.4c0.3,0,0.4-0.1,0.4-0.4
				H124v-0.4h1v0.4c0,0.7-0.2,0.9-1,0.9c-0.7,0-1-0.1-1-0.8v-0.6c0-0.7,0.4-0.8,1-0.8c0.6,0,1,0,1,0.7H124.4z"/>
			<path class="st4" d="M125.3,35.8h1.1c0.5,0,0.7,0.1,0.7,0.7c0,0.4,0,0.6-0.4,0.7v0c0.2,0,0.4,0.1,0.4,0.4V38h-0.6v-0.3
				c0-0.2-0.1-0.3-0.2-0.3h-0.4V38h-0.6V35.8z M126.3,36.9c0.2,0,0.2-0.1,0.2-0.3c0-0.2,0-0.2-0.2-0.2h-0.4v0.6H126.3z"/>
			<path class="st4" d="M127.3,37.2v-0.6c0-0.7,0.4-0.8,1-0.8s1,0.1,1,0.8v0.6c0,0.7-0.4,0.8-1,0.8S127.3,37.8,127.3,37.2z
				 M128.8,37.1v-0.5c0-0.3-0.1-0.4-0.4-0.4c-0.3,0-0.4,0-0.4,0.4v0.5c0,0.3,0.1,0.4,0.4,0.4C128.7,37.5,128.8,37.4,128.8,37.1z"/>
			<path class="st4" d="M131.5,35.8v1.4c0,0.6-0.3,0.7-0.9,0.7c-0.9,0-1-0.2-1-0.7v-1.4h0.6v1.4c0,0.2,0.1,0.2,0.4,0.2
				c0.2,0,0.3,0,0.3-0.3v-1.4H131.5z"/>
			<path class="st4" d="M131.8,38v-2.2h1.1c0.5,0,0.7,0.2,0.7,0.8c0,0.6-0.1,0.8-0.7,0.8h-0.5V38H131.8z M132.8,36.9
				c0.2,0,0.3,0,0.3-0.3c0-0.2,0-0.3-0.3-0.3h-0.4v0.6H132.8z"/>
			<path class="st4" d="M135.5,37.5h0.9V38h-1.5v-2.2h0.6V37.5z"/>
			<path class="st4" d="M137.4,38h-0.6v-1.7h-0.6v-0.5h1.7v0.5h-0.6V38z"/>
			<path class="st4" d="M138.1,35.8h1.1c0.6,0,0.9,0.2,0.9,0.8v0.5c0,0.6-0.2,0.9-0.8,0.9h-1.2V35.8z M138.7,37.5h0.5
				c0.2,0,0.3-0.1,0.3-0.4v-0.5c0-0.3-0.1-0.3-0.3-0.3h-0.5V37.5z"/>
		</g>
	</g>
	<g class="st1">
		<path class="st4" d="M99.1,37.6L99.1,37.6l0.2,0.1v0.4h0.1v-0.4h0.2v-0.1H99.1z M100,37.6l-0.1,0.4l-0.1-0.4h-0.1v0.5h0.1v-0.4
			l0.1,0.4h0.1L100,37.6l0.1,0.5h0.1v-0.5H100z"/>
		<g>
			<path class="st5" d="M94.8,32.5L94.8,32.5h-3.7v5.6l3.7,0c0,0-0.9-2.8-0.9-2.8C93.9,35.3,94.8,32.5,94.8,32.5z"/>
			<polygon class="st3" points="96.1,32.5 94.4,35.3 96.1,38.1 98.7,38.1 98.7,32.5 			"/>
		</g>
	</g>
</g>
<g id="kaes" class="st0">
	<g class="st1">
		<g>
			<path d="M113.8,20.6c0,0,1.5-1.6,1.5-1.6h-1.4c0,0-1.3,1.2-1.4,1.3V19h-1.3v3.6h1.3v-0.8c0,0,0.3-0.2,0.3-0.2c0,0,0.8,1,0.8,1
				h1.8C115.4,22.6,113.8,20.6,113.8,20.6"/>
			<polygon points="127.2,19 127.2,20.3 126.1,20.3 126.1,19 124.7,19 124.7,22.6 126.1,22.6 126.1,21.3 127.2,21.3 127.2,22.6 
				128.7,22.6 128.7,19 			"/>
			<path d="M118.2,20.1v1.5c0,0.1-0.1,0.3-0.2,0.3h-0.8c-0.1,0-0.2-0.1-0.2-0.3v-1.5c0-0.1,0.1-0.3,0.2-0.3h0.8
				C118,19.8,118.2,19.9,118.2,20.1 M118.7,19h-2.4c-0.4,0-0.8,0.4-0.8,0.9v1.8c0,0.5,0.4,0.9,0.8,0.9h2.4c0.4,0,0.8-0.4,0.8-0.9
				v-1.8C119.5,19.4,119.2,19,118.7,19"/>
			<path d="M124.1,20.3V20c0-0.3-0.1-0.7-0.3-0.9c-0.1-0.1-0.3-0.2-0.4-0.2h-2.5c-0.4,0-0.7,0.5-0.7,1v1.5c0,0.6,0.3,1,0.7,1h2.5
				c0.4,0,0.7-0.5,0.7-1v-0.4l-1.3,0l0,0.3c0,0.1-0.1,0.3-0.2,0.3h-0.8c-0.1,0-0.2-0.1-0.2-0.3v-1.5c0-0.1,0.1-0.3,0.2-0.3h0.8
				c0.1,0,0.2,0.1,0.2,0.3v0.2H124.1z"/>
			<path d="M128.9,22.1L128.9,22.1l0.2,0.1v0.4h0.1v-0.4h0.2v-0.1H128.9z M129.8,22.1l-0.1,0.3l-0.1-0.3h-0.1v0.5h0.1v-0.4l0.1,0.4
				h0.1L129.8,22.1l0,0.5h0.1v-0.5H129.8z"/>
			<g>
				<path class="st2" d="M107.4,19L107.4,19H105v3.6l2.4,0c0,0-0.6-1.8-0.6-1.8C106.8,20.8,107.4,19,107.4,19z"/>
				<polygon class="st3" points="108.3,19 107.2,20.8 108.3,22.6 110,22.6 110,19 				"/>
			</g>
		</g>
	</g>
	<g class="st1">
		<rect x="105" y="24.4" width="27.2" height="0.1"/>
	</g>
	<g class="st1">
		<path d="M105.2,26.6l-0.1,0.3h-0.2l0.6-1.6h0.3l0.6,1.6h-0.2l-0.1-0.3H105.2z M105.6,25.5l-0.4,1h0.7L105.6,25.5z"/>
		<path d="M107.8,26.1v0.4c0,0.4-0.2,0.5-0.5,0.5h-0.2c-0.4,0-0.6-0.1-0.6-0.6v-0.5c0-0.4,0.2-0.6,0.5-0.6h0.4
			c0.2,0,0.4,0.1,0.4,0.4v0.1h-0.2v-0.1c0-0.2-0.1-0.2-0.3-0.2h-0.2c-0.4,0-0.4,0.1-0.4,0.4v0.5c0,0.3,0.1,0.4,0.4,0.4h0.2
			c0.3,0,0.4,0,0.4-0.3v-0.2h-0.5v-0.2H107.8z"/>
		<path d="M110,26.7c-0.1,0.2-0.3,0.2-0.6,0.2c-0.4,0-0.6,0-0.6-0.5c0-0.4,0.1-0.4,0.3-0.4c-0.1-0.1-0.1-0.1-0.1-0.3
			c0-0.3,0.2-0.4,0.5-0.4c0.3,0,0.5,0.1,0.5,0.4v0.1h-0.2v-0.1c0-0.2,0-0.2-0.3-0.2c-0.2,0-0.3,0-0.3,0.2c0,0.1,0,0.2,0.1,0.2
			l0.6,0.5c0,0,0-0.1,0-0.1c0,0,0-0.1,0-0.1h0.2c0,0,0,0.1,0,0.1c0,0.1,0,0.2,0,0.2l0.3,0.2l-0.1,0.1L110,26.7z M109.2,26.1
			c-0.2,0.1-0.3,0.1-0.3,0.3c0,0.3,0,0.3,0.4,0.3c0.2,0,0.4,0,0.5-0.2L109.2,26.1z"/>
		<path d="M111.4,26h0.8v0.2h-0.8v0.6h0.9v0.2h-1v-1.6h1v0.2h-0.9V26z"/>
		<path d="M113.9,26.9h-0.3l-0.9-1.5h0v1.5h-0.2v-1.6h0.3l0.9,1.5h0v-1.5h0.2V26.9z"/>
		<path d="M114.3,26h0.8v0.2h-0.8v0.6h0.9v0.2h-1v-1.6h1v0.2h-0.9V26z"/>
		<path d="M115.6,26.9h-0.2v-1.6h0.8c0.4,0,0.5,0.1,0.5,0.5c0,0.2,0,0.4-0.3,0.4v0c0.2,0,0.3,0.1,0.3,0.3v0.4h-0.2v-0.3
			c0-0.2,0-0.3-0.3-0.3h-0.6V26.9z M116.1,26.1c0.3,0,0.3-0.1,0.3-0.4c0-0.2,0-0.3-0.3-0.3h-0.6v0.7H116.1z"/>
		<path d="M118.2,26.1v0.4c0,0.4-0.2,0.5-0.5,0.5h-0.2c-0.4,0-0.6-0.1-0.6-0.6v-0.5c0-0.4,0.2-0.6,0.5-0.6h0.4
			c0.2,0,0.4,0.1,0.4,0.4v0.1H118v-0.1c0-0.2-0.1-0.2-0.3-0.2h-0.2c-0.4,0-0.4,0.1-0.4,0.4v0.5c0,0.3,0.1,0.4,0.4,0.4h0.2
			c0.3,0,0.4,0,0.4-0.3v-0.2h-0.5v-0.2H118.2z"/>
		<path d="M119,26.3v0.7h-0.2v-0.7l-0.6-0.9h0.2l0.5,0.8l0.5-0.8h0.2L119,26.3z"/>
		<path d="M120.5,25.8c0-0.4,0.2-0.5,0.6-0.5c0.4,0,0.6,0,0.6,0.5h-0.2c0-0.3-0.1-0.3-0.4-0.3c-0.4,0-0.4,0-0.4,0.3
			c0,0.3,0.1,0.3,0.5,0.3c0.4,0,0.6,0,0.6,0.5c0,0.5-0.2,0.5-0.6,0.5c-0.4,0-0.6,0-0.6-0.5h0.2c0,0.4,0.1,0.4,0.4,0.4
			c0.3,0,0.4,0,0.4-0.3c0-0.3-0.1-0.3-0.4-0.3C120.7,26.2,120.5,26.2,120.5,25.8z"/>
		<path d="M122.6,25.3c0.4,0,0.5,0.1,0.5,0.5v0.6c0,0.4-0.1,0.5-0.5,0.5h-0.2c-0.4,0-0.5-0.1-0.5-0.5v-0.6c0-0.4,0.1-0.5,0.5-0.5
			H122.6z M122.4,25.5c-0.3,0-0.3,0.1-0.3,0.4v0.6c0,0.3,0.1,0.4,0.3,0.4h0.2c0.2,0,0.3,0,0.3-0.4v-0.6c0-0.3-0.1-0.4-0.3-0.4H122.4
			z"/>
		<path d="M123.6,26.8h0.8v0.2h-1v-1.6h0.2V26.8z"/>
		<path d="M125.9,25.3v1.2c0,0.4-0.3,0.5-0.6,0.5c-0.4,0-0.6,0-0.6-0.5v-1.2h0.2v1.2c0,0.3,0.1,0.3,0.5,0.3c0.3,0,0.5,0,0.5-0.3
			v-1.2H125.9z"/>
		<path d="M126.7,26.9h-0.2v-1.5H126v-0.2h1.2v0.2h-0.5V26.9z"/>
		<path d="M127.6,26.9h-0.2v-1.6h0.2V26.9z"/>
		<path d="M128.6,25.3c0.4,0,0.5,0.1,0.5,0.5v0.6c0,0.4-0.1,0.5-0.5,0.5h-0.2c-0.4,0-0.5-0.1-0.5-0.5v-0.6c0-0.4,0.1-0.5,0.5-0.5
			H128.6z M128.4,25.5c-0.3,0-0.3,0.1-0.3,0.4v0.6c0,0.3,0.1,0.4,0.3,0.4h0.2c0.2,0,0.3,0,0.3-0.4v-0.6c0-0.3-0.1-0.4-0.3-0.4H128.4
			z"/>
		<path d="M130.8,26.9h-0.3l-0.9-1.5h0v1.5h-0.2v-1.6h0.3l0.9,1.5h0v-1.5h0.2V26.9z"/>
		<path d="M131,25.8c0-0.4,0.2-0.5,0.6-0.5c0.4,0,0.6,0,0.6,0.5H132c0-0.3-0.1-0.3-0.4-0.3c-0.4,0-0.4,0-0.4,0.3
			c0,0.3,0.1,0.3,0.5,0.3c0.4,0,0.6,0,0.6,0.5c0,0.5-0.2,0.5-0.6,0.5c-0.4,0-0.6,0-0.6-0.5h0.2c0,0.4,0.1,0.4,0.4,0.4
			c0.3,0,0.4,0,0.4-0.3c0-0.3-0.1-0.3-0.4-0.3C131.3,26.2,131,26.2,131,25.8z"/>
	</g>
</g>
<g id="invista" class="st0">
	<g class="st1">
		<path class="st6" d="M139.1,5.3h-0.2v0.6h-0.1V5.3h-0.2V5.2h0.5L139.1,5.3z M139.7,5.9V5.5c0,0,0-0.1,0-0.1h0c0,0,0,0.1,0,0.1
			l-0.1,0.2h-0.1l-0.1-0.2c0,0,0-0.1,0-0.1h0c0,0,0,0.1,0,0.1v0.4h-0.1V5.2h0.1l0.2,0.3c0,0,0,0.1,0.1,0.1h0c0,0,0-0.1,0-0.1
			l0.2-0.3h0.1v0.7H139.7z"/>
		<path class="st7" d="M105,3.6c0.8-0.8,1.7-1.2,2.6-1.3c1.3-0.2,2.5,0.2,3.2,0.5c1.5,0.8,2,2,1.8,3.4c-0.2,1.6-1.2,3.1-2.8,4.3
			c-0.6,0.5-1.2,0.6-1.6,0.5c-0.9-0.2-1.8-1-2.5-1.9c-1-1.4-1.7-3-1.6-3.8C104.2,4.6,104.6,4,105,3.6z M107.1,3
			c-1.6,0.6-3,1.6-2.8,2.7c0.2,0.9,0.9,2,1.8,3.1c0.9,1.1,2.1,2,3,1.8c1.1-0.1,2.2-2.2,2.5-4.2c0.3-1.6,0.1-3.2-1.1-3.7
			C109.8,2.5,108.2,2.6,107.1,3z"/>
		<path class="st8" d="M104.1,7.2c0-0.7,0.2-1.4,0.5-1.9c0.5-0.9,1.5-1.6,2.3-1.8c1.6-0.5,2.7,0.3,3.3,1.5c0.5,0.9,0.6,2.1,0.5,3.3
			c-0.1,0.5-0.2,0.9-0.6,1.2c-0.6,0.4-1.6,0.4-2.6,0.3c-1.3-0.2-2.6-0.8-2.9-1.1C104.3,8.3,104.2,7.8,104.1,7.2z M105,5.6
			c-0.6,1.1-0.8,2.5,0,3c0.4,0.3,1.6,0.6,2.7,0.7c1.2,0.1,2.3,0,2.7-0.7c0.4-0.7,0-2.2-0.8-3.4c-0.8-1.3-2-2.1-2.9-1.6
			C106.1,4.1,105.5,4.8,105,5.6z"/>
		<path class="st9" d="M108.6,8.1c-0.2-0.2-0.5-0.5-0.6-0.8c-0.2-0.6-0.2-1.5,0.2-2.2c0.6-0.9,1.5-1.1,2.3-1c1.1,0.2,2.3,1,2.8,1.7
			c0.1,0.2,0.2,0.3,0.2,0.5c0,0.6-0.6,1.1-1.3,1.6c-0.8,0.5-1.8,0.8-2.3,0.8C109.4,8.7,108.9,8.4,108.6,8.1z M108.3,7
			c0.3,1,1.1,1.8,1.8,1.6c0.2,0,0.9-0.3,1.7-0.8c0.8-0.5,1.4-1.1,1.4-1.7c0-0.6-1.4-1.1-2.6-1.3c-1.1-0.2-2.1,0-2.3,0.7
			C108.1,5.9,108.2,6.4,108.3,7z"/>
		<rect x="116.6" y="4" class="st6" width="0.7" height="4.8"/>
		<path class="st6" d="M121.5,8.7l-1.4-1.9c-0.3-0.4-0.4-0.5-0.5-0.7h0c0,0.2,0,0.3,0,0.6v2H119V5.2h0.7l1.3,1.8
			c0.3,0.4,0.5,0.6,0.6,0.8h0c0-0.2,0-0.3,0-0.6V5.2h0.6v3.5H121.5z"/>
		<path class="st6" d="M125,8.8h-0.4l-1.5-3.5h0.7l0.7,1.9c0.1,0.2,0.2,0.5,0.3,0.7h0c0.1-0.2,0.2-0.5,0.3-0.7l0.8-1.9h0.7L125,8.8z
			"/>
		<rect x="127.5" y="5.2" class="st6" width="0.6" height="3.5"/>
		<path class="st6" d="M130.6,8.8c-0.5,0-0.8-0.1-1.1-0.3l0.2-0.5c0.2,0.2,0.5,0.3,0.9,0.3c0.3,0,0.6-0.2,0.6-0.5
			c0-0.6-0.8-0.5-1.3-0.9c-0.2-0.2-0.3-0.4-0.3-0.7c0-0.5,0.4-0.9,1.1-0.9c0.4,0,0.7,0.1,0.9,0.2v0.6c-0.3-0.2-0.6-0.2-0.8-0.2
			c-0.3,0-0.6,0.1-0.6,0.4c0,0.4,0.3,0.4,0.7,0.6c0.4,0.2,0.9,0.4,0.9,1.1C131.8,8.4,131.3,8.8,130.6,8.8z"/>
		<polygon class="st6" points="135.2,5.8 134.1,5.8 134.1,8.7 133.5,8.7 133.5,5.8 132.4,5.8 132.4,5.2 135.4,5.2 		"/>
		<path class="st6" d="M137.6,7.4h-0.9l0.3-0.7c0.1-0.2,0.1-0.4,0.2-0.5h0c0,0.1,0.1,0.3,0.2,0.5L137.6,7.4 M138.8,8.7l-1.4-3.5
			h-0.4l-1.4,3.5h0.7l0.3-0.8h1.3l0.3,0.8H138.8z"/>
	</g>
</g>
<g id="gp" class="st0">
	<g class="st1">
		<g>
			<path class="st10" d="M109-7.7L109-7.7L109-7.7l5.4,5.5c0,0-4.3,0-4.3,0c-0.2,0-0.3,0-0.5,0.1c-0.1,0.1-0.2,0.2-0.3,0.4
				c0,0-0.3,0.6-0.3,0.6s-0.3-0.6-0.3-0.6c-0.1-0.2-0.1-0.3-0.3-0.4c-0.1-0.1-0.3-0.1-0.5-0.1c0,0-4.3,0-4.3,0L109-7.7L109-7.7
				L109-7.7z"/>
			<path class="st11" d="M108.9-2.8c-0.3,0.1-0.6,0.2-1.1,0.2c-1.1,0-1.5-0.5-1.5-1.2c0-0.8,0.6-1.3,1.5-1.3c0.5,0,0.8,0.1,1.1,0.2
				v0.6h-0.1c-0.2-0.2-0.5-0.3-0.9-0.3c-0.5,0-0.9,0.3-0.9,0.8c0,0.4,0.2,0.8,0.9,0.8c0.1,0,0.2,0,0.3,0v-0.4h-0.6V-4h1.3V-2.8z"/>
			<path class="st11" d="M111.2-4.9c-0.2-0.1-0.5-0.1-0.7-0.1h-1.2v2.4h0.7v-0.8h0.5c0.3,0,0.5,0,0.8-0.2c0.2-0.1,0.4-0.4,0.4-0.7
				C111.6-4.6,111.4-4.8,111.2-4.9z M110.8-4.3c0,0.2-0.1,0.3-0.2,0.3c-0.1,0-0.2,0.1-0.3,0.1h-0.4v-0.7h0.4c0.1,0,0.3,0,0.3,0
				C110.7-4.5,110.8-4.4,110.8-4.3z"/>
			<g>
				<g>
					<g>
						<path d="M124.2-3.1c-0.1,0-0.2,0-0.2-0.1c-0.1-0.1-0.1-0.2-0.1-0.4c0-0.3,0.2-0.5,0.4-0.5c0.1,0,0.2,0,0.3,0.1v0.8
							C124.4-3.2,124.3-3.1,124.2-3.1z M125.1-4.5h-0.5l0,0.1c-0.1-0.1-0.3-0.1-0.5-0.1c-0.4,0-0.8,0.3-0.8,0.9
							c0,0.6,0.3,0.9,0.8,0.9c0.2,0,0.3-0.1,0.5-0.2v0c0,0.1,0,0.1,0,0.2c-0.1,0.2-0.2,0.3-0.5,0.3c-0.2,0-0.4-0.1-0.5-0.1h-0.1v0.5
							C123.7-2,124-2,124.1-2c0.3,0,0.7-0.1,0.9-0.5c0-0.1,0.1-0.3,0.1-0.4V-4.5z"/>
						<path d="M117.6-2.8c-0.1,0.1-0.5,0.2-0.9,0.2c-0.7,0-1.3-0.5-1.3-1.2c0-0.7,0.5-1.2,1.3-1.2c0.4,0,0.7,0.1,0.9,0.2v0.5h-0.1
							c-0.2-0.2-0.4-0.3-0.7-0.3c-0.5,0-0.7,0.4-0.7,0.8c0,0.4,0.2,0.8,0.7,0.8c0.1,0,0.2,0,0.2,0v-0.4h-0.4V-4h0.9V-2.8z"/>
						<path d="M121.2-3.6c0,0.3-0.1,0.6-0.4,0.6c-0.3,0-0.4-0.2-0.4-0.6c0-0.3,0.1-0.6,0.4-0.6C121.1-4.1,121.2-3.9,121.2-3.6z
							 M121.8-3.6c0-0.6-0.4-1-0.9-1c-0.6,0-0.9,0.3-0.9,1c0,0.6,0.4,1,0.9,1C121.4-2.6,121.8-2.9,121.8-3.6z"/>
						<path d="M123.2-3.9L123.2-3.9c-0.1,0-0.2,0-0.3,0c-0.1,0-0.3,0-0.3,0.1v1.2H122v-1.8h0.6v0.3c0.1-0.1,0.2-0.2,0.3-0.2
							c0.1,0,0.2-0.1,0.2-0.1c0.1,0,0.1,0,0.1,0V-3.9z"/>
						<path d="M130.9-4.3c0-0.6-0.4-0.8-0.9-0.8h-1v1.2h-0.7v0.4h0.7v0.8h0.6v-0.8h0.3C130.6-3.4,130.9-3.8,130.9-4.3z M129.7-3.9
							h-0.2v-0.7h0.2c0.3,0,0.5,0.1,0.5,0.3C130.3-4,130-3.9,129.7-3.9z"/>
						<path d="M133.8-2.6c-0.6,0-1-0.3-1-0.9c0-0.6,0.4-1,1-1c0.2,0,0.4,0.1,0.6,0.1v0.5h-0.1c-0.2-0.1-0.3-0.2-0.5-0.2
							c-0.3,0-0.5,0.2-0.5,0.5c0,0.4,0.2,0.5,0.5,0.5c0.2,0,0.4-0.1,0.5-0.2h0.1v0.5C134.2-2.7,134-2.6,133.8-2.6z"/>
						<path d="M135.3-2.7h-0.6v-1.8h0.6V-2.7z M135.3-4.7h-0.6v-0.4h0.6V-4.7z"/>
						<path d="M136.7-4.7L136.7-4.7c-0.1,0-0.2-0.1-0.3-0.1c-0.1,0-0.1,0-0.2,0.1c0,0,0,0.1,0,0.2v0.1h0.5v0.4h-0.5v1.4h-0.6v-1.4
							h-0.3v-0.4h0.3v-0.1c0-0.2,0-0.3,0.1-0.4c0.1-0.1,0.3-0.2,0.5-0.2c0.2,0,0.3,0,0.4,0V-4.7z"/>
						<path d="M138.8-2.6c-0.6,0-1-0.3-1-0.9c0-0.6,0.4-1,1-1c0.3,0,0.4,0.1,0.6,0.1v0.5h-0.1c-0.2-0.1-0.3-0.2-0.5-0.2
							c-0.3,0-0.5,0.2-0.5,0.5c0,0.4,0.2,0.5,0.5,0.5c0.2,0,0.4-0.1,0.5-0.2h0.1v0.5C139.2-2.7,139-2.6,138.8-2.6z"/>
						<path d="M137.5-2.7H137v-1.8h0.6V-2.7z M137.5-4.7H137v-0.4h0.6V-4.7z"/>
						<path d="M126-2.7h-0.6v-1.8h0.6V-2.7z M126-4.7h-0.6v-0.4h0.6V-4.7z"/>
						<path d="M119.7-3.5c0-0.2,0-0.5-0.2-0.6c-0.1-0.2-0.4-0.3-0.7-0.3c-0.7,0-1,0.4-1,1c0,0.6,0.5,0.9,1.1,0.9
							c0.3,0,0.5-0.1,0.7-0.2v-0.4h-0.1C119.4-3.1,119.2-3,119-3c-0.4,0-0.5-0.2-0.6-0.4h1.3V-3.5z M118.4-3.8c0-0.1,0-0.2,0.1-0.2
							c0.1-0.1,0.2-0.1,0.3-0.1c0.2,0,0.3,0.2,0.3,0.4H118.4z"/>
						<path d="M131.7-3c-0.2,0-0.3,0-0.3-0.2c0-0.2,0.1-0.2,0.4-0.3c0.1,0,0.2,0,0.2,0v0.4C132-3.1,131.8-3,131.7-3z M132-2.7h0.5
							v-1.2c0-0.2-0.1-0.4-0.2-0.5c-0.1-0.1-0.3-0.2-0.7-0.2c-0.1,0-0.4,0-0.7,0.1V-4h0.1c0.1-0.1,0.3-0.1,0.5-0.1
							c0.1,0,0.2,0,0.3,0C132-4,132-4,132-3.9v0c-0.2,0-0.3,0-0.5,0c-0.5,0.1-0.7,0.3-0.7,0.6c0,0.3,0.3,0.6,0.6,0.6
							c0.3,0,0.4-0.1,0.6-0.2V-2.7z"/>
						<path d="M127.1-3c-0.2,0-0.3,0-0.3-0.2c0-0.2,0.1-0.2,0.4-0.3c0.1,0,0.2,0,0.2,0v0.4C127.4-3.1,127.3-3,127.1-3z M127.5-2.7
							h0.5v-1.2c0-0.2-0.1-0.4-0.2-0.5c-0.1-0.1-0.4-0.2-0.7-0.2c-0.1,0-0.5,0-0.7,0.1V-4h0.1c0.1-0.1,0.3-0.1,0.5-0.1
							c0.1,0,0.3,0,0.3,0c0.1,0.1,0.1,0.1,0.1,0.2v0c-0.2,0-0.3,0-0.5,0c-0.5,0.1-0.7,0.3-0.7,0.6c0,0.3,0.3,0.6,0.6,0.6
							c0.3,0,0.4-0.1,0.6-0.2V-2.7z"/>
					</g>
				</g>
			</g>
		</g>
	</g>
</g>
<g id="fhr">
	<path class="st12" d="M12.3,4.3v7.7h0v0.9c0,0.4,0.1,0.5,0.3,0.5c0.2,0,0.3-0.2,0.3-0.5v-1h0V4.3c0-0.4-0.1-0.5-0.3-0.5
		C12.5,3.8,12.3,3.9,12.3,4.3z"/>
	<path d="M7.8,9.5h-3v0H4.4l0-5.2h1.2C5.9,4.3,6,4.2,6,4c0-0.1-0.1-0.3-0.3-0.3H4.4l0-0.5c0-1.2,0.1-1.9,0.4-2.2
		c0.2-0.2,0.5-0.3,1-0.4l0.4,0c0-0.1,0-0.2,0-0.3H4.3C3.7,0.3,3.2,0.5,2.8,1C2.4,1.4,2.1,2.2,2.1,3.3v0.2c0,0,0,0.1,0,0.1v0.2h-1
		C0.8,3.8,0.7,3.9,0.7,4c0,0.1,0.1,0.3,0.3,0.3h1v0v5.2H1c-0.3,0-0.4,0.1-0.4,0.3c0,0.2,0.1,0.3,0.4,0.3h1.1v2.8
		c0,1.2-0.1,1.9-0.3,2.2c-0.2,0.2-0.5,0.3-1.1,0.4l-0.4,0c0,0.1,0,0.2,0,0.3h1.9c0.6,0,1.1-0.2,1.5-0.7c0.4-0.5,0.7-1.2,0.7-2.3
		v-0.2c0,0,0-0.1,0-0.1l0-2.5h0.5v0h3c0.3,0,0.4-0.1,0.4-0.3C8.3,9.6,8.1,9.5,7.8,9.5z"/>
	<path class="st12" d="M9.2,5.6v7.3c0,1.1-0.3,1.8-0.7,2.3c-0.4,0.5-0.9,0.7-1.5,0.7H5.3c0-0.1-0.1-0.2,0-0.3l0.4,0
		c0.5-0.1,0.8-0.1,1.1-0.4c0.3-0.4,0.3-1,0.3-2.2V7.1c0-0.5,0.2-0.9,0.7-1.2C8.3,5.6,8.7,5.6,9.2,5.6z"/>
	<g>
		<path d="M14.7,8.7l0.2,0c0.3,0,0.3-0.1,0.3-0.9V4.9c0-0.8,0-0.9-0.3-0.9l-0.2,0V3.8h3.1c0.1,0.4,0.1,0.8,0.1,1.3l-0.2,0
			c-0.1-0.7-0.2-1-1.1-1H16v2.2h0.5c0.5,0,0.7,0,0.7-0.3l0-0.3h0.2v1.6h-0.2l0-0.3c-0.1-0.3-0.2-0.3-0.7-0.3H16v1.2
			c0,0.8,0,0.9,0.3,0.9l0.2,0v0.2h-1.9V8.7z"/>
		<path d="M18.2,8.7l0.2,0c0.3-0.1,0.3,0,0.3-0.9V4.9c0-0.8,0-0.8-0.3-0.9l-0.2,0V3.8h1.9V4l-0.2,0c-0.3,0.1-0.3,0.1-0.3,0.9v3.6
			c0.2,0.1,0.4,0.1,0.6,0.1c1,0,1-0.5,1.2-1.2l0.2,0.1c0,0.5-0.1,0.9-0.2,1.4h-3.2V8.7z"/>
		<path d="M23.3,7.8c0,0.8,0,0.9,0.3,0.9l0.2,0v0.2h-1.9V8.7l0.2,0c0.3-0.1,0.3-0.1,0.3-0.9V4.9c0-0.8,0-0.9-0.3-0.9l-0.2,0V3.8h1.9
			V4l-0.2,0c-0.3,0.1-0.3,0.1-0.3,0.9V7.8z"/>
		<path d="M24.1,8.7l0.2,0c0.3,0,0.3-0.3,0.3-1.4V3.8c0.1,0,0.3-0.1,0.3-0.1L28,7.5V5.4C28,4.1,27.9,4,27.6,4l-0.2,0V3.8h1.5V4
			l-0.2,0c-0.3,0-0.3,0.3-0.3,1.4v3.5c-0.1,0-0.3,0.1-0.4,0.1l-3-3.7v2.1c0,1.2,0.1,1.3,0.4,1.3l0.2,0v0.2h-1.5V8.7z"/>
		<path d="M30.4,4.1h-0.3c-0.8,0-0.8,0.2-1,1h-0.2c0-0.1,0.1-1.2,0.1-1.3h3.8c0,0.2,0.1,1.2,0.1,1.3h-0.2c-0.2-0.8-0.3-1-1-1h-0.3
			v3.7c0,0.8,0,0.8,0.4,0.9l0.2,0v0.2h-2.1V8.7l0.2,0c0.4-0.1,0.4-0.1,0.4-0.9V4.1z"/>
		<path d="M35.4,4.9c0-0.8,0-0.9-0.3-0.9l-0.2,0V3.8h1.9V4l-0.2,0c-0.3,0.1-0.3,0.1-0.3,0.9v1.1h2.1V4.9c0-0.8,0-0.9-0.3-0.9l-0.2,0
			V3.8h1.9V4l-0.2,0c-0.3,0.1-0.3,0.1-0.3,0.9v2.8c0,0.8,0,0.9,0.3,0.9l0.2,0v0.2h-1.9V8.7l0.2,0c0.3-0.1,0.3-0.1,0.3-0.9V6.4h-2.1
			v1.4c0,0.8,0,0.9,0.3,0.9l0.2,0v0.2h-1.9V8.7l0.2,0c0.3-0.1,0.3-0.1,0.3-0.9V4.9z"/>
		<path d="M41.7,7.8c0,0.8,0,0.9,0.3,0.9l0.2,0v0.2h-1.9V8.7l0.2,0c0.3-0.1,0.3-0.1,0.3-0.9V4.9c0-0.8,0-0.9-0.3-0.9l-0.2,0V3.8h1.9
			V4L42,4c-0.3,0.1-0.3,0.1-0.3,0.9V7.8z"/>
		<path d="M42.6,8.7l0.2,0C43,8.6,43,8.6,43,7.8V4.9c0-0.8,0-0.8-0.3-0.9l-0.2,0V3.8h1.9V4l-0.2,0c-0.3,0.1-0.3,0.1-0.3,0.9v3.6
			c0.2,0.1,0.4,0.1,0.6,0.1c1,0,1-0.5,1.2-1.2L46,7.5c0,0.5-0.1,0.9-0.2,1.4h-3.2V8.7z"/>
		<path d="M46,8.7l0.2,0c0.3-0.1,0.3,0,0.3-0.9V4.9c0-0.8,0-0.8-0.3-0.9L46,4V3.8h1.9V4l-0.2,0c-0.3,0.1-0.3,0.1-0.3,0.9v3.6
			c0.2,0.1,0.4,0.1,0.6,0.1c1,0,1-0.5,1.2-1.2l0.2,0.1c0,0.5-0.1,0.9-0.2,1.4H46V8.7z"/>
		<path d="M52.3,5.1c-0.1-0.4-0.2-1.2-1-1.2c-0.4,0-0.7,0.3-0.7,0.8c0,1.2,2.2,1.1,2.2,2.8C52.8,8.6,52,9,51.2,9
			c-0.6,0-1-0.2-1.2-0.3c-0.2-0.5-0.2-0.8-0.2-1.5l0.3-0.1c0.1,0.5,0.3,1.6,1.2,1.6c0.4,0,0.7-0.3,0.7-0.9c0-1.3-2.1-1.2-2.1-2.8
			c0-1,0.6-1.4,1.5-1.4c0.5,0,0.8,0.1,1.1,0.3c0.1,0.4,0.1,0.8,0.1,1.2H52.3z"/>
		<path d="M15.1,11.6c0.1-0.2,0.3-0.4,0.6-0.4c0.1,0,0.2,0,0.3,0v0.3c-0.1,0-0.2,0-0.3,0c-0.2,0-0.5,0.1-0.6,0.3
			c-0.1,0.1-0.1,0.3-0.1,0.4v0.9h-0.4v-2h0.4V11.6z"/>
		<path d="M18.7,12.3c0,0.5,0.3,0.7,0.7,0.7c0.2,0,0.4,0,0.5-0.2c0.1-0.1,0.1-0.1,0.1-0.2h0.4c0,0.2-0.1,0.3-0.3,0.4
			c-0.2,0.2-0.5,0.2-0.8,0.2c-0.7,0-1.1-0.3-1.1-1.1c0-0.3,0.1-0.5,0.3-0.7c0.3-0.2,0.6-0.3,0.9-0.3c0.4,0,0.8,0.2,0.9,0.5
			c0.1,0.2,0.1,0.4,0.1,0.6H18.7z M20.1,11.7c-0.1-0.2-0.3-0.3-0.6-0.3c-0.4,0-0.8,0.2-0.8,0.6h1.4C20.2,11.9,20.2,11.8,20.1,11.7z"
			/>
		<path d="M24.5,11.5c-0.1-0.1-0.3-0.1-0.4-0.1c-0.2,0-0.6,0-0.6,0.3c0,0.2,0.3,0.3,0.4,0.3l0.3,0c0.4,0.1,0.8,0.1,0.8,0.6
			c0,0.2-0.1,0.4-0.3,0.5c-0.2,0.1-0.5,0.1-0.7,0.1c-0.3,0-0.6,0-0.8-0.2c-0.1-0.1-0.1-0.3-0.2-0.4h0.4c0,0.1,0,0.2,0.1,0.2
			C23.7,13,23.9,13,24,13c0.2,0,0.6,0,0.6-0.3c0-0.3-0.3-0.3-0.5-0.3l-0.3,0c-0.3-0.1-0.8-0.1-0.8-0.6c0-0.2,0.1-0.4,0.3-0.5
			c0.2-0.1,0.4-0.1,0.7-0.1c0.2,0,0.5,0,0.7,0.2c0.1,0.1,0.2,0.3,0.2,0.4h-0.4C24.6,11.6,24.6,11.6,24.5,11.5z"/>
		<path d="M29.7,11.4c0.2,0.2,0.3,0.5,0.3,0.8c0,0.3-0.1,0.6-0.3,0.8c-0.3,0.2-0.6,0.3-0.9,0.3c-0.3,0-0.7-0.1-0.9-0.3
			c-0.2-0.2-0.3-0.5-0.3-0.8c0-0.3,0.1-0.6,0.3-0.8c0.2-0.2,0.6-0.3,0.9-0.3C29.1,11.1,29.5,11.2,29.7,11.4z M27.9,12.2
			c0,0.5,0.4,0.8,0.9,0.8c0.5,0,0.9-0.3,0.9-0.8c0-0.5-0.4-0.8-0.9-0.8C28.3,11.4,27.9,11.7,27.9,12.2z"/>
		<path d="M34.7,13.2h-0.3v-0.4c-0.1,0.1-0.1,0.2-0.2,0.2c-0.2,0.1-0.4,0.2-0.6,0.2c-0.3,0-0.6-0.1-0.8-0.4
			c-0.1-0.2-0.1-0.4-0.1-0.6v-1H33v1.1c0,0.2,0,0.4,0.1,0.5c0.1,0.1,0.3,0.2,0.5,0.2c0.2,0,0.4-0.1,0.5-0.2c0.2-0.2,0.2-0.5,0.2-0.8
			v-0.8h0.3V13.2z"/>
		<path d="M37.9,11.6c0.1-0.2,0.3-0.4,0.6-0.4c0.1,0,0.2,0,0.3,0v0.3c-0.1,0-0.2,0-0.3,0c-0.2,0-0.5,0.1-0.6,0.3
			c-0.1,0.1-0.1,0.3-0.1,0.4v0.9h-0.4v-2h0.4V11.6z"/>
		<path d="M43,11.8c0-0.3-0.3-0.5-0.6-0.5c-0.5,0-0.8,0.3-0.8,0.8c0,0.5,0.3,0.8,0.8,0.8c0.3,0,0.6-0.1,0.6-0.5l0.4,0
			c0,0.1-0.1,0.3-0.2,0.4c-0.2,0.2-0.5,0.3-0.8,0.3c-0.6,0-1.1-0.4-1.1-1.1c0-0.7,0.5-1.1,1.1-1.1c0.3,0,0.6,0.1,0.8,0.3
			c0.1,0.1,0.1,0.3,0.2,0.4L43,11.8z"/>
		<path d="M46.3,12.3c0,0.5,0.3,0.7,0.7,0.7c0.2,0,0.4,0,0.5-0.2c0.1-0.1,0.1-0.1,0.1-0.2h0.4c0,0.2-0.1,0.3-0.3,0.4
			c-0.2,0.2-0.5,0.2-0.8,0.2c-0.7,0-1.1-0.3-1.1-1.1c0-0.3,0.1-0.5,0.3-0.7c0.3-0.2,0.6-0.3,0.9-0.3c0.4,0,0.8,0.2,0.9,0.5
			c0.1,0.2,0.1,0.4,0.1,0.6H46.3z M47.6,11.7c-0.1-0.2-0.3-0.3-0.6-0.3c-0.4,0-0.8,0.2-0.8,0.6h1.4C47.7,11.9,47.7,11.8,47.6,11.7z"
			/>
		<path d="M52.1,11.5c-0.1-0.1-0.3-0.1-0.4-0.1c-0.2,0-0.6,0-0.6,0.3c0,0.2,0.3,0.3,0.4,0.3l0.3,0c0.4,0.1,0.8,0.1,0.8,0.6
			c0,0.2-0.1,0.4-0.3,0.5c-0.2,0.1-0.5,0.1-0.7,0.1c-0.3,0-0.6,0-0.8-0.2c-0.1-0.1-0.1-0.3-0.2-0.4H51c0,0.1,0,0.2,0.1,0.2
			c0.1,0.1,0.3,0.2,0.5,0.2c0.2,0,0.6,0,0.6-0.3c0-0.3-0.3-0.3-0.5-0.3l-0.3,0c-0.3-0.1-0.8-0.1-0.8-0.6c0-0.2,0.1-0.4,0.3-0.5
			c0.2-0.1,0.4-0.1,0.7-0.1c0.2,0,0.5,0,0.7,0.2c0.1,0.1,0.2,0.3,0.2,0.4h-0.4C52.1,11.6,52.1,11.6,52.1,11.5z"/>
	</g>
	<g>
		<g>
			<path d="M54.7,11.1c0.3,0,0.6,0.3,0.6,0.6c0,0.4-0.3,0.6-0.6,0.6c-0.3,0-0.6-0.3-0.6-0.6C54.1,11.4,54.4,11.1,54.7,11.1
				L54.7,11.1z M54.7,11.2c-0.3,0-0.5,0.2-0.5,0.5c0,0.3,0.2,0.5,0.5,0.5c0.3,0,0.5-0.2,0.5-0.5C55.2,11.4,55,11.2,54.7,11.2
				L54.7,11.2z M54.6,12.1h-0.1v-0.7c0.1,0,0.1,0,0.2,0c0.1,0,0.2,0,0.2,0.1c0,0,0.1,0.1,0.1,0.1c0,0.1-0.1,0.1-0.1,0.2v0
				c0.1,0,0.1,0.1,0.1,0.2c0,0.1,0,0.1,0,0.2h-0.1c0,0,0-0.1,0-0.2c0-0.1-0.1-0.1-0.1-0.1h-0.1V12.1z M54.6,11.7L54.6,11.7
				c0.2,0,0.2,0,0.2-0.1c0-0.1,0-0.1-0.2-0.1c0,0-0.1,0-0.1,0V11.7z"/>
		</g>
	</g>
</g>
<g id="matador" class="st0">
	<g class="st1">
		<path class="st13" d="M2.2,2.9v5c0,0.4,0,0.8,0,1c0,0.2,0.1,0.3,0.1,0.4c0,0,0.1,0.1,0.2,0.1C2.8,9.5,3,9.7,3,9.9
			c0,0.2,0,0.3-0.1,0.4c-0.1,0.1-0.2,0.1-0.3,0.1H1.1c-0.2,0-0.3,0-0.3-0.1c-0.1-0.1-0.1-0.2-0.1-0.3c0-0.2,0.1-0.4,0.3-0.5
			c0.1,0,0.1-0.1,0.1-0.1c0.1-0.1,0.1-0.2,0.1-0.4c0-0.2,0-0.7,0-1.4v-5c0-0.3,0-0.5,0-0.5c0-0.1-0.1-0.1-0.1-0.2c0,0-0.1,0-0.1-0.1
			C0.8,1.6,0.7,1.4,0.7,1.2c0-0.2,0-0.3,0.1-0.4c0.1-0.1,0.2-0.1,0.5-0.1h1.5c0.2,0,0.4,0,0.4,0.1c0.1,0.1,0.2,0.4,0.3,0.8l1.1,4.2
			l1.2-4.3C5.8,1.1,5.9,0.9,6,0.8C6,0.7,6.1,0.6,6.3,0.6h1.5c0.2,0,0.3,0,0.4,0.1C8.2,0.9,8.3,1,8.3,1.2c0,0.2-0.1,0.4-0.3,0.5
			c0,0-0.1,0-0.1,0C7.8,1.8,7.8,1.9,7.7,2c0,0.1,0,0.2,0,0.4v6c0,0.3,0,0.6,0.1,0.7c0,0.1,0.1,0.3,0.2,0.3c0,0,0,0,0.1,0
			C8.2,9.6,8.3,9.8,8.3,10c0,0.2,0,0.3-0.1,0.4c-0.1,0.1-0.2,0.1-0.4,0.1H6c-0.1,0-0.2,0-0.3-0.1c-0.1-0.1-0.1-0.2-0.1-0.3
			c0-0.2,0.1-0.4,0.3-0.5c0.1,0,0.1-0.1,0.1-0.1C6,9.4,6,9.3,6.1,9.1c0-0.1,0-0.3,0-0.6V3.1L4.7,8.5C4.6,8.8,4.5,9,4.4,9.1
			C4.4,9.2,4.3,9.3,4.2,9.3C4,9.3,4,9.2,3.9,9.1C3.8,9,3.7,8.7,3.6,8.4L2.2,2.9z"/>
		<path class="st13" d="M10.1,7.8C10,8.3,9.9,8.7,9.9,8.9c0,0.2-0.1,0.4-0.1,0.5c0,0.1,0,0.2,0.1,0.3c0,0,0,0,0,0
			c0.1,0.1,0.1,0.2,0.2,0.2c0,0.1,0,0.1,0,0.2c0,0.1,0,0.2-0.1,0.2c0,0.1-0.1,0.1-0.1,0.1H8.9c-0.1,0-0.2,0-0.2-0.1
			c0-0.1-0.1-0.1-0.1-0.2c0-0.1,0-0.2,0.1-0.3c0.1-0.1,0.2-0.2,0.2-0.2c0-0.1,0.1-0.5,0.3-1.2c0.2-0.8,0.3-1.4,0.5-2
			c0.2-0.7,0.3-1.4,0.5-2c0.2-0.6,0.3-1.1,0.5-1.4l0-0.1C10.9,2.3,11.1,2,11.4,2c0.2,0,0.3,0,0.3,0.1c0.1,0.1,0.2,0.2,0.2,0.3
			c0.1,0.2,0.3,0.7,0.5,1.4c0.2,0.7,0.4,1.5,0.7,2.4c0.2,0.7,0.4,1.5,0.5,2.2c0.2,0.7,0.2,1.1,0.2,1.1c0,0,0.1,0.1,0.2,0.2
			c0.1,0.1,0.1,0.2,0.1,0.4c0,0.1,0,0.2-0.1,0.3c-0.1,0.1-0.1,0.1-0.3,0.1h-1.4c-0.1,0-0.2,0-0.2-0.1c0-0.1-0.1-0.1-0.1-0.3
			c0-0.1,0-0.3,0.1-0.4c0.1-0.1,0.1-0.2,0.1-0.3c0-0.1,0-0.3-0.1-0.6c-0.1-0.3-0.1-0.6-0.2-1H10.1z M10.3,6.8h1.5
			c-0.1-0.6-0.3-1.2-0.4-1.7c-0.1-0.5-0.2-0.9-0.3-1.1c-0.1,0.4-0.3,0.9-0.4,1.3C10.6,5.8,10.5,6.3,10.3,6.8z"/>
		<path class="st13" d="M16.7,9c0,0.2,0,0.4,0,0.5c0,0.1,0,0.1,0.1,0.2c0,0,0.1,0,0.1,0.1c0.1,0.1,0.2,0.3,0.2,0.4
			c0,0.1,0,0.2-0.1,0.2c-0.1,0.1-0.1,0.1-0.3,0.1h-1.4c-0.1,0-0.2,0-0.3-0.1C15,10.3,15,10.2,15,10.1c0-0.1,0.1-0.3,0.2-0.4
			c0,0,0.1-0.1,0.1-0.1c0,0,0.1-0.1,0.1-0.2c0-0.1,0-0.2,0-0.4V3.2h-0.3c-0.2,0-0.3,0-0.4,0.1c-0.1,0.1-0.3,0.3-0.4,0.6c0,0,0,0,0,0
			c-0.1,0.2-0.2,0.3-0.3,0.3c-0.1,0-0.1,0-0.2-0.1c0-0.1-0.1-0.2-0.1-0.3c0-0.1,0-0.1,0-0.1c0,0,0-0.1,0-0.1l0.1-0.9
			c0-0.2,0.1-0.3,0.1-0.4c0.1-0.1,0.1-0.1,0.3-0.1h3.7c0.1,0,0.2,0,0.3,0.1c0.1,0.1,0.1,0.2,0.1,0.4l0.1,0.9c0,0,0,0.1,0,0.1
			c0,0,0,0.1,0,0.1c0,0.1,0,0.2-0.1,0.3c0,0.1-0.1,0.1-0.2,0.1c-0.1,0-0.2-0.1-0.3-0.3c0,0,0,0,0-0.1c-0.2-0.3-0.3-0.4-0.4-0.5
			c-0.1-0.1-0.3-0.1-0.4-0.1h-0.3V9z"/>
		<path class="st13" d="M19.4,7.8c-0.1,0.5-0.2,0.9-0.2,1.1c0,0.2-0.1,0.4-0.1,0.5c0,0.1,0,0.2,0.1,0.3c0,0,0,0,0,0
			c0.1,0.1,0.1,0.2,0.2,0.2c0,0.1,0,0.1,0,0.2c0,0.1,0,0.2-0.1,0.2c0,0.1-0.1,0.1-0.1,0.1h-1.1c-0.1,0-0.2,0-0.2-0.1
			c0-0.1-0.1-0.1-0.1-0.2c0-0.1,0-0.2,0.1-0.3c0.1-0.1,0.2-0.2,0.2-0.2c0-0.1,0.1-0.5,0.3-1.2c0.2-0.8,0.3-1.4,0.5-2
			c0.2-0.7,0.3-1.4,0.5-2c0.2-0.6,0.3-1.1,0.5-1.4l0-0.1C20.2,2.3,20.4,2,20.6,2c0.2,0,0.3,0,0.3,0.1c0.1,0.1,0.2,0.2,0.2,0.3
			c0.1,0.2,0.3,0.7,0.5,1.4c0.2,0.7,0.4,1.5,0.7,2.4c0.2,0.7,0.4,1.5,0.5,2.2c0.2,0.7,0.2,1.1,0.2,1.1c0,0,0.1,0.1,0.2,0.2
			c0.1,0.1,0.1,0.2,0.1,0.4c0,0.1,0,0.2-0.1,0.3c-0.1,0.1-0.1,0.1-0.3,0.1h-1.4c-0.1,0-0.2,0-0.2-0.1c0-0.1-0.1-0.1-0.1-0.3
			c0-0.1,0-0.3,0.1-0.4c0.1-0.1,0.1-0.2,0.1-0.3c0-0.1,0-0.3-0.1-0.6c-0.1-0.3-0.1-0.6-0.2-1H19.4z M19.6,6.8h1.5
			c-0.1-0.6-0.3-1.2-0.4-1.7c-0.1-0.5-0.2-0.9-0.3-1.1c-0.1,0.4-0.3,0.9-0.4,1.3C19.8,5.8,19.7,6.3,19.6,6.8z"/>
		<path class="st13" d="M24.2,9.1V3.8c0-0.2,0-0.3,0-0.4c0-0.1-0.1-0.1-0.1-0.2c0,0-0.1-0.1-0.1-0.1c-0.1-0.1-0.2-0.2-0.2-0.4
			c0-0.2,0.1-0.3,0.3-0.4c0.2-0.1,0.7-0.1,1.4-0.1c0.6,0,1,0,1.4,0.1c0.4,0.1,0.7,0.2,1,0.4C28.3,3,28.7,3.5,29,4.1
			c0.3,0.6,0.4,1.4,0.4,2.2c0,0.6-0.1,1.2-0.3,1.8c-0.2,0.6-0.4,1-0.7,1.4c-0.3,0.3-0.6,0.6-0.9,0.7c-0.3,0.1-0.8,0.2-1.3,0.2h-2
			c-0.1,0-0.2,0-0.3-0.1c-0.1-0.1-0.1-0.2-0.1-0.3c0-0.2,0.1-0.3,0.2-0.4c0,0,0.1,0,0.1,0c0,0,0.1-0.1,0.1-0.1
			C24.2,9.4,24.2,9.2,24.2,9.1z M25.6,9c0,0.2,0,0.4,0.1,0.5c0.1,0.1,0.2,0.1,0.3,0.1c0.6,0,1-0.3,1.4-0.9c0.4-0.6,0.5-1.4,0.5-2.3
			c0-1-0.2-1.8-0.5-2.4C27,3.4,26.6,3.1,26,3.1c-0.2,0-0.3,0-0.3,0.1c-0.1,0.1-0.1,0.2-0.1,0.5V9z"/>
		<path class="st13" d="M30,6.3c0-0.7,0.1-1.3,0.2-1.8c0.2-0.5,0.4-1,0.7-1.4c0.3-0.3,0.6-0.6,0.9-0.8C32.1,2.1,32.5,2,32.9,2
			c0.4,0,0.8,0.1,1.1,0.3c0.3,0.2,0.6,0.5,0.9,0.8c0.3,0.4,0.5,0.9,0.7,1.4c0.1,0.5,0.2,1.1,0.2,1.8c0,0.7-0.1,1.3-0.2,1.8
			c-0.1,0.5-0.4,1-0.7,1.4c-0.3,0.4-0.6,0.6-0.9,0.8c-0.3,0.2-0.7,0.3-1.1,0.3c-0.4,0-0.7-0.1-1.1-0.3c-0.3-0.2-0.6-0.5-0.9-0.8
			c-0.3-0.4-0.6-0.9-0.7-1.4C30,7.6,30,7,30,6.3z M31.4,6.3c0,1.1,0.1,2,0.4,2.6c0.3,0.6,0.6,0.9,1.1,0.9c0.5,0,0.9-0.3,1.1-0.9
			c0.3-0.6,0.4-1.5,0.4-2.7c0-1.1-0.1-1.9-0.4-2.5c-0.3-0.6-0.6-0.9-1.1-0.9c-0.5,0-0.9,0.3-1.1,0.9C31.5,4.4,31.4,5.2,31.4,6.3z"/>
		<path class="st13" d="M39.4,2.2c0.6,0,1.1,0.2,1.4,0.5c0.3,0.3,0.5,0.8,0.5,1.5c0,0.5-0.1,0.9-0.3,1.2c-0.2,0.3-0.4,0.6-0.8,0.8
			c0.3,0.7,0.5,1.5,0.7,2.2c0.2,0.8,0.3,1.1,0.3,1.1c0,0,0.1,0.1,0.2,0.2c0.1,0.1,0.2,0.2,0.2,0.4c0,0.1,0,0.2-0.1,0.3
			c0,0.1-0.1,0.1-0.3,0.1h-1.5c-0.1,0-0.2,0-0.2-0.1c-0.1-0.1-0.1-0.1-0.1-0.2c0-0.1,0-0.2,0-0.2c0-0.1,0.1-0.1,0.1-0.2c0,0,0,0,0,0
			c0.1,0,0.1-0.1,0.1-0.3c0-0.2-0.1-0.6-0.2-1.1c-0.1-0.5-0.3-1-0.6-1.6c-0.1,0-0.3,0.1-0.4,0.1c-0.2,0-0.3,0-0.5,0l0,2.4
			c0,0.1,0,0.2,0,0.2c0,0,0.1,0.1,0.2,0.1c0.1,0,0.1,0.1,0.2,0.1c0,0.1,0,0.1,0,0.2c0,0.1,0,0.2-0.1,0.3c0,0-0.1,0.1-0.3,0.1h-1.5
			c-0.1,0-0.2,0-0.2-0.1c-0.1-0.1-0.1-0.1-0.1-0.3c0-0.1,0-0.2,0-0.2c0-0.1,0.1-0.1,0.2-0.2c0.1-0.1,0.1-0.1,0.2-0.2
			c0-0.1,0-0.3,0-0.5V3.6c0-0.2,0-0.4,0-0.4c0-0.1-0.1-0.1-0.2-0.2c-0.1-0.1-0.1-0.1-0.2-0.2c0-0.1,0-0.1,0-0.2c0-0.1,0-0.2,0.1-0.3
			c0.1-0.1,0.1-0.1,0.2-0.1H39.4z M38.1,5.9c0.6,0,1.1-0.2,1.4-0.5C39.8,5.2,40,4.8,40,4.3c0-0.4-0.1-0.7-0.3-0.9
			C39.5,3.1,39.2,3,38.8,3c-0.3,0-0.5,0-0.6,0.1c-0.1,0.1-0.1,0.3-0.1,0.5L38.1,5.9z"/>
		<g>
			<path class="st13" d="M0.4,15.1c0-0.3,0-0.6,0.1-0.9c0.1-0.3,0.1-0.6,0.3-0.8c0.2-0.4,0.4-0.7,0.7-0.9c0.3-0.2,0.6-0.3,0.9-0.3
				c0.2,0,0.5,0,0.7,0.1c0.2,0.1,0.4,0.2,0.6,0.4c0.1,0.1,0.1,0.1,0.1,0.3c0,0.1,0,0.4,0,0.7c0,0.1,0,0.2,0,0.3
				C3.7,14,3.6,14,3.6,14c-0.1,0-0.2-0.1-0.2-0.3c0-0.1,0-0.1,0-0.1C3.3,13.4,3.1,13.2,3,13c-0.2-0.2-0.4-0.2-0.6-0.2
				c-0.3,0-0.6,0.2-0.8,0.6c-0.2,0.4-0.3,1-0.3,1.6c0,0.7,0.1,1.2,0.3,1.6c0.2,0.4,0.5,0.6,0.8,0.6c0.2,0,0.3,0,0.4-0.1
				c0.1-0.1,0.3-0.2,0.4-0.4c0,0,0.1-0.1,0.1-0.1c0.1-0.2,0.2-0.2,0.2-0.2c0,0,0.1,0,0.1,0.1c0,0.1,0,0.1,0,0.2c0,0.1,0,0.1,0,0.2
				c0,0.1-0.1,0.2-0.1,0.3c-0.2,0.3-0.4,0.5-0.6,0.6c-0.2,0.1-0.5,0.2-0.8,0.2c-0.2,0-0.4,0-0.6-0.1c-0.2-0.1-0.4-0.2-0.5-0.4
				c-0.2-0.3-0.4-0.6-0.6-1C0.4,16.1,0.4,15.6,0.4,15.1z"/>
			<path class="st13" d="M4.9,16.3c-0.1,0.3-0.1,0.5-0.1,0.6c0,0.1,0,0.2,0,0.3c0,0.1,0,0.1,0.1,0.1c0,0,0,0,0,0
				c0,0,0.1,0.1,0.1,0.1c0,0,0,0.1,0,0.1c0,0.1,0,0.1,0,0.1c0,0,0,0.1-0.1,0.1H4.2c0,0-0.1,0-0.1,0c0,0,0-0.1,0-0.1
				c0-0.1,0-0.1,0.1-0.2c0.1-0.1,0.1-0.1,0.1-0.1c0,0,0.1-0.3,0.2-0.7c0.1-0.4,0.2-0.8,0.3-1.1c0.1-0.4,0.2-0.8,0.3-1.1
				c0.1-0.3,0.2-0.6,0.3-0.8l0,0c0.1-0.3,0.2-0.5,0.4-0.5c0.1,0,0.1,0,0.2,0c0,0,0.1,0.1,0.1,0.2c0.1,0.1,0.1,0.4,0.3,0.8
				c0.1,0.4,0.2,0.8,0.4,1.3c0.1,0.4,0.2,0.8,0.3,1.2C6.9,17,7,17.3,7,17.3c0,0,0,0.1,0.1,0.1c0.1,0.1,0.1,0.1,0.1,0.2
				c0,0.1,0,0.1,0,0.1c0,0-0.1,0-0.1,0H6.2c-0.1,0-0.1,0-0.1-0.1c0,0,0-0.1,0-0.1c0-0.1,0-0.1,0.1-0.2c0.1-0.1,0.1-0.1,0.1-0.2
				c0-0.1,0-0.2,0-0.3c0-0.2-0.1-0.4-0.1-0.6H4.9z M5,15.7h0.8c-0.1-0.4-0.2-0.7-0.2-0.9c-0.1-0.3-0.1-0.5-0.2-0.6
				c-0.1,0.2-0.1,0.5-0.2,0.7C5.2,15.2,5.1,15.4,5,15.7z"/>
			<path class="st13" d="M8.6,17c0,0.1,0,0.2,0,0.3c0,0,0,0.1,0,0.1c0,0,0,0,0,0c0.1,0.1,0.1,0.1,0.1,0.2c0,0.1,0,0.1,0,0.1
				c0,0-0.1,0-0.1,0H7.8c-0.1,0-0.1,0-0.1,0c0,0,0-0.1,0-0.1c0-0.1,0-0.2,0.1-0.2c0,0,0,0,0,0c0,0,0-0.1,0-0.1c0,0,0-0.1,0-0.2v-3.3
				H7.7c-0.1,0-0.2,0-0.2,0.1c-0.1,0.1-0.1,0.2-0.2,0.3c0,0,0,0,0,0c-0.1,0.1-0.1,0.2-0.2,0.2c0,0-0.1,0-0.1-0.1c0,0,0-0.1,0-0.2
				c0,0,0-0.1,0-0.1c0,0,0,0,0,0L7,13.5c0-0.1,0-0.2,0.1-0.2c0,0,0.1-0.1,0.1-0.1h2.1c0.1,0,0.1,0,0.1,0.1c0,0,0.1,0.1,0.1,0.2
				L9.6,14c0,0,0,0,0,0c0,0,0,0,0,0.1c0,0.1,0,0.1,0,0.2c0,0-0.1,0.1-0.1,0.1c-0.1,0-0.1-0.1-0.2-0.2c0,0,0,0,0,0
				c-0.1-0.2-0.2-0.3-0.2-0.3c-0.1-0.1-0.1-0.1-0.2-0.1H8.6V17z"/>
			<path class="st13" d="M11.2,17c0,0.1,0,0.2,0,0.3c0,0,0,0.1,0,0.1c0,0,0,0,0,0c0.1,0.1,0.1,0.1,0.1,0.2c0,0.1,0,0.1,0,0.1
				c0,0-0.1,0-0.1,0h-0.8c-0.1,0-0.1,0-0.1,0c0,0,0-0.1,0-0.1c0-0.1,0-0.2,0.1-0.2c0,0,0,0,0,0c0,0,0-0.1,0-0.1c0,0,0-0.1,0-0.2
				v-3.3h-0.2c-0.1,0-0.2,0-0.2,0.1c-0.1,0.1-0.1,0.2-0.2,0.3c0,0,0,0,0,0c-0.1,0.1-0.1,0.2-0.2,0.2c0,0-0.1,0-0.1-0.1
				c0,0,0-0.1,0-0.2c0,0,0-0.1,0-0.1c0,0,0,0,0,0l0.1-0.5c0-0.1,0-0.2,0.1-0.2c0,0,0.1-0.1,0.1-0.1h2.1c0.1,0,0.1,0,0.1,0.1
				c0,0,0.1,0.1,0.1,0.2l0.1,0.5c0,0,0,0,0,0c0,0,0,0,0,0.1c0,0.1,0,0.1,0,0.2c0,0-0.1,0.1-0.1,0.1c-0.1,0-0.1-0.1-0.2-0.2
				c0,0,0,0,0,0c-0.1-0.2-0.2-0.3-0.2-0.3c-0.1-0.1-0.1-0.1-0.2-0.1h-0.2V17z"/>
			<path class="st13" d="M12.5,17.8c-0.1,0-0.1,0-0.1,0c0,0,0-0.1,0-0.1c0-0.1,0-0.2,0.1-0.2c0,0,0,0,0,0c0,0,0.1-0.1,0.1-0.1
				c0,0,0-0.1,0-0.2v-3.3c0,0,0-0.1,0-0.1c0,0,0,0,0-0.1c0,0,0,0,0,0c-0.1-0.1-0.1-0.1-0.1-0.2c0-0.1,0-0.1,0.1-0.2
				c0,0,0.1-0.1,0.2-0.1h0.9c0.1,0,0.1,0,0.1,0.1c0,0,0,0.1,0,0.2c0,0.1,0,0.2-0.1,0.2c0,0,0,0,0,0c0,0-0.1,0.1-0.1,0.1
				c0,0,0,0.1,0,0.2v3c0,0.1,0,0.2,0.1,0.3c0,0,0.1,0.1,0.3,0.1c0.2,0,0.3,0,0.4-0.1c0.1,0,0.2-0.1,0.2-0.2c0,0,0.1-0.1,0.1-0.2
				c0.1-0.1,0.1-0.2,0.2-0.2c0,0,0.1,0,0.1,0.1c0,0,0,0.1,0,0.2c0,0.1,0,0.1,0,0.2c0,0.1,0,0.2-0.1,0.3c0,0.1-0.1,0.2-0.1,0.3
				c0,0-0.1,0.1-0.1,0.1H12.5z"/>
			<path class="st13" d="M16.6,17.3c0.2,0,0.3,0,0.4,0c0.1,0,0.1-0.1,0.2-0.2c0,0,0-0.1,0.1-0.1c0.1-0.1,0.1-0.2,0.2-0.2
				c0,0,0.1,0,0.1,0.1c0,0,0,0.1,0,0.2c0,0.3,0,0.6-0.1,0.7c0,0.1-0.1,0.1-0.3,0.1h-2.2c0,0-0.1,0-0.1,0c0,0,0-0.1,0-0.1
				c0,0,0-0.1,0-0.1c0,0,0-0.1,0.1-0.1c0,0,0.1-0.1,0.1-0.1c0,0,0-0.1,0-0.1v0v-3.3c0-0.1,0-0.1,0-0.1c0,0,0-0.1-0.1-0.1
				c0,0,0,0,0,0C15,13.5,15,13.4,15,13.4c0-0.1,0-0.1,0-0.2c0,0,0.1,0,0.1,0H17c0.2,0,0.3,0,0.3,0.1c0,0.1,0.1,0.3,0.1,0.6
				c0,0.1,0,0.1,0,0.2c0,0,0,0.1-0.1,0.1c-0.1,0-0.1-0.1-0.2-0.2c0-0.1-0.1-0.1-0.1-0.1c-0.1-0.1-0.1-0.1-0.2-0.1
				c-0.1,0-0.2,0-0.4,0h-0.3c-0.1,0-0.1,0-0.2,0.1c0,0.1,0,0.2,0,0.4V15h0.7c0,0,0.1,0,0.1,0c0,0,0.1,0,0.1,0c0,0,0,0,0,0
				c0.1-0.1,0.1-0.1,0.1-0.1c0,0,0.1,0,0.1,0.1c0,0,0,0.1,0,0.2v0.4c0,0.1,0,0.2,0,0.2c0,0-0.1,0.1-0.1,0.1c0,0-0.1,0-0.1-0.1
				c-0.1-0.1-0.2-0.1-0.2-0.1h-0.7V17c0,0.1,0,0.2,0,0.2c0,0,0.1,0,0.2,0H16.6z"/>
			<path class="st13" d="M19.2,15.1c0-0.3,0-0.6,0.1-0.9c0.1-0.3,0.1-0.6,0.3-0.8c0.2-0.4,0.4-0.7,0.7-0.9c0.3-0.2,0.6-0.3,0.9-0.3
				c0.2,0,0.5,0,0.7,0.1c0.2,0.1,0.4,0.2,0.6,0.4c0.1,0.1,0.1,0.1,0.1,0.3c0,0.1,0,0.4,0,0.7c0,0.1,0,0.2,0,0.3
				c0,0.1-0.1,0.1-0.1,0.1c-0.1,0-0.2-0.1-0.2-0.3c0-0.1,0-0.1,0-0.1c-0.1-0.3-0.2-0.5-0.4-0.6c-0.2-0.2-0.4-0.2-0.6-0.2
				c-0.3,0-0.6,0.2-0.8,0.6c-0.2,0.4-0.3,1-0.3,1.6c0,0.7,0.1,1.2,0.3,1.6c0.2,0.4,0.5,0.6,0.8,0.6c0.2,0,0.3,0,0.4-0.1
				c0.1-0.1,0.3-0.2,0.4-0.4c0,0,0.1-0.1,0.1-0.1c0.1-0.2,0.2-0.2,0.2-0.2c0,0,0.1,0,0.1,0.1c0,0.1,0,0.1,0,0.2c0,0.1,0,0.1,0,0.2
				c0,0.1-0.1,0.2-0.1,0.3c-0.2,0.3-0.4,0.5-0.6,0.6c-0.2,0.1-0.5,0.2-0.8,0.2c-0.2,0-0.4,0-0.6-0.1c-0.2-0.1-0.4-0.2-0.5-0.4
				c-0.2-0.3-0.4-0.6-0.6-1C19.3,16.1,19.2,15.6,19.2,15.1z"/>
			<path class="st13" d="M23.1,15.5c0-0.4,0-0.7,0.1-1c0.1-0.3,0.2-0.6,0.4-0.8c0.1-0.2,0.3-0.3,0.5-0.4c0.2-0.1,0.4-0.2,0.6-0.2
				c0.2,0,0.4,0.1,0.6,0.2c0.2,0.1,0.4,0.3,0.5,0.5c0.2,0.2,0.3,0.5,0.4,0.8c0.1,0.3,0.1,0.6,0.1,1c0,0.4,0,0.7-0.1,1
				c-0.1,0.3-0.2,0.6-0.4,0.8c-0.2,0.2-0.3,0.4-0.5,0.5c-0.2,0.1-0.4,0.2-0.6,0.2c-0.2,0-0.4-0.1-0.6-0.2c-0.2-0.1-0.4-0.3-0.5-0.5
				c-0.2-0.2-0.3-0.5-0.4-0.8C23.1,16.2,23.1,15.9,23.1,15.5z M23.9,15.5c0,0.6,0.1,1.1,0.2,1.4c0.1,0.3,0.4,0.5,0.6,0.5
				c0.3,0,0.5-0.2,0.6-0.5c0.1-0.3,0.2-0.8,0.2-1.5c0-0.6-0.1-1.1-0.2-1.4c-0.1-0.3-0.4-0.5-0.6-0.5c-0.3,0-0.5,0.2-0.6,0.5
				C23.9,14.4,23.9,14.9,23.9,15.5z"/>
			<path class="st13" d="M27.4,14.2v2.4c0,0.2,0,0.4,0,0.5c0,0.1,0,0.1,0.1,0.2c0,0,0.1,0,0.1,0.1c0.1,0.1,0.2,0.1,0.2,0.3
				c0,0.1,0,0.1,0,0.2c0,0-0.1,0.1-0.2,0.1h-0.7c-0.1,0-0.1,0-0.2-0.1c0,0-0.1-0.1-0.1-0.2c0-0.1,0-0.2,0.1-0.2c0,0,0.1,0,0.1,0
				c0,0,0.1-0.1,0.1-0.2c0-0.1,0-0.3,0-0.7v-2.4c0-0.1,0-0.2,0-0.3c0,0,0-0.1-0.1-0.1c0,0,0,0-0.1,0c-0.1-0.1-0.2-0.1-0.2-0.2
				c0-0.1,0-0.2,0.1-0.2c0,0,0.1-0.1,0.2-0.1h0.7c0.1,0,0.2,0,0.2,0.1c0,0,0.1,0.2,0.1,0.4l0.5,2l0.6-2c0-0.2,0.1-0.3,0.1-0.3
				c0,0,0.1-0.1,0.1-0.1H30c0.1,0,0.2,0,0.2,0.1c0,0,0.1,0.1,0.1,0.2c0,0.1,0,0.2-0.1,0.2c0,0,0,0,0,0c0,0-0.1,0.1-0.1,0.1
				c0,0,0,0.1,0,0.2v2.8c0,0.2,0,0.3,0,0.3c0,0.1,0.1,0.1,0.1,0.2c0,0,0,0,0,0c0.1,0.1,0.1,0.1,0.1,0.2c0,0.1,0,0.1-0.1,0.2
				c0,0-0.1,0.1-0.2,0.1h-0.8c-0.1,0-0.1,0-0.1,0c0,0,0-0.1,0-0.1c0-0.1,0-0.2,0.1-0.2c0,0,0,0,0.1,0c0,0,0-0.1,0.1-0.1
				c0-0.1,0-0.2,0-0.3v-2.6l-0.7,2.5c0,0.1-0.1,0.2-0.1,0.3c0,0.1-0.1,0.1-0.1,0.1c-0.1,0-0.1,0-0.1-0.1c0-0.1-0.1-0.2-0.1-0.3
				L27.4,14.2z"/>
			<path class="st13" d="M31.5,16.1v1c0,0.1,0,0.2,0,0.2c0,0,0,0.1,0.1,0.1c0,0,0,0,0,0c0.1,0.1,0.1,0.1,0.1,0.2c0,0.1,0,0.1,0,0.2
				c0,0-0.1,0-0.2,0h-0.9c0,0-0.1,0-0.1,0c0,0,0-0.1,0-0.1c0-0.1,0-0.1,0.1-0.2c0,0,0,0,0,0c0,0,0-0.1,0.1-0.1c0,0,0-0.1,0-0.2V17
				v-3c0-0.1,0-0.2,0-0.3c0,0,0-0.1-0.1-0.1c0,0,0,0,0,0c-0.1-0.1-0.1-0.1-0.1-0.2c0-0.1,0-0.1,0-0.2c0,0,0.1-0.1,0.1-0.1H32
				c0.4,0,0.6,0.1,0.9,0.3c0.2,0.2,0.3,0.5,0.3,0.9c0,0.5-0.1,0.9-0.4,1.2C32.4,15.9,32,16,31.5,16.1z M31.5,15.6
				c0.3,0,0.5-0.1,0.6-0.3c0.2-0.2,0.2-0.4,0.2-0.7c0-0.3-0.1-0.5-0.2-0.6c-0.1-0.1-0.3-0.2-0.5-0.2c-0.1,0-0.2,0-0.2,0
				c0,0,0,0.1,0,0.3V15.6z"/>
			<path class="st13" d="M33.7,16.3c-0.1,0.3-0.1,0.5-0.1,0.6c0,0.1,0,0.2,0,0.3c0,0.1,0,0.1,0.1,0.1c0,0,0,0,0,0
				c0,0,0.1,0.1,0.1,0.1c0,0,0,0.1,0,0.1c0,0.1,0,0.1,0,0.1c0,0,0,0.1-0.1,0.1H33c0,0-0.1,0-0.1,0c0,0,0-0.1,0-0.1
				c0-0.1,0-0.1,0.1-0.2c0.1-0.1,0.1-0.1,0.1-0.1c0,0,0.1-0.3,0.2-0.7c0.1-0.4,0.2-0.8,0.3-1.1c0.1-0.4,0.2-0.8,0.3-1.1
				c0.1-0.3,0.2-0.6,0.3-0.8l0,0c0.1-0.3,0.2-0.5,0.4-0.5c0.1,0,0.1,0,0.2,0c0,0,0.1,0.1,0.1,0.2c0.1,0.1,0.1,0.4,0.3,0.8
				c0.1,0.4,0.2,0.8,0.4,1.3c0.1,0.4,0.2,0.8,0.3,1.2c0.1,0.4,0.1,0.6,0.1,0.6c0,0,0,0.1,0.1,0.1c0.1,0.1,0.1,0.1,0.1,0.2
				c0,0.1,0,0.1,0,0.1c0,0-0.1,0-0.1,0H35c-0.1,0-0.1,0-0.1-0.1c0,0,0-0.1,0-0.1c0-0.1,0-0.1,0.1-0.2c0.1-0.1,0.1-0.1,0.1-0.2
				c0-0.1,0-0.2,0-0.3c0-0.2-0.1-0.4-0.1-0.6H33.7z M33.8,15.7h0.8c-0.1-0.4-0.2-0.7-0.2-0.9c-0.1-0.3-0.1-0.5-0.2-0.6
				c-0.1,0.2-0.1,0.5-0.2,0.7C34,15.2,33.9,15.4,33.8,15.7z"/>
			<path class="st13" d="M36.8,14.3v2.6c0,0.1,0,0.2,0,0.3c0,0,0,0.1,0.1,0.1c0,0,0,0,0.1,0c0.1,0,0.1,0.1,0.1,0.2
				c0,0.1,0,0.1,0,0.2c0,0-0.1,0-0.1,0h-0.7c-0.1,0-0.1,0-0.1,0c0,0,0-0.1,0-0.1c0-0.1,0-0.2,0.1-0.2c0.1,0,0.1-0.1,0.1-0.1
				c0,0,0.1-0.1,0.1-0.2c0-0.1,0-0.2,0-0.4V14c0-0.1,0-0.2,0-0.2c0,0,0-0.1-0.1-0.1c0,0,0,0-0.1,0c-0.1,0-0.1-0.1-0.1-0.2
				c0-0.1,0-0.1,0-0.1c0,0,0.1,0,0.1,0h0.7c0.1,0,0.2,0.1,0.4,0.3c0,0,0,0,0,0.1c0.2,0.3,0.4,0.7,0.6,1.2c0.2,0.4,0.4,0.9,0.7,1.5
				V14c0-0.1,0-0.2,0-0.2c0-0.1,0-0.1-0.1-0.1c0,0,0,0-0.1-0.1c-0.1-0.1-0.1-0.1-0.1-0.2c0-0.1,0-0.1,0-0.2c0,0,0.1-0.1,0.1-0.1h0.6
				c0.1,0,0.1,0,0.1,0.1c0,0,0,0.1,0,0.2c0,0.1,0,0.2-0.1,0.2c0,0,0,0-0.1,0c0,0-0.1,0.1-0.1,0.1c0,0.1,0,0.2,0,0.3v3.3
				c0,0.2,0,0.3-0.1,0.4c0,0.1-0.1,0.1-0.2,0.1c-0.1,0-0.2,0-0.2,0c0,0-0.1-0.1-0.1-0.1c0,0-0.1-0.1-0.1-0.3
				C37.8,16.4,37.4,15.3,36.8,14.3z"/>
			<path class="st13" d="M40.5,16c-0.3-0.6-0.6-1.2-0.9-1.9c0-0.1,0-0.1,0-0.1c0-0.1-0.1-0.2-0.2-0.2c-0.1-0.1-0.1-0.2-0.1-0.2
				c0-0.1,0-0.1,0.1-0.2c0,0,0.1-0.1,0.2-0.1h0.7c0.1,0,0.1,0,0.2,0.1c0,0,0.1,0.1,0.1,0.2c0,0.1,0,0.1-0.1,0.2
				c-0.1,0.1-0.1,0.1-0.1,0.1c0,0.1,0.1,0.3,0.2,0.6c0.1,0.3,0.3,0.7,0.5,1c0.2-0.3,0.3-0.7,0.4-0.9c0.1-0.3,0.2-0.5,0.2-0.6
				c0-0.1,0-0.1-0.1-0.2c0,0,0,0,0,0c0,0-0.1-0.1-0.1-0.1c0,0,0-0.1,0-0.1c0-0.1,0-0.1,0.1-0.2c0,0,0.1-0.1,0.2-0.1h0.5
				c0.1,0,0.1,0,0.1,0.1c0,0,0,0.1,0,0.2c0,0.1,0,0.2-0.1,0.2c-0.1,0.1-0.1,0.1-0.1,0.1c0,0,0,0.1-0.1,0.2c-0.2,0.7-0.5,1.3-0.8,1.9
				V17c0,0.1,0,0.2,0,0.2c0,0,0,0.1,0.1,0.1c0,0,0,0,0.1,0c0.1,0.1,0.1,0.1,0.1,0.2c0,0.1,0,0.1-0.1,0.2c0,0-0.1,0.1-0.2,0.1h-0.8
				c-0.1,0-0.1,0-0.2-0.1c0,0,0-0.1,0-0.2c0-0.1,0-0.2,0.1-0.3c0,0,0,0,0,0c0,0,0,0,0.1-0.1c0,0,0-0.1,0-0.2V16z"/>
		</g>
	</g>
</g>
</svg>
