<?xml version="1.0" encoding="utf-8"?>
<!-- Generator: Adobe Illustrator 19.1.0, SVG Export Plug-In . SVG Version: 6.00 Build 0)  -->
<!DOCTYPE svg PUBLIC "-//W3C//DTD SVG 1.1//EN" "http://www.w3.org/Graphics/SVG/1.1/DTD/svg11.dtd">
<svg version="1.1" xmlns="http://www.w3.org/2000/svg" xmlns:xlink="http://www.w3.org/1999/xlink" x="0px" y="0px"
	 viewBox="0 0 125.4 31.7" style="enable-background:new 0 0 125.4 31.7;" xml:space="preserve">
<style type="text/css">
	.st0{display:none;}
	.st1{display:inline;}
	.st2{fill:#FFFFFF;}
	.st3{fill:#0881BD;}
</style>
<g id="wak_logo" class="st0">
	<g class="st1">
		<g>
			<g>
				<path class="st2" d="M93.2,24.8c0.1,0.1,0.4,1,0.2,1.5c0,0.1,0,0.3,0,0.4c-0.1,0.1-0.2,0.2-0.3,0.2c-0.3,0-0.6-0.1-0.9-0.3
					c-0.4-0.2-0.7-0.5-1.1-0.7c-1.2-0.6-2.9-1.7-4.2-2.1c-1.7-0.5-3.2-1.6-4.8-2.5c-0.5-0.3-1-0.6-1.5-0.9c-0.1-0.1-0.3,0-0.3,0.1
					c0,0.1-0.1,0.2-0.1,0.2s-0.1,0.2-0.1,0.3c-0.1,0.9-0.2,1.2-0.4,2.1c-0.2,0.9-0.9,2.6-1,3.2c-0.4,1.4-0.9,1.8-0.9,2.1
					c0,0.2-0.1,0.3-0.2,0.5c-0.2,0.2-0.6,0.3-0.8,0.2c-0.3-0.2-0.6-0.4-0.7-0.8c-0.2-0.8,0-0.6,0-1.4c0.1-1.1-0.1-0.6,0.1-1.8
					c0.1-0.6,0.1-0.5,0.1-1.2c0-0.7-0.1-0.1,0.1-0.8c0.1-0.3,0.1-0.7,0.1-1.1c0-0.3,0.1-0.5,0.1-0.8c0.1-0.9,0.3-1.7,0.4-2.6
					c0.1-1.5,0.4-2.9,0.5-4.4c0.2-1.9,0.4-3.8,0.7-5.7c0-0.1,0-0.2,0-0.3c0-0.6,0.2-1.2,0.1-1.7c-0.1-0.6-0.5-1-0.8-1.5
					c-0.1-0.2-0.2-0.5-0.3-0.7c-0.1-0.3,0.1-0.7,0.5-0.9c0.5-0.2,0.5,0.1,1,0.2c1.1,0.3,1.7,0.6,2.4,1.5c0.3,0.5,0.6,1,0.7,1.6
					c0,0.1,0.1,0.3,0.1,0.4c0.4,1-0.3,5.3-0.5,5.7c0,0.1,0,0.2,0.1,0.2c0.1,0,0.2,0,0.2,0c1.6-1,3.6-2.5,4.9-3.8
					c0.9-0.9,1.6-2,2.4-2.8c0.5-0.5,0.6-1.1,0.9-1.8c0.4-1.6,2.7-0.8,2.8-0.6c0.2,0.4,0.3,0.7,0.1,1.1c-0.1,0.3-0.2,0.6-0.4,0.9
					c-0.1,0.2-0.3,0.5-0.4,0.7c-0.2,0.8-0.7,1.5-1,2.3c-0.1,0.4-0.4,0.7-0.6,1c-0.7,0.8-1.4,1.6-2.3,2.2c-0.4,0.3-0.8,0.6-1.2,0.9
					c-0.5,0.4-1.1,0.8-1.6,1.1c-1.1,0.7-1.4,1.1-2.5,1.8c-0.4,0.3-0.9,0.6-0.8,0.7c0.1,0.1,0.2,0.2,0.3,0.3c0.6,0.5,1.4,1.1,2.2,1.4
					c1.7,0.8,2.5,1.9,4.1,2.8c0.3,0.1,0.5,0.5,0.8,0.6C89.7,22,92.6,24.4,93.2,24.8"/>
				<path class="st2" d="M89.8,23L89.8,23C89.9,23.1,89.8,23,89.8,23L89.8,23z"/>
				<path class="st2" d="M99.6,11.3c-0.4-0.5-0.9-0.9-1.5-1c-0.9-0.2-1.8-0.1-2.6,0.5c-1,0.7-0.6-0.2-1.5,0.7
					c-1.4,1.3-2.6,2.7-3.6,4.5c-0.6,1-0.8,2-1.1,3.1c0,0.2-0.1,0.3-0.1,0.5c0.1,1.2,0.1,2.4,0.9,3.3c0.1,0.1,0.3,0.3,0.4,0.4
					c0.4,0.2,0.9,0.6,1.3,0.7c0.7,0.2,1,0.1,1.6,0c1.1-0.2,2.3-0.3,3.2-1.2c0.1-0.1,0.2-0.1,0.2-0.2c0.8-0.5,2-1.3,2.4-2.2
					c1.3-2.6,1.3-6.3,1.4-6.3C100.9,13.3,100.1,11.8,99.6,11.3 M97.8,14.5c-0.2,1.4-0.5,2.8-1.2,4c-0.4,0.7-0.7,1.6-1.3,2
					c-0.2,0.1-0.4,0.2-0.6,0.3c-0.6,0.6-1.3,1.1-2.1,1.2c-0.1,0-0.2-0.1-0.2-0.1c0-0.1,0-0.2,0-0.3c-0.7-2.3,0.7-4.2,1.2-5
					c1.3-1.9,2.9-3.1,3.7-2.7c0.1,0,0.2-0.1,0.3-0.1c0.1,0,0.1,0.2,0.1,0.3C97.6,14.4,97.8,14.3,97.8,14.5"/>
				<path class="st2" d="M28.6,22.7c0.6,0,1-0.2,1.5-0.5c0.1-0.1,0.4,0,0.4,0.2c0.1,0.1,0.1,0.2,0.2,0.3c0.2,0.7,0.2,1.8-0.5,2.1
					c-0.5,0.2-0.9,0.3-1.4,0.5c-0.5,0.1-4.2,0.8-4.9,0.6c-0.6-0.1-1.6,0.8-2.2,0.7c-0.4-0.1-0.8-0.3-1.1-0.6c-0.3-0.3-0.5-0.6-0.7-1
					c-0.3-0.8-0.5-1.5-0.4-2.3c0.1-0.9,0.2-1.9,0.3-2.8c0.1-0.8,0.3-1.6,0.5-2.3c0.3-1,0.6-2.1,0.9-3.1c0.1-0.4,0.3-0.8,0.3-1.5
					c0-0.2-0.1-0.3-0.1-0.4c0-0.1,0-0.3,0.1-0.3c0.4-0.3,2.5-0.4,2.7-0.2c0.1,0.1,0.2,0.2,0.3,0.2c0.7-0.1,2.6,0.1,3.2-0.1
					c1-0.2,1.8-0.9,2.7-0.4c0.2,0.1,0.4,0.3,0.5,0.4c0.3,0.3,0.3,0.7,0.1,1.1c-0.6,0.3-1.4,0.9-2,1.2c-0.2,0.1-1,0.4-1.2,0.5
					c-0.6,0.2-1.8,0.3-2.5,0.3c-0.3,0-0.6,0-0.9,0.1c-0.1,0-0.3,0.1-0.3,0.2c-0.2,0.6-0.5,1.2-0.7,1.8c0,0.1,0.1,0.3,0.3,0.4
					c0.4,0.1,2.9,0.1,3.3-0.1c0.3-0.1,0.6-0.2,0.9-0.4c0.3-0.1,0.6-0.2,0.9-0.1c0.1,0,0.3,0.1,0.4,0.1c0.5,0.5,0.2-0.1,0.4,0.5
					c0.1,0.2,0,0.4-0.1,0.5c-0.5,0.5-1.6,1-2.4,1.3c-0.5,0.2-3.1,0.8-3.7,0.6c-0.2-0.1-0.6,0.4-0.6,0.5c0,0.1,0,0.1,0,0.2
					c-0.1,0.8-0.1,1.7-0.2,2.5c0,0.2,0,0-0.1,0.1c0,0.1,0,0.2,0,0.3C22.3,24,26.8,22.8,28.6,22.7"/>
				<path class="st2" d="M60,24.4c-0.1-0.3-0.1-0.7-0.3-0.9c-0.3-0.4-0.4-0.5-0.5-1.1c0-0.3-0.7-0.7-0.8-0.6
					c-0.1,0.1-0.4-0.1-0.4-0.2c-0.2-0.2-0.5-0.4-0.7-0.7c-0.7-0.8-1.2-1.1-2-1.8c-0.2-0.2-0.4-0.4-0.6-0.6c-0.1-0.1-0.1-0.1-0.1-0.2
					c-0.1-0.1,0-0.3,0.1-0.3c0.7-0.5,1.1-1,1.8-1.5c0.9-0.6,1.7-1.4,2.5-2.1c0.4-0.3,0.7-0.7,1-1.1c0.5-0.6,0.8-1.2,1.1-1.9
					c0.3-0.7,0.3-1.3,0.2-2c0-0.1,0-0.2-0.1-0.2c-0.3-0.6-0.6-1.1-1.3-1.3c-0.1,0-0.2-0.1-0.5-0.2c-0.9-0.3-2-0.1-3,0.4
					c-1,0.4-1.8,1-2.6,1.7c-0.5,0.4-1,0.9-1.4,1.3c-0.2,0.2-0.4,0.4-0.7,0.5c-0.2,0.1-0.4,0-0.6,0c0,0-0.1,0-0.1,0
					c-0.5,0-0.8,0.4-0.8,0.9c0,0.2,0,0.4,0,0.6c0,0.4-0.2,0.7-0.5,0.9c-0.7,0.4-1.5,0.7-2.3,0.7c-0.2,0-0.4-0.1-0.4-0.4
					c0-0.1,0.2-1.5,0.2-1.6c0-0.8,0-2.7,0-3.6c0-1-0.1-2-0.1-2.9c0-0.7-0.3-1.3-0.8-1.9c-0.4-0.5-1-0.8-1.7-0.8
					C43,3.7,41.8,4.2,41,5.5c-0.1,0.1-0.4,0.5-0.5,0.7c-0.4,1-0.3,0.4-0.6,1.5c-0.5,0.9-1.7,5.5-2,6.4c-0.2,0.5-0.4,1-0.6,1.5
					c-0.1,0.2-0.2,0.3-0.3,0.3c-0.2,0-0.5,0.1-0.7,0.1c-0.4,0.1-0.6,0.4-0.7,0.8c-0.1,0.4-0.2,1.5,0.1,1.9c0.1,0.2,0.6,0.3,0.8,0.6
					c0.1,0.1-0.2,0.5-0.3,0.6c-0.2,0.6-0.3,0.5-0.4,1c-0.1,0.5-0.6,2.9-1,3.1c-0.1,0-0.1,0.1-0.2,0.1c-0.2,0.2-0.3,0.5-0.3,0.8
					c0,0.4,0.2,0.8,0.5,1c0.4,0.3,0.8,0.5,1.3,0.4c0.1,0,0.2,0,0.4,0c0.2,0,0.3-0.1,0.4-0.2c1-0.8,1.8-3.7,2.1-4.9
					c0.1-0.4,0.2-0.9,0.3-1.3c0.1-0.2,0.2-0.3,0.4-0.3c0.5-0.1,1.2,0,1.7-0.1c0.6-0.1,1.2-0.2,1.7-0.5c0.2-0.1,0.4-0.1,0.6-0.2
					c0.1,0,0.3,0.1,0.3,0.2c0,0.1,0,0.2,0.1,0.4c0.1,1.1,0.2,2.2,0.3,3.3c0.1,0.7,0.3,3.7,0.2,4.4c0,0.1,0,0.3,0.1,0.5
					c0.3,0.4,0.6,0.8,0.9,1.1c0.1,0.1,0.1,0.1,0.2,0.2c0.2,0.2,0.4,0.1,0.7,0c0.2-0.1,0.4-0.3,0.5-0.5c0.1-0.3,0.2-0.6,0.2-1
					c0-0.6-0.1-3.4,0-4c0-0.5,0-1,0-1.5c0-1.1,0-2.3,0-3.4c0-1,0-1.1,0.9-1.5c0.3-0.2,0.6-0.3,0.9-0.5c0.3-0.1,0.5-0.2,0.8-0.2
					c0.3,0,0.5,0.2,0.4,0.4c-0.1,0.5-0.2,0.9-0.4,1.4c-0.2,0.7-0.3,0.8-0.4,1.5c-0.2,1.1-0.4,2.2-0.7,3.2c-0.1,0.4-0.1,0.8-0.1,1.2
					c0,0.1,0,0.2,0,0.2c0.2,0.3,0.3,0.6,0.5,0.8c0.1,0.1,0.3,0.2,0.4,0.3c0.2,0.1,0.4,0,0.6-0.1c0.1-0.1,0.1-0.1,0.2-0.2
					c0.3-0.5,0.6-1.1,0.8-1.6c0.1-0.3,0.2-0.6,0.3-0.8c0.2-0.4,0.4-0.8,0.5-1.2c0.2-0.5,0.3-1,0.5-1.5c0-0.1,0.1-0.2,0.2-0.3
					c0-0.1,0.1-0.1,0.2-0.1c0.5,0.2,0.9,0.6,1.2,0.9c0.5,0.5,1,0.9,1.5,1.4c0.4,0.3,0.7,0.6,1.1,1c0.5,0.5,1,1,1.5,1.6
					c0.3,0.3,0.6,0.6,1.1,0.8c0.3,0.1,0.6,0,0.8-0.1C59.9,24.9,60.1,24.6,60,24.4 M43.6,15.5c-0.9,0.2-2.3,0.5-3.2,0.6
					c-0.1,0-0.2-0.1-0.2-0.2c0.1-0.3,0.2-0.6,0.3-0.9c0.4-1.5,1.4-5.2,2.3-6.5c0.1-0.2,0.7-1,0.9-1.1c0.1,0,0.2,0,0.2,0.1
					c0,0.2,0.4,0.3,0.4,0.5c0,1-0.1,4.9-0.2,5.9c0,0.5,0,1.1,0,1.6C44,15.4,43.7,15.4,43.6,15.5 M53.2,15.4c0,0-0.1,0-0.1,0
					c0,0-0.5,0.2-0.5,0.2c-0.1-0.2,0.2-1.9,0.3-2.1c0.3-0.5,1.9-1.4,2.4-1.8c0.2-0.2,1.9-1.2,2.5-1c0.1,0,0.1-0.1,0.2-0.1
					c0.1,0,0.2,0,0.2,0c0.1,0,0.1,0.2,0,0.3c-0.1,0.2-0.2,0.4-0.4,0.6c-0.4,0.4-0.8,0.9-1.1,1.3c0,0-0.1,0.1-0.1,0.1
					C55.7,13.8,54.5,14.7,53.2,15.4"/>
				<path class="st2" d="M71.4,21.3c0-0.1,0.3-1.3-0.1-1.5c-0.3,0.1-0.5,0-0.7,0.4c-0.3,0.7-2.6,1.7-4.1,2.2
					c-0.6,0.2-1.1,0.3-1.7,0.4c-0.3,0.1-0.7,0-1.1,0c-0.1,0-0.3-0.2-0.3-0.3c0,0,0-0.1,0-0.1c0.1-0.5,0.1-1,0.2-1.5
					c0-0.3,0.1-0.6,0.3-0.8c0.1-0.2,0.3-0.4,0.6-0.3c0.3,0.1,0.6,0,0.8,0c0.7-0.1,1.4-0.3,2.1-0.4c0.3-0.1,0.5-0.2,0.7-0.4
					c0.2-0.1,0.4-0.2,0.6-0.4c0.1-0.1,1.1-0.9,1.1-0.9c0,0,0.1-0.1,0.1-0.1c0.3-0.3,0.6-0.6,0.9-0.8c0.5-0.4,0.8-0.9,1.1-1.4
					c0,0,0-0.2,0-0.2c0-0.1-0.1-0.1-0.2-0.1c-0.4,0-0.8,0.1-1.2,0.2c-0.6,0.2-1.7,0.9-2.3,1.1c-1,0.4-2.4,0.8-3.4,1.1
					c-0.1,0-0.2,0-0.3,0.1c0,0-0.1,0-0.1-0.1c0-0.6,0-1.5,0-2.1c0-0.1,0.1-0.1,0.1-0.2c0.3,0,0.6-0.1,0.8-0.1c0.4,0,1.5-0.2,1.8-0.4
					c0.9-0.4,1-0.2,1.7-0.9c0.5-0.5,1.5-0.9,2-1.3c0.7-0.5,1.2-1.1,1.8-1.7c0.2-0.2,0.3-0.4,0.3-0.6c0-0.1,0-0.2,0-0.3
					c-0.1-0.4,0.1-1.4-0.4-1.3c-0.1,0-0.2,0-0.3,0.1c-0.7,0.3-2.2,1.2-2.8,1.6c-1.3,0.7-1.7,0.7-3,1.3c-0.7,0.3-3.3,0.5-3.4,0.4
					c-0.2-0.1-0.4-0.2-0.7-0.2c-0.2,0,0.1,0-0.1,0c-0.2,0-0.5,0.1-0.6,0.2c-0.2,0.2-0.3,0.3-0.2,0.6c0.1,0.3,0.2,4.1,0,4.3
					c-0.2,0.2-0.3,0.5-0.3,0.8c0.1,0.7,0,1.4-0.1,2.1C61,20.6,61,21.4,61,22.2c0,0.8,0.3,1.6,0.9,2.3c0.2,0.2,0.6,0.6,0.8,0.7
					c0.2,0,0.5,0.1,0.7,0.1c0.4,0,0.9,0,1.3,0.1c1,0.1,1.8-0.1,2.7-0.5c0.3-0.1,0.6-0.2,0.8-0.5c0.1-0.1,0.2-0.2,0.4-0.3
					C69.5,23.7,71.4,21.8,71.4,21.3"/>
				<path class="st2" d="M89.8,23L89.8,23C89.9,23.1,89.8,23,89.8,23L89.8,23z"/>
				<path class="st2" d="M131.9,15.1c0-0.1,0-0.2-0.1-0.3c-0.1-0.1-0.2-0.1-0.3-0.1c-0.5,0.1-0.9,0.3-1.3,0.6
					c-0.6,0.4-0.5,0.1-3.1,0.9c-0.3,0.1-1.2,0.2-1.6,0.3c-0.1,0-0.3-0.1-0.2-0.3c0.2-0.4,0.3-0.8,0.5-1.2c0.2-0.4,0.1-0.2,0.2-0.6
					c0.3-1,0.6-2,0.9-2.9c0.2-0.8,0.3-1.5,0.2-2.3c0-0.5-0.1-1-0.2-1.5c-0.2-1.4-0.6-2.3-2-2.4c-0.1,0-0.2,0-0.3,0c-0.3,0-0.7,0-1,0
					c0,0-0.2,3.8-0.3,4.3c-0.2,0.7-0.4,1.3-0.6,2c0,0,0,0-0.1,0c-0.2,0.7-0.4,1.3-0.6,2c-0.6,1.6-0.6,1.8-1.1,3.5
					c-0.1,0.3-0.3,0.5-0.6,0.6c-0.1,0-0.2,0.1-0.3,0.1c-1.1,0.3-1.9,0.4-3,0.7c-0.2,0.1-0.4,0.1-0.6,0.1c-0.1,0-0.4-0.1-0.4-0.2
					c0.1-0.2,0.3-0.6,0.4-0.8c0.5-0.7,0.4-0.6,0.6-1c0.2-0.3,0.3-0.6,0.5-0.9c0.5-0.9,1.1-3.5,1.5-5.5c-0.1,0.2-0.2,0.4-0.4,0.6
					c-0.3-0.2-0.2-0.5-0.2-0.8c0-0.3-0.1-0.5-0.2-0.7c-0.3-0.3-0.6-0.5-1-0.6c-0.6-0.1-1.2,0-1.7,0.3c-0.3,0.2-0.5,0.4-0.5,0.7
					c-0.1,0.4-0.1,0.8-0.3,1.1c-0.5,0.9-0.1,2-0.8,2.9c-0.4,0.5-1.3,2.8-1.7,3.3c-0.8,1-1.5,1.3-2.5,2.2c-1.2,1-3.2,1.6-4.6,2.2
					c-0.5,0.2-3.3-0.1-3-2.4c0.1-0.6,0.2-1.1,0.4-1.3c1-1.5,2.6-2.3,4.3-3c1.1-0.4,2.2-0.6,3.2-1.3c0.2-0.1,0.3-0.6,0.5-0.8
					c0.3-0.3,0-1-0.3-1.4c-0.5-0.6-1.4-0.9-2.1-0.6c-0.4,0.2-0.9,0.5-1.3,0.7c-0.9,0.3-1.7,0.6-2.4,1.2c-0.3,0.2-2.1,1.3-2.7,2
					c-2.5,2.7-2.9,5.7-2.8,6.1c0.3,1,0.9,1.7,1.7,2.3c0.2,0.1,1.9,1.2,2.7,1.1c1.8-0.2,3.1-0.4,4.6-1.3c0.8-0.5,1.5-1.1,2.1-1.8
					c0.3-0.3,1-1,1.3-1.3c0,0.1-0.3,0.6-0.3,0.6c-0.6,1.1-0.7,1.2-1.3,2.3c-0.5,0.8-0.9,1.6-1.2,2.5c-0.1,0.4-0.4,0.8-0.3,1.3
					c0.1,0.5,0.3,0.9,0.5,1.4c0.1,0.1,0.1,0.3,0.2,0.4s0.2,0.2,0.3,0.3c0.2,0.2,0.6,0.1,0.8-0.1c0.2-0.2,0.4-0.4,0.5-0.7
					c0.4-0.7,0.9-1.4,1.4-2c0.2-0.2,2-3.9,2.3-3.8c0.2,0,1.7-0.1,2.1-0.2c1-0.3,2-0.3,3-0.3c0.1,0,0.2,0.1,0.2,0.2
					c0,0.6-0.5,2.3-0.7,2.9c-0.2,0.7-0.6,2-0.7,2.7c-0.1,0.6-0.4,1.2-0.5,1.8c0,0.1-0.2,0.2-0.4,0.3c-0.6,0.5,0.3,1.2,1.2,2
					c0.4,0.4,0.7,0.2,1-0.3c0-0.1,0.1-0.2,0.1-0.3c0.3-0.7,0.6-1.4,0.9-2c0.5-0.9,0.9-2,1.4-2.9c0.2-0.3,0.3-0.6,0.3-1
					c0.1-1,0.8-2.5,1-3.5c0.1-0.3,0.2-0.4,0.5-0.5c0.8-0.3,2-0.5,2.8-0.8c2.2-0.5,4.2-0.7,4.4-0.8c0.1-0.1,0.2-0.2,0.2-0.4
					c0-0.5-0.1-0.9-0.5-1.3c-0.1-0.1,0.4,0.2,0.4,0.1c-0.2-0.3-0.2-0.5-0.1-0.8C131.6,16,131.7,15.6,131.9,15.1"/>
				<path class="st2" d="M22.4,1.1c0-0.1-0.1-0.2-0.1-0.2c-0.1-0.1-0.3-0.2-0.4-0.2c-0.2,0.1-2.5,1.4-4.2,7.6
					c-0.4,1-0.8,1.9-1.3,2.8c-0.3,0.5-0.5,1.1-0.7,1.7c-0.1,0.3-0.1,0.5-0.2,0.7c-0.3,0.5-1.4,4.8-1.8,6.4c-0.1,0.3-0.1,0.5-0.2,0.7
					c0,0.1-0.1,0.2-0.2,0.2c-0.1,0-0.2-0.1-0.2-0.2c-0.4-1.1-0.6-2.3-0.7-3.4c-0.1-1-0.2-3.4-0.4-4.4c-0.1-0.9-0.4-1.7-0.5-2.5
					c-0.1-0.3-0.2-0.6-0.4-0.8c-0.1-0.1-0.2-0.3-0.4-0.3C10.5,9,10.1,9,9.7,9.2C9.6,9.3,9.5,9.4,9.4,9.6c-0.3,1.1-0.8,2.2-1.3,3.2
					c-0.6,1.4-1.4,4.1-2,5.4c-0.2,0.3-0.4,0.7-0.6,1c0,0-0.1,0-0.1,0.1c-0.1,0.1-0.2,0-0.2-0.1c-0.2-0.8-0.1-0.7-0.1-1.5
					C5,15.9,5.2,15.3,5,13.5c0-0.4-0.3-3.9-0.8-4.8C4,8.3,3.7,8,3.5,7.6C3.2,7.1,2.8,6.8,2.3,6.5C1.8,6.3,1.4,6.3,1,6.5
					C0.8,6.6,0.7,6.7,0.7,6.9c-0.1,0.3-0.1,0.5,0,0.8C1,8,1.7,11,1.8,12.5C1.9,13.1,2,13.8,2,14.5c0,1.6,0.1,1.9,0.1,3.5
					c0.2,0.8,0.1,0.7,0.1,1.5c0,1.1-0.1,4.9-0.3,6c-0.1,0.6,0.1,1.4,0.2,1.9c0,0.1,0.1,0.2,0.2,0.3c0.4,0.4,0.9,0.8,1.4,1.1
					C3.9,28.9,4,28.9,4,29c0.7,0.2,1.1-1.3,1.4-1.5c0.7-0.7,2-6,2.1-6.3c0.4-1.2,0.7-3,1.3-4.1C8.9,17,9,16.8,9,16.7
					c0.2-0.8,0.6-1.5,1-2.3c0.1,0.2,0.1,0.5,0.1,0.6c0.1,0.8,0.2,1.5,0.3,2.3c0.2,1.5,0.7,3.7,1.2,5.2c0.2,0.7,0.1,1.2,0.3,2.1
					c0,0.1,0.3,0.2,0.4,0.4c0.2,0.4,0.4,0.6,0.6,1c0.4,0.6,1,0.9,1.8,0.9c0.4,0,0.8-0.2,0.9-0.6c0.1-0.2,0.1-0.4,0.2-0.6
					c0.2-0.8,0.5-1.6,0.7-2.4c0.2-0.6,0.5-2.1,0.6-2.3c0.1-0.9,0.4-1.7,0.5-2.5c0-0.6,0.3-1.2,0.4-1.8c0-0.2,1.7-5.2,1.8-5.4
					c0-0.1,0.1-0.4,0.2-0.7c0.3-0.4,0.5-0.9,0.5-1.4c0-0.5,0.1-1,0.4-1.3c0.4-0.5,0.5-1,0.7-1.5c0.3-1.2,0.6-2.3,0.7-3.5
					C22.4,2.3,22.5,1.7,22.4,1.1"/>
			</g>
		</g>
	</g>
</g>
<g id="kii_logo" class="st0">
	<g class="st1">
		<path class="st2" d="M46.8,9.8c0.1-0.1,8-8.5,8-8.5h-7.4c0,0-7.1,6.5-7.3,6.8V1.3H33v19.2h7.1v-4.1c0.1,0,1.4-1.1,1.5-1.3
			c0.1,0.1,4.5,5.4,4.5,5.4h9.4C55.4,20.5,46.9,9.9,46.8,9.8"/>
		<polygon class="st2" points="117.7,1.3 117.7,8.2 111.6,8.2 111.6,1.3 104.4,1.3 104.4,20.4 111.6,20.4 111.6,13.4 117.7,13.4 
			117.7,20.4 125.1,20.4 125.1,1.3 		"/>
		<path class="st2" d="M69.8,7.1v7.7c0,0.8-0.6,1.4-1.3,1.4h-4.1c-0.7,0-1.3-0.7-1.3-1.4V7.1c0-0.8,0.6-1.4,1.3-1.4h4.1
			C69.3,5.8,69.8,6.3,69.8,7.1 M72.8,1.3H60.2c-2.3,0-4.2,2.2-4.2,4.8v9.5c0,2.6,1.9,4.8,4.2,4.8h12.5c2.3,0,4.2-2.2,4.2-4.8V6.1
			C77,3.5,75.1,1.3,72.8,1.3"/>
		<path class="st2" d="M101,8.3V6.8c0-1.7-0.6-3.4-1.6-4.5c-0.7-0.7-1.4-1-2.2-1H84c-2.1,0-3.8,2.5-3.8,5.5v8.1c0,3,1.7,5.5,3.8,5.5
			h13.1c2.1,0,3.8-2.5,3.8-5.5v-2.2H94l-0.1,1.8c-0.1,0.8-0.6,1.6-1.3,1.6h-4c-0.7,0-1.3-0.6-1.3-1.4V7.1c0-0.7,0.6-1.4,1.3-1.4h4
			c0.7,0,1.3,0.6,1.3,1.4v1h7.1L101,8.3z"/>
		<path class="st2" d="M126.7,17.9v0.5h0.8v2.1h0.5v-2.1h0.8v-0.5H126.7z M131.2,17.9l-0.7,1.8l-0.7-1.8h-0.7v2.5h0.5v-2.1l0.7,2.1
			h0.3l0.7-2.1v2.1h0.5v-2.5H131.2z"/>
		<g>
			<path class="st2" d="M13.3,1.3L13.3,1.3H0.6v19.1h12.6l-3-9.5L13.3,1.3z"/>
			<polygon class="st2" points="17.7,1.3 12,10.9 17.7,20.4 26.7,20.4 26.7,1.3 			"/>
		</g>
	</g>
</g>
<g id="CKF">
	<g>
		<path class="st3" d="M52.8,16.6c-0.3-0.3-0.9-0.6-1.3-0.6c-0.5,0.1-0.9,0.4-0.9,0.5c-1.4,1.4-3.7,2.4-6.1,2.7c0,0-0.1,0-0.1,0
			c0,0-0.1,0-0.1,0c-0.2,0-0.4,0-0.6-0.1c1.4-0.8,2.5-1.8,2.8-2.7c0.1-0.5,0-1-0.3-1.3c-0.4-0.4-0.9-0.6-1.4-0.4
			c-1.3,0.3-2.5,2-2.8,2.9c-0.1,0.4-0.2,0.7-0.2,1.1c-0.5,0.2-1,0.4-1.6,0.6c-1.7,0.5-3.1,0.4-3.8-0.3c1.3-0.8,2.6-1.9,3.8-3.2
			c0,0,0,0,0,0l1.5-1.9c1.5-2,3-4.7,2.6-6.2c-0.1-0.5-0.4-0.8-0.9-1c-1.7-0.6-3.8,0.7-6.5,4c-2.1,2.8-3,5.7-2.4,7.8
			c-2.1,1.1-3.9,1.3-4.6,0.9c-0.1-0.1-0.3-0.2-0.2-0.6c0,0,0,0,0,0c0.2-0.9,0.5-1.7,0.5-1.7c0.1-0.3,0-0.6-0.2-0.8c0,0,0,0,0,0
			c0,0,0,0,0,0c0,0,0,0-0.1,0c-0.4-0.2-0.8-0.1-1.1,0c0,0.3-0.1,0.4-0.2,0.6c-0.7,0.6-1.6,1.1-2.6,1.6c-0.2,0.1-0.5,0.2-0.6,0.2
			c0,0,0,0,0,0c0,0,0,0,0,0c0,0-0.1,0-0.1,0c0.6-0.9,0.8-1.9,0.4-2.7c-0.1-0.2-0.2-0.3-0.4-0.5c-0.5-0.4-1.2-0.3-1.8,0.1
			c0-0.1,0-0.1,0-0.2c-0.1-0.4-0.4-0.6-0.8-0.6c-1,0.2-1.8,0.9-2.3,1.3c-0.2,0.1-0.3,0.3-0.4,0.5c-0.8,0.8-2.2,2.1-3.3,2.1
			c-0.3,0-0.5-0.1-0.8-0.4l0,0c0,0,0,0,0,0c-0.5-0.5-0.5-1.5-0.4-2.3c0.2-0.8,0.6-1.6,0.8-2c0.2-0.3,0.1-0.7-0.2-0.9
			c-0.2-0.2-0.8-0.2-1.1,0l0,0c0,0,0,0-0.1,0.1c0,0-0.1,0.1-0.1,0.1c-0.7,1.1-1.4,2-2.2,2.6c0.2-0.3,0.4-0.7,0.6-1l1.2-2.4
			C15.8,9,16.4,6,15.7,4.4c-0.3-0.7-0.7-1-1.1-1.2c-0.5-0.2-1-0.2-1.5,0c-0.1-1.6-0.7-2.6-1.7-3C8.6-1,4.4,3.9,2,9
			c-1.6,3.4-2.1,7.1-1.1,9.5c0.5,1.2,1.3,2.1,2.3,2.5c0.5,0.2,1,0.3,1.5,0.3c1.8,0,3.9-1.1,5.8-3.1c1.1-0.2,2.3-0.9,3.4-2.1
			c0,1.2,0.2,2.1,0.8,2.8l0,0c0,0,0,0,0,0c0,0,0,0,0,0c0,0,0,0,0,0c0.5,0.5,1.1,0.8,1.8,0.8c0,0,0,0,0,0c0.8,0,1.6-0.4,2.4-0.9
			c0.1,0.5,0.3,1,0.8,1.3c0.4,0.3,0.9,0.5,1.5,0.5c0.8,0,1.7-0.3,2.5-0.9c0.6,0.1,1.2,0,1.9-0.2c0,0,0,0,0,0c0,0,0,0,0,0
			c0,0,0,0,0,0c0,0,0,0,0,0c0.3-0.1,0.7-0.2,0.8-0.3c0.6-0.3,1.2-0.6,1.8-1c-0.2,0.9,0.2,1.6,0.9,2c1.2,0.7,3.5,0.3,5.9-0.9
			c0.5,0.6,1.4,1.3,3.1,1.3c0.6,0,1.4-0.1,2.3-0.3c0.6-0.1,1.2-0.4,1.8-0.6c0.5,0.5,1.2,0.8,1.9,0.8c0,0,0,0,0,0c0.1,0,0.2,0,0.2,0
			c0.1,0,0.1,0,0.2,0c0,0,0,0,0,0c0,0,0,0,0,0c2.7-0.4,5.3-1.5,6.9-3.1c0,0,0,0,0,0c0,0,0,0,0.1,0c0.2,0.1,0.6,0.4,0.6,0.7
			c0,0.6-0.4,1.1-1,1.1c-0.7,0-0.8-0.5-0.8-0.5c-0.4,0.1-0.7,0.5-0.7,0.9c0.1,0.7,0.7,1,1.4,1c0,0,0,0,0,0c1.3,0,2.4-1.1,2.4-2.5
			C53.5,17.6,53.3,17,52.8,16.6z M3.7,19.8C3,19.5,2.5,18.9,2.2,18C1.4,16,1.8,12.7,3.2,9.6C4.5,7,6,4.7,7.6,3.2
			c1.2-1.1,2.2-1.8,3-1.8c0.1,0,0.3,0,0.4,0.1c0.6,0.3,0.9,1.3,0.9,2.5c-1.4,1.1-2.7,3-3.7,5c0,0,0,0,0,0c-1.2,2.8-1.6,5.6-0.8,7.4
			c0.3,0.8,0.8,1.4,1.5,1.7C7,19.6,5.1,20.4,3.7,19.8z M9.8,16.9c-0.2,0-0.3,0-0.4-0.1c-0.4-0.1-0.6-0.5-0.8-1
			C8,14.4,8.3,12,9.4,9.6c0.7-1.5,1.5-2.6,2.3-3.5c0,0,0,0,0.1,0c0,0.3-0.2,0.6-0.4,1c0,0.2,0,0.4,0.1,0.5c0.2,0.4,0.6,0.6,1,0.5
			c0,0,0.2-0.1,0.4-0.6c0.3-0.7,0.4-1.9,0.4-2.7c0.4-0.2,0.7-0.3,0.9-0.2c0.1,0,0.2,0.2,0.3,0.4c0.4,1,0.1,3.5-1.4,6.7L11.8,14
			C11.2,15.1,10.5,16.1,9.8,16.9z M22.2,19c-0.7,0.3-1.4,0.3-1.7,0.1c-0.1-0.1-0.2-0.3-0.2-0.5c0-0.3,0.1-0.8,0.5-1.4
			c0.2-0.2,0.3-0.3,0.4-0.4c0.5-0.5,1.1-0.8,1.5-0.9c-0.5,0.7-0.8,1.4-0.8,2.1C21.9,18.4,22,18.8,22.2,19z M23.4,18.2
			c-0.1-0.1-0.1-0.1-0.1-0.3c0-0.3,0.2-0.9,0.7-1.4c0.1-0.1,0.2-0.1,0.3-0.2C24.3,16.8,24.1,17.5,23.4,18.2z M37.9,11.4
			c2.5-3.1,4-3.7,4.6-3.7c0.1,0,0.3,0,0.3,0.1c0.2,0.3-0.1,2.2-2.3,5.1L39,14.6c-1.1,1.2-2.3,2.2-3.4,2.9
			C35.3,15.9,36.2,13.5,37.9,11.4z M44.9,15.9C44.9,15.9,44.9,15.9,44.9,15.9C44.9,15.9,44.9,15.9,44.9,15.9c0.1,0.3-0.6,1-1.6,1.7
			C43.6,16.9,44.4,16,44.9,15.9z"/>
		<path class="st3" d="M124.8,22.3C124.8,22.3,124.7,22.3,124.8,22.3c-0.1-0.1-0.1-0.1-0.1-0.1c0,0,0,0,0,0c0,0,0,0,0,0
			c-0.1,0-0.2-0.1-0.2-0.1c-5.9-2.3-24.3-4.1-31.8-4.2l-3.3-0.2c-1.3-0.2-2.3-0.7-2.8-1.6c-0.1-0.2-0.2-0.5-0.3-0.7
			c0.7-1,1.2-1.8,1.4-2.2c0.5-0.9,0.7-1.4,0.7-1.4c2.1-4.7,1.3-5.2,1-5.3c-0.2-0.1-0.4-0.1-0.6,0c-0.9,0.3-2.9,4-3.3,5.3
			c-0.6,1.3-0.7,2.4-0.6,3.2c-1.4,1.7-3.5,3.6-5.9,3.6c-0.3,0-0.7-0.3-0.8-0.8c0-0.4,0.4-1,1.1-1.6c0.2-0.2,0.5-0.3,0.8-0.4
			c0.4-0.1,0.6-0.5,0.4-0.9c-0.1-0.3-0.4-0.6-0.7-0.6c-0.1,0-0.3,0-0.4,0.1c-0.1,0.1-0.3,0.2-0.4,0.3c-0.2,0.1-0.5,0.3-0.6,0.3
			c-1.2,0.4-3,0.6-4.1-0.1c-0.3-0.2-0.7-0.1-1,0.2c-0.1,0.2-0.1,0.4-0.1,0.6l0,0c0.2,0.9-0.3,2-1.4,2.8c-0.5,0.4-1,0.6-1.6,0.7
			c0.7-0.5,1.4-1.2,2-1.9l0,0c0.6-0.8,0.7-1.6,0.3-2.2c-0.2-0.3-0.5-0.4-0.9-0.5c-0.7-0.1-1.5,0.2-2.2,0.8l0,0
			c-0.7,0.6-1.3,1.3-1.6,2.1c-0.2,0.5-0.2,1.1-0.1,1.5c-1.3,0.5-2.5,0.7-3.3,0.3c-1.2-0.6-1.5-2.6-0.6-5.6c0.7-1.5,1.6-3,2.7-4.3
			c0,0,0,0,0,0c0,0,0,0,0,0c2.6-3.4,5.4-5.1,7.2-6c0.7-0.3,1.4-0.6,1.9-0.8c0,0,0,0,0,0c1.5-0.4,1.8-0.1,1.8-0.1s0.9-0.4,0.4-1.1
			C77.7,1.3,77.5,1,77.1,1c-0.1,0-0.1,0-0.2,0c0,0,0,0,0,0c-0.1,0-0.2,0-0.3,0c0,0,0,0-0.1,0C75,1.3,70.1,2.6,65.5,8.6c0,0,0,0,0,0
			c-0.3,0.3-0.5,0.6-0.7,0.9c0.5-2.2,1-3.8,1.3-4.9c0.1-0.1,0.1-0.3,0.2-0.4c0.5-1.5,0.9-1.6,0.9-1.6s0.2-0.9-0.7-0.9
			c-0.3,0-0.7,0-1,0.6c0,0,0,0,0,0c0,0,0,0,0,0c0,0.1-0.1,0.1-0.1,0.2c0,0,0,0.1,0,0.1c-0.4,1-1.7,4.5-2.8,10.8
			c-1.4,4.7,0,6.5,1.3,7.2c0.5,0.2,1.1,0.4,1.8,0.4c0.9,0,2-0.2,3-0.7c0.4,0.3,0.9,0.4,1.4,0.4c0.1,0,0.2,0,0.3,0
			c0.8-0.1,1.7-0.4,2.4-1c1.1-0.8,1.8-2,1.9-3c0.5,0.1,1,0.2,1.5,0.2c0.3,0,0.6,0,0.9,0c-0.2,0.4-0.3,0.8-0.3,1.2
			c0,1.3,1.2,2.2,2.1,2.2c2,0,4-1,5.9-2.9c0.2-0.2,0.3-0.3,0.4-0.5c0,0.1,0.1,0.1,0.1,0.2c0.7,1.2,2.1,2.1,3.8,2.3c0,0,0,0,0,0
			l3.3,0.2c5.9,0.1,19.3,1.3,27.1,3c1.7,0.4,2.9,0.8,4.3,1.4c0.1,0,0.2,0.1,0.3,0.1c0.3,0,0.7-0.2,0.8-0.4
			C125.3,22.8,125,22.5,124.8,22.3z M69.2,18c0.2-0.5,0.6-1,1.1-1.5L69.9,16l0.4,0.5c0.5-0.4,0.9-0.5,1.1-0.5c0,0.1-0.1,0.2-0.3,0.4
			l0.5,0.4l-0.5-0.4c-0.6,0.7-1.3,1.4-2.1,1.9C69.1,18.3,69.2,18.2,69.2,18z"/>
	</g>
	<path class="st3" d="M10.5,31.2c-0.2,0-0.4,0-0.6-0.1c-0.2-0.1-0.3-0.2-0.5-0.3c-0.1-0.1-0.2-0.3-0.3-0.4C9,30.2,9,30,9,29.9
		c0-0.2,0-0.4,0.1-0.6c0.1-0.2,0.2-0.3,0.3-0.4c0.1-0.1,0.3-0.2,0.5-0.2c0.2-0.1,0.4-0.1,0.5-0.1c0.2,0,0.3,0,0.4,0
		c0.1,0,0.2,0,0.3,0.1c0.1,0,0.1,0.1,0.2,0.1c0.1,0,0.1,0.1,0.1,0.1v0.5H11V29c0,0-0.1,0-0.1-0.1c0,0-0.1,0-0.2,0
		c-0.1,0-0.1,0-0.2,0c-0.2,0-0.4,0.1-0.6,0.2c-0.1,0.2-0.2,0.4-0.2,0.7c0,0.1,0,0.3,0.1,0.4c0,0.1,0.1,0.2,0.2,0.3
		c0.1,0.1,0.2,0.1,0.3,0.2c0.1,0,0.2,0.1,0.3,0.1c0.1,0,0.2,0,0.3,0c0.1,0,0.1,0,0.2-0.1c0.1,0,0.1-0.1,0.1-0.1c0,0,0.1-0.1,0.1-0.1
		l0.4,0.3c0,0-0.1,0.1-0.1,0.1c-0.1,0-0.1,0.1-0.2,0.1c-0.1,0-0.2,0.1-0.3,0.1C10.8,31.2,10.6,31.2,10.5,31.2z M12.9,30.8h0.3v-1.9
		h-0.3v-0.3h1.3v0.3h-0.3v0.7h1v-0.7h-0.3v-0.3h1.3v0.3h-0.3v1.9h0.3v0.3h-1.3v-0.3H15V30h-1v0.8h0.3v0.3h-1.3V30.8z M17.3,30.8h0.3
		l1-2.2h0.6l1,2.2h0.3v0.3h-1.3v-0.3h0.3l-0.2-0.4h-1L18,30.8h0.3v0.3h-1V30.8z M19,30.1l-0.3-0.9h0l-0.4,0.9H19z M21.7,30.8H22
		v-1.9h-0.3v-0.3H23c0.2,0,0.3,0,0.5,0.1c0.1,0,0.2,0.1,0.3,0.2c0.1,0.1,0.1,0.1,0.2,0.2c0,0.1,0.1,0.2,0.1,0.3c0,0.1,0,0.2,0,0.3
		c0,0.1-0.1,0.1-0.1,0.2c0,0.1-0.1,0.1-0.2,0.1c-0.1,0-0.1,0.1-0.2,0.1l0.5,0.8h0.2v0.3h-0.8l-0.6-1.1h-0.2v0.7H23v0.3h-1.3V30.8z
		 M22.9,29.7c0.1,0,0.2,0,0.3-0.1c0.1-0.1,0.1-0.2,0.1-0.3c0-0.1,0-0.2-0.1-0.3c-0.1-0.1-0.2-0.1-0.3-0.1l-0.3,0v0.8L22.9,29.7z
		 M25.6,30.8h0.3v-1.9h-0.3v-0.3h1.3v0.3h-0.3v1.9h0.8v-0.3h0.4v0.6h-2.1V30.8z M29.1,30.8h0.3v-1.9h-0.3v-0.3h2.1v0.6h-0.4v-0.3
		h-0.7v0.7h0.5v-0.2H31v0.7h-0.4V30h-0.5v0.8h0.8v-0.3h0.4v0.6h-2.2V30.8z M33.7,31.2c-0.1,0-0.2,0-0.3,0c-0.1,0-0.2,0-0.3-0.1
		c-0.1,0-0.1-0.1-0.2-0.1c-0.1,0-0.1-0.1-0.2-0.1v-0.5h0.4v0.3c0,0,0.1,0.1,0.2,0.1c0.1,0,0.2,0,0.3,0c0.1,0,0.1,0,0.2,0
		c0.1,0,0.1,0,0.1-0.1c0,0,0.1-0.1,0.1-0.1c0,0,0-0.1,0-0.1c0-0.1,0-0.2-0.1-0.2c-0.1-0.1-0.2-0.1-0.3-0.1c-0.1,0-0.2-0.1-0.3-0.1
		c-0.1,0-0.2-0.1-0.3-0.2c-0.1-0.1-0.2-0.1-0.3-0.2c-0.1-0.1-0.1-0.2-0.1-0.4c0-0.2,0.1-0.4,0.2-0.5c0.2-0.1,0.4-0.2,0.7-0.2
		c0.1,0,0.2,0,0.3,0c0.1,0,0.2,0,0.2,0.1c0.1,0,0.1,0.1,0.2,0.1c0,0,0.1,0.1,0.1,0.1v0.4h-0.4v-0.3c0,0-0.1,0-0.1,0
		c-0.1,0-0.2,0-0.2,0c-0.1,0-0.2,0-0.3,0.1c-0.1,0-0.1,0.1-0.1,0.2c0,0.1,0,0.2,0.1,0.2c0.1,0,0.2,0.1,0.3,0.1
		c0.1,0,0.2,0.1,0.3,0.1c0.1,0,0.2,0.1,0.3,0.2c0.1,0.1,0.2,0.1,0.3,0.2c0.1,0.1,0.1,0.2,0.1,0.4c0,0.1,0,0.2-0.1,0.3
		c0,0.1-0.1,0.2-0.2,0.3c-0.1,0.1-0.2,0.1-0.3,0.2C34,31.2,33.8,31.2,33.7,31.2z M39.1,30.8h0.3v-1.9h-0.3v-0.3h1.3v0.3h-0.3v0.7h0
		l0.9-0.7v0h-0.3v-0.3h1.1v0.3h-0.2l-0.9,0.7l1,1.2h0.2v0.3h-1.3v-0.3h0.2v0l-0.7-0.9h0v0.9h0.3v0.3h-1.3V30.8z M44.6,31.2
		c-0.2,0-0.5,0-0.6-0.1c-0.2-0.1-0.3-0.2-0.5-0.3c-0.1-0.1-0.2-0.3-0.3-0.4c-0.1-0.2-0.1-0.3-0.1-0.5c0-0.2,0-0.4,0.1-0.6
		c0.1-0.2,0.2-0.3,0.3-0.4c0.1-0.1,0.3-0.2,0.5-0.3c0.2-0.1,0.4-0.1,0.6-0.1c0.2,0,0.4,0,0.6,0.1c0.2,0.1,0.3,0.2,0.5,0.3
		c0.1,0.1,0.2,0.3,0.3,0.4c0.1,0.2,0.1,0.3,0.1,0.5c0,0.2,0,0.4-0.1,0.5c-0.1,0.2-0.2,0.3-0.3,0.4c-0.1,0.1-0.3,0.2-0.5,0.3
		C45,31.2,44.8,31.2,44.6,31.2z M44.6,30.8c0.2,0,0.4-0.1,0.6-0.2c0.1-0.2,0.2-0.4,0.2-0.7c0-0.1,0-0.3-0.1-0.4
		c0-0.1-0.1-0.2-0.2-0.3C45.1,29.1,45,29,44.9,29c-0.1-0.1-0.2-0.1-0.3-0.1c-0.1,0-0.2,0-0.3,0.1c-0.1,0-0.2,0.1-0.2,0.2
		c-0.1,0.1-0.1,0.2-0.2,0.3c0,0.1-0.1,0.3-0.1,0.4c0,0.1,0,0.3,0.1,0.4c0,0.1,0.1,0.2,0.2,0.3c0.1,0.1,0.2,0.1,0.2,0.2
		C44.4,30.8,44.5,30.8,44.6,30.8z M48.9,31.2c-0.2,0-0.4,0-0.6-0.1c-0.2-0.1-0.3-0.2-0.5-0.3c-0.1-0.1-0.2-0.3-0.3-0.4
		c-0.1-0.2-0.1-0.3-0.1-0.5c0-0.2,0-0.4,0.1-0.6c0.1-0.2,0.2-0.3,0.3-0.4c0.1-0.1,0.3-0.2,0.5-0.2c0.2-0.1,0.4-0.1,0.5-0.1
		c0.2,0,0.3,0,0.4,0c0.1,0,0.2,0,0.3,0.1c0.1,0,0.1,0.1,0.2,0.1c0.1,0,0.1,0.1,0.1,0.1v0.5h-0.4V29c0,0-0.1,0-0.1-0.1
		c0,0-0.1,0-0.2,0c-0.1,0-0.1,0-0.2,0c-0.2,0-0.4,0.1-0.6,0.2c-0.1,0.2-0.2,0.4-0.2,0.7c0,0.1,0,0.3,0.1,0.4c0,0.1,0.1,0.2,0.2,0.3
		c0.1,0.1,0.2,0.1,0.3,0.2c0.1,0,0.2,0.1,0.3,0.1c0.1,0,0.2,0,0.3,0c0.1,0,0.1,0,0.2-0.1c0.1,0,0.1-0.1,0.1-0.1c0,0,0.1-0.1,0.1-0.1
		l0.4,0.3c0,0-0.1,0.1-0.1,0.1c-0.1,0-0.1,0.1-0.2,0.1c-0.1,0-0.2,0.1-0.3,0.1C49.2,31.2,49.1,31.2,48.9,31.2z M51.4,30.8h0.3v-1.9
		h-0.3v-0.3h1.3v0.3h-0.3v0.7h1v-0.7h-0.3v-0.3h1.3v0.3h-0.3v1.9h0.3v0.3h-1.3v-0.3h0.3V30h-1v0.8h0.3v0.3h-1.3V30.8z M58.9,30.8
		h0.3v-1.9h-0.3v-0.3H61v0.6h-0.4v-0.3h-0.8v0.8h0.5v-0.2h0.4v0.7h-0.4V30h-0.5v0.8h0.3v0.3h-1.3V30.8z M63.8,31.2
		c-0.2,0-0.5,0-0.6-0.1c-0.2-0.1-0.3-0.2-0.5-0.3c-0.1-0.1-0.2-0.3-0.3-0.4c-0.1-0.2-0.1-0.3-0.1-0.5c0-0.2,0-0.4,0.1-0.6
		c0.1-0.2,0.2-0.3,0.3-0.4c0.1-0.1,0.3-0.2,0.5-0.3c0.2-0.1,0.4-0.1,0.6-0.1c0.2,0,0.4,0,0.6,0.1c0.2,0.1,0.3,0.2,0.5,0.3
		c0.1,0.1,0.2,0.3,0.3,0.4c0.1,0.2,0.1,0.3,0.1,0.5c0,0.2,0,0.4-0.1,0.5c-0.1,0.2-0.2,0.3-0.3,0.4c-0.1,0.1-0.3,0.2-0.5,0.3
		C64.2,31.2,64,31.2,63.8,31.2z M63.8,30.8c0.2,0,0.4-0.1,0.6-0.2c0.1-0.2,0.2-0.4,0.2-0.7c0-0.1,0-0.3-0.1-0.4
		c0-0.1-0.1-0.2-0.2-0.3c-0.1-0.1-0.2-0.2-0.3-0.2c-0.1-0.1-0.2-0.1-0.3-0.1c-0.1,0-0.2,0-0.3,0.1c-0.1,0-0.2,0.1-0.2,0.2
		c-0.1,0.1-0.1,0.2-0.2,0.3c0,0.1-0.1,0.3-0.1,0.4c0,0.1,0,0.3,0.1,0.4c0,0.1,0.1,0.2,0.2,0.3c0.1,0.1,0.2,0.1,0.2,0.2
		C63.5,30.8,63.7,30.8,63.8,30.8z M68,31.2c-0.1,0-0.3,0-0.4,0c-0.1,0-0.3-0.1-0.4-0.2c-0.1-0.1-0.2-0.2-0.3-0.3
		c-0.1-0.1-0.1-0.3-0.1-0.4v-1.3h-0.3v-0.3h1.3v0.3h-0.3v1.4c0,0.1,0,0.2,0,0.2c0,0.1,0.1,0.1,0.1,0.2c0.1,0,0.1,0.1,0.2,0.1
		c0.1,0,0.1,0,0.2,0c0.2,0,0.3,0,0.5-0.1c0.1-0.1,0.2-0.2,0.2-0.4v-1.4h-0.3v-0.3h1.1v0.3h-0.3v1.3c0,0.2,0,0.3-0.1,0.4
		c-0.1,0.1-0.1,0.2-0.3,0.3c-0.1,0.1-0.2,0.1-0.4,0.2C68.3,31.2,68.2,31.2,68,31.2z M70.8,30.8h0.3v-1.9h-0.3v-0.3h0.9l1.2,1.6h0
		v-1.3h-0.3v-0.3h1.1v0.3h-0.3v2.2h-0.6l-1.2-1.7h0v1.3h0.3v0.3h-1.1V30.8z M75,30.8h0.3v-1.9H75v-0.3h1.3c0.3,0,0.5,0,0.7,0.1
		c0.2,0.1,0.4,0.2,0.5,0.3c0.1,0.1,0.2,0.2,0.3,0.4c0.1,0.2,0.1,0.3,0.1,0.5c0,0.2,0,0.4-0.1,0.5c-0.1,0.2-0.2,0.3-0.3,0.4
		c-0.1,0.1-0.3,0.2-0.5,0.3c-0.2,0.1-0.4,0.1-0.7,0.1H75V30.8z M76.2,30.8c0.2,0,0.3,0,0.4-0.1c0.1,0,0.2-0.1,0.3-0.2
		c0.1-0.1,0.1-0.2,0.1-0.3c0-0.1,0-0.3,0-0.4c0-0.3-0.1-0.5-0.2-0.7c-0.1-0.2-0.4-0.2-0.7-0.2l-0.3,0v1.9L76.2,30.8z M79,30.8h0.3
		l1-2.2h0.6l1,2.2h0.3v0.3h-1.3v-0.3h0.3l-0.2-0.4h-1l-0.2,0.4H80v0.3h-1V30.8z M80.8,30.1l-0.3-0.9h0L80,30.1H80.8z M83.6,30.8h0.3
		v-1.9h-0.4v0.3h-0.4v-0.6h2.3v0.6H85v-0.3h-0.4v1.9h0.3v0.3h-1.3V30.8z M86.8,30.8h0.3v-1.9h-0.3v-0.3H88v0.3h-0.3v1.9H88v0.3h-1.3
		V30.8z M90.9,31.2c-0.2,0-0.5,0-0.6-0.1c-0.2-0.1-0.3-0.2-0.5-0.3c-0.1-0.1-0.2-0.3-0.3-0.4c-0.1-0.2-0.1-0.3-0.1-0.5
		c0-0.2,0-0.4,0.1-0.6c0.1-0.2,0.2-0.3,0.3-0.4c0.1-0.1,0.3-0.2,0.5-0.3c0.2-0.1,0.4-0.1,0.6-0.1c0.2,0,0.4,0,0.6,0.1
		c0.2,0.1,0.3,0.2,0.5,0.3c0.1,0.1,0.2,0.3,0.3,0.4c0.1,0.2,0.1,0.3,0.1,0.5c0,0.2,0,0.4-0.1,0.5c-0.1,0.2-0.2,0.3-0.3,0.4
		c-0.1,0.1-0.3,0.2-0.5,0.3C91.3,31.2,91.1,31.2,90.9,31.2z M90.9,30.8c0.2,0,0.4-0.1,0.6-0.2c0.1-0.2,0.2-0.4,0.2-0.7
		c0-0.1,0-0.3-0.1-0.4c0-0.1-0.1-0.2-0.2-0.3c-0.1-0.1-0.2-0.2-0.3-0.2c-0.1-0.1-0.2-0.1-0.3-0.1c-0.1,0-0.2,0-0.3,0.1
		c-0.1,0-0.2,0.1-0.2,0.2c-0.1,0.1-0.1,0.2-0.2,0.3c0,0.1-0.1,0.3-0.1,0.4c0,0.1,0,0.3,0.1,0.4c0,0.1,0.1,0.2,0.2,0.3
		c0.1,0.1,0.2,0.1,0.2,0.2C90.6,30.8,90.8,30.8,90.9,30.8z M93.7,30.8H94v-1.9h-0.3v-0.3h0.9l1.2,1.6h0v-1.3h-0.3v-0.3h1.1v0.3h-0.3
		v2.2h-0.6l-1.2-1.7h0v1.3h0.3v0.3h-1.1V30.8z M96.4,24.7H9.3v-0.3h87.1V24.7z"/>
</g>
</svg>
