<svg width="465" height="407" viewBox="0 0 465 407" xmlns="http://www.w3.org/2000/svg"><title>House</title><defs><filter x="-50%" y="-50%" width="200%" height="200%" filterUnits="objectBoundingBox" id="a"><feOffset dy="12" in="SourceAlpha" result="shadowOffsetOuter1"/><feGaussianBlur stdDeviation="8.5" in="shadowOffsetOuter1" result="shadowBlurOuter1"/><feColorMatrix values="0 0 0 0 0 0 0 0 0 0 0 0 0 0 0 0 0 0 0.129953578 0" in="shadowBlurOuter1" result="shadowMatrixOuter1"/><feMerge><feMergeNode in="shadowMatrixOuter1"/><feMergeNode in="SourceGraphic"/></feMerge></filter></defs><g filter="url(#a)" transform="translate(17 3)" fill="none" fill-rule="evenodd"><path d="M215.461 0L0 215.356l.004 23.917 39.638-.007.024 135.727 76.776.007-.023-137.5h78.893l.023 137.5 196.05-.067-.023-135.727L431 239.2l-.004-23.917L215.461 0zm20.243 237.514l78.896-.014v69.877l-.012.007-78.896.014.012-69.884zM77.559 28.886l.014 81.928 64.586-64.554-.003-17.385-64.597.01z" fill="#ABDFEC"/><path d="M263.164 111.305c-2.344-6.262-6.755-11.125-12.417-13.691-3.864-1.756-8.189-2.66-12.51-2.612-9.586.104-18.417 4.775-22.49 11.894l-.442.764-.375-.618c-4.23-7.042-13.16-11.527-22.753-11.423-4.318.047-8.622 1.043-12.443 2.88-5.605 2.687-9.908 7.64-12.116 13.95-2.563 7.324-2.058 15.842 1.351 22.784 7.836 15.95 44.407 47.07 45.96 48.387.324.274.765.384 1.196.38a2.69 2.69 0 0 0 .25-.015c.407-.046.815-.264 1.116-.56 2.135-1.895 37.41-33.365 44.822-49.336 3.254-7.002 3.57-15.52.851-22.784" fill="#3EBDAA"/></g></svg>