<svg id="Layer_1" data-name="Layer 1" xmlns="http://www.w3.org/2000/svg" viewBox="0 0 120 43.07"><defs><style>.cls-1{fill:#fff}</style></defs><title>Protection1_Logo_white</title><path class="cls-1" d="M.27 21.53h5.44c3.15 0 4.23 2.31 4.23 4.62 0 3.19-2 4.64-4.9 4.64H3.38v6.15H.27V21.53zm3.11 7h1.38c1.23 0 2.07-.73 2.07-2.31s-.6-2.37-2.16-2.37H3.38v4.65zM11.38 25.33h2.85v1.55A3 3 0 0 1 16.94 25a4.9 4.9 0 0 1 .54 0v2.85h-.93A2 2 0 0 0 14.36 30v7h-3V25.33zM22.75 25c3.58-.07 4.57 2.07 4.57 6.11s-1.16 6.1-4.57 6.1c-3.58.07-4.57-2.07-4.57-6.1S19.34 25 22.75 25m0 10.18c1.21 0 1.6-1.19 1.6-4.08s-.39-4.08-1.6-4.08c-1.47 0-1.6 1.7-1.6 4.08s.13 4.08 1.6 4.08M29.56 22h3v3.32h1.73v2h-1.75v6.28c0 .91.2 1.27 1.06 1.27a6 6 0 0 0 .67 0v2.07a18.63 18.63 0 0 1-1.94.13c-2.33 0-2.76-.71-2.76-3.06v-6.66h-1.52v-2h1.51V22zM38.38 31.58v.93c0 1.36.37 2.7 1.47 2.7s1.4-.76 1.57-2.18h2.68c-.11 2.7-1.4 4.21-4.21 4.21-4.32 0-4.49-3.32-4.49-6.21 0-3.11.6-6 4.62-6 3.47 0 4.25 2.33 4.25 5.89v.67h-5.89zm3-1.77c-.06-1.77-.28-2.76-1.51-2.76s-1.53 1.23-1.53 2.31v.45h3zM51.41 29.51c0-1.12-.22-2.33-1.34-2.33-1.47 0-1.71 1.29-1.71 4 0 2.87.26 4.06 1.6 4.06 1 0 1.44-.84 1.44-2.72h2.85c0 3-1.27 4.75-4.42 4.75-3 0-4.44-1.45-4.44-6.1s2-6.11 4.7-6.11 4.16 1.75 4.16 4.49h-2.84zM56.46 22h3v3.32h1.73v2h-1.76v6.28c0 .91.2 1.27 1.06 1.27a6 6 0 0 0 .67 0v2.07a18.62 18.62 0 0 1-1.94.13c-2.33 0-2.76-.71-2.76-3.06v-6.66h-1.51v-2h1.51V22zM62.84 25.33h3v11.6h-3v-11.6zM72.09 25c3.58-.07 4.57 2.07 4.57 6.11s-1.16 6.1-4.57 6.1c-3.58.07-4.57-2.07-4.57-6.1S68.69 25 72.09 25m0 10.18c1.21 0 1.6-1.19 1.6-4.08s-.39-4.08-1.6-4.08c-1.47 0-1.6 1.7-1.6 4.08s.13 4.08 1.6 4.08M78.26 25.33h2.85v1.36a3.19 3.19 0 0 1 3-1.66c1.86 0 3 1 3 3.3v8.61h-3v-8c0-1.16-.39-1.62-1.27-1.62s-1.58.63-1.58 1.92v7.7h-3V25.33z" transform="translate(0 -.22)"/><path class="cls-1" d="M115.4 3.23C106.75-3.1 87.65.92 74.21 11.77a42.63 42.63 0 0 0-9.84 11 42.14 42.14 0 0 1 6.51-6.58q.71-.62 1.46-1.23C84.29 5.25 101.22 1.5 108.68 7s3.85 17.64-8 27.29c-.46.4-.93.8-1.41 1.19q-1.16.94-2.36 1.79V11H93c-1.7 2.2-2.6 4-7.91 5.06v4h5.56v23.22a54 54 0 0 0 16.08-9C120.16 23.48 124 9.56 115.4 3.23zM0 42.79l.39-.47a1.38 1.38 0 0 0 .9.37c.27 0 .43-.11.43-.28 0-.17-.1-.25-.61-.38a1 1 0 0 1-1-.92.94.94 0 0 1 1.05-.91 1.74 1.74 0 0 1 1.12.38l-.34.5a1.41 1.41 0 0 0-.78-.3.32.32 0 0 0-.38.22c0 .2.13.26.65.39a1 1 0 0 1 1 .9 1 1 0 0 1-1.1.93A1.91 1.91 0 0 1 0 42.79zM5.15 40.22h2.27v.59H5.81v.61h1.41V42H5.81v.63h1.63v.59H5.15v-3zM10.09 41.74a1.53 1.53 0 0 1 1.57-1.56 1.55 1.55 0 0 1 1.19.46l-.42.49a1.11 1.11 0 0 0-.77-.34.89.89 0 0 0-.87.94.89.89 0 0 0 .87.95 1.08 1.08 0 0 0 .79-.35l.42.42a1.54 1.54 0 0 1-1.23.54 1.52 1.52 0 0 1-1.55-1.55zM15.54 41.94v-1.72h.66v1.7a.63.63 0 0 0 .65.74.62.62 0 0 0 .65-.72v-1.72h.66v1.7a1.21 1.21 0 0 1-1.32 1.36 1.19 1.19 0 0 1-1.3-1.34zM21 40.22h1.4a1.2 1.2 0 0 1 .88.31.94.94 0 0 1 .26.69.93.93 0 0 1-.64.93l.73 1.07h-.78l-.64-1h-.52v1H21v-3zm1.33 1.46a.44.44 0 0 0 .51-.42.44.44 0 0 0-.52-.43h-.63v.86h.67zM26.36 40.22H27v3h-.64v-3zM30.66 40.83h-.91v-.61h2.49v.61h-.92v2.4h-.66v-2.4zM35.79 42l-1.16-1.82h.77l.72 1.21.73-1.21h.75L36.45 42v1.2h-.66V42zM43.49 42.79l.39-.47a1.38 1.38 0 0 0 .9.37c.27 0 .43-.11.43-.28 0-.17-.1-.25-.61-.38a1 1 0 0 1-1-.92.94.94 0 0 1 1.05-.91 1.74 1.74 0 0 1 1.12.38l-.34.5a1.41 1.41 0 0 0-.78-.3.32.32 0 0 0-.39.26c0 .2.13.26.65.39a1 1 0 0 1 1 .9 1 1 0 0 1-1.1.93 1.91 1.91 0 0 1-1.32-.47zM48.5 41.74a1.6 1.6 0 0 1 3.2 0 1.6 1.6 0 0 1-3.2 0zm2.5 0a.91.91 0 0 0-.91-.95.9.9 0 0 0-.9.94.91.91 0 0 0 .91.95.9.9 0 0 0 .9-.94zM54.48 40.22h.66v2.41h1.5v.6h-2.16v-3zM59.2 41.94v-1.72h.66v1.7a.63.63 0 0 0 .65.74.62.62 0 0 0 .65-.72v-1.72h.66v1.7a1.21 1.21 0 0 1-1.32 1.36 1.19 1.19 0 0 1-1.3-1.34zM65.39 40.83h-.92v-.61H67v.61h-.95v2.4h-.66v-2.4zM69.7 40.22h.66v3h-.66v-3zM73.17 41.74a1.6 1.6 0 0 1 3.2 0 1.6 1.6 0 0 1-3.2 0zm2.5 0a.91.91 0 0 0-.91-.95.9.9 0 0 0-.9.94.91.91 0 0 0 .91.95.9.9 0 0 0 .9-.94zM79.15 40.22h.61l1.41 1.85v-1.85h.65v3h-.56l-1.46-1.9v1.91h-.65v-3zM84.53 42.79l.39-.47a1.38 1.38 0 0 0 .9.37c.27 0 .43-.11.43-.28 0-.17-.1-.25-.61-.38a1 1 0 0 1-1-.92.94.94 0 0 1 1.05-.91 1.73 1.73 0 0 1 1.12.38l-.34.5a1.41 1.41 0 0 0-.78-.3.32.32 0 0 0-.39.26c0 .2.13.26.65.39a1 1 0 0 1 1 .9 1 1 0 0 1-1.1.93 1.91 1.91 0 0 1-1.32-.47z" transform="translate(0 -.22)"/><circle class="cls-1" cx="64.37" cy="22.53" r="1.44"/><path class="cls-1" d="M104.22 41.75a1.53 1.53 0 1 1-1.52-1.49 1.5 1.5 0 0 1 1.52 1.49zm-2.68 0a1.16 1.16 0 0 0 1.16 1.19 1.14 1.14 0 0 0 1.13-1.18 1.15 1.15 0 1 0-2.29-.01zm.92.77h-.34V41a4 4 0 0 1 .57 0 .8.8 0 0 1 .51.12.38.38 0 0 1 .15.32.38.38 0 0 1-.31.35.42.42 0 0 1 .26.36 1.32 1.32 0 0 0 .11.36H103a1.16 1.16 0 0 1-.12-.36.26.26 0 0 0-.31-.23h-.16v.59zm0-.83h.16c.19 0 .34-.06.34-.22s-.1-.23-.32-.23h-.19v.43z" transform="translate(0 -.22)"/></svg>