<svg width="105" height="25" viewBox="0 0 105 25" xmlns="http://www.w3.org/2000/svg" xmlns:xlink="http://www.w3.org/1999/xlink"><title>Molex_wht</title><defs><path id="a" d="M.246 24.985h49.642V.098H.246z"/></defs><g fill="none" fill-rule="evenodd"><g transform="translate(33)"><mask id="b" fill="#fff"><use xlink:href="#a"/></mask><path fill="#FFF" mask="url(#b)" d="M22.02 24.006h6.137V.098h-6.136zM.246 16.161C.246 22.003 4.545 25 10.102 25c5.558 0 9.856-2.93 9.856-9.198 0-5.323-3.77-8.875-9.887-8.875-5.856 0-9.825 3.293-9.825 9.234zm9.775-5.919c2.254-.124 3.675 2.268 3.675 5.444 0 4.082-1.421 5.856-3.76 5.856-2.213 0-3.756-1.774-3.756-5.856 0-2.434.876-5.444 3.84-5.444zM43.266 14.01H37.25c-.017-4.422 6.068-4.465 6.016 0zm-2.74 6.82c-1.75 0-3.276-1.335-3.276-3.353h12.636c.095-6.162-3.63-10.55-9.805-10.55-5.34 0-9.434 3.607-9.434 9.177 0 5.758 4.13 8.896 9.466 8.896 3.884 0 8.084-1.407 9.232-5.65h-6.332c-.48.992-1.434 1.48-2.486 1.48z"/></g><path d="M18.165 24l.003-10.471c0-1.63 1.336-2.955 2.986-2.955 1.65 0 2.99 1.324 2.99 2.955l-.004 10.468h5.855L30 11.516c-.097-1.178-1.264-2.912-2.664-3.676-1.891-.902-6.107-1.925-9.603 1.874-1.122-1.18-2.523-2.082-4.065-2.498-2.594-.554-5.31.01-7.202 1.95-.262.217-.468.738-.449.304V7.357H0V24h6.017V13.516c0-1.63 1.34-2.956 2.991-2.956 1.648 0 2.985 1.326 2.985 2.956L11.99 24h6.174M103 9h.49v-.781h.515c.372 0 .391.106.391.378 0 .208.02.31.053.403H105v-.053c-.108-.032-.108-.104-.108-.397 0-.373-.103-.434-.3-.506a.484.484 0 0 0 .367-.476c0-.173-.117-.568-.751-.568H103v2zm.49-1.119v-.533h.621c.293 0 .35.154.35.26 0 .198-.128.273-.385.273h-.586z" fill="#FFF"/><path d="M103.499 9.8a1.3 1.3 0 1 0 .004-2.6 1.3 1.3 0 0 0-.004 2.6zM102 8.5a1.5 1.5 0 1 1 3 0 1.5 1.5 0 0 1-3 0zM95.038 7l-2.895 4.125C91.236 9.865 90.407 8.33 89.577 7h-6.829l5.334 7.89S84.107 20.821 82 23.997l5.964.002 3.33-5.384c.554.8 1.844 3.308 3.13 5.382H101c-1.653-2.729-5.607-9.137-5.607-9.137C97.019 12.17 99.207 9.69 100.9 7h-5.862" fill="#FFF"/></g></svg>