<svg width="445" height="54" viewBox="0 0 445 54" xmlns="http://www.w3.org/2000/svg" xmlns:xlink="http://www.w3.org/1999/xlink"><title>Group</title><defs><path id="a" d="M30.92 45.65V.138H.41V45.65h30.51z"/></defs><g fill="none" fill-rule="evenodd"><path d="M.866 52.505c-2.224-2.18-.216-7.783 6.603-17.202 5.097-7.195 9.408-15.159 10.526-19.453 1.116-4.294.442-6.687-1.117-7.254-1.495-.566-3.758-.346-5.756.39-2.256.804-4.82 3.038-5.963 4.933-1.208 1.895-4.785.378-1.987-4C6.036 5.538 11.067 4.054 15.855 4c5.5-.062 12.13 2.524 13.985 12.04 1.859 9.97-10.411 23.863-16.889 29.126-1.924 1.58-1.713 3.004-.03 2.985l8.8-.035c4.852-.119 8.16.428 10.236.989 1.169.31 2.174 3.348-1.774 3.393-3.623.04-5.115-.202-10.156.374-9.244.947-16.673 2.134-19.16-.368M67.893 27.788c-.433-10.008-2.418-15.5-5.077-18.386-1.167-1.254-3.3-3.068-6.119-3.037l-.192.002h-.064c-4.226.111-7.55 12.062-7.433 22.327.118 10.392 2.981 19.93 9.641 19.856 6.725-.075 9.586-13.226 9.244-20.762m4.1.144c-.163 8.113-1.906 23.848-15.738 24.066-6.149.069-20.45-1.484-20.253-23.667.132-16.605 7.298-22.895 12.33-25.295.127-.128.255-.193.382-.258l.193-.001C56.436.284 62.44 4.463 64.378 5.899c3.425 2.561 7.81 10.877 7.616 22.033M101.053 51.273c-3.572.62-5.264.639-9.688.688-7.74.15-9.5-.152-12.955-.63-2.346-.36-3.026-2.996.16-3.097l5.205-.058c-.03-2.644-.408-7.218-.298-14.764.129-5.935 1.191-15.49 1.897-22.142.114-1.355-.278-1.544-.92-.827-1.282 1.755-4.96 4.376-7.029 5.624-2.134 1.185-4.829-1.3-2.57-2.938 1.936-1.376 3.354-2.552 4.515-3.404 1.162-.915 2.578-2.286 5.146-5.216 2.056-2.345 3.953-1.399 5.847-.84 1.83.625 4.437 1.112 5.315 3.94.876 2.699 1.173 5.856.78 11.406-.329 5.485.175 21.215.197 28.953 2.539.037 4.362.146 5.73.324 2.15.299 2.565 2.357-1.332 2.98M133.982 36.271c-.06-5.277-3.177-9.121-6.505-9.084-3.265.037-7.206 2.56-7.964 9.118.774 6.159 2.816 11.287 6.593 11.245 5.634-.063 7.936-5.939 7.876-11.279m6.017-.067c.085 7.502-5.776 15.77-13.843 15.796-8.13.027-21.355-3.195-20.069-25.401C107.485 3.121 122.838 1.996 128.153 2c4.673.01 6.8 1.323 8.163 2.897 1.298 1.575 1.436 2.4 1.582 4.116.153 2.096-3.557 2.456-4.347.493-.79-1.898-1.393-4.308-5.48-3.308-4.213 1.064-8.656 10.143-8.984 20.765.007.636-.048 1.336-.042 1.972 1.516-1.862 3.412-3.98 7.244-4.913 8.298-2.128 13.624 4.616 13.71 12.182M204.77 50.823c-3.165 1.11-9.221-1.039-12.335-6.826-3.05-5.79-4.66-16.15-10.301-16.089.067 5.948.27 12.211.234 14.743-.013 4.494-1.486 6.155-2.77 7.182-1.35 1.09-3.544 2-6.85 2.164-4.925.243-3.644-12.428-3.473-20.15.105-7.723 1.942-22.742 2.342-27.429.237-1.965 2.565-2.56 4.448-2.39 1.882.169 4.486 1.09 5.361 3.865.81 2.649 1.104 5.746.777 11.192a45.604 45.604 0 0 0-.09 3.355c1.394-2.799 3.363-6.364 5.087-8.725 2.553-3.572 5.958-6.268 9.252-7.443 2.325-.785 5.576-.06 7.278 1.313 1.047.874 1.444 1.503 1.788 3.208.348 2.084-4.566 3.403-5.625 1.453-.995-1.887-2.36-2.188-3.587-1.795-2.909.854-5.213 3.538-6.936 5.898-1.596 2.233-3.818 6.37-5.338 9.489a5.842 5.842 0 0 1 2.335.037c2.014.357 6.685.496 9 4.521 3.111 5.471 5.296 14.94 11.828 19.046 2.155 1.368-.487 2.853-2.426 3.38" fill="#CD4635"/><path d="M223.984 40.383c1.322-3.3 1.992-7.046 1.572-9.811-.555-3.345-1.877-5.779-4.069-5.045-1.869.665-2.545 3.83-2.055 7.11.557 3.474 2.27 6.226 4.552 7.746M240.88 29.24c-3.364 11.572-9.094 14.279-12.259 14.7-1.163.206-2.33.09-3.367-.156-2.16 3.633-5.107 6.244-8.409 6.216-5.63-.131-12.534-3.983-12.826-12.615-.365-9.468 5-15.779 7.704-16.968 1.353-.596 2.26-.541 3.626.088 1.365.63 2.804 1.901 1.662 3.912-1.843 3.049-3.353 6.867-3.614 12.412-.205 4.835 1.215 10.167 3.999 10.33 1.943.107 3.863-1.783 5.387-4.378-3.126-1.77-5.495-5.222-6.188-9.274-.698-4.503.28-9.475 4.28-10.68 3.613-1.007 6.886 2.242 7.588 7.132.49 3.345-.366 7.672-2.007 11.428a5.576 5.576 0 0 0 2.331.103c2.907-.42 7.066-4.655 9.625-13.06.124-.516.444-.842.96-.848.518-.006.908.118 1.3.372.391.318.397.769.208 1.286" fill="#CD4635"/><path d="M231.002 36.852c-.142-12.681 7.197-17.186 9.461-17.602 1.23-.209 1.877-.281 3.822-.238 4.603.078 6.427.839 7.935 2.383 1.509 1.608 1.53 3.558 1.161 5.319-.494 2.152-3.16 1.532-2.792-.424.307-1.63.16-3.058-1.662-3.753-1.107-.443-2.463.028-3.87 1.605-1.987 2.168-4.148 6.03-4.076 12.402.057 5.073 1.13 8.378 5.086 8.463 5.187.137 13.777-8.415 16.34-16.899.123-.522.444-.85.962-.856.518-.006.91.12 1.3.375.394.321.399.777.21 1.3-3.37 11.678-12.807 19.85-20.971 20.072-6.027.067-12.795-2.197-12.906-12.147" fill="#CD4635"/><path d="M285.684 50.965c-6.113-.643-7.45-5.161-7.494-9.176-.124-5.373.46-10.56 1.426-16.27.302-1.687-.859-2.063-2.38-.103-3.42 4.443-6.793 13.223-9.087 20.826-.495 1.754-2.216 3.068-5.043 3.1-2.506.029-4.122-.795-4.469-3.122-.283-2.264-.81-9.187-.58-17.478.163-8.291.986-15.23 2.064-22.365.236-1.946 2.801-2.363 3.83-2.375 1.028-.011 3.599-.04 3.745 1.577.215 2.07.29 14.502.426 20.976l.116 10.36c2.49-7.15 6.445-15.743 11.645-16.191 3.212-.295 6.065 2.068 6.433 6.273.292 3.105.09 8.094.264 12.107.024 2.202.066 5.892 1.696 8.01 1.371 1.863.947 4.2-2.592 3.851M344.984 39.612c-2.01 5.149-5.596 8.352-9.072 9.783-2.124.91-3.233.099-4.793-.644-1.302-.681-3.518-2.113-1.722-3.461 3.724-2.382 6.676-4.44 8.314-8.256 1.386-3.179 1.47-7.04-2.472-6.87a1.72 1.72 0 0 1-.71.197c-1.55.144-2.329-.038-3.567-.91-1.176-.936-2.49-2.757-.63-4.107 3.66-2.382 5.866-7.342 5.67-13.226-.113-4.175-1.372-6.819-2.925-6.802-2.974.033-7.02 8.24-7.986 14.263-.049 6.962.266 17.528.243 21.072-.014 4.494-1.482 6.155-2.764 7.182-1.345 1.09-3.534 2-6.83 2.164-4.914.243-3.636-12.428-3.466-20.15.106-7.723 1.938-22.741 2.337-27.43.236-1.964 2.557-2.56 4.436-2.39 1.877.169 4.474 1.09 5.347 3.865.404 1.325.678 2.714.827 4.421 2.154-4.01 5.668-7.657 9.29-7.697 4.721-.051 9.924 2.486 11.176 10.067 1.523 8.78-2.81 14.397-6.593 17.286 3.497.405 8.59 4.652 5.89 11.643M388.928 27.246c-3.362 11.56-7.093 19.153-12.457 19.661-6.461.648-9.09-2.843-9.659-7.445-2.278 4.442-4.835 7.158-8.002 7.45-6.526.712-9.155-2.971-9.663-7.766-.578-5.306.642-11.785 2.02-15.897 1.628-4.754 2.727-4.767 5.653-3.455 2.146 1 2.675 2.018 2.322 5.094-.535 4.103-2.184 18.46.662 18.428 2.135-.023 4.733-4.854 6.993-10.831.35-3.46 1.153-6.798 1.966-9.303 1.628-4.755 2.727-4.767 5.654-3.391 2.146 1 2.675 2.018 2.322 5.094-.535 4.103-2.184 18.46.662 18.428 2.781-.031 6.503-8.458 8.996-16.807.188-.514.443-.837 1.025-.843.452-.07.908.118 1.234.37.392.315.396.7.272 1.213" fill="#CD4635"/><path d="M385.254 8.52c.5-2.703 2.014-3.81 4.877-3.456 2.727.292 3.739 1.565 3.306 4.331-.502 2.575-2.083 3.748-4.878 3.457-2.66-.292-3.74-1.693-3.305-4.332m-4.098 30.55c-.593-5.324.595-11.758 2.074-15.95 1.606-4.769 2.802-4.782 5.808-3.402 2.137.94 2.747 1.961 2.319 5.049-.485 4.115-2.244 18.52.745 18.487 2.858-.03 6.613-8.485 9.24-16.862.127-.515.455-.84.987-.846.532-.005.931.119 1.333.372.402.316.407.765.214 1.281-3.454 11.534-7.286 19.153-12.794 19.726-6.704.652-9.404-3.044-9.926-7.855" fill="#CD4635"/><path d="M398.195 39.088c-1.238-4.02-1.276-7.48-1.143-12.605.16-8.202 1.27-15.902 2.582-22.13.356-1.926 2.864-2.338 3.868-2.35 1.005-.012 4.333-.05 4.477 1.55.21 2.048-.661 14.1-.954 21.79-.246 6.152-.556 17.943 3.652 17.895 2.826-.033 6.375-8.465 8.795-16.82.184-.515.43-.838.996-.844.44-.005.88.118 1.198.37.38.316.385.765.265 1.278-3.265 11.504-6.887 19.105-12.094 19.677-6.399.65-9.754-1.81-11.642-7.81" fill="#CD4635"/><g transform="translate(414 1)"><mask id="b" fill="#fff"><use xlink:href="#a"/></mask><path d="M30.625 42.686c.408 2.22-.343 3.626-3.678 2.647-3.91-1.1-5.085-3.12-6.032-7.75l-.21-1.65c-2.828 4.29-7.065 8.341-10.836 8.383-4.666.052-9.36-2.501-9.457-11.017C.27 20.65 12.042 15.944 14.087 15.985c1.472.111 2.306.356 3.277 1.425 1.034 1.07 2.08 3.092.047 4.195-3.367 1.88-6.397 5.22-7.16 11.139-.593 4.202.268 6.862 1.802 6.845 2.812-.032 6.28-4.265 8.401-8.866-.022-1.97.083-4.069.121-6.293.164-8.138 1.356-15.778 2.692-21.958C23.63.56 26.117.152 27.14.14 28.163.13 30.72.1 30.865 1.688c.214 2.031-.222 14.303-.71 21.936-.272 4.324-.36 7.821-.265 10.554.152 2.159.059 5.21.735 8.508" fill="#CD4635" mask="url(#b)"/></g></g></svg>