<?xml version="1.0" encoding="utf-8"?>
<!-- Generator: Adobe Illustrator 19.1.0, SVG Export Plug-In . SVG Version: 6.00 Build 0)  -->
<!DOCTYPE svg PUBLIC "-//W3C//DTD SVG 1.1//EN" "http://www.w3.org/Graphics/SVG/1.1/DTD/svg11.dtd">
<svg version="1.1" xmlns="http://www.w3.org/2000/svg" xmlns:xlink="http://www.w3.org/1999/xlink" x="0px" y="0px"
	 viewBox="0 0 142.3 115" style="enable-background:new 0 0 142.3 115;" xml:space="preserve">
<style type="text/css">
	.st0{display:none;}
	.st1{display:inline;}
	.st2{fill:#27AAE1;}
</style>
<g id="Layer_1" class="st0">
	<g class="st1">
		<path class="st2" d="M72.1,112.5H60.8c-0.3,0-0.5-0.2-0.6-0.5l-1.7-8c-1.3-0.3-2.5-0.6-3.7-1l-5.5,6c-0.2,0.2-0.5,0.3-0.7,0.1
			l-9.8-5.7c0,0-0.1,0-0.1-0.1H26.4l-5.3,3.4c-0.3,0.2-0.6,0.1-0.8-0.2c-0.2-0.3-0.1-0.6,0.2-0.8l5.4-3.5c0.1-0.1,0.2-0.1,0.3-0.1
			h12.5l1.3-4H22.5c-0.2,0-0.3-0.1-0.5-0.2l-9.6-11.6l-6.3-0.3c-0.4,1.2-1.6,2-2.9,2c-1.7,0-3.1-1.4-3.1-3.1c0-1.7,1.4-3.1,3.1-3.1
			c1.6,0,3,1.3,3.1,2.9l6.4,0.3c0.2,0,0.3,0.1,0.4,0.2l9.6,11.6h17.6l0.6-2c-1-0.9-1.9-1.8-2.7-2.7l-7.8,2.5c-0.3,0.1-0.6,0-0.7-0.3
			l-5.6-9.8c-0.1-0.2-0.1-0.5,0.1-0.7l6-5.5c-0.4-1.3-0.7-2.5-1-3.7l-8-1.7c-0.3-0.1-0.5-0.3-0.5-0.6V61.4c0-0.3,0.2-0.5,0.5-0.6
			l8-1.7c0.2-1.2,0.6-2.4,1-3.7l-6-5.5c-0.2-0.2-0.3-0.5-0.1-0.7l5.6-9.8c0.1-0.2,0.4-0.4,0.7-0.3l7.8,2.5c0.9-0.9,1.8-1.8,2.7-2.7
			l-2.5-7.8c-0.1-0.3,0-0.6,0.3-0.7l9.8-5.7c0.2-0.1,0.5-0.1,0.7,0.1l5.5,6c1.2-0.4,2.4-0.7,3.7-1l1.7-8c0.1-0.3,0.3-0.5,0.6-0.5
			h11.3c0.3,0,0.5,0.2,0.6,0.5l1.7,8c1.3,0.3,2.5,0.6,3.7,1l5.5-6c0.2-0.2,0.5-0.3,0.7-0.1l9.8,5.7c0.2,0.1,0.4,0.4,0.3,0.7
			l-2.5,7.8c0.9,0.9,1.8,1.8,2.7,2.7l4.9-1.6v-1.9c0-0.3,0.3-0.6,0.6-0.6c0.3,0,0.6,0.3,0.6,0.6v27c0,0.2-0.2,0.5-0.4,0.6
			c-8.2,3-13.7,10.7-13.7,19.1c0,11.3,9.6,20.5,21.4,20.5c6.4,0,12.4-2.7,16.5-7.5V71.8l-0.2-0.2c-2.3-2.6-5.3-4.7-8.7-5.9
			c-0.2-0.1-0.4-0.3-0.4-0.6v-27c0-0.3,0.3-0.6,0.6-0.6c0.3,0,0.6,0.3,0.6,0.6v26.6c3,1.2,5.8,3,8.1,5.3v-3.5c0-0.3,0.3-0.6,0.6-0.6
			c0.3,0,0.6,0.3,0.6,0.6v31.5c0,0,0,0,0,0v4c0,4.3,3,7.8,6.6,7.8s6.6-3.5,6.6-7.8V66.5c0-0.3,0.3-0.6,0.6-0.6
			c0.3,0,0.6,0.3,0.6,0.6V102c0,4.9-3.5,9-7.8,9s-7.8-4-7.8-9v-2.4c-4.3,4.4-10.2,6.9-16.5,6.9c-5.2,0-10-1.7-13.9-4.6l0.3,1
			c0.1,0.3,0,0.6-0.3,0.7l-9.8,5.7c-0.2,0.1-0.5,0.1-0.7-0.1l-5.5-6c-1.2,0.4-2.4,0.7-3.7,1l-1.7,8
			C72.7,112.3,72.4,112.5,72.1,112.5z M61.3,111.3h10.3l1.7-7.9c0.1-0.2,0.2-0.4,0.5-0.5c1.5-0.3,2.9-0.7,4.3-1.2
			c0.2-0.1,0.5,0,0.6,0.2l5.4,6l9-5.2l-0.7-2.3c-4.3-4-7-9.5-7-15.7c0-8.8,5.7-16.8,14.1-20.1V41.3l-4.9,1.6c-0.2,0.1-0.5,0-0.6-0.2
			c-1-1.1-2-2.1-3.1-3.1c-0.2-0.2-0.2-0.4-0.2-0.6l2.5-7.7l-9-5.2l-5.4,6c-0.2,0.2-0.4,0.2-0.6,0.2c-1.3-0.5-2.8-0.8-4.3-1.2
			c-0.2,0-0.4-0.2-0.5-0.5l-1.7-7.9H61.3l-1.7,7.9c-0.1,0.2-0.2,0.4-0.5,0.5c-1.5,0.3-3,0.7-4.3,1.1c-0.2,0.1-0.5,0-0.6-0.2l-5.4-6
			l-9,5.2l2.4,7.7c0.1,0.2,0,0.5-0.2,0.6c-1.1,1-2.1,2-3.1,3.1c-0.2,0.2-0.4,0.2-0.6,0.2l-7.7-2.4l-5.2,9l6,5.4
			c0.2,0.2,0.2,0.4,0.2,0.6c-0.5,1.6-0.9,3-1.2,4.3c0,0.2-0.2,0.4-0.5,0.5l-7.9,1.7v10.3l7.9,1.7c0.2,0.1,0.4,0.2,0.5,0.5
			c0.3,1.3,0.6,2.7,1.2,4.3c0.1,0.2,0,0.5-0.2,0.6l-6,5.4l5.2,9l7.7-2.5c0.2-0.1,0.5,0,0.6,0.2c0.9,1.1,2,2.1,3.1,3.1
			c0.2,0.2,0.2,0.4,0.2,0.6l-2.4,7.6c0,0,0,0.1,0,0.1l8.9,5.2l5.4-6c0.2-0.2,0.4-0.2,0.6-0.2c1.4,0.5,2.8,0.9,4.3,1.2
			c0.2,0,0.4,0.2,0.5,0.5L61.3,111.3z M3.4,83.3c-1,0-1.9,0.8-1.9,1.9c0,1,0.8,1.9,1.9,1.9c0.8,0,1.5-0.6,1.8-1.3c0,0,0-0.1,0-0.1
			c0-0.1,0-0.2,0.1-0.3c0,0,0-0.1,0-0.1C5.2,84.1,4.4,83.3,3.4,83.3z M66.5,85.9c-10.4,0-18.9-8.5-18.9-18.9
			c0-10.4,8.5-18.9,18.9-18.9c10.4,0,18.9,8.5,18.9,18.9C85.4,77.4,76.9,85.9,66.5,85.9z M66.5,49.3c-9.8,0-17.7,7.9-17.7,17.7
			c0,9.8,7.9,17.7,17.7,17.7c9.8,0,17.7-7.9,17.7-17.7C84.2,57.2,76.3,49.3,66.5,49.3z M106,24.9c-2.1,0-3.9-1.7-3.9-3.9
			c0-2.1,1.7-3.9,3.9-3.9c2.1,0,3.9,1.7,3.9,3.9C109.9,23.2,108.1,24.9,106,24.9z M106,18.4c-1.5,0-2.7,1.2-2.7,2.7
			c0,1.5,1.2,2.7,2.7,2.7c1.5,0,2.7-1.2,2.7-2.7C108.7,19.6,107.5,18.4,106,18.4z M110.6,15.2c-1.5,0-2.7-1.2-2.7-2.7
			c0-1.5,1.2-2.7,2.7-2.7s2.7,1.2,2.7,2.7C113.3,14,112.1,15.2,110.6,15.2z M110.6,11c-0.8,0-1.5,0.7-1.5,1.5c0,0.8,0.7,1.5,1.5,1.5
			s1.5-0.7,1.5-1.5C112.1,11.7,111.5,11,110.6,11z M105.1,7.9c-1.2,0-2.3-1-2.3-2.3s1-2.3,2.3-2.3s2.3,1,2.3,2.3
			S106.3,7.9,105.1,7.9z M105.1,4.5c-0.6,0-1.1,0.5-1.1,1.1s0.5,1.1,1.1,1.1s1.1-0.5,1.1-1.1S105.7,4.5,105.1,4.5z"/>
		<path class="st2" d="M18.9,110.9c-1.7,0-3.1-1.4-3.1-3.1c0-1.7,1.4-3.1,3.1-3.1c1.7,0,3.1,1.4,3.1,3.1
			C22,109.6,20.6,110.9,18.9,110.9z M18.9,106c-1,0-1.9,0.8-1.9,1.9c0,1,0.8,1.9,1.9,1.9c1,0,1.9-0.8,1.9-1.9
			C20.8,106.9,19.9,106,18.9,106z M132.3,67.8c-4.5,0-9-1.1-9-3.3c0-2.2,4.5-3.3,9-3.3c4.5,0,9,1.1,9,3.3
			C141.3,66.7,136.8,67.8,132.3,67.8z M132.3,62.3c-4.8,0-7.8,1.3-7.8,2.1s3.1,2.1,7.8,2.1c4.8,0,7.8-1.3,7.8-2.1
			S137.1,62.3,132.3,62.3z M108,39.3c-4.7,0-9.8-1-9.8-3.1c0-2.2,5.1-3.1,9.8-3.1c4.7,0,9.8,1,9.8,3.1
			C117.7,38.4,112.7,39.3,108,39.3z M108,34.2c-5.3,0-8.6,1.3-8.6,2c0,0.7,3,2,8.6,2c5.5,0,8.6-1.3,8.6-2
			C116.5,35.5,113.5,34.2,108,34.2z"/>
	</g>
</g>
<g id="Layer_5" class="st0">
	<g class="st1">
		<path class="st2" d="M80.8,101.1H8.8c-0.3,0-0.6-0.3-0.6-0.6V13.8c0-0.3,0.3-0.6,0.6-0.6h71.9c0.3,0,0.6,0.3,0.6,0.6l0,19.1
			c1.5-0.7,3-1.2,4.7-1.5v-5c0-0.3,0.3-0.6,0.6-0.6h8c0.3,0,0.6,0.3,0.6,0.6v5c5,0.8,9.4,2.7,13.5,6c0.2,0.2,0.3,0.6,0.1,0.8
			l-4.7,6.6c-0.1,0.1-0.2,0.2-0.4,0.2c-0.2,0-0.3,0-0.5-0.1c-4.5-3.3-8.8-5-13.1-5c-4.5,0-7.5,2.1-7.5,5.3v0.1
			c0,3.3,1.7,4.9,11.3,7.2c0,0,0,0,0,0c11.6,2.8,16.4,7.2,16.4,15.1v0.1c0,8.4-5.8,14.2-15.2,15.2V88c0,0.3-0.3,0.6-0.6,0.6h-8
			c-0.3,0-0.6-0.3-0.6-0.6v-5.5c-1.6-0.3-3.1-0.7-4.7-1.3l0,19.3c0,0.2-0.1,0.3-0.2,0.4C81.1,101.1,81,101.1,80.8,101.1z M9.4,99.9
			h70.9l0-19.5c0,0,0,0,0,0l0-9c0,0,0,0,0,0l0-13.5c0,0,0,0,0,0l0-24c0,0,0,0,0,0l0-19.4H9.4V99.9z M87.3,87.4H94v-5
			c0-0.3,0.2-0.6,0.5-0.6c9-0.8,14.7-6.2,14.7-14.1v-0.1c0-7.3-4.3-11.2-15.5-13.9l0,0c-9.6-2.3-12.2-4.1-12.2-8.4v-0.1
			c0-3.8,3.6-6.5,8.7-6.5c4.4,0,8.8,1.6,13.3,4.9l4-5.6c-3.9-3-8.2-4.8-13-5.5c-0.3,0-0.5-0.3-0.5-0.6v-4.9h-6.8v4.9
			c0,0.3-0.2,0.5-0.5,0.6c-2,0.3-3.8,0.9-5.4,1.8l0,23.2c2.2,1,4.9,1.9,8.7,2.8c8.9,2.1,11.6,4,11.6,8.2v0.1c0,4.1-3.7,6.8-9.4,6.8
			c-4,0-7.5-0.9-10.9-2.9l0,7.5c1.7,0.7,3.5,1.2,5.4,1.5c0.3,0,0.5,0.3,0.5,0.6V87.4z M81.4,71.1c3.5,2.1,7,3.1,10.9,3.1
			c5,0,8.2-2.2,8.2-5.6v-0.1c0-3.1-1.6-4.9-10.7-7c-3.6-0.9-6.3-1.7-8.4-2.7L81.4,71.1z M66.9,92.5h-7.9c-1.9,0-3.4-1.5-3.4-3.4
			c0-1.9,1.5-3.4,3.4-3.4h7.9c1.9,0,3.4,1.5,3.4,3.4C70.3,91,68.8,92.5,66.9,92.5z M58.9,86.9c-1.2,0-2.2,1-2.2,2.2s1,2.2,2.2,2.2
			h7.9c1.2,0,2.2-1,2.2-2.2s-1-2.2-2.2-2.2H58.9z M48.8,92.5h-7.9c-1.9,0-3.4-1.5-3.4-3.4c0-1.9,1.5-3.4,3.4-3.4h7.9
			c1.9,0,3.4,1.5,3.4,3.4C52.2,91,50.7,92.5,48.8,92.5z M40.8,86.9c-1.2,0-2.2,1-2.2,2.2s1,2.2,2.2,2.2h7.9c1.2,0,2.2-1,2.2-2.2
			s-1-2.2-2.2-2.2H40.8z M30.7,92.5h-7.9c-1.9,0-3.4-1.5-3.4-3.4c0-1.9,1.5-3.4,3.4-3.4h7.9c1.9,0,3.4,1.5,3.4,3.4
			C34.1,91,32.5,92.5,30.7,92.5z M22.7,86.9c-1.2,0-2.2,1-2.2,2.2s1,2.2,2.2,2.2h7.9c1.2,0,2.2-1,2.2-2.2s-1-2.2-2.2-2.2H22.7z
			 M66.9,81.4h-7.9c-1.9,0-3.4-1.5-3.4-3.4c0-1.9,1.5-3.4,3.4-3.4h7.9c1.9,0,3.4,1.5,3.4,3.4C70.3,79.8,68.8,81.4,66.9,81.4z
			 M58.9,75.7c-1.2,0-2.2,1-2.2,2.2c0,1.2,1,2.2,2.2,2.2h7.9c1.2,0,2.2-1,2.2-2.2c0-1.2-1-2.2-2.2-2.2H58.9z M48.8,81.4h-7.9
			c-1.9,0-3.4-1.5-3.4-3.4c0-1.9,1.5-3.4,3.4-3.4h7.9c1.9,0,3.4,1.5,3.4,3.4C52.2,79.8,50.7,81.4,48.8,81.4z M40.8,75.7
			c-1.2,0-2.2,1-2.2,2.2c0,1.2,1,2.2,2.2,2.2h7.9c1.2,0,2.2-1,2.2-2.2c0-1.2-1-2.2-2.2-2.2H40.8z M30.7,81.4h-7.9
			c-1.9,0-3.4-1.5-3.4-3.4c0-1.9,1.5-3.4,3.4-3.4h7.9c1.9,0,3.4,1.5,3.4,3.4C34.1,79.8,32.5,81.4,30.7,81.4z M22.7,75.7
			c-1.2,0-2.2,1-2.2,2.2c0,1.2,1,2.2,2.2,2.2h7.9c1.2,0,2.2-1,2.2-2.2c0-1.2-1-2.2-2.2-2.2H22.7z M66.9,70.2h-7.9
			c-1.9,0-3.4-1.5-3.4-3.4c0-1.9,1.5-3.4,3.4-3.4h7.9c1.9,0,3.4,1.5,3.4,3.4C70.3,68.7,68.8,70.2,66.9,70.2z M58.9,64.6
			c-1.2,0-2.2,1-2.2,2.2s1,2.2,2.2,2.2h7.9c1.2,0,2.2-1,2.2-2.2s-1-2.2-2.2-2.2H58.9z M48.8,70.2h-7.9c-1.9,0-3.4-1.5-3.4-3.4
			c0-1.9,1.5-3.4,3.4-3.4h7.9c1.9,0,3.4,1.5,3.4,3.4C52.2,68.7,50.7,70.2,48.8,70.2z M40.8,64.6c-1.2,0-2.2,1-2.2,2.2s1,2.2,2.2,2.2
			h7.9c1.2,0,2.2-1,2.2-2.2s-1-2.2-2.2-2.2H40.8z M30.7,70.2h-7.9c-1.9,0-3.4-1.5-3.4-3.4c0-1.9,1.5-3.4,3.4-3.4h7.9
			c1.9,0,3.4,1.5,3.4,3.4C34.1,68.7,32.5,70.2,30.7,70.2z M22.7,64.6c-1.2,0-2.2,1-2.2,2.2s1,2.2,2.2,2.2h7.9c1.2,0,2.2-1,2.2-2.2
			s-1-2.2-2.2-2.2H22.7z M119.5,69.3c-0.1,0-0.3-0.1-0.4-0.2l-5.2-4.9c-0.1-0.1-0.2-0.3-0.2-0.4s0.1-0.3,0.2-0.4l4.8-5.1
			c0.2-0.2,0.6-0.2,0.8,0c0.2,0.2,0.2,0.6,0,0.8l-3.9,4.1l19.9,0c0.3,0,0.6,0.3,0.6,0.6c0,0.3-0.3,0.6-0.6,0.6l-19.7,0l4.1,3.9
			c0.2,0.2,0.2,0.6,0,0.8C119.8,69.3,119.7,69.3,119.5,69.3z M130.3,58c-0.2,0-0.3-0.1-0.4-0.2c-0.2-0.2-0.2-0.6,0-0.8l4.1-3.9
			l-19.7,0c-0.3,0-0.6-0.3-0.6-0.6s0.3-0.6,0.6-0.6l19.9,0l-3.9-4.1c-0.2-0.2-0.2-0.6,0-0.8c0.2-0.2,0.6-0.2,0.8,0L136,52
			c0.1,0.1,0.2,0.3,0.2,0.4c0,0.2-0.1,0.3-0.2,0.4l-5.2,4.9C130.6,58,130.5,58,130.3,58z M70.5,53H19.1c-0.3,0-0.6-0.3-0.6-0.6V21.5
			c0-0.3,0.3-0.6,0.6-0.6h51.4c0.3,0,0.6,0.3,0.6,0.6v30.9C71.1,52.7,70.8,53,70.5,53z M19.7,51.8h50.2V22.1H19.7V51.8z"/>
	</g>
</g>
<g id="Layer_4" class="st0">
	<g class="st1">
		<path class="st2" d="M123.8,112.5H63.7c-0.3,0-0.6-0.2-0.6-0.6v-5l-43.5,0c-0.1,0-0.3-0.1-0.4-0.2c-0.1-0.1-0.2-0.2-0.2-0.4V38.8
			c0-0.3,0.2-0.6,0.6-0.6h30.9l0-20.8c0-0.3,0.2-0.6,0.6-0.6H71c0.3,0,0.6,0.2,0.6,0.6v34.4c3.7-1.9,19.4-8.5,33.7,1.4
			c0.1,0.1,0.2,0.3,0.2,0.5l0,32c0,0.1,0,0.1,0,0.2c5.8,4.5,9.6,11.3,9.7,18.9c7.8,1.7,9.2,6.7,9.2,7c0,0.2,0,0.3-0.1,0.5
			C124.2,112.4,124,112.5,123.8,112.5z M64.3,111.4H123c-0.7-1.4-2.7-4.4-8.5-5.5c-0.3-0.1-0.5-0.3-0.4-0.6c0,0,0,0,0-0.1
			c0,0,0,0,0-0.1c0-0.1,0-0.1,0-0.2c-0.2-12.9-11.4-23.4-24.9-23.4c-13.7,0-24.9,10.7-24.9,23.8v0.5c0.1,0,0.1,0,0.2,0h18.9v-2
			c0-0.3,0.2-0.6,0.6-0.6h6.7c0.3,0,0.6,0.2,0.6,0.6v2h17.4c0.3,0,0.6,0.2,0.6,0.6s-0.2,0.6-0.6,0.6H64.4c-0.1,0-0.1,0-0.2,0V111.4z
			 M20.2,82.4v23.4l43,0v-0.5c0-6.7,2.8-12.8,7.3-17.3c0,0,0-0.1,0-0.1V18H51.6l0,20.8c0,0,0,0,0,0.1V88c0,0.3-0.2,0.6-0.6,0.6
			c-0.1,0-0.3-0.1-0.4-0.2c-0.1-0.1-0.2-0.2-0.2-0.4l0-48.7H20.2v17.9h13.9c0.3,0,0.6,0.2,0.6,0.6c0,0.3-0.2,0.6-0.6,0.6H20.2v4.9
			h13.9c0.3,0,0.6,0.2,0.6,0.6c0,0.3-0.2,0.6-0.6,0.6H20.2v4.9h13.9c0.3,0,0.6,0.2,0.6,0.6s-0.2,0.6-0.6,0.6H20.2v4.9h13.9
			c0.3,0,0.6,0.2,0.6,0.6s-0.2,0.6-0.6,0.6H20.2v4.9h13.9c0.3,0,0.6,0.2,0.6,0.6s-0.2,0.6-0.6,0.6H20.2z M84.4,105.7H90v-1.3h-5.6
			V105.7z M71.5,53.1V87c4.6-4.1,10.8-6.6,17.6-6.6c5.7,0,10.9,1.8,15.2,4.8l0-31.2C89.8,44.1,73.8,51.9,71.5,53.1z M105.5,94.6
			c-0.2,0-0.3-0.1-0.4-0.2c-3.8-5.1-9.9-8.1-16.5-8.1c-2.5,0-4.9,0.4-7.2,1.3c-0.3,0.1-0.6,0-0.7-0.3c-0.1-0.3,0-0.6,0.3-0.7
			c2.4-0.9,5-1.3,7.6-1.3c6.9,0,13.4,3.2,17.4,8.6c0.2,0.2,0.1,0.6-0.1,0.8C105.7,94.6,105.6,94.6,105.5,94.6z M62.1,15.6
			c-0.6,0-0.6-0.6-0.6-1c0-1.2,0.4-5.1,6.7-5.3c4.9-0.6,6.6-2.1,6.5-5.8c0-0.3,0.2-0.6,0.5-0.6c0.3,0,0.6,0.2,0.6,0.5
			c0.2,4.2-2,6.2-7.5,6.9c-2.3,0.1-3.9,0.6-4.8,1.7c-1,1.2-0.8,2.6-0.8,2.7c0,0,0,0.1,0,0.1C62.7,15.3,62.4,15.6,62.1,15.6z
			 M56.8,15.5c-0.3,0-0.5-0.2-0.5-0.5c0-0.1-0.9-7.2,6.7-8.4c0.5-0.1,1-0.1,1.6-0.2c3.2-0.3,5.5-0.7,5.8-3.3c0-0.3,0.3-0.5,0.6-0.5
			c0.3,0,0.5,0.3,0.5,0.6c-0.4,3.8-4.1,4.1-6.8,4.3c-0.5,0-1.1,0.1-1.5,0.2c-6.6,1-5.8,6.9-5.8,7.1C57.4,15.2,57.2,15.4,56.8,15.5
			C56.9,15.5,56.9,15.5,56.8,15.5z"/>
	</g>
</g>
<g id="Layer_3" class="st0">
	<g class="st1">
		<path class="st2" d="M116.6,102.9c-3.1,0-5.6-2.5-5.6-5.6c0-2.4,1.6-4.5,3.7-5.3L111,79.4c-0.4,0.1-0.8,0.2-1.1,0.2
			c-1.2,0.3-2.4,0.4-3.6,0.4H52.4v4.7c0,0.3-0.3,0.6-0.6,0.6H25.3c-0.3,0-0.6-0.3-0.6-0.6v-5.1C11.5,78.9,1.2,68,1.2,54.8
			C1.2,41.2,12.3,30,26,30c1.7,0,3.5,0.2,5.3,0.6c5.8-11.1,17.2-17.9,30-17.9c15.4,0,28.7,10,32.6,24.5c3.6-2.2,7.8-3.4,12.1-3.4
			c6.7,0,12.8,2.9,17,7.5l9.7-8.9c-0.9-0.9-1.4-2.1-1.4-3.4c0-2.7,2.2-4.9,4.9-4.9s4.9,2.2,4.9,4.9s-2.2,4.9-4.9,4.9
			c-0.9,0-1.8-0.3-2.5-0.7l-9.9,9.1c3.3,4,5.2,9.1,5.2,14.6c0,10.4-6.9,19.4-16.8,22.2l3.6,12.6c0.2,0,0.5,0,0.7,0
			c3.1,0,5.6,2.5,5.6,5.6S119.7,102.9,116.6,102.9z M116.6,92.8c-2.4,0-4.4,2-4.4,4.4c0,2.4,2,4.4,4.4,4.4c2.4,0,4.4-2,4.4-4.4
			C121,94.8,119,92.8,116.6,92.8z M25.9,84.1h25.3V62.2H25.9V84.1z M52.4,78.8h53.9c1.1,0,2.2-0.1,3.4-0.4c0.3-0.1,0.7-0.1,1-0.2
			l-2.9-10.1c-1,0.3-2.1,0.4-3.2,0.4c-6.5,0-11.8-5.3-11.8-11.8c0-0.4,0-0.9,0.1-1.3l-14.9-4c-0.6,1.9-2.5,3.3-4.6,3.3
			c-2.7,0-4.9-2.2-4.9-4.9c0-2.7,2.2-4.9,4.9-4.9c2.7,0,4.9,2.2,4.9,4.9c0,0.1,0,0.2,0,0.3l14.8,4c1.2-5.3,5.9-9.3,11.5-9.3
			c3.8,0,7.2,1.8,9.4,4.7c0,0,0,0,0,0l8-7.4c-4-4.4-9.7-7.1-16.1-7.1c-4.3,0-8.5,1.3-12.1,3.7c-0.2,0.1-0.4,0.1-0.6,0.1
			c-0.2-0.1-0.3-0.2-0.4-0.4C89.4,24,76.4,13.9,61.3,13.9c-12.4,0-23.6,6.8-29.1,17.7c-0.1,0.3-0.4,0.4-0.7,0.3
			c-1.9-0.5-3.7-0.7-5.5-0.7c-13,0-23.6,10.6-23.6,23.6c0,12.5,9.8,22.8,22.3,23.5V61.6c0-0.3,0.3-0.6,0.6-0.6h4.1v-2.4
			c0-5.3,4.1-9.6,9.1-9.6c5,0,9.1,4.3,9.1,9.6v2.4h4.1c0.3,0,0.6,0.3,0.6,0.6V78.8z M108.9,67.7l2.9,10.2c9.3-2.6,15.9-11.1,15.9-21
			c0-5.2-1.8-10-4.9-13.8l-8,7.4c-0.1,0-0.1,0.1-0.2,0.1c1.1,1.8,1.7,3.9,1.7,6.1C116.4,61.7,113.3,65.9,108.9,67.7z M104.6,46.1
			c-5.8,0-10.6,4.7-10.6,10.6c0,5.8,4.7,10.6,10.6,10.6c5.8,0,10.6-4.7,10.6-10.6C115.2,50.9,110.4,46.1,104.6,46.1z M30.7,60.9
			h15.8v-2.4c0-4.6-3.5-8.4-7.9-8.4c-4.4,0-7.9,3.8-7.9,8.4V60.9z M73.4,46.2c-2,0-3.6,1.6-3.6,3.6c0,2,1.6,3.6,3.6,3.6
			c1.7,0,3.2-1.2,3.5-2.8c0-0.1,0-0.1,0-0.2c0,0,0-0.1,0-0.1c0-0.2,0-0.3,0-0.5C77,47.9,75.4,46.2,73.4,46.2z M136.1,25.4
			c-2,0-3.6,1.6-3.6,3.6s1.6,3.6,3.6,3.6s3.6-1.6,3.6-3.6S138.1,25.4,136.1,25.4z M38.6,76.3c-1.7,0-3-1.4-3-3c0-1.7,1.4-3,3-3
			s3,1.4,3,3C41.6,75,40.2,76.3,38.6,76.3z M38.6,71.5c-1,0-1.8,0.8-1.8,1.8c0,1,0.8,1.8,1.8,1.8s1.8-0.8,1.8-1.8
			C40.3,72.3,39.5,71.5,38.6,71.5z"/>
	</g>
</g>
<g id="Layer_2">
	<path class="st2" d="M86.8,67.5h-3.6c-0.3,0-0.6-0.3-0.6-0.6c0-0.3,0.3-0.6,0.6-0.6h3.1v-7.7h-3.5c-0.3,0-0.6-0.3-0.6-0.6
		c0-0.3,0.3-0.6,0.6-0.6h4.1c0.3,0,0.6,0.3,0.6,0.6v8.8C87.4,67.2,87.1,67.5,86.8,67.5z"/>
	<path class="st2" d="M100,67.5h-6.8c-0.3,0-0.6-0.3-0.6-0.6v-8.8c0-0.3,0.3-0.6,0.6-0.6h6.8c0.3,0,0.6,0.3,0.6,0.6v8.8
		C100.5,67.2,100.3,67.5,100,67.5z M93.7,66.4h5.7v-7.7h-5.7V66.4z"/>
	<path class="st2" d="M100,83.3h-4.2c-0.3,0-0.6-0.3-0.6-0.6c0-0.3,0.3-0.6,0.6-0.6h3.7v-7.7h-5.7v1.6c0,0.3-0.3,0.6-0.6,0.6
		c-0.3,0-0.6-0.3-0.6-0.6v-2.1c0-0.3,0.3-0.6,0.6-0.6h6.8c0.3,0,0.6,0.3,0.6,0.6v8.8C100.5,83,100.3,83.3,100,83.3z"/>
	<g>
		<path class="st2" d="M111.4,91.1H95.6c-0.3,0-0.6-0.3-0.6-0.6s0.3-0.6,0.6-0.6h15.2V2.5H69v46.7c0,0.3-0.3,0.6-0.6,0.6
			c-0.3,0-0.6-0.3-0.6-0.6V2c0-0.3,0.3-0.6,0.6-0.6h42.9c0.3,0,0.6,0.3,0.6,0.6v88.5C111.9,90.8,111.7,91.1,111.4,91.1z"/>
	</g>
	<path class="st2" d="M86.8,50.6H80c-0.3,0-0.6-0.3-0.6-0.6v-8.8c0-0.3,0.3-0.6,0.6-0.6h6.8c0.3,0,0.6,0.3,0.6,0.6V50
		C87.4,50.4,87.1,50.6,86.8,50.6z M80.5,49.5h5.7v-7.7h-5.7V49.5z"/>
	<path class="st2" d="M100,50.6h-6.8c-0.3,0-0.6-0.3-0.6-0.6v-8.8c0-0.3,0.3-0.6,0.6-0.6h6.8c0.3,0,0.6,0.3,0.6,0.6V50
		C100.5,50.4,100.3,50.6,100,50.6z M93.7,49.5h5.7v-7.7h-5.7V49.5z"/>
	<path class="st2" d="M86.8,20.1H80c-0.3,0-0.6-0.3-0.6-0.6v-8.8c0-0.3,0.3-0.6,0.6-0.6h6.8c0.3,0,0.6,0.3,0.6,0.6v8.8
		C87.4,19.8,87.1,20.1,86.8,20.1z M80.5,19h5.7v-7.7h-5.7V19z"/>
	<path class="st2" d="M86.8,35H80c-0.3,0-0.6-0.3-0.6-0.6v-8.8c0-0.3,0.3-0.6,0.6-0.6h6.8c0.3,0,0.6,0.3,0.6,0.6v8.8
		C87.4,34.8,87.1,35,86.8,35z M80.5,33.9h5.7v-7.7h-5.7V33.9z"/>
	<path class="st2" d="M100,20.1h-6.8c-0.3,0-0.6-0.3-0.6-0.6v-8.8c0-0.3,0.3-0.6,0.6-0.6h6.8c0.3,0,0.6,0.3,0.6,0.6v8.8
		C100.5,19.8,100.3,20.1,100,20.1z M93.7,19h5.7v-7.7h-5.7V19z"/>
	<path class="st2" d="M100,35h-6.8c-0.3,0-0.6-0.3-0.6-0.6v-8.8c0-0.3,0.3-0.6,0.6-0.6h6.8c0.3,0,0.6,0.3,0.6,0.6v8.8
		C100.5,34.8,100.3,35,100,35z M93.7,33.9h5.7v-7.7h-5.7V33.9z"/>
	<g>
		<path class="st2" d="M43.2,108.6c-0.3,0-0.6-0.3-0.6-0.6V93.5H13.5c-0.3,0-0.6-0.3-0.6-0.6v-3.8c0-0.1,0-0.1,0-0.2
			c0,0,0-0.1,0-0.2V66.7c0-4.6,3.7-8.3,8.3-8.3h5.5c-2.3-2.3-3.7-5.6-3.7-9.1c0-7.2,5.8-13,13-13c7.2,0,13,5.8,13,13
			c0,3.5-1.4,6.8-3.7,9.1H51c1.7,0,3.4,0.5,4.8,1.6c0.3,0.2,0.3,0.5,0.1,0.8c-0.2,0.3-0.5,0.3-0.8,0.1C54,60,52.5,59.5,51,59.5h-7
			c-2.2,1.7-5,2.8-8,2.8s-5.8-1-8-2.8h-6.7c-4,0-7.2,3.2-7.2,7.2v22.2c0,0.1,0,0.1,0,0.2c0,0,0,0.1,0,0.2v3.2h28.5V82.3
			c0-5.3,4.3-9.5,9.5-9.5h6.9c0.3,0,0.6,0.3,0.6,0.6c0,0.3-0.3,0.6-0.6,0.6h-6.9c-4.6,0-8.4,3.8-8.4,8.4v25.7
			C43.7,108.4,43.5,108.6,43.2,108.6z M36,37.4c-6.6,0-11.9,5.3-11.9,11.9S29.5,61.2,36,61.2c6.6,0,11.9-5.3,11.9-11.9
			S42.6,37.4,36,37.4z"/>
		<path class="st2" d="M95.6,113.4H43.2c-0.3,0-0.6-0.3-0.6-0.6v-4.4c0-0.3,0.3-0.6,0.6-0.6s0.6,0.3,0.6,0.6v3.8h51.3l0-29.9
			c0-4.6-3.8-8.4-8.4-8.4h-7.4c-0.3,0-0.6-0.3-0.6-0.6c0-0.3,0.3-0.6,0.6-0.6h7.4c5.3,0,9.5,4.3,9.5,9.5l0,30.5
			c0,0.1-0.1,0.3-0.2,0.4C95.9,113.3,95.8,113.4,95.6,113.4z"/>
		<path class="st2" d="M69.6,108c-0.1,0-0.2,0-0.4-0.1l-3.6-2.9c-0.1-0.1-0.2-0.3-0.2-0.4V85.5h-0.8c-0.3,0-0.6-0.3-0.6-0.6v-4.8
			c0-0.3,0.3-0.6,0.6-0.6h9.8c0.3,0,0.6,0.3,0.6,0.6v4.8c0,0.3-0.3,0.6-0.6,0.6h-0.8v19.1c0,0.2-0.1,0.3-0.2,0.4l-3.5,2.9
			C69.8,108,69.7,108,69.6,108z M66.6,104.3l3,2.4l3-2.4V85.5h-6V104.3z M65.2,84.3h8.6v-3.7h-8.6V84.3z M69.3,78.1
			c-8,0-14.5-6.5-14.5-14.5c0-8,6.5-14.5,14.5-14.5c8,0,14.5,6.5,14.5,14.5C83.8,71.6,77.3,78.1,69.3,78.1z M69.3,50.3
			c-7.4,0-13.4,6-13.4,13.4S61.9,77,69.3,77c7.4,0,13.4-6,13.4-13.4S76.6,50.3,69.3,50.3z"/>
	</g>
</g>
<g id="Layer_6">
</g>
</svg>
