<?xml version="1.0" encoding="utf-8"?>
<!-- Generator: Adobe Illustrator 19.1.0, SVG Export Plug-In . SVG Version: 6.00 Build 0)  -->
<!DOCTYPE svg PUBLIC "-//W3C//DTD SVG 1.1//EN" "http://www.w3.org/Graphics/SVG/1.1/DTD/svg11.dtd">
<svg version="1.1" xmlns="http://www.w3.org/2000/svg" xmlns:xlink="http://www.w3.org/1999/xlink" x="0px" y="0px"
	 viewBox="0 0 30.1 9.9" style="enable-background:new 0 0 30.1 9.9;" xml:space="preserve">
<style type="text/css">
	.st0{display:none;}
	.st1{display:inline;}
	.st2{fill-rule:evenodd;clip-rule:evenodd;}
	.st3{fill-rule:evenodd;clip-rule:evenodd;fill:#0099D8;}
	.st4{fill:#231F20;}
	.st5{fill-rule:evenodd;clip-rule:evenodd;fill:#231F20;}
	.st6{fill:#C60C46;}
	.st7{fill-rule:evenodd;clip-rule:evenodd;fill:#F3901D;}
	.st8{fill-rule:evenodd;clip-rule:evenodd;fill:#FFC425;}
	.st9{fill-rule:evenodd;clip-rule:evenodd;fill:#C60C46;}
	.st10{fill:#0067A6;}
	.st11{fill:#FFFFFF;}
	.st12{display:inline;fill:#B4A87D;}
	.st13{fill:#52302C;}
</style>
<g id="kst" class="st0">
	<g class="st1">
		<g>
			<path d="M112.6,98c0,0,2.5-2.7,2.5-2.7h-2.4c0,0-2.2,2-2.3,2.1v-2.1h-2.2v6h2.2v-1.3c0,0,0.4-0.4,0.5-0.4c0,0,1.4,1.7,1.4,1.7h3
				C115.3,101.3,112.6,98,112.6,98"/>
			<polygon points="134.8,95.3 134.8,97.5 132.9,97.5 132.9,95.3 130.6,95.3 130.6,101.3 132.9,101.3 132.9,99.1 134.8,99.1 
				134.8,101.3 137.1,101.3 137.1,95.3 			"/>
			<path d="M119.8,97.2v2.4c0,0.2-0.2,0.4-0.4,0.4h-1.3c-0.2,0-0.4-0.2-0.4-0.4v-2.4c0-0.2,0.2-0.4,0.4-0.4h1.3
				C119.6,96.7,119.8,96.9,119.8,97.2 M120.7,95.3h-3.9c-0.7,0-1.3,0.7-1.3,1.5v3c0,0.8,0.6,1.5,1.3,1.5h3.9c0.7,0,1.3-0.7,1.3-1.5
				v-3C122.1,96,121.5,95.3,120.7,95.3"/>
			<path d="M129.5,97.5v-0.5c0-0.5-0.2-1.1-0.5-1.4c-0.2-0.2-0.4-0.3-0.7-0.3h-4.1c-0.7,0-1.2,0.8-1.2,1.7v2.6
				c0,0.9,0.5,1.7,1.2,1.7h4.1c0.7,0,1.2-0.8,1.2-1.7v-0.7l-2.2,0l0,0.6c0,0.2-0.2,0.5-0.4,0.5h-1.3c-0.2,0-0.4-0.2-0.4-0.4v-2.4
				c0-0.2,0.2-0.4,0.4-0.4h1.3c0.2,0,0.4,0.2,0.4,0.4v0.3H129.5z"/>
			<path d="M137.6,100.6v0.1h0.3v0.6h0.2v-0.6h0.3v-0.1H137.6z M139,100.6l-0.2,0.6l-0.2-0.6h-0.2v0.8h0.1v-0.6l0.2,0.6h0.1l0.2-0.6
				v0.6h0.1v-0.8H139z"/>
			<g>
				<path class="st2" d="M102.1,95.3L102.1,95.3h-4v6l3.9,0c0,0-0.9-3-0.9-3C101.1,98.3,102.1,95.3,102.1,95.3z"/>
				<polygon class="st3" points="103.5,95.3 101.7,98.3 103.5,101.3 106.3,101.3 106.3,95.3 				"/>
			</g>
		</g>
	</g>
	<g class="st1">
		<path d="M98,106.5c0-0.7,0.3-0.8,1-0.8c0.6,0,1,0,1,0.8h-0.3c0-0.5-0.1-0.5-0.7-0.5c-0.6,0-0.7,0.1-0.7,0.4c0,0.5,0.2,0.5,0.7,0.5
			c0.6,0,1,0,1,0.7c0,0.8-0.4,0.8-1,0.8c-0.7,0-1-0.1-1-0.9h0.3c0,0.6,0.1,0.6,0.7,0.6c0.6,0,0.7,0,0.7-0.5c0-0.5-0.2-0.4-0.7-0.5
			C98.5,107.2,98,107.2,98,106.5z"/>
		<path d="M102.5,105.8v1.9c0,0.7-0.4,0.8-1.1,0.8c-0.6,0-1.1,0-1.1-0.8v-1.9h0.3v1.9c0,0.4,0.1,0.5,0.8,0.5c0.5,0,0.8,0,0.8-0.5
			v-1.9H102.5z"/>
		<path d="M103,105.8h1.4c0.5,0,0.6,0.4,0.6,0.8c0,0.2,0,0.8-0.7,0.8h-1v1H103V105.8z M103.3,106v1.1h0.8c0.4,0,0.6,0,0.6-0.5
			c0-0.5-0.1-0.6-0.5-0.6H103.3z"/>
		<path d="M105.4,105.8h1.4c0.5,0,0.6,0.4,0.6,0.8c0,0.2,0,0.8-0.7,0.8h-1v1h-0.3V105.8z M105.7,106v1.1h0.8c0.4,0,0.6,0,0.6-0.5
			c0-0.5-0.1-0.6-0.5-0.6H105.7z"/>
		<path d="M108.1,108.2h1.4v0.3h-1.7v-2.7h0.3V108.2z"/>
		<path d="M110.5,107.3v1.1h-0.3v-1.1l-1-1.6h0.4l0.8,1.3l0.8-1.3h0.4L110.5,107.3z"/>
		<path d="M115,108.1c-0.2,0.4-0.6,0.4-1,0.4c-0.6,0-1,0-1-0.8c0-0.7,0.2-0.6,0.5-0.7c-0.2-0.1-0.2-0.2-0.2-0.5
			c0-0.5,0.3-0.6,0.8-0.6c0.5,0,0.8,0.1,0.8,0.7v0.2h-0.3v-0.2c0-0.3-0.1-0.4-0.5-0.4c-0.3,0-0.5,0-0.5,0.4c0,0.2,0,0.3,0.2,0.4
			l1,0.9c0-0.1,0-0.1,0-0.2c0-0.1,0-0.1,0-0.2h0.3c0,0.1,0,0.1,0,0.2c0,0.1,0,0.3,0,0.4l0.5,0.4l-0.2,0.2L115,108.1z M113.7,107.1
			c-0.4,0.1-0.4,0.1-0.4,0.6c0,0.5,0.1,0.6,0.7,0.6c0.3,0,0.7,0,0.8-0.3L113.7,107.1z"/>
		<path d="M118,108.5h-0.3V106h-0.9v-0.3h2v0.3H118V108.5z"/>
		<path d="M119.4,108.5h-0.3v-2.7h1.2c0.6,0,0.8,0.2,0.8,0.8c0,0.4,0,0.7-0.5,0.7v0c0.3,0,0.4,0.2,0.4,0.5v0.7h-0.3v-0.6
			c0-0.3-0.1-0.5-0.5-0.5h-1V108.5z M120.4,107.1c0.5,0,0.5-0.2,0.5-0.6c0-0.3,0-0.5-0.5-0.5h-0.9v1.1H120.4z"/>
		<path d="M121.9,107.9l-0.2,0.6h-0.3l1-2.7h0.4l1,2.7h-0.3l-0.2-0.6H121.9z M122.6,106l-0.6,1.6h1.2L122.6,106z"/>
		<path d="M124.1,105.8h1.3c0.3,0,0.9,0,0.9,1v0.6c0,0.3,0,1-0.8,1h-1.4V105.8z M125.4,108.2c0.5,0,0.6-0.3,0.6-0.8v-0.7
			c0-0.2-0.1-0.6-0.6-0.6h-1.1v2.1H125.4z"/>
		<path d="M127,108.5h-0.3v-2.7h0.3V108.5z"/>
		<path d="M129.9,108.5h-0.5l-1.5-2.4h0v2.4h-0.3v-2.7h0.5l1.5,2.5h0v-2.5h0.3V108.5z"/>
		<path d="M132.5,107.1v0.6c0,0.6-0.3,0.8-0.9,0.8h-0.3c-0.7,0-1-0.1-1-1v-0.8c0-0.7,0.3-0.9,0.8-0.9h0.7c0.4,0,0.7,0.2,0.7,0.6v0.2
			h-0.3v-0.2c0-0.3-0.1-0.4-0.6-0.4h-0.4c-0.6,0-0.7,0.1-0.7,0.7v0.9c0,0.5,0.2,0.6,0.7,0.6h0.3c0.5,0,0.6-0.1,0.6-0.5v-0.3h-0.9
			v-0.3H132.5z"/>
	</g>
	<rect x="98.1" y="104.2" class="st1" width="39" height="0.2"/>
</g>
<g id="pipeline" class="st0">
	<g class="st1">
		<g>
			<path d="M113.6,77.7c0,0,2.8-3,2.8-3h-2.7c0,0-2.5,2.3-2.6,2.4v-2.4h-2.5v6.8h2.5V80c0,0,0.5-0.4,0.5-0.5c0,0.1,1.6,1.9,1.6,1.9
				h3.4C116.6,81.5,113.6,77.7,113.6,77.7"/>
			<polygon points="138.7,74.7 138.7,77.1 136.5,77.1 136.5,74.7 133.9,74.7 133.9,81.4 136.5,81.4 136.5,79 138.6,79 138.6,81.4 
				141.3,81.4 141.3,74.7 			"/>
			<path d="M121.7,76.7v2.7c0,0.3-0.2,0.5-0.4,0.5h-1.4c-0.2,0-0.4-0.2-0.4-0.5v-2.7c0-0.3,0.2-0.5,0.4-0.5h1.4
				C121.5,76.2,121.7,76.5,121.7,76.7 M122.8,74.7h-4.4c-0.8,0-1.5,0.8-1.5,1.7v3.4c0,0.9,0.7,1.7,1.5,1.7h4.4
				c0.8,0,1.5-0.8,1.5-1.7v-3.4C124.3,75.4,123.6,74.7,122.8,74.7"/>
			<path d="M132.7,77.1v-0.5c0-0.6-0.2-1.2-0.6-1.6c-0.2-0.2-0.5-0.4-0.8-0.4h-4.6c-0.7,0-1.4,0.9-1.4,1.9v2.9
				c0,1.1,0.6,1.9,1.4,1.9h4.6c0.7,0,1.4-0.9,1.4-1.9v-0.8l-2.4,0l-0.1,0.6c0,0.3-0.2,0.6-0.4,0.6h-1.4c-0.2,0-0.4-0.2-0.4-0.5v-2.7
				c0-0.3,0.2-0.5,0.4-0.5h1.4c0.2,0,0.4,0.2,0.4,0.5v0.4H132.7z"/>
			<path d="M141.8,80.6v0.1h0.3v0.7h0.2v-0.7h0.3v-0.1H141.8z M143.4,80.6l-0.2,0.6l-0.2-0.6h-0.3v0.9h0.2v-0.7l0.2,0.7h0.1l0.2-0.7
				v0.7h0.2v-0.9H143.4z"/>
			<g>
				<path class="st2" d="M101.7,74.7L101.7,74.7h-4.5v6.8l4.4,0c0,0-1.1-3.4-1.1-3.4C100.6,78.1,101.7,74.7,101.7,74.7z"/>
				<polygon class="st3" points="103.3,74.7 101.3,78.1 103.3,81.4 106.5,81.4 106.5,74.7 				"/>
			</g>
		</g>
	</g>
	<g class="st1">
		<path d="M97.2,86.5h1.5c0.6,0,0.7,0.4,0.7,0.9c0,0.3,0,0.9-0.7,0.9h-1.2v1.2h-0.3V86.5z M97.6,86.8V88h0.9c0.5,0,0.7,0,0.7-0.6
			c0-0.6-0.1-0.7-0.5-0.7H97.6z"/>
		<path d="M100.3,89.5H100v-3h0.3V89.5z"/>
		<path d="M100.8,86.5h1.5c0.6,0,0.7,0.4,0.7,0.9c0,0.3,0,0.9-0.7,0.9h-1.2v1.2h-0.3V86.5z M101.2,86.8V88h0.9c0.5,0,0.7,0,0.7-0.6
			c0-0.6-0.1-0.7-0.5-0.7H101.2z"/>
		<path d="M103.8,87.8h1.5v0.3h-1.5v1.1h1.6v0.3h-2v-3h2v0.3h-1.6V87.8z"/>
		<path d="M106.2,89.2h1.5v0.3h-1.9v-3h0.3V89.2z"/>
		<path d="M108.4,89.5h-0.3v-3h0.3V89.5z"/>
		<path d="M111.6,89.5H111l-1.7-2.8h0v2.8H109v-3h0.6l1.7,2.8h0v-2.8h0.3V89.5z"/>
		<path d="M112.4,87.8h1.5v0.3h-1.5v1.1h1.6v0.3h-2v-3h2v0.3h-1.6V87.8z"/>
	</g>
	<rect x="97.2" y="84.7" class="st1" width="44.1" height="0.3"/>
</g>
<g id="minerals">
	<g>
		<g>
			<path d="M10.7,2.2c0,0,1.8-1.9,1.8-1.9h-1.7c0,0-1.6,1.5-1.7,1.5V0.2H7.5v4.4h1.6V3.7c0,0,0.3-0.3,0.3-0.3c0,0,1,1.2,1,1.2h2.2
				C12.6,4.6,10.7,2.2,10.7,2.2"/>
			<polygon points="26.8,0.2 26.8,1.8 25.4,1.8 25.4,0.2 23.7,0.2 23.7,4.6 25.4,4.6 25.4,3 26.8,3 26.8,4.6 28.5,4.6 28.5,0.2 			
				"/>
			<path d="M15.9,1.6v1.7c0,0.2-0.1,0.3-0.3,0.3h-0.9c-0.2,0-0.3-0.1-0.3-0.3V1.6c0-0.2,0.1-0.3,0.3-0.3h0.9
				C15.8,1.2,15.9,1.4,15.9,1.6 M16.6,0.2h-2.8c-0.5,0-1,0.5-1,1.1v2.2c0,0.6,0.4,1.1,1,1.1h2.8c0.5,0,1-0.5,1-1.1V1.3
				C17.5,0.7,17.1,0.2,16.6,0.2"/>
			<path d="M23,1.8V1.5c0-0.4-0.1-0.8-0.4-1c-0.1-0.1-0.3-0.2-0.5-0.2h-3c-0.5,0-0.9,0.6-0.9,1.3v1.9c0,0.7,0.4,1.2,0.9,1.2h3
				C22.6,4.6,23,4,23,3.3V2.8l-1.6,0l0,0.4c0,0.2-0.1,0.4-0.3,0.4h-0.9c-0.2,0-0.3-0.1-0.3-0.3V1.6c0-0.2,0.1-0.3,0.3-0.3h0.9
				c0.2,0,0.3,0.1,0.3,0.3v0.2H23z"/>
			<path d="M28.8,4L28.8,4L29,4.1v0.5h0.1V4.1h0.2V4H28.8z M29.8,4l-0.1,0.4L29.5,4h-0.2v0.6h0.1V4.1l0.2,0.5h0.1l0.2-0.5v0.5H30V4
				H29.8z"/>
			<g>
				<path class="st2" d="M3,0.2L3,0.2H0.1v4.4l2.9,0c0,0-0.7-2.2-0.7-2.2C2.3,2.4,3,0.2,3,0.2z"/>
				<polygon class="st3" points="4,0.2 2.7,2.4 4,4.6 6.1,4.6 6.1,0.2 				"/>
			</g>
		</g>
	</g>
	<g>
		<rect x="0.1" y="6.7" width="28.3" height="0.2"/>
	</g>
	<g>
		<path d="M1.3,9.8H1.1L0.4,8h0v1.8H0.2v-2h0.4l0.7,1.7l0.7-1.7h0.4v2H2.1V8h0L1.3,9.8z"/>
		<path d="M2.9,9.8H2.7v-2h0.2V9.8z"/>
		<path d="M4.9,9.8H4.6L3.5,8h0v1.8H3.3v-2h0.4l1.1,1.8h0V7.8h0.2V9.8z"/>
		<path d="M5.4,8.7h1v0.2h-1v0.7h1v0.2H5.2v-2h1.3V8h-1V8.7z"/>
		<path d="M7,9.8H6.8v-2h0.9c0.4,0,0.6,0.1,0.6,0.6c0,0.3,0,0.5-0.3,0.5v0c0.2,0,0.3,0.1,0.3,0.4v0.5H8V9.4C8,9.1,8,9,7.7,9H7V9.8z
			 M7.7,8.8C8,8.8,8,8.7,8,8.4C8,8.1,8,8,7.7,8H7v0.8H7.7z"/>
		<path d="M8.8,9.4L8.6,9.8H8.4l0.7-2h0.3l0.7,2H9.9L9.8,9.4H8.8z M9.3,8L8.9,9.2h0.9L9.3,8z"/>
		<path d="M10.6,9.6h1v0.2h-1.2v-2h0.2V9.6z"/>
		<path d="M11.7,8.4c0-0.5,0.2-0.6,0.7-0.6c0.4,0,0.7,0,0.7,0.5h-0.2C12.9,8,12.9,8,12.4,8C12,8,12,8.1,12,8.3
			c0,0.4,0.2,0.3,0.5,0.4c0.5,0,0.7,0,0.7,0.5c0,0.6-0.3,0.6-0.8,0.6c-0.5,0-0.8-0.1-0.7-0.6h0.2c0,0.4,0.1,0.4,0.5,0.4
			c0.4,0,0.5,0,0.5-0.4c0-0.4-0.2-0.3-0.5-0.3C12.1,8.8,11.7,8.9,11.7,8.4z"/>
	</g>
</g>
<g id="kii" class="st0">
	<g class="st1">
		<path d="M13.2,2.6c0,0,2.3-2.4,2.3-2.4h-2.1c0,0-2,1.8-2.1,1.9V0.2h-2v5.4h2V4.4c0,0,0.4-0.3,0.4-0.4c0,0,1.2,1.5,1.2,1.5h2.7
			C15.6,5.6,13.2,2.6,13.2,2.6"/>
		<polygon points="33.2,0.2 33.2,2.1 31.5,2.1 31.5,0.2 29.5,0.2 29.5,5.6 31.5,5.6 31.5,3.6 33.2,3.6 33.2,5.6 35.3,5.6 35.3,0.2 
					"/>
		<path d="M19.7,1.8V4c0,0.2-0.2,0.4-0.4,0.4h-1.2c-0.2,0-0.4-0.2-0.4-0.4V1.8c0-0.2,0.2-0.4,0.4-0.4h1.2
			C19.5,1.4,19.7,1.6,19.7,1.8 M20.5,0.2H17c-0.7,0-1.2,0.6-1.2,1.4v2.7c0,0.7,0.5,1.4,1.2,1.4h3.5c0.7,0,1.2-0.6,1.2-1.4V1.5
			C21.7,0.8,21.2,0.2,20.5,0.2"/>
		<path d="M28.5,2.2V1.7c0-0.5-0.2-1-0.5-1.3c-0.2-0.2-0.4-0.3-0.6-0.3h-3.7c-0.6,0-1.1,0.7-1.1,1.6V4c0,0.9,0.5,1.6,1.1,1.6h3.7
			c0.6,0,1.1-0.7,1.1-1.6V3.4l-1.9,0l0,0.5c0,0.2-0.2,0.5-0.4,0.5H25c-0.2,0-0.4-0.2-0.4-0.4V1.8c0-0.2,0.2-0.4,0.4-0.4h1.1
			c0.2,0,0.4,0.2,0.4,0.4v0.3H28.5z"/>
		<path d="M35.8,4.9V5H36v0.6h0.1V5h0.2V4.9H35.8z M37,4.9l-0.2,0.5l-0.2-0.5h-0.2v0.7h0.1V5l0.2,0.6h0.1L37.1,5v0.6h0.1V4.9H37z"/>
		<g>
			<path class="st2" d="M3.7,0.2L3.7,0.2H0.1v5.4l3.6,0c0,0-0.8-2.7-0.8-2.7C2.9,2.9,3.7,0.2,3.7,0.2z"/>
			<polygon class="st3" points="5,0.2 3.4,2.9 5,5.6 7.5,5.6 7.5,0.2 			"/>
		</g>
	</g>
</g>
<g id="chemtech" class="st0">
	<g class="st1">
		<g>
			<path class="st4" d="M12.2,1.3h0.2L13,0.4h0.8l-0.9,1.2l0.9,1.2H13l-0.7-1h-0.2v1h-0.7V0.4h0.7V1.3z"/>
			<path class="st4" d="M13.9,1.9V1.2c0-0.8,0.5-0.9,1.1-0.9c0.7,0,1.1,0.1,1.1,0.9v0.7c0,0.8-0.5,0.9-1.1,0.9
				C14.3,2.8,13.9,2.7,13.9,1.9z M15.4,1.9V1.3c0-0.4-0.1-0.4-0.5-0.4c-0.3,0-0.4,0-0.5,0.4v0.6c0,0.4,0.1,0.4,0.5,0.4
				C15.3,2.3,15.4,2.2,15.4,1.9z"/>
			<path class="st4" d="M18.5,1.9L18.5,1.9c0,0.3,0,0.6-0.2,0.8c-0.2,0.2-0.5,0.2-0.8,0.2c-0.7,0-1.1,0-1.1-0.9V1.3
				c0-0.8,0.4-0.9,1.1-0.9c0.7,0,1,0.1,1,0.8v0.1h-0.7V1.1c0-0.2-0.2-0.2-0.4-0.2C17,0.9,17,1,17,1.4v0.4c0,0.4,0,0.5,0.4,0.5
				c0.3,0,0.4,0,0.4-0.3V1.9H18.5z"/>
			<path class="st4" d="M20.9,2.8h-0.7v-1h-0.9v1h-0.7V0.4h0.7v0.9h0.9V0.4h0.7V2.8z"/>
			<path class="st4" d="M24.6,1.9L24.6,1.9c0,0.3,0,0.6-0.2,0.8c-0.2,0.2-0.5,0.2-0.8,0.2c-0.7,0-1.1,0-1.1-0.9V1.3
				c0-0.8,0.4-0.9,1.1-0.9c0.7,0,1,0.1,1,0.8v0.1h-0.7V1.1c0-0.2-0.2-0.2-0.4-0.2c-0.4,0-0.4,0.1-0.4,0.5v0.4c0,0.4,0,0.5,0.4,0.5
				c0.3,0,0.4,0,0.4-0.3V1.9H24.6z"/>
			<path class="st4" d="M27.1,2.8h-0.7v-1h-0.9v1h-0.7V0.4h0.7v0.9h0.9V0.4h0.7V2.8z"/>
			<path class="st4" d="M28.1,1.3h1v0.5h-1v0.5h1.1v0.5h-1.8V0.4h1.8v0.5h-1.1V1.3z"/>
			<path class="st4" d="M30.3,2.8h-0.7V0.4h1l0.5,1.5h0l0.4-1.5h1.1v2.4H32l0.1-1.9h0l-0.6,1.9h-0.6l-0.6-1.9h0L30.3,2.8z"/>
			<path class="st4" d="M33.7,2.8h-0.7V0.4h0.7V2.8z"/>
			<path class="st4" d="M36.2,1.9L36.2,1.9c0,0.3,0,0.6-0.2,0.8c-0.2,0.2-0.5,0.2-0.8,0.2c-0.7,0-1.1,0-1.1-0.9V1.3
				c0-0.8,0.4-0.9,1.1-0.9c0.7,0,1,0.1,1,0.8v0.1h-0.7V1.1c0-0.2-0.2-0.2-0.4-0.2c-0.4,0-0.4,0.1-0.4,0.5v0.4c0,0.4,0,0.5,0.4,0.5
				c0.3,0,0.4,0,0.4-0.3V1.9H36.2z"/>
			<path class="st4" d="M37.1,2.4l-0.1,0.4h-0.7L37,0.4h1l0.7,2.4h-0.7l-0.1-0.4H37.1z M37.5,0.8L37.5,0.8l-0.3,1.1h0.6L37.5,0.8z"
				/>
			<path class="st4" d="M39.5,2.2h1v0.6h-1.7V0.4h0.7V2.2z"/>
			<path class="st4" d="M12.6,6.3h-0.7V4.4h-0.6V3.9h1.9v0.6h-0.7V6.3z"/>
			<path class="st4" d="M14.1,4.8h1v0.5h-1v0.5h1.1v0.5h-1.8V3.9h1.8v0.5h-1.1V4.8z"/>
			<path class="st4" d="M17.7,5.4L17.7,5.4c0,0.3,0,0.6-0.2,0.8c-0.2,0.2-0.5,0.2-0.8,0.2c-0.7,0-1.1,0-1.1-0.9V4.8
				c0-0.8,0.4-0.9,1.1-0.9c0.7,0,1,0.1,1,0.8v0.1H17V4.7c0-0.2-0.2-0.2-0.4-0.2c-0.4,0-0.4,0.1-0.4,0.5v0.4c0,0.4,0,0.5,0.4,0.5
				c0.3,0,0.4,0,0.4-0.3V5.4H17.7z"/>
			<path class="st4" d="M20.2,6.3h-0.7v-1h-0.9v1H18V3.9h0.7v0.9h0.9V3.9h0.7V6.3z"/>
			<path class="st4" d="M21.2,6.3h-0.7V3.9h1.1l0.7,1.9h0l0-1.9H23v2.4h-1.1l-0.7-1.9h0L21.2,6.3z"/>
			<path class="st4" d="M23.3,5.4V4.7c0-0.8,0.5-0.9,1.1-0.9s1.1,0.1,1.1,0.9v0.7c0,0.8-0.5,0.9-1.1,0.9S23.3,6.2,23.3,5.4z
				 M24.9,5.4V4.8c0-0.4-0.1-0.4-0.5-0.4c-0.3,0-0.4,0-0.5,0.4v0.6c0,0.4,0.1,0.4,0.5,0.4C24.8,5.8,24.9,5.7,24.9,5.4z"/>
			<path class="st4" d="M26.5,5.7h1v0.6h-1.7V3.9h0.7V5.7z"/>
			<path class="st4" d="M27.7,5.4V4.7c0-0.8,0.5-0.9,1.1-0.9C29.5,3.8,30,4,30,4.7v0.7c0,0.8-0.5,0.9-1.1,0.9
				C28.2,6.3,27.7,6.2,27.7,5.4z M29.3,5.4V4.8c0-0.4-0.1-0.4-0.5-0.4c-0.3,0-0.4,0-0.5,0.4v0.6c0,0.4,0.1,0.4,0.5,0.4
				C29.2,5.8,29.3,5.7,29.3,5.4z"/>
			<path class="st4" d="M31.7,4.6c0-0.2-0.2-0.2-0.4-0.2c-0.5,0-0.5,0.1-0.5,0.5v0.4c0,0.4,0.1,0.5,0.5,0.5c0.3,0,0.4-0.1,0.4-0.4
				h-0.4V4.9h1.1v0.4c0,0.8-0.2,1-1.1,1c-0.8,0-1.2-0.1-1.2-0.9V4.8c0-0.8,0.4-0.9,1.2-0.9c0.6,0,1.1,0,1.1,0.8H31.7z"/>
			<path class="st4" d="M34,5.5v0.9h-0.7V5.5l-0.9-1.6h0.7l0.4,0.9h0l0.4-0.9h0.8L34,5.5z"/>
			<path class="st4" d="M37.7,4.6c0-0.2-0.2-0.2-0.4-0.2c-0.5,0-0.5,0.1-0.5,0.5v0.4c0,0.4,0.1,0.5,0.5,0.5c0.3,0,0.4-0.1,0.4-0.4
				h-0.4V4.9h1.1v0.4c0,0.8-0.2,1-1.1,1c-0.8,0-1.2-0.1-1.2-0.9V4.8c0-0.8,0.4-0.9,1.2-0.9c0.6,0,1.1,0,1.1,0.8H37.7z"/>
			<path class="st4" d="M38.7,3.9h1.3c0.6,0,0.8,0.1,0.8,0.7c0,0.4,0,0.6-0.5,0.8v0c0.3,0,0.4,0.2,0.4,0.4v0.5h-0.7V6
				c0-0.2-0.1-0.3-0.3-0.3h-0.5v0.6h-0.7V3.9z M39.8,5.1c0.3,0,0.3-0.1,0.3-0.4c0-0.2-0.1-0.3-0.3-0.3h-0.5v0.7H39.8z"/>
			<path class="st4" d="M41,5.4V4.7c0-0.8,0.5-0.9,1.1-0.9c0.7,0,1.1,0.1,1.1,0.9v0.7c0,0.8-0.5,0.9-1.1,0.9C41.5,6.3,41,6.2,41,5.4
				z M42.6,5.4V4.8c0-0.4-0.1-0.4-0.5-0.4c-0.3,0-0.4,0-0.5,0.4v0.6c0,0.4,0.1,0.4,0.5,0.4C42.5,5.8,42.6,5.7,42.6,5.4z"/>
			<path class="st4" d="M45.7,3.9v1.6c0,0.7-0.3,0.8-1,0.8c-1,0-1.1-0.2-1.1-0.8V3.9h0.7v1.6c0,0.3,0.2,0.3,0.4,0.3
				c0.3,0,0.4,0,0.4-0.3V3.9H45.7z"/>
			<path class="st4" d="M46,6.3V3.9h1.2c0.6,0,0.8,0.3,0.8,0.9c0,0.7-0.2,0.9-0.8,0.9h-0.6v0.6H46z M47.1,5.1c0.3,0,0.3,0,0.3-0.4
				c0-0.3,0-0.3-0.3-0.3h-0.4v0.7H47.1z"/>
			<path class="st4" d="M50.2,5.7h1v0.6h-1.7V3.9h0.7V5.7z"/>
			<path class="st4" d="M52.3,6.3h-0.7V4.4H51V3.9H53v0.6h-0.7V6.3z"/>
			<path class="st4" d="M53.1,3.9h1.2c0.7,0,1,0.3,1,0.9v0.5c0,0.7-0.2,1-0.9,1h-1.3V3.9z M53.8,5.7h0.6c0.2,0,0.3-0.2,0.3-0.4V4.8
				c0-0.3-0.1-0.4-0.3-0.4h-0.6V5.7z"/>
		</g>
	</g>
	<g class="st1">
		<path class="st4" d="M9.2,5.9L9.2,5.9L9.4,6v0.5h0.1V6h0.2V5.9H9.2z M10.2,5.9l-0.1,0.4L9.9,5.9H9.8v0.6h0.1V6L10,6.4h0.1L10.3,6
			v0.5h0.1V5.9H10.2z"/>
		<g>
			<path class="st5" d="M4.3,0.2L4.3,0.2H0.1v6.3l4.1,0c0,0-1-3.1-1-3.1C3.3,3.3,4.3,0.2,4.3,0.2z"/>
			<polygon class="st3" points="5.8,0.2 3.9,3.3 5.8,6.4 8.7,6.4 8.7,0.2 			"/>
		</g>
	</g>
</g>
<g id="kaes" class="st0">
	<g class="st1">
		<g>
			<path d="M11.3,2.2c0,0,1.9-2,1.9-2h-1.8c0,0-1.7,1.5-1.7,1.6V0.2H8v4.6h1.7v-1c0,0,0.3-0.3,0.4-0.3c0,0,1,1.3,1,1.3h2.3
				C13.3,4.8,11.3,2.3,11.3,2.2"/>
			<polygon points="28.1,0.2 28.1,1.8 26.6,1.8 26.6,0.2 24.9,0.2 24.9,4.8 26.6,4.8 26.6,3.1 28.1,3.1 28.1,4.8 29.8,4.8 29.8,0.2 
							"/>
			<path d="M16.7,1.6v1.8c0,0.2-0.1,0.3-0.3,0.3h-1c-0.2,0-0.3-0.2-0.3-0.3V1.6c0-0.2,0.1-0.3,0.3-0.3h1C16.6,1.3,16.7,1.4,16.7,1.6
				 M17.4,0.2h-3c-0.6,0-1,0.5-1,1.1v2.3c0,0.6,0.5,1.1,1,1.1h3c0.6,0,1-0.5,1-1.1V1.4C18.4,0.7,18,0.2,17.4,0.2"/>
			<path d="M24.1,1.9V1.5c0-0.4-0.1-0.8-0.4-1.1c-0.2-0.2-0.3-0.2-0.5-0.2h-3.1c-0.5,0-0.9,0.6-0.9,1.3v1.9c0,0.7,0.4,1.3,0.9,1.3
				h3.1c0.5,0,0.9-0.6,0.9-1.3V2.9l-1.6,0l0,0.4c0,0.2-0.1,0.4-0.3,0.4h-1c-0.2,0-0.3-0.1-0.3-0.3V1.6c0-0.2,0.1-0.3,0.3-0.3h1
				c0.2,0,0.3,0.1,0.3,0.3v0.3H24.1z"/>
			<path d="M30.2,4.2L30.2,4.2l0.2,0.1v0.5h0.1V4.3h0.2V4.2H30.2z M31.3,4.2l-0.2,0.4L31,4.2h-0.2v0.6h0.1V4.3l0.2,0.5h0.1l0.2-0.5
				v0.5h0.1V4.2H31.3z"/>
			<g>
				<path class="st2" d="M3.3,0.2L3.3,0.2h-3v4.6l3,0c0,0-0.7-2.3-0.7-2.3C2.5,2.5,3.3,0.2,3.3,0.2z"/>
				<polygon class="st3" points="4.3,0.2 3,2.5 4.3,4.8 6.5,4.8 6.5,0.2 				"/>
			</g>
		</g>
	</g>
	<g class="st1">
		<rect x="0.3" y="6.9" width="34" height="0.2"/>
	</g>
	<g class="st1">
		<path d="M0.5,9.7l-0.2,0.4H0.1l0.7-2h0.3l0.8,2H1.7L1.5,9.7H0.5z M1,8.3L0.6,9.6h0.9L1,8.3z"/>
		<path d="M3.8,9.2v0.4c0,0.5-0.2,0.6-0.7,0.6H2.9c-0.5,0-0.8-0.1-0.8-0.7V8.8c0-0.6,0.2-0.7,0.6-0.7h0.5c0.3,0,0.5,0.1,0.5,0.5v0.2
			H3.5V8.6c0-0.2-0.1-0.3-0.4-0.3H2.8c-0.4,0-0.5,0.1-0.5,0.5v0.7c0,0.4,0.1,0.5,0.5,0.5H3c0.4,0,0.5,0,0.5-0.4V9.4H2.9V9.2H3.8z"/>
		<path d="M6.5,9.9c-0.1,0.3-0.4,0.3-0.8,0.3c-0.5,0-0.8,0-0.8-0.6C5,9.1,5.1,9.1,5.4,9C5.2,8.9,5.2,8.8,5.2,8.6
			c0-0.4,0.2-0.5,0.6-0.5c0.4,0,0.6,0.1,0.6,0.5v0.1H6.2V8.6c0-0.3,0-0.3-0.3-0.3c-0.2,0-0.4,0-0.4,0.3c0,0.1,0,0.2,0.1,0.3l0.8,0.7
			c0,0,0-0.1,0-0.1c0,0,0-0.1,0-0.1h0.2c0,0.1,0,0.1,0,0.2c0,0.1,0,0.2,0,0.3L6.9,10l-0.1,0.2L6.5,9.9z M5.5,9.1
			C5.2,9.2,5.2,9.2,5.2,9.6C5.2,10,5.3,10,5.7,10c0.2,0,0.5,0,0.6-0.2L5.5,9.1z"/>
		<path d="M8.2,9h1v0.2h-1V10h1.1v0.2H8v-2h1.3v0.2H8.2V9z"/>
		<path d="M11.3,10.2H11L9.8,8.3h0v1.8H9.6v-2H10l1.1,1.9h0V8.1h0.2V10.2z"/>
		<path d="M11.9,9h1v0.2h-1V10h1.1v0.2h-1.3v-2h1.3v0.2h-1.1V9z"/>
		<path d="M13.5,10.2h-0.2v-2h0.9c0.4,0,0.6,0.1,0.6,0.6c0,0.3,0,0.5-0.4,0.5v0c0.2,0,0.3,0.1,0.3,0.4v0.5h-0.2V9.7
			c0-0.3-0.1-0.4-0.3-0.4h-0.7V10.2z M14.2,9.2c0.4,0,0.4-0.1,0.4-0.5c0-0.3,0-0.4-0.4-0.4h-0.7v0.8H14.2z"/>
		<path d="M16.7,9.2v0.4c0,0.5-0.2,0.6-0.7,0.6h-0.2c-0.5,0-0.8-0.1-0.8-0.7V8.8c0-0.6,0.2-0.7,0.6-0.7h0.5c0.3,0,0.5,0.1,0.5,0.5
			v0.2h-0.2V8.6c0-0.2-0.1-0.3-0.4-0.3h-0.3c-0.4,0-0.5,0.1-0.5,0.5v0.7c0,0.4,0.1,0.5,0.5,0.5H16c0.4,0,0.5,0,0.5-0.4V9.4h-0.6V9.2
			H16.7z"/>
		<path d="M17.8,9.3v0.9h-0.2V9.3l-0.7-1.2h0.3l0.6,1l0.6-1h0.3L17.8,9.3z"/>
		<path d="M19.6,8.7c0-0.5,0.3-0.6,0.8-0.6c0.4,0,0.8,0,0.7,0.6h-0.2c0-0.4-0.1-0.4-0.5-0.4c-0.5,0-0.5,0.1-0.5,0.3
			C19.8,9.1,20,9,20.4,9c0.5,0,0.7,0,0.7,0.6c0,0.6-0.3,0.6-0.8,0.6c-0.5,0-0.8-0.1-0.7-0.7h0.2c0,0.4,0.1,0.4,0.5,0.4
			c0.4,0,0.6,0,0.6-0.4c0-0.4-0.2-0.3-0.5-0.4C19.9,9.2,19.6,9.2,19.6,8.7z"/>
		<path d="M22.3,8.1c0.5,0,0.7,0.2,0.7,0.7v0.7c0,0.5-0.2,0.7-0.7,0.7H22c-0.5,0-0.7-0.2-0.7-0.7V8.8c0-0.5,0.2-0.7,0.7-0.7H22.3z
			 M22,8.3c-0.3,0-0.4,0.1-0.4,0.5v0.7c0,0.4,0.1,0.5,0.4,0.5h0.3c0.3,0,0.4-0.1,0.4-0.5V8.8c0-0.4-0.1-0.5-0.4-0.5H22z"/>
		<path d="M23.5,10h1v0.2h-1.3v-2h0.2V10z"/>
		<path d="M26.4,8.1v1.5c0,0.5-0.3,0.6-0.8,0.6c-0.4,0-0.8,0-0.8-0.6V8.1H25v1.5c0,0.3,0.1,0.4,0.6,0.4c0.4,0,0.6,0,0.6-0.4V8.1
			H26.4z"/>
		<path d="M27.5,10.2h-0.2V8.3h-0.7V8.1h1.6v0.2h-0.7V10.2z"/>
		<path d="M28.5,10.2h-0.2v-2h0.2V10.2z"/>
		<path d="M29.8,8.1c0.5,0,0.7,0.2,0.7,0.7v0.7c0,0.5-0.2,0.7-0.7,0.7h-0.3c-0.5,0-0.7-0.2-0.7-0.7V8.8c0-0.5,0.2-0.7,0.7-0.7H29.8z
			 M29.5,8.3c-0.3,0-0.4,0.1-0.4,0.5v0.7c0,0.4,0.1,0.5,0.4,0.5h0.3c0.3,0,0.4-0.1,0.4-0.5V8.8c0-0.4-0.1-0.5-0.4-0.5H29.5z"/>
		<path d="M32.5,10.2h-0.4L31,8.3h0v1.8h-0.2v-2h0.4l1.1,1.9h0V8.1h0.2V10.2z"/>
		<path d="M32.8,8.7c0-0.5,0.3-0.6,0.8-0.6c0.4,0,0.8,0,0.7,0.6H34c0-0.4-0.1-0.4-0.5-0.4c-0.5,0-0.5,0.1-0.5,0.3
			C33,9.1,33.2,9,33.6,9c0.5,0,0.7,0,0.7,0.6c0,0.6-0.3,0.6-0.8,0.6c-0.5,0-0.8-0.1-0.7-0.7H33c0,0.4,0.1,0.4,0.5,0.4
			c0.4,0,0.6,0,0.6-0.4c0-0.4-0.2-0.3-0.5-0.4C33.1,9.2,32.8,9.2,32.8,8.7z"/>
	</g>
</g>
<g id="invista" class="st0">
	<g class="st1">
		<path class="st6" d="M48.4,4.5h-0.2v0.8H48V4.5h-0.3V4.4h0.7L48.4,4.5z M49.3,5.3V4.8c0,0,0-0.1,0-0.1h0c0,0,0,0.1-0.1,0.1
			l-0.2,0.3H49l-0.2-0.3c0,0-0.1-0.1-0.1-0.1h0c0,0.1,0,0.1,0,0.1v0.5h-0.2V4.4h0.2L49,4.7c0,0,0,0.1,0.1,0.1h0c0,0,0-0.1,0.1-0.1
			l0.2-0.4h0.2v0.9H49.3z"/>
		<path class="st7" d="M1.7,2.1C2.8,1,4,0.5,5.2,0.3C7,0.1,8.7,0.6,9.6,1.1c2,1.1,2.7,2.7,2.5,4.7c-0.2,2.2-1.7,4.3-3.8,5.9
			c-0.9,0.7-1.6,0.8-2.2,0.7C4.8,12.1,3.6,11,2.7,9.7C1.3,7.8,0.3,5.6,0.4,4.5C0.5,3.5,1,2.8,1.7,2.1z M4.5,1.4
			C2.3,2.2,0.4,3.6,0.8,5.2C1,6.3,1.9,7.9,3.2,9.4c1.3,1.5,2.8,2.7,4.1,2.5c1.6-0.2,3-3,3.5-5.8c0.4-2.2,0.1-4.4-1.5-5
			C8.2,0.7,6.1,0.9,4.5,1.4z"/>
		<path class="st8" d="M0.4,7.2c-0.1-1,0.2-1.9,0.7-2.7c0.8-1.3,2-2.1,3.2-2.5c2.2-0.7,3.8,0.4,4.6,2c0.6,1.3,0.9,3,0.7,4.5
			c-0.1,0.7-0.2,1.3-0.9,1.7c-0.9,0.6-2.2,0.6-3.5,0.4c-1.8-0.3-3.6-1.1-4-1.6C0.6,8.6,0.5,8,0.4,7.2z M1.6,5
			c-0.8,1.5-1.1,3.4,0,4.2c0.6,0.4,2.2,0.9,3.7,1c1.6,0.1,3.2-0.1,3.7-0.9c0.6-1,0-3-1.1-4.7C6.8,2.8,5.3,1.7,4,2.4
			C3.1,2.8,2.2,3.9,1.6,5z"/>
		<path class="st9" d="M6.5,8.4C6.2,8.1,5.9,7.7,5.7,7.3C5.3,6.4,5.4,5.2,6,4.3C6.8,3.1,8.1,2.8,9.2,3c1.6,0.3,3.1,1.4,3.8,2.3
			c0.2,0.2,0.3,0.5,0.3,0.7c0,0.8-0.8,1.5-1.8,2.2c-1,0.6-2.5,1.2-3.2,1.2C7.6,9.2,6.9,8.9,6.5,8.4z M6.2,6.8
			c0.4,1.4,1.5,2.4,2.5,2.2C9,9,10,8.6,11,8c1-0.6,2-1.5,1.9-2.4C12.8,4.8,11,4,9.3,3.7C7.8,3.5,6.3,3.7,6,4.7
			C5.9,5.3,6,6.1,6.2,6.8z"/>
		<rect x="17.6" y="2.7" class="st6" width="0.9" height="6.5"/>
		<path class="st6" d="M24.3,9.3l-2-2.6c-0.4-0.5-0.6-0.8-0.7-1h0c0,0.2,0,0.5,0,0.8v2.8h-0.9V4.4h0.9l1.8,2.4
			c0.4,0.6,0.6,0.8,0.8,1.1h0c0-0.2,0-0.5,0-0.8V4.4h0.9v4.8H24.3z"/>
		<path class="st6" d="M29.1,9.3h-0.6l-2-4.9h0.9l1,2.6c0.1,0.3,0.3,0.7,0.4,1h0c0.1-0.3,0.2-0.6,0.4-1l1.1-2.6h0.9L29.1,9.3z"/>
		<rect x="32.5" y="4.4" class="st6" width="0.9" height="4.8"/>
		<path class="st6" d="M36.8,9.4c-0.7,0-1.1-0.2-1.5-0.4l0.3-0.7c0.3,0.2,0.7,0.4,1.2,0.4c0.5,0,0.8-0.3,0.8-0.7
			c0-0.8-1.2-0.7-1.8-1.3c-0.3-0.3-0.4-0.5-0.4-1c0-0.7,0.6-1.3,1.5-1.3c0.5,0,1,0.1,1.2,0.3v0.8C37.8,5.2,37.4,5,37,5
			c-0.4,0-0.8,0.2-0.8,0.5c0,0.5,0.5,0.6,1,0.8c0.6,0.2,1.3,0.5,1.2,1.5C38.4,8.8,37.7,9.3,36.8,9.4z"/>
		<polygon class="st6" points="43.1,5.2 41.6,5.2 41.6,9.3 40.8,9.3 40.8,5.2 39.3,5.2 39.3,4.4 43.4,4.4 		"/>
		<path class="st6" d="M46.4,7.4h-1.3l0.4-1c0.1-0.3,0.2-0.5,0.2-0.7h0c0.1,0.2,0.1,0.4,0.3,0.7L46.4,7.4 M48,9.3l-2-4.8h-0.6
			l-2,4.8h0.9l0.4-1.1h1.8l0.4,1.1H48z"/>
	</g>
</g>
<g id="gp" class="st0">
	<g class="st1">
		<g>
			<path class="st10" d="M10.2,0.3L10.2,0.3L10.2,0.3l9.7,9.8c0,0-7.8,0-7.8,0c-0.4,0-0.6,0-0.9,0.2c-0.3,0.1-0.4,0.3-0.5,0.6
				c0,0-0.5,1.1-0.5,1.1s-0.5-1.1-0.5-1.1c-0.1-0.3-0.3-0.5-0.5-0.6c-0.2-0.1-0.5-0.2-0.9-0.2c0,0-7.8,0-7.8,0L10.2,0.3L10.2,0.3
				L10.2,0.3z"/>
			<path class="st11" d="M9.9,9.1c-0.5,0.2-1.1,0.3-2,0.3c-1.9,0-2.7-1-2.7-2.2c0-1.4,1.1-2.3,2.8-2.3c0.9,0,1.4,0.1,1.9,0.4v1H9.8
				C9.4,6,8.9,5.7,8.1,5.7c-1,0-1.6,0.5-1.6,1.4c0,0.8,0.4,1.5,1.6,1.4c0.1,0,0.3,0,0.5-0.1V7.7h-1V6.9h2.3V9.1z"/>
			<path class="st11" d="M14.1,5.3C13.7,5.1,13.3,5,12.8,5h-2.2v4.3h1.3V7.9h0.9c0.5,0,1-0.1,1.4-0.3c0.4-0.3,0.7-0.7,0.7-1.3
				C14.8,5.8,14.6,5.5,14.1,5.3z M13.4,6.5c0,0.3-0.2,0.5-0.3,0.6c-0.2,0.1-0.4,0.1-0.6,0.1h-0.6V5.8h0.6c0.2,0,0.5,0,0.6,0.1
				C13.3,6,13.4,6.1,13.4,6.5z"/>
			<g>
				<g>
					<g>
						<path d="M37.7,8.5c-0.2,0-0.3,0-0.4-0.1C37.1,8.2,37,8,37,7.6c0-0.6,0.3-0.9,0.7-0.9c0.2,0,0.4,0.1,0.5,0.1v1.4
							C38.1,8.4,37.9,8.5,37.7,8.5z M39.2,6.1h-1l0,0.2C38,6.1,37.7,6,37.4,6C36.7,6,36,6.5,36,7.7c0,1,0.5,1.6,1.4,1.6
							c0.4,0,0.6-0.1,0.8-0.3V9c0,0.1,0,0.2,0,0.3c-0.1,0.4-0.4,0.5-0.8,0.5c-0.3,0-0.7-0.1-0.9-0.2h-0.1v0.8
							c0.4,0.1,0.9,0.1,1.2,0.1c0.6,0,1.3-0.1,1.6-0.8c0.1-0.2,0.1-0.5,0.1-0.8V6.1z"/>
						<path d="M25.7,9.1c-0.3,0.2-0.9,0.3-1.6,0.3c-1.4,0-2.3-0.8-2.3-2.3c0-1.2,0.8-2.2,2.3-2.2c0.8,0,1.2,0.1,1.6,0.3v1h-0.1
							c-0.4-0.3-0.8-0.5-1.3-0.5c-0.9,0-1.3,0.7-1.3,1.4c0,0.8,0.3,1.4,1.3,1.4c0.1,0,0.3,0,0.4-0.1V7.8H24V6.9h1.7V9.1z"/>
						<path d="M32.2,7.7c0,0.6-0.2,1-0.7,1c-0.5,0-0.7-0.4-0.7-1c0-0.6,0.2-1,0.7-1C32,6.7,32.2,7.1,32.2,7.7z M33.2,7.7
							c0-1.1-0.7-1.7-1.7-1.7c-1,0-1.7,0.6-1.7,1.7c0,1.1,0.7,1.7,1.7,1.7C32.5,9.4,33.2,8.8,33.2,7.7z"/>
						<path d="M35.8,7.1L35.8,7.1C35.6,7,35.4,7,35.3,7c-0.3,0-0.5,0.1-0.6,0.2v2.1h-1V6.1h1v0.5c0.1-0.1,0.3-0.3,0.5-0.4
							c0.2-0.1,0.3-0.1,0.4-0.1c0.1,0,0.2,0,0.2,0V7.1z"/>
						<path d="M49.7,6.4c0-1-0.7-1.4-1.7-1.4h-1.7v2.1H45v0.8h1.3v1.4h1.1V7.9h0.6C49.2,7.9,49.7,7.2,49.7,6.4z M47.6,7.1h-0.3V5.8
							h0.4c0.5,0,0.8,0.1,0.8,0.6C48.6,7,48.1,7.1,47.6,7.1z"/>
						<path d="M55,9.4c-1.1,0-1.8-0.5-1.8-1.7C53.1,6.6,53.9,6,55,6c0.5,0,0.8,0.1,1.1,0.3v0.9h-0.1c-0.3-0.3-0.5-0.4-0.9-0.4
							c-0.5,0-0.8,0.4-0.8,1c0,0.7,0.3,1,0.8,1c0.4,0,0.6-0.2,0.9-0.4h0.1v0.9C55.7,9.3,55.4,9.4,55,9.4z"/>
						<path d="M57.6,9.3h-1V6.1h1V9.3z M57.6,5.6h-1V4.8h1V5.6z"/>
						<path d="M60.3,5.6h-0.1c-0.1-0.1-0.2-0.1-0.4-0.1c-0.1,0-0.2,0-0.3,0.1c-0.1,0.1-0.1,0.2-0.1,0.4v0.1h0.9v0.7h-0.9v2.5h-1V6.8
							h-0.5V6.1h0.5V5.9c0-0.4,0.1-0.6,0.3-0.8c0.2-0.2,0.5-0.3,0.9-0.3c0.3,0,0.6,0,0.7,0.1V5.6z"/>
						<path d="M63.9,9.4c-1.1,0-1.8-0.5-1.8-1.7c0-1.1,0.7-1.7,1.8-1.7c0.5,0,0.8,0.1,1.1,0.3v0.9h-0.1c-0.3-0.3-0.5-0.4-0.9-0.4
							c-0.5,0-0.8,0.4-0.8,1c0,0.7,0.3,1,0.8,1c0.4,0,0.6-0.2,0.9-0.4H65v0.9C64.6,9.3,64.3,9.4,63.9,9.4z"/>
						<path d="M61.7,9.3h-1V6.1h1V9.3z M61.7,5.6h-1V4.8h1V5.6z"/>
						<path d="M40.9,9.3h-1V6.1h1V9.3z M40.9,5.6h-1V4.8h1V5.6z"/>
						<path d="M29.4,7.8c0-0.4-0.1-0.8-0.3-1.2C28.9,6.3,28.5,6,27.9,6c-1.2,0-1.7,0.7-1.7,1.8c0,1.1,0.8,1.7,1.9,1.7
							c0.6,0,1-0.1,1.3-0.3V8.3h-0.1c-0.3,0.2-0.7,0.4-1.1,0.4c-0.7,0-1-0.4-1-0.7h2.3V7.8z M27.2,7.4c0-0.2,0-0.3,0.1-0.4
							c0.1-0.2,0.3-0.3,0.5-0.3c0.4,0,0.6,0.3,0.6,0.7H27.2z"/>
						<path d="M51.2,8.7c-0.3,0-0.5-0.1-0.5-0.4c0-0.3,0.3-0.4,0.7-0.5c0.2,0,0.3,0,0.4,0v0.7C51.6,8.6,51.4,8.7,51.2,8.7z
							 M51.8,9.3h1V7.1c0-0.4-0.1-0.7-0.4-0.9C52.1,6.1,51.8,6,51.2,6C51,6,50.4,6,50,6.1v0.8h0.1c0.3-0.1,0.6-0.3,0.9-0.3
							c0.2,0,0.4,0,0.6,0.1c0.2,0.1,0.2,0.2,0.2,0.4v0c-0.3,0-0.6,0-0.8,0.1c-0.9,0.1-1.3,0.5-1.3,1.1c0,0.6,0.5,1,1,1
							c0.5,0,0.8-0.1,1.1-0.4V9.3z"/>
						<path d="M42.9,8.7c-0.3,0-0.5-0.1-0.5-0.4c0-0.3,0.3-0.4,0.7-0.5c0.2,0,0.3,0,0.4,0v0.7C43.4,8.6,43.1,8.7,42.9,8.7z
							 M43.5,9.3h1V7.1c0-0.4-0.1-0.7-0.4-0.9C43.9,6.1,43.4,6,42.9,6C42.7,6,42,6,41.7,6.1v0.8h0.1c0.3-0.1,0.6-0.3,0.9-0.3
							c0.2,0,0.5,0,0.6,0.1c0.2,0.1,0.2,0.2,0.2,0.4v0c-0.3,0-0.6,0-0.8,0.1c-0.9,0.1-1.3,0.5-1.3,1.1c0,0.6,0.5,1,1,1
							c0.5,0,0.8-0.1,1.1-0.4V9.3z"/>
					</g>
				</g>
			</g>
		</g>
	</g>
</g>
<g id="fhr" class="st0">
	<path class="st12" d="M12.3,4.3v7.7h0v0.9c0,0.4,0.1,0.5,0.3,0.5c0.2,0,0.3-0.2,0.3-0.5v-1h0V4.3c0-0.4-0.1-0.5-0.3-0.5
		C12.5,3.8,12.3,3.9,12.3,4.3z"/>
	<path class="st1" d="M7.8,9.5h-3v0H4.4l0-5.2h1.2C5.9,4.3,6,4.2,6,4c0-0.1-0.1-0.3-0.3-0.3H4.4l0-0.5c0-1.2,0.1-1.9,0.4-2.2
		c0.2-0.2,0.5-0.3,1-0.4l0.4,0c0-0.1,0-0.2,0-0.3H4.3C3.7,0.3,3.2,0.5,2.8,1C2.4,1.4,2.1,2.2,2.1,3.3v0.2c0,0,0,0.1,0,0.1v0.2h-1
		C0.8,3.8,0.7,3.9,0.7,4c0,0.1,0.1,0.3,0.3,0.3h1v0v5.2H1c-0.3,0-0.4,0.1-0.4,0.3c0,0.2,0.1,0.3,0.4,0.3h1.1v2.8
		c0,1.2-0.1,1.9-0.3,2.2c-0.2,0.2-0.5,0.3-1.1,0.4l-0.4,0c0,0.1,0,0.2,0,0.3h1.9c0.6,0,1.1-0.2,1.5-0.7c0.4-0.5,0.7-1.2,0.7-2.3
		v-0.2c0,0,0-0.1,0-0.1l0-2.5h0.5v0h3c0.3,0,0.4-0.1,0.4-0.3C8.3,9.6,8.1,9.5,7.8,9.5z"/>
	<path class="st12" d="M9.2,5.6v7.3c0,1.1-0.3,1.8-0.7,2.3c-0.4,0.5-0.9,0.7-1.5,0.7H5.3c0-0.1-0.1-0.2,0-0.3l0.4,0
		c0.5-0.1,0.8-0.1,1.1-0.4c0.3-0.4,0.3-1,0.3-2.2V7.1c0-0.5,0.2-0.9,0.7-1.2C8.3,5.6,8.7,5.6,9.2,5.6z"/>
	<g class="st1">
		<path d="M14.7,8.7l0.2,0c0.3,0,0.3-0.1,0.3-0.9V4.9c0-0.8,0-0.9-0.3-0.9l-0.2,0V3.8h3.1c0.1,0.4,0.1,0.8,0.1,1.3l-0.2,0
			c-0.1-0.7-0.2-1-1.1-1H16v2.2h0.5c0.5,0,0.7,0,0.7-0.3l0-0.3h0.2v1.6h-0.2l0-0.3c-0.1-0.3-0.2-0.3-0.7-0.3H16v1.2
			c0,0.8,0,0.9,0.3,0.9l0.2,0v0.2h-1.9V8.7z"/>
		<path d="M18.2,8.7l0.2,0c0.3-0.1,0.3,0,0.3-0.9V4.9c0-0.8,0-0.8-0.3-0.9l-0.2,0V3.8h1.9V4l-0.2,0c-0.3,0.1-0.3,0.1-0.3,0.9v3.6
			c0.2,0.1,0.4,0.1,0.6,0.1c1,0,1-0.5,1.2-1.2l0.2,0.1c0,0.5-0.1,0.9-0.2,1.4h-3.2V8.7z"/>
		<path d="M23.3,7.8c0,0.8,0,0.9,0.3,0.9l0.2,0v0.2h-1.9V8.7l0.2,0c0.3-0.1,0.3-0.1,0.3-0.9V4.9c0-0.8,0-0.9-0.3-0.9l-0.2,0V3.8h1.9
			V4l-0.2,0c-0.3,0.1-0.3,0.1-0.3,0.9V7.8z"/>
		<path d="M24.1,8.7l0.2,0c0.3,0,0.3-0.3,0.3-1.4V3.8c0.1,0,0.3-0.1,0.3-0.1L28,7.5V5.4C28,4.1,27.9,4,27.6,4l-0.2,0V3.8h1.5V4
			l-0.2,0c-0.3,0-0.3,0.3-0.3,1.4v3.5c-0.1,0-0.3,0.1-0.4,0.1l-3-3.7v2.1c0,1.2,0.1,1.3,0.4,1.3l0.2,0v0.2h-1.5V8.7z"/>
		<path d="M30.4,4.1h-0.3c-0.8,0-0.8,0.2-1,1h-0.2c0-0.1,0.1-1.2,0.1-1.3h3.8c0,0.2,0.1,1.2,0.1,1.3h-0.2c-0.2-0.8-0.3-1-1-1h-0.3
			v3.7c0,0.8,0,0.8,0.4,0.9l0.2,0v0.2h-2.1V8.7l0.2,0c0.4-0.1,0.4-0.1,0.4-0.9V4.1z"/>
		<path d="M35.4,4.9c0-0.8,0-0.9-0.3-0.9l-0.2,0V3.8h1.9V4l-0.2,0c-0.3,0.1-0.3,0.1-0.3,0.9v1.1h2.1V4.9c0-0.8,0-0.9-0.3-0.9l-0.2,0
			V3.8h1.9V4l-0.2,0c-0.3,0.1-0.3,0.1-0.3,0.9v2.8c0,0.8,0,0.9,0.3,0.9l0.2,0v0.2h-1.9V8.7l0.2,0c0.3-0.1,0.3-0.1,0.3-0.9V6.4h-2.1
			v1.4c0,0.8,0,0.9,0.3,0.9l0.2,0v0.2h-1.9V8.7l0.2,0c0.3-0.1,0.3-0.1,0.3-0.9V4.9z"/>
		<path d="M41.7,7.8c0,0.8,0,0.9,0.3,0.9l0.2,0v0.2h-1.9V8.7l0.2,0c0.3-0.1,0.3-0.1,0.3-0.9V4.9c0-0.8,0-0.9-0.3-0.9l-0.2,0V3.8h1.9
			V4L42,4c-0.3,0.1-0.3,0.1-0.3,0.9V7.8z"/>
		<path d="M42.6,8.7l0.2,0C43,8.6,43,8.6,43,7.8V4.9c0-0.8,0-0.8-0.3-0.9l-0.2,0V3.8h1.9V4l-0.2,0c-0.3,0.1-0.3,0.1-0.3,0.9v3.6
			c0.2,0.1,0.4,0.1,0.6,0.1c1,0,1-0.5,1.2-1.2L46,7.5c0,0.5-0.1,0.9-0.2,1.4h-3.2V8.7z"/>
		<path d="M46,8.7l0.2,0c0.3-0.1,0.3,0,0.3-0.9V4.9c0-0.8,0-0.8-0.3-0.9L46,4V3.8h1.9V4l-0.2,0c-0.3,0.1-0.3,0.1-0.3,0.9v3.6
			c0.2,0.1,0.4,0.1,0.6,0.1c1,0,1-0.5,1.2-1.2l0.2,0.1c0,0.5-0.1,0.9-0.2,1.4H46V8.7z"/>
		<path d="M52.3,5.1c-0.1-0.4-0.2-1.2-1-1.2c-0.4,0-0.7,0.3-0.7,0.8c0,1.2,2.2,1.1,2.2,2.8C52.8,8.6,52,9,51.2,9
			c-0.6,0-1-0.2-1.2-0.3c-0.2-0.5-0.2-0.8-0.2-1.5l0.3-0.1c0.1,0.5,0.3,1.6,1.2,1.6c0.4,0,0.7-0.3,0.7-0.9c0-1.3-2.1-1.2-2.1-2.8
			c0-1,0.6-1.4,1.5-1.4c0.5,0,0.8,0.1,1.1,0.3c0.1,0.4,0.1,0.8,0.1,1.2H52.3z"/>
		<path d="M15.1,11.6c0.1-0.2,0.3-0.4,0.6-0.4c0.1,0,0.2,0,0.3,0v0.3c-0.1,0-0.2,0-0.3,0c-0.2,0-0.5,0.1-0.6,0.3
			c-0.1,0.1-0.1,0.3-0.1,0.4v0.9h-0.4v-2h0.4V11.6z"/>
		<path d="M18.7,12.3c0,0.5,0.3,0.7,0.7,0.7c0.2,0,0.4,0,0.5-0.2c0.1-0.1,0.1-0.1,0.1-0.2h0.4c0,0.2-0.1,0.3-0.3,0.4
			c-0.2,0.2-0.5,0.2-0.8,0.2c-0.7,0-1.1-0.3-1.1-1.1c0-0.3,0.1-0.5,0.3-0.7c0.3-0.2,0.6-0.3,0.9-0.3c0.4,0,0.8,0.2,0.9,0.5
			c0.1,0.2,0.1,0.4,0.1,0.6H18.7z M20.1,11.7c-0.1-0.2-0.3-0.3-0.6-0.3c-0.4,0-0.8,0.2-0.8,0.6h1.4C20.2,11.9,20.2,11.8,20.1,11.7z"
			/>
		<path d="M24.5,11.5c-0.1-0.1-0.3-0.1-0.4-0.1c-0.2,0-0.6,0-0.6,0.3c0,0.2,0.3,0.3,0.4,0.3l0.3,0c0.4,0.1,0.8,0.1,0.8,0.6
			c0,0.2-0.1,0.4-0.3,0.5c-0.2,0.1-0.5,0.1-0.7,0.1c-0.3,0-0.6,0-0.8-0.2c-0.1-0.1-0.1-0.3-0.2-0.4h0.4c0,0.1,0,0.2,0.1,0.2
			C23.7,13,23.9,13,24,13c0.2,0,0.6,0,0.6-0.3c0-0.3-0.3-0.3-0.5-0.3l-0.3,0c-0.3-0.1-0.8-0.1-0.8-0.6c0-0.2,0.1-0.4,0.3-0.5
			c0.2-0.1,0.4-0.1,0.7-0.1c0.2,0,0.5,0,0.7,0.2c0.1,0.1,0.2,0.3,0.2,0.4h-0.4C24.6,11.6,24.6,11.6,24.5,11.5z"/>
		<path d="M29.7,11.4c0.2,0.2,0.3,0.5,0.3,0.8c0,0.3-0.1,0.6-0.3,0.8c-0.3,0.2-0.6,0.3-0.9,0.3c-0.3,0-0.7-0.1-0.9-0.3
			c-0.2-0.2-0.3-0.5-0.3-0.8c0-0.3,0.1-0.6,0.3-0.8c0.2-0.2,0.6-0.3,0.9-0.3C29.1,11.1,29.5,11.2,29.7,11.4z M27.9,12.2
			c0,0.5,0.4,0.8,0.9,0.8c0.5,0,0.9-0.3,0.9-0.8c0-0.5-0.4-0.8-0.9-0.8C28.3,11.4,27.9,11.7,27.9,12.2z"/>
		<path d="M34.7,13.2h-0.3v-0.4c-0.1,0.1-0.1,0.2-0.2,0.2c-0.2,0.1-0.4,0.2-0.6,0.2c-0.3,0-0.6-0.1-0.8-0.4
			c-0.1-0.2-0.1-0.4-0.1-0.6v-1H33v1.1c0,0.2,0,0.4,0.1,0.5c0.1,0.1,0.3,0.2,0.5,0.2c0.2,0,0.4-0.1,0.5-0.2c0.2-0.2,0.2-0.5,0.2-0.8
			v-0.8h0.3V13.2z"/>
		<path d="M37.9,11.6c0.1-0.2,0.3-0.4,0.6-0.4c0.1,0,0.2,0,0.3,0v0.3c-0.1,0-0.2,0-0.3,0c-0.2,0-0.5,0.1-0.6,0.3
			c-0.1,0.1-0.1,0.3-0.1,0.4v0.9h-0.4v-2h0.4V11.6z"/>
		<path d="M43,11.8c0-0.3-0.3-0.5-0.6-0.5c-0.5,0-0.8,0.3-0.8,0.8c0,0.5,0.3,0.8,0.8,0.8c0.3,0,0.6-0.1,0.6-0.5l0.4,0
			c0,0.1-0.1,0.3-0.2,0.4c-0.2,0.2-0.5,0.3-0.8,0.3c-0.6,0-1.1-0.4-1.1-1.1c0-0.7,0.5-1.1,1.1-1.1c0.3,0,0.6,0.1,0.8,0.3
			c0.1,0.1,0.1,0.3,0.2,0.4L43,11.8z"/>
		<path d="M46.3,12.3c0,0.5,0.3,0.7,0.7,0.7c0.2,0,0.4,0,0.5-0.2c0.1-0.1,0.1-0.1,0.1-0.2h0.4c0,0.2-0.1,0.3-0.3,0.4
			c-0.2,0.2-0.5,0.2-0.8,0.2c-0.7,0-1.1-0.3-1.1-1.1c0-0.3,0.1-0.5,0.3-0.7c0.3-0.2,0.6-0.3,0.9-0.3c0.4,0,0.8,0.2,0.9,0.5
			c0.1,0.2,0.1,0.4,0.1,0.6H46.3z M47.6,11.7c-0.1-0.2-0.3-0.3-0.6-0.3c-0.4,0-0.8,0.2-0.8,0.6h1.4C47.7,11.9,47.7,11.8,47.6,11.7z"
			/>
		<path d="M52.1,11.5c-0.1-0.1-0.3-0.1-0.4-0.1c-0.2,0-0.6,0-0.6,0.3c0,0.2,0.3,0.3,0.4,0.3l0.3,0c0.4,0.1,0.8,0.1,0.8,0.6
			c0,0.2-0.1,0.4-0.3,0.5c-0.2,0.1-0.5,0.1-0.7,0.1c-0.3,0-0.6,0-0.8-0.2c-0.1-0.1-0.1-0.3-0.2-0.4H51c0,0.1,0,0.2,0.1,0.2
			c0.1,0.1,0.3,0.2,0.5,0.2c0.2,0,0.6,0,0.6-0.3c0-0.3-0.3-0.3-0.5-0.3l-0.3,0c-0.3-0.1-0.8-0.1-0.8-0.6c0-0.2,0.1-0.4,0.3-0.5
			c0.2-0.1,0.4-0.1,0.7-0.1c0.2,0,0.5,0,0.7,0.2c0.1,0.1,0.2,0.3,0.2,0.4h-0.4C52.1,11.6,52.1,11.6,52.1,11.5z"/>
	</g>
	<g class="st1">
		<g>
			<path d="M54.7,11.1c0.3,0,0.6,0.3,0.6,0.6c0,0.4-0.3,0.6-0.6,0.6c-0.3,0-0.6-0.3-0.6-0.6C54.1,11.4,54.4,11.1,54.7,11.1
				L54.7,11.1z M54.7,11.2c-0.3,0-0.5,0.2-0.5,0.5c0,0.3,0.2,0.5,0.5,0.5c0.3,0,0.5-0.2,0.5-0.5C55.2,11.4,55,11.2,54.7,11.2
				L54.7,11.2z M54.6,12.1h-0.1v-0.7c0.1,0,0.1,0,0.2,0c0.1,0,0.2,0,0.2,0.1c0,0,0.1,0.1,0.1,0.1c0,0.1-0.1,0.1-0.1,0.2v0
				c0.1,0,0.1,0.1,0.1,0.2c0,0.1,0,0.1,0,0.2h-0.1c0,0,0-0.1,0-0.2c0-0.1-0.1-0.1-0.1-0.1h-0.1V12.1z M54.6,11.7L54.6,11.7
				c0.2,0,0.2,0,0.2-0.1c0-0.1,0-0.1-0.2-0.1c0,0-0.1,0-0.1,0V11.7z"/>
		</g>
	</g>
</g>
<g id="matador" class="st0">
	<g class="st1">
		<path class="st13" d="M2.2,2.9v5c0,0.4,0,0.8,0,1c0,0.2,0.1,0.3,0.1,0.4c0,0,0.1,0.1,0.2,0.1C2.8,9.5,3,9.7,3,9.9
			c0,0.2,0,0.3-0.1,0.4c-0.1,0.1-0.2,0.1-0.3,0.1H1.1c-0.2,0-0.3,0-0.3-0.1c-0.1-0.1-0.1-0.2-0.1-0.3c0-0.2,0.1-0.4,0.3-0.5
			c0.1,0,0.1-0.1,0.1-0.1c0.1-0.1,0.1-0.2,0.1-0.4c0-0.2,0-0.7,0-1.4v-5c0-0.3,0-0.5,0-0.5c0-0.1-0.1-0.1-0.1-0.2c0,0-0.1,0-0.1-0.1
			C0.8,1.6,0.7,1.4,0.7,1.2c0-0.2,0-0.3,0.1-0.4c0.1-0.1,0.2-0.1,0.5-0.1h1.5c0.2,0,0.4,0,0.4,0.1c0.1,0.1,0.2,0.4,0.3,0.8l1.1,4.2
			l1.2-4.3C5.8,1.1,5.9,0.9,6,0.8C6,0.7,6.1,0.6,6.3,0.6h1.5c0.2,0,0.3,0,0.4,0.1C8.2,0.9,8.3,1,8.3,1.2c0,0.2-0.1,0.4-0.3,0.5
			c0,0-0.1,0-0.1,0C7.8,1.8,7.8,1.9,7.7,2c0,0.1,0,0.2,0,0.4v6c0,0.3,0,0.6,0.1,0.7c0,0.1,0.1,0.3,0.2,0.3c0,0,0,0,0.1,0
			C8.2,9.6,8.3,9.8,8.3,10c0,0.2,0,0.3-0.1,0.4c-0.1,0.1-0.2,0.1-0.4,0.1H6c-0.1,0-0.2,0-0.3-0.1c-0.1-0.1-0.1-0.2-0.1-0.3
			c0-0.2,0.1-0.4,0.3-0.5c0.1,0,0.1-0.1,0.1-0.1C6,9.4,6,9.3,6.1,9.1c0-0.1,0-0.3,0-0.6V3.1L4.7,8.5C4.6,8.8,4.5,9,4.4,9.1
			C4.4,9.2,4.3,9.3,4.2,9.3C4,9.3,4,9.2,3.9,9.1C3.8,9,3.7,8.7,3.6,8.4L2.2,2.9z"/>
		<path class="st13" d="M10.1,7.8C10,8.3,9.9,8.7,9.9,8.9c0,0.2-0.1,0.4-0.1,0.5c0,0.1,0,0.2,0.1,0.3c0,0,0,0,0,0
			c0.1,0.1,0.1,0.2,0.2,0.2c0,0.1,0,0.1,0,0.2c0,0.1,0,0.2-0.1,0.2c0,0.1-0.1,0.1-0.1,0.1H8.9c-0.1,0-0.2,0-0.2-0.1
			c0-0.1-0.1-0.1-0.1-0.2c0-0.1,0-0.2,0.1-0.3c0.1-0.1,0.2-0.2,0.2-0.2c0-0.1,0.1-0.5,0.3-1.2c0.2-0.8,0.3-1.4,0.5-2
			c0.2-0.7,0.3-1.4,0.5-2c0.2-0.6,0.3-1.1,0.5-1.4l0-0.1C10.9,2.3,11.1,2,11.4,2c0.2,0,0.3,0,0.3,0.1c0.1,0.1,0.2,0.2,0.2,0.3
			c0.1,0.2,0.3,0.7,0.5,1.4c0.2,0.7,0.4,1.5,0.7,2.4c0.2,0.7,0.4,1.5,0.5,2.2c0.2,0.7,0.2,1.1,0.2,1.1c0,0,0.1,0.1,0.2,0.2
			c0.1,0.1,0.1,0.2,0.1,0.4c0,0.1,0,0.2-0.1,0.3c-0.1,0.1-0.1,0.1-0.3,0.1h-1.4c-0.1,0-0.2,0-0.2-0.1c0-0.1-0.1-0.1-0.1-0.3
			c0-0.1,0-0.3,0.1-0.4c0.1-0.1,0.1-0.2,0.1-0.3c0-0.1,0-0.3-0.1-0.6c-0.1-0.3-0.1-0.6-0.2-1H10.1z M10.3,6.8h1.5
			c-0.1-0.6-0.3-1.2-0.4-1.7c-0.1-0.5-0.2-0.9-0.3-1.1c-0.1,0.4-0.3,0.9-0.4,1.3C10.6,5.8,10.5,6.3,10.3,6.8z"/>
		<path class="st13" d="M16.7,9c0,0.2,0,0.4,0,0.5c0,0.1,0,0.1,0.1,0.2c0,0,0.1,0,0.1,0.1c0.1,0.1,0.2,0.3,0.2,0.4
			c0,0.1,0,0.2-0.1,0.2c-0.1,0.1-0.1,0.1-0.3,0.1h-1.4c-0.1,0-0.2,0-0.3-0.1C15,10.3,15,10.2,15,10.1c0-0.1,0.1-0.3,0.2-0.4
			c0,0,0.1-0.1,0.1-0.1c0,0,0.1-0.1,0.1-0.2c0-0.1,0-0.2,0-0.4V3.2h-0.3c-0.2,0-0.3,0-0.4,0.1c-0.1,0.1-0.3,0.3-0.4,0.6c0,0,0,0,0,0
			c-0.1,0.2-0.2,0.3-0.3,0.3c-0.1,0-0.1,0-0.2-0.1c0-0.1-0.1-0.2-0.1-0.3c0-0.1,0-0.1,0-0.1c0,0,0-0.1,0-0.1l0.1-0.9
			c0-0.2,0.1-0.3,0.1-0.4c0.1-0.1,0.1-0.1,0.3-0.1h3.7c0.1,0,0.2,0,0.3,0.1c0.1,0.1,0.1,0.2,0.1,0.4l0.1,0.9c0,0,0,0.1,0,0.1
			c0,0,0,0.1,0,0.1c0,0.1,0,0.2-0.1,0.3c0,0.1-0.1,0.1-0.2,0.1c-0.1,0-0.2-0.1-0.3-0.3c0,0,0,0,0-0.1c-0.2-0.3-0.3-0.4-0.4-0.5
			c-0.1-0.1-0.3-0.1-0.4-0.1h-0.3V9z"/>
		<path class="st13" d="M19.4,7.8c-0.1,0.5-0.2,0.9-0.2,1.1c0,0.2-0.1,0.4-0.1,0.5c0,0.1,0,0.2,0.1,0.3c0,0,0,0,0,0
			c0.1,0.1,0.1,0.2,0.2,0.2c0,0.1,0,0.1,0,0.2c0,0.1,0,0.2-0.1,0.2c0,0.1-0.1,0.1-0.1,0.1h-1.1c-0.1,0-0.2,0-0.2-0.1
			c0-0.1-0.1-0.1-0.1-0.2c0-0.1,0-0.2,0.1-0.3c0.1-0.1,0.2-0.2,0.2-0.2c0-0.1,0.1-0.5,0.3-1.2c0.2-0.8,0.3-1.4,0.5-2
			c0.2-0.7,0.3-1.4,0.5-2c0.2-0.6,0.3-1.1,0.5-1.4l0-0.1C20.2,2.3,20.4,2,20.6,2c0.2,0,0.3,0,0.3,0.1c0.1,0.1,0.2,0.2,0.2,0.3
			c0.1,0.2,0.3,0.7,0.5,1.4c0.2,0.7,0.4,1.5,0.7,2.4c0.2,0.7,0.4,1.5,0.5,2.2c0.2,0.7,0.2,1.1,0.2,1.1c0,0,0.1,0.1,0.2,0.2
			c0.1,0.1,0.1,0.2,0.1,0.4c0,0.1,0,0.2-0.1,0.3c-0.1,0.1-0.1,0.1-0.3,0.1h-1.4c-0.1,0-0.2,0-0.2-0.1c0-0.1-0.1-0.1-0.1-0.3
			c0-0.1,0-0.3,0.1-0.4c0.1-0.1,0.1-0.2,0.1-0.3c0-0.1,0-0.3-0.1-0.6c-0.1-0.3-0.1-0.6-0.2-1H19.4z M19.6,6.8h1.5
			c-0.1-0.6-0.3-1.2-0.4-1.7c-0.1-0.5-0.2-0.9-0.3-1.1c-0.1,0.4-0.3,0.9-0.4,1.3C19.8,5.8,19.7,6.3,19.6,6.8z"/>
		<path class="st13" d="M24.2,9.1V3.8c0-0.2,0-0.3,0-0.4c0-0.1-0.1-0.1-0.1-0.2c0,0-0.1-0.1-0.1-0.1c-0.1-0.1-0.2-0.2-0.2-0.4
			c0-0.2,0.1-0.3,0.3-0.4c0.2-0.1,0.7-0.1,1.4-0.1c0.6,0,1,0,1.4,0.1c0.4,0.1,0.7,0.2,1,0.4C28.3,3,28.7,3.5,29,4.1
			c0.3,0.6,0.4,1.4,0.4,2.2c0,0.6-0.1,1.2-0.3,1.8c-0.2,0.6-0.4,1-0.7,1.4c-0.3,0.3-0.6,0.6-0.9,0.7c-0.3,0.1-0.8,0.2-1.3,0.2h-2
			c-0.1,0-0.2,0-0.3-0.1c-0.1-0.1-0.1-0.2-0.1-0.3c0-0.2,0.1-0.3,0.2-0.4c0,0,0.1,0,0.1,0c0,0,0.1-0.1,0.1-0.1
			C24.2,9.4,24.2,9.2,24.2,9.1z M25.6,9c0,0.2,0,0.4,0.1,0.5c0.1,0.1,0.2,0.1,0.3,0.1c0.6,0,1-0.3,1.4-0.9c0.4-0.6,0.5-1.4,0.5-2.3
			c0-1-0.2-1.8-0.5-2.4C27,3.4,26.6,3.1,26,3.1c-0.2,0-0.3,0-0.3,0.1c-0.1,0.1-0.1,0.2-0.1,0.5V9z"/>
		<path class="st13" d="M30,6.3c0-0.7,0.1-1.3,0.2-1.8c0.2-0.5,0.4-1,0.7-1.4c0.3-0.3,0.6-0.6,0.9-0.8C32.1,2.1,32.5,2,32.9,2
			c0.4,0,0.8,0.1,1.1,0.3c0.3,0.2,0.6,0.5,0.9,0.8c0.3,0.4,0.5,0.9,0.7,1.4c0.1,0.5,0.2,1.1,0.2,1.8c0,0.7-0.1,1.3-0.2,1.8
			c-0.1,0.5-0.4,1-0.7,1.4c-0.3,0.4-0.6,0.6-0.9,0.8c-0.3,0.2-0.7,0.3-1.1,0.3c-0.4,0-0.7-0.1-1.1-0.3c-0.3-0.2-0.6-0.5-0.9-0.8
			c-0.3-0.4-0.6-0.9-0.7-1.4C30,7.6,30,7,30,6.3z M31.4,6.3c0,1.1,0.1,2,0.4,2.6c0.3,0.6,0.6,0.9,1.1,0.9c0.5,0,0.9-0.3,1.1-0.9
			c0.3-0.6,0.4-1.5,0.4-2.7c0-1.1-0.1-1.9-0.4-2.5c-0.3-0.6-0.6-0.9-1.1-0.9c-0.5,0-0.9,0.3-1.1,0.9C31.5,4.4,31.4,5.2,31.4,6.3z"/>
		<path class="st13" d="M39.4,2.2c0.6,0,1.1,0.2,1.4,0.5c0.3,0.3,0.5,0.8,0.5,1.5c0,0.5-0.1,0.9-0.3,1.2c-0.2,0.3-0.4,0.6-0.8,0.8
			c0.3,0.7,0.5,1.5,0.7,2.2c0.2,0.8,0.3,1.1,0.3,1.1c0,0,0.1,0.1,0.2,0.2c0.1,0.1,0.2,0.2,0.2,0.4c0,0.1,0,0.2-0.1,0.3
			c0,0.1-0.1,0.1-0.3,0.1h-1.5c-0.1,0-0.2,0-0.2-0.1c-0.1-0.1-0.1-0.1-0.1-0.2c0-0.1,0-0.2,0-0.2c0-0.1,0.1-0.1,0.1-0.2c0,0,0,0,0,0
			c0.1,0,0.1-0.1,0.1-0.3c0-0.2-0.1-0.6-0.2-1.1c-0.1-0.5-0.3-1-0.6-1.6c-0.1,0-0.3,0.1-0.4,0.1c-0.2,0-0.3,0-0.5,0l0,2.4
			c0,0.1,0,0.2,0,0.2c0,0,0.1,0.1,0.2,0.1c0.1,0,0.1,0.1,0.2,0.1c0,0.1,0,0.1,0,0.2c0,0.1,0,0.2-0.1,0.3c0,0-0.1,0.1-0.3,0.1h-1.5
			c-0.1,0-0.2,0-0.2-0.1c-0.1-0.1-0.1-0.1-0.1-0.3c0-0.1,0-0.2,0-0.2c0-0.1,0.1-0.1,0.2-0.2c0.1-0.1,0.1-0.1,0.2-0.2
			c0-0.1,0-0.3,0-0.5V3.6c0-0.2,0-0.4,0-0.4c0-0.1-0.1-0.1-0.2-0.2c-0.1-0.1-0.1-0.1-0.2-0.2c0-0.1,0-0.1,0-0.2c0-0.1,0-0.2,0.1-0.3
			c0.1-0.1,0.1-0.1,0.2-0.1H39.4z M38.1,5.9c0.6,0,1.1-0.2,1.4-0.5C39.8,5.2,40,4.8,40,4.3c0-0.4-0.1-0.7-0.3-0.9
			C39.5,3.1,39.2,3,38.8,3c-0.3,0-0.5,0-0.6,0.1c-0.1,0.1-0.1,0.3-0.1,0.5L38.1,5.9z"/>
		<g>
			<path class="st13" d="M0.4,15.1c0-0.3,0-0.6,0.1-0.9c0.1-0.3,0.1-0.6,0.3-0.8c0.2-0.4,0.4-0.7,0.7-0.9c0.3-0.2,0.6-0.3,0.9-0.3
				c0.2,0,0.5,0,0.7,0.1c0.2,0.1,0.4,0.2,0.6,0.4c0.1,0.1,0.1,0.1,0.1,0.3c0,0.1,0,0.4,0,0.7c0,0.1,0,0.2,0,0.3
				C3.7,14,3.6,14,3.6,14c-0.1,0-0.2-0.1-0.2-0.3c0-0.1,0-0.1,0-0.1C3.3,13.4,3.1,13.2,3,13c-0.2-0.2-0.4-0.2-0.6-0.2
				c-0.3,0-0.6,0.2-0.8,0.6c-0.2,0.4-0.3,1-0.3,1.6c0,0.7,0.1,1.2,0.3,1.6c0.2,0.4,0.5,0.6,0.8,0.6c0.2,0,0.3,0,0.4-0.1
				c0.1-0.1,0.3-0.2,0.4-0.4c0,0,0.1-0.1,0.1-0.1c0.1-0.2,0.2-0.2,0.2-0.2c0,0,0.1,0,0.1,0.1c0,0.1,0,0.1,0,0.2c0,0.1,0,0.1,0,0.2
				c0,0.1-0.1,0.2-0.1,0.3c-0.2,0.3-0.4,0.5-0.6,0.6c-0.2,0.1-0.5,0.2-0.8,0.2c-0.2,0-0.4,0-0.6-0.1c-0.2-0.1-0.4-0.2-0.5-0.4
				c-0.2-0.3-0.4-0.6-0.6-1C0.4,16.1,0.4,15.6,0.4,15.1z"/>
			<path class="st13" d="M4.9,16.3c-0.1,0.3-0.1,0.5-0.1,0.6c0,0.1,0,0.2,0,0.3c0,0.1,0,0.1,0.1,0.1c0,0,0,0,0,0
				c0,0,0.1,0.1,0.1,0.1c0,0,0,0.1,0,0.1c0,0.1,0,0.1,0,0.1c0,0,0,0.1-0.1,0.1H4.2c0,0-0.1,0-0.1,0c0,0,0-0.1,0-0.1
				c0-0.1,0-0.1,0.1-0.2c0.1-0.1,0.1-0.1,0.1-0.1c0,0,0.1-0.3,0.2-0.7c0.1-0.4,0.2-0.8,0.3-1.1c0.1-0.4,0.2-0.8,0.3-1.1
				c0.1-0.3,0.2-0.6,0.3-0.8l0,0c0.1-0.3,0.2-0.5,0.4-0.5c0.1,0,0.1,0,0.2,0c0,0,0.1,0.1,0.1,0.2c0.1,0.1,0.1,0.4,0.3,0.8
				c0.1,0.4,0.2,0.8,0.4,1.3c0.1,0.4,0.2,0.8,0.3,1.2C6.9,17,7,17.3,7,17.3c0,0,0,0.1,0.1,0.1c0.1,0.1,0.1,0.1,0.1,0.2
				c0,0.1,0,0.1,0,0.1c0,0-0.1,0-0.1,0H6.2c-0.1,0-0.1,0-0.1-0.1c0,0,0-0.1,0-0.1c0-0.1,0-0.1,0.1-0.2c0.1-0.1,0.1-0.1,0.1-0.2
				c0-0.1,0-0.2,0-0.3c0-0.2-0.1-0.4-0.1-0.6H4.9z M5,15.7h0.8c-0.1-0.4-0.2-0.7-0.2-0.9c-0.1-0.3-0.1-0.5-0.2-0.6
				c-0.1,0.2-0.1,0.5-0.2,0.7C5.2,15.2,5.1,15.4,5,15.7z"/>
			<path class="st13" d="M8.6,17c0,0.1,0,0.2,0,0.3c0,0,0,0.1,0,0.1c0,0,0,0,0,0c0.1,0.1,0.1,0.1,0.1,0.2c0,0.1,0,0.1,0,0.1
				c0,0-0.1,0-0.1,0H7.8c-0.1,0-0.1,0-0.1,0c0,0,0-0.1,0-0.1c0-0.1,0-0.2,0.1-0.2c0,0,0,0,0,0c0,0,0-0.1,0-0.1c0,0,0-0.1,0-0.2v-3.3
				H7.7c-0.1,0-0.2,0-0.2,0.1c-0.1,0.1-0.1,0.2-0.2,0.3c0,0,0,0,0,0c-0.1,0.1-0.1,0.2-0.2,0.2c0,0-0.1,0-0.1-0.1c0,0,0-0.1,0-0.2
				c0,0,0-0.1,0-0.1c0,0,0,0,0,0L7,13.5c0-0.1,0-0.2,0.1-0.2c0,0,0.1-0.1,0.1-0.1h2.1c0.1,0,0.1,0,0.1,0.1c0,0,0.1,0.1,0.1,0.2
				L9.6,14c0,0,0,0,0,0c0,0,0,0,0,0.1c0,0.1,0,0.1,0,0.2c0,0-0.1,0.1-0.1,0.1c-0.1,0-0.1-0.1-0.2-0.2c0,0,0,0,0,0
				c-0.1-0.2-0.2-0.3-0.2-0.3c-0.1-0.1-0.1-0.1-0.2-0.1H8.6V17z"/>
			<path class="st13" d="M11.2,17c0,0.1,0,0.2,0,0.3c0,0,0,0.1,0,0.1c0,0,0,0,0,0c0.1,0.1,0.1,0.1,0.1,0.2c0,0.1,0,0.1,0,0.1
				c0,0-0.1,0-0.1,0h-0.8c-0.1,0-0.1,0-0.1,0c0,0,0-0.1,0-0.1c0-0.1,0-0.2,0.1-0.2c0,0,0,0,0,0c0,0,0-0.1,0-0.1c0,0,0-0.1,0-0.2
				v-3.3h-0.2c-0.1,0-0.2,0-0.2,0.1c-0.1,0.1-0.1,0.2-0.2,0.3c0,0,0,0,0,0c-0.1,0.1-0.1,0.2-0.2,0.2c0,0-0.1,0-0.1-0.1
				c0,0,0-0.1,0-0.2c0,0,0-0.1,0-0.1c0,0,0,0,0,0l0.1-0.5c0-0.1,0-0.2,0.1-0.2c0,0,0.1-0.1,0.1-0.1h2.1c0.1,0,0.1,0,0.1,0.1
				c0,0,0.1,0.1,0.1,0.2l0.1,0.5c0,0,0,0,0,0c0,0,0,0,0,0.1c0,0.1,0,0.1,0,0.2c0,0-0.1,0.1-0.1,0.1c-0.1,0-0.1-0.1-0.2-0.2
				c0,0,0,0,0,0c-0.1-0.2-0.2-0.3-0.2-0.3c-0.1-0.1-0.1-0.1-0.2-0.1h-0.2V17z"/>
			<path class="st13" d="M12.5,17.8c-0.1,0-0.1,0-0.1,0c0,0,0-0.1,0-0.1c0-0.1,0-0.2,0.1-0.2c0,0,0,0,0,0c0,0,0.1-0.1,0.1-0.1
				c0,0,0-0.1,0-0.2v-3.3c0,0,0-0.1,0-0.1c0,0,0,0,0-0.1c0,0,0,0,0,0c-0.1-0.1-0.1-0.1-0.1-0.2c0-0.1,0-0.1,0.1-0.2
				c0,0,0.1-0.1,0.2-0.1h0.9c0.1,0,0.1,0,0.1,0.1c0,0,0,0.1,0,0.2c0,0.1,0,0.2-0.1,0.2c0,0,0,0,0,0c0,0-0.1,0.1-0.1,0.1
				c0,0,0,0.1,0,0.2v3c0,0.1,0,0.2,0.1,0.3c0,0,0.1,0.1,0.3,0.1c0.2,0,0.3,0,0.4-0.1c0.1,0,0.2-0.1,0.2-0.2c0,0,0.1-0.1,0.1-0.2
				c0.1-0.1,0.1-0.2,0.2-0.2c0,0,0.1,0,0.1,0.1c0,0,0,0.1,0,0.2c0,0.1,0,0.1,0,0.2c0,0.1,0,0.2-0.1,0.3c0,0.1-0.1,0.2-0.1,0.3
				c0,0-0.1,0.1-0.1,0.1H12.5z"/>
			<path class="st13" d="M16.6,17.3c0.2,0,0.3,0,0.4,0c0.1,0,0.1-0.1,0.2-0.2c0,0,0-0.1,0.1-0.1c0.1-0.1,0.1-0.2,0.2-0.2
				c0,0,0.1,0,0.1,0.1c0,0,0,0.1,0,0.2c0,0.3,0,0.6-0.1,0.7c0,0.1-0.1,0.1-0.3,0.1h-2.2c0,0-0.1,0-0.1,0c0,0,0-0.1,0-0.1
				c0,0,0-0.1,0-0.1c0,0,0-0.1,0.1-0.1c0,0,0.1-0.1,0.1-0.1c0,0,0-0.1,0-0.1v0v-3.3c0-0.1,0-0.1,0-0.1c0,0,0-0.1-0.1-0.1
				c0,0,0,0,0,0C15,13.5,15,13.4,15,13.4c0-0.1,0-0.1,0-0.2c0,0,0.1,0,0.1,0H17c0.2,0,0.3,0,0.3,0.1c0,0.1,0.1,0.3,0.1,0.6
				c0,0.1,0,0.1,0,0.2c0,0,0,0.1-0.1,0.1c-0.1,0-0.1-0.1-0.2-0.2c0-0.1-0.1-0.1-0.1-0.1c-0.1-0.1-0.1-0.1-0.2-0.1
				c-0.1,0-0.2,0-0.4,0h-0.3c-0.1,0-0.1,0-0.2,0.1c0,0.1,0,0.2,0,0.4V15h0.7c0,0,0.1,0,0.1,0c0,0,0.1,0,0.1,0c0,0,0,0,0,0
				c0.1-0.1,0.1-0.1,0.1-0.1c0,0,0.1,0,0.1,0.1c0,0,0,0.1,0,0.2v0.4c0,0.1,0,0.2,0,0.2c0,0-0.1,0.1-0.1,0.1c0,0-0.1,0-0.1-0.1
				c-0.1-0.1-0.2-0.1-0.2-0.1h-0.7V17c0,0.1,0,0.2,0,0.2c0,0,0.1,0,0.2,0H16.6z"/>
			<path class="st13" d="M19.2,15.1c0-0.3,0-0.6,0.1-0.9c0.1-0.3,0.1-0.6,0.3-0.8c0.2-0.4,0.4-0.7,0.7-0.9c0.3-0.2,0.6-0.3,0.9-0.3
				c0.2,0,0.5,0,0.7,0.1c0.2,0.1,0.4,0.2,0.6,0.4c0.1,0.1,0.1,0.1,0.1,0.3c0,0.1,0,0.4,0,0.7c0,0.1,0,0.2,0,0.3
				c0,0.1-0.1,0.1-0.1,0.1c-0.1,0-0.2-0.1-0.2-0.3c0-0.1,0-0.1,0-0.1c-0.1-0.3-0.2-0.5-0.4-0.6c-0.2-0.2-0.4-0.2-0.6-0.2
				c-0.3,0-0.6,0.2-0.8,0.6c-0.2,0.4-0.3,1-0.3,1.6c0,0.7,0.1,1.2,0.3,1.6c0.2,0.4,0.5,0.6,0.8,0.6c0.2,0,0.3,0,0.4-0.1
				c0.1-0.1,0.3-0.2,0.4-0.4c0,0,0.1-0.1,0.1-0.1c0.1-0.2,0.2-0.2,0.2-0.2c0,0,0.1,0,0.1,0.1c0,0.1,0,0.1,0,0.2c0,0.1,0,0.1,0,0.2
				c0,0.1-0.1,0.2-0.1,0.3c-0.2,0.3-0.4,0.5-0.6,0.6c-0.2,0.1-0.5,0.2-0.8,0.2c-0.2,0-0.4,0-0.6-0.1c-0.2-0.1-0.4-0.2-0.5-0.4
				c-0.2-0.3-0.4-0.6-0.6-1C19.3,16.1,19.2,15.6,19.2,15.1z"/>
			<path class="st13" d="M23.1,15.5c0-0.4,0-0.7,0.1-1c0.1-0.3,0.2-0.6,0.4-0.8c0.1-0.2,0.3-0.3,0.5-0.4c0.2-0.1,0.4-0.2,0.6-0.2
				c0.2,0,0.4,0.1,0.6,0.2c0.2,0.1,0.4,0.3,0.5,0.5c0.2,0.2,0.3,0.5,0.4,0.8c0.1,0.3,0.1,0.6,0.1,1c0,0.4,0,0.7-0.1,1
				c-0.1,0.3-0.2,0.6-0.4,0.8c-0.2,0.2-0.3,0.4-0.5,0.5c-0.2,0.1-0.4,0.2-0.6,0.2c-0.2,0-0.4-0.1-0.6-0.2c-0.2-0.1-0.4-0.3-0.5-0.5
				c-0.2-0.2-0.3-0.5-0.4-0.8C23.1,16.2,23.1,15.9,23.1,15.5z M23.9,15.5c0,0.6,0.1,1.1,0.2,1.4c0.1,0.3,0.4,0.5,0.6,0.5
				c0.3,0,0.5-0.2,0.6-0.5c0.1-0.3,0.2-0.8,0.2-1.5c0-0.6-0.1-1.1-0.2-1.4c-0.1-0.3-0.4-0.5-0.6-0.5c-0.3,0-0.5,0.2-0.6,0.5
				C23.9,14.4,23.9,14.9,23.9,15.5z"/>
			<path class="st13" d="M27.4,14.2v2.4c0,0.2,0,0.4,0,0.5c0,0.1,0,0.1,0.1,0.2c0,0,0.1,0,0.1,0.1c0.1,0.1,0.2,0.1,0.2,0.3
				c0,0.1,0,0.1,0,0.2c0,0-0.1,0.1-0.2,0.1h-0.7c-0.1,0-0.1,0-0.2-0.1c0,0-0.1-0.1-0.1-0.2c0-0.1,0-0.2,0.1-0.2c0,0,0.1,0,0.1,0
				c0,0,0.1-0.1,0.1-0.2c0-0.1,0-0.3,0-0.7v-2.4c0-0.1,0-0.2,0-0.3c0,0,0-0.1-0.1-0.1c0,0,0,0-0.1,0c-0.1-0.1-0.2-0.1-0.2-0.2
				c0-0.1,0-0.2,0.1-0.2c0,0,0.1-0.1,0.2-0.1h0.7c0.1,0,0.2,0,0.2,0.1c0,0,0.1,0.2,0.1,0.4l0.5,2l0.6-2c0-0.2,0.1-0.3,0.1-0.3
				c0,0,0.1-0.1,0.1-0.1H30c0.1,0,0.2,0,0.2,0.1c0,0,0.1,0.1,0.1,0.2c0,0.1,0,0.2-0.1,0.2c0,0,0,0,0,0c0,0-0.1,0.1-0.1,0.1
				c0,0,0,0.1,0,0.2v2.8c0,0.2,0,0.3,0,0.3c0,0.1,0.1,0.1,0.1,0.2c0,0,0,0,0,0c0.1,0.1,0.1,0.1,0.1,0.2c0,0.1,0,0.1-0.1,0.2
				c0,0-0.1,0.1-0.2,0.1h-0.8c-0.1,0-0.1,0-0.1,0c0,0,0-0.1,0-0.1c0-0.1,0-0.2,0.1-0.2c0,0,0,0,0.1,0c0,0,0-0.1,0.1-0.1
				c0-0.1,0-0.2,0-0.3v-2.6l-0.7,2.5c0,0.1-0.1,0.2-0.1,0.3c0,0.1-0.1,0.1-0.1,0.1c-0.1,0-0.1,0-0.1-0.1c0-0.1-0.1-0.2-0.1-0.3
				L27.4,14.2z"/>
			<path class="st13" d="M31.5,16.1v1c0,0.1,0,0.2,0,0.2c0,0,0,0.1,0.1,0.1c0,0,0,0,0,0c0.1,0.1,0.1,0.1,0.1,0.2c0,0.1,0,0.1,0,0.2
				c0,0-0.1,0-0.2,0h-0.9c0,0-0.1,0-0.1,0c0,0,0-0.1,0-0.1c0-0.1,0-0.1,0.1-0.2c0,0,0,0,0,0c0,0,0-0.1,0.1-0.1c0,0,0-0.1,0-0.2V17
				v-3c0-0.1,0-0.2,0-0.3c0,0,0-0.1-0.1-0.1c0,0,0,0,0,0c-0.1-0.1-0.1-0.1-0.1-0.2c0-0.1,0-0.1,0-0.2c0,0,0.1-0.1,0.1-0.1H32
				c0.4,0,0.6,0.1,0.9,0.3c0.2,0.2,0.3,0.5,0.3,0.9c0,0.5-0.1,0.9-0.4,1.2C32.4,15.9,32,16,31.5,16.1z M31.5,15.6
				c0.3,0,0.5-0.1,0.6-0.3c0.2-0.2,0.2-0.4,0.2-0.7c0-0.3-0.1-0.5-0.2-0.6c-0.1-0.1-0.3-0.2-0.5-0.2c-0.1,0-0.2,0-0.2,0
				c0,0,0,0.1,0,0.3V15.6z"/>
			<path class="st13" d="M33.7,16.3c-0.1,0.3-0.1,0.5-0.1,0.6c0,0.1,0,0.2,0,0.3c0,0.1,0,0.1,0.1,0.1c0,0,0,0,0,0
				c0,0,0.1,0.1,0.1,0.1c0,0,0,0.1,0,0.1c0,0.1,0,0.1,0,0.1c0,0,0,0.1-0.1,0.1H33c0,0-0.1,0-0.1,0c0,0,0-0.1,0-0.1
				c0-0.1,0-0.1,0.1-0.2c0.1-0.1,0.1-0.1,0.1-0.1c0,0,0.1-0.3,0.2-0.7c0.1-0.4,0.2-0.8,0.3-1.1c0.1-0.4,0.2-0.8,0.3-1.1
				c0.1-0.3,0.2-0.6,0.3-0.8l0,0c0.1-0.3,0.2-0.5,0.4-0.5c0.1,0,0.1,0,0.2,0c0,0,0.1,0.1,0.1,0.2c0.1,0.1,0.1,0.4,0.3,0.8
				c0.1,0.4,0.2,0.8,0.4,1.3c0.1,0.4,0.2,0.8,0.3,1.2c0.1,0.4,0.1,0.6,0.1,0.6c0,0,0,0.1,0.1,0.1c0.1,0.1,0.1,0.1,0.1,0.2
				c0,0.1,0,0.1,0,0.1c0,0-0.1,0-0.1,0H35c-0.1,0-0.1,0-0.1-0.1c0,0,0-0.1,0-0.1c0-0.1,0-0.1,0.1-0.2c0.1-0.1,0.1-0.1,0.1-0.2
				c0-0.1,0-0.2,0-0.3c0-0.2-0.1-0.4-0.1-0.6H33.7z M33.8,15.7h0.8c-0.1-0.4-0.2-0.7-0.2-0.9c-0.1-0.3-0.1-0.5-0.2-0.6
				c-0.1,0.2-0.1,0.5-0.2,0.7C34,15.2,33.9,15.4,33.8,15.7z"/>
			<path class="st13" d="M36.8,14.3v2.6c0,0.1,0,0.2,0,0.3c0,0,0,0.1,0.1,0.1c0,0,0,0,0.1,0c0.1,0,0.1,0.1,0.1,0.2
				c0,0.1,0,0.1,0,0.2c0,0-0.1,0-0.1,0h-0.7c-0.1,0-0.1,0-0.1,0c0,0,0-0.1,0-0.1c0-0.1,0-0.2,0.1-0.2c0.1,0,0.1-0.1,0.1-0.1
				c0,0,0.1-0.1,0.1-0.2c0-0.1,0-0.2,0-0.4V14c0-0.1,0-0.2,0-0.2c0,0,0-0.1-0.1-0.1c0,0,0,0-0.1,0c-0.1,0-0.1-0.1-0.1-0.2
				c0-0.1,0-0.1,0-0.1c0,0,0.1,0,0.1,0h0.7c0.1,0,0.2,0.1,0.4,0.3c0,0,0,0,0,0.1c0.2,0.3,0.4,0.7,0.6,1.2c0.2,0.4,0.4,0.9,0.7,1.5
				V14c0-0.1,0-0.2,0-0.2c0-0.1,0-0.1-0.1-0.1c0,0,0,0-0.1-0.1c-0.1-0.1-0.1-0.1-0.1-0.2c0-0.1,0-0.1,0-0.2c0,0,0.1-0.1,0.1-0.1h0.6
				c0.1,0,0.1,0,0.1,0.1c0,0,0,0.1,0,0.2c0,0.1,0,0.2-0.1,0.2c0,0,0,0-0.1,0c0,0-0.1,0.1-0.1,0.1c0,0.1,0,0.2,0,0.3v3.3
				c0,0.2,0,0.3-0.1,0.4c0,0.1-0.1,0.1-0.2,0.1c-0.1,0-0.2,0-0.2,0c0,0-0.1-0.1-0.1-0.1c0,0-0.1-0.1-0.1-0.3
				C37.8,16.4,37.4,15.3,36.8,14.3z"/>
			<path class="st13" d="M40.5,16c-0.3-0.6-0.6-1.2-0.9-1.9c0-0.1,0-0.1,0-0.1c0-0.1-0.1-0.2-0.2-0.2c-0.1-0.1-0.1-0.2-0.1-0.2
				c0-0.1,0-0.1,0.1-0.2c0,0,0.1-0.1,0.2-0.1h0.7c0.1,0,0.1,0,0.2,0.1c0,0,0.1,0.1,0.1,0.2c0,0.1,0,0.1-0.1,0.2
				c-0.1,0.1-0.1,0.1-0.1,0.1c0,0.1,0.1,0.3,0.2,0.6c0.1,0.3,0.3,0.7,0.5,1c0.2-0.3,0.3-0.7,0.4-0.9c0.1-0.3,0.2-0.5,0.2-0.6
				c0-0.1,0-0.1-0.1-0.2c0,0,0,0,0,0c0,0-0.1-0.1-0.1-0.1c0,0,0-0.1,0-0.1c0-0.1,0-0.1,0.1-0.2c0,0,0.1-0.1,0.2-0.1h0.5
				c0.1,0,0.1,0,0.1,0.1c0,0,0,0.1,0,0.2c0,0.1,0,0.2-0.1,0.2c-0.1,0.1-0.1,0.1-0.1,0.1c0,0,0,0.1-0.1,0.2c-0.2,0.7-0.5,1.3-0.8,1.9
				V17c0,0.1,0,0.2,0,0.2c0,0,0,0.1,0.1,0.1c0,0,0,0,0.1,0c0.1,0.1,0.1,0.1,0.1,0.2c0,0.1,0,0.1-0.1,0.2c0,0-0.1,0.1-0.2,0.1h-0.8
				c-0.1,0-0.1,0-0.2-0.1c0,0,0-0.1,0-0.2c0-0.1,0-0.2,0.1-0.3c0,0,0,0,0,0c0,0,0,0,0.1-0.1c0,0,0-0.1,0-0.2V16z"/>
		</g>
	</g>
</g>
</svg>
