<?xml version="1.0" encoding="utf-8"?>
<!-- Generator: Adobe Illustrator 19.1.0, SVG Export Plug-In . SVG Version: 6.00 Build 0)  -->
<!DOCTYPE svg PUBLIC "-//W3C//DTD SVG 1.1//EN" "http://www.w3.org/Graphics/SVG/1.1/DTD/svg11.dtd">
<svg version="1.1" id="Layer_1" xmlns="http://www.w3.org/2000/svg" xmlns:xlink="http://www.w3.org/1999/xlink" x="0px" y="0px"
	 viewBox="0 0 100 85.7" style="enable-background:new 0 0 100 85.7;" xml:space="preserve">
<style type="text/css">
	.st0{fill:#BDCC2A;}
	.st1{fill:#519136;}
	.st2{fill:#7D5A41;}
	.st3{fill:#9D9FA2;}
	.st4{fill:#D1D3D4;}
</style>
<path d="M20.8,74.4c-0.1-0.2-0.3-0.3-0.6-0.3c-0.2,0-0.4,0.1-0.5,0.2c-0.1,0.1-0.2,0.3-0.3,0.6s-0.1,0.6-0.1,1.1c0,0.5,0,1,0,1.7
	c0,0.7,0,1.3,0,1.7c0,0.5,0.1,0.8,0.1,1.1c0.1,0.3,0.2,0.5,0.3,0.6c0.1,0.1,0.3,0.2,0.5,0.2c0.2,0,0.3,0,0.4-0.1
	c0.1-0.1,0.2-0.2,0.2-0.4c0.1-0.2,0.1-0.4,0.1-0.8c0-0.3,0-0.7,0-1.2h2.6v0.8c0,0.7-0.1,1.3-0.3,1.8c-0.2,0.5-0.4,0.8-0.8,1.1
	c-0.3,0.3-0.7,0.4-1.1,0.5c-0.4,0.1-0.8,0.1-1.3,0.1c-0.7,0-1.4-0.1-1.8-0.3c-0.5-0.2-0.9-0.5-1.1-0.9c-0.3-0.4-0.5-1-0.6-1.7
	c-0.1-0.7-0.2-1.5-0.2-2.5c0-1,0.1-1.8,0.2-2.5c0.1-0.7,0.3-1.2,0.6-1.7c0.3-0.4,0.7-0.7,1.1-0.9c0.5-0.2,1.1-0.3,1.7-0.3
	c0.6,0,1.1,0.1,1.5,0.2c0.4,0.2,0.8,0.4,1,0.7c0.3,0.3,0.5,0.6,0.6,1c0.1,0.4,0.2,0.8,0.2,1.3v0.6h-2.6v-0.6
	C20.9,75,20.9,74.6,20.8,74.4z"/>
<path d="M27.9,82.3c0-0.1,0-0.3-0.1-0.5h0c-0.1,0.3-0.4,0.6-0.7,0.8c-0.3,0.2-0.7,0.3-1.1,0.3c-0.4,0-0.7-0.1-1-0.2
	c-0.3-0.1-0.5-0.3-0.7-0.5c-0.2-0.2-0.3-0.4-0.4-0.7c-0.1-0.3-0.1-0.6-0.1-0.9c0-0.4,0-0.7,0.1-0.9c0.1-0.3,0.2-0.5,0.4-0.7
	c0.2-0.2,0.4-0.4,0.7-0.5c0.3-0.1,0.6-0.3,1-0.4l1-0.2c0.3-0.1,0.5-0.2,0.6-0.3c0.1-0.1,0.2-0.3,0.2-0.6c0-0.5-0.2-0.7-0.7-0.7
	c-0.2,0-0.4,0.1-0.5,0.2c-0.1,0.1-0.2,0.4-0.2,0.8h-2.3c0-0.6,0.1-1,0.3-1.4c0.2-0.3,0.5-0.6,0.8-0.8c0.3-0.2,0.6-0.3,1-0.4
	c0.3-0.1,0.7-0.1,1-0.1c0.5,0,0.9,0,1.2,0.1c0.4,0.1,0.7,0.2,1,0.4c0.3,0.2,0.5,0.4,0.6,0.8c0.1,0.3,0.2,0.7,0.2,1.2v3.8
	c0,0.4,0,0.7,0,1c0,0.3,0.1,0.5,0.2,0.7H28C28,82.6,27.9,82.5,27.9,82.3z M27.7,80.9c0.1-0.2,0.2-0.5,0.2-1V79h0
	c-0.1,0.1-0.2,0.2-0.4,0.2c-0.2,0-0.3,0.1-0.5,0.2c-0.2,0.1-0.3,0.2-0.4,0.4c-0.1,0.2-0.1,0.4-0.1,0.6s0.1,0.5,0.2,0.6
	c0.1,0.2,0.3,0.2,0.5,0.2C27.3,81.2,27.5,81.1,27.7,80.9z"/>
<path d="M33.7,72.5v10.3h-2.6V72.5H33.7z"/>
<path d="M37.1,72.5v10.3h-2.6V72.5H37.1z"/>
<path d="M41.8,75.1v2.5h0c0.1-0.3,0.3-0.5,0.5-0.6c0.2-0.1,0.5-0.2,0.7-0.2c0.3,0,0.5,0,0.8,0.1c0.2,0.1,0.4,0.3,0.6,0.5
	c0.2,0.2,0.3,0.5,0.3,0.9c0.1,0.4,0.1,0.8,0.1,1.4c0,1.1-0.1,1.9-0.4,2.4c-0.3,0.5-0.7,0.8-1.4,0.8c-0.3,0-0.6-0.1-0.8-0.2
	c-0.2-0.1-0.4-0.4-0.5-0.7h0v0.8h-1.9v-7.7H41.8z M41.8,80.6c0,0.2,0,0.4,0.1,0.5c0,0.1,0.1,0.2,0.2,0.3c0.1,0.1,0.2,0.1,0.3,0.1
	c0.1,0,0.2,0,0.3-0.1c0.1-0.1,0.1-0.1,0.2-0.3c0-0.1,0.1-0.3,0.1-0.5c0-0.2,0-0.5,0-0.8c0-0.3,0-0.6,0-0.8c0-0.2,0-0.4-0.1-0.5
	c0-0.1-0.1-0.2-0.2-0.3c-0.1-0.1-0.2-0.1-0.3-0.1c-0.1,0-0.2,0-0.3,0.1c-0.1,0.1-0.1,0.1-0.2,0.3c0,0.1-0.1,0.3-0.1,0.5
	c0,0.2,0,0.5,0,0.8C41.8,80.2,41.8,80.4,41.8,80.6z"/>
<path d="M47,80.9c0,0.3,0.1,0.5,0.2,0.6c0.1,0.1,0.2,0.2,0.4,0.2c0.2,0,0.3-0.1,0.4-0.2c0.1-0.1,0.1-0.4,0.1-0.8h1.7
	c0,0.7-0.2,1.3-0.5,1.6c-0.4,0.4-0.9,0.5-1.7,0.5c-0.5,0-0.9-0.1-1.2-0.2c-0.3-0.1-0.6-0.3-0.8-0.5c-0.2-0.2-0.3-0.6-0.4-0.9
	c-0.1-0.4-0.1-0.9-0.1-1.4c0-0.6,0-1,0.1-1.4c0.1-0.4,0.2-0.7,0.4-0.9c0.2-0.2,0.5-0.4,0.8-0.5c0.3-0.1,0.7-0.2,1.1-0.2
	c0.4,0,0.7,0,1,0.1c0.3,0.1,0.5,0.3,0.7,0.5c0.2,0.2,0.3,0.5,0.4,0.9c0.1,0.4,0.1,0.8,0.1,1.3v0.6H47V80.9z M48,78.2
	C47.9,78,47.7,78,47.5,78c-0.2,0-0.3,0.1-0.4,0.2C47,78.3,47,78.6,47,78.9v0.3h1.1v-0.3C48.1,78.6,48,78.3,48,78.2z"/>
<path d="M49.9,78.2v-1.3h0.7v-0.4c0-0.3,0-0.5,0.1-0.7c0.1-0.2,0.2-0.4,0.3-0.5c0.1-0.1,0.3-0.2,0.6-0.3c0.2-0.1,0.5-0.1,0.9-0.1
	c0.1,0,0.3,0,0.5,0c0.2,0,0.3,0,0.5,0v1.2c-0.1,0-0.1,0-0.1,0c0,0-0.1,0-0.2,0c-0.1,0-0.2,0-0.3,0.1c-0.1,0.1-0.1,0.2-0.1,0.3v0.4
	h0.8v1.3h-0.8v4.5h-1.9v-4.5H49.9z"/>
<path d="M58.2,81c-0.1,0.4-0.2,0.7-0.3,1c-0.2,0.3-0.4,0.5-0.7,0.7c-0.3,0.2-0.8,0.3-1.3,0.3c-0.6,0-1-0.1-1.3-0.2
	c-0.3-0.2-0.6-0.4-0.7-0.6c-0.2-0.3-0.3-0.6-0.3-1c0-0.4-0.1-0.8-0.1-1.2c0-0.4,0-0.8,0.1-1.1c0.1-0.4,0.2-0.7,0.3-1
	c0.2-0.3,0.4-0.5,0.7-0.7c0.3-0.2,0.8-0.3,1.3-0.3c0.6,0,1,0.1,1.3,0.2c0.3,0.2,0.6,0.4,0.7,0.7c0.2,0.3,0.3,0.6,0.3,1
	c0,0.4,0.1,0.8,0.1,1.2C58.3,80.2,58.2,80.6,58.2,81z M55.3,80.7c0,0.2,0,0.4,0.1,0.6c0,0.1,0.1,0.2,0.2,0.3
	c0.1,0.1,0.2,0.1,0.3,0.1c0.1,0,0.2,0,0.3-0.1c0.1-0.1,0.1-0.1,0.2-0.3c0-0.1,0.1-0.3,0.1-0.6c0-0.2,0-0.5,0-0.9c0-0.4,0-0.7,0-0.9
	c0-0.2,0-0.4-0.1-0.6c0-0.1-0.1-0.2-0.2-0.3C56,78.1,55.9,78,55.8,78c-0.1,0-0.2,0-0.3,0.1c-0.1,0.1-0.1,0.1-0.2,0.3
	c0,0.1-0.1,0.3-0.1,0.6c0,0.2,0,0.5,0,0.9C55.3,80.2,55.3,80.5,55.3,80.7z"/>
<path d="M60.5,76.9v0.9h0c0.1-0.4,0.3-0.6,0.5-0.8c0.2-0.2,0.5-0.3,0.8-0.3h0.3v1.8c-0.1,0-0.2,0-0.2,0c-0.1,0-0.2,0-0.2,0
	c-0.3,0-0.6,0.1-0.8,0.2c-0.2,0.2-0.3,0.4-0.3,0.8v3.2h-1.9v-5.8H60.5z"/>
<path d="M63.8,80.9c0,0.3,0.1,0.5,0.2,0.6c0.1,0.1,0.2,0.2,0.4,0.2c0.2,0,0.3-0.1,0.4-0.2c0.1-0.1,0.1-0.4,0.1-0.8h1.7
	c0,0.7-0.2,1.3-0.5,1.6c-0.4,0.4-0.9,0.5-1.7,0.5c-0.5,0-0.9-0.1-1.2-0.2c-0.3-0.1-0.6-0.3-0.8-0.5c-0.2-0.2-0.3-0.6-0.4-0.9
	c-0.1-0.4-0.1-0.9-0.1-1.4c0-0.6,0-1,0.1-1.4c0.1-0.4,0.2-0.7,0.4-0.9c0.2-0.2,0.5-0.4,0.8-0.5c0.3-0.1,0.7-0.2,1.1-0.2
	c0.4,0,0.7,0,1,0.1c0.3,0.1,0.5,0.3,0.7,0.5c0.2,0.2,0.3,0.5,0.4,0.9c0.1,0.4,0.1,0.8,0.1,1.3v0.6h-2.9V80.9z M64.7,78.2
	C64.7,78,64.5,78,64.3,78c-0.2,0-0.3,0.1-0.4,0.2c-0.1,0.1-0.1,0.4-0.1,0.7v0.3h1.1v-0.3C64.9,78.6,64.8,78.3,64.7,78.2z"/>
<path d="M69.4,83.3c0.1,0,0.1,0,0.2,0c0.1,0,0.2,0,0.3-0.1c0.1,0,0.1-0.1,0.2-0.1c0.1,0,0.1-0.1,0.1-0.1c0-0.1,0-0.1,0-0.1
	c0,0,0-0.1,0-0.2c0-0.1,0-0.1-0.1-0.2l-1.5-5.5h2l0.6,3.9h0l0.6-3.9h1.9l-1.6,6c-0.1,0.3-0.2,0.6-0.3,0.8c-0.1,0.2-0.2,0.4-0.4,0.5
	c-0.2,0.1-0.3,0.2-0.5,0.3c-0.2,0.1-0.4,0.1-0.7,0.1c-0.2,0-0.4,0-0.6,0c-0.2,0-0.3,0-0.5,0v-1.4C69.2,83.2,69.3,83.3,69.4,83.3z"/>
<path d="M78.3,81c-0.1,0.4-0.2,0.7-0.3,1c-0.2,0.3-0.4,0.5-0.7,0.7c-0.3,0.2-0.8,0.3-1.3,0.3c-0.6,0-1-0.1-1.3-0.2
	c-0.3-0.2-0.6-0.4-0.7-0.6c-0.2-0.3-0.3-0.6-0.3-1c0-0.4-0.1-0.8-0.1-1.2c0-0.4,0-0.8,0.1-1.1c0.1-0.4,0.2-0.7,0.3-1
	c0.2-0.3,0.4-0.5,0.7-0.7c0.3-0.2,0.8-0.3,1.3-0.3c0.6,0,1,0.1,1.3,0.2c0.3,0.2,0.6,0.4,0.7,0.7c0.2,0.3,0.3,0.6,0.3,1
	c0,0.4,0.1,0.8,0.1,1.2C78.4,80.2,78.4,80.6,78.3,81z M75.4,80.7c0,0.2,0,0.4,0.1,0.6c0,0.1,0.1,0.2,0.2,0.3
	c0.1,0.1,0.2,0.1,0.3,0.1c0.1,0,0.2,0,0.3-0.1c0.1-0.1,0.1-0.1,0.2-0.3c0-0.1,0.1-0.3,0.1-0.6c0-0.2,0-0.5,0-0.9c0-0.4,0-0.7,0-0.9
	c0-0.2,0-0.4-0.1-0.6c0-0.1-0.1-0.2-0.2-0.3C76.1,78.1,76,78,75.9,78c-0.1,0-0.2,0-0.3,0.1c-0.1,0.1-0.1,0.1-0.2,0.3
	c0,0.1-0.1,0.3-0.1,0.6c0,0.2,0,0.5,0,0.9C75.4,80.2,75.4,80.5,75.4,80.7z"/>
<path d="M80.8,76.9v3.8c0,0.2,0,0.4,0.1,0.5c0.1,0.1,0.2,0.2,0.4,0.2c0.2,0,0.3-0.1,0.4-0.2c0.1-0.1,0.1-0.3,0.1-0.5v-3.8h1.9v5.8
	h-1.9l0-0.7h0c-0.2,0.6-0.7,0.8-1.4,0.8c-0.2,0-0.4,0-0.6-0.1c-0.2,0-0.3-0.1-0.5-0.2c-0.1-0.1-0.2-0.3-0.3-0.5
	c-0.1-0.2-0.1-0.5-0.1-0.8v-4.4H80.8z"/>
<path d="M90.6,75.1v7.7h-1.9V82h0c-0.1,0.3-0.3,0.6-0.5,0.7c-0.2,0.1-0.5,0.2-0.8,0.2c-0.6,0-1.1-0.3-1.4-0.8
	c-0.3-0.5-0.4-1.3-0.4-2.4c0-0.6,0-1,0.1-1.4c0.1-0.4,0.2-0.7,0.4-0.9c0.2-0.2,0.3-0.4,0.6-0.5c0.2-0.1,0.5-0.2,0.7-0.2
	c0.3,0,0.5,0.1,0.7,0.2c0.2,0.1,0.4,0.3,0.5,0.6h0v-2.5H90.6z M87.6,80.6c0,0.2,0,0.4,0.1,0.5c0,0.1,0.1,0.2,0.2,0.3
	c0.1,0.1,0.2,0.1,0.3,0.1c0.1,0,0.2,0,0.3-0.1c0.1-0.1,0.1-0.1,0.2-0.3c0-0.1,0.1-0.3,0.1-0.5c0-0.2,0-0.5,0-0.8c0-0.3,0-0.6,0-0.8
	c0-0.2,0-0.4-0.1-0.5c0-0.1-0.1-0.2-0.2-0.3c-0.1-0.1-0.2-0.1-0.3-0.1c-0.1,0-0.2,0-0.3,0.1c-0.1,0.1-0.1,0.1-0.2,0.3
	c0,0.1-0.1,0.3-0.1,0.5c0,0.2,0,0.5,0,0.8C87.6,80.2,87.6,80.4,87.6,80.6z"/>
<path d="M93.2,75.1v1.4h-1.9v-1.4H93.2z M93.2,76.9v5.8h-1.9v-5.8H93.2z"/>
<path d="M98.6,76.9v5.7c0,0.4-0.1,0.7-0.2,1c-0.1,0.3-0.3,0.5-0.5,0.6c-0.2,0.2-0.5,0.3-0.8,0.3c-0.3,0.1-0.6,0.1-1,0.1
	c-0.3,0-0.6,0-0.9-0.1c-0.3,0-0.5-0.1-0.7-0.3c-0.2-0.1-0.4-0.3-0.5-0.5C94,83.7,94,83.4,94,83.1h1.7c0,0.1,0,0.3,0.1,0.3
	c0.1,0.1,0.2,0.1,0.4,0.1c0.1,0,0.1,0,0.2,0s0.1,0,0.2-0.1c0.1-0.1,0.1-0.1,0.1-0.2c0-0.1,0.1-0.2,0.1-0.4v-1.1h0
	c-0.1,0.3-0.3,0.6-0.5,0.7c-0.2,0.1-0.5,0.2-0.8,0.2c-0.2,0-0.4,0-0.6-0.1c-0.2-0.1-0.4-0.2-0.5-0.4c-0.2-0.2-0.3-0.5-0.4-0.9
	c-0.1-0.4-0.2-0.9-0.2-1.5c0-0.6,0-1,0.1-1.4c0.1-0.4,0.2-0.7,0.4-0.9c0.2-0.2,0.3-0.4,0.6-0.5c0.2-0.1,0.5-0.1,0.8-0.1
	c0.3,0,0.5,0.1,0.8,0.2c0.2,0.1,0.4,0.4,0.5,0.7h0v-0.8H98.6z M95.7,80.4c0,0.2,0.1,0.3,0.1,0.4c0,0.1,0.1,0.2,0.2,0.2
	c0.1,0,0.1,0.1,0.2,0.1c0.1,0,0.2,0,0.2-0.1c0.1,0,0.1-0.1,0.2-0.2c0-0.1,0.1-0.3,0.1-0.4c0-0.2,0-0.4,0-0.7c0-0.3,0-0.5,0-0.7
	c0-0.2-0.1-0.3-0.1-0.4c0-0.1-0.1-0.2-0.2-0.2c-0.1,0-0.1-0.1-0.2-0.1c-0.1,0-0.2,0-0.2,0.1c-0.1,0-0.1,0.1-0.2,0.2
	c0,0.1-0.1,0.3-0.1,0.4c0,0.2,0,0.4,0,0.7C95.7,80,95.7,80.3,95.7,80.4z"/>
<path d="M78.5,63.1v1.5h-1.2v-1.5H78.5z"/>
<path d="M3.2,63.8v2.6h0l1.3-2.6h1.9l-1.7,3l1.9,3.8h-2l-1-2.4l-0.4,0.6v1.8H1.4v-6.8H3.2z"/>
<path d="M8.2,65.4V66h0c0.2-0.5,0.6-0.8,1.2-0.8c0.2,0,0.4,0,0.5,0.1c0.2,0,0.3,0.1,0.4,0.2c0.1,0.1,0.2,0.3,0.3,0.4
	c0.1,0.2,0.1,0.4,0.1,0.7v3.9H9v-3.4c0-0.2,0-0.4-0.1-0.5c-0.1-0.1-0.2-0.1-0.3-0.1c-0.2,0-0.3,0-0.3,0.1S8.2,67,8.2,67.2v3.4H6.5
	v-5.1H8.2z"/>
<path d="M15.4,69c0,0.3-0.1,0.6-0.3,0.9c-0.2,0.3-0.4,0.5-0.7,0.6c-0.3,0.1-0.7,0.2-1.2,0.2c-0.5,0-0.9-0.1-1.2-0.2
	c-0.3-0.1-0.5-0.3-0.7-0.6c-0.1-0.2-0.2-0.5-0.3-0.9c0-0.3-0.1-0.7-0.1-1.1c0-0.3,0-0.7,0.1-1c0-0.3,0.1-0.6,0.3-0.9
	c0.2-0.3,0.4-0.5,0.7-0.6c0.3-0.2,0.7-0.2,1.2-0.2c0.5,0,0.9,0.1,1.2,0.2c0.3,0.1,0.5,0.3,0.7,0.6c0.1,0.2,0.2,0.5,0.3,0.9
	c0,0.3,0.1,0.7,0.1,1.1C15.5,68.3,15.5,68.7,15.4,69z M12.8,68.8c0,0.2,0,0.4,0.1,0.5c0,0.1,0.1,0.2,0.1,0.2c0.1,0,0.1,0.1,0.2,0.1
	c0.1,0,0.2,0,0.2-0.1c0.1,0,0.1-0.1,0.1-0.2c0-0.1,0.1-0.3,0.1-0.5c0-0.2,0-0.5,0-0.8c0-0.3,0-0.6,0-0.8c0-0.2,0-0.4-0.1-0.5
	c0-0.1-0.1-0.2-0.1-0.2c-0.1,0-0.1-0.1-0.2-0.1c-0.1,0-0.2,0-0.2,0.1c-0.1,0-0.1,0.1-0.1,0.2c0,0.1-0.1,0.3-0.1,0.5
	c0,0.2,0,0.5,0,0.8C12.8,68.3,12.8,68.6,12.8,68.8z"/>
<path d="M17.1,65.4l0.4,3.7h0l0.5-3.7h1.8l0.5,3.7h0l0.4-3.7h1.7l-1,5.1h-1.9L19,66.9h0l-0.5,3.6h-1.9l-1-5.1H17.1z"/>
<path d="M25.7,65.4l0.4,3.7h0l0.5-3.7h1.8l0.5,3.7h0l0.4-3.7h1.7l-1,5.1h-1.9l-0.5-3.6h0L27,70.6h-1.9l-1-5.1H25.7z"/>
<path d="M33,63.8V66h0c0.1-0.3,0.3-0.5,0.5-0.6c0.2-0.1,0.4-0.1,0.6-0.1c0.2,0,0.3,0,0.5,0.1c0.2,0,0.3,0.1,0.4,0.2
	c0.1,0.1,0.2,0.3,0.3,0.4c0.1,0.2,0.1,0.4,0.1,0.7v3.9h-1.7v-3.4c0-0.2,0-0.4-0.1-0.5s-0.2-0.1-0.3-0.1c-0.2,0-0.3,0-0.3,0.1
	C33,66.8,33,67,33,67.2v3.4h-1.7v-6.8H33z"/>
<path d="M38.6,70.3c0-0.1,0-0.2,0-0.3h0c-0.1,0.2-0.2,0.4-0.5,0.5c-0.2,0.1-0.4,0.2-0.7,0.2c-0.3,0-0.5,0-0.7-0.1
	c-0.2-0.1-0.3-0.2-0.4-0.3c-0.1-0.1-0.2-0.3-0.2-0.5C36,69.6,36,69.4,36,69.2c0-0.2,0-0.5,0.1-0.6c0-0.2,0.1-0.3,0.2-0.5
	c0.1-0.1,0.3-0.2,0.4-0.3c0.2-0.1,0.4-0.2,0.7-0.2l0.7-0.2c0.2,0,0.3-0.1,0.4-0.2c0.1-0.1,0.1-0.2,0.1-0.4c0-0.3-0.1-0.5-0.4-0.5
	c-0.2,0-0.3,0-0.4,0.1c-0.1,0.1-0.1,0.3-0.1,0.6h-1.5c0-0.4,0.1-0.7,0.2-0.9c0.1-0.2,0.3-0.4,0.5-0.5c0.2-0.1,0.4-0.2,0.6-0.2
	c0.2,0,0.4-0.1,0.6-0.1c0.3,0,0.6,0,0.8,0.1c0.3,0,0.5,0.1,0.6,0.3c0.2,0.1,0.3,0.3,0.4,0.5c0.1,0.2,0.1,0.5,0.1,0.8v2.5
	c0,0.2,0,0.5,0,0.6c0,0.2,0.1,0.3,0.1,0.5h-1.7C38.7,70.5,38.6,70.4,38.6,70.3z M38.5,69.3c0.1-0.1,0.1-0.4,0.1-0.6v-0.6h0
	c-0.1,0.1-0.1,0.1-0.2,0.1c-0.1,0-0.2,0.1-0.3,0.1c-0.1,0.1-0.2,0.1-0.3,0.3c-0.1,0.1-0.1,0.2-0.1,0.4c0,0.2,0,0.3,0.1,0.4
	c0.1,0.1,0.2,0.2,0.3,0.2C38.2,69.6,38.4,69.5,38.5,69.3z"/>
<path d="M41.1,65.4v-1.5h1.7v1.5h0.7v1.2h-0.7V69c0,0.1,0,0.2,0.1,0.3c0.1,0.1,0.2,0.1,0.3,0.1h0.3v1.1c-0.2,0-0.3,0-0.5,0
	c-0.2,0-0.3,0-0.5,0c-0.3,0-0.5,0-0.7,0c-0.2,0-0.3-0.1-0.5-0.2c-0.1-0.1-0.2-0.2-0.3-0.4c-0.1-0.2-0.1-0.4-0.1-0.7v-2.7h-0.6v-1.2
	H41.1z"/>
<path d="M45.1,63.8v1.5c0,0.5-0.1,1-0.3,1.2c-0.2,0.3-0.6,0.4-1.1,0.4v-0.7c0.2,0,0.3-0.1,0.4-0.2c0.1-0.1,0.1-0.3,0.1-0.5v-0.1
	h-0.5v-1.6H45.1z"/>
<path d="M46.6,69.2c0,0.1,0.1,0.2,0.1,0.2c0.1,0.1,0.2,0.2,0.4,0.2c0.1,0,0.3,0,0.4-0.1c0.1-0.1,0.2-0.2,0.2-0.3
	c0-0.2-0.1-0.3-0.2-0.4c-0.1-0.1-0.3-0.2-0.5-0.2c-0.2-0.1-0.4-0.1-0.6-0.2c-0.2-0.1-0.4-0.2-0.6-0.3c-0.2-0.1-0.3-0.3-0.5-0.5
	c-0.1-0.2-0.2-0.5-0.2-0.8c0-0.2,0-0.4,0.1-0.6c0.1-0.2,0.2-0.4,0.4-0.5c0.2-0.1,0.4-0.3,0.6-0.3c0.3-0.1,0.6-0.1,0.9-0.1
	c1.3,0,2,0.5,2,1.6h-1.5c0-0.2,0-0.4-0.1-0.5c-0.1-0.1-0.2-0.1-0.3-0.1c-0.1,0-0.2,0-0.3,0.1c-0.1,0.1-0.1,0.2-0.1,0.3
	c0,0.1,0.1,0.3,0.2,0.3c0.1,0.1,0.3,0.1,0.5,0.2c0.2,0.1,0.4,0.1,0.6,0.2c0.2,0.1,0.4,0.2,0.6,0.3s0.3,0.3,0.5,0.5
	c0.1,0.2,0.2,0.5,0.2,0.8c0,0.3,0,0.5-0.1,0.7c-0.1,0.2-0.2,0.4-0.4,0.6c-0.2,0.2-0.4,0.3-0.7,0.3c-0.3,0.1-0.6,0.1-0.9,0.1
	c-0.7,0-1.3-0.1-1.6-0.4c-0.3-0.3-0.5-0.7-0.5-1.3h1.5C46.5,69,46.6,69.1,46.6,69.2z"/>
<path d="M53.8,61.3v3h0c0.1-0.4,0.3-0.6,0.6-0.8c0.3-0.1,0.6-0.2,0.9-0.2c0.3,0,0.6,0.1,0.9,0.2c0.3,0.1,0.5,0.3,0.7,0.6
	c0.2,0.3,0.3,0.6,0.4,1.1c0.1,0.5,0.1,1,0.1,1.7c0,1.3-0.2,2.3-0.5,2.9c-0.3,0.6-0.9,0.9-1.6,0.9c-0.4,0-0.7-0.1-1-0.3
	c-0.3-0.2-0.5-0.5-0.6-0.8h0v0.9h-2.3v-9.2H53.8z M53.9,68c0,0.3,0,0.5,0.1,0.6c0,0.2,0.1,0.3,0.2,0.3c0.1,0.1,0.2,0.1,0.3,0.1
	c0.1,0,0.3,0,0.3-0.1c0.1-0.1,0.2-0.2,0.2-0.3c0-0.2,0.1-0.4,0.1-0.6c0-0.3,0-0.6,0-0.9c0-0.4,0-0.7,0-0.9c0-0.3,0-0.5-0.1-0.6
	c0-0.2-0.1-0.3-0.2-0.3c-0.1-0.1-0.2-0.1-0.3-0.1c-0.1,0-0.2,0-0.3,0.1c-0.1,0.1-0.2,0.2-0.2,0.3c0,0.2-0.1,0.4-0.1,0.6
	c0,0.3,0,0.6,0,0.9C53.8,67.5,53.9,67.8,53.9,68z"/>
<path d="M60.3,68.4c0,0.4,0.1,0.6,0.2,0.8c0.1,0.1,0.3,0.2,0.4,0.2c0.2,0,0.4-0.1,0.5-0.3c0.1-0.2,0.2-0.5,0.2-1h2.1
	c0,0.9-0.2,1.5-0.7,1.9c-0.4,0.4-1.1,0.7-2.1,0.7c-0.6,0-1-0.1-1.4-0.2c-0.4-0.1-0.7-0.3-0.9-0.6c-0.2-0.3-0.4-0.7-0.5-1.1
	c-0.1-0.5-0.1-1-0.1-1.7c0-0.7,0.1-1.2,0.2-1.7c0.1-0.5,0.3-0.8,0.5-1.1c0.2-0.3,0.6-0.5,0.9-0.6c0.4-0.1,0.8-0.2,1.4-0.2
	c0.5,0,0.9,0.1,1.2,0.2c0.3,0.1,0.6,0.3,0.9,0.6c0.2,0.3,0.4,0.6,0.5,1c0.1,0.4,0.2,1,0.2,1.6v0.7h-3.4V68.4z M61.5,65.1
	c-0.1-0.2-0.3-0.3-0.5-0.3c-0.2,0-0.4,0.1-0.5,0.3c-0.1,0.2-0.1,0.4-0.1,0.8v0.3h1.3v-0.3C61.6,65.5,61.6,65.2,61.5,65.1z"/>
<path d="M66.7,61.3v9.2h-2.3v-9.2H66.7z"/>
<path d="M73,68.4c-0.1,0.4-0.2,0.8-0.4,1.2c-0.2,0.3-0.5,0.6-0.9,0.8c-0.4,0.2-0.9,0.3-1.6,0.3c-0.7,0-1.2-0.1-1.6-0.3
	c-0.4-0.2-0.7-0.4-0.9-0.8c-0.2-0.3-0.3-0.7-0.4-1.2c-0.1-0.4-0.1-0.9-0.1-1.4c0-0.5,0-0.9,0.1-1.3c0.1-0.4,0.2-0.8,0.4-1.2
	c0.2-0.3,0.5-0.6,0.9-0.8c0.4-0.2,0.9-0.3,1.6-0.3c0.7,0,1.2,0.1,1.6,0.3c0.4,0.2,0.7,0.5,0.9,0.8c0.2,0.3,0.3,0.7,0.4,1.2
	c0.1,0.4,0.1,0.9,0.1,1.4C73.1,67.5,73.1,68,73,68.4z M69.5,68.2c0,0.3,0.1,0.5,0.1,0.7c0.1,0.2,0.1,0.3,0.2,0.3
	c0.1,0.1,0.2,0.1,0.3,0.1c0.1,0,0.2,0,0.3-0.1c0.1-0.1,0.2-0.2,0.2-0.3c0-0.2,0.1-0.4,0.1-0.7c0-0.3,0-0.6,0-1.1c0-0.4,0-0.8,0-1.1
	c0-0.3,0-0.5-0.1-0.7c0-0.2-0.1-0.3-0.2-0.3c-0.1-0.1-0.2-0.1-0.3-0.1c-0.1,0-0.2,0-0.3,0.1c-0.1,0.1-0.1,0.2-0.2,0.3
	c-0.1,0.2-0.1,0.4-0.1,0.7c0,0.3,0,0.6,0,1.1C69.5,67.5,69.5,67.9,69.5,68.2z"/>
<path d="M75.4,63.6l0.6,5h0l0.7-5h2.5l0.7,5h0l0.6-5h2.3l-1.4,7h-2.6l-0.7-5h0l-0.7,5h-2.6l-1.4-7H75.4z"/>
<path d="M84.1,68.3v2.3h-1.9v-2.3H84.1z"/>
<path d="M23.3,13.2c0,1.2,0.1,4.3,1.6,6.7c-1.9,2.9-2,6.4-2,8.1c0,2.3,0.5,4.5,1.3,6.2C23.1,35,23,36,23,36.5
	c-1.5,0.6-2.6,2-2.6,3.7v3.9c0,2.1,1.5,3.7,3.6,4c19.2,2.5,20.1,11.1,28.7,11.1c9.7,0,9.5-8,22.1-10.1c1.9-0.3,3.4-2,3.4-3.9v-3.9
	c0-1.5-0.9-2.7-1.7-3.3c-0.1-1.1-0.9-2.9-3-3.5c0-0.4,0-28.2,0-28.2c0-2.2-1.8-4-4-4h-5.9c-2.1,0-3.2,1.5-3.6,2.3
	c-0.7-1.4-2-2.3-3.6-2.3h-5.9c-2.8,0-3.5,2.5-4.4,3.2C44,2.6,40.5,1.1,35.8,1.1C27.9,1.1,23.3,5.5,23.3,13.2z"/>
<g>
	<path class="st0" d="M48.9,16.4v15.9c1.1-0.7,6.5-0.7,7.6,0v-26h-5.9c-0.3,0.6-0.9,1.4-1.7,2.2c-0.9,0.8-1.8,1.6-3,2.1v6.3
		C46.7,16.9,47.8,16.7,48.9,16.4z"/>
	<path class="st0" d="M42.4,7.2c-1.5-1.4-3.6-2.1-6.5-2.1c-5.8,0-8.6,2.6-8.6,8.1c0,1.2,0.1,2.3,0.4,3.1c0.2,0.8,0.6,1.4,1,1.9
		c0.6,0.7,1.5,1.2,2.5,1.6c-3.5,1.4-4.2,4.1-4.2,8.1c0,2.8,0.7,4.8,2.1,6.2c1.5,1.4,3.7,2.1,6.8,2.1c5.9,0,8.8-2.7,8.9-8.2
		c0-1.4-0.1-2.8-0.4-4.1c-0.5-1.7-1.6-3.2-3.7-4.1c3.5-1,4-3.9,4-6.6c0-1.2-0.1-2.3-0.4-3.2C43.7,8.9,43.2,7.9,42.4,7.2z M38.5,27.5
		l0,0.2c0,2.7-0.9,4-2.6,4c-0.7,0-1.3-0.2-1.7-0.6c-0.9-0.9-1-2.4-1-3.5l0-0.2c0-1.8,0-5,2.6-5c0.7,0,1.2,0.2,1.6,0.6
		C38.5,24,38.5,26.1,38.5,27.5z M38.3,13.6c0,1,0,4-2.4,4c-0.6,0-1.1-0.2-1.5-0.6c-0.9-0.8-1-2.4-1-3.5l0,0c0-2.5,0.8-3.8,2.4-3.8
		c0.6,0,1.1,0.2,1.5,0.6C38,10.9,38.3,12,38.3,13.6z"/>
	<path class="st0" d="M63.7,6.3c-0.3,0.6-0.9,1.4-1.7,2.2c-0.9,0.8-2,1.6-3.2,2.1v6.3c0.9,0.1,2.1-0.1,3.2-0.4V36h7.6V6.3H63.7z"/>
</g>
<g>
	<path class="st1" d="M62.2,46.6c0.7-2.9,2.1-6.2,3.5-8h6.9C67.1,40.3,63.9,44.1,62.2,46.6z"/>
	<path class="st1" d="M43,46.6c-1.3-3.3-3-6-5.3-8h-9C35.7,40.5,40.3,43.6,43,46.6z"/>
</g>
<g>
	<path class="st2" d="M58.6,54.6c3.5-6.1,10.3-12,15.6-12.9v3.9C67.3,46.6,61.9,50.7,58.6,54.6z"/>
	<path class="st2" d="M48,54.6c-5.3-6.1-14.3-12.5-23.7-13.9v3.9C34.8,45.6,43,50.7,48,54.6z"/>
</g>
<g>
	<path class="st3" d="M62,36h-5.6v-1.9c-1.1-0.7-6.5-0.7-7.6,0V36h-5.6c0,8.3,2,16,9.3,18.6v0c0,0,0,0,0,0c0,0,0,0,0,0v0
		C60,52,62,44.3,62,36z"/>
	<path class="st4" d="M50.2,35.2c0,0-0.1,4.4,1.9,7.3c-0.5-2.6-0.5-4.5-0.6-7.5C50.9,35,50.2,35.2,50.2,35.2z"/>
	<path class="st4" d="M52.7,50.9l0,1.7c0,0,5-2.5,6.2-6.2C57.4,48.1,55.3,50.1,52.7,50.9z"/>
</g>
<path d="M77.4,33.7c-0.3,0.3-0.7,0.5-1.1,0.5c-0.5,0-0.8-0.2-1.2-0.5c-0.3-0.3-0.5-0.7-0.5-1.2c0-0.5,0.2-0.9,0.5-1.2
	c0.3-0.3,0.7-0.4,1.1-0.4c0.4,0,0.8,0.2,1.2,0.5c0.3,0.3,0.5,0.7,0.5,1.2C77.9,33,77.8,33.4,77.4,33.7z M75.3,31.6
	c-0.3,0.3-0.4,0.6-0.4,0.9c0,0.4,0.1,0.7,0.4,1c0.3,0.3,0.6,0.4,0.9,0.4c0.4,0,0.7-0.1,0.9-0.4c0.3-0.3,0.4-0.6,0.4-1
	c0-0.4-0.1-0.7-0.4-0.9c-0.3-0.3-0.6-0.4-0.9-0.4C75.9,31.2,75.6,31.3,75.3,31.6z M75.6,33.4v-1.8c0.1,0,0.3,0,0.5,0
	c0.2,0,0.3,0,0.4,0c0.1,0,0.3,0,0.4,0.1c0.2,0.1,0.2,0.2,0.2,0.4c0,0.2,0,0.3-0.1,0.3c-0.1,0.1-0.2,0.1-0.3,0.1
	c0.1,0,0.2,0.1,0.3,0.1c0.1,0.1,0.2,0.2,0.2,0.4v0.2c0,0,0,0,0,0.1c0,0,0,0,0,0.1l0,0.1h-0.4c0-0.1,0-0.1,0-0.2c0-0.1,0-0.2,0-0.2
	c0-0.1-0.1-0.1-0.1-0.1c0,0-0.1,0-0.2,0l-0.1,0h-0.1v0.6H75.6z M76.4,32c-0.1,0-0.2,0-0.3,0h-0.1v0.5h0.2c0.1,0,0.2,0,0.3-0.1
	c0.1,0,0.1-0.1,0.1-0.2C76.6,32.1,76.5,32,76.4,32z"/>
</svg>
