<?xml version="1.0" encoding="utf-8"?>
<!-- Generator: Adobe Illustrator 19.1.0, SVG Export Plug-In . SVG Version: 6.00 Build 0)  -->
<!DOCTYPE svg PUBLIC "-//W3C//DTD SVG 1.1//EN" "http://www.w3.org/Graphics/SVG/1.1/DTD/svg11.dtd">
<svg version="1.1" id="Layer_1" xmlns="http://www.w3.org/2000/svg" xmlns:xlink="http://www.w3.org/1999/xlink" x="0px" y="0px"
	 viewBox="-77 129.3 132.3 31.7" style="enable-background:new -77 129.3 132.3 31.7;" xml:space="preserve">
<style type="text/css">
	.st0{display:none;}
	.st1{display:inline;}
	.st2{fill:#FFFFFF;}
	.st3{fill:#00A8E1;}
</style>
<g id="wak_logo_white" class="st0">
	<g class="st1">
		<g>
			<g>
				<path class="st2" d="M16.2,154.1c0.1,0.1,0.4,1,0.2,1.5c0,0.1,0,0.3,0,0.4c-0.1,0.1-0.2,0.2-0.3,0.2c-0.3,0-0.6-0.1-0.9-0.3
					c-0.4-0.2-0.7-0.5-1.1-0.7c-1.2-0.6-2.9-1.7-4.2-2.1c-1.7-0.5-3.2-1.6-4.8-2.5c-0.5-0.3-1-0.6-1.5-0.9c-0.1-0.1-0.3,0-0.3,0.1
					S3.2,150,3.2,150s-0.1,0.2-0.1,0.3c-0.1,0.9-0.2,1.2-0.4,2.1c-0.2,0.9-0.9,2.6-1,3.2c-0.4,1.4-0.9,1.8-0.9,2.1
					c0,0.2-0.1,0.3-0.2,0.5c-0.2,0.2-0.6,0.3-0.8,0.2c-0.3-0.2-0.6-0.4-0.7-0.8c-0.2-0.8,0-0.6,0-1.4c0.1-1.1-0.1-0.6,0.1-1.8
					c0.1-0.6,0.1-0.5,0.1-1.2c0-0.7-0.1-0.1,0.1-0.8c0.1-0.3,0.1-0.7,0.1-1.1c0-0.3,0.1-0.5,0.1-0.8c0.1-0.9,0.3-1.7,0.4-2.6
					c0.1-1.5,0.4-2.9,0.5-4.4c0.2-1.9,0.4-3.8,0.7-5.7c0-0.1,0-0.2,0-0.3c0-0.6,0.2-1.2,0.1-1.7c-0.1-0.6-0.5-1-0.8-1.5
					c-0.1-0.2-0.2-0.5-0.3-0.7c-0.1-0.3,0.1-0.7,0.5-0.9c0.5-0.2,0.5,0.1,1,0.2c1.1,0.3,1.7,0.6,2.4,1.5c0.3,0.5,0.6,1,0.7,1.6
					c0,0.1,0.1,0.3,0.1,0.4c0.4,1-0.3,5.3-0.5,5.7c0,0.1,0,0.2,0.1,0.2s0.2,0,0.2,0c1.6-1,3.6-2.5,4.9-3.8c0.9-0.9,1.6-2,2.4-2.8
					c0.5-0.5,0.6-1.1,0.9-1.8c0.4-1.6,2.7-0.8,2.8-0.6c0.2,0.4,0.3,0.7,0.1,1.1c-0.1,0.3-0.2,0.6-0.4,0.9c-0.1,0.2-0.3,0.5-0.4,0.7
					c-0.2,0.8-0.7,1.5-1,2.3c-0.1,0.4-0.4,0.7-0.6,1c-0.7,0.8-1.4,1.6-2.3,2.2c-0.4,0.3-0.8,0.6-1.2,0.9c-0.5,0.4-1.1,0.8-1.6,1.1
					c-1.1,0.7-1.4,1.1-2.5,1.8c-0.4,0.3-0.9,0.6-0.8,0.7c0.1,0.1,0.2,0.2,0.3,0.3c0.6,0.5,1.4,1.1,2.2,1.4c1.7,0.8,2.5,1.9,4.1,2.8
					c0.3,0.1,0.5,0.5,0.8,0.6C12.7,151.3,15.6,153.7,16.2,154.1"/>
				<path class="st2" d="M12.8,152.3L12.8,152.3C12.9,152.4,12.8,152.3,12.8,152.3L12.8,152.3z"/>
				<path class="st2" d="M22.6,140.6c-0.4-0.5-0.9-0.9-1.5-1c-0.9-0.2-1.8-0.1-2.6,0.5c-1,0.7-0.6-0.2-1.5,0.7
					c-1.4,1.3-2.6,2.7-3.6,4.5c-0.6,1-0.8,2-1.1,3.1c0,0.2-0.1,0.3-0.1,0.5c0.1,1.2,0.1,2.4,0.9,3.3c0.1,0.1,0.3,0.3,0.4,0.4
					c0.4,0.2,0.9,0.6,1.3,0.7c0.7,0.2,1,0.1,1.6,0c1.1-0.2,2.3-0.3,3.2-1.2c0.1-0.1,0.2-0.1,0.2-0.2c0.8-0.5,2-1.3,2.4-2.2
					c1.3-2.6,1.3-6.3,1.4-6.3C23.9,142.6,23.1,141.1,22.6,140.6 M20.8,143.8c-0.2,1.4-0.5,2.8-1.2,4c-0.4,0.7-0.7,1.6-1.3,2
					c-0.2,0.1-0.4,0.2-0.6,0.3c-0.6,0.6-1.3,1.1-2.1,1.2c-0.1,0-0.2-0.1-0.2-0.1c0-0.1,0-0.2,0-0.3c-0.7-2.3,0.7-4.2,1.2-5
					c1.3-1.9,2.9-3.1,3.7-2.7c0.1,0,0.2-0.1,0.3-0.1c0.1,0,0.1,0.2,0.1,0.3C20.6,143.7,20.8,143.6,20.8,143.8"/>
				<path class="st2" d="M-48.4,152c0.6,0,1-0.2,1.5-0.5c0.1-0.1,0.4,0,0.4,0.2c0.1,0.1,0.1,0.2,0.2,0.3c0.2,0.7,0.2,1.8-0.5,2.1
					c-0.5,0.2-0.9,0.3-1.4,0.5c-0.5,0.1-4.2,0.8-4.9,0.6c-0.6-0.1-1.6,0.8-2.2,0.7c-0.4-0.1-0.8-0.3-1.1-0.6c-0.3-0.3-0.5-0.6-0.7-1
					c-0.3-0.8-0.5-1.5-0.4-2.3c0.1-0.9,0.2-1.9,0.3-2.8c0.1-0.8,0.3-1.6,0.5-2.3c0.3-1,0.6-2.1,0.9-3.1c0.1-0.4,0.3-0.8,0.3-1.5
					c0-0.2-0.1-0.3-0.1-0.4c0-0.1,0-0.3,0.1-0.3c0.4-0.3,2.5-0.4,2.7-0.2c0.1,0.1,0.2,0.2,0.3,0.2c0.7-0.1,2.6,0.1,3.2-0.1
					c1-0.2,1.8-0.9,2.7-0.4c0.2,0.1,0.4,0.3,0.5,0.4c0.3,0.3,0.3,0.7,0.1,1.1c-0.6,0.3-1.4,0.9-2,1.2c-0.2,0.1-1,0.4-1.2,0.5
					c-0.6,0.2-1.8,0.3-2.5,0.3c-0.3,0-0.6,0-0.9,0.1c-0.1,0-0.3,0.1-0.3,0.2c-0.2,0.6-0.5,1.2-0.7,1.8c0,0.1,0.1,0.3,0.3,0.4
					c0.4,0.1,2.9,0.1,3.3-0.1c0.3-0.1,0.6-0.2,0.9-0.4c0.3-0.1,0.6-0.2,0.9-0.1c0.1,0,0.3,0.1,0.4,0.1c0.5,0.5,0.2-0.1,0.4,0.5
					c0.1,0.2,0,0.4-0.1,0.5c-0.5,0.5-1.6,1-2.4,1.3c-0.5,0.2-3.1,0.8-3.7,0.6c-0.2-0.1-0.6,0.4-0.6,0.5c0,0.1,0,0.1,0,0.2
					c-0.1,0.8-0.1,1.7-0.2,2.5c0,0.2,0,0-0.1,0.1c0,0.1,0,0.2,0,0.3C-54.7,153.3-50.2,152.1-48.4,152"/>
				<path class="st2" d="M-17,153.7c-0.1-0.3-0.1-0.7-0.3-0.9c-0.3-0.4-0.4-0.5-0.5-1.1c0-0.3-0.7-0.7-0.8-0.6
					c-0.1,0.1-0.4-0.1-0.4-0.2c-0.2-0.2-0.5-0.4-0.7-0.7c-0.7-0.8-1.2-1.1-2-1.8c-0.2-0.2-0.4-0.4-0.6-0.6c-0.1-0.1-0.1-0.1-0.1-0.2
					c-0.1-0.1,0-0.3,0.1-0.3c0.7-0.5,1.1-1,1.8-1.5c0.9-0.6,1.7-1.4,2.5-2.1c0.4-0.3,0.7-0.7,1-1.1c0.5-0.6,0.8-1.2,1.1-1.9
					s0.3-1.3,0.2-2c0-0.1,0-0.2-0.1-0.2c-0.3-0.6-0.6-1.1-1.3-1.3c-0.1,0-0.2-0.1-0.5-0.2c-0.9-0.3-2-0.1-3,0.4
					c-1,0.4-1.8,1-2.6,1.7c-0.5,0.4-1,0.9-1.4,1.3c-0.2,0.2-0.4,0.4-0.7,0.5c-0.2,0.1-0.4,0-0.6,0H-26c-0.5,0-0.8,0.4-0.8,0.9
					c0,0.2,0,0.4,0,0.6c0,0.4-0.2,0.7-0.5,0.9c-0.7,0.4-1.5,0.7-2.3,0.7c-0.2,0-0.4-0.1-0.4-0.4c0-0.1,0.2-1.5,0.2-1.6
					c0-0.8,0-2.7,0-3.6c0-1-0.1-2-0.1-2.9c0-0.7-0.3-1.3-0.8-1.9c-0.4-0.5-1-0.8-1.7-0.8c-1.6,0.2-2.8,0.7-3.6,2
					c-0.1,0.1-0.4,0.5-0.5,0.7c-0.4,1-0.3,0.4-0.6,1.5c-0.5,0.9-1.7,5.5-2,6.4c-0.2,0.5-0.4,1-0.6,1.5c-0.1,0.2-0.2,0.3-0.3,0.3
					c-0.2,0-0.5,0.1-0.7,0.1c-0.4,0.1-0.6,0.4-0.7,0.8c-0.1,0.4-0.2,1.5,0.1,1.9c0.1,0.2,0.6,0.3,0.8,0.6c0.1,0.1-0.2,0.5-0.3,0.6
					c-0.2,0.6-0.3,0.5-0.4,1c-0.1,0.5-0.6,2.9-1,3.1c-0.1,0-0.1,0.1-0.2,0.1c-0.2,0.2-0.3,0.5-0.3,0.8c0,0.4,0.2,0.8,0.5,1
					c0.4,0.3,0.8,0.5,1.3,0.4c0.1,0,0.2,0,0.4,0s0.3-0.1,0.4-0.2c1-0.8,1.8-3.7,2.1-4.9c0.1-0.4,0.2-0.9,0.3-1.3
					c0.1-0.2,0.2-0.3,0.4-0.3c0.5-0.1,1.2,0,1.7-0.1c0.6-0.1,1.2-0.2,1.7-0.5c0.2-0.1,0.4-0.1,0.6-0.2c0.1,0,0.3,0.1,0.3,0.2
					s0,0.2,0.1,0.4c0.1,1.1,0.2,2.2,0.3,3.3c0.1,0.7,0.3,3.7,0.2,4.4c0,0.1,0,0.3,0.1,0.5c0.3,0.4,0.6,0.8,0.9,1.1
					c0.1,0.1,0.1,0.1,0.2,0.2c0.2,0.2,0.4,0.1,0.7,0c0.2-0.1,0.4-0.3,0.5-0.5c0.1-0.3,0.2-0.6,0.2-1c0-0.6-0.1-3.4,0-4
					c0-0.5,0-1,0-1.5c0-1.1,0-2.3,0-3.4c0-1,0-1.1,0.9-1.5c0.3-0.2,0.6-0.3,0.9-0.5c0.3-0.1,0.5-0.2,0.8-0.2s0.5,0.2,0.4,0.4
					c-0.1,0.5-0.2,0.9-0.4,1.4c-0.2,0.7-0.3,0.8-0.4,1.5c-0.2,1.1-0.4,2.2-0.7,3.2c-0.1,0.4-0.1,0.8-0.1,1.2c0,0.1,0,0.2,0,0.2
					c0.2,0.3,0.3,0.6,0.5,0.8c0.1,0.1,0.3,0.2,0.4,0.3c0.2,0.1,0.4,0,0.6-0.1c0.1-0.1,0.1-0.1,0.2-0.2c0.3-0.5,0.6-1.1,0.8-1.6
					c0.1-0.3,0.2-0.6,0.3-0.8c0.2-0.4,0.4-0.8,0.5-1.2c0.2-0.5,0.3-1,0.5-1.5c0-0.1,0.1-0.2,0.2-0.3c0-0.1,0.1-0.1,0.2-0.1
					c0.5,0.2,0.9,0.6,1.2,0.9c0.5,0.5,1,0.9,1.5,1.4c0.4,0.3,0.7,0.6,1.1,1c0.5,0.5,1,1,1.5,1.6c0.3,0.3,0.6,0.6,1.1,0.8
					c0.3,0.1,0.6,0,0.8-0.1C-17.1,154.2-16.9,153.9-17,153.7 M-33.4,144.8c-0.9,0.2-2.3,0.5-3.2,0.6c-0.1,0-0.2-0.1-0.2-0.2
					c0.1-0.3,0.2-0.6,0.3-0.9c0.4-1.5,1.4-5.2,2.3-6.5c0.1-0.2,0.7-1,0.9-1.1c0.1,0,0.2,0,0.2,0.1c0,0.2,0.4,0.3,0.4,0.5
					c0,1-0.1,4.9-0.2,5.9c0,0.5,0,1.1,0,1.6C-33,144.7-33.3,144.7-33.4,144.8 M-23.8,144.7L-23.8,144.7l-0.6,0.2
					c-0.1-0.2,0.2-1.9,0.3-2.1c0.3-0.5,1.9-1.4,2.4-1.8c0.2-0.2,1.9-1.2,2.5-1c0.1,0,0.1-0.1,0.2-0.1c0.1,0,0.2,0,0.2,0
					c0.1,0,0.1,0.2,0,0.3c-0.1,0.2-0.2,0.4-0.4,0.6c-0.4,0.4-0.8,0.9-1.1,1.3l-0.1,0.1C-21.3,143.1-22.5,144-23.8,144.7"/>
				<path class="st2" d="M-5.6,150.6c0-0.1,0.3-1.3-0.1-1.5c-0.3,0.1-0.5,0-0.7,0.4c-0.3,0.7-2.6,1.7-4.1,2.2
					c-0.6,0.2-1.1,0.3-1.7,0.4c-0.3,0.1-0.7,0-1.1,0c-0.1,0-0.3-0.2-0.3-0.3v-0.1c0.1-0.5,0.1-1,0.2-1.5c0-0.3,0.1-0.6,0.3-0.8
					c0.1-0.2,0.3-0.4,0.6-0.3s0.6,0,0.8,0c0.7-0.1,1.4-0.3,2.1-0.4c0.3-0.1,0.5-0.2,0.7-0.4c0.2-0.1,0.4-0.2,0.6-0.4
					c0.1-0.1,1.1-0.9,1.1-0.9l0.1-0.1c0.3-0.3,0.6-0.6,0.9-0.8c0.5-0.4,0.8-0.9,1.1-1.4v-0.2c0-0.1-0.1-0.1-0.2-0.1
					c-0.4,0-0.8,0.1-1.2,0.2c-0.6,0.2-1.7,0.9-2.3,1.1c-1,0.4-2.4,0.8-3.4,1.1c-0.1,0-0.2,0-0.3,0.1c0,0-0.1,0-0.1-0.1
					c0-0.6,0-1.5,0-2.1c0-0.1,0.1-0.1,0.1-0.2c0.3,0,0.6-0.1,0.8-0.1c0.4,0,1.5-0.2,1.8-0.4c0.9-0.4,1-0.2,1.7-0.9
					c0.5-0.5,1.5-0.9,2-1.3c0.7-0.5,1.2-1.1,1.8-1.7c0.2-0.2,0.3-0.4,0.3-0.6c0-0.1,0-0.2,0-0.3c-0.1-0.4,0.1-1.4-0.4-1.3
					c-0.1,0-0.2,0-0.3,0.1c-0.7,0.3-2.2,1.2-2.8,1.6c-1.3,0.7-1.7,0.7-3,1.3c-0.7,0.3-3.3,0.5-3.4,0.4c-0.2-0.1-0.4-0.2-0.7-0.2
					c-0.2,0,0.1,0-0.1,0c-0.2,0-0.5,0.1-0.6,0.2c-0.2,0.2-0.3,0.3-0.2,0.6s0.2,4.1,0,4.3c-0.2,0.2-0.3,0.5-0.3,0.8
					c0.1,0.7,0,1.4-0.1,2.1c0,0.8,0,1.6,0,2.4s0.3,1.6,0.9,2.3c0.2,0.2,0.6,0.6,0.8,0.7c0.2,0,0.5,0.1,0.7,0.1c0.4,0,0.9,0,1.3,0.1
					c1,0.1,1.8-0.1,2.7-0.5c0.3-0.1,0.6-0.2,0.8-0.5c0.1-0.1,0.2-0.2,0.4-0.3C-7.5,153-5.6,151.1-5.6,150.6"/>
				<path class="st2" d="M12.8,152.3L12.8,152.3C12.9,152.4,12.8,152.3,12.8,152.3L12.8,152.3z"/>
				<path class="st2" d="M54.9,144.4c0-0.1,0-0.2-0.1-0.3c-0.1-0.1-0.2-0.1-0.3-0.1c-0.5,0.1-0.9,0.3-1.3,0.6
					c-0.6,0.4-0.5,0.1-3.1,0.9c-0.3,0.1-1.2,0.2-1.6,0.3c-0.1,0-0.3-0.1-0.2-0.3c0.2-0.4,0.3-0.8,0.5-1.2s0.1-0.2,0.2-0.6
					c0.3-1,0.6-2,0.9-2.9c0.2-0.8,0.3-1.5,0.2-2.3c0-0.5-0.1-1-0.2-1.5c-0.2-1.4-0.6-2.3-2-2.4c-0.1,0-0.2,0-0.3,0c-0.3,0-0.7,0-1,0
					c0,0-0.2,3.8-0.3,4.3c-0.2,0.7-0.4,1.3-0.6,2c0,0,0,0-0.1,0c-0.2,0.7-0.4,1.3-0.6,2c-0.6,1.6-0.6,1.8-1.1,3.5
					c-0.1,0.3-0.3,0.5-0.6,0.6c-0.1,0-0.2,0.1-0.3,0.1c-1.1,0.3-1.9,0.4-3,0.7c-0.2,0.1-0.4,0.1-0.6,0.1c-0.1,0-0.4-0.1-0.4-0.2
					c0.1-0.2,0.3-0.6,0.4-0.8c0.5-0.7,0.4-0.6,0.6-1c0.2-0.3,0.3-0.6,0.5-0.9c0.5-0.9,1.1-3.5,1.5-5.5c-0.1,0.2-0.2,0.4-0.4,0.6
					c-0.3-0.2-0.2-0.5-0.2-0.8s-0.1-0.5-0.2-0.7c-0.3-0.3-0.6-0.5-1-0.6c-0.6-0.1-1.2,0-1.7,0.3c-0.3,0.2-0.5,0.4-0.5,0.7
					c-0.1,0.4-0.1,0.8-0.3,1.1c-0.5,0.9-0.1,2-0.8,2.9c-0.4,0.5-1.3,2.8-1.7,3.3c-0.8,1-1.5,1.3-2.5,2.2c-1.2,1-3.2,1.6-4.6,2.2
					c-0.5,0.2-3.3-0.1-3-2.4c0.1-0.6,0.2-1.1,0.4-1.3c1-1.5,2.6-2.3,4.3-3c1.1-0.4,2.2-0.6,3.2-1.3c0.2-0.1,0.3-0.6,0.5-0.8
					c0.3-0.3,0-1-0.3-1.4c-0.5-0.6-1.4-0.9-2.1-0.6c-0.4,0.2-0.9,0.5-1.3,0.7c-0.9,0.3-1.7,0.6-2.4,1.2c-0.3,0.2-2.1,1.3-2.7,2
					c-2.5,2.7-2.9,5.7-2.8,6.1c0.3,1,0.9,1.7,1.7,2.3c0.2,0.1,1.9,1.2,2.7,1.1c1.8-0.2,3.1-0.4,4.6-1.3c0.8-0.5,1.5-1.1,2.1-1.8
					c0.3-0.3,1-1,1.3-1.3c0,0.1-0.3,0.6-0.3,0.6c-0.6,1.1-0.7,1.2-1.3,2.3c-0.5,0.8-0.9,1.6-1.2,2.5c-0.1,0.4-0.4,0.8-0.3,1.3
					s0.3,0.9,0.5,1.4c0.1,0.1,0.1,0.3,0.2,0.4c0.1,0.1,0.2,0.2,0.3,0.3c0.2,0.2,0.6,0.1,0.8-0.1c0.2-0.2,0.4-0.4,0.5-0.7
					c0.4-0.7,0.9-1.4,1.4-2c0.2-0.2,2-3.9,2.3-3.8c0.2,0,1.7-0.1,2.1-0.2c1-0.3,2-0.3,3-0.3c0.1,0,0.2,0.1,0.2,0.2
					c0,0.6-0.5,2.3-0.7,2.9c-0.2,0.7-0.6,2-0.7,2.7c-0.1,0.6-0.4,1.2-0.5,1.8c0,0.1-0.2,0.2-0.4,0.3c-0.6,0.5,0.3,1.2,1.2,2
					c0.4,0.4,0.7,0.2,1-0.3c0-0.1,0.1-0.2,0.1-0.3c0.3-0.7,0.6-1.4,0.9-2c0.5-0.9,0.9-2,1.4-2.9c0.2-0.3,0.3-0.6,0.3-1
					c0.1-1,0.8-2.5,1-3.5c0.1-0.3,0.2-0.4,0.5-0.5c0.8-0.3,2-0.5,2.8-0.8c2.2-0.5,4.2-0.7,4.4-0.8c0.1-0.1,0.2-0.2,0.2-0.4
					c0-0.5-0.1-0.9-0.5-1.3c-0.1-0.1,0.4,0.2,0.4,0.1c-0.2-0.3-0.2-0.5-0.1-0.8C54.6,145.3,54.7,144.9,54.9,144.4"/>
				<path class="st2" d="M-54.6,130.4c0-0.1-0.1-0.2-0.1-0.2c-0.1-0.1-0.3-0.2-0.4-0.2c-0.2,0.1-2.5,1.4-4.2,7.6
					c-0.4,1-0.8,1.9-1.3,2.8c-0.3,0.5-0.5,1.1-0.7,1.7c-0.1,0.3-0.1,0.5-0.2,0.7c-0.3,0.5-1.4,4.8-1.8,6.4c-0.1,0.3-0.1,0.5-0.2,0.7
					c0,0.1-0.1,0.2-0.2,0.2c-0.1,0-0.2-0.1-0.2-0.2c-0.4-1.1-0.6-2.3-0.7-3.4c-0.1-1-0.2-3.4-0.4-4.4c-0.1-0.9-0.4-1.7-0.5-2.5
					c-0.1-0.3-0.2-0.6-0.4-0.8c-0.1-0.1-0.2-0.3-0.4-0.3c-0.2-0.2-0.6-0.2-1,0c-0.1,0.1-0.2,0.2-0.3,0.4c-0.3,1.1-0.8,2.2-1.3,3.2
					c-0.6,1.4-1.4,4.1-2,5.4c-0.2,0.3-0.4,0.7-0.6,1c0,0-0.1,0-0.1,0.1c-0.1,0.1-0.2,0-0.2-0.1c-0.2-0.8-0.1-0.7-0.1-1.5
					c-0.1-1.8,0.1-2.4-0.1-4.2c0-0.4-0.3-3.9-0.8-4.8c-0.2-0.4-0.5-0.7-0.7-1.1c-0.3-0.5-0.7-0.8-1.2-1.1c-0.5-0.2-0.9-0.2-1.3,0
					c-0.2,0.1-0.3,0.2-0.3,0.4c-0.1,0.3-0.1,0.5,0,0.8c0.3,0.3,1,3.3,1.1,4.8c0.1,0.6,0.2,1.3,0.2,2c0,1.6,0.1,1.9,0.1,3.5
					c0.2,0.8,0.1,0.7,0.1,1.5c0,1.1-0.1,4.9-0.3,6c-0.1,0.6,0.1,1.4,0.2,1.9c0,0.1,0.1,0.2,0.2,0.3c0.4,0.4,0.9,0.8,1.4,1.1
					c0.2,0.1,0.3,0.1,0.3,0.2c0.7,0.2,1.1-1.3,1.4-1.5c0.7-0.7,2-6,2.1-6.3c0.4-1.2,0.7-3,1.3-4.1c0.1-0.1,0.2-0.3,0.2-0.4
					c0.2-0.8,0.6-1.5,1-2.3c0.1,0.2,0.1,0.5,0.1,0.6c0.1,0.8,0.2,1.5,0.3,2.3c0.2,1.5,0.7,3.7,1.2,5.2c0.2,0.7,0.1,1.2,0.3,2.1
					c0,0.1,0.3,0.2,0.4,0.4c0.2,0.4,0.4,0.6,0.6,1c0.4,0.6,1,0.9,1.8,0.9c0.4,0,0.8-0.2,0.9-0.6c0.1-0.2,0.1-0.4,0.2-0.6
					c0.2-0.8,0.5-1.6,0.7-2.4c0.2-0.6,0.5-2.1,0.6-2.3c0.1-0.9,0.4-1.7,0.5-2.5c0-0.6,0.3-1.2,0.4-1.8c0-0.2,1.7-5.2,1.8-5.4
					c0-0.1,0.1-0.4,0.2-0.7c0.3-0.4,0.5-0.9,0.5-1.4s0.1-1,0.4-1.3c0.4-0.5,0.5-1,0.7-1.5c0.3-1.2,0.6-2.3,0.7-3.5
					C-54.6,131.6-54.5,131-54.6,130.4"/>
			</g>
		</g>
	</g>
</g>
<g id="wak_logo_color">
	<g>
		<g>
			<g>
				<path class="st3" d="M16.2,154.1c0.1,0.1,0.4,1,0.2,1.5c0,0.1,0,0.3,0,0.4c-0.1,0.1-0.2,0.2-0.3,0.2c-0.3,0-0.6-0.1-0.9-0.3
					c-0.4-0.2-0.7-0.5-1.1-0.7c-1.2-0.6-2.9-1.7-4.2-2.1c-1.7-0.5-3.2-1.6-4.8-2.5c-0.5-0.3-1-0.6-1.5-0.9c-0.1-0.1-0.3,0-0.3,0.1
					S3.2,150,3.2,150c0,0.1-0.1,0.2-0.1,0.3c-0.1,0.9-0.2,1.2-0.4,2.1c-0.2,0.9-0.9,2.6-1,3.2c-0.4,1.4-0.9,1.8-0.9,2.1
					c0,0.2-0.1,0.3-0.2,0.5c-0.2,0.2-0.6,0.3-0.8,0.2c-0.3-0.2-0.6-0.4-0.7-0.8c-0.2-0.8,0-0.6,0-1.4c0.1-1.1-0.1-0.6,0.1-1.8
					c0.1-0.6,0.1-0.5,0.1-1.2c0-0.7-0.1-0.1,0.1-0.8c0.1-0.3,0.1-0.7,0.1-1.1c0-0.3,0.1-0.5,0.1-0.8c0.1-0.9,0.3-1.7,0.4-2.6
					c0.1-1.5,0.4-2.9,0.5-4.4c0.2-1.9,0.4-3.8,0.7-5.7c0-0.1,0-0.2,0-0.3c0-0.6,0.2-1.2,0.1-1.7c-0.1-0.6-0.5-1-0.8-1.5
					c-0.1-0.2-0.2-0.5-0.3-0.7c-0.1-0.3,0.1-0.7,0.5-0.9c0.5-0.2,0.5,0.1,1,0.2c1.1,0.3,1.7,0.6,2.4,1.5c0.3,0.5,0.6,1,0.7,1.6
					c0,0.1,0.1,0.3,0.1,0.4c0.4,1-0.3,5.3-0.5,5.7c0,0.1,0,0.2,0.1,0.2s0.2,0,0.2,0c1.6-1,3.6-2.5,4.9-3.8c0.9-0.9,1.6-2,2.4-2.8
					c0.5-0.5,0.6-1.1,0.9-1.8c0.4-1.6,2.7-0.8,2.8-0.6c0.2,0.4,0.3,0.7,0.1,1.1c-0.1,0.3-0.2,0.6-0.4,0.9c-0.1,0.2-0.3,0.5-0.4,0.7
					c-0.2,0.8-0.7,1.5-1,2.3c-0.1,0.4-0.4,0.7-0.6,1c-0.7,0.8-1.4,1.6-2.3,2.2c-0.4,0.3-0.8,0.6-1.2,0.9c-0.5,0.4-1.1,0.8-1.6,1.1
					c-1.1,0.7-1.4,1.1-2.5,1.8c-0.4,0.3-0.9,0.6-0.8,0.7c0.1,0.1,0.2,0.2,0.3,0.3c0.6,0.5,1.4,1.1,2.2,1.4c1.7,0.8,2.5,1.9,4.1,2.8
					c0.3,0.1,0.5,0.5,0.8,0.6C12.7,151.3,15.6,153.7,16.2,154.1"/>
				<path class="st3" d="M12.8,152.3L12.8,152.3C12.9,152.4,12.9,152.3,12.8,152.3L12.8,152.3z"/>
				<path class="st3" d="M22.6,140.5c-0.4-0.5-0.9-0.9-1.5-1c-0.9-0.2-1.8-0.1-2.6,0.5c-1,0.7-0.6-0.2-1.5,0.7
					c-1.4,1.3-2.6,2.7-3.6,4.5c-0.6,1-0.8,2-1.1,3.1c0,0.2-0.1,0.3-0.1,0.5c0.1,1.2,0.1,2.4,0.9,3.3c0.1,0.1,0.3,0.3,0.4,0.4
					c0.4,0.2,0.9,0.6,1.3,0.7c0.7,0.2,1,0.1,1.6,0c1.1-0.2,2.3-0.3,3.2-1.2c0.1-0.1,0.2-0.1,0.2-0.2c0.8-0.5,2-1.3,2.4-2.2
					c1.3-2.6,1.3-6.3,1.4-6.3C24,142.6,23.1,141.1,22.6,140.5 M20.8,143.8c-0.2,1.4-0.5,2.8-1.2,4c-0.4,0.7-0.7,1.6-1.3,2
					c-0.2,0.1-0.4,0.2-0.6,0.3c-0.6,0.6-1.3,1.1-2.1,1.2c-0.1,0-0.2-0.1-0.2-0.1c0-0.1,0-0.2,0-0.3c-0.7-2.3,0.7-4.2,1.2-5
					c1.3-1.9,2.9-3.1,3.7-2.7c0.1,0,0.2-0.1,0.3-0.1c0.1,0,0.1,0.2,0.1,0.3C20.6,143.7,20.8,143.6,20.8,143.8"/>
				<path class="st3" d="M-48.4,152c0.6,0,1-0.2,1.5-0.5c0.1-0.1,0.4,0,0.4,0.2c0.1,0.1,0.1,0.2,0.2,0.3c0.2,0.7,0.2,1.8-0.5,2.1
					c-0.5,0.2-0.9,0.3-1.4,0.5c-0.5,0.1-4.2,0.8-4.9,0.6c-0.6-0.1-1.6,0.8-2.2,0.7c-0.4-0.1-0.8-0.3-1.1-0.6c-0.3-0.3-0.5-0.6-0.7-1
					c-0.3-0.8-0.5-1.5-0.4-2.3c0.1-0.9,0.2-1.9,0.3-2.8c0.1-0.8,0.3-1.6,0.5-2.3c0.3-1,0.6-2.1,0.9-3.1c0.1-0.4,0.3-0.8,0.3-1.5
					c0-0.2-0.1-0.3-0.1-0.4c0-0.1,0-0.3,0.1-0.3c0.4-0.3,2.5-0.4,2.7-0.2c0.1,0.1,0.2,0.2,0.3,0.2c0.7-0.1,2.6,0.1,3.2-0.1
					c1-0.2,1.8-0.9,2.7-0.4c0.2,0.1,0.4,0.3,0.5,0.4c0.3,0.3,0.3,0.7,0.1,1.1c-0.6,0.3-1.4,0.9-2,1.2c-0.2,0.1-1,0.4-1.2,0.5
					c-0.6,0.2-1.8,0.3-2.5,0.3c-0.3,0-0.6,0-0.9,0.1c-0.1,0-0.3,0.1-0.3,0.2c-0.2,0.6-0.5,1.2-0.7,1.8c0,0.1,0.1,0.3,0.3,0.4
					c0.4,0.1,2.9,0.1,3.3-0.1c0.3-0.1,0.6-0.2,0.9-0.4c0.3-0.1,0.6-0.2,0.9-0.1c0.1,0,0.3,0.1,0.4,0.1c0.5,0.5,0.2-0.1,0.4,0.5
					c0.1,0.2,0,0.4-0.1,0.5c-0.5,0.5-1.6,1-2.4,1.3c-0.5,0.2-3.1,0.8-3.7,0.6c-0.2-0.1-0.6,0.4-0.6,0.5c0,0.1,0,0.1,0,0.2
					c-0.1,0.8-0.1,1.7-0.2,2.5c0,0.2,0,0-0.1,0.1c0,0.1,0,0.2,0,0.3C-54.7,153.3-50.2,152.1-48.4,152"/>
				<path class="st3" d="M-17,153.6c-0.1-0.3-0.1-0.7-0.3-0.9c-0.3-0.4-0.4-0.5-0.5-1.1c0-0.3-0.7-0.7-0.8-0.6s-0.4-0.1-0.4-0.2
					c-0.2-0.2-0.5-0.4-0.7-0.7c-0.7-0.8-1.2-1.1-2-1.8c-0.2-0.2-0.4-0.4-0.6-0.6c-0.1-0.1-0.1-0.1-0.1-0.2c-0.1-0.1,0-0.3,0.1-0.3
					c0.7-0.5,1.1-1,1.8-1.5c0.9-0.6,1.7-1.4,2.5-2.1c0.4-0.3,0.7-0.7,1-1.1c0.5-0.6,0.8-1.2,1.1-1.9c0.3-0.7,0.3-1.3,0.2-2
					c0-0.1,0-0.2-0.1-0.2c-0.3-0.6-0.6-1.1-1.3-1.3c-0.1,0-0.2-0.1-0.5-0.2c-0.9-0.3-2-0.1-3,0.4c-1,0.4-1.8,1-2.6,1.7
					c-0.5,0.4-1,0.9-1.4,1.3c-0.2,0.2-0.4,0.4-0.7,0.5c-0.2,0.1-0.4,0-0.6,0H-26c-0.5,0-0.8,0.4-0.8,0.9c0,0.2,0,0.4,0,0.6
					c0,0.4-0.2,0.7-0.5,0.9c-0.7,0.4-1.5,0.7-2.3,0.7c-0.2,0-0.4-0.1-0.4-0.4c0-0.1,0.2-1.5,0.2-1.6c0-0.8,0-2.7,0-3.6
					c0-1-0.1-2-0.1-2.9c0-0.7-0.3-1.3-0.8-1.9c-0.4-0.5-1-0.8-1.7-0.8c-1.6,0.3-2.8,0.8-3.6,2.1c-0.1,0.1-0.4,0.5-0.5,0.7
					c-0.4,1-0.3,0.4-0.6,1.5c-0.5,0.9-1.7,5.5-2,6.4c-0.2,0.5-0.4,1-0.6,1.5c-0.1,0.2-0.2,0.3-0.3,0.3c-0.2,0-0.5,0.1-0.7,0.1
					c-0.4,0.1-0.6,0.4-0.7,0.8c-0.1,0.4-0.2,1.5,0.1,1.9c0.1,0.2,0.6,0.3,0.8,0.6c0.1,0.1-0.2,0.5-0.3,0.6c-0.2,0.6-0.3,0.5-0.4,1
					c-0.1,0.5-0.6,2.9-1,3.1c-0.1,0-0.1,0.1-0.2,0.1c-0.2,0.2-0.3,0.5-0.3,0.8c0,0.4,0.2,0.8,0.5,1c0.4,0.3,0.8,0.5,1.3,0.4
					c0.1,0,0.2,0,0.4,0s0.3-0.1,0.4-0.2c1-0.8,1.8-3.7,2.1-4.9c0.1-0.4,0.2-0.9,0.3-1.3c0.1-0.2,0.2-0.3,0.4-0.3
					c0.5-0.1,1.2,0,1.7-0.1c0.6-0.1,1.2-0.2,1.7-0.5c0.2-0.1,0.4-0.1,0.6-0.2c0.1,0,0.3,0.1,0.3,0.2s0,0.2,0.1,0.4
					c0.1,1.1,0.2,2.2,0.3,3.3c0.1,0.7,0.3,3.7,0.2,4.4c0,0.1,0,0.3,0.1,0.5c0.3,0.4,0.6,0.8,0.9,1.1c0.1,0.1,0.1,0.1,0.2,0.2
					c0.2,0.2,0.4,0.1,0.7,0c0.2-0.1,0.4-0.3,0.5-0.5c0.1-0.3,0.2-0.6,0.2-1c0-0.6-0.1-3.4,0-4c0-0.5,0-1,0-1.5c0-1.1,0-2.3,0-3.4
					c0-1,0-1.1,0.9-1.5c0.3-0.2,0.6-0.3,0.9-0.5c0.3-0.1,0.5-0.2,0.8-0.2s0.5,0.2,0.4,0.4c-0.1,0.5-0.2,0.9-0.4,1.4
					c-0.2,0.7-0.3,0.8-0.4,1.5c-0.2,1.1-0.4,2.2-0.7,3.2c-0.1,0.4-0.1,0.8-0.1,1.2c0,0.1,0,0.2,0,0.2c0.2,0.3,0.3,0.6,0.5,0.8
					c0.1,0.1,0.3,0.2,0.4,0.3c0.2,0.1,0.4,0,0.6-0.1c0.1-0.1,0.1-0.1,0.2-0.2c0.3-0.5,0.6-1.1,0.8-1.6c0.1-0.3,0.2-0.6,0.3-0.8
					c0.2-0.4,0.4-0.8,0.5-1.2c0.2-0.5,0.3-1,0.5-1.5c0-0.1,0.1-0.2,0.2-0.3c0-0.1,0.1-0.1,0.2-0.1c0.5,0.2,0.9,0.6,1.2,0.9
					c0.5,0.5,1,0.9,1.5,1.4c0.4,0.3,0.7,0.6,1.1,1c0.5,0.5,1,1,1.5,1.6c0.3,0.3,0.6,0.6,1.1,0.8c0.3,0.1,0.6,0,0.8-0.1
					C-17.1,154.1-16.9,153.9-17,153.6 M-33.4,144.8c-0.9,0.2-2.3,0.5-3.2,0.6c-0.1,0-0.2-0.1-0.2-0.2c0.1-0.3,0.2-0.6,0.3-0.9
					c0.4-1.5,1.4-5.2,2.3-6.5c0.1-0.2,0.7-1,0.9-1.1c0.1,0,0.2,0,0.2,0.1c0,0.2,0.4,0.3,0.4,0.5c0,1-0.1,4.9-0.2,5.9
					c0,0.5,0,1.1,0,1.6C-32.9,144.7-33.3,144.7-33.4,144.8 M-23.8,144.6L-23.8,144.6l-0.6,0.2c-0.1-0.2,0.2-1.9,0.3-2.1
					c0.3-0.5,1.9-1.4,2.4-1.8c0.2-0.2,1.9-1.2,2.5-1c0.1,0,0.1-0.1,0.2-0.1c0.1,0,0.2,0,0.2,0c0.1,0,0.1,0.2,0,0.3
					c-0.1,0.2-0.2,0.4-0.4,0.6c-0.4,0.4-0.8,0.9-1.1,1.3l-0.1,0.1C-21.3,143.1-22.5,144-23.8,144.6"/>
				<path class="st3" d="M-5.5,150.6c0-0.1,0.3-1.3-0.1-1.5c-0.3,0.1-0.5,0-0.7,0.4c-0.3,0.7-2.6,1.7-4.1,2.2
					c-0.6,0.2-1.1,0.3-1.7,0.4c-0.3,0.1-0.7,0-1.1,0c-0.1,0-0.3-0.2-0.3-0.3v-0.1c0.1-0.5,0.1-1,0.2-1.5c0-0.3,0.1-0.6,0.3-0.8
					c0.1-0.2,0.3-0.4,0.6-0.3c0.3,0.1,0.6,0,0.8,0c0.7-0.1,1.4-0.3,2.1-0.4c0.3-0.1,0.5-0.2,0.7-0.4c0.2-0.1,0.4-0.2,0.6-0.4
					c0.1-0.1,1.1-0.9,1.1-0.9l0.1-0.1c0.3-0.3,0.6-0.6,0.9-0.8c0.5-0.4,0.8-0.9,1.1-1.4v-0.2c0-0.1-0.1-0.1-0.2-0.1
					c-0.4,0-0.8,0.1-1.2,0.2c-0.6,0.2-1.7,0.9-2.3,1.1c-1,0.4-2.4,0.8-3.4,1.1c-0.1,0-0.2,0-0.3,0.1c0,0-0.1,0-0.1-0.1
					c0-0.6,0-1.5,0-2.1c0-0.1,0.1-0.1,0.1-0.2c0.3,0,0.6-0.1,0.8-0.1c0.4,0,1.5-0.2,1.8-0.4c0.9-0.4,1-0.2,1.7-0.9
					c0.5-0.5,1.5-0.9,2-1.3c0.7-0.5,1.2-1.1,1.8-1.7c0.2-0.2,0.3-0.4,0.3-0.6c0-0.1,0-0.2,0-0.3c-0.1-0.4,0.1-1.4-0.4-1.3
					c-0.1,0-0.2,0-0.3,0.1c-0.7,0.3-2.2,1.2-2.8,1.6c-1.3,0.7-1.7,0.7-3,1.3c-0.7,0.3-3.3,0.5-3.4,0.4c-0.2-0.1-0.4-0.2-0.7-0.2
					c-0.2,0,0.1,0-0.1,0c-0.2,0-0.5,0.1-0.6,0.2c-0.2,0.2-0.3,0.3-0.2,0.6s0.2,4.1,0,4.3c-0.2,0.2-0.3,0.5-0.3,0.8
					c0.1,0.7,0,1.4-0.1,2.1c-0.1,0.8-0.1,1.6-0.1,2.4s0.3,1.6,0.9,2.3c0.2,0.2,0.6,0.6,0.8,0.7c0.2,0,0.5,0.1,0.7,0.1
					c0.4,0,0.9,0,1.3,0.1c1,0.1,1.8-0.1,2.7-0.5c0.3-0.1,0.6-0.2,0.8-0.5c0.1-0.1,0.2-0.2,0.4-0.3C-7.5,153-5.6,151.1-5.5,150.6"/>
				<path class="st3" d="M12.8,152.3L12.8,152.3C12.9,152.3,12.9,152.3,12.8,152.3L12.8,152.3z"/>
				<path class="st3" d="M54.9,144.4c0-0.1,0-0.2-0.1-0.3c-0.1-0.1-0.2-0.1-0.3-0.1c-0.5,0.1-0.9,0.3-1.3,0.6
					c-0.6,0.4-0.5,0.1-3.1,0.9c-0.3,0.1-1.2,0.2-1.6,0.3c-0.1,0-0.3-0.1-0.2-0.3c0.2-0.4,0.3-0.8,0.5-1.2s0.1-0.2,0.2-0.6
					c0.3-1,0.6-2,0.9-2.9c0.2-0.8,0.3-1.5,0.2-2.3c0-0.5-0.1-1-0.2-1.5c-0.2-1.4-0.6-2.3-2-2.4c-0.1,0-0.2,0-0.3,0c-0.3,0-0.7,0-1,0
					c0,0-0.2,3.8-0.3,4.3c-0.2,0.7-0.4,1.3-0.6,2c0,0,0,0-0.1,0c-0.2,0.7-0.4,1.3-0.6,2c-0.6,1.6-0.6,1.8-1.1,3.5
					c-0.1,0.3-0.3,0.5-0.6,0.6c-0.1,0-0.2,0.1-0.3,0.1c-1.1,0.3-1.9,0.4-3,0.7c-0.2,0.1-0.4,0.1-0.6,0.1c-0.1,0-0.4-0.1-0.4-0.2
					c0.1-0.2,0.3-0.6,0.4-0.8c0.5-0.7,0.4-0.6,0.6-1c0.2-0.3,0.3-0.6,0.5-0.9c0.5-0.9,1.1-3.5,1.5-5.5c-0.1,0.2-0.2,0.4-0.4,0.6
					c-0.3-0.2-0.2-0.5-0.2-0.8s-0.1-0.5-0.2-0.7c-0.3-0.3-0.6-0.5-1-0.6c-0.6-0.1-1.2,0-1.7,0.3c-0.3,0.2-0.5,0.4-0.5,0.7
					c-0.1,0.4-0.1,0.8-0.3,1.1c-0.5,0.9-0.1,2-0.8,2.9c-0.4,0.5-1.3,2.8-1.7,3.3c-0.8,1-1.5,1.3-2.5,2.2c-1.2,1-3.2,1.6-4.6,2.2
					c-0.5,0.2-3.3-0.1-3-2.4c0.1-0.6,0.2-1.1,0.4-1.3c1-1.5,2.6-2.3,4.3-3c1.1-0.4,2.2-0.6,3.2-1.3c0.2-0.1,0.3-0.6,0.5-0.8
					c0.3-0.3,0-1-0.3-1.4c-0.5-0.6-1.4-0.9-2.1-0.6c-0.4,0.2-0.9,0.5-1.3,0.7c-0.9,0.3-1.7,0.6-2.4,1.2c-0.3,0.2-2.1,1.3-2.7,2
					c-2.5,2.7-2.9,5.7-2.8,6.1c0.3,1,0.9,1.7,1.7,2.3c0.2,0.1,1.9,1.2,2.7,1.1c1.8-0.2,3.1-0.4,4.6-1.3c0.8-0.5,1.5-1.1,2.1-1.8
					c0.3-0.3,1-1,1.3-1.3c0,0.1-0.3,0.6-0.3,0.6c-0.6,1.1-0.7,1.2-1.3,2.3c-0.5,0.8-0.9,1.6-1.2,2.5c-0.1,0.4-0.4,0.8-0.3,1.3
					s0.3,0.9,0.5,1.4c0.1,0.1,0.1,0.3,0.2,0.4c0.1,0.1,0.2,0.2,0.3,0.3c0.2,0.2,0.6,0.1,0.8-0.1c0.2-0.2,0.4-0.4,0.5-0.7
					c0.4-0.7,0.9-1.4,1.4-2c0.2-0.2,2-3.9,2.3-3.8c0.2,0,1.7-0.1,2.1-0.2c1-0.3,2-0.3,3-0.3c0.1,0,0.2,0.1,0.2,0.2
					c0,0.6-0.5,2.3-0.7,2.9c-0.2,0.7-0.6,2-0.7,2.7c-0.1,0.6-0.4,1.2-0.5,1.8c0,0.1-0.2,0.2-0.4,0.3c-0.6,0.5,0.3,1.2,1.2,2
					c0.4,0.4,0.7,0.2,1-0.3c0-0.1,0.1-0.2,0.1-0.3c0.3-0.7,0.6-1.4,0.9-2c0.5-0.9,0.9-2,1.4-2.9c0.2-0.3,0.3-0.6,0.3-1
					c0.1-1,0.8-2.5,1-3.5c0.1-0.3,0.2-0.4,0.5-0.5c0.8-0.3,2-0.5,2.8-0.8c2.2-0.5,4.2-0.7,4.4-0.8c0.1-0.1,0.2-0.2,0.2-0.4
					c0-0.5-0.1-0.9-0.5-1.3c-0.1-0.1,0.4,0.2,0.4,0.1c-0.2-0.3-0.2-0.5-0.1-0.8C54.6,145.3,54.7,144.9,54.9,144.4"/>
				<path class="st3" d="M-54.6,130.4c0-0.1-0.1-0.2-0.1-0.2c-0.1-0.1-0.3-0.2-0.4-0.2c-0.2,0.1-2.5,1.4-4.2,7.6
					c-0.4,1-0.8,1.9-1.3,2.8c-0.3,0.5-0.5,1.1-0.7,1.7c-0.1,0.3-0.1,0.5-0.2,0.7c-0.3,0.5-1.4,4.8-1.8,6.4c-0.1,0.3-0.1,0.5-0.2,0.7
					c0,0.1-0.1,0.2-0.2,0.2c-0.1,0-0.2-0.1-0.2-0.2c-0.4-1.1-0.6-2.3-0.7-3.4c-0.1-1-0.2-3.4-0.4-4.4c-0.1-0.9-0.4-1.7-0.5-2.5
					c-0.1-0.3-0.2-0.6-0.4-0.8c-0.1-0.1-0.2-0.3-0.4-0.3c-0.2-0.2-0.6-0.2-0.9,0c-0.2,0.1-0.3,0.2-0.4,0.4c-0.3,1.1-0.8,2.2-1.3,3.2
					c-0.6,1.4-1.4,4.1-2,5.4c-0.2,0.3-0.4,0.7-0.6,1c0,0-0.1,0-0.1,0.1c-0.1,0.1-0.2,0-0.2-0.1c-0.2-0.8-0.1-0.7-0.1-1.5
					c-0.1-1.9,0.1-2.4-0.1-4.2c0-0.4-0.3-3.9-0.8-4.8c-0.2-0.4-0.5-0.8-0.7-1.1c-0.3-0.5-0.7-0.9-1.2-1.1s-0.9-0.2-1.3,0
					c-0.1,0.1-0.3,0.2-0.3,0.4c-0.1,0.3-0.1,0.5,0,0.8c0.3,0.3,1,3.3,1.2,4.8c0,0.6,0.1,1.3,0.1,2c0,1.6,0.1,1.9,0.1,3.5
					c0.2,0.8,0.1,0.7,0.1,1.5c0,1.1-0.1,4.9-0.3,6c-0.1,0.6,0.1,1.4,0.2,1.9c0,0.1,0.1,0.2,0.2,0.3c0.4,0.4,0.9,0.8,1.4,1.1
					c0.1,0,0.2,0.1,0.2,0.1c0.7,0.2,1.1-1.3,1.4-1.5c0.7-0.7,2-6,2.1-6.3c0.4-1.2,0.7-3,1.3-4.1c0.2-0.1,0.3-0.2,0.3-0.3
					c0.2-0.8,0.6-1.5,1-2.3c0.1,0.2,0.1,0.5,0.1,0.6c0.1,0.8,0.2,1.5,0.3,2.3c0.2,1.5,0.7,3.7,1.2,5.2c0.2,0.7,0.1,1.2,0.3,2.1
					c0,0.1,0.3,0.2,0.4,0.4c0.2,0.4,0.4,0.6,0.6,1c0.4,0.6,1,0.9,1.8,0.9c0.4,0,0.8-0.2,0.9-0.6c0.1-0.2,0.1-0.4,0.2-0.6
					c0.2-0.8,0.5-1.6,0.7-2.4c0.2-0.6,0.5-2.1,0.6-2.3c0.1-0.9,0.4-1.7,0.5-2.5c0-0.6,0.3-1.2,0.4-1.8c0-0.2,1.7-5.2,1.8-5.4
					c0-0.1,0.1-0.4,0.2-0.7c0.3-0.4,0.5-0.9,0.5-1.4s0.1-1,0.4-1.3c0.4-0.5,0.5-1,0.7-1.5c0.3-1.2,0.6-2.3,0.7-3.5
					C-54.6,131.6-54.5,131-54.6,130.4"/>
			</g>
		</g>
	</g>
</g>
<g id="kii_logo" class="st0">
	<g class="st1">
		<path class="st2" d="M-30.2,139.1c0.1-0.1,8-8.5,8-8.5h-7.4c0,0-7.1,6.5-7.3,6.8v-6.8H-44v19.2h7.1v-4.1c0.1,0,1.4-1.1,1.5-1.3
			c0.1,0.1,4.5,5.4,4.5,5.4h9.4C-21.6,149.8-30.1,139.2-30.2,139.1"/>
		<polygon class="st2" points="40.7,130.6 40.7,137.5 34.6,137.5 34.6,130.6 27.4,130.6 27.4,149.7 34.6,149.7 34.6,142.7 
			40.7,142.7 40.7,149.7 48.1,149.7 48.1,130.6 		"/>
		<path class="st2" d="M-7.2,136.4v7.7c0,0.8-0.6,1.4-1.3,1.4h-4.1c-0.7,0-1.3-0.7-1.3-1.4v-7.7c0-0.8,0.6-1.4,1.3-1.4h4.1
			C-7.7,135.1-7.2,135.6-7.2,136.4 M-4.2,130.6h-12.6c-2.3,0-4.2,2.2-4.2,4.8v9.5c0,2.6,1.9,4.8,4.2,4.8h12.5c2.3,0,4.2-2.2,4.2-4.8
			v-9.5C0,132.8-1.9,130.6-4.2,130.6"/>
		<path class="st2" d="M24,137.6v-1.5c0-1.7-0.6-3.4-1.6-4.5c-0.7-0.7-1.4-1-2.2-1H7c-2.1,0-3.8,2.5-3.8,5.5v8.1
			c0,3,1.7,5.5,3.8,5.5h13.1c2.1,0,3.8-2.5,3.8-5.5V142H17l-0.1,1.8c-0.1,0.8-0.6,1.6-1.3,1.6h-4c-0.7,0-1.3-0.6-1.3-1.4v-7.6
			c0-0.7,0.6-1.4,1.3-1.4h4c0.7,0,1.3,0.6,1.3,1.4v1H24V137.6z"/>
		<path class="st2" d="M49.7,147.2v0.5h0.8v2.1H51v-2.1h0.8v-0.5H49.7z M54.2,147.2l-0.7,1.8l-0.7-1.8h-0.7v2.5h0.5v-2.1l0.7,2.1
			h0.3l0.7-2.1v2.1h0.5v-2.5H54.2z"/>
		<g>
			<path class="st2" d="M-63.7,130.6L-63.7,130.6h-12.7v19.1h12.6l-3-9.5L-63.7,130.6z"/>
			<polygon class="st2" points="-59.3,130.6 -65,140.2 -59.3,149.7 -50.3,149.7 -50.3,130.6 			"/>
		</g>
	</g>
</g>
</svg>
