<?xml version="1.0" encoding="utf-8"?>
<!-- Generator: Adobe Illustrator 19.1.0, SVG Export Plug-In . SVG Version: 6.00 Build 0)  -->
<!DOCTYPE svg PUBLIC "-//W3C//DTD SVG 1.1//EN" "http://www.w3.org/Graphics/SVG/1.1/DTD/svg11.dtd">
<svg version="1.1" xmlns="http://www.w3.org/2000/svg" xmlns:xlink="http://www.w3.org/1999/xlink" x="0px" y="0px"
	 viewBox="0 0 132.3 31.7" style="enable-background:new 0 0 132.3 31.7;" xml:space="preserve">
<style type="text/css">
	.st0{fill:#FFFFFF;}
	.st1{display:none;}
	.st2{display:inline;}
</style>
<g id="wak_logo">
	<g>
		<g>
			<g>
				<path class="st0" d="M93.2,24.8c0.1,0.1,0.4,1,0.2,1.5c0,0.1,0,0.3,0,0.4c-0.1,0.1-0.2,0.2-0.3,0.2c-0.3,0-0.6-0.1-0.9-0.3
					c-0.4-0.2-0.7-0.5-1.1-0.7c-1.2-0.6-2.9-1.7-4.2-2.1c-1.7-0.5-3.2-1.6-4.8-2.5c-0.5-0.3-1-0.6-1.5-0.9c-0.1-0.1-0.3,0-0.3,0.1
					c0,0.1-0.1,0.2-0.1,0.2s-0.1,0.2-0.1,0.3c-0.1,0.9-0.2,1.2-0.4,2.1c-0.2,0.9-0.9,2.6-1,3.2c-0.4,1.4-0.9,1.8-0.9,2.1
					c0,0.2-0.1,0.3-0.2,0.5c-0.2,0.2-0.6,0.3-0.8,0.2c-0.3-0.2-0.6-0.4-0.7-0.8c-0.2-0.8,0-0.6,0-1.4c0.1-1.1-0.1-0.6,0.1-1.8
					c0.1-0.6,0.1-0.5,0.1-1.2c0-0.7-0.1-0.1,0.1-0.8c0.1-0.3,0.1-0.7,0.1-1.1c0-0.3,0.1-0.5,0.1-0.8c0.1-0.9,0.3-1.7,0.4-2.6
					c0.1-1.5,0.4-2.9,0.5-4.4c0.2-1.9,0.4-3.8,0.7-5.7c0-0.1,0-0.2,0-0.3c0-0.6,0.2-1.2,0.1-1.7c-0.1-0.6-0.5-1-0.8-1.5
					c-0.1-0.2-0.2-0.5-0.3-0.7c-0.1-0.3,0.1-0.7,0.5-0.9c0.5-0.2,0.5,0.1,1,0.2c1.1,0.3,1.7,0.6,2.4,1.5c0.3,0.5,0.6,1,0.7,1.6
					c0,0.1,0.1,0.3,0.1,0.4c0.4,1-0.3,5.3-0.5,5.7c0,0.1,0,0.2,0.1,0.2c0.1,0,0.2,0,0.2,0c1.6-1,3.6-2.5,4.9-3.8
					c0.9-0.9,1.6-2,2.4-2.8c0.5-0.5,0.6-1.1,0.9-1.8c0.4-1.6,2.7-0.8,2.8-0.6c0.2,0.4,0.3,0.7,0.1,1.1c-0.1,0.3-0.2,0.6-0.4,0.9
					c-0.1,0.2-0.3,0.5-0.4,0.7c-0.2,0.8-0.7,1.5-1,2.3c-0.1,0.4-0.4,0.7-0.6,1c-0.7,0.8-1.4,1.6-2.3,2.2c-0.4,0.3-0.8,0.6-1.2,0.9
					c-0.5,0.4-1.1,0.8-1.6,1.1c-1.1,0.7-1.4,1.1-2.5,1.8c-0.4,0.3-0.9,0.6-0.8,0.7c0.1,0.1,0.2,0.2,0.3,0.3c0.6,0.5,1.4,1.1,2.2,1.4
					c1.7,0.8,2.5,1.9,4.1,2.8c0.3,0.1,0.5,0.5,0.8,0.6C89.7,22,92.6,24.4,93.2,24.8"/>
				<path class="st0" d="M89.8,23L89.8,23C89.9,23.1,89.8,23,89.8,23L89.8,23z"/>
				<path class="st0" d="M99.6,11.3c-0.4-0.5-0.9-0.9-1.5-1c-0.9-0.2-1.8-0.1-2.6,0.5c-1,0.7-0.6-0.2-1.5,0.7
					c-1.4,1.3-2.6,2.7-3.6,4.5c-0.6,1-0.8,2-1.1,3.1c0,0.2-0.1,0.3-0.1,0.5c0.1,1.2,0.1,2.4,0.9,3.3c0.1,0.1,0.3,0.3,0.4,0.4
					c0.4,0.2,0.9,0.6,1.3,0.7c0.7,0.2,1,0.1,1.6,0c1.1-0.2,2.3-0.3,3.2-1.2c0.1-0.1,0.2-0.1,0.2-0.2c0.8-0.5,2-1.3,2.4-2.2
					c1.3-2.6,1.3-6.3,1.4-6.3C100.9,13.3,100.1,11.8,99.6,11.3 M97.8,14.5c-0.2,1.4-0.5,2.8-1.2,4c-0.4,0.7-0.7,1.6-1.3,2
					c-0.2,0.1-0.4,0.2-0.6,0.3c-0.6,0.6-1.3,1.1-2.1,1.2c-0.1,0-0.2-0.1-0.2-0.1c0-0.1,0-0.2,0-0.3c-0.7-2.3,0.7-4.2,1.2-5
					c1.3-1.9,2.9-3.1,3.7-2.7c0.1,0,0.2-0.1,0.3-0.1c0.1,0,0.1,0.2,0.1,0.3C97.6,14.4,97.8,14.3,97.8,14.5"/>
				<path class="st0" d="M28.6,22.7c0.6,0,1-0.2,1.5-0.5c0.1-0.1,0.4,0,0.4,0.2c0.1,0.1,0.1,0.2,0.2,0.3c0.2,0.7,0.2,1.8-0.5,2.1
					c-0.5,0.2-0.9,0.3-1.4,0.5c-0.5,0.1-4.2,0.8-4.9,0.6c-0.6-0.1-1.6,0.8-2.2,0.7c-0.4-0.1-0.8-0.3-1.1-0.6c-0.3-0.3-0.5-0.6-0.7-1
					c-0.3-0.8-0.5-1.5-0.4-2.3c0.1-0.9,0.2-1.9,0.3-2.8c0.1-0.8,0.3-1.6,0.5-2.3c0.3-1,0.6-2.1,0.9-3.1c0.1-0.4,0.3-0.8,0.3-1.5
					c0-0.2-0.1-0.3-0.1-0.4c0-0.1,0-0.3,0.1-0.3c0.4-0.3,2.5-0.4,2.7-0.2c0.1,0.1,0.2,0.2,0.3,0.2c0.7-0.1,2.6,0.1,3.2-0.1
					c1-0.2,1.8-0.9,2.7-0.4c0.2,0.1,0.4,0.3,0.5,0.4c0.3,0.3,0.3,0.7,0.1,1.1c-0.6,0.3-1.4,0.9-2,1.2c-0.2,0.1-1,0.4-1.2,0.5
					c-0.6,0.2-1.8,0.3-2.5,0.3c-0.3,0-0.6,0-0.9,0.1c-0.1,0-0.3,0.1-0.3,0.2c-0.2,0.6-0.5,1.2-0.7,1.8c0,0.1,0.1,0.3,0.3,0.4
					c0.4,0.1,2.9,0.1,3.3-0.1c0.3-0.1,0.6-0.2,0.9-0.4c0.3-0.1,0.6-0.2,0.9-0.1c0.1,0,0.3,0.1,0.4,0.1c0.5,0.5,0.2-0.1,0.4,0.5
					c0.1,0.2,0,0.4-0.1,0.5c-0.5,0.5-1.6,1-2.4,1.3c-0.5,0.2-3.1,0.8-3.7,0.6c-0.2-0.1-0.6,0.4-0.6,0.5c0,0.1,0,0.1,0,0.2
					c-0.1,0.8-0.1,1.7-0.2,2.5c0,0.2,0,0-0.1,0.1c0,0.1,0,0.2,0,0.3C22.3,24,26.8,22.8,28.6,22.7"/>
				<path class="st0" d="M60,24.4c-0.1-0.3-0.1-0.7-0.3-0.9c-0.3-0.4-0.4-0.5-0.5-1.1c0-0.3-0.7-0.7-0.8-0.6
					c-0.1,0.1-0.4-0.1-0.4-0.2c-0.2-0.2-0.5-0.4-0.7-0.7c-0.7-0.8-1.2-1.1-2-1.8c-0.2-0.2-0.4-0.4-0.6-0.6c-0.1-0.1-0.1-0.1-0.1-0.2
					c-0.1-0.1,0-0.3,0.1-0.3c0.7-0.5,1.1-1,1.8-1.5c0.9-0.6,1.7-1.4,2.5-2.1c0.4-0.3,0.7-0.7,1-1.1c0.5-0.6,0.8-1.2,1.1-1.9
					c0.3-0.7,0.3-1.3,0.2-2c0-0.1,0-0.2-0.1-0.2c-0.3-0.6-0.6-1.1-1.3-1.3c-0.1,0-0.2-0.1-0.5-0.2c-0.9-0.3-2-0.1-3,0.4
					c-1,0.4-1.8,1-2.6,1.7c-0.5,0.4-1,0.9-1.4,1.3c-0.2,0.2-0.4,0.4-0.7,0.5c-0.2,0.1-0.4,0-0.6,0c0,0-0.1,0-0.1,0
					c-0.5,0-0.8,0.4-0.8,0.9c0,0.2,0,0.4,0,0.6c0,0.4-0.2,0.7-0.5,0.9c-0.7,0.4-1.5,0.7-2.3,0.7c-0.2,0-0.4-0.1-0.4-0.4
					c0-0.1,0.2-1.5,0.2-1.6c0-0.8,0-2.7,0-3.6c0-1-0.1-2-0.1-2.9c0-0.7-0.3-1.3-0.8-1.9c-0.4-0.5-1-0.8-1.7-0.8
					C43,3.7,41.8,4.2,41,5.5c-0.1,0.1-0.4,0.5-0.5,0.7c-0.4,1-0.3,0.4-0.6,1.5c-0.5,0.9-1.7,5.5-2,6.4c-0.2,0.5-0.4,1-0.6,1.5
					c-0.1,0.2-0.2,0.3-0.3,0.3c-0.2,0-0.5,0.1-0.7,0.1c-0.4,0.1-0.6,0.4-0.7,0.8c-0.1,0.4-0.2,1.5,0.1,1.9c0.1,0.2,0.6,0.3,0.8,0.6
					c0.1,0.1-0.2,0.5-0.3,0.6c-0.2,0.6-0.3,0.5-0.4,1c-0.1,0.5-0.6,2.9-1,3.1c-0.1,0-0.1,0.1-0.2,0.1c-0.2,0.2-0.3,0.5-0.3,0.8
					c0,0.4,0.2,0.8,0.5,1c0.4,0.3,0.8,0.5,1.3,0.4c0.1,0,0.2,0,0.4,0c0.2,0,0.3-0.1,0.4-0.2c1-0.8,1.8-3.7,2.1-4.9
					c0.1-0.4,0.2-0.9,0.3-1.3c0.1-0.2,0.2-0.3,0.4-0.3c0.5-0.1,1.2,0,1.7-0.1c0.6-0.1,1.2-0.2,1.7-0.5c0.2-0.1,0.4-0.1,0.6-0.2
					c0.1,0,0.3,0.1,0.3,0.2c0,0.1,0,0.2,0.1,0.4c0.1,1.1,0.2,2.2,0.3,3.3c0.1,0.7,0.3,3.7,0.2,4.4c0,0.1,0,0.3,0.1,0.5
					c0.3,0.4,0.6,0.8,0.9,1.1c0.1,0.1,0.1,0.1,0.2,0.2c0.2,0.2,0.4,0.1,0.7,0c0.2-0.1,0.4-0.3,0.5-0.5c0.1-0.3,0.2-0.6,0.2-1
					c0-0.6-0.1-3.4,0-4c0-0.5,0-1,0-1.5c0-1.1,0-2.3,0-3.4c0-1,0-1.1,0.9-1.5c0.3-0.2,0.6-0.3,0.9-0.5c0.3-0.1,0.5-0.2,0.8-0.2
					c0.3,0,0.5,0.2,0.4,0.4c-0.1,0.5-0.2,0.9-0.4,1.4c-0.2,0.7-0.3,0.8-0.4,1.5c-0.2,1.1-0.4,2.2-0.7,3.2c-0.1,0.4-0.1,0.8-0.1,1.2
					c0,0.1,0,0.2,0,0.2c0.2,0.3,0.3,0.6,0.5,0.8c0.1,0.1,0.3,0.2,0.4,0.3c0.2,0.1,0.4,0,0.6-0.1c0.1-0.1,0.1-0.1,0.2-0.2
					c0.3-0.5,0.6-1.1,0.8-1.6c0.1-0.3,0.2-0.6,0.3-0.8c0.2-0.4,0.4-0.8,0.5-1.2c0.2-0.5,0.3-1,0.5-1.5c0-0.1,0.1-0.2,0.2-0.3
					c0-0.1,0.1-0.1,0.2-0.1c0.5,0.2,0.9,0.6,1.2,0.9c0.5,0.5,1,0.9,1.5,1.4c0.4,0.3,0.7,0.6,1.1,1c0.5,0.5,1,1,1.5,1.6
					c0.3,0.3,0.6,0.6,1.1,0.8c0.3,0.1,0.6,0,0.8-0.1C59.9,24.9,60.1,24.6,60,24.4 M43.6,15.5c-0.9,0.2-2.3,0.5-3.2,0.6
					c-0.1,0-0.2-0.1-0.2-0.2c0.1-0.3,0.2-0.6,0.3-0.9c0.4-1.5,1.4-5.2,2.3-6.5c0.1-0.2,0.7-1,0.9-1.1c0.1,0,0.2,0,0.2,0.1
					c0,0.2,0.4,0.3,0.4,0.5c0,1-0.1,4.9-0.2,5.9c0,0.5,0,1.1,0,1.6C44,15.4,43.7,15.4,43.6,15.5 M53.2,15.4c0,0-0.1,0-0.1,0
					c0,0-0.5,0.2-0.5,0.2c-0.1-0.2,0.2-1.9,0.3-2.1c0.3-0.5,1.9-1.4,2.4-1.8c0.2-0.2,1.9-1.2,2.5-1c0.1,0,0.1-0.1,0.2-0.1
					c0.1,0,0.2,0,0.2,0c0.1,0,0.1,0.2,0,0.3c-0.1,0.2-0.2,0.4-0.4,0.6c-0.4,0.4-0.8,0.9-1.1,1.3c0,0-0.1,0.1-0.1,0.1
					C55.7,13.8,54.5,14.7,53.2,15.4"/>
				<path class="st0" d="M71.4,21.3c0-0.1,0.3-1.3-0.1-1.5c-0.3,0.1-0.5,0-0.7,0.4c-0.3,0.7-2.6,1.7-4.1,2.2
					c-0.6,0.2-1.1,0.3-1.7,0.4c-0.3,0.1-0.7,0-1.1,0c-0.1,0-0.3-0.2-0.3-0.3c0,0,0-0.1,0-0.1c0.1-0.5,0.1-1,0.2-1.5
					c0-0.3,0.1-0.6,0.3-0.8c0.1-0.2,0.3-0.4,0.6-0.3c0.3,0.1,0.6,0,0.8,0c0.7-0.1,1.4-0.3,2.1-0.4c0.3-0.1,0.5-0.2,0.7-0.4
					c0.2-0.1,0.4-0.2,0.6-0.4c0.1-0.1,1.1-0.9,1.1-0.9c0,0,0.1-0.1,0.1-0.1c0.3-0.3,0.6-0.6,0.9-0.8c0.5-0.4,0.8-0.9,1.1-1.4
					c0,0,0-0.2,0-0.2c0-0.1-0.1-0.1-0.2-0.1c-0.4,0-0.8,0.1-1.2,0.2c-0.6,0.2-1.7,0.9-2.3,1.1c-1,0.4-2.4,0.8-3.4,1.1
					c-0.1,0-0.2,0-0.3,0.1c0,0-0.1,0-0.1-0.1c0-0.6,0-1.5,0-2.1c0-0.1,0.1-0.1,0.1-0.2c0.3,0,0.6-0.1,0.8-0.1c0.4,0,1.5-0.2,1.8-0.4
					c0.9-0.4,1-0.2,1.7-0.9c0.5-0.5,1.5-0.9,2-1.3c0.7-0.5,1.2-1.1,1.8-1.7c0.2-0.2,0.3-0.4,0.3-0.6c0-0.1,0-0.2,0-0.3
					c-0.1-0.4,0.1-1.4-0.4-1.3c-0.1,0-0.2,0-0.3,0.1c-0.7,0.3-2.2,1.2-2.8,1.6c-1.3,0.7-1.7,0.7-3,1.3c-0.7,0.3-3.3,0.5-3.4,0.4
					c-0.2-0.1-0.4-0.2-0.7-0.2c-0.2,0,0.1,0-0.1,0c-0.2,0-0.5,0.1-0.6,0.2c-0.2,0.2-0.3,0.3-0.2,0.6c0.1,0.3,0.2,4.1,0,4.3
					c-0.2,0.2-0.3,0.5-0.3,0.8c0.1,0.7,0,1.4-0.1,2.1C61,20.6,61,21.4,61,22.2c0,0.8,0.3,1.6,0.9,2.3c0.2,0.2,0.6,0.6,0.8,0.7
					c0.2,0,0.5,0.1,0.7,0.1c0.4,0,0.9,0,1.3,0.1c1,0.1,1.8-0.1,2.7-0.5c0.3-0.1,0.6-0.2,0.8-0.5c0.1-0.1,0.2-0.2,0.4-0.3
					C69.5,23.7,71.4,21.8,71.4,21.3"/>
				<path class="st0" d="M89.8,23L89.8,23C89.9,23.1,89.8,23,89.8,23L89.8,23z"/>
				<path class="st0" d="M131.9,15.1c0-0.1,0-0.2-0.1-0.3c-0.1-0.1-0.2-0.1-0.3-0.1c-0.5,0.1-0.9,0.3-1.3,0.6
					c-0.6,0.4-0.5,0.1-3.1,0.9c-0.3,0.1-1.2,0.2-1.6,0.3c-0.1,0-0.3-0.1-0.2-0.3c0.2-0.4,0.3-0.8,0.5-1.2c0.2-0.4,0.1-0.2,0.2-0.6
					c0.3-1,0.6-2,0.9-2.9c0.2-0.8,0.3-1.5,0.2-2.3c0-0.5-0.1-1-0.2-1.5c-0.2-1.4-0.6-2.3-2-2.4c-0.1,0-0.2,0-0.3,0c-0.3,0-0.7,0-1,0
					c0,0-0.2,3.8-0.3,4.3c-0.2,0.7-0.4,1.3-0.6,2c0,0,0,0-0.1,0c-0.2,0.7-0.4,1.3-0.6,2c-0.6,1.6-0.6,1.8-1.1,3.5
					c-0.1,0.3-0.3,0.5-0.6,0.6c-0.1,0-0.2,0.1-0.3,0.1c-1.1,0.3-1.9,0.4-3,0.7c-0.2,0.1-0.4,0.1-0.6,0.1c-0.1,0-0.4-0.1-0.4-0.2
					c0.1-0.2,0.3-0.6,0.4-0.8c0.5-0.7,0.4-0.6,0.6-1c0.2-0.3,0.3-0.6,0.5-0.9c0.5-0.9,1.1-3.5,1.5-5.5c-0.1,0.2-0.2,0.4-0.4,0.6
					c-0.3-0.2-0.2-0.5-0.2-0.8c0-0.3-0.1-0.5-0.2-0.7c-0.3-0.3-0.6-0.5-1-0.6c-0.6-0.1-1.2,0-1.7,0.3c-0.3,0.2-0.5,0.4-0.5,0.7
					c-0.1,0.4-0.1,0.8-0.3,1.1c-0.5,0.9-0.1,2-0.8,2.9c-0.4,0.5-1.3,2.8-1.7,3.3c-0.8,1-1.5,1.3-2.5,2.2c-1.2,1-3.2,1.6-4.6,2.2
					c-0.5,0.2-3.3-0.1-3-2.4c0.1-0.6,0.2-1.1,0.4-1.3c1-1.5,2.6-2.3,4.3-3c1.1-0.4,2.2-0.6,3.2-1.3c0.2-0.1,0.3-0.6,0.5-0.8
					c0.3-0.3,0-1-0.3-1.4c-0.5-0.6-1.4-0.9-2.1-0.6c-0.4,0.2-0.9,0.5-1.3,0.7c-0.9,0.3-1.7,0.6-2.4,1.2c-0.3,0.2-2.1,1.3-2.7,2
					c-2.5,2.7-2.9,5.7-2.8,6.1c0.3,1,0.9,1.7,1.7,2.3c0.2,0.1,1.9,1.2,2.7,1.1c1.8-0.2,3.1-0.4,4.6-1.3c0.8-0.5,1.5-1.1,2.1-1.8
					c0.3-0.3,1-1,1.3-1.3c0,0.1-0.3,0.6-0.3,0.6c-0.6,1.1-0.7,1.2-1.3,2.3c-0.5,0.8-0.9,1.6-1.2,2.5c-0.1,0.4-0.4,0.8-0.3,1.3
					c0.1,0.5,0.3,0.9,0.5,1.4c0.1,0.1,0.1,0.3,0.2,0.4s0.2,0.2,0.3,0.3c0.2,0.2,0.6,0.1,0.8-0.1c0.2-0.2,0.4-0.4,0.5-0.7
					c0.4-0.7,0.9-1.4,1.4-2c0.2-0.2,2-3.9,2.3-3.8c0.2,0,1.7-0.1,2.1-0.2c1-0.3,2-0.3,3-0.3c0.1,0,0.2,0.1,0.2,0.2
					c0,0.6-0.5,2.3-0.7,2.9c-0.2,0.7-0.6,2-0.7,2.7c-0.1,0.6-0.4,1.2-0.5,1.8c0,0.1-0.2,0.2-0.4,0.3c-0.6,0.5,0.3,1.2,1.2,2
					c0.4,0.4,0.7,0.2,1-0.3c0-0.1,0.1-0.2,0.1-0.3c0.3-0.7,0.6-1.4,0.9-2c0.5-0.9,0.9-2,1.4-2.9c0.2-0.3,0.3-0.6,0.3-1
					c0.1-1,0.8-2.5,1-3.5c0.1-0.3,0.2-0.4,0.5-0.5c0.8-0.3,2-0.5,2.8-0.8c2.2-0.5,4.2-0.7,4.4-0.8c0.1-0.1,0.2-0.2,0.2-0.4
					c0-0.5-0.1-0.9-0.5-1.3c-0.1-0.1,0.4,0.2,0.4,0.1c-0.2-0.3-0.2-0.5-0.1-0.8C131.6,16,131.7,15.6,131.9,15.1"/>
				<path class="st0" d="M22.4,1.1c0-0.1-0.1-0.2-0.1-0.2c-0.1-0.1-0.3-0.2-0.4-0.2c-0.2,0.1-2.5,1.4-4.2,7.6
					c-0.4,1-0.8,1.9-1.3,2.8c-0.3,0.5-0.5,1.1-0.7,1.7c-0.1,0.3-0.1,0.5-0.2,0.7c-0.3,0.5-1.4,4.8-1.8,6.4c-0.1,0.3-0.1,0.5-0.2,0.7
					c0,0.1-0.1,0.2-0.2,0.2c-0.1,0-0.2-0.1-0.2-0.2c-0.4-1.1-0.6-2.3-0.7-3.4c-0.1-1-0.2-3.4-0.4-4.4c-0.1-0.9-0.4-1.7-0.5-2.5
					c-0.1-0.3-0.2-0.6-0.4-0.8c-0.1-0.1-0.2-0.3-0.4-0.3C10.5,9,10.1,9,9.7,9.2C9.6,9.3,9.5,9.4,9.4,9.6c-0.3,1.1-0.8,2.2-1.3,3.2
					c-0.6,1.4-1.4,4.1-2,5.4c-0.2,0.3-0.4,0.7-0.6,1c0,0-0.1,0-0.1,0.1c-0.1,0.1-0.2,0-0.2-0.1c-0.2-0.8-0.1-0.7-0.1-1.5
					C5,15.9,5.2,15.3,5,13.5c0-0.4-0.3-3.9-0.8-4.8C4,8.3,3.7,8,3.5,7.6C3.2,7.1,2.8,6.8,2.3,6.5C1.8,6.3,1.4,6.3,1,6.5
					C0.8,6.6,0.7,6.7,0.7,6.9c-0.1,0.3-0.1,0.5,0,0.8C1,8,1.7,11,1.8,12.5C1.9,13.1,2,13.8,2,14.5c0,1.6,0.1,1.9,0.1,3.5
					c0.2,0.8,0.1,0.7,0.1,1.5c0,1.1-0.1,4.9-0.3,6c-0.1,0.6,0.1,1.4,0.2,1.9c0,0.1,0.1,0.2,0.2,0.3c0.4,0.4,0.9,0.8,1.4,1.1
					C3.9,28.9,4,28.9,4,29c0.7,0.2,1.1-1.3,1.4-1.5c0.7-0.7,2-6,2.1-6.3c0.4-1.2,0.7-3,1.3-4.1C8.9,17,9,16.8,9,16.7
					c0.2-0.8,0.6-1.5,1-2.3c0.1,0.2,0.1,0.5,0.1,0.6c0.1,0.8,0.2,1.5,0.3,2.3c0.2,1.5,0.7,3.7,1.2,5.2c0.2,0.7,0.1,1.2,0.3,2.1
					c0,0.1,0.3,0.2,0.4,0.4c0.2,0.4,0.4,0.6,0.6,1c0.4,0.6,1,0.9,1.8,0.9c0.4,0,0.8-0.2,0.9-0.6c0.1-0.2,0.1-0.4,0.2-0.6
					c0.2-0.8,0.5-1.6,0.7-2.4c0.2-0.6,0.5-2.1,0.6-2.3c0.1-0.9,0.4-1.7,0.5-2.5c0-0.6,0.3-1.2,0.4-1.8c0-0.2,1.7-5.2,1.8-5.4
					c0-0.1,0.1-0.4,0.2-0.7c0.3-0.4,0.5-0.9,0.5-1.4c0-0.5,0.1-1,0.4-1.3c0.4-0.5,0.5-1,0.7-1.5c0.3-1.2,0.6-2.3,0.7-3.5
					C22.4,2.3,22.5,1.7,22.4,1.1"/>
			</g>
		</g>
	</g>
</g>
<g id="kii_logo" class="st1">
	<g class="st2">
		<path class="st0" d="M54.9,10.7c0.1-0.1,8-8.5,8-8.5h-7.4c0,0-7.1,6.5-7.3,6.8V2.2H41v19.2h7.1v-4.1c0.1,0,1.4-1.1,1.5-1.3
			c0.1,0.1,4.5,5.4,4.5,5.4h9.4C63.4,21.5,55,10.8,54.9,10.7"/>
		<polygon class="st0" points="125.7,2.2 125.7,9.1 119.7,9.1 119.7,2.2 112.5,2.2 112.5,21.4 119.7,21.4 119.7,14.4 125.7,14.4 
			125.7,21.4 133.2,21.4 133.2,2.2 		"/>
		<path class="st0" d="M77.9,8.1v7.7c0,0.8-0.6,1.4-1.3,1.4h-4.1c-0.7,0-1.3-0.7-1.3-1.4V8.1c0-0.8,0.6-1.4,1.3-1.4h4.1
			C77.3,6.7,77.9,7.3,77.9,8.1 M80.9,2.2H68.3C66,2.2,64,4.4,64,7.1v9.5c0,2.6,1.9,4.8,4.2,4.8h12.5c2.3,0,4.2-2.2,4.2-4.8V7.1
			C85.1,4.4,83.1,2.2,80.9,2.2"/>
		<path class="st0" d="M109,9.2V7.7c0-1.7-0.6-3.4-1.6-4.5c-0.7-0.7-1.4-1-2.2-1H92.1c-2.1,0-3.8,2.5-3.8,5.5v8.1
			c0,3,1.7,5.5,3.8,5.5h13.1c2.1,0,3.8-2.5,3.8-5.5v-2.2H102l-0.1,1.8c-0.1,0.8-0.6,1.6-1.3,1.6h-4c-0.7,0-1.3-0.6-1.3-1.4V8.1
			c0-0.7,0.6-1.4,1.3-1.4h4c0.7,0,1.3,0.6,1.3,1.4v1h7.1C109,9.1,109,9.2,109,9.2z"/>
		<path class="st0" d="M134.8,18.9v0.5h0.8v2.1h0.5v-2.1h0.8v-0.5H134.8z M139.3,18.9l-0.7,1.8l-0.7-1.8h-0.7v2.5h0.5v-2.1l0.7,2.1
			h0.3l0.7-2.1v2.1h0.5v-2.5C139.8,18.9,139.3,18.9,139.3,18.9z"/>
		<g>
			<path class="st0" d="M21.3,2.2L21.3,2.2H8.6v19.1h12.6l-3-9.5C18.2,11.9,21.3,2.2,21.3,2.2z"/>
			<polygon class="st0" points="25.8,2.2 20,11.9 25.8,21.4 34.7,21.4 34.7,2.2 			"/>
		</g>
	</g>
</g>
</svg>
