<?xml version="1.0" encoding="utf-8"?>
<!-- Generator: Adobe Illustrator 19.1.0, SVG Export Plug-In . SVG Version: 6.00 Build 0)  -->
<!DOCTYPE svg PUBLIC "-//W3C//DTD SVG 1.1//EN" "http://www.w3.org/Graphics/SVG/1.1/DTD/svg11.dtd">
<svg version="1.1" id="Layer_1" xmlns="http://www.w3.org/2000/svg" xmlns:xlink="http://www.w3.org/1999/xlink" x="0px" y="0px"
	 viewBox="9 -34.7 158.5 88.7" style="enable-background:new 9 -34.7 158.5 88.7;" xml:space="preserve">
<style type="text/css">
	.st0{display:none;}
	.st1{display:inline;}
	.st2{fill:#FFFFFF;}
	.st3{fill:#ED1C24;}
	.st4{fill:#82BC00;}
	.st5{clip-path:url(#SVGID_2_);fill:#7C4399;}
</style>
<g id="Layer_1_1_" class="st0">
	<g class="st1">
		<circle class="st2" cx="88.7" cy="50" r="2.6"/>
		<path class="st2" d="M41.6-29.6h1.9c0,0,9.1,3.7,15,3.2s9-1.2,16.5-7.3c0,0,8.2,7.6,16.6,7.3c8.4-0.1,13.7-2.6,16.2-3.5
			c0,0,1.9,0.2,1.4,1.9s-4.2,9.3-0.5,29.8c3.8,20.5,3.2,28-6.5,35.9s-14.6,3.6-26.8,14.9c-3-1-7-7.1-18.8-10.1
			c-10.9-3.7-17.4-11.4-17.1-23.9c0.2-9.7,2.2-18,2.9-22.1s2.4-10-1.1-24.9L41.6-29.6z"/>
		<path class="st3" d="M88.7,47.2c-1.5,0-2.8,1.2-2.8,2.8c0,1.6,1.3,2.8,2.8,2.8s2.8-1.2,2.8-2.8C91.4,48.4,90.2,47.2,88.7,47.2z
			 M88.7,52.3c-1.2,0-2.2-1-2.2-2.3s1-2.3,2.2-2.3s2.2,1,2.2,2.3C90.9,51.3,89.9,52.3,88.7,52.3z M89.9,49.3c0-0.6-0.4-0.9-1.1-0.9
			h-1.2v3.2h0.5v-1.4h0.5l0.8,1.4H90l-0.9-1.4C89.6,50.1,89.9,49.9,89.9,49.3z M88.1,49.8v-1h0.6c0.3,0,0.7,0.1,0.7,0.5
			c0,0.5-0.4,0.5-0.8,0.5H88.1z M109.5,2.6c-0.9-5.4-1.9-10.9-1.9-17.5c0-5.9,0.9-8.8,1.5-10.7c0.3-1,0.6-1.7,0.6-2.6
			c0-2-1.2-2.2-1.7-2.2c-0.9,0-2.1,0.5-3.6,1c-2.6,1-6.2,2.4-10.9,2.4c-9.7,0-13.8-3.8-16-5.8c-1-0.9-1.6-1.5-2.3-1.5
			c-0.7,0-1.4,0.6-2.3,1.5c-2.2,2-6.3,5.8-16,5.8c-4.7,0-8.3-1.4-10.9-2.4c-1.5-0.6-2.7-1-3.6-1c-0.5,0-1.7,0.2-1.7,2.2
			c0,0.8,0.2,1.6,0.6,2.6c0.6,1.9,1.5,4.8,1.5,10.7c0,6.6-1,12.2-1.9,17.5C40,8,39,13.6,39,20.4c0,11.5,6.5,18.9,21.2,23.8
			c7.5,2.5,10.9,5.7,12.8,7.4c1,0.9,1.6,1.5,2.3,1.5l0,0c0.7,0,1.3-0.6,2.3-1.5c1.8-1.7,5.3-4.9,12.8-7.4
			c14.6-4.9,21.2-12.3,21.2-23.8C111.4,13.6,110.4,8,109.5,2.6z M89.9,43.2c-7.7,2.6-11.2,5.9-13.1,7.7c-0.7,0.7-1.3,1.2-1.6,1.2
			c-0.3,0-0.9-0.6-1.6-1.2c-1.9-1.8-5.4-5.1-13.1-7.7C46,38.4,39.9,31.6,39.9,20.4c0-6.7,1-12.2,1.9-17.6c0.9-5.4,1.9-11,1.9-17.7
			c0-6.1-1-9-1.6-11c-0.3-0.9-0.5-1.6-0.5-2.2c0-1.1,0.4-1.1,0.7-1.1c0.7,0,1.8,0.4,3.2,1c2.7,1,6.4,2.5,11.3,2.5
			c10.1,0,14.4-4,16.8-6.1c0.7-0.6,1.3-1.2,1.6-1.2s0.9,0.6,1.6,1.2c2.3,2.1,6.6,6.1,16.8,6.1c4.9,0,8.6-1.4,11.3-2.5
			c1.4-0.5,2.5-1,3.2-1c0.2,0,0.7,0,0.7,1.1c0,0.6-0.2,1.3-0.5,2.2c-0.6,2-1.6,4.9-1.6,11c0,6.7,1,12.3,1.9,17.7s1.9,10.9,1.9,17.6
			C110.4,31.6,104.2,38.4,89.9,43.2z M75.3,7.6l1.9-1.1c-0.4-1.7-0.9-3.9-0.9-3.9S75.8,5.2,75.3,7.6z M79.2,19.7
			c-0.6,0-1.1,0.3-1.1,0.3s0,3.4,0,6.6c0.1,0,0.2,0,0.3,0c0.8,0,2.4-1.5,2.4-4.3C80.8,20,80.1,19.7,79.2,19.7z M107.4,3
			c-1-5.4-1.9-11.1-1.9-17.9c0-6.2,1-9.3,1.7-11.3c0.3-0.8,0.5-1.4,0.5-1.9l0,0c-0.6,0.1-1.5,0.5-2.4,0.8c-2.9,1.1-6.7,2.6-11.8,2.6
			c-10.5,0-15-4.2-17.5-6.4c-0.3-0.2-0.6-0.6-0.9-0.8c-0.3,0.2-0.6,0.5-0.9,0.8c-2.4,2.2-7,6.4-17.5,6.4c-5.1,0-8.9-1.5-11.6-2.5
			c-0.9-0.4-1.8-0.7-2.4-0.8l0,0c0,0.5,0.2,1.1,0.5,1.9c0.7,2,1.7,5.1,1.7,11.3c0,6.8-1,12.4-1.9,17.9c-1.1,5.2-2,10.7-2,17.3
			c0,10.6,5.9,17.2,19.7,21.8c7.9,2.7,11.6,6.1,13.5,7.9c0.3,0.3,0.6,0.6,0.9,0.8c0.3-0.2,0.6-0.6,0.9-0.8c2-1.8,5.6-5.2,13.5-7.9
			c13.8-4.7,19.7-11.2,19.7-21.8C109.3,13.8,108.3,8.3,107.4,3z M89-10.9c-0.2,0.4-0.4,1-0.4,1.9V2.9c0,0.9,0.4,1.4,0.7,1.6
			l-3.4,2.1c0.5-1.1,0.6-1.8,0.6-2.5V-7.3c0-0.8-0.4-1.3-0.8-1.5L89-10.9z M84.1,7.6l-3.1,2c0,0.1,0,0,0,0c0.1-0.4,0.4-1.4,0.4-2.4
			V-3.4c0-1.7-0.8-1.2-1.3-0.3c-0.5,0.9-1.1,3-1.1,3v-4.2l6.2-3.7v5.1c0,0-0.8-1.8-1.2-2.2c-0.4-0.4-0.9-0.1-0.9,0.5V5.6
			C83.1,7,83.7,7.5,84.1,7.6z M77.6,8.1c0,0,0-0.1,0-0.2L75,9.4c-0.1,0.8-0.3,1.4-0.3,1.7c-0.2,1.1,0.4,1.7,0.7,1.9l-3.3,2
			c0,0,0.9-2.2,1.3-4.2c0.4-2,3.1-16.1,3.1-16.1S79.2,6.2,79.6,8c0.3,1.2,0.7,1.6,1,1.7l0,0l-2.9,1.8C77.8,11.1,78,9.8,77.6,8.1z
			 M77.8-25.6v3.1c0,0-0.9-1.2-2.2-0.6c-1.1,0.5-1.2,0.7-1.2,0.7s0,2.1,0,4.5c0.2-0.2,0.5-0.4,1.3-0.8c0.9-0.4,1.4-0.3,2.5-0.8
			c0.9-0.4,1.5-1.6,1.5-1.6s0.3,2.2-1.3,3c-1.4,0.7-2.2,0.4-3.2,0.8c-0.3,0.2-0.6,0.4-0.8,0.6v4.9c0,1,0.3,1.3,1.6,0.2
			c2.1-1.7,3-4.3,3-4.3v3.4l-7,4.3c0.2-0.5,0.6-1.3,0.6-2.2v-9.5c0-1.1-0.9-1.4-1.5-1.5L77.8-25.6z M70.7,0.2l3.3-2
			c0,0-0.6,1.4-1.1,4.4c-0.5,2.5-2.7,15-2.7,15s-3.1-12-3.3-12.9s-0.8-1.3-1.1-1.5L69,1.3c-0.2,0.6-0.3,1.6,0,2.9
			c0.5,2.1,1.4,5.9,1.4,5.9s1.2-6.7,1.3-8.3C71.7,0.9,71.2,0.4,70.7,0.2z M65.3-18c-0.3,0.5-0.6,1.2-0.6,1.9v3.5l3-1.6v-2.7
			c0-0.9-0.7-1.6-1.1-2l3-1.8c-0.2,0.4-0.4,1-0.4,1.4V-9c0,0.8,0.5,1.3,0.9,1.7l-3,1.8C67.3-6,67.6-7,67.6-8.3v-4.4l-3,1.6v4.7
			c0,0.9,0.6,1.5,0.9,1.8l-3.6,2.2c0.3-0.5,0.8-1.6,0.8-2.8v-9.3c0-1.1-1.2-1.4-1.2-1.4L65.3-18z M54-13.1l6.5-4v5
			c0,0-0.8-1.5-1.3-2c-0.6-0.6-0.7,0-0.7,1.3v10.1c0,1.2,0.8,1.7,1.2,1.9L56,1.4c0,0,0.6-1.5,0.6-2.4v-11.5c0-0.7-0.7-0.7-1.1,0.4
			C55-11.1,54-7.6,54-7.6V-13.1z M52.4,15.5c0.2,0.6,0.5,1.6,0.5,1.6l-2.1-1.6c1-1.8-0.7-2.8-1.6-2.8c-0.9,0-2.2,0.4-2.2,1.9
			c0,1.9,1.7,3.2,3.3,4.6c1.4,1.2,2.7,2.6,2.7,5.3c0,3.2-2.4,5.6-4.8,5.6s-3.9-2.2-3.9-3.5c0-1.4,0.9-2.6,2.4-2.6c1.8,0,1.9,2,1.9,2
			s-0.7-0.4-1.1-0.4c-0.4,0-0.8,0.3-0.8,0.9c0,0.6,0.8,1.6,1.9,1.6c1.2,0,2.3-1.2,2.3-2.6c0-1.9-1.6-3.2-3.1-4.7
			c-1.5-1.4-2.9-3-2.9-5.4c0-2.8,2.3-4,3.7-4s1.8,0.7,2.6,0.7c1.1,0,1.9-1.2,1.9-1.2s-0.5,1.4-0.7,2.1C52.2,13.7,52.2,15,52.4,15.5z
			 M58.8,23.6c0.2-0.6,0.4-1.7,0.1-3c-0.1-0.3-0.2-0.6-0.2-1L56.3,21c-0.1,0.9-0.2,1.7-0.3,2.1c-0.1,1.1,0.7,1.4,1.4,1.4l-4.1,2.6
			c0,0,0.9-2.2,1.2-4.5s2.9-16.9,2.9-16.9s3,12.6,3.4,14.1c0.3,1.2,0.7,1.7,0.9,1.9L58.8,23.6z M61.3,6L65,3.8
			c-0.3,0.6-0.7,1.8-0.7,3.4v11.2c0,0.5,0.7,0.4,1.4-0.6c1-1.6,1.9-4.5,1.9-4.5v4.8l-5.2,3.3V8C62.3,6.1,61.3,6,61.3,6z M72.5,37.9
			c0.1-0.6,0.3-1.8,0-3.1c-0.1-0.3-0.2-0.8-0.3-1.3l-3,1.9c-0.2,1.2-0.3,2.2-0.4,2.5c-0.1,0.9,0.6,1.4,1,1.6l-4.2,2.8
			c0,0,1.2-2,1.6-4.2C67.6,36,70.7,19,70.7,19s3.2,13,3.6,14.8c0.3,1.4,0.8,2,1.1,2.2L72.5,37.9z M83.7,35.3c-1.1,0-2.5-1.1-3.1-2.5
			c-0.5-1.3-1.8-4-2.1-4.6c-0.1,0-0.1,0-0.2,0s-0.1,0-0.2,0v4c0,0.8,0.5,1.3,0.9,1.5l-3.1,2c0.3-1,0.2-1,0.2-2.4V22.1
			c0-1.5-1.3-1.4-1.3-1.4S76,20,77,19.3s1.9-1.1,3-1.1c1.7,0,2.9,1.2,2.9,3.6c0,2.5-1.5,4.4-2.8,5.5c0.3,0.6,1.3,2.7,2,3.9
			c0.7,1.5,1.6,2.4,2.6,2.4s1.7-1,1.7-1S85.8,35.3,83.7,35.3z M89.2,27.2c0.3-0.7,0.7-2,0.7-3c0-1.4,0-7.3,0-7.3L88,23.6l-2-4
			c0,0,0,6.2,0,7.5c0,0.9,0.6,1.4,1,1.6L83.4,31c0.3-0.6,0.7-1.6,0.7-2.8V17.8c0-1.9-1.7-2-1.7-2l2.8-1.8l2.5,4.6l2-7.5L92,9.7
			c-0.2,0.5-0.5,1.3-0.5,2.1v11.5c0,1.1,0.4,1.6,0.7,1.8L89.2,27.2z M89.4-5.6c0-5,2.1-8,4-8c2,0,3,2.8,3,7.2s-1.6,8.8-3.9,8.8
			C90.6,2.4,89.4-0.7,89.4-5.6z M100.9,7.9c-0.4,1.2-2.4,6.7-2.4,6.7s0,2.2,0,4.1c0,1.9,0.9,2,0.9,2L95.8,23
			c0.3-0.6,0.7-1.6,0.7-2.5c0-1.4,0-5.3,0-5.3s-1.9-4.1-2.3-5c-0.3-0.6-0.9-0.8-1.4-0.9l3.3-2.1c0,0-0.4,1.6,0,2.7
			c0.3,0.9,1.4,3.1,1.4,3.1s0.8-2,1.3-3.3s1.1-2.6,1.1-3.8c0-1.3-0.9-1.7-0.9-1.7s0.9-1,1.3-1s1.3,1.1,1.3,2
			C101.6,6.1,101.3,6.7,100.9,7.9z M103-17c0,1.3,0,14.4,0,14.4h-0.3l-3.8-8.1c0,0,0,4.6,0,6.4c0,1.8,0.9,2.1,0.9,2.1l-3,1.9
			c0.3-0.5,0.6-1.5,0.6-2.8v-10.8c0-1-0.7-1.2-1.2-1.2l2.5-1.5l2.4,5.2c0,0,0.3-5.6,0.3-6.9s-1-1.8-1-1.8s0.8-0.7,1.2-0.7
			c0.4,0,0.9,0.1,1.3,0.9C103.4-19.1,103-18.3,103-17z M93.2-12c-1,0-2,2.5-2,6.5S91.9,1,92.7,1c1.1,0,2-4,2-7.1
			C94.7-9.7,94.4-12,93.2-12z M69.5,33.7l2.4-1.5c-0.5-2.4-1.2-5.4-1.2-5.4S70.1,30.5,69.5,33.7z M56.6,19l1.7-1
			c-0.5-2-0.9-4.1-0.9-4.1S57,16.5,56.6,19z"/>
	</g>
</g>
<g id="Layer_3" class="st0">
	<g class="st1">
		<g>
			<path d="M76.8-29.1c-0.5-0.5-1.3-0.9-2.1-0.9c-0.8,0-1.5,0.3-2.1,0.9l-19,19c-1.1,1.1-1.1,3,0,4.1s3,1.1,4.1,0l19.1-19
				C77.9-26.2,77.9-28,76.8-29.1z"/>
			<path class="st4" d="M108.1-15.7L108.1-15.7c-1.1-1.1-3-1.1-4.1,0c0,0-25.6,25.6-26,26c-0.3-0.3-3-3-3.4-3.4
				C75,6.5,96.8-15.3,96.8-15.3c0.6-0.6,0.8-1.3,0.8-2.1c0-0.7-0.3-1.5-0.8-2.1c-1.1-1.1-3-1.1-4.1,0c0,0-21.9,21.9-22.2,22.2
				c-0.3-0.3-3-3-3.4-3.4C67.6-0.9,95-28.3,95-28.3c0.6-0.6,0.8-1.3,0.8-2.1c0-0.7-0.3-1.5-0.8-2.1c-0.5-0.5-1.3-0.8-2.1-0.8
				c-0.8,0-1.5,0.3-2.1,0.8L61.1-2.6c-1.1,1.1-1.1,3,0,4.1L76,16.4c0.5,0.5,1.3,0.8,2.1,0.8c0.8,0,1.5-0.3,2.1-0.8l28-28
				C109.2-12.7,109.2-14.5,108.1-15.7z"/>
			<path d="M113.7-6.3c-0.5-0.5-1.3-0.8-2-0.9c-0.8,0-1.5,0.3-2.1,0.9L83.5,19.8c-1.1,1.1-1.1,3,0,4.1c0.5,0.5,1.3,0.8,2,0.8
				c0.8,0,1.5-0.3,2.1-0.8l26.1-26.1C114.8-3.4,114.8-5.2,113.7-6.3z"/>
		</g>
		<g>
			<polygon points="5,37 4.9,37.1 2.8,43.3 0.7,37.1 0.7,37 -1.2,37 -1.1,37.3 1.9,45.7 -0.4,52.3 -0.5,52.6 1.3,52.6 1.3,52.4 
				3.7,45.8 6.7,37.3 6.9,37 			"/>
			<path d="M8.3,37v8.9h7.9V37H8.3z M10.1,38.6h4.4v5.7h-4.4V38.6z"/>
			<polygon points="24.8,37 24.8,44.3 20.8,44.3 20.8,37 19.1,37 19.1,45.9 26.5,45.9 26.5,37 			"/>
			<path d="M34.2,44.1c-0.3,0.2-0.9,0.5-1.5,0.5c-0.7,0-1.2-0.3-1.2-1.5v-4.6h2.7l0.1-0.2l0.4-1l0.1-0.3h-3.2v-3.3h-1.8V37h-1.4
				l-0.1,0.1l-0.4,1l-0.1,0.3h1.9v4.5c0,2.8,1.7,3.2,2.7,3.2c1.1,0,1.8-0.4,2.1-0.6l0,0l0.1-0.1v-0.1v-1.5L34.3,44
				C34.3,44,34.2,44,34.2,44.1z"/>
			<path d="M38.1,37c0-0.4,0-6.7,0-6.7h-1.8V46h1.8c0,0,0-6.9,0-7.4H42c0,0.4,0,7.4,0,7.4h1.8v-8.9C43.8,37,38.5,37,38.1,37z"/>
			<path d="M59.5,41v-0.2c-0.1-2.4-1.7-4.1-3.9-4.1S51,38.5,51,41.4c0,3.1,2.4,4.7,4.6,4.7c1.8,0,2.9-0.6,3.4-0.9h0.1l0.1-0.1v-1.7
				l-0.3,0.2h-0.1c-0.4,0.2-1.5,0.9-3,0.9c-1.3,0-2.3-0.7-2.8-1.9l6.3-1.7L59.5,41z M55.5,38.3c1.1,0,1.8,0.6,2.1,1.6l-4.9,1.3
				C53,39.5,54,38.3,55.5,38.3z"/>
			<polygon points="61.8,37 61.8,45.9 63.6,45.9 63.6,38.6 67.7,38.6 67.7,45.9 69.4,45.9 69.4,37 			"/>
			<path d="M77,44.1c-0.3,0.2-0.9,0.5-1.5,0.5c-0.7,0-1.2-0.3-1.2-1.5v-4.6H77l0.1-0.2l0.4-1l0.1-0.3h-3.2v-3.3h-1.8V37h-1.4
				l-0.1,0.1l-0.4,1l-0.1,0.3h1.9v4.5c0,2.8,1.7,3.2,2.7,3.2c1.1,0,1.8-0.4,2.1-0.6l0.2-0.1v-0.1v-1.5l-0.3,0.1
				C77.2,44,77.1,44,77,44.1z"/>
			<path d="M84.1,36.8c-0.2-0.1-0.5-0.1-0.8-0.1c-1.1,0-1.8,0.6-2.3,1.1v-0.9h-1.8v8.9H81v-6.4c0.9-0.9,1.7-1.1,2.1-1.1
				c0.3,0,0.5,0,0.7,0.1c0.1,0,0.2,0,0.3,0h0.2v-1.6H84.1z"/>
			<path d="M94.1,41v-0.2c-0.1-2.4-1.7-4.1-3.9-4.1c-2.2,0-4.6,1.8-4.6,4.7c0,3.1,2.4,4.7,4.6,4.7c1.8,0,2.9-0.6,3.4-0.9h0.1
				l0.1-0.1V45v-1.6l-0.3,0.2h-0.1c-0.4,0.2-1.5,0.9-3,0.9c-1.3,0-2.3-0.7-2.8-1.9l6.3-1.7L94.1,41z M90.1,38.3
				c1.1,0,1.8,0.6,2.2,1.6l-4.9,1.3C87.5,39.5,88.6,38.3,90.1,38.3z"/>
			<path d="M100.7,36.7c-2.6,0-4.5,1.9-4.5,4.4v11.4H98v-7.4c0.8,0.6,1.8,1,2.8,1c2.4,0,4.5-2.2,4.5-4.7
				C105.2,38.9,103.1,36.7,100.7,36.7z M100.4,44.5c-1,0-2-0.6-2.5-1.5v-1.8c0-1.6,1.2-2.8,2.7-2.8s2.7,1.4,2.7,3.1
				C103.4,43.1,102,44.5,100.4,44.5z"/>
			<path d="M112.3,36.8c-0.2-0.1-0.5-0.1-0.8-0.1c-1.1,0-1.8,0.6-2.3,1.1v-0.9h-1.8v8.9h1.8v-6.4c0.9-0.9,1.7-1.1,2.1-1.1
				c0.3,0,0.5,0,0.7,0.1c0.1,0,0.2,0,0.3,0h0.2v-1.6H112.3z"/>
			<path d="M122.3,41v-0.2c-0.1-2.4-1.7-4.1-3.9-4.1c-2.2,0-4.6,1.8-4.6,4.7c0,3.1,2.4,4.7,4.7,4.7c1.8,0,2.9-0.6,3.4-0.9h0.1
				l0.1-0.1V45v-1.6l-0.3,0.2h-0.1c-0.4,0.2-1.5,0.9-3,0.9c-1.3,0-2.3-0.7-2.8-1.9l6.3-1.7L122.3,41z M118.3,38.3
				c1.1,0,1.8,0.6,2.1,1.6l-4.9,1.3C115.8,39.5,116.8,38.3,118.3,38.3z"/>
			<polygon points="124.6,37 124.6,45.9 126.4,45.9 126.4,38.6 130.5,38.6 130.5,45.9 132.2,45.9 132.2,37 			"/>
			<path d="M143,41v-0.2c0-2.4-1.7-4.1-3.9-4.1s-4.6,1.8-4.6,4.7c0,3.1,2.4,4.7,4.7,4.7c1.8,0,2.9-0.6,3.4-0.9h0.1l0.1-0.1V45v-1.6
				l-0.3,0.2c0,0-0.1,0-0.1,0.1c-0.4,0.2-1.5,0.9-3,0.9c-1.3,0-2.3-0.7-2.8-1.9L143,41L143,41z M139,38.3c1.1,0,1.8,0.6,2.1,1.6
				l-4.9,1.3C136.5,39.5,137.5,38.3,139,38.3z"/>
			<polygon points="151.1,37 151.1,44.3 147.1,44.3 147.1,37 145.3,37 145.3,45.9 152.8,45.9 152.8,37 			"/>
			<path d="M160.5,36.8c-0.2-0.1-0.5-0.1-0.8-0.1c-1.1,0-1.8,0.6-2.3,1.1v-0.9h-1.8v8.9h1.8v-6.4c0.7-0.7,1.5-1.1,2.1-1.1
				c0.3,0,0.5,0,0.7,0.1c0.1,0,0.2,0,0.3,0h0.2v-1.6H160.5z"/>
			<path d="M168.4,44.2l-4.3-5.5c0.4-0.2,1-0.4,1.7-0.4s1.4,0.2,2.2,0.6l0.3,0.2v-1.8l-0.1-0.1c-0.3-0.1-1.1-0.5-2.4-0.5
				c-1.4,0-2.7,0.5-3.8,1.6l-0.1,0.1l-0.2,0.1l0.1,0.2l4.3,5.5c-0.3,0.2-0.9,0.4-1.6,0.4c-0.9,0-1.6-0.3-2-0.5
				c-0.1,0-0.1-0.1-0.2-0.1l-0.3-0.1v1.8l0.2,0.1h0.1c0.3,0.1,1.2,0.4,2.2,0.4s2.5-0.3,3.8-1.6l0,0l0.1-0.1
				C168.5,44.4,168.4,44.2,168.4,44.2z"/>
			<g>
				<path d="M172,31.9c1.5,0,2.8,1.2,2.8,2.8c0,1.5-1.2,2.8-2.8,2.8s-2.8-1.2-2.8-2.8C169.2,33.1,170.5,31.9,172,31.9z M172,37
					c1.3,0,2.2-1,2.2-2.3s-1-2.3-2.2-2.3c-1.3,0-2.2,1-2.2,2.3C169.7,36,170.7,37,172,37z M170.9,33h1.2c0.7,0,1.1,0.3,1.1,0.9
					c0,0.5-0.3,0.9-0.8,0.9l0.9,1.4h-0.6l-0.9-1.4h-0.4v1.5h-0.5V33z M171.4,34.4h0.6c0.4,0,0.7-0.1,0.7-0.5s-0.3-0.5-0.7-0.5h-0.6
					V34.4z"/>
			</g>
		</g>
	</g>
</g>
<g>
	<defs>
		<rect id="SVGID_1_" x="12" y="-30" width="153.8" height="80.4"/>
	</defs>
	<clipPath id="SVGID_2_">
		<use xlink:href="#SVGID_1_"  style="overflow:visible;"/>
	</clipPath>
	<path class="st5" d="M115.4,8.2c0.2,9.9-20.7,15.8-32.8,21.2c0,0,24.6-5.5,33.3-13.3c5.6-4.9,5-17.7-9.4-15.7
		c-0.1,0-0.5,0.5-0.6,0.5C105.9,1.1,115.3,1.8,115.4,8.2"/>
	<path class="st5" d="M68-10.2c-1-0.3-2.3-0.6-3.6-1L64-12.9c0,0,27.2,13,56.4-16c0.6-0.6,1-1.1,1-1.1s-0.3,1.7-0.3,1.6
		c0,0-1.3,0.9-2.7,2.9c-2.4,3.3-4.8,9.6-0.8,21.5c0,0-1.3,0.9-1.3,0.9s-0.9-8.1-5.1-5.7c-2.3,1.3-3.5,9.2-3.5,9.2l-1.9,0.7
		c0,0,6.4-17.9-4.2-15c-9.5,2.6-13.9,10.4-17,42.8c0,0.3-1.8,0.6-1.8,0.6s2.7-17.6-5.3-17.2c-6.5,0.3-18,16.8-18,16.8h-2.6
		C56.8,29,87.7-4.9,68-10.2"/>
	<path class="st5" d="M83.7-11.8c2.4,0,4.9-2.2,5.7-5c0.7-2.8-0.6-5-3-5c-2.4,0-4.9,2.2-5.7,5C80-14,81.3-11.8,83.7-11.8"/>
	<path class="st5" d="M108.6-21.2c1.8-0.7,3.1-2.8,2.8-4.7c-0.3-1.9-2-2.9-3.9-2.2c-1.8,0.7-3.1,2.8-2.8,4.7
		C105-21.5,106.7-20.5,108.6-21.2"/>
	<path class="st5" d="M115.4,8.3c0.2,9.9-20.7,15.8-32.8,21.2c0,0,24.6-5.5,33.3-13.3c5.6-4.9,5-17.7-9.4-15.7
		c-0.1,0-0.5,0.5-0.6,0.5C105.9,1.1,115.3,1.8,115.4,8.3"/>
	<path class="st5" d="M68-10.2c-1-0.3-2.3-0.6-3.6-1L64-12.9c0,0,27.2,13,56.4-16c0.6-0.6,1-1.1,1-1.1s-0.3,1.7-0.3,1.6
		c0,0-1.3,0.9-2.7,2.9c-2.4,3.3-4.8,9.6-0.8,21.5c0,0-1.3,0.9-1.3,0.9s-0.9-8.1-5.1-5.7c-2.3,1.3-3.5,9.2-3.5,9.2l-1.9,0.7
		c0,0,6.4-17.9-4.2-15c-9.4,2.6-13.9,10.4-17,42.8c0,0.3-1.8,0.6-1.8,0.6s2.7-17.6-5.3-17.2c-6.5,0.3-18,16.8-18,16.8h-2.6
		C56.8,29,87.7-4.9,68-10.2"/>
	<path class="st5" d="M83.7-11.8c2.4,0,4.9-2.2,5.7-5c0.7-2.8-0.6-5-3-5c-2.4,0-4.9,2.2-5.7,5C80-14,81.3-11.8,83.7-11.8"/>
	<path class="st5" d="M108.6-21.2c1.8-0.7,3.1-2.8,2.8-4.7c-0.3-1.9-2-2.9-3.9-2.2c-1.8,0.7-3.1,2.8-2.8,4.7
		C105-21.5,106.7-20.5,108.6-21.2"/>
	<path class="st5" d="M55.6,27.7c0,0.8-0.7,1.5-1.5,1.5s-1.5-0.7-1.5-1.5c0-0.8,0.7-1.5,1.5-1.5S55.6,26.9,55.6,27.7 M52.9,27.7
		c0,0.7,0.6,1.3,1.3,1.3c0.7,0,1.3-0.6,1.3-1.3c0-0.7-0.6-1.3-1.3-1.3C53.4,26.3,52.9,26.9,52.9,27.7 M53.8,27.6h0.4
		c0.3,0,0.5,0,0.5-0.3c0-0.3-0.2-0.3-0.4-0.3h-0.5V27.6z M53.6,26.8h0.6c0.4,0,0.6,0.2,0.6,0.5c0,0.3-0.2,0.4-0.4,0.5l0.5,0.8h-0.2
		l-0.5-0.8h-0.4v0.8h-0.1V26.8z"/>
	<path class="st5" d="M14.4,41.7h0.8c1.2,0,2.1,0.5,2.1,1.6c0,1.2-0.9,1.7-2,1.7c-0.4,0-0.7,0-0.9,0V41.7z M12,46.7
		c0.5,0.1,1.4,0.2,2.5,0.2c2.1,0,3.3-0.4,4.1-1c0.6-0.6,1.1-1.4,1.1-2.4c0-1.5-0.9-2.5-2.1-2.8v0c1.2-0.5,1.7-1.4,1.7-2.4
		c0-1.1-0.5-1.8-1.2-2.3c-0.8-0.5-1.6-0.6-3.1-0.6c-1.2,0-2.4,0.1-3,0.2V46.7z M14.4,37.2c0.2,0,0.5-0.1,1-0.1
		c1.1,0,1.7,0.5,1.7,1.3c0,0.9-0.6,1.4-1.9,1.4h-0.8V37.2z"/>
	<path class="st5" d="M22.2,37.4c-0.8,0-1.3-0.6-1.3-1.4c0-0.8,0.5-1.4,1.3-1.4c0.8,0,1.3,0.6,1.3,1.4
		C23.6,36.8,23.1,37.4,22.2,37.4L22.2,37.4z M21.1,38.5h2.3v8.3h-2.3V38.5z"/>
	<path class="st5" d="M32.3,40.9c0-1.2,0-1.9,0.1-2.5h-2l-0.1,1h0c-0.4-0.7-1-1.2-2.1-1.2c-1.8,0-3.4,1.7-3.4,4.4
		c0,2.4,1.3,4.1,3.2,4.1c0.9,0,1.6-0.4,2-1.1h0v0.5c0,1.5-0.8,2.2-1.9,2.2c-0.9,0-1.7-0.3-2.2-0.6l-0.5,2c0.7,0.4,1.7,0.6,2.7,0.6
		c1.1,0,2.2-0.2,3-1c0.9-0.8,1.1-2.1,1.1-3.8V40.9z M29.9,43.1c0,0.2,0,0.5-0.1,0.7c-0.2,0.6-0.6,1-1.2,1c-1,0-1.5-1-1.5-2.2
		c0-1.5,0.7-2.4,1.5-2.4c0.6,0,1.1,0.5,1.3,1.1c0,0.1,0,0.3,0,0.5V43.1z"/>
	<path class="st5" d="M39.3,41.7h0.8c1.2,0,2.1,0.5,2.1,1.6c0,1.2-0.9,1.7-2,1.7c-0.4,0-0.7,0-0.9,0V41.7z M37,46.7
		c0.5,0.1,1.4,0.2,2.5,0.2c2.1,0,3.3-0.4,4.1-1c0.6-0.6,1.1-1.4,1.1-2.4c0-1.5-0.9-2.5-2.1-2.8v0c1.2-0.5,1.7-1.4,1.7-2.4
		c0-1.1-0.5-1.8-1.2-2.3c-0.8-0.5-1.6-0.6-3.1-0.6c-1.2,0-2.4,0.1-3,0.2V46.7z M39.3,37.2c0.2,0,0.5-0.1,1-0.1
		c1.1,0,1.7,0.5,1.7,1.3c0,0.9-0.6,1.4-1.9,1.4h-0.8V37.2z"/>
	<path class="st5" d="M46.1,41.2c0-1.2,0-2-0.1-2.7h2l0.1,1.5h0.1c0.4-1.2,1.3-1.7,2-1.7c0.2,0,0.3,0,0.5,0v2.4
		c-0.2,0-0.4-0.1-0.6-0.1c-0.9,0-1.4,0.5-1.6,1.3c0,0.2,0,0.4,0,0.6v4.2h-2.3L46.1,41.2z"/>
	<path class="st5" d="M55.1,47c2,0,3.9-1.4,3.9-4.4c0-2.5-1.5-4.3-3.8-4.3c-2.4,0-4,1.7-4,4.4C51.2,45.4,52.9,47,55.1,47L55.1,47z
		 M55.1,45.1c-1,0-1.5-1.1-1.5-2.5c0-1.2,0.4-2.5,1.5-2.5c1.1,0,1.5,1.3,1.5,2.5C56.6,44.1,56.1,45.1,55.1,45.1L55.1,45.1z"/>
	<path class="st5" d="M63,36.2v2.3h1.7v1.9H63v3c0,1,0.2,1.5,0.9,1.5c0.3,0,0.5,0,0.7-0.1l0,2c-0.3,0.1-0.9,0.2-1.5,0.2
		c-0.8,0-1.4-0.3-1.8-0.7c-0.4-0.5-0.6-1.3-0.6-2.5v-3.4h-1v-1.9h1v-1.6L63,36.2z"/>
	<path class="st5" d="M65.9,34.7h2.3v4.8h0c0.2-0.4,0.6-0.7,0.9-0.9c0.4-0.2,0.8-0.3,1.2-0.3c1.5,0,2.6,1.1,2.6,3.7v4.9h-2.3v-4.6
		c0-1.1-0.3-1.8-1.2-1.8c-0.6,0-1,0.4-1.2,0.9c-0.1,0.2-0.1,0.4-0.1,0.6v4.9h-2.3V34.7z"/>
	<path class="st5" d="M81.3,43.5c0-0.2,0.1-0.6,0.1-1c0-2.1-0.9-4.2-3.4-4.2c-2.6,0-3.8,2.3-3.8,4.5c0,2.6,1.5,4.2,4,4.2
		c1,0,1.9-0.2,2.7-0.5l-0.3-1.8C80,44.9,79.4,45,78.6,45c-1.1,0-2-0.5-2.1-1.6L81.3,43.5z M76.5,41.7c0.1-0.7,0.5-1.7,1.5-1.7
		c1.1,0,1.3,1.1,1.3,1.7H76.5z"/>
	<path class="st5" d="M82.7,41.2c0-1.2,0-2-0.1-2.7h2l0.1,1.5h0.1c0.4-1.2,1.3-1.7,2-1.7c0.2,0,0.3,0,0.5,0v2.4
		c-0.2,0-0.4-0.1-0.6-0.1c-0.9,0-1.4,0.5-1.6,1.3c0,0.2,0,0.4,0,0.6v4.2h-2.3L82.7,41.2z"/>
	<path class="st5" d="M88.3,44.5c0.4,0.3,1.3,0.6,2,0.6c0.7,0,1-0.3,1-0.7c0-0.4-0.2-0.6-1.1-1c-1.6-0.6-2.1-1.5-2.1-2.5
		c0-1.6,1.2-2.7,3.1-2.7c0.9,0,1.7,0.2,2.1,0.5l-0.4,1.8c-0.3-0.2-1-0.5-1.6-0.5c-0.6,0-0.9,0.3-0.9,0.7c0,0.4,0.3,0.6,1.2,1
		c1.4,0.5,2,1.4,2,2.6c0,1.6-1.1,2.7-3.2,2.7c-1,0-1.9-0.2-2.4-0.6L88.3,44.5z"/>
	<path class="st5" d="M100.2,41.7h0.8c1.2,0,2.1,0.5,2.1,1.6c0,1.2-0.9,1.7-2,1.7c-0.4,0-0.7,0-0.9,0V41.7z M97.9,46.7
		c0.5,0.1,1.4,0.2,2.5,0.2c2.1,0,3.3-0.4,4.1-1c0.6-0.6,1.1-1.4,1.1-2.4c0-1.5-0.9-2.5-2.1-2.8v0c1.2-0.5,1.7-1.4,1.7-2.4
		c0-1.1-0.5-1.8-1.2-2.3c-0.8-0.5-1.6-0.6-3.1-0.6c-1.2,0-2.4,0.1-3,0.2V46.7z M100.2,37.2c0.2,0,0.5-0.1,1-0.1
		c1.1,0,1.7,0.5,1.7,1.3c0,0.9-0.6,1.4-1.9,1.4h-0.8V37.2z"/>
	<path class="st5" d="M108.1,37.4c-0.8,0-1.3-0.6-1.3-1.4c0-0.8,0.5-1.4,1.3-1.4c0.8,0,1.3,0.6,1.3,1.4
		C109.4,36.8,108.9,37.4,108.1,37.4L108.1,37.4z M106.9,38.5h2.3v8.3h-2.3V38.5z"/>
	<path class="st5" d="M118.1,40.9c0-1.2,0-1.9,0.1-2.5h-2l-0.1,1h0c-0.4-0.7-1-1.2-2.1-1.2c-1.8,0-3.4,1.7-3.4,4.4
		c0,2.4,1.3,4.1,3.2,4.1c0.9,0,1.6-0.4,2-1.1h0v0.5c0,1.5-0.8,2.2-1.9,2.2c-0.9,0-1.7-0.3-2.2-0.6l-0.5,2c0.7,0.4,1.7,0.6,2.7,0.6
		c1.1,0,2.2-0.2,3-1c0.9-0.8,1.1-2.1,1.1-3.8V40.9z M115.8,43.1c0,0.2,0,0.5-0.1,0.7c-0.2,0.6-0.6,1-1.2,1c-1,0-1.5-1-1.5-2.2
		c0-1.5,0.7-2.4,1.5-2.4c0.6,0,1.1,0.5,1.3,1.1c0,0.1,0,0.3,0,0.5V43.1z"/>
	<path class="st5" d="M123,44.1c0.6,0.4,1.6,0.7,2.6,0.7c1.1,0,1.6-0.5,1.6-1.2c0-0.7-0.5-1.1-1.7-1.6c-1.7-0.7-2.9-1.7-2.9-3.4
		c0-2,1.5-3.4,3.9-3.4c1.2,0,2,0.3,2.6,0.6l-0.5,2.1c-0.4-0.2-1.2-0.5-2.2-0.5c-1,0-1.5,0.5-1.5,1.1c0,0.7,0.6,1.1,1.9,1.6
		c1.8,0.8,2.7,1.8,2.7,3.4c0,1.9-1.3,3.6-4.2,3.6c-1.2,0-2.3-0.4-2.9-0.7L123,44.1z"/>
	<path class="st5" d="M132.1,37.4c-0.8,0-1.3-0.6-1.3-1.4c0-0.8,0.5-1.4,1.3-1.4c0.8,0,1.3,0.6,1.3,1.4
		C133.4,36.8,132.9,37.4,132.1,37.4L132.1,37.4z M130.9,38.5h2.3v8.3h-2.3V38.5z"/>
	<path class="st5" d="M135,44.5c0.4,0.3,1.3,0.6,2,0.6c0.7,0,1-0.3,1-0.7c0-0.4-0.2-0.6-1.1-1c-1.6-0.6-2.1-1.5-2.1-2.5
		c0-1.6,1.2-2.7,3.1-2.7c0.9,0,1.7,0.2,2.1,0.5l-0.4,1.8c-0.3-0.2-1-0.5-1.6-0.5c-0.6,0-0.9,0.3-0.9,0.7c0,0.4,0.3,0.6,1.2,1
		c1.4,0.5,2,1.4,2,2.6c0,1.6-1.1,2.7-3.2,2.7c-1,0-1.9-0.2-2.4-0.6L135,44.5z"/>
	<path class="st5" d="M144.1,36.2v2.3h1.7v1.9h-1.7v3c0,1,0.2,1.5,0.9,1.5c0.3,0,0.5,0,0.7-0.1l0,2c-0.3,0.1-0.9,0.2-1.5,0.2
		c-0.8,0-1.4-0.3-1.8-0.7c-0.4-0.5-0.6-1.3-0.6-2.5v-3.4h-1v-1.9h1v-1.6L144.1,36.2z"/>
	<path class="st5" d="M153.5,43.5c0-0.2,0.1-0.6,0.1-1c0-2.1-0.9-4.2-3.4-4.2c-2.6,0-3.8,2.3-3.8,4.5c0,2.6,1.5,4.2,4,4.2
		c1,0,1.9-0.2,2.7-0.5l-0.3-1.8c-0.6,0.2-1.3,0.4-2.1,0.4c-1.1,0-2-0.5-2.1-1.6L153.5,43.5z M148.7,41.7c0.1-0.7,0.5-1.7,1.5-1.7
		c1.1,0,1.3,1.1,1.3,1.7H148.7z"/>
	<path class="st5" d="M154.9,41.2c0-1.2,0-2-0.1-2.7h2l0.1,1.5h0.1c0.4-1.2,1.3-1.7,2-1.7c0.2,0,0.3,0,0.5,0v2.4
		c-0.2,0-0.4-0.1-0.6-0.1c-0.9,0-1.4,0.5-1.6,1.3c0,0.2,0,0.4,0,0.6v4.2h-2.3L154.9,41.2z"/>
	<path class="st5" d="M160.6,44.5c0.4,0.3,1.3,0.6,2,0.6c0.7,0,1-0.3,1-0.7c0-0.4-0.2-0.6-1.1-1c-1.6-0.6-2.1-1.5-2.1-2.5
		c0-1.6,1.2-2.7,3.1-2.7c0.9,0,1.7,0.2,2.1,0.5l-0.4,1.8c-0.3-0.2-1-0.5-1.6-0.5c-0.6,0-0.9,0.3-0.9,0.7c0,0.4,0.3,0.6,1.2,1
		c1.4,0.5,2,1.4,2,2.6c0,1.6-1.1,2.7-3.2,2.7c-1,0-1.9-0.2-2.4-0.6L160.6,44.5z"/>
</g>
</svg>
