<?xml version="1.0" encoding="utf-8"?>
<!-- Generator: Adobe Illustrator 19.1.0, SVG Export Plug-In . SVG Version: 6.00 Build 0)  -->
<!DOCTYPE svg PUBLIC "-//W3C//DTD SVG 1.1//EN" "http://www.w3.org/Graphics/SVG/1.1/DTD/svg11.dtd">
<svg version="1.1" xmlns="http://www.w3.org/2000/svg" xmlns:xlink="http://www.w3.org/1999/xlink" x="0px" y="0px"
	 viewBox="0 0 90.2 88.7" style="enable-background:new 0 0 90.2 88.7;" xml:space="preserve">
<style type="text/css">
	.st0{display:none;}
	.st1{display:inline;}
	.st2{fill:#FFFFFF;}
	.st3{fill:#ED1C24;}
	.st4{fill:#82BC00;}
	.st5{display:inline;fill-rule:evenodd;clip-rule:evenodd;fill:#0A95CE;}
	.st6{display:inline;fill-rule:evenodd;clip-rule:evenodd;fill:#262829;}
	.st7{clip-path:url(#SVGID_2_);fill:#7C459A;}
	.st8{clip-path:url(#SVGID_4_);}
	.st9{clip-path:url(#SVGID_8_);}
	.st10{fill:#F5864E;}
	.st11{fill:#FCF16E;}
	.st12{fill:#FEC626;}
	.st13{fill:#F4752D;}
	.st14{fill:#F79422;}
	.st15{fill:#F16827;}
	.st16{fill:#FDBE19;}
	.st17{fill:#F37D21;}
	.st18{fill:#F49222;}
	.st19{fill:#F37123;}
	.st20{fill:#F38420;}
	.st21{fill:#F7C518;}
	.st22{fill:#F8BC19;}
	.st23{fill:#F9AE19;}
	.st24{fill:#F6BE1C;}
</style>
<g id="Salvation" class="st0">
	<g class="st1">
		<circle class="st2" cx="79.7" cy="84.7" r="2.6"/>
		<path class="st2" d="M32.6,5.1h1.9c0,0,9.1,3.7,15,3.2c5.9-0.5,9-1.2,16.5-7.3c0,0,8.2,7.6,16.6,7.3C91,8.2,96.3,5.7,98.8,4.8
			c0,0,1.9,0.2,1.4,1.9c-0.5,1.7-4.2,9.3-0.5,29.8c3.8,20.5,3.2,28-6.5,35.9S78.6,76,66.4,87.3c-3-1-7-7.1-18.8-10.1
			c-10.9-3.7-17.4-11.4-17.1-23.9c0.2-9.7,2.2-18,2.9-22.1c0.7-4.1,2.4-10-1.1-24.9L32.6,5.1z"/>
		<path class="st3" d="M79.7,81.9c-1.5,0-2.8,1.2-2.8,2.8c0,1.6,1.3,2.8,2.8,2.8c1.5,0,2.8-1.2,2.8-2.8
			C82.4,83.1,81.2,81.9,79.7,81.9z M79.7,87c-1.2,0-2.2-1-2.2-2.3c0-1.3,1-2.3,2.2-2.3c1.2,0,2.2,1,2.2,2.3C81.9,86,80.9,87,79.7,87
			z M80.9,84c0-0.6-0.4-0.9-1.1-0.9h-1.2v3.2h0.5v-1.4h0.5l0.8,1.4H81l-0.9-1.4C80.6,84.8,80.9,84.6,80.9,84z M79.1,84.5v-1h0.6
			c0.3,0,0.7,0.1,0.7,0.5c0,0.5-0.4,0.5-0.8,0.5H79.1z M100.5,37.3c-0.9-5.4-1.9-10.9-1.9-17.5c0-5.9,0.9-8.8,1.5-10.7
			c0.3-1,0.6-1.7,0.6-2.6c0-2-1.2-2.2-1.7-2.2c-0.9,0-2.1,0.5-3.6,1c-2.6,1-6.2,2.4-10.9,2.4c-9.7,0-13.8-3.8-16-5.8
			c-1-0.9-1.6-1.5-2.3-1.5c-0.7,0-1.4,0.6-2.3,1.5c-2.2,2-6.3,5.8-16,5.8c-4.7,0-8.3-1.4-10.9-2.4c-1.5-0.6-2.7-1-3.6-1
			c-0.5,0-1.7,0.2-1.7,2.2c0,0.8,0.2,1.6,0.6,2.6c0.6,1.9,1.5,4.8,1.5,10.7c0,6.6-1,12.2-1.9,17.5c-0.9,5.4-1.9,11-1.9,17.8
			c0,11.5,6.5,18.9,21.2,23.8c7.5,2.5,10.9,5.7,12.8,7.4c1,0.9,1.6,1.5,2.3,1.5h0c0.7,0,1.3-0.6,2.3-1.5c1.8-1.7,5.3-4.9,12.8-7.4
			c14.6-4.9,21.2-12.3,21.2-23.8C102.4,48.3,101.4,42.7,100.5,37.3z M80.9,77.9c-7.7,2.6-11.2,5.9-13.1,7.7
			c-0.7,0.7-1.3,1.2-1.6,1.2c-0.3,0-0.9-0.6-1.6-1.2c-1.9-1.8-5.4-5.1-13.1-7.7C37,73.1,30.9,66.3,30.9,55.1c0-6.7,1-12.2,1.9-17.6
			c0.9-5.4,1.9-11,1.9-17.7c0-6.1-1-9-1.6-11c-0.3-0.9-0.5-1.6-0.5-2.2c0-1.1,0.4-1.1,0.7-1.1c0.7,0,1.8,0.4,3.2,1
			c2.7,1,6.4,2.5,11.3,2.5c10.1,0,14.4-4,16.8-6.1c0.7-0.6,1.3-1.2,1.6-1.2s0.9,0.6,1.6,1.2c2.3,2.1,6.6,6.1,16.8,6.1
			c4.9,0,8.6-1.4,11.3-2.5c1.4-0.5,2.5-1,3.2-1c0.2,0,0.7,0,0.7,1.1c0,0.6-0.2,1.3-0.5,2.2c-0.6,2-1.6,4.9-1.6,11
			c0,6.7,1,12.3,1.9,17.7c0.9,5.4,1.9,10.9,1.9,17.6C101.4,66.3,95.2,73.1,80.9,77.9z M66.3,42.3l1.9-1.1c-0.4-1.7-0.9-3.9-0.9-3.9
			S66.8,39.9,66.3,42.3z M70.2,54.4c-0.6,0-1.1,0.3-1.1,0.3s0,3.4,0,6.6c0.1,0,0.2,0,0.3,0c0.8,0,2.4-1.5,2.4-4.3
			C71.8,54.7,71.1,54.4,70.2,54.4z M98.4,37.7c-1-5.4-1.9-11.1-1.9-17.9c0-6.2,1-9.3,1.7-11.3c0.3-0.8,0.5-1.4,0.5-1.9c0,0,0,0,0,0
			c-0.6,0.1-1.5,0.5-2.4,0.8C93.4,8.5,89.6,10,84.5,10C74,10,69.5,5.8,67,3.6c-0.3-0.2-0.6-0.6-0.9-0.8c-0.3,0.2-0.6,0.5-0.9,0.8
			c-2.4,2.2-7,6.4-17.5,6.4c-5.1,0-8.9-1.5-11.6-2.5c-0.9-0.4-1.8-0.7-2.4-0.8v0c0,0.5,0.2,1.1,0.5,1.9c0.7,2,1.7,5.1,1.7,11.3
			c0,6.8-1,12.4-1.9,17.9C32.9,43,32,48.5,32,55.1c0,10.6,5.9,17.2,19.7,21.8c7.9,2.7,11.6,6.1,13.5,7.9c0.3,0.3,0.6,0.6,0.9,0.8
			c0.3-0.2,0.6-0.6,0.9-0.8c2-1.8,5.6-5.2,13.5-7.9c13.8-4.7,19.7-11.2,19.7-21.8C100.3,48.5,99.3,43,98.4,37.7z M80,23.8
			c-0.2,0.4-0.4,1-0.4,1.9v11.9c0,0.9,0.4,1.4,0.7,1.6l-3.4,2.1c0.5-1.1,0.6-1.8,0.6-2.5V27.4c0-0.8-0.4-1.3-0.8-1.5L80,23.8z
			 M75.1,42.3L72,44.3c0,0.1,0,0,0,0c0.1-0.4,0.4-1.4,0.4-2.4V31.3c0-1.7-0.8-1.2-1.3-0.3c-0.5,0.9-1.1,3-1.1,3v-4.2l6.2-3.7v5.1
			c0,0-0.8-1.8-1.2-2.2c-0.4-0.4-0.9-0.1-0.9,0.5v10.8C74.1,41.7,74.7,42.2,75.1,42.3z M68.6,42.8c0,0,0-0.1,0-0.2L66,44.1
			c-0.1,0.8-0.3,1.4-0.3,1.7c-0.2,1.1,0.4,1.7,0.7,1.9l-3.3,2c0,0,0.9-2.2,1.3-4.2c0.4-2,3.1-16.1,3.1-16.1s2.7,11.5,3.1,13.3
			c0.3,1.2,0.7,1.6,1,1.7c0,0,0,0,0,0l-2.9,1.8C68.8,45.8,69,44.5,68.6,42.8z M68.8,9.1v3.1c0,0-0.9-1.2-2.2-0.6
			c-1.1,0.5-1.2,0.7-1.2,0.7s0,2.1,0,4.5c0.2-0.2,0.5-0.4,1.3-0.8c0.9-0.4,1.4-0.3,2.5-0.8c0.9-0.4,1.5-1.6,1.5-1.6s0.3,2.2-1.3,3
			c-1.4,0.7-2.2,0.4-3.2,0.8c-0.3,0.2-0.6,0.4-0.8,0.6v4.9c0,1,0.3,1.3,1.6,0.2c2.1-1.7,3-4.3,3-4.3l0,3.4l-7,4.3
			c0.2-0.5,0.6-1.3,0.6-2.2v-9.5c0-1.1-0.9-1.4-1.5-1.5L68.8,9.1z M61.7,34.9l3.3-2c0,0-0.6,1.4-1.1,4.4c-0.5,2.5-2.7,15-2.7,15
			s-3.1-12-3.3-12.9c-0.2-0.9-0.8-1.3-1.1-1.5L60,36c-0.2,0.6-0.3,1.6,0,2.9c0.5,2.1,1.4,5.9,1.4,5.9s1.2-6.7,1.3-8.3
			C62.7,35.6,62.2,35.1,61.7,34.9z M56.3,16.7c-0.3,0.5-0.6,1.2-0.6,1.9v3.5l3-1.6v-2.7c0-0.9-0.7-1.6-1.1-2l3-1.8
			c-0.2,0.4-0.4,1-0.4,1.4v10.3c0,0.8,0.5,1.3,0.9,1.7l-3,1.8c0.2-0.5,0.5-1.5,0.5-2.8v-4.4l-3,1.6v4.7c0,0.9,0.6,1.5,0.9,1.8
			l-3.6,2.2c0.3-0.5,0.8-1.6,0.8-2.8v-9.3c0-1.1-1.2-1.4-1.2-1.4L56.3,16.7z M45,21.6l6.5-4v5c0,0-0.8-1.5-1.3-2
			c-0.6-0.6-0.7,0-0.7,1.3V32c0,1.2,0.8,1.7,1.2,1.9L47,36.1c0,0,0.6-1.5,0.6-2.4V22.2c0-0.7-0.7-0.7-1.1,0.4
			C46,23.6,45,27.1,45,27.1V21.6z M43.4,50.2c0.2,0.6,0.5,1.6,0.5,1.6l-2.1-1.6c1-1.8-0.7-2.8-1.6-2.8c-0.9,0-2.2,0.4-2.2,1.9
			c0,1.9,1.7,3.2,3.3,4.6c1.4,1.2,2.7,2.6,2.7,5.3c0,3.2-2.4,5.6-4.8,5.6s-3.9-2.2-3.9-3.5c0-1.4,0.9-2.6,2.4-2.6c1.8,0,1.9,2,1.9,2
			s-0.7-0.4-1.1-0.4c-0.4,0-0.8,0.3-0.8,0.9c0,0.6,0.8,1.6,1.9,1.6c1.2,0,2.3-1.2,2.3-2.6c0-1.9-1.6-3.2-3.1-4.7
			c-1.5-1.4-2.9-3-2.9-5.4c0-2.8,2.3-4,3.7-4c1.4,0,1.8,0.7,2.6,0.7c1.1,0,1.9-1.2,1.9-1.2s-0.5,1.4-0.7,2.1
			C43.2,48.4,43.2,49.7,43.4,50.2z M49.8,58.3c0.2-0.6,0.4-1.7,0.1-3c-0.1-0.3-0.2-0.6-0.2-1l-2.4,1.4c-0.1,0.9-0.2,1.7-0.3,2.1
			c-0.1,1.1,0.7,1.4,1.4,1.4l-4.1,2.6c0,0,0.9-2.2,1.2-4.5c0.3-2.3,2.9-16.9,2.9-16.9s3,12.6,3.4,14.1c0.3,1.2,0.7,1.7,0.9,1.9
			L49.8,58.3z M52.3,40.7l3.7-2.2c-0.3,0.6-0.7,1.8-0.7,3.4v11.2c0,0.5,0.7,0.4,1.4-0.6c1-1.6,1.9-4.5,1.9-4.5v4.8l-5.2,3.3V42.7
			C53.3,40.8,52.3,40.7,52.3,40.7z M63.5,72.6c0.1-0.6,0.3-1.8,0-3.1c-0.1-0.3-0.2-0.8-0.3-1.3l-3,1.9c-0.2,1.2-0.3,2.2-0.4,2.5
			c-0.1,0.9,0.6,1.4,1,1.6L56.6,77c0,0,1.2-2,1.6-4.2c0.4-2.1,3.5-19.1,3.5-19.1s3.2,13,3.6,14.8c0.3,1.4,0.8,2,1.1,2.2L63.5,72.6z
			 M74.7,70c-1.1,0-2.5-1.1-3.1-2.5c-0.5-1.3-1.8-4-2.1-4.6c-0.1,0-0.1,0-0.2,0c-0.1,0-0.1,0-0.2,0v4c0,0.8,0.5,1.3,0.9,1.5l-3.1,2
			c0.3-1,0.2-1,0.2-2.4V56.8c0-1.5-1.3-1.4-1.3-1.4S67,54.7,68,54c1-0.7,1.9-1.1,3-1.1c1.7,0,2.9,1.2,2.9,3.6c0,2.5-1.5,4.4-2.8,5.5
			c0.3,0.6,1.3,2.7,2,3.9c0.7,1.5,1.6,2.4,2.6,2.4c1,0,1.7-1,1.7-1S76.8,70,74.7,70z M80.2,61.9c0.3-0.7,0.7-2,0.7-3
			c0-1.4,0-7.3,0-7.3L79,58.3l-2-4c0,0,0,6.2,0,7.5c0,0.9,0.6,1.4,1,1.6l-3.6,2.3c0.3-0.6,0.7-1.6,0.7-2.8V52.5c0-1.9-1.7-2-1.7-2
			l2.8-1.8l2.5,4.6l2-7.5l2.3-1.4c-0.2,0.5-0.5,1.3-0.5,2.1v11.5c0,1.1,0.4,1.6,0.7,1.8L80.2,61.9z M80.4,29.1c0-5,2.1-8,4-8
			c2,0,3,2.8,3,7.2c0,4.4-1.6,8.8-3.9,8.8C81.6,37.1,80.4,34,80.4,29.1z M91.9,42.6c-0.4,1.2-2.4,6.7-2.4,6.7s0,2.2,0,4.1
			c0,1.9,0.9,2,0.9,2l-3.6,2.3c0.3-0.6,0.7-1.6,0.7-2.5c0-1.4,0-5.3,0-5.3s-1.9-4.1-2.3-5c-0.3-0.6-0.9-0.8-1.4-0.9l3.3-2.1
			c0,0-0.4,1.6,0,2.7c0.3,0.9,1.4,3.1,1.4,3.1s0.8-2,1.3-3.3c0.5-1.3,1.1-2.6,1.1-3.8c0-1.3-0.9-1.7-0.9-1.7s0.9-1,1.3-1
			s1.3,1.1,1.3,2C92.6,40.8,92.3,41.4,91.9,42.6z M94,17.7c0,1.3,0,14.4,0,14.4h-0.3L89.9,24c0,0,0,4.6,0,6.4c0,1.8,0.9,2.1,0.9,2.1
			l-3,1.9c0.3-0.5,0.6-1.5,0.6-2.8V20.8c0-1-0.7-1.2-1.2-1.2l2.5-1.5l2.4,5.2c0,0,0.3-5.6,0.3-6.9s-1-1.8-1-1.8s0.8-0.7,1.2-0.7
			c0.4,0,0.9,0.1,1.3,0.9C94.4,15.6,94,16.4,94,17.7z M84.2,22.7c-1,0-2,2.5-2,6.5c0,4,0.7,6.5,1.5,6.5c1.1,0,2-4,2-7.1
			C85.7,25,85.4,22.7,84.2,22.7z M60.5,68.4l2.4-1.5c-0.5-2.4-1.2-5.4-1.2-5.4S61.1,65.2,60.5,68.4z M47.6,53.7l1.7-1
			c-0.5-2-0.9-4.1-0.9-4.1S48,51.2,47.6,53.7z"/>
	</g>
</g>
<g id="YE" class="st0">
	<g class="st1">
		<g>
			<path d="M67.8,5.6c-0.5-0.5-1.3-0.9-2.1-0.9c-0.8,0-1.5,0.3-2.1,0.9L44.6,24.6c-1.1,1.1-1.1,3,0,4.1c1.1,1.1,3,1.1,4.1,0
				L67.8,9.7C68.9,8.5,68.9,6.7,67.8,5.6z"/>
			<path class="st4" d="M99.1,19L99.1,19c-1.1-1.1-3-1.1-4.1,0C95,19,69.4,44.6,69,45c-0.3-0.3-3-3-3.4-3.4
				c0.4-0.4,22.2-22.2,22.2-22.2c0.6-0.6,0.8-1.3,0.8-2.1c0-0.7-0.3-1.5-0.8-2.1c-1.1-1.1-3-1.1-4.1,0c0,0-21.9,21.9-22.2,22.2
				c-0.3-0.3-3-3-3.4-3.4C58.6,33.8,86,6.4,86,6.4c0.6-0.6,0.8-1.3,0.8-2.1c0-0.7-0.3-1.5-0.8-2.1c-0.5-0.5-1.3-0.8-2.1-0.8
				c-0.8,0-1.5,0.3-2.1,0.8L52.1,32.1c-1.1,1.1-1.1,3,0,4.1L67,51.1c0.5,0.5,1.3,0.8,2.1,0.8c0.8,0,1.5-0.3,2.1-0.8l28-28
				C100.2,22,100.2,20.2,99.1,19z"/>
			<path d="M104.7,28.4c-0.5-0.5-1.3-0.8-2-0.9c-0.8,0-1.5,0.3-2.1,0.9L74.5,54.5c-1.1,1.1-1.1,3,0,4.1c0.5,0.5,1.3,0.8,2,0.8
				c0.8,0,1.5-0.3,2.1-0.8l26.1-26.1C105.8,31.3,105.8,29.5,104.7,28.4z"/>
		</g>
		<g>
			<polygon points="-4,71.7 -4.1,71.8 -6.2,78 -8.3,71.8 -8.3,71.7 -10.2,71.7 -10.1,72 -7.1,80.4 -9.4,87 -9.5,87.3 -7.7,87.3 
				-7.7,87.1 -5.3,80.5 -2.3,72 -2.1,71.7 			"/>
			<path d="M-0.7,71.7v8.9h7.9v-8.9H-0.7z M1.1,73.3h4.4V79H1.1V73.3z"/>
			<polygon points="15.8,71.7 15.8,79 11.8,79 11.8,71.7 10.1,71.7 10.1,80.6 17.5,80.6 17.5,71.7 			"/>
			<path d="M25.2,78.8c-0.3,0.2-0.9,0.5-1.5,0.5c-0.7,0-1.2-0.3-1.2-1.5v-4.6h2.7l0.1-0.2l0.4-1l0.1-0.3h-3.2v-3.3h-1.8v3.3h-1.4
				l-0.1,0.1l-0.4,1l-0.1,0.3h1.9v4.5c0,2.8,1.7,3.2,2.7,3.2c1.1,0,1.8-0.4,2.1-0.6l0,0l0.1-0.1c0,0,0-0.1,0-0.1v-1.5l-0.3,0.2
				C25.3,78.7,25.2,78.7,25.2,78.8z"/>
			<path d="M29.1,71.7c0-0.4,0-6.7,0-6.7h-1.8v15.7h1.8c0,0,0-6.9,0-7.4H33c0,0.4,0,7.4,0,7.4h1.8v-8.9
				C34.8,71.7,29.5,71.7,29.1,71.7z"/>
			<path d="M50.5,75.7l0-0.2c-0.1-2.4-1.7-4.1-3.9-4.1c-2.2,0-4.6,1.8-4.6,4.7c0,3.1,2.4,4.7,4.6,4.7c1.8,0,2.9-0.6,3.4-0.9l0.1,0
				l0.1-0.1v-1.7c0,0-0.3,0.2-0.3,0.2l-0.1,0c-0.4,0.2-1.5,0.9-3,0.9c-1.3,0-2.3-0.7-2.8-1.9l6.3-1.7L50.5,75.7z M46.5,73
				c1.1,0,1.8,0.6,2.1,1.6l-4.9,1.3C44,74.2,45,73,46.5,73z"/>
			<polygon points="52.8,71.7 52.8,80.6 54.6,80.6 54.6,73.3 58.7,73.3 58.7,80.6 60.4,80.6 60.4,71.7 			"/>
			<path d="M68,78.8c-0.3,0.2-0.9,0.5-1.5,0.5c-0.7,0-1.2-0.3-1.2-1.5v-4.6H68l0.1-0.2l0.4-1l0.1-0.3h-3.2v-3.3h-1.8v3.3h-1.4
				l-0.1,0.1l-0.4,1l-0.1,0.3h1.9v4.5c0,2.8,1.7,3.2,2.7,3.2c1.1,0,1.8-0.4,2.1-0.6l0.2-0.1c0,0,0-0.1,0-0.1v-1.5l-0.3,0.1
				C68.2,78.7,68.1,78.7,68,78.8z"/>
			<path d="M75.1,71.5c-0.2-0.1-0.5-0.1-0.8-0.1c-1.1,0-1.8,0.6-2.3,1.1v-0.9h-1.8v8.9H72v-6.4c0.9-0.9,1.7-1.1,2.1-1.1
				c0.3,0,0.5,0,0.7,0.1c0.1,0,0.2,0,0.3,0h0.2v-1.6L75.1,71.5z"/>
			<path d="M85.1,75.7l0-0.2c-0.1-2.4-1.7-4.1-3.9-4.1c-2.2,0-4.6,1.8-4.6,4.7c0,3.1,2.4,4.7,4.6,4.7c1.8,0,2.9-0.6,3.4-0.9l0.1,0
				l0.1-0.1c0,0,0-0.1,0-0.1v-1.6c0,0-0.3,0.2-0.3,0.2l-0.1,0c-0.4,0.2-1.5,0.9-3,0.9c-1.3,0-2.3-0.7-2.8-1.9l6.3-1.7L85.1,75.7z
				 M81.1,73c1.1,0,1.8,0.6,2.2,1.6l-4.9,1.3C78.5,74.2,79.6,73,81.1,73z"/>
			<path d="M91.7,71.4c-2.6,0-4.5,1.9-4.5,4.4v11.4h1.8v-7.4c0.8,0.6,1.8,1,2.8,1c2.4,0,4.5-2.2,4.5-4.7
				C96.2,73.6,94.1,71.4,91.7,71.4z M91.4,79.2c-1,0-2-0.6-2.5-1.5v-1.8c0-1.6,1.2-2.8,2.7-2.8c1.5,0,2.7,1.4,2.7,3.1
				C94.4,77.8,93,79.2,91.4,79.2z"/>
			<path d="M103.3,71.5c-0.2-0.1-0.5-0.1-0.8-0.1c-1.1,0-1.8,0.6-2.3,1.1v-0.9h-1.8v8.9h1.8v-6.4c0.9-0.9,1.7-1.1,2.1-1.1
				c0.3,0,0.5,0,0.7,0.1c0.1,0,0.2,0,0.3,0h0.2v-1.6L103.3,71.5z"/>
			<path d="M113.3,75.7l0-0.2c-0.1-2.4-1.7-4.1-3.9-4.1c-2.2,0-4.6,1.8-4.6,4.7c0,3.1,2.4,4.7,4.7,4.7c1.8,0,2.9-0.6,3.4-0.9l0.1,0
				l0.1-0.1c0,0,0-0.1,0-0.1v-1.6c0,0-0.3,0.2-0.3,0.2l-0.1,0c-0.4,0.2-1.5,0.9-3,0.9c-1.3,0-2.3-0.7-2.8-1.9l6.3-1.7L113.3,75.7z
				 M109.3,73c1.1,0,1.8,0.6,2.1,1.6l-4.9,1.3C106.8,74.2,107.8,73,109.3,73z"/>
			<polygon points="115.6,71.7 115.6,80.6 117.4,80.6 117.4,73.3 121.5,73.3 121.5,80.6 123.2,80.6 123.2,71.7 			"/>
			<path d="M134,75.7l0-0.2c0-2.4-1.7-4.1-3.9-4.1c-2.2,0-4.6,1.8-4.6,4.7c0,3.1,2.4,4.7,4.7,4.7c1.8,0,2.9-0.6,3.4-0.9l0.1,0
				l0.1-0.1c0,0,0-0.1,0-0.1v-1.6l-0.3,0.2c0,0-0.1,0-0.1,0.1c-0.4,0.2-1.5,0.9-3,0.9c-1.3,0-2.3-0.7-2.8-1.9l6.3-1.7L134,75.7z
				 M130,73c1.1,0,1.8,0.6,2.1,1.6l-4.9,1.3C127.5,74.2,128.5,73,130,73z"/>
			<polygon points="142.1,71.7 142.1,79 138.1,79 138.1,71.7 136.3,71.7 136.3,80.6 143.8,80.6 143.8,71.7 			"/>
			<path d="M151.5,71.5c-0.2-0.1-0.5-0.1-0.8-0.1c-1.1,0-1.8,0.6-2.3,1.1v-0.9h-1.8v8.9h1.8v-6.4c0.7-0.7,1.5-1.1,2.1-1.1
				c0.3,0,0.5,0,0.7,0.1c0.1,0,0.2,0,0.3,0h0.2v-1.6L151.5,71.5z"/>
			<path d="M159.4,78.9l-4.3-5.5c0.4-0.2,1-0.4,1.7-0.4c0.7,0,1.4,0.2,2.2,0.6l0.3,0.2V72l-0.1-0.1c-0.3-0.1-1.1-0.5-2.4-0.5
				c-1.4,0-2.7,0.5-3.8,1.6c0,0-0.1,0.1-0.1,0.1l-0.2,0.1l0.1,0.2l4.3,5.5c-0.3,0.2-0.9,0.4-1.6,0.4c-0.9,0-1.6-0.3-2-0.5
				c-0.1,0-0.1-0.1-0.2-0.1l-0.3-0.1v1.8l0.2,0.1c0,0,0.1,0,0.1,0c0.3,0.1,1.2,0.4,2.2,0.4c1,0,2.5-0.3,3.8-1.6l0,0l0.1-0.1
				C159.5,79.1,159.4,78.9,159.4,78.9z"/>
			<g>
				<path d="M163,66.6c1.5,0,2.8,1.2,2.8,2.8c0,1.5-1.2,2.8-2.8,2.8s-2.8-1.2-2.8-2.8C160.2,67.8,161.5,66.6,163,66.6z M163,71.7
					c1.3,0,2.2-1,2.2-2.3c0-1.3-1-2.3-2.2-2.3c-1.3,0-2.2,1-2.2,2.3C160.7,70.7,161.7,71.7,163,71.7z M161.9,67.7h1.2
					c0.7,0,1.1,0.3,1.1,0.9c0,0.5-0.3,0.9-0.8,0.9l0.9,1.4h-0.6l-0.9-1.4h-0.4V71h-0.5V67.7z M162.4,69.1h0.6c0.4,0,0.7-0.1,0.7-0.5
					c0-0.4-0.3-0.5-0.7-0.5h-0.6V69.1z"/>
			</g>
		</g>
	</g>
</g>
<g id="BGC" class="st0">
	<path class="st5" d="M120.7,26.6l-25,25.4h0.1c-0.4,0.4-0.9,0.6-1.4,0.8c-0.6,0.2-1.3,0.4-2,0.4c-0.7,0-1.4-0.2-2-0.4
		c-0.5-0.2-0.9-0.5-1.3-0.8l0,0L61.3,24l1.2-1.1l-0.1-0.1c0.4-0.4,1.8-1.8,3.4-1.7c0.8-0.1,1.4,0.2,1.9,0.5v0.1l16.5,16.7l0.1-0.1
		c1.1,1.1,2.7,2.2,5.1,2.2c2.3,0,5-1.7,6-2.9l18.2-18.2L98.6,3.5c-1.1-1.3-2.8-2-5.2-2.1h-0.8c-1.6,0.1-3.4,0.4-4.7,1.2
		c-1.1-0.8-2.5-1.2-4.3-1.2h-0.8c-1.5,0.1-3.3,0.4-4.7,1.2c-1.1-0.8-2.5-1.2-4.2-1.2h-0.8c-1.7,0-3.6,0.4-5,1.3
		c-1.1-0.8-2.5-1.3-4.4-1.3c0,0,0,0,0,0c0,0,0,0,0,0c0,0,0,0,0,0c0,0,0,0,0,0c0,0,0,0,0,0s0,0,0,0c0,0,0,0,0,0c0,0,0,0,0,0
		c0,0,0,0,0,0c0,0,0,0,0,0c0,0,0,0,0,0c0,0,0,0,0,0c0,0,0,0,0,0c0,0,0,0,0,0s0,0,0,0c0,0,0,0,0,0c0,0,0,0,0,0c0,0,0,0,0,0
		c0,0,0,0,0,0c0,0,0,0,0,0c0,0,0,0,0,0c0,0,0,0,0,0s0,0,0,0c0,0,0,0,0,0c0,0,0,0,0,0s0,0,0,0s0,0,0,0c0,0,0,0,0,0c0,0,0,0,0,0
		c0,0,0,0,0,0c0,0,0,0,0,0c0,0,0,0,0,0c0,0,0,0,0,0c0,0,0,0,0,0c0,0,0,0,0,0c0,0,0,0,0,0c0,0,0,0,0,0c0,0,0,0,0,0c0,0,0,0,0,0
		c0,0,0,0,0,0s0,0,0,0s0,0,0,0c0,0,0,0,0,0c0,0,0,0,0,0c0,0,0,0,0,0c0,0,0,0,0,0c0,0,0,0,0,0s0,0,0,0c0,0,0,0,0,0c0,0,0,0,0,0
		c0,0,0,0,0,0c0,0,0,0,0,0c0,0,0,0,0,0c0,0,0,0,0,0c0,0,0,0,0,0c0,0,0,0,0,0c0,0,0,0,0,0c0,0,0,0,0,0c0,0,0,0,0,0c0,0,0,0,0,0
		c0,0,0,0,0,0c0,0,0,0,0,0c0,0,0,0,0,0c0,0,0,0,0,0c0,0,0,0,0,0c0,0,0,0,0,0c0,0,0,0,0,0c0,0,0,0,0,0c0,0,0,0,0,0c0,0,0,0,0,0
		c0,0,0,0,0,0c0,0,0,0,0,0c0,0,0,0,0,0c0,0,0,0,0,0c0,0,0,0,0,0c0,0,0,0,0,0c0,0,0,0,0,0c0,0,0,0,0,0s0,0,0,0c0,0,0,0,0,0
		c0,0,0,0,0,0c0,0,0,0,0,0c0,0,0,0,0,0c0,0,0,0,0,0c0,0,0,0,0,0c0,0,0,0,0,0c0,0,0,0,0,0c0,0,0,0,0,0c0,0,0,0,0,0c0,0,0,0,0,0
		c0,0,0,0,0,0c0,0,0,0,0,0c0,0,0,0,0,0c0,0,0,0,0,0c0,0,0,0,0,0c0,0,0,0,0,0s0,0,0,0c0,0,0,0,0,0c0,0,0,0,0,0c0,0,0,0,0,0
		c0,0,0,0,0,0c0,0,0,0,0,0c0,0,0,0,0,0s0,0,0,0c0,0,0,0,0,0c0,0,0,0,0,0c0,0,0,0,0,0c0,0,0,0,0,0c0,0,0,0,0,0c0,0,0,0,0,0
		c0,0,0,0,0,0c0,0,0,0,0,0c0,0,0,0,0,0c0,0,0,0,0,0c0,0,0,0,0,0c0,0,0,0,0,0c0,0,0,0,0,0c0,0,0,0,0,0c0,0,0,0,0,0c0,0,0,0,0,0
		c0,0,0,0,0,0c0,0,0,0,0,0c0,0,0,0,0,0c0,0,0,0,0,0s0,0,0,0c0,0,0,0,0,0c0,0,0,0,0,0c0,0,0,0,0,0c-2.4,0.1-4.1,0.8-5.2,2.1
		L32.3,28.8l2.5,2.5L59.7,6l0,0c0.4-0.4,0.9-0.6,1.3-0.8c0.6-0.2,1.3-0.4,2-0.4c0.6,0,1.3,0.2,2,0.4c0.5,0.2,1,0.5,1.4,0.8h-0.1
		l27.6,27.9L92.9,35l0.1,0.1c-0.4,0.4-1.8,1.8-3.4,1.7c-1.9,0.1-3-1.3-3.4-1.7V35L71.7,20.4c-1.1-1.2-2.7-2.9-5.8-2.9
		c-2.3,0-4.9,1.7-6,2.9L41.8,38.6l15.1,15.9c1.1,1.2,2.8,1.9,5.2,2c1.8,0.1,4-0.2,5.5-1.2c1.1,0.8,2.5,1.2,4.3,1.2
		c1.7,0.1,3.9-0.2,5.5-1.2c1.1,0.8,2.5,1.2,4.2,1.2c1.8,0.1,4.2-0.3,5.7-1.3c1.1,0.8,2.6,1.3,4.4,1.3c0.2,0,0.5,0,0.7,0
		c0.2,0,0.4,0,0.6,0c2.4-0.1,4.1-0.8,5.2-2l25-25.4L120.7,26.6L120.7,26.6z M93.2,4.8c1.1,0.1,2.1,0.5,2.9,1.2h-0.1l2.9,2.9l0.5,0.4
		l9.5,9.6l-2.3,2.4l-16-16.1C91.4,4.8,92.3,4.7,93.2,4.8L93.2,4.8z M83.5,4.8c1.1,0.1,2,0.5,2.9,1.2l0,0L104,23.8l-2.3,2.4l-20.9-21
		C81.7,4.8,82.6,4.7,83.5,4.8L83.5,4.8z M70.8,5.3c0.9-0.5,2-0.6,3-0.5c1.1,0.1,2.1,0.5,2.9,1.2l0,0l22.6,22.8l-2.6,2.6L70.8,5.3
		L70.8,5.3z M62.2,53.1c-1.1-0.1-2.1-0.5-2.9-1.2l0,0L56.5,49l-0.4-0.4L46.6,39l2.3-2.4l16,16.1C64,53.1,63.1,53.2,62.2,53.1
		L62.2,53.1z M71.9,53.1c-1.1-0.1-2-0.5-2.9-1.2h0.1L66.2,49l-0.4-0.4L51.4,34.1l2.3-2.4l20.9,21C73.8,53.1,72.9,53.2,71.9,53.1
		L71.9,53.1z M81.7,53.1c-1.1-0.1-2-0.5-2.9-1.2l0,0L76,49l-0.4-0.4L56.3,29.2l2.6-2.6l25.8,26.1C83.7,53.1,82.7,53.2,81.7,53.1
		L81.7,53.1z"/>
	<path class="st6" d="M8.9,69.5L8.9,69.5L8.9,69.5L8.9,69.5c-0.1,0-0.2-0.1-0.2-0.1c0-0.1,0.1-0.1,0.1-0.1h0.3
		c0.9-0.1,1.7-0.9,1.7-1.9v-0.7c0-1.1-0.9-1.9-1.9-1.9H1.2c-0.1,0-0.1,0.1-0.1,0.1V66c0,0,0,0.1,0.1,0.1h0.1
		c0.4,0.1,0.9,0.4,0.9,0.6v6c0,0.2-0.5,0.5-0.9,0.5c0,0-0.1,0.1-0.1,0.1c-0.1,0-0.1,0.1-0.1,0.1v1.2c0,0.1,0.1,0.1,0.1,0.1h0.9
		c0.1,0,0.1,0,0.1,0h6.6c1.3,0,2.3-1.3,2.3-2.4v-1C11.1,70.4,10.6,69.5,8.9,69.5L8.9,69.5z M8.6,71.8c0,1.1-0.6,1.3-1.5,1.3H4.9
		l-0.1-0.1C4.8,73,4.8,73,4.8,73v-6.5v-0.1c0.1-0.1,0.1-0.1,0.1-0.1h2.2c0.5,0,1,0.4,1,0.9v0.6c0,0.2-0.5,0.9-1,0.9h-1
		c-0.2,0-0.4,0.1-0.4,0.3v1.1c0,0.2,0.2,0.3,0.4,0.3h1.1c1.1,0.1,1.3,0.6,1.3,0.9V71.8L8.6,71.8z"/>
	<path class="st6" d="M146.1,69.5L146.1,69.5L146.1,69.5L146.1,69.5c-0.1,0-0.2-0.1-0.2-0.1c0-0.1,0.1-0.1,0.1-0.1h0.3
		c0.9-0.1,1.7-0.9,1.7-1.9v-0.7c0-1.1-0.9-1.9-1.9-1.9h-7.7c-0.1,0-0.1,0.1-0.1,0.1V66c0,0,0,0.1,0.1,0.1c0.1,0,0.1,0,0.1,0
		c0.4,0.1,0.9,0.4,0.9,0.6v6c0,0.2-0.5,0.5-0.9,0.5c0,0-0.1,0.1-0.1,0.1c-0.1,0-0.1,0.1-0.1,0.1v1.2c0,0.1,0.1,0.1,0.1,0.1h1h0.1
		h6.6c1.4,0,2.3-1.3,2.3-2.4v-1C148.4,70.4,147.8,69.5,146.1,69.5L146.1,69.5z M145.8,71.8c0,1.1-0.6,1.3-1.4,1.3h-2.3l-0.1-0.1
		C142,73,142,73,142,73v-6.5c0,0,0-0.1,0.1-0.1c0-0.1,0.1-0.1,0.1-0.1h2.2c0.5,0,0.9,0.4,0.9,0.9v0.6c0,0.2-0.4,0.9-1,0.9h-1
		c-0.2,0-0.3,0.1-0.3,0.3v1.1c0,0.2,0.1,0.3,0.3,0.3h1.1c1.1,0.1,1.3,0.6,1.3,0.9V71.8L145.8,71.8z"/>
	<path class="st6" d="M31.7,64.7h-3.1c-0.3,0-0.3,0-0.3,0.3v0.7c0,0.2,0.2,0.1,0.2,0.1s0.2,0,0.3,0.2l0.1,0.1c0,0,0,0.2-0.1,0.4
		c-0.2,0.3-0.8,1.3-1.1,1.8c0,0.1-0.2,0.2-0.4,0.2l0,0c-0.1,0-0.2-0.1-0.3-0.2l-1.2-1.6c0,0-0.2-0.4,0-0.7c0.1-0.1,0.3-0.2,0.4-0.2
		c0.1,0,0.2,0,0.2-0.2c0-0.1,0-0.6,0-0.6c0-0.1-0.1-0.2-0.2-0.2h-3.9c-0.1,0-0.3,0-0.3,0.2v0.8c0,0.3,0,0.4,0.2,0.4
		c0.4,0,0.7,0.4,0.7,0.4l2.7,3.9V73c0,0.1-0.3,0.2-0.5,0.2l-0.2,0.1c-0.1,0-0.1,0.1-0.1,0.1l0,0v1.3l0,0c0,0.1,0.1,0.1,0.1,0.1h4.3
		c0.1,0,0.1-0.1,0.1-0.1l0,0v-1.3l0,0c-0.1,0-0.1-0.1-0.1-0.1H29c-0.4-0.1-0.8-0.2-0.8-0.4v-2.3l2.3-3.5c0,0,0.4-0.5,0.5-0.6
		c0.1-0.2,0.2-0.2,0.4-0.3l0.3-0.1c0.3,0,0.3-0.1,0.3-0.2V65C32,64.7,32,64.7,31.7,64.7L31.7,64.7z"/>
	<path class="st6" d="M127.1,73.2v-2.1c0-0.1-0.1-0.3-0.3-0.3h-0.8c-0.2,0-0.4,0.2-0.4,0.3v0.4c0,0.2-0.1,0.4-0.1,0.5
		c-0.2,0.4-0.7,0.8-0.9,0.9c-0.5,0.2-1.2,0.1-1.2,0.1l0,0h-1.1c-0.1-0.1-0.2-0.2-0.2-0.2v-6c0-0.2,0.5-0.5,0.9-0.5
		c0,0,0.1,0,0.1-0.1c0-0.1,0-0.1,0-0.1v-1.2c0-0.1-0.1-0.1-0.1-0.1h-4.1c-0.1,0-0.1,0.1-0.1,0.1v1.2c0,0,0,0,0,0.1
		c0.1,0.1,0.1,0.1,0.1,0.1c0.4,0.1,0.9,0.3,0.9,0.5v6c0,0.2-0.5,0.5-0.9,0.5c0,0-0.1,0-0.1,0.1v0.1v1.2c0,0.1,0.1,0.1,0.1,0.1h3.3
		l0,0h4.5c0.2,0,0.3-0.2,0.3-0.4v-1.1C127.2,73.3,127.2,73.2,127.1,73.2L127.1,73.2z"/>
	<path class="st6" d="M95.6,73.2v-2.1c0-0.1-0.1-0.3-0.3-0.3h-0.8c-0.2,0-0.3,0.2-0.3,0.3v0.4c0,0.2-0.1,0.4-0.1,0.5
		c-0.2,0.4-0.8,0.8-0.9,0.9C92.7,73,92,73,92,73l0,0H91c-0.1-0.1-0.2-0.2-0.2-0.2v-6c0-0.2,0.6-0.5,1-0.5c0,0,0.1,0,0.1-0.1
		c0.1,0,0.1-0.1,0.1-0.1v-1.2c0-0.1-0.1-0.1-0.1-0.1h-4.1c-0.1,0-0.1,0.1-0.1,0.1l-0.1,1.2c0.1,0,0,0.1,0.1,0.1
		c0,0.1,0.1,0.1,0.1,0.1c0.5,0.1,1,0.3,1,0.5v6c0,0.2-0.5,0.5-1,0.5c0,0-0.1,0-0.1,0.1c-0.1,0,0,0.1-0.1,0.1l0.1,1.2
		c0,0.1,0,0.1,0.1,0.1h3.3l0,0h4.4c0.2,0,0.4-0.2,0.4-0.4v-1.1C95.7,73.3,95.6,73.2,95.6,73.2L95.6,73.2z"/>
	<path class="st6" d="M132.3,73.1c-0.3,0-0.9,0-1.1-0.1c-0.3,0-0.6-0.2-0.8-0.5c-0.2-0.3-0.1-1.1-0.1-1.3v-4.5c0-0.2,0.6-0.5,1-0.5
		c0,0,0.1,0,0.1-0.1c0-0.1,0-0.1,0-0.1v-1.2c0-0.1-0.1-0.1-0.1-0.1h-4.6c0,0-0.1,0.1-0.1,0.1v1.2c0,0,0,0,0,0.1
		c0.1,0.1,0.1,0.1,0.1,0.1c0.4,0.1,0.9,0.3,0.9,0.5V71l0,0v0.9c0,0,0,1.3,0.2,1.6c0.5,0.9,1.4,1.3,4,1.3c0.1,0,0.5,0,0.5,0
		c2.6,0,3.6-0.5,4.1-1.3c0.2-0.4,0.2-1.6,0.2-1.6V71l0,0v-4.3c0-0.2,0.5-0.5,0.9-0.5c0,0,0.1,0,0.1-0.1c0.1-0.1,0-0.1,0-0.1v-1.2
		c0-0.1,0-0.1-0.1-0.1h-4.6c-0.1,0-0.1,0.1-0.1,0.1v1.2c0,0,0,0,0.1,0.1c0,0.1,0.1,0.1,0.1,0.1c0.4,0.1,1,0.3,1,0.5v4.5
		c0,0.2,0.1,1.1-0.1,1.3c-0.2,0.3-0.5,0.5-0.8,0.5C133.1,73.1,132.5,73.1,132.3,73.1L132.3,73.1z"/>
	<path class="st6" d="M118.4,71.9c0-0.2-0.1-0.3-0.3-0.3h-0.8c-0.2,0-0.3,0.1-0.3,0.3V72c0,0.4-0.6,0.9-0.9,1.1
		c-0.5,0.2-0.7,0.2-1.4,0.2l0,0l0,0c-0.8,0-0.9,0-1.5-0.2c-0.3-0.1-0.8-0.7-1-1.2c-0.2-0.4-0.3-0.8-0.3-2.3c0-1.5,0.1-2.2,0.3-2.5
		c0.3-0.5,0.8-1.1,2-1.1c1.2,0,1.6,0.4,1.9,0.7c0,0,0.4,0.3,0.4,0.6v0.1c0,0.2,0.1,0.3,0.3,0.3h0.8c0.2,0,0.3-0.1,0.3-0.3l0.1-2.4
		c0,0,0-0.2-0.2-0.4c0,0-1.2-0.4-3.1-0.4c-1.6,0.1-2.9,0.4-3.6,0.8c-0.6,0.4-1.9,1.6-1.9,4.1c0,2.6,0.6,3.5,1.2,4.1
		c0.6,0.5,1.4,1.1,3.1,1.3c0.1,0.1,0.5,0.1,0.9,0.1c0.1,0,0.2,0,0.4,0c0.4,0,0.6,0,0.9-0.1c2-0.1,2.5-0.3,2.5-0.3
		c0.2,0,0.4-0.1,0.4-0.3L118.4,71.9L118.4,71.9z"/>
	<path class="st6" d="M70.2,71.9L70.2,71.9v-2.5c0-0.2-0.2-0.4-0.3-0.4h-3.6c-0.2,0-0.3,0.2-0.3,0.4v1.1c0,0.1,0.1,0.3,0.3,0.3h1.4
		V73c-0.1,0.1-0.2,0.1-0.2,0.1c-0.5,0.2-0.7,0.2-1.4,0.2l0,0H66c-0.7,0-0.9,0-1.4-0.2c-0.3-0.1-0.8-0.7-1-1.2
		c-0.2-0.4-0.3-0.8-0.3-2.3c0-1.5,0.1-2.2,0.3-2.5c0.3-0.5,0.8-1.1,2-1.1c1.2,0,1.6,0.4,1.9,0.7c0,0,0.4,0.3,0.4,0.6v0.1
		c0,0.2,0.1,0.3,0.3,0.3h0.8c0.2,0,0.3-0.1,0.3-0.3l0.1-2.4c0,0,0-0.2-0.2-0.4c0,0-1.2-0.4-3.1-0.4c-1.6,0.1-2.9,0.4-3.6,0.8
		c-0.6,0.4-1.9,1.6-1.9,4.1c0,2.6,0.6,3.5,1.2,4.1c0.6,0.5,1.4,1.1,3.1,1.3c0.1,0.1,0.5,0.1,0.9,0.1c0.1,0,0.2,0,0.4,0
		c0.4,0,0.6,0,0.9-0.1c2-0.1,3-0.3,3-0.3c0.2,0,0.3-0.1,0.3-0.3V71.9L70.2,71.9L70.2,71.9z"/>
	<path class="st6" d="M20.5,65.3c-0.6-0.4-1.9-0.8-3.4-0.8l0,0c-0.1,0-0.2,0-0.3,0l0,0c-1.5,0.1-2.7,0.4-3.4,0.8
		c-0.7,0.4-1.9,1.6-1.9,4.1c0,2.6,0.5,3.5,1.2,4.1c0.5,0.5,1.4,1.1,3,1.3c0.1,0.1,0.5,0.1,0.9,0.1c0.1,0,0.5,0,0.5,0
		c0.1,0,1-0.1,1.1-0.1c1.6-0.2,2.5-0.8,3-1.3c0.7-0.6,1.2-1.5,1.2-4.1C22.4,67,21.2,65.7,20.5,65.3L20.5,65.3z M19.4,71.9
		c-0.2,0.5-0.8,1.1-1.1,1.2c-0.5,0.2-0.7,0.2-1.3,0.2c-0.7,0-0.9,0-1.4-0.2c-0.3-0.1-0.9-0.7-1.1-1.2c-0.1-0.4-0.3-0.8-0.3-2.3
		c0-1.5,0.1-2.2,0.3-2.5c0.4-0.5,0.9-1.1,2.1-1.1c0.1,0,0.6,0,0.6,0c1.5-0.1,1.8,0.5,2.1,1.1c0.2,0.3,0.3,1,0.3,2.5
		C19.7,71.1,19.5,71.6,19.4,71.9L19.4,71.9z"/>
	<path class="st6" d="M51.1,80.1c-0.5-0.4-1.5-0.6-2.6-0.6l0,0c0,0,0,0-0.1,0c0,0,0,0-0.1,0l0,0c-0.1,0-0.1,0-0.1,0l0,0
		c-1.2,0-2.2,0.2-2.6,0.6c-0.5,0.3-1.5,1.3-1.5,3.2c0,1.9,0.5,2.7,0.9,3.2c0.5,0.4,1.1,0.8,2.4,1c0.1,0,0.4,0.1,0.6,0.1
		c0.1,0,0.1,0,0.2,0l0,0c0,0,0,0,0.1,0l0,0c0.1,0,0.1,0,0.1,0h0.1l0,0c0.1,0,0.1,0,0.2,0c0.2,0,0.6-0.1,0.6-0.1
		c1.3-0.2,1.9-0.6,2.3-1c0.5-0.5,1-1.2,1-3.2C52.6,81.3,51.6,80.3,51.1,80.1L51.1,80.1z M50.2,85.1c-0.1,0.4-0.6,0.8-0.8,0.9
		c-0.4,0.1-0.5,0.1-1.1,0.2c-0.5-0.1-0.6-0.1-1.1-0.2c-0.2-0.1-0.6-0.6-0.8-0.9c-0.1-0.2-0.2-0.6-0.2-1.8c0-1.2,0.1-1.7,0.2-1.9
		c0.2-0.4,0.6-0.8,1.6-0.8c0.1,0,0.1,0,0.2,0v0.1h0.1c0.1,0,0.1,0,0.1,0v-0.1c0.1,0,0.1,0,0.2,0c0.9,0,1.3,0.5,1.6,0.8
		c0.2,0.2,0.2,0.8,0.2,1.9C50.5,84.6,50.4,84.9,50.2,85.1L50.2,85.1z"/>
	<path class="st6" d="M75.5,73.3c-0.1-0.1-0.1-0.1-0.1-0.1c-0.4-0.1-0.9-0.3-0.9-0.5v-6c0-0.2,0.5-0.5,0.9-0.6c0,0,0.1,0,0.1,0
		c0-0.1,0-0.1,0-0.1v-1.2c0-0.1-0.1-0.1-0.1-0.1h-4.1c-0.1,0-0.1,0-0.1,0.1v1.2c0,0,0,0.1,0,0.1c0.1,0,0.1,0,0.1,0
		c0.4,0.1,0.9,0.4,0.9,0.6v6c0,0.2-0.5,0.5-0.9,0.5c0,0-0.1,0-0.1,0.1v0.1v1.2c0,0.1,0.1,0.1,0.1,0.1h4.1c0.1,0,0.1-0.1,0.1-0.1
		V73.3L75.5,73.3L75.5,73.3z"/>
	<path class="st6" d="M99.8,86.1C99.8,86.1,99.7,86.1,99.8,86.1C99.4,86,99,85.8,99,85.7V81c0-0.2,0.4-0.4,0.8-0.4h0.1
		c0.1-0.1,0-0.1,0-0.1v-0.9c0,0,0-0.1-0.1-0.1h-3.2c-0.1,0-0.1,0.1-0.1,0.1v0.9c0,0,0,0.1,0.1,0.1h0.1c0.3,0.1,0.7,0.2,0.7,0.4v4.6
		c0,0.2-0.4,0.4-0.7,0.4c0,0-0.1,0-0.1,0.1c-0.1,0-0.1,0.1-0.1,0.1v0.9c0,0.1,0.1,0.1,0.1,0.1h3.2c0.1,0,0.1,0,0.1-0.1V86.1
		C99.8,86.2,99.9,86.1,99.8,86.1L99.8,86.1z"/>
	<path class="st6" d="M87.1,73.3c-0.1-0.1-0.1-0.1-0.1-0.1C86.5,73.2,86,73,86,72.7v-1.4c0-1.1-0.3-1.9-2-1.9H84v-0.1h-0.1
		c-0.1,0-0.1-0.1-0.1-0.1c0-0.1,0.1-0.1,0.1-0.1h0.3c1-0.1,1.7-1,1.7-1.9v-0.6c0-1.1-0.8-1.9-1.9-1.9h-4.1v0.1h-3.5
		c-0.1,0-0.1,0-0.1,0.1v1.2c0,0,0,0.1,0,0.1c0.1,0,0.1,0,0.1,0c0.4,0.1,0.9,0.4,0.9,0.6v6c0,0.2-0.5,0.5-0.9,0.5c0,0-0.1,0-0.1,0.1
		v0.1v1.2c0,0.1,0.1,0.1,0.1,0.1h4.1c0.1,0,0.1-0.1,0.1-0.1v-1.2v-0.1c-0.1-0.1-0.1-0.1-0.1-0.1c-0.4-0.1-0.9-0.3-0.9-0.5v-6
		c0-0.2,0.1-0.3,0.4-0.4h2.4c0.5,0,0.9,0.4,0.9,0.9v0.5c0,0.2-0.4,1.1-1,1l0,0h-1.5c-0.2,0-0.3,0.2-0.3,0.4v1.1
		c0,0.2,0.1,0.3,0.3,0.3h1.6c1.1,0.1,1.1,0.7,1.1,0.9v2.8c0,0,0,0.2,0,0.4c0.1,0.2,0.5,0.2,0.5,0.2h3.1c0.1,0,0.1-0.1,0.1-0.1V73.3
		L87.1,73.3L87.1,73.3z"/>
	<path class="st6" d="M96.1,86.1c-0.1-0.1-0.1-0.1-0.1-0.1c-0.3-0.1-0.7-0.2-0.7-0.4v-1.1c0-0.8-0.2-1.5-1.6-1.5l0,0l0,0h-0.1
		c0,0-0.1-0.1-0.1-0.1c0-0.1,0.1-0.1,0.1-0.1h0.2c0.8-0.1,1.3-0.8,1.3-1.5V81c0-0.8-0.6-1.5-1.5-1.5h-3.2l0,0h-2.7l-0.1,0.1v0.9
		c0,0,0,0.1,0,0.1c0.1,0,0.1,0,0.1,0c0.3,0.1,0.7,0.2,0.7,0.4v4.6c0,0.2-0.4,0.4-0.7,0.4c0,0-0.1,0-0.1,0.1v0.1v0.9
		c0,0.1,0.1,0.1,0.1,0.1H91c0.1,0,0.1,0,0.1-0.1v-0.9v-0.1c0-0.1-0.1-0.1-0.1-0.1c-0.4-0.1-0.8-0.2-0.8-0.4V81
		c0-0.1,0.1-0.2,0.3-0.2h1.8c0.4,0,0.8,0.3,0.8,0.6v0.4c0,0.2-0.3,0.8-0.8,0.8l0,0h-1.1c-0.1,0-0.2,0.1-0.2,0.3v0.8
		c0,0.1,0.1,0.2,0.2,0.2h1.2c0.8,0.1,0.8,0.5,0.8,0.7v2.2c0,0,0,0.2,0,0.2c0.1,0.2,0.4,0.2,0.4,0.2H96c0,0,0.1,0,0.1-0.1V86.1
		L96.1,86.1L96.1,86.1z"/>
	<path class="st6" d="M33.8,69.9c0.8,0.2,2.2,0.6,3.2,0.8c0.9,0.1,1.3,0.6,1.2,1.5c-0.2,0.8-1.1,1-1.6,1c0,0-1.2,0.1-1.8-0.1
		c-0.2-0.1-0.8-0.8-0.9-0.9l-0.2-0.5c0-0.1-0.1-0.2-0.3-0.2h-0.9c-0.2,0-0.2,0-0.2,0.2v1.9v0.8c0,0.3,0.4,0.4,1.5,0.4h2.9
		c0,0,1.3,0.1,2.2-0.5c0.8-0.4,1.4-1.6,1.4-2.5c-0.1-1.5-0.2-2.2-1-2.7c-0.7-0.4-2.2-0.6-3.2-0.8c-1-0.2-1.8-0.4-1.8-1.2
		c0-0.9,1.2-1,1.6-1.1c0,0,0.6-0.1,1.2,0.2c0.2,0.1,0.4,0.1,0.7,0.5c0.1,0.2,0.4,0.8,0.4,0.8c0,0.2,0.1,0.3,0.3,0.3h0.8
		c0.2,0,0.3-0.1,0.3-0.3v-2.6c0-0.2-1-0.2-1.5-0.2H35c0,0-1.1,0-1.8,0.6c-0.5,0.5-1,1.4-1,2.3C32.2,68.5,32.4,69.5,33.8,69.9
		L33.8,69.9z"/>
	<path class="st6" d="M97.7,69.9c0.8,0.2,2.2,0.6,3.2,0.8c1,0.1,1.4,0.6,1.2,1.5c-0.1,0.8-1.1,1-1.6,1c0,0-1.2,0.1-1.8-0.1
		c-0.2-0.1-0.8-0.8-0.9-0.9l-0.2-0.5c0-0.1-0.1-0.2-0.2-0.2h-0.9c-0.1,0-0.2,0-0.2,0.2v1.9v0.8c0,0.3,0.4,0.4,1.5,0.4h3
		c0,0,1.2,0.1,2.2-0.5c0.8-0.4,1.5-1.6,1.4-2.5c-0.1-1.5-0.1-2.2-0.9-2.7c-0.8-0.4-2.2-0.6-3.2-0.8c-0.9-0.2-1.8-0.4-1.8-1.2
		c0-0.9,1.1-1,1.6-1.1c0,0,0.6-0.1,1.2,0.2c0.2,0.1,0.4,0.1,0.7,0.5c0.1,0.2,0.4,0.8,0.4,0.8c0,0.2,0.1,0.3,0.3,0.3h0.8
		c0.2,0,0.3-0.1,0.3-0.3v-2.6c0-0.2-1-0.2-1.5-0.2h-3.3c0,0-1.1,0-1.8,0.6c-0.5,0.5-1.1,1.4-1,2.3C96.2,68.5,96.3,69.5,97.7,69.9
		L97.7,69.9z"/>
	<path class="st6" d="M150.6,69.9c0.8,0.2,2.2,0.6,3.2,0.8c1,0.1,1.4,0.6,1.2,1.5c-0.1,0.8-1.1,1-1.6,1c0,0-1.2,0.1-1.7-0.1
		c-0.2-0.1-0.8-0.8-0.9-0.9l-0.2-0.5c0-0.1-0.1-0.2-0.3-0.2h-0.9c-0.2,0-0.2,0-0.2,0.2v1.9v0.8c0,0.3,0.4,0.4,1.5,0.4h3
		c0,0,1.2,0.1,2.2-0.5c0.7-0.4,1.4-1.5,1.4-2.3v-0.2c-0.1-1.5-0.2-2.2-1-2.7c-0.7-0.4-2.2-0.6-3.2-0.8c-0.9-0.2-1.8-0.4-1.8-1.2
		c0-0.9,1.1-1,1.6-1.1c0,0,0.6-0.1,1.1,0.2c0.2,0.1,0.4,0.1,0.7,0.5c0.2,0.2,0.4,0.8,0.4,0.8c0,0.2,0.1,0.3,0.3,0.3h0.8
		c0.3,0,0.4-0.1,0.4-0.3v-2.6c0-0.2-1-0.2-1.5-0.2h-3.3c0,0-1.1,0-1.8,0.6c-0.5,0.5-1,1.4-0.9,2.3C149.1,68.5,149.2,69.5,150.6,69.9
		L150.6,69.9z"/>
	<path class="st6" d="M56.9,74c-0.1-0.1-0.2-0.1-0.4-0.1c-0.2-0.1-0.4-0.2-0.4-0.2l-1.2-0.9c0.2-0.3,0.3-0.6,0.4-0.8
		c0.2-0.4,0.2-1.5,0.2-1.9c0-0.4,0.1-1.1-0.1-1.2c0-0.1-0.2-0.1-0.2-0.1h-1.6c0,0-0.1,0-0.2,0.1c-0.1,0.1-0.1,0.3-0.1,0.3
		s0,0.5,0,0.8c0.1,0.5-0.1,0.9-0.2,1.3l-2.5-2c1.3-0.5,2.2-1.6,2.2-2.5c-0.1-1.6-1.5-2.3-3.6-2.3c-2.4-0.1-4,0.9-4,2.3
		c0,0.5,0.1,0.8,0.4,1.2l-0.1,0.1l0.1,0.1c0.2,0.2,0.4,0.4,0.6,0.6c-1.1,0.8-1.7,1.8-1.7,2.9c0,2,0.9,3.5,4.9,3.6
		c1.5,0,2.8-0.4,3.8-0.9l0.4,0.2c0.2,0.1,0.3,0.3,0.6,0.3h2.3c0.2,0,0.2-0.1,0.2-0.2v-0.1C56.9,74.4,57,74,56.9,74L56.9,74z
		 M49.3,66c0.9,0,1.4,0.4,1.4,0.9c0,0.6-1.2,1.1-1.5,1.1c-0.1,0-0.1,0-0.2,0c-0.1-0.1-0.3-0.2-0.4-0.2c-0.4-0.2-0.8-0.5-0.8-0.9
		C47.7,66.4,48.4,65.9,49.3,66L49.3,66z M49.8,73.4c-2.2-0.1-2.5-0.8-2.5-2c0-0.5,0.2-1.1,0.7-1.5l3.9,3.1
		C51.5,73.3,50.6,73.4,49.8,73.4L49.8,73.4z"/>
	<path class="st6" d="M87.4,85c0-0.1-0.1-0.2-0.2-0.2h-0.6c-0.1,0-0.2,0.1-0.2,0.2l-0.2,0.4c0,0.1-0.1,0.2-0.2,0.3
		c-0.2,0.4-3,0.1-3,0.1c-0.1-0.1-0.2-0.1-0.2-0.2v-2h2.4c0.1,0,0.3,0.2,0.3,0.5c0,0,0,0,0.1,0.1h0.1h0.7c0.1,0,0.1-0.1,0.1-0.1v-2.3
		c0-0.1,0-0.1-0.1-0.1h-0.7h-0.1c-0.1,0-0.1,0.1-0.1,0.1c0,0.2-0.2,0.4-0.3,0.4h-2.4V81l0.1-0.2c0.1-0.1,0.2-0.1,0.2-0.1
		s1.8,0,2.2,0.1c0.2,0,0.6-0.1,0.7,0.1c0.1,0.1,0.1,0.2,0.1,0.2c0,0.1,0.1,0.2,0.2,0.2h0.6c0.2,0,0.2-0.1,0.2-0.2l0.1-1.4
		c0-0.1-0.1-0.2-0.2-0.2h-3.4h-3.2c-0.1,0-0.1,0.1-0.1,0.1v0.9c0,0,0,0.1,0.1,0.1h0.1c0.3,0.1,0.8,0.2,0.8,0.4v4.6
		c0,0.2-0.5,0.4-0.8,0.4c0,0-0.1,0-0.1,0.1c-0.1,0-0.1,0.1-0.1,0.1v0.9c0,0.1,0.1,0.1,0.1,0.1h2.5l0,0h4.3c0.1,0,0.2-0.1,0.2-0.2V85
		L87.4,85z"/>
	<path class="st6" d="M59.4,79.5h-3h-3.2l-0.1,0.1v0.9c0,0,0,0.1,0,0.1c0.1,0,0.1,0,0.1,0c0.4,0.1,0.8,0.2,0.8,0.4v4.6
		c0,0.2-0.4,0.4-0.8,0.4c0,0,0,0-0.1,0.1v0.1v0.9c0,0.1,0.1,0.1,0.1,0.1h2.6l0,0l0,0h0.6c0,0,0.1,0,0.1-0.1v-0.9v-0.1
		c-0.1-0.1-0.1-0.1-0.1-0.1c-0.2,0-0.5-0.1-0.6-0.2l0,0c-0.1,0-0.1,0-0.1-0.1l0,0l0,0c-0.1-0.1-0.1-0.1-0.1-0.1l0,0v-0.1v-2h2.1
		c0.1,0,0.3,0.2,0.4,0.5c0,0,0,0,0,0.1c0.1,0,0.1,0,0.1,0h0.8l0.1-0.1V82h-0.1l-0.8-0.1c0,0,0,0-0.1,0.1V82
		c-0.1,0.2-0.2,0.4-0.4,0.4h-2.1V81v-0.2c0.1-0.1,0.2-0.1,0.2-0.1s1.5,0,1.9,0.1c0.2,0,0.6-0.1,0.7,0.1c0.1,0.1,0.1,0.2,0.1,0.2
		c0,0.1,0.1,0.2,0.2,0.2h0.6c0.1,0,0.2-0.1,0.2-0.2v-1.4C59.6,79.6,59.5,79.5,59.4,79.5L59.4,79.5z"/>
	<path class="st6" d="M65.3,79.5c0,0-0.1,0-0.1,0.1c-0.1,0.1-0.1,0.2-0.1,0.2L65.3,79.5L65.3,79.5z"/>
	<path class="st6" d="M79.8,86.2L79.8,86.2c-0.1-0.1-0.1-0.1-0.1-0.1C79.4,86,79,85.8,79,85.7L78,81c0-0.2,0.2-0.4,0.5-0.4h0.1
		c0.1-0.1,0-0.1,0-0.1v-0.9c0,0,0-0.1-0.1-0.1h-2.3c0,0-0.3,0-0.4,0.1c-0.1,0.1-0.2,0.2-0.2,0.2l-0.5,1.6c0,0-0.3,1.1-0.4,1.1
		c-0.1,0-0.4-1-0.4-1l-0.5-1.5c0,0-0.1-0.3-0.2-0.4c-0.1-0.1-0.4-0.1-0.4-0.1H71c-0.1,0-0.1,0.1-0.1,0.1v0.9c0,0,0,0.1,0.1,0.1H71
		c0.3,0.1,0.5,0.2,0.5,0.4l-0.9,4.6c-0.1,0.2-0.1,0.3-0.3,0.3c-0.1,0-0.2-0.1-0.3-0.3l-2.3-5.9c0,0-0.1-0.1-0.1-0.2
		c-0.1-0.1-0.1-0.1-0.1-0.1h-2.1c0,0-0.1,0-0.1,0.1c-0.1,0.1-0.1,0.2-0.1,0.2l-2.3,5.9c0,0.2-0.4,0.4-0.8,0.4c0,0-0.1,0-0.1,0.1v0.1
		v0.9c0,0.1,0,0.1,0.1,0.1h3c0.1,0,0.1,0,0.1-0.1v-0.9c0,0,0.1-0.1,0-0.1c0-0.1-0.1-0.1-0.1-0.1c-0.4-0.1-0.6-0.2-0.6-0.4l0.5-1.2
		h2.5l0.5,1.2c0.1,0.2-0.1,0.4-0.5,0.4c0,0-0.1,0-0.1,0.1v0.1v0.9c0,0.1,0,0.1,0.1,0.1h5.3c0.1,0,0.1,0,0.1-0.1v-0.9v-0.1
		c-0.1-0.1-0.1-0.1-0.1-0.1c-0.4-0.1-0.4-0.2-0.4-0.4l0.4-3.2c0,0,0-0.4,0.1-0.4c0.1,0,0.2,0.5,0.2,0.5l0.6,2.3c0,0,0.1,0.2,0.2,0.3
		c0.1,0.1,0.4,0.2,0.4,0.2h1c0,0,0.1,0,0.2-0.1c0.1-0.1,0.2-0.5,0.2-0.5l0.8-2.5c0,0,0.1-0.2,0.1-0.2c0.1,0,0.1,0.4,0.1,0.4l0.5,3.2
		c0,0.2-0.1,0.4-0.4,0.4c0,0-0.1,0-0.1,0.1c-0.1,0-0.1,0.1-0.1,0.1v0.9c0,0.1,0,0.1,0.1,0.1h3.2c0.1,0,0.1,0,0.1-0.1V86.2L79.8,86.2
		z M66.8,83.1c0,0.1-0.1,0-0.1,0h-1.1c0,0-0.1,0-0.1,0l0.1-0.1l0.6-1.8l0.6,1.7C66.8,83,66.8,83.1,66.8,83.1L66.8,83.1z"/>
	<path class="st6" d="M114.1,86.1C114.1,86.1,114,86.1,114.1,86.1c-0.4-0.1-0.8-0.3-0.8-0.5l-2.3-5.9c0,0,0-0.1-0.1-0.2
		c-0.1-0.1-0.1-0.1-0.1-0.1h-2.1c0,0-0.1,0-0.1,0.1c-0.1,0.1-0.1,0.2-0.1,0.2l-2,5c0,0-0.4,1-1,1.2c-0.5,0.1-0.8,0.2-1.3,0.2l0,0
		l0,0c-0.6,0-0.7,0-1.1-0.2c-0.2-0.1-0.6-0.5-0.8-0.9c-0.1-0.3-0.2-0.6-0.2-1.8c0-1.1,0.1-1.6,0.2-1.9c0.3-0.4,0.7-0.8,1.6-0.8
		c0.9,0,1.3,0.4,1.4,0.5c0,0,0.3,0.2,0.3,0.5v0.1c0,0.2,0.1,0.2,0.2,0.2h0.6c0.1,0,0.2-0.1,0.2-0.2v-1.8c0,0,0.1-0.2-0.1-0.3
		c0,0-0.9-0.2-2.4-0.2c-1.2,0-2.2,0.2-2.7,0.6c-0.5,0.4-1.5,1.3-1.5,3.2c0,2,0.4,2.7,0.9,3.2c0.5,0.4,0.9,0.7,2,0.9
		c0.1,0,0.7,0.1,1,0.1c0.1,0,0.2,0,0.3,0c0.2,0,0.5,0,0.7-0.1c0.9,0,1.4,0.1,1.7,0h1.9c0.1,0,0.1,0,0.1-0.1l0.1-0.9
		c-0.1,0,0-0.1-0.1-0.1c0-0.1-0.1-0.1-0.1-0.1c-0.4-0.1-0.6-0.2-0.6-0.4l0.5-1.2h2.5l0.5,1.2c0.1,0.2-0.1,0.4-0.5,0.4
		c0,0-0.1,0-0.1,0.1v0.1v0.9c0,0.1,0,0.1,0.1,0.1h3.3c0.1,0,0.1,0,0.1-0.1L114.1,86.1C114.1,86.2,114.1,86.1,114.1,86.1L114.1,86.1z
		 M110.1,83.1c-0.1,0.1-0.2,0-0.2,0h-1.1c0,0-0.1,0-0.1,0l0.1-0.1l0.6-1.8l0.6,1.7C110.1,83,110.1,83.1,110.1,83.1L110.1,83.1z"/>
</g>
<g id="BBBS" class="st0">
	<g class="st1">
		<defs>
			<rect id="SVGID_1_" x="257" y="-27.2" width="153.8" height="80.4"/>
		</defs>
		<clipPath id="SVGID_2_">
			<use xlink:href="#SVGID_1_"  style="overflow:visible;"/>
		</clipPath>
		<path class="st7" d="M360.3,11.1c0.2,9.9-20.7,15.8-32.8,21.2c0,0,24.6-5.5,33.3-13.3c5.6-4.9,5-17.7-9.4-15.7
			c-0.1,0-0.5,0.5-0.6,0.5C350.8,3.9,360.2,4.6,360.3,11.1"/>
		<path class="st7" d="M312.9-7.4c-1-0.3-2.3-0.6-3.6-1l-0.4-1.7c0,0,27.2,13,56.4-16c0.6-0.6,1-1.1,1-1.1s-0.3,1.7-0.3,1.6
			c0,0-1.3,0.9-2.7,2.9c-2.4,3.3-4.8,9.6-0.8,21.5c0,0-1.3,0.9-1.3,0.9s-0.9-8.1-5.1-5.7c-2.3,1.3-3.5,9.2-3.5,9.2L350.6,4
			c0,0,6.4-17.9-4.2-15c-9.5,2.6-13.9,10.4-17,42.8c0,0.3-1.8,0.6-1.8,0.6s2.7-17.6-5.3-17.2c-6.5,0.3-18,16.8-18,16.8h-2.6
			C301.7,31.8,332.6-2,312.9-7.4"/>
		<path class="st7" d="M328.6-9c2.4,0,4.9-2.2,5.7-5c0.7-2.8-0.6-5-3-5c-2.4,0-4.9,2.2-5.7,5C324.9-11.2,326.3-9,328.6-9"/>
		<path class="st7" d="M353.5-18.4c1.8-0.7,3.1-2.8,2.8-4.7c-0.3-1.9-2-2.9-3.9-2.2c-1.8,0.7-3.1,2.8-2.8,4.7
			C349.9-18.7,351.6-17.7,353.5-18.4"/>
		<path class="st7" d="M360.3,11.1c0.2,9.9-20.7,15.8-32.8,21.2c0,0,24.6-5.5,33.3-13.3c5.6-4.9,5-17.7-9.4-15.7
			c-0.1,0-0.5,0.5-0.6,0.5C350.8,3.9,360.2,4.6,360.3,11.1"/>
		<path class="st7" d="M312.9-7.4c-1-0.3-2.3-0.6-3.6-1l-0.4-1.7c0,0,27.2,13,56.4-16c0.6-0.6,1-1.1,1-1.1s-0.3,1.7-0.3,1.6
			c0,0-1.3,0.9-2.7,2.9c-2.4,3.3-4.8,9.6-0.8,21.5c0,0-1.3,0.9-1.3,0.9s-0.9-8.1-5.1-5.7c-2.3,1.3-3.5,9.2-3.5,9.2L350.6,4
			c0,0,6.4-17.9-4.2-15c-9.4,2.6-13.9,10.4-17,42.8c0,0.3-1.8,0.6-1.8,0.6s2.7-17.6-5.3-17.2c-6.5,0.3-18,16.8-18,16.8h-2.6
			C301.7,31.8,332.6-2,312.9-7.4"/>
		<path class="st7" d="M328.6-9c2.4,0,4.9-2.2,5.7-5c0.7-2.8-0.6-5-3-5c-2.4,0-4.9,2.2-5.7,5C324.9-11.2,326.3-9,328.6-9"/>
		<path class="st7" d="M353.5-18.4c1.8-0.7,3.1-2.8,2.8-4.7c-0.3-1.9-2-2.9-3.9-2.2c-1.8,0.7-3.1,2.8-2.8,4.7
			C349.9-18.7,351.6-17.7,353.5-18.4"/>
		<path class="st7" d="M300.5,30.5c0,0.8-0.7,1.5-1.5,1.5s-1.5-0.7-1.5-1.5c0-0.8,0.7-1.5,1.5-1.5S300.5,29.7,300.5,30.5
			 M297.8,30.5c0,0.7,0.6,1.3,1.3,1.3c0.7,0,1.3-0.6,1.3-1.3c0-0.7-0.6-1.3-1.3-1.3C298.3,29.2,297.8,29.8,297.8,30.5 M298.7,30.4
			h0.4c0.3,0,0.5,0,0.5-0.3c0-0.3-0.2-0.3-0.4-0.3h-0.5V30.4z M298.5,29.6h0.6c0.4,0,0.6,0.2,0.6,0.5c0,0.3-0.2,0.4-0.4,0.5l0.5,0.8
			h-0.2l-0.5-0.8h-0.4v0.8h-0.1V29.6z"/>
		<path class="st7" d="M259.3,44.6h0.8c1.2,0,2.1,0.5,2.1,1.6c0,1.2-0.9,1.7-2,1.7c-0.4,0-0.7,0-0.9,0V44.6z M257,49.6
			c0.5,0.1,1.4,0.2,2.5,0.2c2.1,0,3.3-0.4,4.1-1c0.6-0.6,1.1-1.4,1.1-2.4c0-1.5-0.9-2.5-2.1-2.8v0c1.2-0.5,1.7-1.4,1.7-2.4
			c0-1.1-0.5-1.8-1.2-2.3c-0.8-0.5-1.6-0.6-3.1-0.6c-1.2,0-2.4,0.1-3,0.2V49.6z M259.3,40c0.2,0,0.5-0.1,1-0.1
			c1.1,0,1.7,0.5,1.7,1.3c0,0.9-0.6,1.4-1.9,1.4h-0.8V40z"/>
		<path class="st7" d="M267.1,40.2c-0.8,0-1.3-0.6-1.3-1.4c0-0.8,0.5-1.4,1.3-1.4c0.8,0,1.3,0.6,1.3,1.4
			C268.5,39.6,268,40.2,267.1,40.2L267.1,40.2z M266,41.3h2.3v8.3H266V41.3z"/>
		<path class="st7" d="M277.2,43.8c0-1.2,0-1.9,0.1-2.5h-2l-0.1,1h0c-0.4-0.7-1-1.2-2.1-1.2c-1.8,0-3.4,1.7-3.4,4.4
			c0,2.4,1.3,4.1,3.2,4.1c0.9,0,1.6-0.4,2-1.1h0V49c0,1.5-0.8,2.2-1.9,2.2c-0.9,0-1.7-0.3-2.2-0.6l-0.5,2c0.7,0.4,1.7,0.6,2.7,0.6
			c1.1,0,2.2-0.2,3-1c0.9-0.8,1.1-2.1,1.1-3.8V43.8z M274.8,45.9c0,0.2,0,0.5-0.1,0.7c-0.2,0.6-0.6,1-1.2,1c-1,0-1.5-1-1.5-2.2
			c0-1.5,0.7-2.4,1.5-2.4c0.6,0,1.1,0.5,1.3,1.1c0,0.1,0,0.3,0,0.5V45.9z"/>
		<path class="st7" d="M284.3,44.6h0.8c1.2,0,2.1,0.5,2.1,1.6c0,1.2-0.9,1.7-2,1.7c-0.4,0-0.7,0-0.9,0V44.6z M281.9,49.6
			c0.5,0.1,1.4,0.2,2.5,0.2c2.1,0,3.3-0.4,4.1-1c0.6-0.6,1.1-1.4,1.1-2.4c0-1.5-0.9-2.5-2.1-2.8v0c1.2-0.5,1.7-1.4,1.7-2.4
			c0-1.1-0.5-1.8-1.2-2.3c-0.8-0.5-1.6-0.6-3.1-0.6c-1.2,0-2.4,0.1-3,0.2V49.6z M284.3,40c0.2,0,0.5-0.1,1-0.1
			c1.1,0,1.7,0.5,1.7,1.3c0,0.9-0.6,1.4-1.9,1.4h-0.8V40z"/>
		<path class="st7" d="M291,44c0-1.2,0-2-0.1-2.7h2l0.1,1.5h0.1c0.4-1.2,1.3-1.7,2-1.7c0.2,0,0.3,0,0.5,0v2.4
			c-0.2,0-0.4-0.1-0.6-0.1c-0.9,0-1.4,0.5-1.6,1.3c0,0.2,0,0.4,0,0.6v4.2H291L291,44z"/>
		<path class="st7" d="M300,49.8c2,0,3.9-1.4,3.9-4.4c0-2.5-1.5-4.3-3.8-4.3c-2.4,0-4,1.7-4,4.4C296.1,48.2,297.8,49.8,300,49.8
			L300,49.8z M300,48c-1,0-1.5-1.1-1.5-2.5c0-1.2,0.4-2.5,1.5-2.5c1.1,0,1.5,1.3,1.5,2.5C301.5,47,301,48,300,48L300,48z"/>
		<path class="st7" d="M307.9,39v2.3h1.7v1.9h-1.7v3c0,1,0.2,1.5,0.9,1.5c0.3,0,0.5,0,0.7-0.1l0,2c-0.3,0.1-0.9,0.2-1.5,0.2
			c-0.8,0-1.4-0.3-1.8-0.7c-0.4-0.5-0.6-1.3-0.6-2.5v-3.4h-1v-1.9h1v-1.6L307.9,39z"/>
		<path class="st7" d="M310.8,37.5h2.3v4.8h0c0.2-0.4,0.6-0.7,0.9-0.9c0.4-0.2,0.8-0.3,1.2-0.3c1.5,0,2.6,1.1,2.6,3.7v4.9h-2.3V45
			c0-1.1-0.3-1.8-1.2-1.8c-0.6,0-1,0.4-1.2,0.9c-0.1,0.2-0.1,0.4-0.1,0.6v4.9h-2.3V37.5z"/>
		<path class="st7" d="M326.2,46.3c0-0.2,0.1-0.6,0.1-1c0-2.1-0.9-4.2-3.4-4.2c-2.6,0-3.8,2.3-3.8,4.5c0,2.6,1.5,4.2,4,4.2
			c1,0,1.9-0.2,2.7-0.5l-0.3-1.8c-0.6,0.2-1.3,0.4-2.1,0.4c-1.1,0-2-0.5-2.1-1.6L326.2,46.3z M321.4,44.5c0.1-0.7,0.5-1.7,1.5-1.7
			c1.1,0,1.3,1.1,1.3,1.7H321.4z"/>
		<path class="st7" d="M327.6,44c0-1.2,0-2-0.1-2.7h2l0.1,1.5h0.1c0.4-1.2,1.3-1.7,2-1.7c0.2,0,0.3,0,0.5,0v2.4
			c-0.2,0-0.4-0.1-0.6-0.1c-0.9,0-1.4,0.5-1.6,1.3c0,0.2,0,0.4,0,0.6v4.2h-2.3L327.6,44z"/>
		<path class="st7" d="M333.2,47.4c0.4,0.3,1.3,0.6,2,0.6c0.7,0,1-0.3,1-0.7c0-0.4-0.2-0.6-1.1-1c-1.6-0.6-2.1-1.5-2.1-2.5
			c0-1.6,1.2-2.7,3.1-2.7c0.9,0,1.7,0.2,2.1,0.5l-0.4,1.8c-0.3-0.2-1-0.5-1.6-0.5c-0.6,0-0.9,0.3-0.9,0.7c0,0.4,0.3,0.6,1.2,1
			c1.4,0.5,2,1.4,2,2.6c0,1.6-1.1,2.7-3.2,2.7c-1,0-1.9-0.2-2.4-0.6L333.2,47.4z"/>
		<path class="st7" d="M345.1,44.6h0.8c1.2,0,2.1,0.5,2.1,1.6c0,1.2-0.9,1.7-2,1.7c-0.4,0-0.7,0-0.9,0V44.6z M342.8,49.6
			c0.5,0.1,1.4,0.2,2.5,0.2c2.1,0,3.3-0.4,4.1-1c0.6-0.6,1.1-1.4,1.1-2.4c0-1.5-0.9-2.5-2.1-2.8v0c1.2-0.5,1.7-1.4,1.7-2.4
			c0-1.1-0.5-1.8-1.2-2.3c-0.8-0.5-1.6-0.6-3.1-0.6c-1.2,0-2.4,0.1-3,0.2V49.6z M345.1,40c0.2,0,0.5-0.1,1-0.1
			c1.1,0,1.7,0.5,1.7,1.3c0,0.9-0.6,1.4-1.9,1.4h-0.8V40z"/>
		<path class="st7" d="M353,40.2c-0.8,0-1.3-0.6-1.3-1.4c0-0.8,0.5-1.4,1.3-1.4c0.8,0,1.3,0.6,1.3,1.4
			C354.3,39.6,353.8,40.2,353,40.2L353,40.2z M351.9,41.3h2.3v8.3h-2.3V41.3z"/>
		<path class="st7" d="M363,43.8c0-1.2,0-1.9,0.1-2.5h-2l-0.1,1h0c-0.4-0.7-1-1.2-2.1-1.2c-1.8,0-3.4,1.7-3.4,4.4
			c0,2.4,1.3,4.1,3.2,4.1c0.9,0,1.6-0.4,2-1.1h0V49c0,1.5-0.8,2.2-1.9,2.2c-0.9,0-1.7-0.3-2.2-0.6l-0.5,2c0.7,0.4,1.7,0.6,2.7,0.6
			c1.1,0,2.2-0.2,3-1c0.9-0.8,1.1-2.1,1.1-3.8V43.8z M360.7,45.9c0,0.2,0,0.5-0.1,0.7c-0.2,0.6-0.6,1-1.2,1c-1,0-1.5-1-1.5-2.2
			c0-1.5,0.7-2.4,1.5-2.4c0.6,0,1.1,0.5,1.3,1.1c0,0.1,0,0.3,0,0.5V45.9z"/>
		<path class="st7" d="M367.9,47c0.6,0.4,1.6,0.7,2.6,0.7c1.1,0,1.6-0.5,1.6-1.2c0-0.7-0.5-1.1-1.7-1.6c-1.7-0.7-2.9-1.7-2.9-3.4
			c0-2,1.5-3.4,3.9-3.4c1.2,0,2,0.3,2.6,0.6l-0.5,2.1c-0.4-0.2-1.2-0.5-2.2-0.5c-1,0-1.5,0.5-1.5,1.1c0,0.7,0.6,1.1,1.9,1.6
			c1.8,0.8,2.7,1.8,2.7,3.4c0,1.9-1.3,3.6-4.2,3.6c-1.2,0-2.3-0.4-2.9-0.7L367.9,47z"/>
		<path class="st7" d="M377,40.2c-0.8,0-1.3-0.6-1.3-1.4c0-0.8,0.5-1.4,1.3-1.4c0.8,0,1.3,0.6,1.3,1.4
			C378.3,39.6,377.8,40.2,377,40.2L377,40.2z M375.8,41.3h2.3v8.3h-2.3V41.3z"/>
		<path class="st7" d="M379.9,47.4c0.4,0.3,1.3,0.6,2,0.6c0.7,0,1-0.3,1-0.7c0-0.4-0.2-0.6-1.1-1c-1.6-0.6-2.1-1.5-2.1-2.5
			c0-1.6,1.2-2.7,3.1-2.7c0.9,0,1.7,0.2,2.1,0.5l-0.4,1.8c-0.3-0.2-1-0.5-1.6-0.5c-0.6,0-0.9,0.3-0.9,0.7c0,0.4,0.3,0.6,1.2,1
			c1.4,0.5,2,1.4,2,2.6c0,1.6-1.1,2.7-3.2,2.7c-1,0-1.9-0.2-2.4-0.6L379.9,47.4z"/>
		<path class="st7" d="M389,39v2.3h1.7v1.9H389v3c0,1,0.2,1.5,0.9,1.5c0.3,0,0.5,0,0.7-0.1l0,2c-0.3,0.1-0.9,0.2-1.5,0.2
			c-0.8,0-1.4-0.3-1.8-0.7c-0.4-0.5-0.6-1.3-0.6-2.5v-3.4h-1v-1.9h1v-1.6L389,39z"/>
		<path class="st7" d="M398.5,46.3c0-0.2,0.1-0.6,0.1-1c0-2.1-0.9-4.2-3.4-4.2c-2.6,0-3.8,2.3-3.8,4.5c0,2.6,1.5,4.2,4,4.2
			c1,0,1.9-0.2,2.7-0.5l-0.3-1.8c-0.6,0.2-1.3,0.4-2.1,0.4c-1.1,0-2-0.5-2.1-1.6L398.5,46.3z M393.6,44.5c0.1-0.7,0.5-1.7,1.5-1.7
			c1.1,0,1.3,1.1,1.3,1.7H393.6z"/>
		<path class="st7" d="M399.8,44c0-1.2,0-2-0.1-2.7h2l0.1,1.5h0.1c0.4-1.2,1.3-1.7,2-1.7c0.2,0,0.3,0,0.5,0v2.4
			c-0.2,0-0.4-0.1-0.6-0.1c-0.9,0-1.4,0.5-1.6,1.3c0,0.2,0,0.4,0,0.6v4.2h-2.3L399.8,44z"/>
		<path class="st7" d="M405.5,47.4c0.4,0.3,1.3,0.6,2,0.6c0.7,0,1-0.3,1-0.7c0-0.4-0.2-0.6-1.1-1c-1.6-0.6-2.1-1.5-2.1-2.5
			c0-1.6,1.2-2.7,3.1-2.7c0.9,0,1.7,0.2,2.1,0.5l-0.4,1.8c-0.3-0.2-1-0.5-1.6-0.5c-0.6,0-0.9,0.3-0.9,0.7c0,0.4,0.3,0.6,1.2,1
			c1.4,0.5,2,1.4,2,2.6c0,1.6-1.1,2.7-3.2,2.7c-1,0-1.9-0.2-2.4-0.6L405.5,47.4z"/>
	</g>
</g>
<g id="habitat" class="st0">
	<g class="st1">
		<defs>
			<rect id="SVGID_3_" x="297.7" y="177.7" width="146.8" height="63.7"/>
		</defs>
		<clipPath id="SVGID_4_">
			<use xlink:href="#SVGID_3_"  style="overflow:visible;"/>
		</clipPath>
		<g class="st8">
			<defs>
				<rect id="SVGID_5_" x="296.6" y="176.6" width="149" height="65.7"/>
			</defs>
			<clipPath id="SVGID_6_">
				<use xlink:href="#SVGID_5_"  style="overflow:visible;"/>
			</clipPath>
			<g style="clip-path:url(#SVGID_6_);">
				
					<image style="overflow:visible;" width="621" height="274" xlink:href="797FC064BAC46FD3.jpg"  transform="matrix(0.2399 0 0 0.2399 296.6434 176.6457)">
				</image>
			</g>
		</g>
	</g>
	<g class="st1">
		<defs>
			<rect id="SVGID_7_" x="330.4" y="64" width="107.8" height="98.4"/>
		</defs>
		<clipPath id="SVGID_8_">
			<use xlink:href="#SVGID_7_"  style="overflow:visible;"/>
		</clipPath>
		<g class="st9">
			<defs>
				<rect id="SVGID_9_" x="330.4" y="64" width="107.8" height="99.6"/>
			</defs>
			<clipPath id="SVGID_10_">
				<use xlink:href="#SVGID_9_"  style="overflow:visible;"/>
			</clipPath>
			<g transform="matrix(1 0 0 1 0 0)" style="clip-path:url(#SVGID_10_);">
				
					<image style="overflow:visible;" width="225" height="208" xlink:href="797FC064BAC46FD1.jpg"  transform="matrix(0.479 0 0 0.479 330.3831 63.9526)">
				</image>
			</g>
		</g>
	</g>
</g>
<g id="RUFY">
	<g>
		<path class="st10" d="M47.4,87.7c-1,0-2.1,0-3.1,0c0,0,0,0-0.1,0c0.1,0,0.2-0.1,0.3-0.1c0.8,0,1.6-0.1,2.4-0.1
			c0.5,0,0.9,0,1.4-0.1c1.3-0.2,2.6-0.3,3.9-0.6c1.6-0.3,3.1-0.7,4.7-1.2c1.4-0.4,2.7-0.9,4.1-1.5c1.2-0.5,2.3-1.1,3.4-1.7
			c1.4-0.8,2.8-1.6,4.1-2.6c0.8-0.5,1.5-1.1,2.2-1.7c1-0.8,2-1.7,2.9-2.7c0.7-0.7,1.4-1.5,2.1-2.2c0.7-0.8,1.3-1.6,2-2.5
			c0.5-0.6,0.9-1.3,1.3-2c0.6-0.8,1-1.7,1.5-2.5c1-1.9,1.9-3.9,2.6-5.9c0.5-1.4,0.8-2.7,1.1-4.1c0.1-0.5,0.3-1.1,0.3-1.6
			c0.1-0.9,0.3-1.8,0.4-2.8c0.1-1.2,0.1-2.5,0.2-3.7c0-0.3-0.1-0.6-0.1-0.9c0-0.5,0-1.1-0.1-1.6c-0.1-1-0.2-2-0.3-3
			c-0.4-2.2-0.9-4.4-1.7-6.5c-0.1-0.2-0.1-0.4-0.2-0.5c-0.1-0.3-0.2-0.5-0.2-0.8c-0.2-0.8-0.3-1.6-0.5-2.4c-0.3-1.1-0.6-2.3-1-3.4
			c-0.5-1.5-1.2-3-2-4.4c-0.6-1.1-1.3-2.2-2-3.2c-0.6-0.9-1.2-1.7-1.9-2.5c-1-1.1-1.9-2.2-3-3.2c-0.9-0.8-1.9-1.7-2.9-2.4
			c-1.4-1-2.8-1.9-4.3-2.7c-1.4-0.8-3-1.4-4.5-2c-1.7-0.6-3.4-1.1-5.2-1.4c-0.3-0.1-0.6-0.2-0.9-0.1c-0.3,0-0.5-0.1-0.8-0.2
			c-1.2-0.4-2.4-0.8-3.7-1.1c-1.5-0.4-3-0.6-4.6-0.8c-1.4-0.2-2.7-0.2-4.1-0.3c-1.2,0-2.3,0.1-3.5,0.1c-1.5,0.1-3,0.3-4.5,0.6
			c-2,0.4-4,0.9-5.9,1.6c-2.3,0.8-4.5,1.9-6.6,3.1c-1.4,0.8-2.7,1.7-4,2.7c-0.1,0.1-0.2,0.2-0.4,0.2c0-0.1,0.2-0.2,0.2-0.3
			c4.2-3.9,8.9-6.9,14.3-8.9c4.2-1.6,8.5-2.5,12.9-2.7c0.5,0,0.9,0,1.4-0.1c0.6,0,1.3,0,1.9,0c0.4,0.1,0.9,0.1,1.3,0.1
			c1.8,0.1,3.5,0.3,5.2,0.6c6,1,11.5,3.2,16.5,6.6c8.6,5.8,14.4,13.7,17.4,23.6c0.9,3.1,1.5,6.3,1.7,9.5c0,0.1,0,0.2,0.1,0.3
			c0,1.6,0,3.3,0,4.9C89,47.1,89,47.2,89,47.4c0,0.3,0,0.6,0,0.9c-0.2,2.6-0.7,5.2-1.4,7.8c-1.8,6.5-4.9,12.2-9.4,17.2
			c-5,5.6-11.1,9.6-18.2,12.1c-2.8,1-5.6,1.6-8.5,2C50.1,87.5,48.8,87.7,47.4,87.7z"/>
		<path class="st11" d="M1.4,42.4c0.1-0.3,0.1-0.6,0.1-0.9c0.1-1.9,0.4-3.8,0.8-5.7c0.9-4.3,2.5-8.3,4.7-12c1.7-2.9,3.8-5.5,6.2-7.8
			c0.3-0.3,0.5-0.6,0.9-0.8c0,0.1-0.1,0.2-0.2,0.3c-0.2,0.3-0.5,0.5-0.7,0.8c-1.3,1.4-2.4,2.9-3.4,4.5c-1.3,2.1-2.5,4.2-3.5,6.5
			c-0.9,2.2-1.7,4.5-2.3,6.8c-0.4,1.8-0.8,3.7-1,5.6c-0.2,1.6-0.2,3.1-0.3,4.7c0,0.5,0,1,0,1.4c0,0.9,0.1,1.7,0.2,2.6
			c0.1,1.4,0.3,2.8,0.6,4.1c0.5,2.8,1.3,5.6,2.5,8.2c0.9,2.1,1.9,4.1,3.1,6c0.1,0.1,0.2,0.2,0.2,0.4c-0.4-0.4-0.7-0.8-1-1.3
			c-3.1-4.5-5.1-9.4-6.1-14.8c-0.3-1.6-0.5-3.2-0.6-4.8c0-0.3,0-0.6-0.1-0.9C1.4,44.5,1.4,43.5,1.4,42.4z"/>
		<path class="st11" d="M43.7,1.4C43.6,1.4,43.6,1.4,43.7,1.4C44,1.4,44.5,1.4,45,1.4C44.6,1.4,44.1,1.4,43.7,1.4z"/>
		<path class="st11" d="M48.3,1.4C48.3,1.4,48.2,1.4,48.3,1.4c-0.5,0.1-0.9,0.1-1.4,0C47.4,1.4,47.8,1.4,48.3,1.4z"/>
		<path class="st12" d="M9.2,67.4c0-0.2-0.1-0.3-0.2-0.4c-1.2-1.9-2.2-4-3.1-6c-1.1-2.7-1.9-5.4-2.5-8.2c-0.3-1.4-0.5-2.8-0.6-4.1
			c-0.1-0.9-0.1-1.7-0.2-2.6c0-0.5-0.1-1,0-1.4c0.1-1.6,0.1-3.1,0.3-4.7c0.2-1.9,0.5-3.7,1-5.6c0.6-2.3,1.3-4.6,2.3-6.8
			c1-2.3,2.1-4.4,3.5-6.5c1-1.6,2.2-3.1,3.4-4.5c0.2-0.3,0.5-0.5,0.7-0.8c0.1-0.1,0.2-0.2,0.2-0.3c0.1-0.1,0.2-0.2,0.3-0.3
			c0,0,0.1,0,0.1-0.1c0.5-0.5,0.9-0.9,1.4-1.4c0,0,0.1-0.1,0.1-0.1l0,0c0,0,0.1-0.1,0.1-0.1l0,0c0,0,0.1,0,0.1-0.1l0,0
			c0.2,0,0.3-0.1,0.4-0.2c1.3-1,2.6-1.9,4-2.7c2.1-1.2,4.3-2.3,6.6-3.1c1.9-0.7,3.9-1.3,5.9-1.6c1.5-0.3,3-0.5,4.5-0.6
			c1.2-0.1,2.3-0.2,3.5-0.1c1.4,0,2.7,0.1,4.1,0.3c1.5,0.2,3.1,0.4,4.6,0.8C51,6.2,52.3,6.6,53.5,7c0,0-0.1,0-0.1,0
			c-0.4,0-0.8-0.1-1.2-0.1c-1-0.1-2.1-0.2-3.1-0.2c-0.7,0-1.5,0-2.2,0c-1.2,0.1-2.4,0.2-3.6,0.3c-1.9,0.3-3.8,0.7-5.7,1.3
			c-2.1,0.7-4.2,1.5-6.2,2.6c-1.3,0.7-2.6,1.5-3.9,2.4c-1.2,0.9-2.4,1.8-3.5,2.9c-0.6,0.5-1.1,1.1-1.7,1.7c-0.7,0.8-1.4,1.6-2.1,2.4
			c-1.4,1.8-2.7,3.7-3.7,5.8c-0.7,1.4-1.3,2.9-1.9,4.4c-0.2,0-0.2,0.2-0.3,0.3c-0.6,0.9-1.1,1.7-1.6,2.6c-0.8,1.4-1.5,2.9-2.1,4.4
			c-0.7,1.8-1.3,3.6-1.7,5.4c-0.2,1.1-0.4,2.1-0.6,3.2C8.1,47.3,8,48.1,8,48.8c-0.1,0.7-0.1,1.4-0.1,2.1c0,1.3,0,2.5,0.1,3.8
			c0.1,0.9,0.2,1.8,0.3,2.6c0.1,0.8,0.3,1.7,0.5,2.5C9,60.9,9.3,62,9.7,63c0.2,0.6,0.4,1.2,0.7,1.8c0.2,0.6,0.4,1.1,0.7,1.7
			c0.4,0.9,0.9,1.9,1.4,2.7c0.3,0.6,0.7,1.2,1.1,1.8c0.4,0.7,0.9,1.4,1.4,2.1c0.1,0.1,0.2,0.2,0.3,0.3c0.2,0.2,0.4,0.4,0.5,0.7
			c-0.5-0.4-1-0.9-1.5-1.3c-1.1-0.9-2-2-3-3c-0.3-0.3-0.4-0.6-0.8-0.8c0,0,0,0,0,0c0,0-0.1-0.1-0.1-0.1c-0.2-0.4-0.5-0.7-0.7-1.1
			c0,0,0-0.1-0.1-0.1c0,0-0.1-0.1-0.1-0.1C9.4,67.5,9.3,67.4,9.2,67.4C9.2,67.4,9.2,67.4,9.2,67.4z"/>
		<path class="st13" d="M44.2,87.7c-0.5,0-1,0-1.5-0.1c-2.1-0.2-4.2-0.4-6.3-0.9C33.2,86,30,84.8,27,83.3c0,0-0.1-0.1-0.1-0.1
			c0,0-0.1,0-0.1-0.1c-0.2-0.1-0.5-0.2-0.7-0.3c-0.2-0.2-0.5-0.4-0.8-0.4c0,0,0,0-0.1,0c0-0.1-0.1-0.1-0.2-0.1l0,0
			c0-0.2-0.2-0.2-0.3-0.3c-0.4-0.3-0.8-0.5-1.2-0.8c-0.5-0.3-1-0.7-1.5-1c-0.6-0.4-1.1-0.9-1.7-1.3c-0.4-0.3-0.7-0.7-1.1-1
			c-0.9-0.7-1.6-1.5-2.4-2.4c-0.1-0.1-0.1-0.2-0.1-0.3c0.2,0.1,0.4,0.2,0.5,0.4c1.4,1,2.9,2,4.4,2.8c1.9,1.1,3.9,2,5.9,2.7
			c2.5,0.9,5,1.5,7.7,1.9c1.1,0.2,2.3,0.3,3.4,0.3c2.3,0.1,4.7,0,7-0.3c2.4-0.3,4.7-0.8,7-1.6c2.3-0.7,4.5-1.7,6.6-2.8
			c1.7-0.9,3.3-2,4.9-3.1c0.8-0.6,1.6-1.3,2.4-2c0.2,0,0.4-0.1,0.6-0.3c0.2-0.1,0.3-0.3,0.5-0.4c1-0.6,1.9-1.4,2.8-2.1
			c0.4-0.3,0.6-0.6,1-0.9c0.6-0.5,1.2-1.1,1.7-1.7c0.5-0.6,1-1.2,1.5-1.8c0.9-1,1.6-2.1,2.3-3.3c0.7-1.1,1.3-2.3,1.9-3.5
			c0.6-1.3,1.1-2.6,1.4-3.9c0.4-1.4,0.7-2.7,0.9-4.2c0-0.1,0-0.3-0.1-0.4c0-0.2,0.1-0.3,0.1-0.4c0.1-0.4,0.3-0.8,0.4-1.3
			c0.3-1.1,0.5-2.2,0.7-3.4c0.2-1.2,0.4-2.5,0.4-3.7C83,40.1,83,38,82.6,36c0-0.1,0-0.2,0.1-0.3c0.1,0.1,0.1,0.3,0.2,0.5
			c0.8,2.1,1.3,4.3,1.7,6.5c0.2,1,0.3,2,0.3,3c0,0.5,0.1,1.1,0.1,1.6c0,0.3,0.1,0.6,0.1,0.9c-0.1,1.2-0.1,2.5-0.2,3.7
			c-0.1,0.9-0.2,1.8-0.4,2.8c-0.1,0.5-0.2,1.1-0.3,1.6c-0.3,1.4-0.7,2.8-1.1,4.1c-0.7,2.1-1.6,4-2.6,5.9C80,67.1,79.5,68,79,68.8
			c-0.5,0.7-0.9,1.3-1.3,2c-0.6,0.8-1.3,1.7-2,2.5c-0.7,0.8-1.3,1.5-2.1,2.2c-0.9,0.9-1.9,1.8-2.9,2.7c-0.7,0.6-1.5,1.2-2.2,1.7
			c-1.3,0.9-2.7,1.8-4.1,2.6c-1.1,0.6-2.2,1.2-3.4,1.7c-1.3,0.6-2.7,1.1-4.1,1.5c-1.5,0.5-3.1,0.9-4.7,1.2c-1.3,0.3-2.6,0.4-3.9,0.6
			c-0.5,0.1-0.9,0.1-1.4,0.1c-0.8,0-1.6,0.1-2.4,0.1C44.4,87.6,44.3,87.7,44.2,87.7z"/>
		<path class="st14" d="M14.5,30.6c0.5-1.5,1.1-3,1.9-4.4c1.1-2.1,2.3-4,3.7-5.8c0.7-0.8,1.4-1.6,2.1-2.4c0.5-0.6,1.1-1.1,1.7-1.7
			c1.1-1,2.3-2,3.5-2.9c1.2-0.9,2.5-1.7,3.9-2.4c2-1.1,4-1.9,6.2-2.6c1.9-0.6,3.7-1,5.7-1.3c1.2-0.2,2.4-0.3,3.6-0.3
			c0.7,0,1.5-0.1,2.2,0c1.1,0,2.1,0.1,3.1,0.2C52.5,7,52.9,7,53.3,7c0,0,0.1,0,0.1,0c0.3,0.1,0.5,0.2,0.8,0.2
			c0.2,0.1,0.4,0.2,0.6,0.3c0.3,0.1,0.6,0.2,0.8,0.3c0.8,0.3,1.5,0.7,2.3,1.1c0.5,0.2,1,0.5,1.4,0.8c0.6,0.3,1.2,0.7,1.8,1
			c0.6,0.4,1.2,0.7,1.8,1.1c0.4,0.3,0.8,0.5,1.2,0.8c0.4,0.4,1,0.7,1.4,1.1c0.8,0.7,1.5,1.3,2.3,2c0.8,0.7,1.5,1.5,2.2,2.3
			c0.4,0.5,0.9,1,1.3,1.6c0.3,0.4,0.6,0.9,1,1.3c0.4,0.5,0.8,1.1,1.2,1.6c0.2,0.3,0.4,0.6,0.5,0.9c0.5,0.8,1,1.6,1.4,2.4
			c0.6,1.2,1.2,2.4,1.7,3.7c0.6,1.5,1.1,3,1.5,4.6c-0.2,0-0.2-0.2-0.3-0.3c-0.4-0.5-0.6-1.1-0.9-1.7c-0.3-0.6-0.8-1.2-1.1-1.8
			c-0.3-0.5-0.7-1-1-1.4c-0.7-1-1.5-2-2.4-2.9c-0.8-0.9-1.7-1.7-2.6-2.5c0,0-0.1-0.1-0.1-0.1c-0.4-0.3-0.8-0.6-1.2-1
			c-0.3-0.2-0.6-0.4-0.9-0.5c-0.5-0.6-0.9-1.2-1.4-1.8c-0.4-0.5-0.8-0.9-1.2-1.3c-0.7-0.7-1.4-1.4-2.2-2.1c-0.1-0.1-0.3-0.2-0.4-0.4
			c0-0.2-0.2-0.3-0.4-0.3c-0.3-0.1-0.5-0.4-0.7-0.5c-0.1-0.2-0.2-0.3-0.5-0.3c-0.6-0.4-1.1-0.7-1.7-1.1c-0.7-0.4-1.4-0.8-2.2-1.2
			c-0.2-0.1-0.4-0.2-0.6-0.3c-0.7-0.3-1.4-0.6-2.2-0.8c-0.6-0.2-1.2-0.4-1.9-0.6c-1.5-0.4-3-0.7-4.6-0.8c-0.7-0.1-1.4-0.1-2.1-0.1
			c-1.4,0-2.8,0.1-4.2,0.2c-0.8,0.1-1.6,0.2-2.4,0.4c-1.1,0.2-2.1,0.5-3.2,0.9c-1,0.4-2,0.8-3,1.2c-1,0.5-2,1-2.9,1.6
			c-0.4,0.3-0.9,0.6-1.3,0.9c-0.5,0.3-1,0.8-1.5,1.2c-0.4,0.3-0.7,0.7-1.1,1c-0.4,0.3-0.8,0.6-1.1,1c-0.2,0.3-0.4,0.5-0.7,0.7
			c-0.5,0.5-0.9,1.1-1.4,1.6c-0.3,0.3-0.5,0.7-0.7,1c-0.3,0.5-0.7,1-1,1.5c-0.5,0.8-0.8,1.6-1.3,2.4c-0.1,0.1-0.1,0.2-0.1,0.3
			c-0.2,0.5-0.4,1-0.5,1.5c-0.2,0.5-0.4,1-0.5,1.6c0,0.3-0.2,0.6-0.3,0.9c-0.1,0.1-0.2,0.2-0.3,0.4c-0.8,1.6-1.4,3.1-1.9,4.8
			c-0.2,0.9-0.4,1.7-0.6,2.6c-0.1,0.6-0.2,1.1-0.2,1.7c0,0.6-0.1,1.2-0.1,1.9c0,1.4,0,2.8,0.2,4.2c0.1,0.9,0.3,1.9,0.5,2.8
			c0.1,0.2,0.1,0.5,0.1,0.7c-0.1,0.2-0.1,0.4-0.1,0.6c0.1,0.5,0.1,0.9,0.2,1.4c0.1,0.7,0.1,1.4,0.4,2.1c0,0,0,0.1,0,0.1
			c0,0.7,0.3,1.4,0.5,2.1c0.1,0.5,0.3,0.9,0.5,1.4c0.2,0.6,0.4,1.1,0.6,1.7c0.1,0.4,0.4,0.8,0.6,1.3c0.3,0.7,0.6,1.4,1.1,2.1
			c0.3,0.5,0.6,1,1,1.5c0.4,0.5,0.7,1.2,1.2,1.7c0.1,0.2,0.2,0.4,0.3,0.6c-0.6-0.5-1.2-1.1-1.7-1.8c-0.9-1-1.7-2-2.5-3.1
			c-1-1.5-2-3-2.8-4.6c-0.3-0.7-0.6-1.4-0.9-2.1c-0.6-1.5-1.1-3-1.5-4.5c-0.3-1.3-0.6-2.6-0.7-3.9c-0.1-1.1-0.3-2.2-0.3-3.4
			c0-0.8,0-1.5,0-2.3c0-0.5,0.1-1,0.1-1.5c0.1-0.8,0.2-1.5,0.3-2.3c0.2-1.2,0.5-2.5,0.8-3.7C14,32.1,14.2,31.3,14.5,30.6z"/>
		<path class="st15" d="M78.6,34.2c-0.4-1.6-0.9-3.1-1.5-4.6c-0.5-1.3-1.1-2.5-1.7-3.7c-0.4-0.8-0.9-1.6-1.4-2.4
			c-0.2-0.3-0.3-0.6-0.5-0.9c-0.4-0.5-0.7-1.1-1.2-1.6c-0.4-0.4-0.7-0.9-1-1.3c-0.4-0.5-0.9-1.1-1.3-1.6c-0.7-0.8-1.5-1.6-2.2-2.3
			c-0.7-0.7-1.5-1.4-2.3-2c-0.5-0.4-1-0.7-1.4-1.1c-0.3-0.3-0.8-0.5-1.2-0.8c-0.6-0.4-1.2-0.8-1.8-1.1c-0.6-0.4-1.2-0.7-1.8-1
			c-0.5-0.2-1-0.5-1.4-0.8c-0.8-0.4-1.5-0.7-2.3-1.1c-0.3-0.1-0.6-0.2-0.8-0.3c-0.2-0.1-0.4-0.2-0.6-0.3c0.3,0,0.6,0.1,0.9,0.1
			c1.8,0.3,3.5,0.8,5.2,1.4c1.5,0.6,3.1,1.2,4.5,2c1.5,0.8,3,1.7,4.3,2.7c1,0.7,2,1.6,2.9,2.4c1.1,1,2.1,2,3,3.2
			c0.7,0.8,1.3,1.6,1.9,2.5c0.7,1,1.4,2.1,2,3.2c0.8,1.4,1.4,2.9,2,4.4c0.4,1.1,0.8,2.2,1,3.4c0.2,0.8,0.3,1.6,0.5,2.4
			c0.1,0.3,0.1,0.5,0.2,0.8c-0.1,0.1-0.1,0.2-0.1,0.3c0.3,2.1,0.3,4.1,0.3,6.2c0,1.3-0.2,2.5-0.4,3.7c-0.2,1.1-0.4,2.2-0.7,3.4
			c-0.1,0.4-0.2,0.9-0.4,1.3c0,0.1-0.1,0.3-0.1,0.4c-0.1,0.2-0.2,0.3-0.2,0.5c-0.2,0.5-0.3,0.9-0.5,1.4c-0.2,0.5-0.4,1-0.6,1.5
			c-0.3,0.8-0.7,1.5-1.1,2.3c-0.4,0.7-0.7,1.4-1.2,2c-0.4,0.6-0.8,1.3-1.3,1.9c-0.1,0.1-0.1,0.2-0.3,0.2c0.3-0.7,0.6-1.3,0.8-2
			c0.6-1.5,1.1-3,1.6-4.6c0.2-0.8,0.4-1.7,0.6-2.5c0.2-1.3,0.4-2.6,0.6-3.9c0.1-1.1,0.1-2.1,0.2-3.2c0.1-1.1,0-2.3-0.1-3.4
			c0-0.7-0.1-1.4-0.2-2.2c-0.1-1-0.3-2-0.5-2.9C79,35.4,78.8,34.8,78.6,34.2z"/>
		<path class="st10" d="M16.7,75c0,0.1,0,0.2,0.1,0.3c0.8,0.8,1.5,1.6,2.4,2.4c0.4,0.3,0.7,0.7,1.1,1c0.6,0.4,1.1,0.9,1.7,1.3
			c0.5,0.4,1,0.7,1.5,1c0.4,0.3,0.8,0.5,1.2,0.8c0.1,0.1,0.3,0.1,0.3,0.3c-0.4-0.1-0.7-0.4-1-0.6c-5.4-3.2-9.8-7.3-13.4-12.4
			c-0.1-0.1-0.2-0.2-0.2-0.4c0.3,0.2,0.5,0.6,0.8,0.8c0.9,1.1,1.9,2.1,3,3c0.5,0.4,1,0.9,1.5,1.3c0.3,0.3,0.6,0.5,0.8,0.7
			c0,0,0.1,0.1,0.1,0.1l0,0C16.6,75,16.6,75,16.7,75L16.7,75z"/>
		<path class="st10" d="M25.3,82.5c0.3,0,0.6,0.2,0.8,0.4C25.8,82.8,25.5,82.6,25.3,82.5z"/>
		<path class="st10" d="M25,82.3c0.1,0,0.2,0,0.2,0.1C25.2,82.4,25.1,82.4,25,82.3z"/>
		<path class="st11" d="M9.2,67.4c0.1,0,0.1,0.1,0.1,0.2C9.3,67.5,9.2,67.5,9.2,67.4z"/>
		<path class="st10" d="M26.8,83.2C26.8,83.2,26.8,83.2,26.8,83.2C26.8,83.3,26.8,83.2,26.8,83.2z"/>
		<path class="st10" d="M10.3,68.9C10.3,68.9,10.3,68.9,10.3,68.9C10.3,68.9,10.3,68.9,10.3,68.9z"/>
		<path class="st11" d="M9.5,67.7C9.5,67.7,9.5,67.8,9.5,67.7C9.5,67.8,9.5,67.8,9.5,67.7z"/>
		<path class="st10" d="M16.2,13.3C16.2,13.4,16.1,13.4,16.2,13.3C16.1,13.4,16.1,13.3,16.2,13.3z"/>
		<path class="st10" d="M16.1,13.4C16.1,13.4,16,13.5,16.1,13.4C16,13.4,16,13.4,16.1,13.4z"/>
		<path class="st10" d="M16,13.5c0,0-0.1,0.1-0.1,0.1C15.9,13.5,16,13.5,16,13.5z"/>
		<path class="st11" d="M14.5,14.9C14.5,15,14.4,15,14.5,14.9C14.4,14.9,14.4,14.9,14.5,14.9z"/>
		<path class="st16" d="M16.5,74.9c-0.2-0.3-0.6-0.5-0.8-0.7c0-0.3-0.3-0.5-0.5-0.7c-0.1-0.1-0.2-0.2-0.3-0.3
			c-0.5-0.7-1-1.4-1.4-2.1c-0.4-0.6-0.7-1.2-1.1-1.8c-0.5-0.9-1-1.8-1.4-2.7c-0.3-0.5-0.5-1.1-0.7-1.7c-0.2-0.6-0.5-1.2-0.7-1.8
			c-0.4-1-0.7-2.1-0.9-3.2c-0.2-0.8-0.4-1.7-0.5-2.5c-0.1-0.9-0.3-1.8-0.3-2.6c-0.1-1.3-0.2-2.5-0.1-3.8c0-0.7,0.1-1.4,0.1-2.1
			c0.1-0.8,0.1-1.5,0.2-2.3c0.1-1.1,0.3-2.2,0.6-3.2c0.4-1.9,1-3.7,1.7-5.4c0.6-1.5,1.3-2.9,2.1-4.4c0.5-0.9,1-1.8,1.6-2.6
			c0.1-0.1,0.1-0.3,0.3-0.3c-0.2,0.7-0.5,1.5-0.7,2.3c-0.3,1.2-0.6,2.4-0.8,3.7c-0.1,0.8-0.2,1.5-0.3,2.3c0,0.5-0.1,1-0.1,1.5
			c0,0.8,0,1.5,0,2.3c0,1.1,0.1,2.3,0.3,3.4c0.2,1.3,0.4,2.6,0.7,3.9c0.4,1.5,0.9,3.1,1.5,4.5c0.3,0.7,0.6,1.4,0.9,2.1
			c0.8,1.6,1.7,3.1,2.8,4.6c0.8,1.1,1.6,2.1,2.5,3.1c0.5,0.6,1.1,1.2,1.7,1.8c0,0,0.1,0.1,0.1,0.1c0.9,0.8,1.7,1.5,2.6,2.2
			c1.6,1.2,3.3,2.3,5,3.2c1.4,0.7,2.9,1.4,4.4,1.9c1.4,0.5,2.8,0.9,4.2,1.2c1.3,0.3,2.6,0.5,3.9,0.6c0.8,0.1,1.6,0.2,2.4,0.2
			c1.7,0.1,3.5,0,5.2-0.2c1-0.1,2-0.3,3-0.5c1.8-0.3,3.5-0.8,5.2-1.4c1.2-0.4,2.5-1,3.7-1.5c1.4-0.7,2.7-1.4,4-2.3
			c1-0.7,2-1.4,2.9-2.1c0.6-0.5,1.2-1,1.8-1.6c0.9-0.8,1.8-1.7,2.6-2.6c0.5-0.5,0.9-1.1,1.3-1.6c0,0.2-0.1,0.4-0.2,0.6
			c-0.8,1.5-1.7,2.9-2.6,4.3c-1.3,1.8-2.7,3.5-4.3,5.1c-0.6,0.6-1.2,1.2-1.9,1.8c-0.8,0.6-1.6,1.3-2.4,2c-1.6,1.2-3.2,2.2-4.9,3.1
			c-2.1,1.1-4.3,2.1-6.6,2.8c-2.3,0.7-4.6,1.2-7,1.6c-2.3,0.3-4.7,0.4-7,0.3c-1.2,0-2.3-0.2-3.4-0.3c-2.6-0.4-5.2-1-7.7-1.9
			c-2.1-0.7-4-1.6-5.9-2.7c-1.5-0.8-3-1.8-4.4-2.8c-0.2-0.1-0.3-0.3-0.5-0.4c0,0,0,0,0,0C16.7,75,16.6,75,16.5,74.9
			C16.6,75,16.6,75,16.5,74.9C16.5,74.9,16.5,74.9,16.5,74.9z"/>
		<path class="st17" d="M66.7,73.4c0.6-0.6,1.3-1.2,1.9-1.8c1.6-1.6,3-3.3,4.3-5.1c1-1.4,1.8-2.8,2.6-4.3c0.1-0.2,0.2-0.3,0.2-0.6
			l0,0c0.1,0,0.1-0.1,0.1-0.2c0.2-0.2,0.2-0.5,0.4-0.8c0.1,0,0.2-0.1,0.3-0.2c0.5-0.6,0.8-1.2,1.3-1.9c0.4-0.6,0.8-1.3,1.2-2
			c0.4-0.7,0.8-1.5,1.1-2.3c0.2-0.5,0.4-1,0.6-1.5c0.2-0.4,0.3-0.9,0.5-1.4c0.1-0.2,0.1-0.4,0.2-0.5c0.1,0.1,0.1,0.3,0.1,0.4
			c-0.2,1.4-0.5,2.8-0.9,4.2c-0.4,1.3-0.9,2.7-1.4,3.9c-0.6,1.2-1.2,2.4-1.9,3.5c-0.7,1.1-1.4,2.2-2.3,3.3c-0.5,0.6-1,1.2-1.5,1.8
			c-0.5,0.6-1.1,1.2-1.7,1.7c-0.3,0.3-0.6,0.6-1,0.9c-0.9,0.7-1.8,1.5-2.8,2.1c-0.2,0.1-0.3,0.2-0.5,0.4
			C67.1,73.2,66.9,73.3,66.7,73.4z"/>
		<path class="st18" d="M76.2,60.7c-0.2,0.2-0.2,0.5-0.4,0.8c-0.1,0-0.1,0.1-0.1,0.2l0,0c-0.5,0.5-0.9,1-1.3,1.6
			c-0.8,0.9-1.7,1.8-2.6,2.6c-0.6,0.5-1.2,1.1-1.8,1.6C69,68.2,68,68.9,67,69.5c-1.3,0.9-2.6,1.6-4,2.3c-1.2,0.6-2.4,1.1-3.7,1.5
			c-1.7,0.6-3.4,1.1-5.2,1.4c-1,0.2-2,0.3-3,0.5c-1.7,0.2-3.5,0.2-5.2,0.2c-0.8,0-1.6-0.1-2.4-0.2c-1.3-0.1-2.6-0.3-3.9-0.6
			c-1.4-0.3-2.8-0.7-4.2-1.2c-1.5-0.5-3-1.2-4.4-1.9c-1.8-0.9-3.4-2-5-3.2c-0.9-0.7-1.8-1.5-2.6-2.2c0,0-0.1-0.1-0.1-0.1
			c0-0.2-0.1-0.4-0.3-0.6c-0.5-0.5-0.7-1.2-1.2-1.7c-0.4-0.5-0.6-1-1-1.5c-0.4-0.6-0.7-1.4-1.1-2.1c-0.2-0.4-0.5-0.8-0.6-1.3
			c-0.2-0.6-0.4-1.1-0.6-1.7c-0.2-0.5-0.3-0.9-0.5-1.4c-0.2-0.7-0.5-1.4-0.5-2.1c0-0.1,0-0.1,0-0.1c-0.3-0.7-0.3-1.4-0.4-2.1
			c-0.1-0.5-0.1-0.9-0.2-1.4c0-0.2-0.1-0.4,0.1-0.6c0.1,0.1,0.1,0.3,0.2,0.4c0.3,1.1,0.7,2.1,1.2,3.2c0.6,1.2,1.2,2.4,1.9,3.6
			c0.6,0.8,1.2,1.7,1.8,2.5c0.5,0.6,1,1.1,1.5,1.7c0.9,1,2,1.8,3,2.6c1.1,0.8,2.2,1.5,3.4,2.2c2,1.1,4.2,1.9,6.4,2.5
			c1,0.2,1.9,0.4,2.9,0.5c0.8,0.1,1.6,0.2,2.5,0.2c0.4,0,0.8,0,1.2,0.1c0.1,0,0.3,0,0.4,0c0.1,0,0.3,0,0.4,0c0.6,0,1.2,0,1.7-0.1
			c0.7-0.1,1.4-0.2,2.1-0.3c1-0.1,1.9-0.4,2.9-0.6c0.8-0.2,1.7-0.5,2.5-0.8c1.5-0.6,2.9-1.3,4.2-2.1c0.8-0.5,1.7-1.1,2.4-1.7
			c0.5-0.4,1-0.8,1.5-1.2c0.9-0.8,1.7-1.6,2.5-2.5c0.5-0.6,1-1.3,1.5-1.9c0.8-1.1,1.5-2.3,2.1-3.6c0.1-0.3,0.3-0.6,0.4-0.9
			c0.2-0.4,0.4-0.7,0.5-1.1c0.2,0,0.2-0.2,0.3-0.3c0.6-0.9,1.1-1.8,1.6-2.7c0.4-0.9,0.9-1.8,1.2-2.7c0.5-1.3,0.8-2.6,1.1-3.9
			c0.2-0.9,0.3-1.8,0.4-2.8c0-0.7,0.1-1.4,0.1-2.2c0.1-0.6-0.1-1.2-0.1-1.9c0-0.4-0.1-0.9-0.1-1.3c-0.1-0.8-0.2-1.6-0.4-2.3
			c-0.2-1-0.4-1.9-0.7-2.8c-0.2-0.7-0.5-1.4-0.8-2.1c-0.3-0.8-0.7-1.6-1.1-2.4c-0.5-0.9-1-1.7-1.6-2.5c0.3,0.1,0.6,0.3,0.9,0.5
			c0.4,0.3,0.8,0.6,1.2,1c0,0,0.1,0.1,0.1,0.1c0.9,0.8,1.8,1.6,2.6,2.5c0.8,0.9,1.7,1.9,2.4,2.9c0.3,0.5,0.7,0.9,1,1.4
			c0.3,0.6,0.8,1.1,1.1,1.8c0.3,0.6,0.5,1.2,0.9,1.7c0.1,0.1,0.1,0.2,0.3,0.3c0.2,0.6,0.3,1.2,0.4,1.8c0.2,1,0.4,1.9,0.5,2.9
			c0.1,0.7,0.2,1.4,0.2,2.2c0.1,1.1,0.2,2.3,0.1,3.4c-0.1,1.1-0.1,2.1-0.2,3.2c-0.1,1.3-0.3,2.6-0.6,3.9c-0.2,0.9-0.4,1.7-0.6,2.5
			c-0.4,1.6-0.9,3.1-1.6,4.6C76.8,59.4,76.5,60,76.2,60.7z"/>
		<path class="st19" d="M68.1,51.9c-0.2,0.4-0.4,0.7-0.5,1.1c-0.1,0-0.2,0.1-0.3,0.2c-0.4,0.5-0.8,1-1.3,1.5c-1,1.1-2,2-3.1,3
			c-0.7,0.6-1.4,1.1-2.2,1.6c-0.5,0.4-1.1,0.7-1.6,1c-0.1,0.1-0.2,0.1-0.3,0c0.4-0.3,0.8-0.6,1.2-1c1.5-1.3,2.8-2.7,3.9-4.3
			c0.6-1,1.2-2,1.7-3c0.1,0,0.2-0.2,0.3-0.3c0.8-1.3,1.5-2.7,2.1-4.2c0.5-1.4,0.9-2.8,1-4.3c0.1-0.7,0.2-1.4,0.2-2.1
			c0-0.9-0.1-1.7-0.1-2.6c-0.1-1-0.3-2-0.5-3c-0.3-1.1-0.6-2.2-1.1-3.2c-0.4-0.8-0.8-1.6-1.3-2.4c-1-1.6-2.3-3-3.8-4.3
			c-0.8-0.7-1.7-1.4-2.6-1.9c-1.7-1-3.5-1.8-5.4-2.4c-1.8-0.5-3.7-0.8-5.6-0.8c-0.6,0-1.2,0-1.8,0c-1.2,0.1-2.4,0.3-3.6,0.6
			c-1.2,0.3-2.3,0.6-3.4,1.1c-0.1,0-0.2,0.1-0.3,0.2c0,0-0.1,0-0.1,0c-0.1,0-0.1,0-0.2,0.1c-0.1,0-0.2,0.1-0.4,0.1
			c-1.7,0.5-3.3,1.2-4.8,2.1c-2.3,1.3-4.2,3-5.9,5c-1.3,1.6-2.3,3.3-3.1,5.2c-0.9,2.2-1.5,4.5-1.6,6.9c-0.1,2.3,0.1,4.6,0.7,6.9
			c0.6,2.1,1.5,4,2.6,5.9c0.6,0.9,1.3,1.8,2,2.6c0.6,0.6,1.2,1.2,1.8,1.8c0.3,0.2,0.6,0.4,0.8,0.7c-0.2,0-0.3-0.1-0.4-0.1
			c-1.6-0.9-3-2.1-4.3-3.3c-0.9-0.8-1.7-1.7-2.4-2.6c-0.7-0.8-1.3-1.7-1.9-2.6c-0.8-1.3-1.6-2.8-2.2-4.2c-0.7-1.6-1.1-3.2-1.5-4.9
			c-0.2-1-0.3-2-0.4-3c0-0.9-0.1-1.8,0-2.7c0.1-0.8,0-1.6,0.2-2.4c0.1-1,0.2-1.9,0.5-2.8c0.1-0.2,0.1-0.4,0.1-0.7
			c0.1-0.3,0.3-0.6,0.3-0.9c0.3-0.1,0.3-0.3,0.4-0.5c0.9-1.5,1.9-2.8,3.1-4.1c1.1-1.1,2.2-2.2,3.4-3.2c1.5-1.2,3.1-2.2,4.9-3
			c1.3-0.6,2.5-1.1,3.9-1.5c0.9-0.3,1.9-0.5,2.9-0.7c0.7-0.1,1.4-0.3,2.2-0.3c0.5,0,1-0.1,1.5-0.1c1.5,0,3-0.1,4.5,0.1
			c0.8,0.1,1.6,0.2,2.4,0.4c1.3,0.3,2.6,0.7,3.9,1.1c0.9,0.3,1.7,0.7,2.6,1.1c1.2,0.6,2.3,1.3,3.4,2c1.3,0.9,2.4,1.9,3.6,2.9
			c0.4,0.3,0.7,0.7,1,1.1c0.7,0.7,1.3,1.5,1.9,2.3c0.3,0.4,0.6,0.8,0.9,1.2c0.8,1.3,1.5,2.6,2.1,4.1c0.4,1,0.8,2,1.1,3
			c0.3,1.1,0.6,2.2,0.7,3.4c0.1,0.9,0.2,1.9,0.2,2.8c0,0.8,0,1.6,0,2.4c0,0.4-0.1,0.8-0.1,1.3c-0.1,0.7-0.2,1.5-0.3,2.2
			c-0.3,1.2-0.5,2.3-0.9,3.5C68.3,51.2,68.2,51.5,68.1,51.9z"/>
		<path class="st20" d="M68.1,51.9c0-0.3,0.2-0.6,0.3-0.9c0.4-1.1,0.7-2.3,0.9-3.5c0.2-0.7,0.3-1.5,0.3-2.2c0-0.4,0.1-0.8,0.1-1.3
			c0-0.8,0-1.6,0-2.4c0-0.9-0.1-1.9-0.2-2.8c-0.1-1.1-0.4-2.3-0.7-3.4c-0.3-1-0.7-2-1.1-3c-0.6-1.4-1.3-2.8-2.1-4.1
			c-0.3-0.4-0.6-0.8-0.9-1.2c-0.6-0.8-1.2-1.5-1.9-2.3c-0.3-0.4-0.7-0.8-1-1.1c-1.1-1-2.3-2-3.6-2.9c-1.1-0.7-2.2-1.4-3.4-2
			c-0.8-0.4-1.7-0.8-2.6-1.1c-1.3-0.5-2.6-0.9-3.9-1.1c-0.8-0.2-1.6-0.3-2.4-0.4c-1.5-0.2-3-0.2-4.5-0.1c-0.5,0-1,0.1-1.5,0.1
			c-0.7,0-1.5,0.2-2.2,0.3c-1,0.2-1.9,0.4-2.9,0.7c-1.3,0.4-2.6,0.9-3.9,1.5c-1.7,0.8-3.3,1.8-4.9,3c-1.2,0.9-2.4,2-3.4,3.2
			c-1.2,1.3-2.2,2.6-3.1,4.1c-0.1,0.2-0.1,0.5-0.4,0.5c0.1-0.5,0.3-1.1,0.5-1.6c0.2-0.5,0.4-1,0.5-1.5c0-0.1,0.1-0.2,0.1-0.3
			c0.5-0.8,0.8-1.6,1.3-2.4c0.3-0.5,0.7-1,1-1.5c0.2-0.3,0.5-0.7,0.7-1c0.4-0.5,0.8-1.1,1.4-1.6c0.2-0.2,0.5-0.5,0.7-0.7
			c0.3-0.4,0.7-0.7,1.1-1c0.4-0.3,0.7-0.7,1.1-1c0.5-0.4,1-0.8,1.5-1.2c0.4-0.3,0.9-0.6,1.3-0.9c0.9-0.6,1.9-1.1,2.9-1.6
			c1-0.5,2-0.9,3-1.2c1-0.4,2.1-0.7,3.2-0.9c0.8-0.2,1.6-0.3,2.4-0.4c1.4-0.2,2.8-0.2,4.2-0.2c0.7,0,1.4,0.1,2.1,0.1
			c1.6,0.1,3.1,0.4,4.6,0.8c0.6,0.2,1.3,0.4,1.9,0.6c0.7,0.2,1.4,0.6,2.2,0.8c0.2,0.1,0.4,0.2,0.6,0.3c0.7,0.4,1.5,0.7,2.2,1.2
			c0.6,0.4,1.1,0.7,1.7,1.1c0.1,0.2,0.3,0.3,0.5,0.3c0.2,0.2,0.4,0.4,0.7,0.5c0.1,0.1,0.3,0.2,0.4,0.3c0.1,0.2,0.3,0.2,0.4,0.4
			c0.8,0.6,1.5,1.3,2.2,2.1c0.4,0.4,0.8,0.9,1.2,1.3c0.5,0.6,0.9,1.2,1.4,1.8c0.5,0.8,1.1,1.7,1.6,2.5c0.4,0.8,0.8,1.6,1.1,2.4
			c0.3,0.7,0.5,1.4,0.8,2.1c0.3,0.9,0.5,1.9,0.7,2.8c0.2,0.8,0.3,1.5,0.4,2.3c0,0.4,0.1,0.9,0.1,1.3c0,0.6,0.1,1.2,0.1,1.9
			c-0.1,0.7-0.1,1.4-0.1,2.2c-0.1,0.9-0.2,1.9-0.4,2.8c-0.3,1.3-0.6,2.6-1.1,3.9c-0.3,0.9-0.8,1.8-1.2,2.7c-0.5,0.9-1,1.9-1.6,2.7
			C68.3,51.7,68.3,51.8,68.1,51.9z"/>
		<path class="st17" d="M58.8,60.2c0.1,0.1,0.2,0.1,0.3,0c0.6-0.3,1.1-0.6,1.6-1c0.7-0.5,1.5-1,2.2-1.6c1.1-0.9,2.2-1.9,3.1-3
			c0.4-0.5,0.9-1,1.3-1.5c0.1-0.1,0.2-0.2,0.3-0.2c-0.1,0.3-0.3,0.6-0.4,0.9c-0.6,1.3-1.3,2.5-2.1,3.6c-0.5,0.7-1,1.3-1.5,1.9
			c-0.8,0.9-1.6,1.7-2.5,2.5c-0.5,0.4-1,0.9-1.5,1.2c-0.8,0.6-1.6,1.2-2.4,1.7c-1.3,0.8-2.8,1.5-4.2,2.1c-0.8,0.3-1.6,0.6-2.5,0.8
			c-1,0.3-1.9,0.5-2.9,0.6c-0.7,0.1-1.4,0.2-2.1,0.3c-0.6,0-1.2,0-1.7,0.1c-0.1,0-0.3,0-0.4,0c-0.1,0-0.3,0.1-0.4,0
			c-0.4-0.1-0.8-0.1-1.2-0.1c-0.8,0-1.6-0.1-2.5-0.2c-1-0.1-1.9-0.3-2.9-0.5c-2.3-0.5-4.4-1.4-6.4-2.5c-1.2-0.6-2.3-1.4-3.4-2.2
			c-1.1-0.8-2.1-1.7-3-2.6c-0.5-0.5-1-1.1-1.5-1.7c-0.6-0.8-1.2-1.6-1.8-2.5c-0.8-1.1-1.4-2.3-1.9-3.6c-0.5-1-0.9-2.1-1.2-3.2
			c0-0.1-0.1-0.3-0.2-0.4c0-0.3-0.1-0.5-0.1-0.7c-0.3-0.9-0.4-1.8-0.5-2.8c-0.2-1.4-0.3-2.8-0.2-4.2c0-0.6,0.1-1.2,0.1-1.9
			c0-0.6,0.1-1.1,0.2-1.7c0.2-0.9,0.4-1.7,0.6-2.6c0.4-1.7,1.1-3.3,1.9-4.8c0.1-0.1,0.1-0.3,0.3-0.4c0,0.2-0.1,0.5-0.1,0.7
			c-0.2,0.9-0.4,1.9-0.5,2.8c-0.1,0.8-0.1,1.6-0.2,2.4c-0.1,0.9,0,1.8,0,2.7c0,1,0.2,2,0.4,3c0.3,1.7,0.8,3.3,1.5,4.9
			c0.6,1.5,1.3,2.9,2.2,4.2c0.6,0.9,1.2,1.7,1.9,2.6c0.8,0.9,1.5,1.8,2.4,2.6c1.3,1.2,2.8,2.4,4.3,3.3c0.1,0.1,0.2,0.2,0.4,0.1l0,0
			c0,0.1,0.1,0.2,0.3,0.2c0.1,0,0.2,0.1,0.3,0.2c2.1,1.6,4.4,2.7,6.9,3.5c1.6,0.5,3.3,0.8,5,0.9c2.5,0.1,4.9,0,7.3-0.7
			c1.5-0.4,2.9-0.9,4.2-1.6C56.6,61.7,57.7,61,58.8,60.2z"/>
		<path class="st18" d="M61.9,15.5c-0.2-0.1-0.3-0.2-0.5-0.3C61.6,15.3,61.8,15.3,61.9,15.5z"/>
		<path class="st18" d="M62.9,16.4c-0.1-0.1-0.3-0.2-0.4-0.3C62.8,16.1,62.9,16.1,62.9,16.4z"/>
		<path class="st13" d="M16.6,75c0.1,0,0.1,0,0.2,0.1C16.6,75,16.6,75,16.6,75z"/>
		<path class="st13" d="M16.5,74.9C16.5,74.9,16.5,74.9,16.5,74.9C16.5,74.9,16.5,74.9,16.5,74.9z"/>
		<path class="st16" d="M75.7,61.6c0-0.1,0.1-0.1,0.1-0.2C75.8,61.5,75.7,61.6,75.7,61.6z"/>
		<path class="st18" d="M39.5,22.4c0-0.1,0.2-0.2,0.3-0.2c1.1-0.4,2.2-0.8,3.4-1.1c1.2-0.3,2.4-0.4,3.6-0.6c0.6-0.1,1.2,0,1.8,0
			c1.9,0,3.8,0.3,5.6,0.8c1.9,0.5,3.7,1.3,5.4,2.4c0.9,0.6,1.8,1.2,2.6,1.9c1.4,1.3,2.7,2.7,3.8,4.3c0.5,0.8,0.9,1.6,1.3,2.4
			c0.5,1,0.8,2.1,1.1,3.2c0.3,1,0.4,2,0.5,3c0.1,0.9,0.2,1.7,0.1,2.6c0,0.7-0.1,1.4-0.2,2.1c-0.2,1.5-0.5,2.9-1,4.3
			c-0.5,1.5-1.2,2.9-2.1,4.2c-0.1,0.1-0.1,0.2-0.3,0.3c0-0.1,0-0.1,0.1-0.2c0.4-0.9,0.7-1.8,1-2.7c0.4-1.4,0.7-2.8,0.8-4.2
			c0.1-0.8,0.1-1.7,0-2.5c-0.1-0.9-0.1-1.8-0.3-2.7c-0.4-2.3-1.2-4.5-2.4-6.6c-1.2-2.1-2.6-3.9-4.4-5.5c-1-0.9-2.1-1.7-3.3-2.5
			c-1.8-1.1-3.8-1.9-5.8-2.5c-1.6-0.4-3.3-0.7-4.9-0.7c-0.9,0-1.9,0-2.8,0.1c-1.2,0.1-2.4,0.3-3.6,0.6
			C39.8,22.4,39.6,22.4,39.5,22.4z"/>
		<path class="st21" d="M39.5,22.4c0.1,0,0.3,0,0.4-0.1c1.2-0.3,2.4-0.5,3.6-0.6c0.9-0.1,1.9-0.1,2.8-0.1c1.7,0.1,3.3,0.3,4.9,0.7
			c2.1,0.5,4,1.4,5.8,2.5c1.2,0.7,2.3,1.6,3.3,2.5c1.8,1.6,3.2,3.4,4.4,5.5c1.2,2.1,1.9,4.3,2.4,6.6c0.2,0.9,0.2,1.8,0.3,2.7
			c0.1,0.9,0,1.7,0,2.5c-0.1,1.4-0.4,2.8-0.8,4.2c-0.3,0.9-0.6,1.8-1,2.7c0,0.1,0,0.1-0.1,0.2c-0.5,1-1.1,2-1.7,3
			c-1.1,1.6-2.4,3.1-3.9,4.3c-0.4,0.3-0.8,0.7-1.2,1c-1.1,0.8-2.2,1.5-3.4,2.1c-1.3,0.7-2.8,1.2-4.2,1.6c-2.4,0.6-4.9,0.8-7.3,0.7
			c-1.7-0.1-3.4-0.4-5-0.9c-2.5-0.8-4.8-1.9-6.9-3.5c-0.1-0.1-0.2-0.2-0.3-0.2c-0.1-0.1-0.2-0.1-0.3-0.2l0,0
			c-0.2-0.3-0.5-0.5-0.8-0.7c-0.6-0.6-1.2-1.2-1.8-1.8c-0.7-0.8-1.4-1.7-2-2.6c-1.2-1.8-2.1-3.8-2.6-5.9c-0.6-2.3-0.8-4.5-0.7-6.9
			c0.1-2.4,0.7-4.7,1.6-6.9c0.8-1.9,1.8-3.6,3.1-5.2c1.7-2,3.6-3.7,5.9-5c1.5-0.9,3.2-1.6,4.8-2.1c0.1,0,0.2-0.1,0.4-0.1
			c0.1,0,0.1,0,0.2-0.1C39.4,22.4,39.5,22.4,39.5,22.4z M63.8,54.4c0.1-0.1,0.2-0.2,0.3-0.3c0.1-0.2,0.3-0.5,0.4-0.7
			c0.5-0.8,0.9-1.7,1.3-2.6c0.2-0.6,0.5-1.2,0.6-1.8c0.2-0.5,0.3-1,0.4-1.6c0.1-0.7,0.3-1.4,0.3-2.2c0-0.5,0.1-1.1,0.1-1.6
			c0-1,0-2-0.1-3c-0.1-0.8-0.2-1.5-0.4-2.2c-0.2-0.8-0.4-1.6-0.7-2.3c-0.3-0.8-0.6-1.5-1-2.2c-0.3-0.7-0.7-1.3-1.1-2
			c-0.8-1.3-1.7-2.4-2.7-3.4c-0.7-0.8-1.6-1.5-2.4-2.1c-0.8-0.6-1.7-1.2-2.6-1.7c-0.7-0.4-1.3-0.7-2-1c-0.6-0.3-1.3-0.5-1.9-0.7
			c-1-0.3-2-0.6-3.1-0.8C48.1,22.1,47,22,46,22c-0.8,0-1.5,0-2.3,0.1c-0.9,0.1-1.8,0.2-2.7,0.4c-1.6,0.3-3.1,0.8-4.5,1.4
			c-0.3,0-0.5,0.2-0.7,0.3c-0.5,0.2-1,0.5-1.6,0.8c-1.1,0.6-2.1,1.3-3,2.1c-0.5,0.4-1,0.9-1.5,1.4c-0.5,0.5-1,1.1-1.5,1.6
			c-0.9,1.1-1.7,2.4-2.4,3.7c-0.8,1.6-1.4,3.3-1.8,5c-0.3,1.2-0.4,2.5-0.5,3.7c-0.1,1,0,2,0.1,3c0.2,1.8,0.6,3.5,1.3,5.2
			c0.4,1,0.8,1.9,1.3,2.8c0.7,1.2,1.5,2.3,2.4,3.3c0.8,0.9,1.6,1.7,2.4,2.4c1.1,0.9,2.3,1.7,3.6,2.4c1.6,0.8,3.2,1.5,5,1.9
			c1,0.3,2,0.5,3.1,0.6c0.7,0.1,1.3,0.1,2,0.2c1.4,0.1,2.8-0.1,4.2-0.3c1.1-0.2,2.3-0.4,3.4-0.8c1.6-0.5,3.1-1.2,4.5-2.1
			c1.5-0.9,2.8-1.9,4-3.1c0.7-0.7,1.3-1.4,1.9-2.1C63.2,55.4,63.5,55,63.8,54.4z"/>
		<path class="st18" d="M39.4,22.4c-0.1,0-0.1,0-0.2,0.1C39.3,22.4,39.3,22.4,39.4,22.4z"/>
		<path class="st19" d="M31.3,59.7c0.1,0,0.2,0.1,0.3,0.2C31.4,59.9,31.3,59.8,31.3,59.7z"/>
		<path class="st22" d="M36.5,23.8c1.5-0.6,3-1.1,4.5-1.4c0.9-0.2,1.8-0.3,2.7-0.4C44.4,22,45.2,22,46,22c1.1,0,2.1,0.1,3.1,0.3
			c1.1,0.2,2.1,0.4,3.1,0.8c0.7,0.2,1.3,0.5,1.9,0.7c0.7,0.3,1.4,0.6,2,1c0.9,0.5,1.8,1.1,2.6,1.7c0.9,0.6,1.7,1.3,2.4,2.1
			c1,1.1,2,2.2,2.7,3.4c0.4,0.6,0.8,1.3,1.1,2c0.3,0.7,0.7,1.5,1,2.2c0.3,0.8,0.5,1.5,0.7,2.3c0.2,0.7,0.3,1.5,0.4,2.2
			c0.1,1,0.1,2,0.1,3c0,0.5-0.1,1.1-0.1,1.6c0,0.7-0.2,1.5-0.3,2.2c-0.1,0.5-0.3,1.1-0.4,1.6c-0.2,0.6-0.4,1.2-0.6,1.8
			c-0.4,0.9-0.8,1.7-1.3,2.6c-0.1,0.2-0.2,0.5-0.4,0.7c-0.1,0.1-0.1,0.2-0.3,0.3c-0.2,0.1-0.4,0.3-0.5,0.4c-0.2,0.2-0.4,0.4-0.6,0.6
			c-0.5,0.4-0.9,0.8-1.3,1.2c-0.8,0.6-1.5,1.2-2.3,1.7c-0.6,0.3-1.1,0.6-1.7,0.9c-0.6,0.3-1.1,0.6-1.7,0.8c-1.3,0.5-2.5,0.9-3.8,1.1
			c-1,0.2-2,0.4-3,0.4c-1.2,0-2.4,0.1-3.6-0.1c-1-0.1-2.1-0.3-3.1-0.5c-1.8-0.4-3.4-1.1-5-1.9c-1.1-0.6-2.2-1.3-3.2-2.1
			c-0.6-0.5-1.3-1.1-1.9-1.7c-0.2-0.2-0.3-0.4-0.5-0.6c-0.6-0.7-1.2-1.4-1.7-2.1c-0.4-0.6-0.7-1.2-1.1-1.8c-0.7-1.3-1.2-2.6-1.6-4
			c-0.2-0.7-0.4-1.5-0.5-2.2c-0.1-0.7-0.2-1.3-0.2-2c0-0.2,0-0.4,0-0.6c-0.1-0.2-0.1-0.5,0-0.7c0.1-0.6,0-1.2,0.1-1.7
			c0.1-0.8,0.2-1.5,0.4-2.3c0.3-1.2,0.6-2.3,1.1-3.4c0.4-0.9,0.8-1.8,1.3-2.7c0.6-0.9,1.2-1.8,1.9-2.7c0.8-0.9,1.6-1.8,2.5-2.6
			c0.3-0.3,0.6-0.5,0.9-0.8c0.5-0.4,1-0.9,1.6-1.1C36.4,24,36.4,23.9,36.5,23.8z M52.1,52.4c0.1,0,0.2,0,0.2-0.1
			c0.3-0.3,0.7-0.6,1-1c0.1-0.1,0.2-0.2,0.4-0.2c0,0.1,0,0.2,0,0.3c0,0.8,0,1.6,0,2.4c0,0.3,0,0.3,0.3,0.3c0.4,0,0.8,0,1.2,0
			c0.3,0,0.4,0,0.4-0.4c0-0.5,0-1,0-1.5c0-0.2,0.1-0.3,0.2-0.2c0.3,0,0.7,0,1,0c0.3,0,0.3,0,0.3,0.3c0,0.5,0,1,0,1.5
			c0,0.3,0,0.3,0.3,0.3c0.4,0,0.8,0,1.2,0c0.3,0,0.3,0,0.3-0.3c0-0.9,0-1.9,0-2.8c0-0.7,0-1.5,0-2.2c0-0.3,0-0.3-0.3-0.3
			c-0.4,0-0.9,0-1.3,0c-0.3,0-0.3,0-0.3,0.3c0,0.5,0,0.9,0,1.4c0,0.2-0.1,0.3-0.2,0.3c-0.3,0-0.7,0-1,0c-0.3,0-0.3,0-0.3-0.3
			c0-0.4,0-0.9,0-1.3c0-0.1,0-0.3-0.1-0.3c0-0.2,0.1-0.4,0.1-0.5c0.4,0,0.4,0,0.4-0.5c0-0.5,0-1,0-1.5c0-0.3,0.2-0.4,0.4-0.3
			c0.1,0,0.1,0.2,0.2,0.2c0.3,0.6,0.6,1.2,0.9,1.7c0.1,0.2,0.2,0.2,0.4,0.2c0.3,0,0.7,0,1,0c0.1,0,0.2,0,0.3-0.1
			c-0.5-0.8-0.9-1.5-1.4-2.3c0.1,0,0.1-0.1,0.2-0.1c0,0,0.1,0,0.1-0.1c0.5-0.3,0.8-0.7,0.8-1.3c0-0.5-0.2-1-0.6-1.3
			c0-0.1-0.1-0.1-0.1-0.1l0,0c0.1-0.3,0.4-0.5,0.4-0.9c0.1,0,0.2-0.1,0.2-0.2c0-0.1,0-0.3,0-0.4c0.2,0,0.2-0.2,0.3-0.3
			c0.1-0.4,0.3-0.8,0.3-1.2c0.1-0.7,0.2-1.4,0.3-2.1c0-0.4,0-0.8,0-1.1c0-0.7-0.1-1.3-0.2-1.9c-0.1-0.5-0.3-1-0.4-1.6
			c0-0.2-0.1-0.3-0.2-0.5c-0.1-0.1-0.1-0.2-0.3-0.2c0,0,0,0,0,0c0.1-0.2,0-0.3,0-0.5c-0.2-0.4-0.4-0.8-0.6-1.2c-0.5-1-1.2-1.8-2-2.6
			c-0.7-0.7-1.4-1.4-2.2-1.9c-0.5-0.3-1-0.7-1.5-0.9c-0.2-0.1-0.4-0.1-0.6-0.2c-0.6-0.4-1.3-0.5-1.9-0.7c-0.5-0.2-1.1-0.3-1.6-0.4
			c-0.7-0.1-1.4-0.2-2.2-0.2c-0.9-0.1-1.8,0.1-2.7,0.2c-1,0.1-2,0.4-3,0.8c-0.9,0.3-1.7,0.8-2.5,1.3c-0.7,0.4-1.4,0.9-2,1.5
			c-0.8,0.8-1.6,1.6-2.2,2.5c-0.3,0.5-0.6,1-0.9,1.5c-0.2,0.3-0.3,0.6-0.4,1c0,0.3,0,0.5,0,0.8c-0.1,0-0.2,0.1-0.2,0.3
			c0,0.2-0.1,0.4-0.2,0.5c-0.1,0.1-0.2,0.3-0.1,0.4c0,0.1,0,0.1,0,0.2c-0.1,0.2-0.2,0.4-0.4,0.5c-0.1,0.1-0.2,0.2-0.3,0.3
			c-0.1,0.2-0.3,0.5-0.4,0.7c-0.6,1-1,2.1-1.3,3.2c-0.2,0.7-0.3,1.5-0.4,2.2c-0.1,0.9,0,1.7,0,2.6c0.1,0.9,0.3,1.8,0.6,2.7
			c0.1,0.3,0.3,0.6,0.4,0.9c0.2,0.7,0.6,1.3,1,2c0.3,0.6,0.8,1.1,1.2,1.6c0.2,0.2,0.4,0.6,0.8,0.6c0.2,0.2,0.2,0.4,0.2,0.7
			c0,0.6,0,1.1,0,1.7c0,0.2,0.1,0.2,0.2,0.2c0.4,0,0.7,0,1.1,0c0.5,0,0.5,0,0.5-0.5c0,0,0-0.1,0-0.1c0.1,0,0.2,0.1,0.3,0.1
			c0.8,0.5,1.7,0.9,2.6,1.3c0.8,0.3,1.6,0.5,2.5,0.7c0.5,0.1,0.9,0.2,1.4,0.2c0.8,0,1.6,0,2.4,0c0.2,0,0.3,0,0.5,0
			c1.1-0.2,2.1-0.4,3.1-0.7c0.7-0.2,1.4-0.5,2-0.9c0.2-0.1,0.3-0.2,0.5-0.2c0,0.2,0.1,0.2,0.3,0.2c0.4,0,0.9,0,1.3,0
			c0.3,0,0.3,0,0.3-0.3C52.1,53.4,52.1,52.9,52.1,52.4z"/>
		<path class="st23" d="M36.5,23.8c0,0.1-0.1,0.2-0.2,0.3c-0.6,0.3-1.1,0.7-1.6,1.1c-0.3,0.3-0.6,0.5-0.9,0.8
			c-0.9,0.8-1.7,1.7-2.5,2.6c-0.7,0.8-1.3,1.7-1.9,2.7c-0.5,0.8-0.9,1.7-1.3,2.7c-0.5,1.1-0.8,2.3-1.1,3.4c-0.2,0.7-0.2,1.5-0.4,2.3
			c-0.1,0.6,0,1.2-0.1,1.7c0,0.2,0,0.5,0,0.7c0,0.2,0.1,0.4,0,0.6c0,0.7,0.1,1.3,0.2,2c0.1,0.7,0.3,1.5,0.5,2.2
			c0.4,1.4,0.9,2.7,1.6,4c0.3,0.6,0.6,1.2,1.1,1.8c0.5,0.7,1.1,1.5,1.7,2.1c0.2,0.2,0.3,0.4,0.5,0.6c0.6,0.6,1.2,1.1,1.9,1.7
			c1,0.8,2,1.5,3.2,2.1c1.6,0.8,3.2,1.5,5,1.9c1,0.2,2,0.4,3.1,0.5c1.2,0.1,2.4,0.1,3.6,0.1c1,0,2-0.2,3-0.4
			c1.3-0.3,2.6-0.7,3.8-1.1c0.6-0.2,1.1-0.5,1.7-0.8c0.6-0.3,1.1-0.6,1.7-0.9c0.8-0.5,1.6-1.1,2.3-1.7c0.5-0.4,0.9-0.8,1.3-1.2
			c0.2-0.2,0.4-0.4,0.6-0.6c0.2-0.2,0.3-0.4,0.5-0.4c-0.2,0.5-0.6,1-1,1.4c-0.6,0.7-1.2,1.5-1.9,2.1c-1.2,1.2-2.5,2.2-4,3.1
			c-1.4,0.9-2.9,1.6-4.5,2.1c-1.1,0.4-2.2,0.6-3.4,0.8c-1.4,0.2-2.8,0.4-4.2,0.3c-0.7,0-1.3-0.1-2-0.2c-1-0.1-2.1-0.3-3.1-0.6
			c-1.7-0.4-3.4-1.1-5-1.9c-1.3-0.7-2.5-1.5-3.6-2.4c-0.9-0.7-1.7-1.5-2.4-2.4c-0.9-1-1.7-2.1-2.4-3.3c-0.5-0.9-1-1.8-1.3-2.8
			c-0.7-1.7-1.1-3.4-1.3-5.2c-0.1-1-0.2-2-0.1-3c0.1-1.3,0.2-2.5,0.5-3.7c0.4-1.8,1-3.4,1.8-5c0.7-1.3,1.4-2.5,2.4-3.7
			c0.5-0.6,1-1.1,1.5-1.6c0.5-0.5,1-1,1.5-1.4c1-0.8,2-1.5,3-2.1c0.5-0.3,1-0.6,1.6-0.8C36,24,36.2,23.8,36.5,23.8z"/>
		<path class="st24" d="M50.2,54c-0.2,0-0.3,0.1-0.5,0.2c-0.6,0.4-1.3,0.6-2,0.9c-1,0.4-2.1,0.6-3.1,0.7c-0.2,0-0.3,0-0.5,0
			c-0.8,0-1.6,0-2.4,0c-0.5,0-0.9-0.1-1.4-0.2c-0.8-0.1-1.7-0.4-2.5-0.7c-0.9-0.3-1.8-0.8-2.6-1.3c-0.1-0.1-0.2-0.1-0.3-0.1
			c-0.1-0.4,0-0.9,0-1.3c0-0.2,0.1-0.4,0.2-0.6c0.6-0.9,1.2-1.7,1.8-2.6c0.1-0.1,0.2-0.2,0.2-0.4c-0.4,0-0.8,0-1.1,0
			c-0.3,0-0.7-0.1-0.9,0c-0.3,0.2-0.3,0.6-0.5,0.8c-0.1,0.2-0.2,0.5-0.4,0.7C34,50.1,34,50,33.9,49.9c-0.2-0.3-0.4-0.7-0.5-1
			c-0.1-0.2-0.3-0.3-0.5-0.3c-0.5,0-1,0-1.6,0c-0.1,0-0.2,0-0.3,0.1c0.1,0.1,0.1,0.2,0.2,0.3c0.5,0.9,1.1,1.7,1.6,2.6
			c-0.4,0-0.5-0.4-0.8-0.6c-0.5-0.5-0.9-1-1.2-1.6c-0.4-0.6-0.8-1.3-1-2c-0.1-0.3-0.2-0.6-0.4-0.9c-0.3-0.9-0.5-1.8-0.6-2.7
			c-0.1-0.9-0.1-1.7,0-2.6c0.1-0.8,0.2-1.5,0.4-2.2c0.3-1.1,0.7-2.2,1.3-3.2c0.1-0.2,0.3-0.5,0.4-0.7c0.1-0.1,0.2-0.2,0.3-0.3
			c0.2-0.1,0.3-0.4,0.4-0.5c0-0.1,0-0.1,0-0.2c-0.1-0.2,0-0.3,0.1-0.4c0.1-0.1,0.2-0.3,0.2-0.5c0-0.1,0.1-0.2,0.2-0.3
			c0,0.1,0,0.1,0,0.2c0,1.6,0,3.3,0,4.9c0,1.2,0,2.4,0,3.6c0,0.3,0,0.3,0.3,0.3c0.5,0,1.1,0,1.6,0c0.4,0,0.4,0,0.4-0.4c0-1,0-2,0-3
			c0-0.1,0-0.2,0-0.3c0-0.1,0-0.1,0.1-0.1c0.2,0,0.4,0,0.6,0c0.1,0,0.2,0.2,0.2,0.3c0.6,1.1,1.2,2.2,1.8,3.2
			c0.1,0.2,0.2,0.3,0.5,0.3c0.7,0,1.4,0,2.1,0c0.1,0,0.2,0,0.3-0.1c-0.8-1.4-1.6-2.7-2.5-4.1c0.1-0.1,0.3-0.1,0.4-0.2
			c0.7-0.3,1.3-0.8,1.5-1.6c0.2-0.6,0.2-1.3-0.1-1.9c-0.3-0.8-0.8-1.3-1.6-1.6c-0.6-0.2-1.2-0.3-1.9-0.3c-0.6,0-1.2,0-1.9,0
			c0-0.2,0.1-0.3,0.2-0.5c0.3-0.2,0.5-0.4,0.8-0.5c0.8-0.5,1.6-0.9,2.5-1.2c1.4-0.5,2.8-0.8,4.3-0.9c1.3-0.1,2.7,0,4,0.3
			c0.9,0.2,1.7,0.5,2.6,0.8c1.3,0.5,2.4,1.3,3.5,2c0,0.2,0,0.3,0,0.5c0,2.9,0,5.8,0,8.7c0,0.1,0,0.2,0,0.3c0,0.2,0.1,0.2,0.2,0.2
			c0.1,0,0.2,0,0.3,0c1.9,0,3.8,0,5.6,0c0.2,0,0.3,0,0.5,0c-0.1,0.3-0.4,0.6-0.4,0.9c-0.5-0.2-1-0.3-1.5-0.3c-0.6,0-1.1,0-1.7,0
			c-0.4,0-0.4,0-0.4,0.4c0,1.2,0,2.4,0,3.6c0,0.4,0,0.8,0,1.3c-0.2,0-0.3,0-0.4,0.2c-0.3,0.3-0.7,0.5-1,0.8c-0.4,0.1-0.8,0-1.2,0
			c-1.1,0-2.2,0-3.2,0c-0.1,0-0.1,0-0.2,0c-0.5,0-1,0-1.5,0c-0.4,0-0.4,0-0.4,0.4c0,0.9,0,1.7,0,2.6c0,0.2,0,0.3,0,0.5
			c0,0.3-0.2,0.5-0.4,0.6c-0.5,0.2-0.9-0.1-1-0.6c0-0.1,0-0.3,0-0.4c0-0.9,0-1.8,0-2.7c0-0.3,0-0.3-0.3-0.3c-0.4,0-0.8,0-1.3,0
			c-0.3,0-0.3,0-0.3,0.3c0,1.1,0,2.2,0,3.3c0,1.1,0.7,1.9,1.7,2.1c0.4,0.1,0.8,0.1,1.2,0.1c1.4-0.1,2.3-1,2.3-2.4c0-0.6,0-1.1,0-1.7
			c0,0,0.1,0,0.1,0c0,0,0.1,0,0.1,0c0.3,0,0.7,0,1,0c0.3,0,0.3,0,0.3,0.3C50.2,51.7,50.2,52.8,50.2,54z M37.5,48
			c-0.3,0-0.5-0.4-0.8-0.4c0.2,0.3,0.5,0.5,0.8,0.7c0.2,0.1,0.5,0.2,0.6,0.5c-0.1,0-0.1,0.1-0.2,0.1c-1,0.7-1.4,1.6-1.2,2.8
			c0.1,1.1,0.7,2,1.8,2.4c0.7,0.3,1.5,0.3,2.2,0.1c1.4-0.3,2.2-1.5,2.2-2.9c0-1.4-0.9-2.5-2.3-2.8c-0.7-0.2-1.4-0.1-2.1,0.1
			c0-0.2-0.1-0.2-0.2-0.2c-0.3,0-0.5-0.1-0.6-0.4c0.2,0,0.5,0,0.7,0c0.4,0,0.4,0,0.4-0.4c0-0.4,0-0.9,0-1.3c0-0.4,0-0.4,0.4-0.4
			c0.4,0,0.8,0,1.2-0.1c1.1-0.3,1.5-1.1,1.3-2.2c-0.2-0.7-0.7-1.1-1.4-1.2c-0.9-0.1-1.7-0.1-2.6-0.1c-0.1,0-0.2,0.1-0.2,0.2
			c0,0.1,0,0.2,0,0.2c0,1.6,0,3.2,0,4.8C37.5,47.8,37.5,47.9,37.5,48z M36.3,47.3c0,0.1,0.1,0.2,0.2,0.2c0,0,0.1,0,0.1-0.1
			C36.6,47.3,36.4,47.3,36.3,47.3c0.3-0.5,0.4-1.1,0.4-1.6c0-0.9,0-1.9,0-2.8c0-0.1,0-0.2,0-0.2c0-0.2-0.1-0.3-0.2-0.2
			c-0.2,0-0.5,0-0.7,0c-0.4,0-0.4,0-0.4,0.4c0,0.9,0,1.9,0,2.8c0,0.2,0,0.3,0,0.5c-0.1,0.5-0.4,0.8-0.9,0.8c-0.6,0.1-1.1-0.3-1.2-1
			c0-0.2,0-0.4,0-0.6c0-0.9,0-1.8,0-2.6c0-0.3,0-0.3-0.3-0.3c-0.3,0-0.5,0-0.8,0c-0.2,0-0.3,0.1-0.3,0.2c0,1.2,0,2.3,0,3.5
			c0,1.1,0.8,1.8,1.8,2C34.7,48.3,35.6,48.1,36.3,47.3z M45.2,39.2c-0.5,0.5-1,0.9-1.4,1.4c-0.1,0.1-0.1,0.2,0,0.3
			c0.1,0.1,0.1,0.1,0.2,0.2c1.6,1.1,3.3,1.4,5.2,0.7c1.1-0.4,1.7-1.3,1.8-2.4c0.2-1.1-0.2-2-1.2-2.7c-0.3-0.2-0.5-0.3-0.8-0.4
			c-0.5-0.2-0.9-0.3-1.4-0.5c-0.3-0.1-0.5-0.2-0.7-0.3c-0.4-0.3-0.5-0.8-0.1-1.2c0.2-0.2,0.3-0.3,0.6-0.3c0.8-0.2,1.4,0,2,0.5
			c0.1,0.1,0.2,0.2,0.3,0.2c0.1-0.1,0.3-0.3,0.4-0.5c0.3-0.3,0.6-0.6,0.9-0.9c0.1-0.1,0.1-0.2,0-0.3c-0.1-0.1-0.1-0.1-0.2-0.2
			c-0.9-0.6-1.9-0.9-2.9-0.9c-0.9,0-1.8,0.2-2.6,0.8c-1.4,1-1.5,3.5,0,4.4c0.2,0.1,0.5,0.3,0.7,0.4c0.4,0.2,0.9,0.3,1.4,0.5
			c0.3,0.1,0.6,0.2,0.9,0.4c0.3,0.2,0.5,0.5,0.4,0.9c-0.1,0.4-0.3,0.7-0.7,0.8c-0.4,0.1-0.8,0.1-1.2,0
			C46.1,39.9,45.6,39.6,45.2,39.2z M47.9,45.2c0,0.2,0,0.5,0.1,0.7c0.3,1.3,1.2,2.1,2.6,2.2c1.7,0.2,3.3-0.8,3.5-2.8
			c0.1-1.5-0.8-2.6-2.2-3c-0.4-0.1-0.9-0.1-1.4-0.1C49,42.5,48,43.6,47.9,45.2z M43.1,38.4c0-1,0-2.1,0-3.1c0-0.3,0-0.3-0.3-0.3
			c-0.6,0-1.1,0-1.7,0c-0.2,0-0.3,0.1-0.3,0.3c0,0.3,0,0.7,0,1c0,1.7,0,3.5,0,5.2c0,0.4,0,0.4,0.4,0.4c0.5,0,1,0,1.5,0
			c0.4,0,0.4,0,0.4-0.4C43.1,40.4,43.1,39.4,43.1,38.4z M43.9,45.2c0,0.5,0,0.9,0,1.4c0,0.4,0,0.8,0,1.2c0,0.2,0.1,0.2,0.2,0.2
			c0.3,0,0.5,0,0.8,0c0.3,0,0.3,0,0.3-0.3c0-0.5,0-1,0-1.6c0-0.3,0-0.3,0.3-0.3c0.1,0,0.2,0,0.2,0c0.5,0,0.9,0,1.4,0
			c0.2,0,0.2-0.1,0.2-0.2c0-0.2,0-0.4,0-0.6c0-0.3,0-0.3-0.3-0.3c-0.5,0-1,0-1.6,0c-0.2,0-0.3-0.1-0.3-0.3c0-0.2,0-0.4,0-0.6
			c0-0.2,0-0.3,0.2-0.3c0.1,0,0.2,0,0.3,0c0.5,0,1,0,1.6,0c0.2,0,0.3-0.1,0.2-0.2c0-0.2,0-0.4,0-0.6c0-0.3,0-0.3-0.3-0.3
			c-1,0-2,0-3.1,0c-0.3,0-0.3,0-0.3,0.3C43.9,43.6,43.9,44.4,43.9,45.2z M41.9,34c0.7,0,1.3-0.5,1.3-1.2c0-0.7-0.6-1.3-1.3-1.2
			c-0.7,0-1.3,0.5-1.3,1.2C40.6,33.5,41.2,34,41.9,34z"/>
		<path class="st21" d="M52,32.1c-1.1-0.8-2.2-1.5-3.5-2c-0.8-0.3-1.7-0.6-2.6-0.8c-1.3-0.3-2.6-0.4-4-0.3c-1.5,0.1-2.9,0.4-4.3,0.9
			c-0.9,0.3-1.7,0.8-2.5,1.2c-0.3,0.2-0.5,0.3-0.8,0.5c-0.2,0.1-0.2,0.3-0.2,0.5c-0.1,0-0.1,0-0.2,0c-0.1-0.1-0.1-0.1-0.2,0
			c-0.5,0-1.1,0-1.6,0c0-0.4,0.2-0.7,0.4-1c0.3-0.5,0.5-1,0.9-1.5c0.6-0.9,1.4-1.8,2.2-2.5c0.6-0.6,1.3-1.1,2-1.5
			c0.8-0.5,1.6-1,2.5-1.3c1-0.3,2-0.6,3-0.8c0.9-0.1,1.8-0.3,2.7-0.2c0.7,0.1,1.4,0.1,2.2,0.2c0.6,0.1,1.1,0.2,1.6,0.4
			c0.6,0.2,1.3,0.4,1.9,0.7c0.2,0.1,0.4,0.2,0.6,0.2c0.5,0.3,1,0.6,1.5,0.9c0.8,0.5,1.6,1.2,2.2,1.9c0.8,0.8,1.4,1.6,2,2.6
			c0.2,0.4,0.4,0.8,0.6,1.2c0.1,0.2,0.1,0.3,0,0.5c-0.1-0.1-0.3,0-0.4,0c-1.9,0-3.9,0-5.8,0C52.3,32.1,52.2,32.1,52,32.1z"/>
		<path class="st2" d="M34,32.1c0.1,0,0.1,0,0.2,0c0.6,0,1.2,0,1.9,0c0.6,0,1.3,0.1,1.9,0.3c0.7,0.3,1.3,0.8,1.6,1.6
			c0.2,0.6,0.2,1.3,0.1,1.9c-0.2,0.8-0.8,1.3-1.5,1.6c-0.1,0.1-0.2,0.1-0.4,0.2c0.8,1.3,1.6,2.7,2.5,4.1c-0.1,0.1-0.2,0.1-0.3,0.1
			c-0.7,0-1.4,0-2.1,0c-0.2,0-0.4-0.1-0.5-0.3c-0.6-1.1-1.2-2.2-1.8-3.2c-0.1-0.1-0.1-0.3-0.2-0.3c-0.2,0-0.4,0-0.6,0
			c-0.1,0-0.1,0.1-0.1,0.1c0,0.1,0,0.2,0,0.3c0,1,0,2,0,3c0,0.4,0,0.4-0.4,0.4c-0.5,0-1.1,0-1.6,0c-0.3,0-0.3,0-0.3-0.3
			c0-1.2,0-2.4,0-3.6c0-1.6,0-3.3,0-4.9c0-0.1,0-0.1,0-0.2c0-0.3,0-0.5,0-0.8c0.5,0,1.1,0,1.6,0C33.9,32.1,34,32.1,34,32.1z
			 M34.6,35.1c0,0.3,0,0.6,0,0.9c0,0.2,0.1,0.3,0.3,0.3c0.4,0,0.8,0,1.3,0c0.2,0,0.5-0.1,0.7-0.2c0.5-0.2,0.7-0.6,0.7-1.1
			c0-0.4-0.3-0.8-0.7-0.9c-0.1,0-0.3-0.1-0.4-0.1c-0.5,0-1,0-1.4,0c-0.2,0-0.2,0.1-0.2,0.3C34.6,34.5,34.6,34.8,34.6,35.1z"/>
		<path class="st2" d="M52,32.1c0.1-0.1,0.3,0,0.4,0c1.9,0,3.9,0,5.8,0c0.1,0,0.3,0,0.4,0c0,0,0,0,0,0c0,0.1,0,0.3,0,0.4
			c0,0.4,0,0.7,0,1.1c0,0.4,0,0.4-0.4,0.4c-0.1,0-0.2,0-0.3,0c-1.1,0-2.1,0-3.2,0c-0.2,0-0.3,0-0.3,0.2c0,0.5,0,0.9,0,1.4
			c0,0.2,0.1,0.2,0.2,0.2c0.1,0,0.2,0,0.3,0c1.1,0,2.2,0,3.2,0c0.3,0,0.3,0,0.3,0.3c0,0.4,0,0.8,0,1.3c0,0.3,0,0.3-0.3,0.3
			c-0.6,0-1.3,0-1.9,0c-0.5,0-1,0-1.6,0c-0.2,0-0.3,0-0.3,0.2c0,0.5,0,1,0,1.6c0,0.2,0.1,0.2,0.2,0.2c0.7,0,1.4,0,2.1,0
			c0.6,0,1.3,0,1.9,0c0.2,0,0.3,0.1,0.3,0.3c0,0.4,0,0.7,0,1.1c0,0.1,0,0.3,0,0.4c0,0.2-0.1,0.2-0.2,0.2c-0.2,0-0.3,0-0.5,0
			c-1.9,0-3.8,0-5.6,0c-0.1,0-0.2,0-0.3,0c-0.2,0-0.2-0.1-0.2-0.2c0-0.1,0-0.2,0-0.3c0-2.9,0-5.8,0-8.7C52.1,32.4,52,32.3,52,32.1z"
			/>
		<path class="st2" d="M55.5,48.6c0.2,0.1,0.1,0.2,0.1,0.3c0,0.4,0,0.9,0,1.3c0,0.3,0,0.3,0.3,0.3c0.3,0,0.7,0,1,0
			c0.2,0,0.2-0.1,0.2-0.3c0-0.5,0-0.9,0-1.4c0-0.3,0-0.3,0.3-0.3c0.4,0,0.9,0,1.3,0c0.3,0,0.3,0,0.3,0.3c0,0.7,0,1.5,0,2.2
			c0,0.9,0,1.9,0,2.8c0,0.3,0,0.3-0.3,0.3c-0.4,0-0.8,0-1.2,0c-0.3,0-0.3,0-0.3-0.3c0-0.5,0-1,0-1.5c0-0.3,0-0.3-0.3-0.3
			c-0.3,0-0.7,0-1,0c-0.2,0-0.2,0.1-0.2,0.2c0,0.5,0,1,0,1.5c0,0.4,0,0.4-0.4,0.4c-0.4,0-0.8,0-1.2,0c-0.3,0-0.3,0-0.3-0.3
			c0-0.8,0-1.6,0-2.4c0-0.1,0-0.2,0-0.3c0-0.7,0-1.4,0-2.2c0-0.4,0-0.4,0.4-0.4C54.5,48.6,55,48.7,55.5,48.6z"/>
		<path class="st21" d="M58.9,41.2c0-0.4,0-0.7,0-1.1c0-0.2-0.1-0.3-0.3-0.3c-0.6,0-1.3,0-1.9,0c-0.1-0.7-0.4-1.3-0.5-2
			c0.6,0,1.3,0,1.9,0c0.3,0,0.3,0,0.3-0.3c0-0.4,0-0.8,0-1.3c0-0.3,0-0.3-0.3-0.3c-1.1,0-2.2,0-3.2,0c-0.1,0-0.2,0-0.3,0
			c-0.2,0-0.2,0-0.2-0.2c0-0.5,0-0.9,0-1.4c0-0.2,0.2-0.2,0.3-0.2c1.1,0,2.1,0,3.2,0c0.1,0,0.2,0,0.3,0c0.4,0,0.4,0,0.4-0.4
			c0-0.4,0-0.7,0-1.1c0-0.1,0-0.3,0-0.4c0.1,0,0.2,0.1,0.3,0.2c0.1,0.2,0.1,0.3,0.2,0.5c0.1,0.5,0.3,1,0.4,1.6
			c0.1,0.6,0.3,1.3,0.2,1.9c0,0.4,0,0.8,0,1.1c0,0.7-0.1,1.4-0.3,2.1c-0.1,0.4-0.2,0.8-0.3,1.2C59.1,41,59.1,41.1,58.9,41.2z"/>
		<path class="st2" d="M54.6,47.7c0-0.4,0-0.8,0-1.3c0-1.2,0-2.4,0-3.6c0-0.4,0-0.4,0.4-0.4c0.6,0,1.1,0,1.7,0c0.5,0,1,0.1,1.5,0.3
			l0,0c0,0,0.1,0.1,0.1,0.1c0.4,0.4,0.6,0.8,0.6,1.3c0,0.6-0.3,1-0.8,1.3c0,0-0.1,0-0.1,0.1c0,0-0.1,0-0.2,0.1
			c0.5,0.8,0.9,1.5,1.4,2.3C59.1,48.1,59,48,58.9,48c-0.3,0-0.7,0-1,0c-0.2,0-0.3-0.1-0.4-0.2c-0.3-0.6-0.6-1.2-0.9-1.7
			c0-0.1-0.1-0.2-0.2-0.2c-0.2-0.1-0.4,0-0.4,0.3c0,0.5,0,1,0,1.5c0,0.4,0,0.4-0.4,0.5c-0.2,0-0.4,0-0.7,0c-0.1,0-0.2,0-0.2-0.2
			C54.6,47.8,54.6,47.7,54.6,47.7z M56,44.2c0,0.2,0,0.3,0,0.5c0,0.1,0,0.2,0.1,0.2c0.4,0,0.8,0,1.1-0.1c0.3-0.1,0.4-0.3,0.4-0.6
			c0-0.3-0.2-0.4-0.4-0.5c-0.2-0.1-0.3-0.1-0.5-0.1C56,43.5,56,43.5,56,44.2z"/>
		<path class="st2" d="M32.9,51.6c-0.5-0.9-1.1-1.7-1.6-2.6c-0.1-0.1-0.1-0.2-0.2-0.3c0.1-0.1,0.2-0.1,0.3-0.1c0.5,0,1,0,1.6,0
			c0.2,0,0.4,0.1,0.5,0.3c0.2,0.3,0.4,0.7,0.5,1c0,0.1,0.1,0.2,0.2,0.3c0.2-0.2,0.3-0.5,0.4-0.7c0.2-0.3,0.2-0.7,0.5-0.8
			c0.3-0.2,0.6,0,0.9,0c0.4,0,0.8,0,1.1,0c0,0.2-0.1,0.3-0.2,0.4c-0.6,0.9-1.2,1.8-1.8,2.6C35,51.8,35,52,35,52.3c0,0.4,0,0.9,0,1.3
			c0,0,0,0.1,0,0.1c0,0.5,0,0.5-0.5,0.5c-0.4,0-0.7,0-1.1,0c-0.2,0-0.2-0.1-0.2-0.2c0-0.6,0-1.1,0-1.7C33.1,52,33.1,51.8,32.9,51.6z
			"/>
		<path class="st2" d="M48.8,48.6c1.1,0,2.2,0,3.2,0c0.4,0,0.8,0,1.2,0c0.1,0,0.2,0.1,0.2,0.2c0,0.4,0,0.7,0,1.1
			c0,0.2-0.1,0.3-0.3,0.3c-0.3,0-0.6,0-0.9,0c-0.1,0-0.2,0.1-0.2,0.2c0,0.7,0,1.3,0,2c0,0.5,0,1,0,1.5c0,0.3,0,0.3-0.3,0.3
			c-0.4,0-0.9,0-1.3,0c-0.2,0-0.3-0.1-0.3-0.2c0-1.2,0-2.3,0-3.5c0-0.3,0-0.3-0.3-0.3c-0.3,0-0.7,0-1,0c0,0,0,0-0.1-0.1
			C48.8,49.7,48.8,49.2,48.8,48.6z"/>
		<path class="st12" d="M52.1,52.4c0-0.7,0-1.3,0-2c0-0.1,0.1-0.2,0.2-0.2c0.3,0,0.6,0,0.9,0c0.2,0,0.3-0.1,0.3-0.3
			c0-0.4,0-0.7,0-1.1c0-0.1,0-0.2-0.2-0.2c0.3-0.3,0.7-0.5,1-0.8c0.1-0.1,0.3-0.2,0.4-0.2c0,0.1,0,0.1,0,0.2c0,0.1,0.1,0.2,0.2,0.2
			c0.2,0,0.4,0,0.7,0c0,0.2-0.1,0.4-0.1,0.5c-0.5,0.1-0.9,0-1.4,0c-0.4,0-0.4,0-0.4,0.4c0,0.7,0,1.4,0,2.2c-0.2,0-0.3,0-0.4,0.2
			c-0.3,0.4-0.7,0.6-1,1C52.2,52.4,52.1,52.4,52.1,52.4z"/>
		<path class="st24" d="M58.4,42.8c-0.1,0-0.1,0-0.1-0.1C58.3,42.7,58.3,42.8,58.4,42.8z"/>
		<path class="st2" d="M45.2,39.2c0.4,0.4,0.9,0.8,1.5,0.9c0.4,0.1,0.8,0.1,1.2,0c0.4-0.1,0.6-0.4,0.7-0.8c0.1-0.4-0.1-0.7-0.4-0.9
			c-0.3-0.2-0.6-0.3-0.9-0.4c-0.5-0.2-0.9-0.3-1.4-0.5c-0.2-0.1-0.5-0.2-0.7-0.4c-1.5-1-1.5-3.4,0-4.4c0.8-0.6,1.6-0.8,2.6-0.8
			c1.1,0,2.1,0.3,2.9,0.9c0.1,0.1,0.1,0.1,0.2,0.2c0.1,0.1,0.1,0.2,0,0.3c-0.3,0.3-0.6,0.6-0.9,0.9c-0.1,0.2-0.3,0.3-0.4,0.5
			c-0.2,0-0.2-0.2-0.3-0.2c-0.6-0.5-1.3-0.7-2-0.5c-0.2,0.1-0.4,0.2-0.6,0.3c-0.3,0.4-0.3,0.9,0.1,1.2c0.2,0.2,0.5,0.3,0.7,0.3
			c0.5,0.2,0.9,0.3,1.4,0.5c0.3,0.1,0.6,0.2,0.8,0.4c1,0.6,1.4,1.5,1.2,2.7c-0.2,1.1-0.8,2-1.8,2.4c-1.8,0.7-3.6,0.4-5.2-0.7
			c-0.1-0.1-0.2-0.1-0.2-0.2c-0.1-0.1-0.1-0.2,0-0.3C44.3,40.1,44.7,39.6,45.2,39.2z"/>
		<path class="st2" d="M38.6,48.6c0.7-0.2,1.4-0.2,2.1-0.1c1.4,0.3,2.2,1.4,2.3,2.8c0,1.4-0.8,2.6-2.2,2.9c-0.7,0.2-1.5,0.2-2.2-0.1
			c-1.1-0.4-1.7-1.2-1.8-2.4C36.6,50.6,37,49.6,38,49c0.1,0,0.1-0.1,0.2-0.1C38.3,48.8,38.4,48.7,38.6,48.6z M40.9,51.3
			c0,0,0-0.1,0-0.2c-0.1-0.5-0.5-0.8-1-0.9c-0.4-0.1-0.9,0.2-1.1,0.6c-0.2,0.5-0.2,0.9,0.1,1.4c0.4,0.6,1.3,0.7,1.7,0.1
			C40.8,52,40.9,51.7,40.9,51.3z"/>
		<path class="st2" d="M48.6,50.2c0,0.6,0,1.1,0,1.7c0,1.4-0.9,2.3-2.3,2.4c-0.4,0-0.8,0-1.2-0.1c-1.1-0.3-1.7-1-1.7-2.1
			c0-1.1,0-2.2,0-3.3c0-0.3,0-0.3,0.3-0.3c0.4,0,0.8,0,1.3,0c0.3,0,0.3,0,0.3,0.3c0,0.9,0,1.8,0,2.7c0,0.1,0,0.3,0,0.4
			c0.1,0.5,0.5,0.8,1,0.6c0.3-0.1,0.4-0.3,0.4-0.6c0-0.2,0-0.3,0-0.5c0-0.9,0-1.7,0-2.6c0-0.3,0-0.4,0.4-0.4c0.5,0,1,0,1.5,0
			C48.6,49.2,48.6,49.7,48.6,50.2z"/>
		<path class="st2" d="M47.9,45.2c0-1.6,1-2.7,2.6-2.9c0.5-0.1,0.9,0,1.4,0.1c1.4,0.4,2.3,1.5,2.2,3c-0.1,2-1.7,3-3.5,2.8
			c-1.4-0.2-2.3-1-2.6-2.2C48,45.7,48,45.4,47.9,45.2z M49.4,45.3c0,0.1,0,0.2,0,0.3c0.1,0.9,0.9,1.5,1.8,1.3
			c0.7-0.1,1.2-0.6,1.4-1.3c0.1-0.9-0.2-1.6-0.9-1.9C50.7,43.2,49.4,43.8,49.4,45.3z"/>
		<path class="st2" d="M36.3,47.3c-0.7,0.8-1.6,1-2.6,0.8c-1.1-0.2-1.8-0.9-1.8-2c0-1.2,0-2.3,0-3.5c0-0.2,0.1-0.2,0.3-0.2
			c0.3,0,0.5,0,0.8,0c0.3,0,0.3,0,0.3,0.3c0,0.9,0,1.8,0,2.6c0,0.2,0,0.4,0,0.6c0.1,0.7,0.5,1,1.2,1c0.5-0.1,0.8-0.3,0.9-0.8
			c0-0.2,0-0.3,0-0.5c0-0.9,0-1.9,0-2.8c0-0.4,0-0.4,0.4-0.4c0.2,0,0.5,0,0.7,0c0.2,0,0.3,0.1,0.2,0.2c0,0.1,0,0.2,0,0.2
			c0,0.9,0,1.9,0,2.8C36.7,46.2,36.6,46.8,36.3,47.3C36.3,47.3,36.3,47.3,36.3,47.3z"/>
		<path class="st2" d="M43.1,38.4c0,1,0,2.1,0,3.1c0,0.4,0,0.4-0.4,0.4c-0.5,0-1,0-1.5,0c-0.4,0-0.4,0-0.4-0.4c0-1.7,0-3.5,0-5.2
			c0-0.3,0-0.7,0-1c0-0.2,0.1-0.3,0.3-0.3c0.6,0,1.1,0,1.7,0c0.3,0,0.3,0,0.3,0.3C43.1,36.3,43.1,37.3,43.1,38.4z"/>
		<path class="st2" d="M37.5,48c0-0.1,0-0.3,0-0.4c0-1.6,0-3.2,0-4.8c0-0.1,0-0.2,0-0.2c0-0.1,0.1-0.2,0.2-0.2
			c0.9,0,1.7-0.1,2.6,0.1c0.7,0.1,1.2,0.4,1.4,1.2c0.2,1.1-0.2,1.9-1.3,2.2c-0.4,0.1-0.8,0.1-1.2,0.1c-0.3,0-0.4,0-0.4,0.4
			c0,0.4,0,0.9,0,1.3c0,0.4,0,0.4-0.4,0.4c-0.2,0-0.5,0-0.7,0C37.7,48,37.6,48,37.5,48z M38.9,44.2c0,0.2,0,0.3,0,0.5
			c0,0.1,0,0.2,0.1,0.2c0.3,0,0.7,0,1-0.1c0.3-0.1,0.4-0.3,0.4-0.6c0-0.3-0.1-0.5-0.4-0.6c-0.1,0-0.3-0.1-0.4-0.1
			C38.7,43.5,38.9,43.4,38.9,44.2z"/>
		<path class="st2" d="M43.9,45.2c0-0.8,0-1.7,0-2.5c0-0.3,0-0.3,0.3-0.3c1,0,2,0,3.1,0c0.3,0,0.3,0,0.3,0.3c0,0.2,0,0.4,0,0.6
			c0,0.2-0.1,0.2-0.2,0.2c-0.5,0-1,0-1.6,0c-0.1,0-0.2,0-0.3,0c-0.2,0-0.2,0.1-0.2,0.3c0,0.2,0,0.4,0,0.6c0,0.2,0.1,0.3,0.3,0.3
			c0.5,0,1,0,1.6,0c0.3,0,0.3,0,0.3,0.3c0,0.2,0,0.4,0,0.6c0,0.2-0.1,0.2-0.2,0.2c-0.5,0-0.9,0-1.4,0c-0.1,0-0.2,0-0.2,0
			c-0.3,0-0.3,0-0.3,0.3c0,0.5,0,1,0,1.6c0,0.3,0,0.3-0.3,0.3c-0.3,0-0.5,0-0.8,0c-0.2,0-0.2-0.1-0.2-0.2c0-0.4,0-0.8,0-1.2
			C43.9,46.1,43.9,45.7,43.9,45.2z"/>
		<path class="st2" d="M41.9,34c-0.7,0-1.3-0.5-1.3-1.2c0-0.7,0.6-1.2,1.3-1.2c0.7,0,1.3,0.5,1.3,1.2C43.2,33.5,42.6,34,41.9,34z"/>
		<path class="st22" d="M37.5,48c0.1,0,0.2,0,0.2,0c0.1,0.3,0.3,0.4,0.6,0.4c0.1,0,0.2,0,0.2,0.2c-0.1,0.1-0.3,0.1-0.4,0.2
			c-0.1-0.3-0.4-0.4-0.6-0.5c-0.3-0.2-0.6-0.4-0.8-0.7C37.1,47.7,37.2,48,37.5,48z"/>
		<path class="st22" d="M48.6,50.2c0-0.5,0-1.1,0-1.6c0.1,0,0.1,0,0.2,0c0,0.5,0,1,0,1.5c0,0,0,0,0,0.1
			C48.7,50.2,48.7,50.2,48.6,50.2z"/>
		<path class="st22" d="M36.3,47.3C36.3,47.3,36.3,47.3,36.3,47.3c0.1,0,0.3,0,0.3,0.2c0,0,0,0.1-0.1,0.1
			C36.3,47.5,36.3,47.4,36.3,47.3z"/>
		<path class="st12" d="M48.7,50.2C48.8,50.2,48.8,50.2,48.7,50.2c0.1,0,0.1,0,0.1,0C48.8,50.2,48.8,50.2,48.7,50.2z"/>
		<path class="st24" d="M34,32.1c-0.1,0-0.1,0-0.2,0C33.9,32,34,32,34,32.1z"/>
		<path class="st24" d="M34.6,35.1c0-0.3,0-0.6,0-0.9c0-0.2,0-0.3,0.2-0.3c0.5,0,1,0,1.4,0c0.1,0,0.3,0,0.4,0.1
			c0.5,0.1,0.7,0.4,0.7,0.9c0,0.5-0.2,0.9-0.7,1.1c-0.2,0.1-0.4,0.1-0.7,0.2c-0.4,0-0.8,0-1.3,0c-0.2,0-0.3-0.1-0.3-0.3
			C34.6,35.7,34.6,35.4,34.6,35.1z"/>
		<path class="st24" d="M56.1,37.8c0.2,0.7,0.4,1.3,0.5,2c-0.7,0-1.4,0-2.1,0c-0.2,0-0.2-0.1-0.2-0.2c0-0.5,0-1,0-1.6
			c0-0.2,0.1-0.2,0.3-0.2C55.1,37.8,55.6,37.8,56.1,37.8z"/>
		<path class="st24" d="M56,44.2c0-0.7,0-0.7,0.7-0.6c0.2,0,0.4,0,0.5,0.1c0.3,0.1,0.4,0.3,0.4,0.5c0,0.3-0.1,0.5-0.4,0.6
			c-0.4,0.2-0.7,0.1-1.1,0.1c-0.1,0-0.1-0.1-0.1-0.2C56,44.5,56,44.3,56,44.2z"/>
		<path class="st24" d="M40.9,51.3c0,0.4-0.1,0.7-0.2,0.9c-0.4,0.6-1.4,0.6-1.7-0.1c-0.3-0.4-0.3-0.9-0.1-1.4
			c0.2-0.4,0.6-0.6,1.1-0.6c0.5,0.1,0.9,0.4,1,0.9C40.9,51.2,40.9,51.3,40.9,51.3z"/>
		<path class="st24" d="M49.4,45.3c0-1.5,1.3-2.1,2.3-1.6c0.7,0.3,1,1.1,0.9,1.9c-0.1,0.7-0.6,1.2-1.4,1.3c-0.9,0.1-1.6-0.5-1.8-1.3
			C49.4,45.5,49.4,45.3,49.4,45.3z"/>
		<path class="st24" d="M38.9,44.2c0-0.8-0.1-0.7,0.7-0.7c0.1,0,0.3,0,0.4,0.1c0.3,0.1,0.4,0.3,0.4,0.6c0,0.3-0.1,0.5-0.4,0.6
			c-0.3,0.1-0.7,0.1-1,0.1c-0.1,0-0.1-0.1-0.1-0.2C38.9,44.5,38.9,44.3,38.9,44.2z"/>
	</g>
</g>
<g id="UNCF" class="st0">
	<g class="st1">
		<defs>
			<rect id="SVGID_11_" x="185.1" y="64.4" width="134.9" height="87.8"/>
		</defs>
		<clipPath id="SVGID_12_">
			<use xlink:href="#SVGID_11_"  style="overflow:visible;"/>
		</clipPath>
		<g transform="matrix(1 0 0 1 0 0)" style="clip-path:url(#SVGID_12_);">
			
				<image style="overflow:visible;" width="640" height="417" xlink:href="797FC064BAC46FD7.png"  transform="matrix(0.2108 0 0 0.2106 185.094 64.4003)">
			</image>
		</g>
	</g>
</g>
</svg>
