<?xml version="1.0" encoding="utf-8"?>
<!-- Generator: Adobe Illustrator 19.1.0, SVG Export Plug-In . SVG Version: 6.00 Build 0)  -->
<!DOCTYPE svg PUBLIC "-//W3C//DTD SVG 1.1//EN" "http://www.w3.org/Graphics/SVG/1.1/DTD/svg11.dtd">
<svg version="1.1" xmlns="http://www.w3.org/2000/svg" xmlns:xlink="http://www.w3.org/1999/xlink" x="0px" y="0px"
	 viewBox="0 0 134.1 17.8" style="enable-background:new 0 0 134.1 17.8;" xml:space="preserve">
<style type="text/css">
	.st0{fill:#231F20;}
	.st1{fill-rule:evenodd;clip-rule:evenodd;fill:#231F20;}
	.st2{fill-rule:evenodd;clip-rule:evenodd;fill:#0099D8;}
	.st3{display:none;}
	.st4{display:inline;}
	.st5{fill-rule:evenodd;clip-rule:evenodd;}
	.st6{fill:#0099D8;}
	.st7{fill:none;}
</style>
<g id="heat_transfer">
	<g>
		<g>
			<path class="st0" d="M32.2,3.6h0.5l1.6-2.4h2.1l-2.2,3.1l2.4,3.2h-2.1l-1.8-2.5h-0.5v2.5h-1.7V1.2h1.7V3.6z"/>
			<path class="st0" d="M36.7,5.3V3.5c0-2,1.2-2.3,2.9-2.3c1.7,0,2.9,0.4,2.9,2.3v1.8c0,2-1.2,2.3-2.9,2.3
				C37.9,7.6,36.7,7.3,36.7,5.3z M40.8,5.1V3.7c0-0.9-0.3-1-1.2-1c-0.9,0-1.2,0.1-1.2,1v1.4c0,1,0.3,1,1.2,1
				C40.5,6.2,40.8,6.1,40.8,5.1z"/>
			<path class="st0" d="M48.8,5.2v0.2c0,0.7,0,1.3-0.6,1.8c-0.6,0.5-1.3,0.5-2,0.5c-1.7,0-3-0.1-3-2.4V3.6c0-2.1,1.1-2.4,3-2.4
				c1.8,0,2.6,0.2,2.6,2.1v0.2H47V3.3c-0.1-0.6-0.5-0.6-1-0.6c-1,0-1.1,0.3-1.1,1.2v1c0,1,0,1.3,1.1,1.3c0.7,0,1-0.1,1-0.8V5.2H48.8
				z"/>
			<path class="st0" d="M55.2,7.6h-1.7V5.1h-2.2v2.5h-1.7V1.2h1.7v2.4h2.2V1.2h1.7V7.6z"/>
			<path class="st0" d="M65,7.6h-1.7V5.1H61v2.5h-1.7V1.2H61v2.4h2.2V1.2H65V7.6z"/>
			<path class="st0" d="M67.7,3.8h2.7V5h-2.7v1.2h3v1.4H66V1.2h4.6v1.4h-2.9V3.8z"/>
		</g>
		<g>
			<path class="st0" d="M73.2,6.5l-0.3,1.1h-1.8l1.9-6.4h2.6l1.9,6.4h-1.7l-0.3-1.1H73.2z M74.4,2.5L74.4,2.5l-0.8,2.8h1.6L74.4,2.5
				z"/>
			<path class="st0" d="M80.6,7.6h-1.7V2.7h-1.6V1.2h5v1.5h-1.7V7.6z"/>
		</g>
		<g>
			<path class="st0" d="M88.7,7.6H87V2.7h-1.6V1.2h5v1.5h-1.7V7.6z"/>
			<path class="st0" d="M90.9,1.2h3.3c1.5,0,2.2,0.3,2.2,1.9c0,1.1,0,1.7-1.2,2v0.1c0.7,0,1.1,0.4,1.1,1.1v1.3h-1.7V6.7
				c0-0.5-0.2-0.8-0.7-0.8h-1.3v1.7h-1.7V1.2z M93.9,4.4c0.7,0,0.7-0.3,0.7-1c0-0.6-0.1-0.7-0.7-0.7h-1.3v1.7H93.9z"/>
			<path class="st0" d="M98.7,6.5l-0.3,1.1h-1.8l1.9-6.4h2.6l1.9,6.4h-1.7L101,6.5H98.7z M99.9,2.5L99.9,2.5l-0.8,2.8h1.6L99.9,2.5z
				"/>
			<path class="st0" d="M105.2,7.6h-1.7V1.2h2.9l1.8,4.9h0.1l-0.1-4.9h1.7v6.4h-2.9l-1.8-4.9h-0.1L105.2,7.6z"/>
			<path class="st0" d="M113.8,3.7c1.9,0.1,2.4,0.4,2.4,1.8c0,1.1,0,2.1-2.8,2.1c-1.6,0-2.7,0-2.7-2.1h1.6c0,0.7,0.2,0.7,1.1,0.7
				c0.8,0,1.1-0.1,1.1-0.6c0-0.6-0.1-0.5-0.9-0.6l-0.4,0c-1.6-0.1-2.5-0.1-2.5-1.9s1-1.9,2.7-1.9c1.4,0,2.6,0,2.6,1.8v0.3h-1.6
				c0-0.7-0.3-0.7-1-0.7c-0.9,0-1,0.2-1,0.5c0,0.5,0.2,0.5,0.7,0.6L113.8,3.7z"/>
			<path class="st0" d="M118.6,3.9h2.6v1.4h-2.6v2.3h-1.7V1.2h4.5v1.4h-2.8V3.9z"/>
			<path class="st0" d="M123.9,3.8h2.7V5h-2.7v1.2h3v1.4h-4.7V1.2h4.6v1.4h-2.9V3.8z"/>
			<path class="st0" d="M127.9,1.2h3.3c1.5,0,2.2,0.3,2.2,1.9c0,1.1,0,1.7-1.2,2v0.1c0.7,0,1.1,0.4,1.1,1.1v1.3h-1.7V6.7
				c0-0.5-0.2-0.8-0.7-0.8h-1.3v1.7h-1.7V1.2z M130.9,4.4c0.7,0,0.7-0.3,0.7-1c0-0.6-0.1-0.7-0.7-0.7h-1.3v1.7H130.9z"/>
		</g>
		<g>
			<path class="st0" d="M35.9,14.4v0.2c0,0.7,0,1.3-0.6,1.8c-0.6,0.5-1.3,0.5-2,0.5c-1.7,0-3-0.1-3-2.4v-1.6c0-2.1,1.1-2.4,3-2.4
				c1.8,0,2.6,0.2,2.6,2.1v0.2h-1.8v-0.2c-0.1-0.6-0.5-0.6-1-0.6c-1,0-1.1,0.3-1.1,1.2v1c0,1,0,1.3,1.1,1.3c0.7,0,1-0.1,1-0.8v-0.2
				H35.9z"/>
			<path class="st0" d="M36.5,14.5v-1.8c0-2,1.2-2.3,2.9-2.3c1.7,0,2.9,0.4,2.9,2.3v1.8c0,2-1.2,2.3-2.9,2.3
				C37.7,16.8,36.5,16.5,36.5,14.5z M40.6,14.3v-1.4c0-0.9-0.3-1-1.2-1c-0.9,0-1.2,0.1-1.2,1v1.4c0,1,0.3,1,1.2,1
				C40.3,15.4,40.6,15.3,40.6,14.3z"/>
			<path class="st0" d="M44.9,16.8h-1.7v-6.4h2.7l1.2,4h0.1l1.2-4h2.8v6.4h-1.7l0.2-4.9h-0.1l-1.6,4.9h-1.5l-1.6-4.9h-0.1L44.9,16.8
				z"/>
			<path class="st0" d="M52.1,16.8v-6.4h3.2c1.6,0,2.2,0.7,2.2,2.3c0,1.8-0.4,2.4-2.2,2.4h-1.5v1.6H52.1z M54.9,13.7
				c0.7,0,0.8-0.1,0.8-0.9c0-0.7-0.1-0.9-0.8-0.9h-1.2v1.8H54.9z"/>
		</g>
		<g>
			<path class="st0" d="M59.4,15.7l-0.3,1.1h-1.8l1.9-6.4h2.6l1.9,6.4H62l-0.3-1.1H59.4z M60.6,11.7L60.6,11.7l-0.8,2.8h1.6
				L60.6,11.7z"/>
			<path class="st0" d="M65.9,16.8h-1.7v-6.4H67l1.8,4.9h0.1l-0.1-4.9h1.7v6.4h-2.9l-1.8-4.9h-0.1L65.9,16.8z"/>
			<path class="st0" d="M74.9,14.5v2.2h-1.7v-2.2l-2.3-4.1h1.9l1.1,2.5h0.1l1.2-2.5h2L74.9,14.5z"/>
			<path class="st0" d="M82.3,15.3H85v1.5h-4.4v-6.4h1.7V15.3z"/>
			<path class="st0" d="M85.6,16.8v-6.4h3.2c1.6,0,2.2,0.7,2.2,2.3c0,1.8-0.4,2.4-2.2,2.4h-1.5v1.6H85.6z M88.5,13.7
				c0.7,0,0.8-0.1,0.8-0.9c0-0.7-0.1-0.9-0.8-0.9h-1.2v1.8H88.5z"/>
		</g>
		<path class="st0" d="M27,15.6l-0.4,1.1l-0.4-1.1h-0.4v1.5h0.3v-1.2l0.4,1.2h0.2l0.4-1.2v1.2h0.3v-1.5H27L27,15.6z M24.3,15.6v0.2
			h0.5v1.2h0.3v-1.2h0.5v-0.2H24.3L24.3,15.6z"/>
		<path class="st1" d="M11.6,0.7L11.6,0.7H0.8v16.4l10.8,0c0,0-2.5-8.1-2.6-8.2C9,8.9,11.6,0.7,11.6,0.7L11.6,0.7z"/>
		<polygon class="st2" points="15.4,0.7 10.5,8.9 15.4,17.1 23.1,17.1 23.1,0.7 15.4,0.7 		"/>
	</g>
</g>
<g id="optimized_process" class="st3">
	<g class="st4">
		<path class="st0" d="M62.4,75.7v-1.5c0-1-0.3-1.1-1.2-1.1c-0.9,0-1.2,0.1-1.2,1.1v1.5c0,1,0.3,1.1,1.2,1.1
			C62.1,76.8,62.4,76.7,62.4,75.7L62.4,75.7z M58.2,75.9V74c0-2,1.3-2.4,3-2.4c1.8,0,3,0.4,3,2.4v1.9c0,2-1.3,2.4-3,2.4
			C59.4,78.3,58.2,77.9,58.2,75.9L58.2,75.9z"/>
		<path class="st0" d="M68,75c0.7,0,0.8-0.1,0.8-1c0-0.7-0.1-0.9-0.8-0.9h-1.2V75H68L68,75z M65,78.2v-6.6h3.3
			c1.6,0,2.2,0.7,2.2,2.4c0,1.8-0.4,2.5-2.2,2.5h-1.5v1.7H65L65,78.2z"/>
		<polygon class="st0" points="74.2,78.2 72.4,78.2 72.4,73.2 70.8,73.2 70.8,71.7 75.9,71.7 75.9,73.2 74.2,73.2 74.2,78.2 		"/>
		<polygon class="st0" points="78.2,78.2 76.5,78.2 76.5,71.7 78.2,71.7 78.2,78.2 		"/>
		<polygon class="st0" points="81.1,78.2 79.3,78.2 79.3,71.7 82.1,71.7 83.3,75.8 83.4,75.8 84.6,71.7 87.4,71.7 87.4,78.2 
			85.7,78.2 85.9,73.2 85.8,73.2 84.1,78.2 82.6,78.2 80.9,73.2 80.9,73.2 81.1,78.2 		"/>
		<polygon class="st0" points="90.3,78.2 88.5,78.2 88.5,71.7 90.3,71.7 90.3,78.2 		"/>
		<polygon class="st0" points="96.4,73.2 93.2,76.7 93.2,76.7 96.4,76.7 96.4,78.2 91,78.2 91,76.8 94.1,73.3 94.1,73.2 91.2,73.2 
			91.2,71.7 96.4,71.7 96.4,73.2 		"/>
		<polygon class="st0" points="98.9,74.3 101.7,74.3 101.7,75.5 98.9,75.5 98.9,76.8 101.9,76.8 101.9,78.2 97.1,78.2 97.1,71.7 
			101.9,71.7 101.9,73.1 98.9,73.1 98.9,74.3 		"/>
		<path class="st0" d="M104.7,76.7h1.5c0.6,0,0.9-0.4,0.9-1.1v-1.4c0-0.8-0.3-1-0.9-1h-1.5V76.7L104.7,76.7z M103,71.7h3.3
			c1.8,0,2.6,0.7,2.6,2.5v1.4c0,1.8-0.6,2.6-2.4,2.6H103V71.7L103,71.7z"/>
		<path class="st0" d="M115.9,75c0.7,0,0.8-0.1,0.8-1c0-0.7-0.1-0.9-0.8-0.9h-1.2V75H115.9L115.9,75z M112.9,78.2v-6.6h3.3
			c1.6,0,2.2,0.7,2.2,2.4c0,1.8-0.4,2.5-2.2,2.5h-1.5v1.7H112.9L112.9,78.2z"/>
		<path class="st0" d="M122.2,75c0.8,0,0.7-0.3,0.7-1c0-0.6-0.1-0.8-0.7-0.8h-1.4V75H122.2L122.2,75z M119.1,71.7h3.4
			c1.5,0,2.3,0.4,2.3,2c0,1.1,0,1.7-1.2,2v0.1c0.7,0,1.2,0.4,1.2,1.2v1.3H123v-0.9c0-0.5-0.2-0.8-0.7-0.8h-1.4v1.7h-1.7V71.7
			L119.1,71.7z"/>
		<path class="st0" d="M129.7,75.7v-1.5c0-1-0.3-1.1-1.2-1.1c-0.9,0-1.2,0.1-1.2,1.1v1.5c0,1,0.3,1.1,1.2,1.1
			C129.4,76.8,129.7,76.7,129.7,75.7L129.7,75.7z M125.4,75.9V74c0-2,1.3-2.4,3-2.4c1.8,0,3,0.4,3,2.4v1.9c0,2-1.3,2.4-3,2.4
			C126.7,78.3,125.4,77.9,125.4,75.9L125.4,75.9z"/>
		<path class="st0" d="M137.9,75.8V76c0,0.7,0,1.4-0.6,1.9c-0.6,0.5-1.3,0.5-2.1,0.5c-1.8,0-3.1-0.1-3.1-2.5v-1.7
			c0-2.2,1.2-2.5,3.1-2.5c1.8,0,2.6,0.2,2.7,2.2V74h-1.8v-0.3c-0.1-0.6-0.5-0.6-1.1-0.6c-1,0-1.1,0.3-1.1,1.2v1c0,1,0,1.4,1.1,1.4
			c0.7,0,1.1-0.1,1.1-0.8v-0.2H137.9L137.9,75.8z"/>
		<polygon class="st0" points="140.5,74.3 143.3,74.3 143.3,75.5 140.5,75.5 140.5,76.8 143.5,76.8 143.5,78.2 138.7,78.2 
			138.7,71.7 143.4,71.7 143.4,73.1 140.5,73.1 140.5,74.3 		"/>
		<g>
			<path class="st0" d="M147.6,74.3c1.9,0.1,2.4,0.4,2.4,1.9c0,1.1,0,2.2-2.8,2.2c-1.7,0-2.8,0-2.8-2.2h1.7c0,0.7,0.2,0.8,1.1,0.8
				c0.8,0,1.1-0.1,1.1-0.6c0-0.6-0.1-0.6-0.9-0.6l-0.4,0c-1.6-0.1-2.6-0.1-2.6-2c0-1.9,1.1-2,2.8-2c1.4,0,2.7,0,2.7,1.8v0.3h-1.7
				c0-0.7-0.3-0.7-1-0.7c-0.9,0-1,0.2-1,0.6c0,0.5,0.3,0.5,0.7,0.6L147.6,74.3L147.6,74.3z"/>
			<path class="st0" d="M153.9,74.3c1.9,0.1,2.4,0.4,2.4,1.9c0,1.1,0,2.2-2.8,2.2c-1.7,0-2.8,0-2.8-2.2h1.7c0,0.7,0.2,0.8,1.1,0.8
				c0.8,0,1.1-0.1,1.1-0.6c0-0.6-0.1-0.6-0.9-0.6l-0.4,0c-1.6-0.1-2.6-0.1-2.6-2c0-1.9,1.1-2,2.8-2c1.4,0,2.7,0,2.7,1.8v0.3h-1.7
				c0-0.7-0.3-0.7-1-0.7c-0.9,0-1,0.2-1,0.6c0,0.5,0.3,0.5,0.7,0.6L153.9,74.3L153.9,74.3z"/>
		</g>
		<path class="st0" d="M60.1,86.2h1.5c0.6,0,0.9-0.4,0.9-1.1v-1.4c0-0.8-0.3-1-0.9-1h-1.5V86.2L60.1,86.2z M58.3,81.1h3.3
			c1.8,0,2.6,0.7,2.6,2.5v1.4c0,1.8-0.6,2.6-2.4,2.6h-3.6V81.1L58.3,81.1z"/>
		<polygon class="st0" points="67,83.8 69.8,83.8 69.8,85 67,85 67,86.3 70,86.3 70,87.7 65.2,87.7 65.2,81.1 69.9,81.1 69.9,82.6 
			67,82.6 67,83.8 		"/>
		<path class="st0" d="M74.1,83.7c1.9,0.1,2.4,0.4,2.4,1.9c0,1.1,0,2.2-2.8,2.2c-1.7,0-2.8,0-2.8-2.2h1.7c0,0.7,0.2,0.8,1.1,0.8
			c0.8,0,1.1-0.1,1.1-0.6c0-0.6-0.1-0.6-0.9-0.6l-0.4,0c-1.6-0.1-2.6-0.1-2.6-2c0-1.9,1.1-2,2.8-2c1.4,0,2.7,0,2.7,1.8v0.3h-1.7
			c0-0.7-0.3-0.7-1-0.7c-0.9,0-1,0.2-1,0.6c0,0.5,0.3,0.5,0.7,0.6L74.1,83.7L74.1,83.7z"/>
		<polygon class="st0" points="79.1,87.7 77.4,87.7 77.4,81.1 79.1,81.1 79.1,87.7 		"/>
		<path class="st0" d="M84.2,83.2c0-0.7-0.6-0.7-1.1-0.7c-1.3,0-1.3,0.4-1.3,1.4V85c0,1.2,0.4,1.3,1.3,1.3c0.9,0,1.1-0.2,1.1-1.1H83
			V84h3v1.1c0,2.2-0.6,2.6-2.9,2.6c-2.1,0-3.1-0.3-3.1-2.5v-1.7c0-2.2,1.2-2.5,3.1-2.5c1.7,0,2.9,0,2.9,2.1H84.2L84.2,83.2z"/>
		<polygon class="st0" points="88.6,87.7 86.8,87.7 86.8,81.1 89.8,81.1 91.7,86.2 91.8,86.2 91.6,81.1 93.4,81.1 93.4,87.7 
			90.4,87.7 88.6,82.7 88.5,82.7 88.6,87.7 		"/>
		<path class="st0" d="M97.5,83.7c1.9,0.1,2.4,0.4,2.4,1.9c0,1.1,0,2.2-2.8,2.2c-1.7,0-2.8,0-2.8-2.2h1.7c0,0.7,0.2,0.8,1.1,0.8
			c0.8,0,1.1-0.1,1.1-0.6c0-0.6-0.1-0.6-0.9-0.6l-0.4,0c-1.6-0.1-2.6-0.1-2.6-2c0-1.9,1.1-2,2.8-2c1.4,0,2.7,0,2.7,1.8v0.3H98
			c0-0.7-0.3-0.7-1-0.7c-0.9,0-1,0.2-1,0.6c0,0.5,0.3,0.5,0.7,0.6L97.5,83.7L97.5,83.7z"/>
		<polygon class="st0" points="105.6,86.2 108.3,86.2 108.3,87.7 103.9,87.7 103.9,81.1 105.6,81.1 105.6,86.2 		"/>
		<polygon class="st0" points="110.7,86.2 113.5,86.2 113.5,87.7 109,87.7 109,81.1 110.7,81.1 110.7,86.2 		"/>
		<path class="st0" d="M119.7,85.2v0.2c0,0.7,0,1.4-0.6,1.9c-0.6,0.5-1.3,0.5-2.1,0.5c-1.8,0-3.1-0.1-3.1-2.5v-1.7
			c0-2.2,1.2-2.5,3.1-2.5c1.8,0,2.6,0.2,2.7,2.2v0.3h-1.8v-0.3c-0.1-0.6-0.5-0.6-1.1-0.6c-1,0-1.1,0.3-1.1,1.2v1c0,1,0,1.4,1.1,1.4
			c0.7,0,1.1-0.1,1.1-0.8v-0.2H119.7L119.7,85.2z"/>
		<path class="st0" d="M54.9,86.3l-0.4,1.1l-0.4-1.1h-0.4v1.5H54v-1.2l0.4,1.2h0.2l0.4-1.2v1.2h0.3v-1.5H54.9L54.9,86.3z M52.2,86.3
			v0.2h0.5v1.2H53v-1.2h0.5v-0.2H52.2L52.2,86.3z"/>
		<path class="st1" d="M39.6,71.5L39.6,71.5H28.9v16.2l10.7,0c0,0-2.5-8-2.5-8.1C37,79.6,39.6,71.5,39.6,71.5L39.6,71.5z"/>
		<polygon class="st2" points="43.4,71.5 38.5,79.7 43.4,87.8 51,87.8 51,71.5 43.4,71.5 		"/>
	</g>
</g>
<g id="koch_knight" class="st3">
	<g class="st4">
		<g>
			<g>
				<path d="M42.5-35.5h0.7l2.3-3.4h2.9l-3.2,4.4l3.4,4.6h-3l-2.5-3.5h-0.7v3.5h-2.4v-9h2.4V-35.5z"/>
				<path d="M48.8-33.1v-2.5c0-2.8,1.7-3.3,4.2-3.3s4.2,0.5,4.2,3.3v2.5c0,2.8-1.7,3.3-4.2,3.3S48.8-30.4,48.8-33.1z M54.6-33.4v-2
					c0-1.3-0.4-1.5-1.7-1.5s-1.7,0.1-1.7,1.5v2c0,1.3,0.4,1.5,1.7,1.5S54.6-32.1,54.6-33.4z"/>
				<path d="M65.8-33.3v0.3c0,1,0,1.9-0.8,2.5c-0.8,0.7-1.8,0.7-2.8,0.7c-2.4,0-4.2-0.1-4.2-3.4v-2.3c0-3,1.6-3.4,4.2-3.4
					c2.5,0,3.6,0.3,3.7,2.9v0.3h-2.5V-36c-0.1-0.8-0.6-0.9-1.5-0.9c-1.4,0-1.5,0.4-1.5,1.7v1.4c0,1.3,0.1,1.9,1.5,1.9
					c1,0,1.5-0.1,1.5-1.1v-0.3H65.8z"/>
				<path d="M74.9-29.9h-2.4v-3.5h-3.1v3.5h-2.4v-9h2.4v3.4h3.1v-3.4h2.4V-29.9z"/>
				<path d="M83.1-35.5h0.7l2.3-3.4H89l-3.2,4.4l3.4,4.6h-3l-2.5-3.5h-0.7v3.5h-2.4v-9h2.4V-35.5z"/>
				<path d="M92-29.9h-2.4v-9h4l2.6,6.9h0.1l-0.1-6.9h2.4v9h-4.1L92-36.8h-0.1L92-29.9z"/>
				<path d="M102.5-29.9h-2.4v-9h2.4V-29.9z"/>
				<path d="M109.4-36.1c0-0.9-0.8-0.9-1.5-0.9c-1.7,0-1.8,0.5-1.8,2v1.5c0,1.6,0.6,1.8,1.8,1.8c1.2,0,1.5-0.3,1.5-1.5h-1.7V-35h4.1
					v1.6c0,3-0.8,3.6-4,3.6c-2.8,0-4.3-0.5-4.3-3.4v-2.3c0-3,1.6-3.4,4.3-3.4c2.3,0,4,0,4,2.9H109.4z"/>
				<path d="M121-29.9h-2.4v-3.5h-3.1v3.5h-2.4v-9h2.4v3.4h3.1v-3.4h2.4V-29.9z"/>
				<path d="M126.4-29.9H124v-6.9h-2.3v-2.1h7.1v2.1h-2.4V-29.9z"/>
				<path d="M136.2-32h3.7v2.1h-6.1v-9h2.4V-32z"/>
				<path d="M143.2-32h3.7v2.1h-6.1v-9h2.4V-32z"/>
				<path d="M155.5-33.3v0.3c0,1,0,1.9-0.8,2.5c-0.8,0.7-1.8,0.7-2.8,0.7c-2.4,0-4.2-0.1-4.2-3.4v-2.3c0-3,1.6-3.4,4.2-3.4
					c2.5,0,3.6,0.3,3.7,2.9v0.3H153V-36c-0.1-0.8-0.6-0.9-1.5-0.9c-1.4,0-1.5,0.4-1.5,1.7v1.4c0,1.3,0.1,1.9,1.5,1.9
					c1,0,1.5-0.1,1.5-1.1v-0.3H155.5z"/>
			</g>
			<path d="M36.1-30.8v0.1h0.3v0.7h0.2v-0.7h0.3v-0.1H36.1z M37.7-30.8l-0.2,0.6l-0.2-0.6H37v0.8h0.2v-0.7l0.2,0.7h0.1l0.2-0.7v0.7
				h0.2v-0.8H37.7z"/>
			<g>
				<path class="st5" d="M29-39.1L29-39.1H23v9.2l6,0c0,0-1.4-4.5-1.4-4.6C27.6-34.5,29-39.1,29-39.1"/>
				<polygon class="st2" points="31.2,-39.1 28.4,-34.5 31.2,-29.9 35.4,-29.9 35.4,-39.1 				"/>
			</g>
		</g>
	</g>
</g>
<g id="membrane" class="st3">
	<g class="st4">
		<path d="M201.4-0.5c0.1-0.1,4.6-4.8,4.6-4.8h-0.1h-4.2c0,0-4,3.7-4.2,3.9c0-0.2,0-3.9,0-3.9h-4v11h4c0,0,0-2.3,0-2.4
			c0,0,0.8-0.7,0.8-0.7c0.1,0.1,2.5,3.1,2.5,3.1h5.4C206.3,5.6,201.5-0.4,201.4-0.5L201.4-0.5z"/>
		<path d="M246.4-5.4h-4.2c0,0,0,3.8,0,3.9c-0.1,0-3.4,0-3.5,0c0-0.1,0-3.9,0-3.9h-4.1v11l4.2,0c0,0,0-3.9,0-4c0.1,0,3.3,0,3.4,0
			c0,0.1,0,4,0,4l4.3,0L246.4-5.4L246.4-5.4L246.4-5.4z"/>
		<path class="st5" d="M214.7-2v4.4c0,0.4-0.3,0.8-0.7,0.8h-2.3c-0.4,0-0.7-0.4-0.7-0.8V-2c0-0.4,0.3-0.8,0.7-0.8h2.3
			C214.4-2.9,214.7-2.5,214.7-2L214.7-2z M216.4-5.4h-7.2c-1.3,0-2.4,1.2-2.4,2.8v5.5c0,1.5,1.1,2.8,2.4,2.8h7.2
			c1.3,0,2.4-1.2,2.4-2.8v-5.5C218.8-4.2,217.7-5.4,216.4-5.4L216.4-5.4z"/>
		<path class="st5" d="M232.6-1.4v-0.8c0-1-0.3-2-0.9-2.6c-0.4-0.4-0.8-0.6-1.3-0.6h-7.5c-1.2,0-2.2,1.4-2.2,3.2v4.7
			c0,1.7,1,3.2,2.2,3.2h7.5c1.2,0,2.2-1.4,2.2-3.2V1.2l-3.9,0l-0.1,1.1c0,0.5-0.3,0.9-0.7,0.9h-2.3c-0.4,0-0.7-0.4-0.7-0.8V-2
			c0-0.4,0.3-0.8,0.7-0.8h2.3c0.4,0,0.7,0.4,0.7,0.8v0.6H232.6L232.6-1.4z"/>
		<g>
			<path class="st6" d="M170.6,18.9c7.9-3,15.2,4.2,25.3,0c7.9-3,15.2,4.2,25.3,0c7.9-3,15.2,4.2,25.3,0v-0.6
				c-10.1,4.2-17.4-3-25.3,0c-10.1,4.2-17.4-3-25.3,0c-10.1,4.2-17.4-3-25.3,0V18.9L170.6,18.9z"/>
			<path class="st6" d="M170.6,22.1c7.9-3,15.2,4.2,25.3,0c7.9-3,15.2,4.2,25.3,0c7.9-3,15.2,4.2,25.3,0v-0.6
				c-10.1,4.2-17.4-3-25.3,0c-10.1,4.2-17.4-3-25.3,0c-10.1,4.2-17.4-3-25.3,0V22.1L170.6,22.1z"/>
			<path class="st6" d="M170.6,17.3c7.9-3,15.2,4.2,25.3,0c7.9-3,15.2,4.2,25.3,0c7.9-3,15.2,4.2,25.3,0v-0.6
				c-10.1,4.2-17.4-3-25.3,0c-10.1,4.2-17.4-3-25.3,0c-10.1,4.2-17.4-3-25.3,0V17.3L170.6,17.3z"/>
			<path class="st6" d="M170.6,20.5c7.9-3,15.2,4.2,25.3,0c7.9-3,15.2,4.2,25.3,0c7.9-3,15.2,4.2,25.3,0v-0.6
				c-10.1,4.2-17.4-3-25.3,0c-10.1,4.2-17.4-3-25.3,0c-10.1,4.2-17.4-3-25.3,0V20.5L170.6,20.5z"/>
		</g>
		<path class="st6" d="M246.4,24.2l0-0.6c0-0.1,0-0.2,0-0.3h0c0,0.1-0.1,0.2-0.1,0.3l-0.2,0.6h-0.1l-0.2-0.6c0-0.1,0-0.2-0.1-0.3h0
			c0,0.1,0,0.2,0,0.3l0,0.6h-0.1l0.1-1h0.2l0.2,0.5c0,0.1,0,0.2,0.1,0.2h0c0-0.1,0-0.2,0.1-0.2l0.2-0.5h0.2l0.1,1H246.4L246.4,24.2z
			 M245.4,23.2v0.1h-0.3v0.9H245v-0.9h-0.3v-0.1H245.4L245.4,23.2z"/>
		<polygon points="173.8,13.3 173.2,13.3 171.3,8.8 171.3,8.8 171.3,13.3 170.8,13.3 170.8,8.3 171.7,8.3 173.5,12.6 175.2,8.3 
			176.2,8.3 176.2,13.3 175.6,13.3 175.6,8.8 175.6,8.8 173.8,13.3 		"/>
		<g>
			<polygon class="st7" points="173.8,13.3 173.2,13.3 171.3,8.8 171.3,8.8 171.3,13.3 170.8,13.3 170.8,8.3 171.7,8.3 173.5,12.6 
				175.2,8.3 176.2,8.3 176.2,13.3 175.6,13.3 175.6,8.8 175.6,8.8 173.8,13.3 			"/>
		</g>
		<polygon points="177.8,10.5 180.3,10.5 180.3,11 177.8,11 177.8,12.8 180.4,12.8 180.4,13.3 177.3,13.3 177.3,8.3 180.4,8.3 
			180.4,8.8 177.8,8.8 177.8,10.5 		"/>
		<polygon class="st7" points="177.8,10.5 180.3,10.5 180.3,11 177.8,11 177.8,12.8 180.4,12.8 180.4,13.3 177.3,13.3 177.3,8.3 
			180.4,8.3 180.4,8.8 177.8,8.8 177.8,10.5 		"/>
		<polygon points="184.5,13.3 183.9,13.3 182,8.8 182,8.8 182,13.3 181.5,13.3 181.5,8.3 182.4,8.3 184.2,12.6 185.9,8.3 186.9,8.3 
			186.9,13.3 186.3,13.3 186.3,8.8 186.3,8.8 184.5,13.3 		"/>
		<polygon class="st7" points="184.5,13.3 183.9,13.3 182,8.8 182,8.8 182,13.3 181.5,13.3 181.5,8.3 182.4,8.3 184.2,12.6 
			185.9,8.3 186.9,8.3 186.9,13.3 186.3,13.3 186.3,8.8 186.3,8.8 184.5,13.3 		"/>
		<path d="M188.6,8.9h1.7c0.6,0,0.8,0.1,0.8,0.7c0,0.8-0.2,0.9-0.9,0.9h-1.6V8.9L188.6,8.9z M190.7,13.3c0.8,0,1.2-0.5,1.2-1.4
			c0-0.6-0.1-1.1-0.8-1.2v0c0.5-0.2,0.6-0.5,0.6-1c0-0.9-0.2-1.3-1.1-1.3h-2.5v4.9H190.7L190.7,13.3z M188.6,11h1.8
			c0.7,0,0.8,0.3,0.8,1c0,0.8-0.3,0.8-0.9,0.8h-1.8V11L188.6,11z"/>
		<path class="st7" d="M188.6,8.9h1.7c0.6,0,0.8,0.1,0.8,0.7c0,0.8-0.2,0.9-0.9,0.9h-1.6V8.9L188.6,8.9z M190.7,13.3
			c0.8,0,1.2-0.5,1.2-1.4c0-0.6-0.1-1.1-0.8-1.2v0c0.5-0.2,0.6-0.5,0.6-1c0-0.9-0.2-1.3-1.1-1.3h-2.5v4.9H190.7L190.7,13.3z
			 M188.6,11h1.8c0.7,0,0.8,0.3,0.8,1c0,0.8-0.3,0.8-0.9,0.8h-1.8V11L188.6,11z"/>
		<path d="M193.5,11.3h1.8c0.7,0,0.8,0.3,0.8,0.9v1h0.6V12c0-0.5-0.2-0.8-0.8-0.9v0c0.8-0.1,0.9-0.6,0.9-1.3c0-1.1-0.5-1.4-1.5-1.4
			H193v4.9h0.6V11.3L193.5,11.3z M193.5,10.8v-2h1.7c0.9,0,1,0.2,1,0.9c0,0.8-0.1,1.1-1,1.1H193.5L193.5,10.8z"/>
		<path class="st7" d="M193.5,11.3h1.8c0.7,0,0.8,0.3,0.8,0.9v1h0.6V12c0-0.5-0.2-0.8-0.8-0.9v0c0.8-0.1,0.9-0.6,0.9-1.3
			c0-1.1-0.5-1.4-1.5-1.4H193v4.9h0.6V11.3L193.5,11.3z M193.5,10.8v-2h1.7c0.9,0,1,0.2,1,0.9c0,0.8-0.1,1.1-1,1.1H193.5L193.5,10.8
			z"/>
		<path d="M200.9,12.2l0.4,1h0.6l-1.8-4.9h-0.8l-1.8,4.9h0.6l0.4-1H200.9L200.9,12.2z M200.8,11.8h-2.2l1.1-2.9L200.8,11.8
			L200.8,11.8z"/>
		<path class="st7" d="M200.9,12.2l0.4,1h0.6l-1.8-4.9h-0.8l-1.8,4.9h0.6l0.4-1H200.9L200.9,12.2z M200.8,11.8h-2.2l1.1-2.9
			L200.8,11.8L200.8,11.8z"/>
		<polygon points="206.9,13.3 206,13.3 203.3,8.8 203.2,8.8 203.2,13.3 202.7,13.3 202.7,8.4 203.6,8.4 206.4,12.9 206.4,12.9 
			206.4,8.4 206.9,8.4 206.9,13.3 		"/>
		<polygon class="st7" points="206.9,13.3 206,13.3 203.3,8.8 203.2,8.8 203.2,13.3 202.7,13.3 202.7,8.4 203.6,8.4 206.4,12.9 
			206.4,12.9 206.4,8.4 206.9,8.4 206.9,13.3 		"/>
		<polygon points="208.5,10.5 211,10.5 211,11 208.5,11 208.5,12.8 211.1,12.8 211.1,13.3 208,13.3 208,8.4 211.1,8.4 211.1,8.9 
			208.5,8.9 208.5,10.5 		"/>
		<polygon class="st7" points="208.5,10.5 211,10.5 211,11 208.5,11 208.5,12.8 211.1,12.8 211.1,13.3 208,13.3 208,8.4 211.1,8.4 
			211.1,8.9 208.5,8.9 208.5,10.5 		"/>
		<path d="M214.5,9.8c0-1.3,0.6-1.4,1.8-1.4c1.1,0,1.8,0,1.8,1.4h-0.6c0-0.9-0.2-0.9-1.2-0.9c-1.1,0-1.2,0.1-1.2,0.8
			c0,0.9,0.4,0.9,1.4,0.9c1.2,0.1,1.8,0,1.8,1.4c0,1.4-0.7,1.4-1.9,1.4c-1.2,0-1.9-0.2-1.8-1.6h0.6c0,1.1,0.2,1.1,1.2,1.1
			c1,0,1.3,0,1.3-1c0-0.9-0.4-0.8-1.3-0.8C215.3,10.9,214.5,11.1,214.5,9.8L214.5,9.8z"/>
		<path class="st7" d="M214.5,9.8c0-1.3,0.6-1.4,1.8-1.4c1.1,0,1.8,0,1.8,1.4h-0.6c0-0.9-0.2-0.9-1.2-0.9c-1.1,0-1.2,0.1-1.2,0.8
			c0,0.9,0.4,0.9,1.4,0.9c1.2,0.1,1.8,0,1.8,1.4c0,1.4-0.7,1.4-1.9,1.4c-1.2,0-1.9-0.2-1.8-1.6h0.6c0,1.1,0.2,1.1,1.2,1.1
			c1,0,1.3,0,1.3-1c0-0.9-0.4-0.8-1.3-0.8C215.3,10.9,214.5,11.1,214.5,9.8L214.5,9.8z"/>
		<polygon points="221,11.2 221,13.3 220.5,13.3 220.5,11.2 218.7,8.4 219.3,8.4 220.8,10.7 222.2,8.4 222.9,8.4 221,11.2 		"/>
		<polygon class="st7" points="221,11.2 221,13.3 220.5,13.3 220.5,11.2 218.7,8.4 219.3,8.4 220.8,10.7 222.2,8.4 222.9,8.4 
			221,11.2 		"/>
		<path d="M223.4,9.8c0-1.3,0.6-1.4,1.8-1.4c1.1,0,1.8,0,1.8,1.4h-0.6c0-0.9-0.2-0.9-1.2-0.9c-1.1,0-1.2,0.1-1.2,0.8
			c0,0.9,0.4,0.9,1.4,0.9c1.2,0.1,1.8,0,1.8,1.4c0,1.4-0.7,1.4-1.9,1.4c-1.2,0-1.9-0.2-1.8-1.6h0.6c0,1.1,0.2,1.1,1.2,1.1
			c1,0,1.3,0,1.3-1c0-0.9-0.4-0.8-1.3-0.8C224.2,10.9,223.4,11.1,223.4,9.8L223.4,9.8z"/>
		<path class="st7" d="M223.4,9.8c0-1.3,0.6-1.4,1.8-1.4c1.1,0,1.8,0,1.8,1.4h-0.6c0-0.9-0.2-0.9-1.2-0.9c-1.1,0-1.2,0.1-1.2,0.8
			c0,0.9,0.4,0.9,1.4,0.9c1.2,0.1,1.8,0,1.8,1.4c0,1.4-0.7,1.4-1.9,1.4c-1.2,0-1.9-0.2-1.8-1.6h0.6c0,1.1,0.2,1.1,1.2,1.1
			c1,0,1.3,0,1.3-1c0-0.9-0.4-0.8-1.3-0.8C224.2,10.9,223.4,11.1,223.4,9.8L223.4,9.8z"/>
		<polygon points="229.8,13.3 229.2,13.3 229.2,8.9 227.6,8.9 227.6,8.4 231.3,8.4 231.3,8.9 229.8,8.9 229.8,13.3 		"/>
		<polygon class="st7" points="229.8,13.3 229.2,13.3 229.2,8.9 227.6,8.9 227.6,8.4 231.3,8.4 231.3,8.9 229.8,8.9 229.8,13.3 		
			"/>
		<polygon points="232.5,10.5 235,10.5 235,11 232.5,11 232.5,12.8 235.1,12.8 235.1,13.3 232,13.3 232,8.4 235.1,8.4 235.1,8.9 
			232.5,8.9 232.5,10.5 		"/>
		<polygon class="st7" points="232.5,10.5 235,10.5 235,11 232.5,11 232.5,12.8 235.1,12.8 235.1,13.3 232,13.3 232,8.4 235.1,8.4 
			235.1,8.9 232.5,8.9 232.5,10.5 		"/>
		<polygon points="239.1,13.3 238.6,13.3 236.7,8.8 236.7,8.8 236.7,13.3 236.1,13.3 236.1,8.4 237.1,8.4 238.8,12.6 240.6,8.4 
			241.5,8.4 241.5,13.3 241,13.3 241,8.8 241,8.8 239.1,13.3 		"/>
		<polygon class="st7" points="239.1,13.3 238.6,13.3 236.7,8.8 236.7,8.8 236.7,13.3 236.1,13.3 236.1,8.4 237.1,8.4 238.8,12.6 
			240.6,8.4 241.5,8.4 241.5,13.3 241,13.3 241,8.8 241,8.8 239.1,13.3 		"/>
		<path d="M242.6,9.8c0-1.3,0.6-1.4,1.8-1.4c1.1,0,1.8,0,1.8,1.4h-0.6c0-0.9-0.2-0.9-1.2-0.9c-1.1,0-1.2,0.1-1.2,0.8
			c0,0.9,0.4,0.9,1.4,0.9c1.2,0.1,1.8,0,1.8,1.4c0,1.4-0.7,1.4-1.9,1.4c-1.2,0-1.9-0.2-1.8-1.6h0.6c0,1.1,0.2,1.1,1.2,1.1
			c1,0,1.3,0,1.3-1c0-0.9-0.4-0.8-1.3-0.8C243.4,10.9,242.6,11.1,242.6,9.8L242.6,9.8z"/>
		<g>
			<path class="st7" d="M242.6,9.8c0-1.3,0.6-1.4,1.8-1.4c1.1,0,1.8,0,1.8,1.4h-0.6c0-0.9-0.2-0.9-1.2-0.9c-1.1,0-1.2,0.1-1.2,0.8
				c0,0.9,0.4,0.9,1.4,0.9c1.2,0.1,1.8,0,1.8,1.4c0,1.4-0.7,1.4-1.9,1.4c-1.2,0-1.9-0.2-1.8-1.6h0.6c0,1.1,0.2,1.1,1.2,1.1
				c1,0,1.3,0,1.3-1c0-0.9-0.4-0.8-1.3-0.8C243.4,10.9,242.6,11.1,242.6,9.8L242.6,9.8z"/>
		</g>
		<path class="st5" d="M177.8-5.2L177.8-5.2h-7.3v11l7.2,0c0,0-1.7-5.4-1.7-5.5C176.1,0.2,177.8-5.2,177.8-5.2L177.8-5.2z"/>
		<polygon class="st2" points="180.4,-5.2 177.1,0.3 180.4,5.7 185.5,5.7 185.5,-5.2 180.4,-5.2 		"/>
	</g>
</g>
<g id="glitsch" class="st3">
	<g class="st4">
		<path d="M133.6-76.7c0,0-2.3,3.2-2.4,3.3c-0.1,0-0.3,0-0.5,0c0-0.3,0-3.3,0-3.3h-2.8v9.2h2.8c0,0,0-3.2,0-3.5c0.2,0,0.4,0,0.5,0
			c0.1,0.1,2.6,3.5,2.6,3.5h3.5c0,0-3.6-4.5-3.7-4.7c0.1-0.2,3.4-4.5,3.4-4.5H133.6L133.6-76.7z"/>
		<g>
			<path d="M147.4-73.2v2.3c0,3.5,2.2,3.5,4.6,3.5h0.1c1.1,0,2.1,0,3-0.7c0.9-0.7,0.9-1.7,0.9-2.6v-0.4H153v0.4c0,0.9-0.3,1-1.4,1
				c-1.3,0-1.4-0.3-1.4-1.7v-1.4c0-1.3,0.1-1.5,1.4-1.5c0.9,0,1.3,0.1,1.4,0.7l0,0.5h2.9v-0.5c-0.1-2.8-1.3-3.1-4-3.1
				C149.4-76.8,147.4-76.5,147.4-73.2L147.4-73.2z"/>
		</g>
		<path d="M163.1-76.7c0,0,0,3.1,0,3.3c-0.3,0-2.7,0-2.9,0c0-0.3,0-3.3,0-3.3h-2.8v9.2h2.8c0,0,0-3.2,0-3.5c0.3,0,2.7,0,2.9,0
			c0,0.3,0,3.5,0,3.5h2.8v-9.2H163.1L163.1-76.7z"/>
		<path d="M166.8-72.1v2.3h3.7v-2.3H166.8L166.8-72.1z"/>
		<path d="M171.2-73.2v2.3c0,3,1.6,3.5,4.6,3.5c3.3,0,4.3-0.5,4.3-3.7v-1.7h-4.6v2c0,0,1.4,0,1.7,0c0,1-0.3,1.2-1.4,1.2
			c-1.2,0-1.7-0.1-1.7-1.6v-1.4c0-1.4,0-1.8,1.7-1.8c0.9,0,1.4,0,1.5,0.7l0,0.1h2.8v-0.2c0-3-1.9-3-4.3-3
			C173.4-76.8,171.2-76.5,171.2-73.2L171.2-73.2z"/>
		<path d="M181.5-76.7v9.2h6.7v-2.4c0,0-3.6,0-3.9,0c0-0.3,0-6.8,0-6.8H181.5L181.5-76.7z"/>
		<path d="M189.4-76.7v9.2h2.8v-9.2H189.4L189.4-76.7z"/>
		<path d="M193.2-76.7v2.4c0,0,2.1,0,2.4,0c0,0.3,0,6.8,0,6.8h2.8c0,0,0-6.5,0-6.8c0.3,0,2.5,0,2.5,0v-2.4H193.2L193.2-76.7z"/>
		<path d="M201.6-73.9c0,2.6,1.4,2.7,3.6,2.8L206-71c1.1,0.1,1.1,0.1,1.1,0.7c0,0.6-0.2,0.7-1.4,0.7c-1.2,0-1.4-0.1-1.4-0.9v-0.2
			h-2.7v0.2c0,3.1,1.8,3.1,4.1,3.1c1.9,0,3-0.3,3.6-0.9c0.6-0.6,0.6-1.4,0.6-2.1v-0.1c0-2.2-0.8-2.5-3.6-2.7l0,0l-1-0.1
			c-0.7,0-0.9-0.1-0.9-0.6c0-0.4,0-0.6,1.3-0.6c1,0,1.2,0,1.2,0.8v0.2h2.7v-0.5c0-2.6-2-2.6-4-2.6C203.2-76.8,201.6-76.6,201.6-73.9
			L201.6-73.9z"/>
		<g>
			<path d="M211-73.2v2.3c0,3.5,2.2,3.5,4.6,3.5h0.1c1.1,0,2.1,0,3-0.7c0.9-0.7,0.9-1.7,0.9-2.6v-0.4h-2.9v0.4c0,0.9-0.3,1-1.4,1
				c-1.3,0-1.4-0.3-1.4-1.7v-1.4c0-1.3,0.1-1.5,1.4-1.5c0.9,0,1.3,0.1,1.4,0.7l0,0.5h2.9v-0.5c-0.1-2.8-1.3-3.1-4-3.1
				C213.1-76.8,211-76.5,211-73.2L211-73.2z"/>
		</g>
		<g>
			<path d="M226.7-76.7c0,0,0,3.1,0,3.3c-0.3,0-2.7,0-2.9,0c0-0.3,0-3.3,0-3.3h-2.8v9.2h2.8c0,0,0-3.2,0-3.5c0.3,0,2.7,0,2.9,0
				c0,0.3,0,3.5,0,3.5h2.8v-9.2H226.7L226.7-76.7z"/>
			<path class="st5" d="M118.2-76.7L118.2-76.7h-6.1v9.2l6,0c0,0-1.4-4.6-1.4-4.6C116.7-72.1,118.2-76.7,118.2-76.7L118.2-76.7z"/>
		</g>
		<polygon class="st2" points="120.3,-76.7 117.6,-72.1 120.3,-67.5 124.6,-67.5 124.6,-76.7 120.3,-76.7 		"/>
		<path d="M231.2-75.8h0.1c0.1,0,0.2,0,0.2-0.2c0-0.1-0.1-0.2-0.2-0.2c-0.1,0-0.1,0-0.1,0V-75.8L231.2-75.8z M231.2-75.3H231v-1
			c0.1,0,0.2,0,0.3,0c0.1,0,0.2,0,0.3,0.1c0.1,0,0.1,0.1,0.1,0.2c0,0.1-0.1,0.2-0.2,0.2v0c0.1,0,0.1,0.1,0.2,0.2
			c0,0.2,0,0.2,0.1,0.2h-0.2c0,0,0-0.1-0.1-0.2c0-0.1-0.1-0.2-0.2-0.2h-0.1V-75.3L231.2-75.3z M231.3-76.6c-0.4,0-0.7,0.3-0.7,0.7
			c0,0.4,0.3,0.7,0.7,0.7c0.4,0,0.7-0.3,0.7-0.7C232-76.2,231.7-76.6,231.3-76.6L231.3-76.6L231.3-76.6z M231.3-76.7
			c0.5,0,0.9,0.4,0.9,0.9c0,0.5-0.4,0.9-0.9,0.9c-0.5,0-0.9-0.4-0.9-0.9C230.5-76.3,230.9-76.7,231.3-76.7L231.3-76.7L231.3-76.7z"
			/>
		<path d="M141.8-76.8c-2.3,0-4.5,0.4-4.5,3.4v2.5c0,3,2.2,3.4,4.5,3.4c2.3,0,4.5-0.4,4.5-3.4v-2.5
			C146.3-76.4,144.2-76.8,141.8-76.8z M143.4-71.1c0,1.2-0.3,1.3-1.6,1.3c-1.3,0-1.6-0.1-1.6-1.3v-2c0-1.2,0.3-1.3,1.6-1.3
			c1.3,0,1.6,0.1,1.6,1.3V-71.1z"/>
	</g>
</g>
<g id="zink" class="st3">
	<g class="st4">
		<g>
			<polygon points="150.9,40.3 150.9,56 161.5,56 159,48.2 161.6,40.3 			"/>
			<polygon class="st6" points="165.4,40.3 160.5,48.1 165.5,56 173,56 173,40.3 			"/>
			<g>
				<path d="M183.1,60.5c-0.1-0.5-0.5-0.8-1.1-0.8c-1.2,0-1.5,1-1.5,2s0.3,2,1.5,2c0.5,0,1-0.2,1.1-0.8h0.4
					c-0.1,0.8-0.8,1.2-1.5,1.2c-1.4,0-1.9-1.1-1.9-2.3c0-1.2,0.6-2.3,1.9-2.3c0.7,0,1.4,0.3,1.5,1.1H183.1z"/>
				<path d="M186.6,64c-1.3,0-2-0.9-2-2.3c0-1.4,0.7-2.3,2-2.3c1.3,0,2,0.9,2,2.3C188.6,63.1,187.9,64,186.6,64 M186.6,63.7
					c1.1,0,1.6-1,1.6-2s-0.4-2-1.6-2c-1.1,0-1.6,1-1.6,2S185.4,63.7,186.6,63.7"/>
				<polygon points="190.1,63.9 190.1,59.4 190.7,59.4 192.4,63.4 194.2,59.4 194.8,59.4 194.8,63.9 194.4,63.9 194.4,59.8 
					194.4,59.8 192.6,63.9 192.2,63.9 190.5,59.8 190.5,59.8 190.5,63.9 				"/>
				<path d="M196.5,63.9v-4.5l1.6,0c0.7,0,1.3,0.4,1.3,1.1c0,0.5-0.4,0.9-0.8,1v0c0.6,0.1,1,0.5,1,1.1c0,0.6-0.4,1.2-1.3,1.2H196.5z
					 M197.9,61.4c0.5,0,1-0.2,1-0.8c0-0.7-0.5-0.8-1.1-0.8h-1v1.6H197.9z M196.9,63.6h1c0.8,0,1.2-0.2,1.2-0.9
					c0-0.8-0.6-0.9-1.5-0.9h-0.7V63.6z"/>
				<path d="M201.4,59.4v2.9c0,0.8,0.5,1.3,1.2,1.3c0.7,0,1.2-0.5,1.2-1.3v-2.9h0.4v2.9c0,1-0.6,1.7-1.6,1.7c-1.1,0-1.6-0.7-1.6-1.7
					v-2.9H201.4z"/>
				<path d="M207,64c-0.7,0-1.3-0.5-1.3-1.3h0.4c0,0.7,0.5,0.9,1.1,0.9c0.5,0,1.1-0.3,1.1-0.9c0-0.4-0.3-0.7-0.7-0.8
					c-0.7-0.2-1.8-0.5-1.8-1.4c0-0.8,0.7-1.2,1.4-1.2c0.6,0,1.4,0.2,1.5,1.1h-0.4c0-0.6-0.5-0.7-1-0.7c-0.5,0-1,0.2-1,0.8
					c0,1.3,2.5,0.7,2.5,2.3C208.8,63.7,207.9,64,207,64"/>
				<polygon points="211.2,59.8 209.7,59.8 209.7,59.4 213,59.4 213,59.8 211.6,59.8 211.6,63.9 211.2,63.9 				"/>
				<rect x="214.2" y="59.4" width="0.4" height="4.5"/>
				<path d="M218.1,64c-1.3,0-2-0.9-2-2.3c0-1.4,0.7-2.3,2-2.3c1.3,0,2,0.9,2,2.3C220.1,63.1,219.4,64,218.1,64 M218.1,63.7
					c1.1,0,1.6-1,1.6-2s-0.4-2-1.6-2c-1.1,0-1.6,1-1.6,2S217,63.7,218.1,63.7"/>
				<polygon points="221.5,59.4 222,59.4 224.4,63.4 224.5,63.4 224.5,59.4 224.9,59.4 224.9,63.9 224.3,63.9 221.9,60 221.9,60 
					221.9,63.9 221.5,63.9 				"/>
				<polygon points="185.6,56.2 183.8,56.2 183.8,53.6 181.5,53.6 181.5,56.2 179.7,56.2 179.7,49.6 181.5,49.6 181.5,52.1 
					183.8,52.1 183.8,49.6 185.6,49.6 				"/>
				<path d="M188.2,55.1l-0.3,1.1H186l2-6.6h2.7l2,6.6h-1.8l-0.3-1.1H188.2z M189.4,50.9L189.4,50.9l-0.8,2.9h1.6L189.4,50.9z"/>
				<polygon points="194.9,56.2 193.1,56.2 193.1,49.6 195.9,49.6 197.2,53.7 197.3,53.7 198.5,49.6 201.4,49.6 201.4,56.2 
					199.6,56.2 199.8,51.1 199.7,51.1 198,56.2 196.5,56.2 194.8,51.1 194.7,51.1 				"/>
				<polygon points="210,49.6 211.7,49.6 210.3,56.2 207.7,56.2 206.8,52 206.7,52 205.8,56.2 203.2,56.2 201.8,49.6 203.6,49.6 
					204.6,54.7 204.6,54.7 205.9,49.6 207.7,49.6 208.9,54.7 209,54.7 				"/>
				<path d="M211.9,53.8V52c0-2,1.3-2.4,3.1-2.4s3.1,0.4,3.1,2.4v1.9c0,2-1.3,2.4-3.1,2.4S211.9,55.9,211.9,53.8 M216.3,53.6v-1.5
					c0-1-0.3-1.1-1.2-1.1c-0.9,0-1.2,0.1-1.2,1.1v1.5c0,1,0.3,1.1,1.2,1.1C215.9,54.7,216.3,54.6,216.3,53.6"/>
				<path d="M218.9,49.6h3.4c1.5,0,2.3,0.4,2.3,2c0,1.1,0,1.8-1.3,2v0.1c0.7,0,1.2,0.4,1.2,1.2v1.3h-1.8v-0.9c0-0.5-0.2-0.8-0.7-0.8
					h-1.4v1.8h-1.8V49.6z M222,52.9c0.8,0,0.7-0.3,0.7-1c0-0.6-0.1-0.8-0.7-0.8h-1.4v1.8H222z"/>
				<polygon points="228.6,56.2 226.8,56.2 226.8,51.1 225.1,51.1 225.1,49.6 230.4,49.6 230.4,51.1 228.6,51.1 				"/>
				<polygon points="236.9,56.2 235.2,56.2 235.2,53.6 232.9,53.6 232.9,56.2 231.1,56.2 231.1,49.6 232.9,49.6 232.9,52.1 
					235.2,52.1 235.2,49.6 236.9,49.6 				"/>
				<polygon points="241.7,53.9 241.7,56.2 239.9,56.2 239.9,53.9 237.5,49.6 239.6,49.6 240.8,52.1 240.8,52.1 242,49.6 
					244.1,49.6 				"/>
				<path d="M184,40.4v4.6c0,1.8-0.5,2.1-2.4,2.1c-1.8,0-2.2-0.4-2.2-2.3v-0.5h1.7v0.5c0,0.5,0.1,0.7,0.5,0.7c0.5,0,0.6-0.1,0.6-0.6
					v-4.6H184z"/>
				<path d="M184.8,44.6v-1.9c0-2,1.3-2.4,3.1-2.4c1.8,0,3.1,0.4,3.1,2.4v1.9c0,2-1.3,2.4-3.1,2.4C186,47,184.8,46.7,184.8,44.6
					 M189.1,44.4v-1.5c0-1-0.3-1.1-1.2-1.1c-0.9,0-1.2,0.1-1.2,1.1v1.5c0,1,0.3,1.1,1.2,1.1C188.8,45.5,189.1,45.4,189.1,44.4"/>
				<polygon points="197.4,47 195.7,47 195.7,44.4 193.4,44.4 193.4,47 191.6,47 191.6,40.4 193.4,40.4 193.4,42.8 195.7,42.8 
					195.7,40.4 197.4,40.4 				"/>
				<polygon points="200.1,47 198.4,47 198.4,40.4 201.3,40.4 203.2,45.4 203.3,45.4 203.2,40.4 205,40.4 205,47 202,47 200.1,41.9 
					200,41.9 				"/>
				<polygon points="214.3,41.8 211.2,45.4 211.2,45.4 214.3,45.4 214.3,47 208.9,47 208.9,45.5 212,41.9 212,41.9 209.1,41.9 
					209.1,40.4 214.3,40.4 				"/>
				<rect x="215.3" y="40.4" width="1.8" height="6.6"/>
				<polygon points="219.9,47 218.1,47 218.1,40.4 221.1,40.4 223,45.4 223.1,45.4 223,40.4 224.7,40.4 224.7,47 221.7,47 
					219.9,41.9 219.8,41.9 				"/>
				<polygon points="227.4,42.8 228,42.8 229.7,40.4 231.8,40.4 229.5,43.6 232,47 229.8,47 228,44.4 227.4,44.4 227.4,47 225.7,47 
					225.7,40.4 227.4,40.4 				"/>
				<polygon points="174.2,54.7 173.7,54.7 173.7,54.5 174.8,54.5 174.8,54.7 174.4,54.7 174.4,56 174.2,56 				"/>
				<path d="M176.3,55.4c0-0.2,0-0.5,0-0.7h0c-0.1,0.2-0.1,0.4-0.2,0.6l-0.3,0.8h-0.1l-0.3-0.7c-0.1-0.2-0.1-0.4-0.2-0.6h0
					c0,0.2,0,0.4,0,0.7l0,0.7H175l0.1-1.5h0.3l0.3,0.7c0.1,0.2,0.1,0.4,0.2,0.5h0c0-0.2,0.1-0.3,0.2-0.5l0.3-0.7h0.3l0.1,1.5h-0.2
					L176.3,55.4z"/>
			</g>
		</g>
	</g>
</g>
</svg>
