<?xml version="1.0" encoding="utf-8"?>
<!-- Generator: Adobe Illustrator 19.1.0, SVG Export Plug-In . SVG Version: 6.00 Build 0)  -->
<!DOCTYPE svg PUBLIC "-//W3C//DTD SVG 1.1//EN" "http://www.w3.org/Graphics/SVG/1.1/DTD/svg11.dtd">
<svg version="1.1" xmlns="http://www.w3.org/2000/svg" xmlns:xlink="http://www.w3.org/1999/xlink" x="0px" y="0px"
	 viewBox="0 0 73.2 28.9" style="enable-background:new 0 0 73.2 28.9;" xml:space="preserve">
<style type="text/css">
	.st0{display:none;}
	.st1{display:inline;}
	.st2{fill:#231F20;}
	.st3{fill-rule:evenodd;clip-rule:evenodd;fill:#231F20;}
	.st4{fill-rule:evenodd;clip-rule:evenodd;fill:#0099D8;}
	.st5{fill-rule:evenodd;clip-rule:evenodd;}
	.st6{fill:#0099D8;}
	.st7{fill:none;}
</style>
<g id="heat_transfer" class="st0">
	<g class="st1">
		<g>
			<path class="st2" d="M32.2,3.6h0.5l1.6-2.4h2.1l-2.2,3.1l2.4,3.2h-2.1l-1.8-2.5h-0.5v2.5h-1.7V1.2h1.7V3.6z"/>
			<path class="st2" d="M36.7,5.3V3.5c0-2,1.2-2.3,2.9-2.3c1.7,0,2.9,0.4,2.9,2.3v1.8c0,2-1.2,2.3-2.9,2.3
				C37.9,7.6,36.7,7.3,36.7,5.3z M40.8,5.1V3.7c0-0.9-0.3-1-1.2-1c-0.9,0-1.2,0.1-1.2,1v1.4c0,1,0.3,1,1.2,1
				C40.5,6.2,40.8,6.1,40.8,5.1z"/>
			<path class="st2" d="M48.8,5.2v0.2c0,0.7,0,1.3-0.6,1.8c-0.6,0.5-1.3,0.5-2,0.5c-1.7,0-3-0.1-3-2.4V3.6c0-2.1,1.1-2.4,3-2.4
				c1.8,0,2.6,0.2,2.6,2.1v0.2H47V3.3c-0.1-0.6-0.5-0.6-1-0.6c-1,0-1.1,0.3-1.1,1.2v1c0,1,0,1.3,1.1,1.3c0.7,0,1-0.1,1-0.8V5.2H48.8
				z"/>
			<path class="st2" d="M55.2,7.6h-1.7V5.1h-2.2v2.5h-1.7V1.2h1.7v2.4h2.2V1.2h1.7V7.6z"/>
			<path class="st2" d="M65,7.6h-1.7V5.1H61v2.5h-1.7V1.2H61v2.4h2.2V1.2H65V7.6z"/>
			<path class="st2" d="M67.7,3.8h2.7V5h-2.7v1.2h3v1.4H66V1.2h4.6v1.4h-2.9V3.8z"/>
		</g>
		<g>
			<path class="st2" d="M73.2,6.5l-0.3,1.1h-1.8l1.9-6.4h2.6l1.9,6.4h-1.7l-0.3-1.1H73.2z M74.4,2.5L74.4,2.5l-0.8,2.8h1.6L74.4,2.5
				z"/>
			<path class="st2" d="M80.6,7.6h-1.7V2.7h-1.6V1.2h5v1.5h-1.7V7.6z"/>
		</g>
		<g>
			<path class="st2" d="M88.7,7.6H87V2.7h-1.6V1.2h5v1.5h-1.7V7.6z"/>
			<path class="st2" d="M90.9,1.2h3.3c1.5,0,2.2,0.3,2.2,1.9c0,1.1,0,1.7-1.2,2v0.1c0.7,0,1.1,0.4,1.1,1.1v1.3h-1.7V6.7
				c0-0.5-0.2-0.8-0.7-0.8h-1.3v1.7h-1.7V1.2z M93.9,4.4c0.7,0,0.7-0.3,0.7-1c0-0.6-0.1-0.7-0.7-0.7h-1.3v1.7H93.9z"/>
			<path class="st2" d="M98.7,6.5l-0.3,1.1h-1.8l1.9-6.4h2.6l1.9,6.4h-1.7L101,6.5H98.7z M99.9,2.5L99.9,2.5l-0.8,2.8h1.6L99.9,2.5z
				"/>
			<path class="st2" d="M105.2,7.6h-1.7V1.2h2.9l1.8,4.9h0.1l-0.1-4.9h1.7v6.4h-2.9l-1.8-4.9h-0.1L105.2,7.6z"/>
			<path class="st2" d="M113.8,3.7c1.9,0.1,2.4,0.4,2.4,1.8c0,1.1,0,2.1-2.8,2.1c-1.6,0-2.7,0-2.7-2.1h1.6c0,0.7,0.2,0.7,1.1,0.7
				c0.8,0,1.1-0.1,1.1-0.6c0-0.6-0.1-0.5-0.9-0.6l-0.4,0c-1.6-0.1-2.5-0.1-2.5-1.9s1-1.9,2.7-1.9c1.4,0,2.6,0,2.6,1.8v0.3h-1.6
				c0-0.7-0.3-0.7-1-0.7c-0.9,0-1,0.2-1,0.5c0,0.5,0.2,0.5,0.7,0.6L113.8,3.7z"/>
			<path class="st2" d="M118.6,3.9h2.6v1.4h-2.6v2.3h-1.7V1.2h4.5v1.4h-2.8V3.9z"/>
			<path class="st2" d="M123.9,3.8h2.7V5h-2.7v1.2h3v1.4h-4.7V1.2h4.6v1.4h-2.9V3.8z"/>
			<path class="st2" d="M127.9,1.2h3.3c1.5,0,2.2,0.3,2.2,1.9c0,1.1,0,1.7-1.2,2v0.1c0.7,0,1.1,0.4,1.1,1.1v1.3h-1.7V6.7
				c0-0.5-0.2-0.8-0.7-0.8h-1.3v1.7h-1.7V1.2z M130.9,4.4c0.7,0,0.7-0.3,0.7-1c0-0.6-0.1-0.7-0.7-0.7h-1.3v1.7H130.9z"/>
		</g>
		<g>
			<path class="st2" d="M35.9,14.4v0.2c0,0.7,0,1.3-0.6,1.8c-0.6,0.5-1.3,0.5-2,0.5c-1.7,0-3-0.1-3-2.4v-1.6c0-2.1,1.1-2.4,3-2.4
				c1.8,0,2.6,0.2,2.6,2.1v0.2h-1.8v-0.2c-0.1-0.6-0.5-0.6-1-0.6c-1,0-1.1,0.3-1.1,1.2v1c0,1,0,1.3,1.1,1.3c0.7,0,1-0.1,1-0.8v-0.2
				H35.9z"/>
			<path class="st2" d="M36.5,14.5v-1.8c0-2,1.2-2.3,2.9-2.3c1.7,0,2.9,0.4,2.9,2.3v1.8c0,2-1.2,2.3-2.9,2.3
				C37.7,16.8,36.5,16.5,36.5,14.5z M40.6,14.3v-1.4c0-0.9-0.3-1-1.2-1c-0.9,0-1.2,0.1-1.2,1v1.4c0,1,0.3,1,1.2,1
				C40.3,15.4,40.6,15.3,40.6,14.3z"/>
			<path class="st2" d="M44.9,16.8h-1.7v-6.4h2.7l1.2,4h0.1l1.2-4h2.8v6.4h-1.7l0.2-4.9h-0.1l-1.6,4.9h-1.5l-1.6-4.9h-0.1L44.9,16.8
				z"/>
			<path class="st2" d="M52.1,16.8v-6.4h3.2c1.6,0,2.2,0.7,2.2,2.3c0,1.8-0.4,2.4-2.2,2.4h-1.5v1.6H52.1z M54.9,13.7
				c0.7,0,0.8-0.1,0.8-0.9c0-0.7-0.1-0.9-0.8-0.9h-1.2v1.8H54.9z"/>
		</g>
		<g>
			<path class="st2" d="M59.4,15.7l-0.3,1.1h-1.8l1.9-6.4h2.6l1.9,6.4H62l-0.3-1.1H59.4z M60.6,11.7L60.6,11.7l-0.8,2.8h1.6
				L60.6,11.7z"/>
			<path class="st2" d="M65.9,16.8h-1.7v-6.4H67l1.8,4.9h0.1l-0.1-4.9h1.7v6.4h-2.9l-1.8-4.9h-0.1L65.9,16.8z"/>
			<path class="st2" d="M74.9,14.5v2.2h-1.7v-2.2l-2.3-4.1h1.9l1.1,2.5h0.1l1.2-2.5h2L74.9,14.5z"/>
			<path class="st2" d="M82.3,15.3H85v1.5h-4.4v-6.4h1.7V15.3z"/>
			<path class="st2" d="M85.6,16.8v-6.4h3.2c1.6,0,2.2,0.7,2.2,2.3c0,1.8-0.4,2.4-2.2,2.4h-1.5v1.6H85.6z M88.5,13.7
				c0.7,0,0.8-0.1,0.8-0.9c0-0.7-0.1-0.9-0.8-0.9h-1.2v1.8H88.5z"/>
		</g>
		<path class="st2" d="M27,15.6l-0.4,1.1l-0.4-1.1h-0.4v1.5h0.3v-1.2l0.4,1.2h0.2l0.4-1.2v1.2h0.3v-1.5H27L27,15.6z M24.3,15.6v0.2
			h0.5v1.2h0.3v-1.2h0.5v-0.2H24.3L24.3,15.6z"/>
		<path class="st3" d="M11.6,0.7L11.6,0.7H0.8v16.4l10.8,0c0,0-2.5-8.1-2.6-8.2C9,8.9,11.6,0.7,11.6,0.7L11.6,0.7z"/>
		<polygon class="st4" points="15.4,0.7 10.5,8.9 15.4,17.1 23.1,17.1 23.1,0.7 15.4,0.7 		"/>
	</g>
</g>
<g id="optimized_process" class="st0">
	<g class="st1">
		<path class="st2" d="M35.7,4.9V3.4c0-1-0.3-1.1-1.3-1.1c-0.9,0-1.3,0.1-1.3,1.1v1.5c0,1,0.3,1.1,1.3,1.1C35.4,6,35.7,5.9,35.7,4.9
			L35.7,4.9z M31.3,5.1V3.2c0-2.1,1.3-2.5,3.1-2.5c1.8,0,3.2,0.4,3.2,2.5v1.9c0,2.1-1.3,2.5-3.2,2.5C32.6,7.6,31.3,7.2,31.3,5.1
			L31.3,5.1z"/>
		<path class="st2" d="M41.5,4.2c0.7,0,0.8-0.1,0.8-1c0-0.7-0.1-0.9-0.8-0.9h-1.2v1.9H41.5L41.5,4.2z M38.4,7.5V0.7h3.4
			c1.7,0,2.3,0.7,2.3,2.5c0,1.9-0.4,2.6-2.3,2.6h-1.6v1.7H38.4L38.4,7.5z"/>
		<polygon class="st2" points="47.9,7.5 46.1,7.5 46.1,2.3 44.4,2.3 44.4,0.7 49.8,0.7 49.8,2.3 47.9,2.3 47.9,7.5 		"/>
		<polygon class="st2" points="52.1,7.5 50.3,7.5 50.3,0.7 52.1,0.7 52.1,7.5 		"/>
		<polygon class="st2" points="55.1,7.5 53.3,7.5 53.3,0.7 56.1,0.7 57.4,5 57.5,5 58.7,0.7 61.7,0.7 61.7,7.5 59.9,7.5 60,2.3 
			60,2.3 58.3,7.5 56.7,7.5 54.9,2.3 54.9,2.3 55.1,7.5 		"/>
		<polygon class="st2" points="64.6,7.5 62.8,7.5 62.8,0.7 64.6,0.7 64.6,7.5 		"/>
		<polygon class="st2" points="70.9,2.2 67.7,5.9 67.7,5.9 70.9,5.9 70.9,7.5 65.4,7.5 65.4,6 68.6,2.4 68.6,2.3 65.6,2.3 65.6,0.7 
			70.9,0.7 70.9,2.2 		"/>
		<polygon class="st2" points="73.6,3.4 76.5,3.4 76.5,4.7 73.6,4.7 73.6,6 76.7,6 76.7,7.5 71.7,7.5 71.7,0.7 76.7,0.7 76.7,2.2 
			73.6,2.2 73.6,3.4 		"/>
		<path class="st2" d="M79.6,5.9h1.6c0.7,0,0.9-0.4,0.9-1.2V3.4c0-0.9-0.3-1.1-0.9-1.1h-1.6V5.9L79.6,5.9z M77.8,0.7h3.4
			c1.9,0,2.7,0.7,2.7,2.6v1.4c0,1.9-0.6,2.7-2.5,2.7h-3.7V0.7L77.8,0.7z"/>
		<path class="st2" d="M91.2,4.2c0.7,0,0.8-0.1,0.8-1c0-0.7-0.1-0.9-0.8-0.9H90v1.9H91.2L91.2,4.2z M88.2,7.5V0.7h3.4
			c1.7,0,2.3,0.7,2.3,2.5c0,1.9-0.4,2.6-2.3,2.6H90v1.7H88.2L88.2,7.5z"/>
		<path class="st2" d="M97.8,4.1c0.8,0,0.8-0.3,0.8-1.1c0-0.6-0.2-0.8-0.8-0.8h-1.4v1.8H97.8L97.8,4.1z M94.6,0.7h3.5
			c1.6,0,2.3,0.4,2.3,2.1c0,1.1,0,1.8-1.3,2.1v0.1c0.7,0,1.2,0.4,1.2,1.2v1.4h-1.8v-1c0-0.5-0.2-0.9-0.7-0.9h-1.4v1.8h-1.8V0.7
			L94.6,0.7z"/>
		<path class="st2" d="M105.6,4.9V3.4c0-1-0.3-1.1-1.3-1.1c-0.9,0-1.3,0.1-1.3,1.1v1.5c0,1,0.3,1.1,1.3,1.1
			C105.2,6,105.6,5.9,105.6,4.9L105.6,4.9z M101.1,5.1V3.2c0-2.1,1.3-2.5,3.1-2.5c1.8,0,3.2,0.4,3.2,2.5v1.9c0,2.1-1.3,2.5-3.2,2.5
			C102.4,7.6,101.1,7.2,101.1,5.1L101.1,5.1z"/>
		<path class="st2" d="M114,4.9v0.2c0,0.7,0,1.4-0.6,1.9c-0.6,0.5-1.4,0.5-2.2,0.5c-1.9,0-3.2-0.1-3.2-2.6V3.2
			c0-2.3,1.2-2.6,3.2-2.6c1.9,0,2.7,0.2,2.8,2.2v0.3h-1.9V2.9c-0.1-0.6-0.5-0.7-1.1-0.7c-1,0-1.1,0.3-1.1,1.3v1.1c0,1,0,1.4,1.1,1.4
			c0.8,0,1.1-0.1,1.1-0.9V4.9H114L114,4.9z"/>
		<polygon class="st2" points="116.7,3.4 119.7,3.4 119.7,4.7 116.7,4.7 116.7,6 119.9,6 119.9,7.5 114.9,7.5 114.9,0.7 119.8,0.7 
			119.8,2.2 116.7,2.2 116.7,3.4 		"/>
		<g>
			<path class="st2" d="M124.2,3.4c2,0.1,2.5,0.4,2.5,2c0,1.1,0,2.2-3,2.2c-1.7,0-2.9,0-2.9-2.3h1.7c0,0.7,0.3,0.8,1.1,0.8
				c0.9,0,1.1-0.1,1.1-0.6c0-0.6-0.1-0.6-1-0.6l-0.4,0c-1.7-0.1-2.7-0.1-2.7-2.1c0-2,1.1-2.1,2.9-2.1c1.5,0,2.8,0,2.8,1.9v0.3h-1.7
				c0-0.7-0.3-0.7-1-0.7c-1,0-1.1,0.2-1.1,0.6c0,0.5,0.3,0.6,0.7,0.6L124.2,3.4L124.2,3.4z"/>
			<path class="st2" d="M130.7,3.4c2,0.1,2.5,0.4,2.5,2c0,1.1,0,2.2-2.9,2.2c-1.7,0-2.9,0-2.9-2.3h1.7c0,0.7,0.3,0.8,1.1,0.8
				c0.9,0,1.1-0.1,1.1-0.6c0-0.6-0.1-0.6-1-0.6l-0.4,0c-1.7-0.1-2.7-0.1-2.7-2.1c0-2,1.1-2.1,2.9-2.1c1.5,0,2.8,0,2.8,1.9v0.3h-1.7
				c0-0.7-0.3-0.7-1-0.7c-1,0-1.1,0.2-1.1,0.6c0,0.5,0.3,0.6,0.7,0.6L130.7,3.4L130.7,3.4z"/>
		</g>
		<path class="st2" d="M33.3,15.8h1.6c0.7,0,0.9-0.4,0.9-1.2v-1.4c0-0.9-0.3-1.1-0.9-1.1h-1.6V15.8L33.3,15.8z M31.5,10.5h3.4
			c1.9,0,2.7,0.7,2.7,2.6v1.4c0,1.9-0.6,2.7-2.5,2.7h-3.7V10.5L31.5,10.5z"/>
		<polygon class="st2" points="40.4,13.3 43.3,13.3 43.3,14.5 40.4,14.5 40.4,15.8 43.6,15.8 43.6,17.3 38.6,17.3 38.6,10.5 
			43.5,10.5 43.5,12 40.4,12 40.4,13.3 		"/>
		<path class="st2" d="M47.8,13.2c2,0.1,2.5,0.4,2.5,2c0,1.1,0,2.2-2.9,2.2c-1.7,0-2.9,0-2.9-2.3h1.7c0,0.7,0.3,0.8,1.1,0.8
			c0.9,0,1.1-0.1,1.1-0.6c0-0.6-0.1-0.6-1-0.6l-0.4,0c-1.7-0.1-2.7-0.1-2.7-2.1c0-2,1.1-2.1,2.9-2.1c1.5,0,2.8,0,2.8,1.9v0.3h-1.7
			c0-0.7-0.3-0.7-1-0.7c-1,0-1.1,0.2-1.1,0.6c0,0.5,0.3,0.6,0.7,0.6L47.8,13.2L47.8,13.2z"/>
		<polygon class="st2" points="53.1,17.3 51.3,17.3 51.3,10.5 53.1,10.5 53.1,17.3 		"/>
		<path class="st2" d="M58.3,12.6c0-0.7-0.6-0.7-1.2-0.7c-1.3,0-1.3,0.4-1.4,1.5v1.1c0,1.2,0.4,1.3,1.4,1.3c0.9,0,1.2-0.2,1.2-1.2
			h-1.3v-1.3h3.1v1.2c0,2.3-0.6,2.7-3,2.7c-2.1,0-3.2-0.4-3.2-2.6v-1.8c0-2.3,1.2-2.6,3.2-2.6c1.8,0,3,0,3,2.2H58.3L58.3,12.6z"/>
		<polygon class="st2" points="62.9,17.3 61.1,17.3 61.1,10.5 64.1,10.5 66.1,15.8 66.2,15.8 66.1,10.5 67.9,10.5 67.9,17.3 
			64.8,17.3 62.9,12.1 62.8,12.1 62.9,17.3 		"/>
		<path class="st2" d="M72.1,13.2c2,0.1,2.5,0.4,2.5,2c0,1.1,0,2.2-2.9,2.2c-1.7,0-2.9,0-2.9-2.3h1.7c0,0.7,0.3,0.8,1.1,0.8
			c0.9,0,1.1-0.1,1.1-0.6c0-0.6-0.1-0.6-1-0.6l-0.4,0c-1.7-0.1-2.7-0.1-2.7-2.1c0-2,1.1-2.1,2.9-2.1c1.5,0,2.8,0,2.8,1.9v0.3h-1.7
			c0-0.7-0.3-0.7-1-0.7c-1,0-1.1,0.2-1.1,0.6c0,0.5,0.3,0.6,0.7,0.6L72.1,13.2L72.1,13.2z"/>
		<polygon class="st2" points="80.6,15.8 83.4,15.8 83.4,17.3 78.7,17.3 78.7,10.5 80.6,10.5 80.6,15.8 		"/>
		<polygon class="st2" points="85.9,15.8 88.7,15.8 88.7,17.3 84.1,17.3 84.1,10.5 85.9,10.5 85.9,15.8 		"/>
		<path class="st2" d="M95.2,14.8V15c0,0.7,0,1.4-0.6,1.9c-0.6,0.5-1.4,0.5-2.2,0.5c-1.9,0-3.2-0.1-3.2-2.6v-1.8
			c0-2.3,1.2-2.6,3.2-2.6c1.9,0,2.7,0.2,2.8,2.2V13h-1.9v-0.3c-0.1-0.6-0.5-0.7-1.1-0.7c-1,0-1.1,0.3-1.1,1.3v1.1c0,1,0,1.4,1.1,1.4
			c0.8,0,1.1-0.1,1.1-0.9v-0.2H95.2L95.2,14.8z"/>
		<path class="st2" d="M27.9,15.9L27.5,17l-0.4-1.1h-0.4v1.5H27v-1.2l0.4,1.2h0.2l0.4-1.2v1.2h0.3v-1.5H27.9L27.9,15.9z M25.1,15.9
			v0.3h0.5v1.3h0.3v-1.3h0.5v-0.3H25.1L25.1,15.9z"/>
		<path class="st3" d="M12,0.6L12,0.6H0.9v16.9l11.1,0c0,0-2.6-8.4-2.6-8.4C9.4,9,12,0.6,12,0.6L12,0.6z"/>
		<polygon class="st4" points="16,0.6 10.9,9 16,17.4 23.8,17.4 23.8,0.6 16,0.6 		"/>
	</g>
</g>
<g id="koch_knight" class="st0">
	<g class="st1">
		<g>
			<g>
				<path d="M19.9,4h0.7l2.3-3.4h2.9L22.7,5l3.4,4.6h-3l-2.5-3.5h-0.7v3.5h-2.4v-9h2.4V4z"/>
				<path d="M26.1,6.4V3.8c0-2.8,1.7-3.3,4.2-3.3s4.2,0.5,4.2,3.3v2.5c0,2.8-1.7,3.3-4.2,3.3S26.1,9.1,26.1,6.4z M32,6.1v-2
					c0-1.3-0.4-1.5-1.7-1.5s-1.7,0.1-1.7,1.5v2c0,1.3,0.4,1.5,1.7,1.5S32,7.4,32,6.1z"/>
				<path d="M43.2,6.2v0.3c0,1,0,1.9-0.8,2.5c-0.8,0.7-1.8,0.7-2.8,0.7c-2.4,0-4.2-0.1-4.2-3.4V3.9c0-3,1.6-3.4,4.2-3.4
					c2.5,0,3.6,0.3,3.7,2.9v0.3h-2.5V3.5c-0.1-0.8-0.6-0.9-1.5-0.9c-1.4,0-1.5,0.4-1.5,1.7v1.4c0,1.3,0.1,1.9,1.5,1.9
					c1,0,1.5-0.1,1.5-1.1V6.2H43.2z"/>
				<path d="M52.2,9.6h-2.4V6.1h-3.1v3.5h-2.4v-9h2.4V4h3.1V0.6h2.4V9.6z"/>
				<path d="M60.4,4h0.7l2.3-3.4h2.9L63.2,5l3.4,4.6h-3l-2.5-3.5h-0.7v3.5h-2.4v-9h2.4V4z"/>
				<path d="M69.4,9.6H67v-9h4l2.6,6.9h0.1l-0.1-6.9H76v9h-4.1l-2.5-6.9h-0.1L69.4,9.6z"/>
				<path d="M79.8,9.6h-2.4v-9h2.4V9.6z"/>
				<path d="M86.8,3.4c0-0.9-0.8-0.9-1.5-0.9c-1.7,0-1.8,0.5-1.8,2v1.5c0,1.6,0.6,1.8,1.8,1.8c1.2,0,1.5-0.3,1.5-1.5h-1.7V4.5h4.1
					v1.6c0,3-0.8,3.6-4,3.6c-2.8,0-4.3-0.5-4.3-3.4V3.9c0-3,1.6-3.4,4.3-3.4c2.3,0,4,0,4,2.9H86.8z"/>
				<path d="M98.3,9.6h-2.4V6.1h-3.1v3.5h-2.4v-9h2.4V4h3.1V0.6h2.4V9.6z"/>
				<path d="M103.8,9.6h-2.4V2.7h-2.3V0.6h7.1v2.1h-2.4V9.6z"/>
				<path d="M113.6,7.5h3.7v2.1h-6.1v-9h2.4V7.5z"/>
				<path d="M120.6,7.5h3.7v2.1h-6.1v-9h2.4V7.5z"/>
				<path d="M132.8,6.2v0.3c0,1,0,1.9-0.8,2.5c-0.8,0.7-1.8,0.7-2.8,0.7c-2.4,0-4.2-0.1-4.2-3.4V3.9c0-3,1.6-3.4,4.2-3.4
					c2.5,0,3.6,0.3,3.7,2.9v0.3h-2.5V3.5c-0.1-0.8-0.6-0.9-1.5-0.9c-1.4,0-1.5,0.4-1.5,1.7v1.4c0,1.3,0.1,1.9,1.5,1.9
					c1,0,1.5-0.1,1.5-1.1V6.2H132.8z"/>
			</g>
			<path d="M13.5,8.7v0.1h0.3v0.7H14V8.8h0.3V8.7H13.5z M15,8.7l-0.2,0.6l-0.2-0.6h-0.2v0.8h0.2V8.9l0.2,0.7h0.1l0.2-0.7v0.7h0.2
				V8.7H15z"/>
			<g>
				<path class="st5" d="M6.4,0.4L6.4,0.4H0.4v9.2l6,0C6.4,9.6,5,5,5,5C5,5,6.4,0.4,6.4,0.4"/>
				<polygon class="st4" points="8.6,0.4 5.8,5 8.6,9.6 12.8,9.6 12.8,0.4 				"/>
			</g>
		</g>
	</g>
</g>
<g id="membrane">
	<g>
		<path d="M29.9,5.2c0.1-0.1,4.4-4.6,4.4-4.6h-0.1h-3.9c0,0-3.8,3.5-4,3.7c0-0.2,0-3.7,0-3.7h-3.8V11h3.8c0,0,0-2.2,0-2.2
			c0,0,0.7-0.6,0.8-0.7C27,8.1,29.3,11,29.3,11h5.2C34.5,11,29.9,5.2,29.9,5.2L29.9,5.2z"/>
		<path d="M72.6,0.6h-4c0,0,0,3.6,0,3.7c-0.1,0-3.2,0-3.3,0c0-0.1,0-3.7,0-3.7h-3.9V11l4,0c0,0,0-3.7,0-3.8c0.1,0,3.2,0,3.3,0
			c0,0.1,0,3.8,0,3.8l4.1,0L72.6,0.6L72.6,0.6L72.6,0.6z"/>
		<path class="st5" d="M42.5,3.7v4.2c0,0.4-0.3,0.8-0.7,0.8h-2.2c-0.4,0-0.7-0.3-0.7-0.8V3.7c0-0.4,0.3-0.8,0.7-0.8h2.2
			C42.2,3,42.5,3.3,42.5,3.7L42.5,3.7z M44.1,0.5h-6.8c-1.3,0-2.3,1.2-2.3,2.6v5.2c0,1.4,1,2.6,2.3,2.6h6.8c1.3,0,2.3-1.2,2.3-2.6
			V3.2C46.4,1.7,45.3,0.5,44.1,0.5L44.1,0.5z"/>
		<path class="st5" d="M59.5,4.3V3.6c0-0.9-0.3-1.9-0.9-2.4c-0.4-0.4-0.8-0.6-1.2-0.6h-7.1c-1.2,0-2.1,1.3-2.1,3V8
			c0,1.7,0.9,3,2.1,3h7.1c1.2,0,2.1-1.3,2.1-3V6.8l-3.7,0l-0.1,1c0,0.4-0.3,0.9-0.7,0.9h-2.2c-0.4,0-0.7-0.3-0.7-0.8V3.8
			c0-0.4,0.3-0.8,0.7-0.8h2.2c0.4,0,0.7,0.3,0.7,0.8v0.6H59.5L59.5,4.3z"/>
		<g>
			<path class="st6" d="M0.6,23.6c7.5-2.8,14.4,4,24,0c7.5-2.8,14.4,4,24,0c7.5-2.8,14.4,4,24,0V23c-9.6,4-16.5-2.8-24,0
				c-9.6,4-16.5-2.8-24,0c-9.6,4-16.5-2.8-24,0V23.6L0.6,23.6z"/>
			<path class="st6" d="M0.6,26.6c7.5-2.8,14.4,4,24,0c7.5-2.8,14.4,4,24,0c7.5-2.8,14.4,4,24,0V26c-9.6,4-16.5-2.8-24,0
				c-9.6,4-16.5-2.8-24,0c-9.6,4-16.5-2.8-24,0V26.6L0.6,26.6z"/>
			<path class="st6" d="M0.6,22.1c7.5-2.8,14.4,4,24,0c7.5-2.8,14.4,4,24,0c7.5-2.8,14.4,4,24,0v-0.6c-9.6,4-16.5-2.8-24,0
				c-9.6,4-16.5-2.8-24,0c-9.6,4-16.5-2.8-24,0V22.1L0.6,22.1z"/>
			<path class="st6" d="M0.6,25.1c7.5-2.8,14.4,4,24,0c7.5-2.8,14.4,4,24,0c7.5-2.8,14.4,4,24,0v-0.6c-9.6,4-16.5-2.8-24,0
				c-9.6,4-16.5-2.8-24,0c-9.6,4-16.5-2.8-24,0V25.1L0.6,25.1z"/>
		</g>
		<path class="st6" d="M72.5,28.6l0-0.6c0-0.1,0-0.2,0-0.3h0c0,0.1-0.1,0.2-0.1,0.3l-0.2,0.5h-0.1l-0.2-0.5c0-0.1,0-0.2-0.1-0.3h0
			c0,0.1,0,0.2,0,0.3l0,0.6h-0.1l0.1-0.9h0.2l0.2,0.5c0,0.1,0,0.1,0.1,0.2h0c0-0.1,0-0.2,0.1-0.2l0.2-0.5h0.2l0.1,0.9H72.5
			L72.5,28.6z M71.6,27.7v0.1h-0.3v0.8h-0.1v-0.8h-0.3v-0.1H71.6L71.6,27.7z"/>
		<polygon points="3.6,18.3 3.1,18.3 1.3,14 1.3,14 1.3,18.3 0.8,18.3 0.8,13.6 1.7,13.6 3.3,17.6 5,13.6 5.9,13.6 5.9,18.3 
			5.4,18.3 5.4,14 5.4,14 3.6,18.3 		"/>
		<g>
			<polygon class="st7" points="3.6,18.3 3.1,18.3 1.3,14 1.3,14 1.3,18.3 0.8,18.3 0.8,13.6 1.7,13.6 3.3,17.6 5,13.6 5.9,13.6 
				5.9,18.3 5.4,18.3 5.4,14 5.4,14 3.6,18.3 			"/>
		</g>
		<polygon points="7.4,15.6 9.8,15.6 9.8,16.1 7.4,16.1 7.4,17.8 9.9,17.8 9.9,18.3 6.9,18.3 6.9,13.6 9.9,13.6 9.9,14.1 7.4,14.1 
			7.4,15.6 		"/>
		<polygon class="st7" points="7.4,15.6 9.8,15.6 9.8,16.1 7.4,16.1 7.4,17.8 9.9,17.8 9.9,18.3 6.9,18.3 6.9,13.6 9.9,13.6 
			9.9,14.1 7.4,14.1 7.4,15.6 		"/>
		<polygon points="13.7,18.3 13.2,18.3 11.4,14 11.4,14 11.4,18.3 10.9,18.3 10.9,13.6 11.8,13.6 13.5,17.6 15.1,13.6 16.1,13.6 
			16.1,18.3 15.5,18.3 15.5,14 15.5,14 13.7,18.3 		"/>
		<polygon class="st7" points="13.7,18.3 13.2,18.3 11.4,14 11.4,14 11.4,18.3 10.9,18.3 10.9,13.6 11.8,13.6 13.5,17.6 15.1,13.6 
			16.1,13.6 16.1,18.3 15.5,18.3 15.5,14 15.5,14 13.7,18.3 		"/>
		<path d="M17.7,14.1h1.6c0.6,0,0.8,0.1,0.8,0.7c0,0.7-0.2,0.9-0.9,0.9h-1.5V14.1L17.7,14.1z M19.7,18.3c0.8,0,1.1-0.5,1.1-1.3
			c0-0.6-0.1-1-0.7-1.1v0c0.5-0.2,0.6-0.5,0.6-1c0-0.8-0.2-1.2-1.1-1.2h-2.4v4.7H19.7L19.7,18.3z M17.7,16.1h1.7
			c0.7,0,0.8,0.3,0.8,0.9c0,0.7-0.3,0.8-0.8,0.8h-1.7V16.1L17.7,16.1z"/>
		<path class="st7" d="M17.7,14.1h1.6c0.6,0,0.8,0.1,0.8,0.7c0,0.7-0.2,0.9-0.9,0.9h-1.5V14.1L17.7,14.1z M19.7,18.3
			c0.8,0,1.1-0.5,1.1-1.3c0-0.6-0.1-1-0.7-1.1v0c0.5-0.2,0.6-0.5,0.6-1c0-0.8-0.2-1.2-1.1-1.2h-2.4v4.7H19.7L19.7,18.3z M17.7,16.1
			h1.7c0.7,0,0.8,0.3,0.8,0.9c0,0.7-0.3,0.8-0.8,0.8h-1.7V16.1L17.7,16.1z"/>
		<path d="M22.4,16.4h1.7c0.6,0,0.8,0.3,0.8,0.9v1h0.5V17c0-0.5-0.2-0.8-0.8-0.8v0c0.7-0.1,0.8-0.6,0.8-1.2c0-1.1-0.4-1.3-1.4-1.3
			h-2.1v4.7h0.5V16.4L22.4,16.4z M22.4,15.9v-1.9H24c0.8,0,0.9,0.2,0.9,0.8c0,0.8-0.1,1-0.9,1H22.4L22.4,15.9z"/>
		<path class="st7" d="M22.4,16.4h1.7c0.6,0,0.8,0.3,0.8,0.9v1h0.5V17c0-0.5-0.2-0.8-0.8-0.8v0c0.7-0.1,0.8-0.6,0.8-1.2
			c0-1.1-0.4-1.3-1.4-1.3h-2.1v4.7h0.5V16.4L22.4,16.4z M22.4,15.9v-1.9H24c0.8,0,0.9,0.2,0.9,0.8c0,0.8-0.1,1-0.9,1H22.4L22.4,15.9
			z"/>
		<path d="M29.4,17.3l0.4,1h0.5l-1.7-4.7h-0.7l-1.7,4.7h0.6l0.4-1H29.4L29.4,17.3z M29.2,16.9h-2.1l1-2.8L29.2,16.9L29.2,16.9z"/>
		<path class="st7" d="M29.4,17.3l0.4,1h0.5l-1.7-4.7h-0.7l-1.7,4.7h0.6l0.4-1H29.4L29.4,17.3z M29.2,16.9h-2.1l1-2.8L29.2,16.9
			L29.2,16.9z"/>
		<polygon points="35.1,18.3 34.2,18.3 31.6,14.1 31.6,14.1 31.6,18.3 31.1,18.3 31.1,13.6 31.9,13.6 34.5,17.9 34.5,17.9 
			34.5,13.6 35.1,13.6 35.1,18.3 		"/>
		<polygon class="st7" points="35.1,18.3 34.2,18.3 31.6,14.1 31.6,14.1 31.6,18.3 31.1,18.3 31.1,13.6 31.9,13.6 34.5,17.9 
			34.5,17.9 34.5,13.6 35.1,13.6 35.1,18.3 		"/>
		<polygon points="36.6,15.7 38.9,15.7 38.9,16.1 36.6,16.1 36.6,17.8 39.1,17.8 39.1,18.3 36.1,18.3 36.1,13.6 39.1,13.6 
			39.1,14.1 36.6,14.1 36.6,15.7 		"/>
		<polygon class="st7" points="36.6,15.7 38.9,15.7 38.9,16.1 36.6,16.1 36.6,17.8 39.1,17.8 39.1,18.3 36.1,18.3 36.1,13.6 
			39.1,13.6 39.1,14.1 36.6,14.1 36.6,15.7 		"/>
		<path d="M42.3,14.9c0-1.2,0.6-1.4,1.7-1.4c1,0,1.7,0,1.7,1.3h-0.5c0-0.8-0.2-0.8-1.2-0.8c-1,0-1.2,0.1-1.2,0.8
			c0,0.9,0.4,0.8,1.3,0.8c1.1,0.1,1.7,0,1.7,1.3c0,1.3-0.6,1.4-1.8,1.4c-1.2,0-1.8-0.1-1.7-1.5h0.5c0,1,0.2,1,1.2,1
			c1,0,1.3,0,1.3-0.9c0-0.9-0.4-0.7-1.2-0.8C43.1,16.1,42.3,16.2,42.3,14.9L42.3,14.9z"/>
		<path class="st7" d="M42.3,14.9c0-1.2,0.6-1.4,1.7-1.4c1,0,1.7,0,1.7,1.3h-0.5c0-0.8-0.2-0.8-1.2-0.8c-1,0-1.2,0.1-1.2,0.8
			c0,0.9,0.4,0.8,1.3,0.8c1.1,0.1,1.7,0,1.7,1.3c0,1.3-0.6,1.4-1.8,1.4c-1.2,0-1.8-0.1-1.7-1.5h0.5c0,1,0.2,1,1.2,1
			c1,0,1.3,0,1.3-0.9c0-0.9-0.4-0.7-1.2-0.8C43.1,16.1,42.3,16.2,42.3,14.9L42.3,14.9z"/>
		<polygon points="48.4,16.3 48.4,18.3 47.9,18.3 47.9,16.3 46.2,13.6 46.8,13.6 48.2,15.8 49.6,13.6 50.2,13.6 48.4,16.3 		"/>
		<polygon class="st7" points="48.4,16.3 48.4,18.3 47.9,18.3 47.9,16.3 46.2,13.6 46.8,13.6 48.2,15.8 49.6,13.6 50.2,13.6 
			48.4,16.3 		"/>
		<path d="M50.7,14.9c0-1.2,0.6-1.4,1.7-1.4c1,0,1.7,0,1.7,1.3h-0.5c0-0.8-0.2-0.8-1.2-0.8c-1,0-1.2,0.1-1.2,0.8
			c0,0.9,0.4,0.8,1.3,0.8c1.1,0.1,1.7,0,1.7,1.3c0,1.3-0.6,1.4-1.8,1.4c-1.2,0-1.8-0.1-1.7-1.5h0.5c0,1,0.2,1,1.2,1
			c1,0,1.3,0,1.3-0.9c0-0.9-0.4-0.7-1.2-0.8C51.5,16.1,50.7,16.2,50.7,14.9L50.7,14.9z"/>
		<path class="st7" d="M50.7,14.9c0-1.2,0.6-1.4,1.7-1.4c1,0,1.7,0,1.7,1.3h-0.5c0-0.8-0.2-0.8-1.2-0.8c-1,0-1.2,0.1-1.2,0.8
			c0,0.9,0.4,0.8,1.3,0.8c1.1,0.1,1.7,0,1.7,1.3c0,1.3-0.6,1.4-1.8,1.4c-1.2,0-1.8-0.1-1.7-1.5h0.5c0,1,0.2,1,1.2,1
			c1,0,1.3,0,1.3-0.9c0-0.9-0.4-0.7-1.2-0.8C51.5,16.1,50.7,16.2,50.7,14.9L50.7,14.9z"/>
		<polygon points="56.8,18.3 56.2,18.3 56.2,14.1 54.7,14.1 54.7,13.6 58.3,13.6 58.3,14.1 56.8,14.1 56.8,18.3 		"/>
		<polygon class="st7" points="56.8,18.3 56.2,18.3 56.2,14.1 54.7,14.1 54.7,13.6 58.3,13.6 58.3,14.1 56.8,14.1 56.8,18.3 		"/>
		<polygon points="59.4,15.7 61.7,15.7 61.7,16.1 59.4,16.1 59.4,17.8 61.8,17.8 61.8,18.3 58.9,18.3 58.9,13.6 61.8,13.6 
			61.8,14.1 59.4,14.1 59.4,15.7 		"/>
		<polygon class="st7" points="59.4,15.7 61.7,15.7 61.7,16.1 59.4,16.1 59.4,17.8 61.8,17.8 61.8,18.3 58.9,18.3 58.9,13.6 
			61.8,13.6 61.8,14.1 59.4,14.1 59.4,15.7 		"/>
		<polygon points="65.6,18.3 65.1,18.3 63.4,14 63.3,14 63.3,18.3 62.8,18.3 62.8,13.6 63.7,13.6 65.4,17.6 67,13.6 67.9,13.6 
			67.9,18.3 67.4,18.3 67.4,14 67.4,14 65.6,18.3 		"/>
		<polygon class="st7" points="65.6,18.3 65.1,18.3 63.4,14 63.3,14 63.3,18.3 62.8,18.3 62.8,13.6 63.7,13.6 65.4,17.6 67,13.6 
			67.9,13.6 67.9,18.3 67.4,18.3 67.4,14 67.4,14 65.6,18.3 		"/>
		<path d="M68.9,14.9c0-1.2,0.6-1.4,1.7-1.4c1,0,1.7,0,1.7,1.3h-0.5c0-0.8-0.2-0.8-1.2-0.8c-1,0-1.2,0.1-1.2,0.8
			c0,0.9,0.4,0.8,1.3,0.8c1.1,0.1,1.7,0,1.7,1.3c0,1.3-0.6,1.4-1.8,1.4c-1.2,0-1.8-0.1-1.7-1.5h0.5c0,1,0.2,1,1.2,1
			c1,0,1.3,0,1.3-0.9c0-0.9-0.4-0.7-1.2-0.8C69.7,16.1,68.9,16.2,68.9,14.9L68.9,14.9z"/>
		<g>
			<path class="st7" d="M68.9,14.9c0-1.2,0.6-1.4,1.7-1.4c1,0,1.7,0,1.7,1.3h-0.5c0-0.8-0.2-0.8-1.2-0.8c-1,0-1.2,0.1-1.2,0.8
				c0,0.9,0.4,0.8,1.3,0.8c1.1,0.1,1.7,0,1.7,1.3c0,1.3-0.6,1.4-1.8,1.4c-1.2,0-1.8-0.1-1.7-1.5h0.5c0,1,0.2,1,1.2,1
				c1,0,1.3,0,1.3-0.9c0-0.9-0.4-0.7-1.2-0.8C69.7,16.1,68.9,16.2,68.9,14.9L68.9,14.9z"/>
		</g>
		<path class="st5" d="M7.4,0.7L7.4,0.7H0.6v10.4l6.8,0c0,0-1.6-5.2-1.6-5.2C5.8,5.9,7.4,0.7,7.4,0.7L7.4,0.7z"/>
		<polygon class="st4" points="9.9,0.7 6.8,5.9 9.9,11.1 14.7,11.1 14.7,0.7 9.9,0.7 		"/>
	</g>
</g>
<g id="glitsch" class="st0">
	<g class="st1">
		<path d="M133.6-76.7c0,0-2.3,3.2-2.4,3.3c-0.1,0-0.3,0-0.5,0c0-0.3,0-3.3,0-3.3h-2.8v9.2h2.8c0,0,0-3.2,0-3.5c0.2,0,0.4,0,0.5,0
			c0.1,0.1,2.6,3.5,2.6,3.5h3.5c0,0-3.6-4.5-3.7-4.7c0.1-0.2,3.4-4.5,3.4-4.5H133.6L133.6-76.7z"/>
		<g>
			<path d="M147.4-73.2v2.3c0,3.5,2.2,3.5,4.6,3.5h0.1c1.1,0,2.1,0,3-0.7c0.9-0.7,0.9-1.7,0.9-2.6v-0.4H153v0.4c0,0.9-0.3,1-1.4,1
				c-1.3,0-1.4-0.3-1.4-1.7v-1.4c0-1.3,0.1-1.5,1.4-1.5c0.9,0,1.3,0.1,1.4,0.7l0,0.5h2.9v-0.5c-0.1-2.8-1.3-3.1-4-3.1
				C149.4-76.8,147.4-76.5,147.4-73.2L147.4-73.2z"/>
		</g>
		<path d="M163.1-76.7c0,0,0,3.1,0,3.3c-0.3,0-2.7,0-2.9,0c0-0.3,0-3.3,0-3.3h-2.8v9.2h2.8c0,0,0-3.2,0-3.5c0.3,0,2.7,0,2.9,0
			c0,0.3,0,3.5,0,3.5h2.8v-9.2H163.1L163.1-76.7z"/>
		<path d="M166.8-72.1v2.3h3.7v-2.3H166.8L166.8-72.1z"/>
		<path d="M171.2-73.2v2.3c0,3,1.6,3.5,4.6,3.5c3.3,0,4.3-0.5,4.3-3.7v-1.7h-4.6v2c0,0,1.4,0,1.7,0c0,1-0.3,1.2-1.4,1.2
			c-1.2,0-1.7-0.1-1.7-1.6v-1.4c0-1.4,0-1.8,1.7-1.8c0.9,0,1.4,0,1.5,0.7l0,0.1h2.8v-0.2c0-3-1.9-3-4.3-3
			C173.4-76.8,171.2-76.5,171.2-73.2L171.2-73.2z"/>
		<path d="M181.5-76.7v9.2h6.7v-2.4c0,0-3.6,0-3.9,0c0-0.3,0-6.8,0-6.8H181.5L181.5-76.7z"/>
		<path d="M189.4-76.7v9.2h2.8v-9.2H189.4L189.4-76.7z"/>
		<path d="M193.2-76.7v2.4c0,0,2.1,0,2.4,0c0,0.3,0,6.8,0,6.8h2.8c0,0,0-6.5,0-6.8c0.3,0,2.5,0,2.5,0v-2.4H193.2L193.2-76.7z"/>
		<path d="M201.6-73.9c0,2.6,1.4,2.7,3.6,2.8L206-71c1.1,0.1,1.1,0.1,1.1,0.7c0,0.6-0.2,0.7-1.4,0.7c-1.2,0-1.4-0.1-1.4-0.9v-0.2
			h-2.7v0.2c0,3.1,1.8,3.1,4.1,3.1c1.9,0,3-0.3,3.6-0.9c0.6-0.6,0.6-1.4,0.6-2.1v-0.1c0-2.2-0.8-2.5-3.6-2.7l0,0l-1-0.1
			c-0.7,0-0.9-0.1-0.9-0.6c0-0.4,0-0.6,1.3-0.6c1,0,1.2,0,1.2,0.8v0.2h2.7v-0.5c0-2.6-2-2.6-4-2.6C203.2-76.8,201.6-76.6,201.6-73.9
			L201.6-73.9z"/>
		<g>
			<path d="M211-73.2v2.3c0,3.5,2.2,3.5,4.6,3.5h0.1c1.1,0,2.1,0,3-0.7c0.9-0.7,0.9-1.7,0.9-2.6v-0.4h-2.9v0.4c0,0.9-0.3,1-1.4,1
				c-1.3,0-1.4-0.3-1.4-1.7v-1.4c0-1.3,0.1-1.5,1.4-1.5c0.9,0,1.3,0.1,1.4,0.7l0,0.5h2.9v-0.5c-0.1-2.8-1.3-3.1-4-3.1
				C213.1-76.8,211-76.5,211-73.2L211-73.2z"/>
		</g>
		<g>
			<path d="M226.7-76.7c0,0,0,3.1,0,3.3c-0.3,0-2.7,0-2.9,0c0-0.3,0-3.3,0-3.3h-2.8v9.2h2.8c0,0,0-3.2,0-3.5c0.3,0,2.7,0,2.9,0
				c0,0.3,0,3.5,0,3.5h2.8v-9.2H226.7L226.7-76.7z"/>
			<path class="st5" d="M118.2-76.7L118.2-76.7h-6.1v9.2l6,0c0,0-1.4-4.6-1.4-4.6C116.7-72.1,118.2-76.7,118.2-76.7L118.2-76.7z"/>
		</g>
		<polygon class="st4" points="120.3,-76.7 117.6,-72.1 120.3,-67.5 124.6,-67.5 124.6,-76.7 120.3,-76.7 		"/>
		<path d="M231.2-75.8h0.1c0.1,0,0.2,0,0.2-0.2c0-0.1-0.1-0.2-0.2-0.2c-0.1,0-0.1,0-0.1,0V-75.8L231.2-75.8z M231.2-75.3H231v-1
			c0.1,0,0.2,0,0.3,0c0.1,0,0.2,0,0.3,0.1c0.1,0,0.1,0.1,0.1,0.2c0,0.1-0.1,0.2-0.2,0.2v0c0.1,0,0.1,0.1,0.2,0.2
			c0,0.2,0,0.2,0.1,0.2h-0.2c0,0,0-0.1-0.1-0.2c0-0.1-0.1-0.2-0.2-0.2h-0.1V-75.3L231.2-75.3z M231.3-76.6c-0.4,0-0.7,0.3-0.7,0.7
			c0,0.4,0.3,0.7,0.7,0.7c0.4,0,0.7-0.3,0.7-0.7C232-76.2,231.7-76.6,231.3-76.6L231.3-76.6L231.3-76.6z M231.3-76.7
			c0.5,0,0.9,0.4,0.9,0.9c0,0.5-0.4,0.9-0.9,0.9c-0.5,0-0.9-0.4-0.9-0.9C230.5-76.3,230.9-76.7,231.3-76.7L231.3-76.7L231.3-76.7z"
			/>
		<path d="M141.8-76.8c-2.3,0-4.5,0.4-4.5,3.4v2.5c0,3,2.2,3.4,4.5,3.4c2.3,0,4.5-0.4,4.5-3.4v-2.5
			C146.3-76.4,144.2-76.8,141.8-76.8z M143.4-71.1c0,1.2-0.3,1.3-1.6,1.3c-1.3,0-1.6-0.1-1.6-1.3v-2c0-1.2,0.3-1.3,1.6-1.3
			c1.3,0,1.6,0.1,1.6,1.3V-71.1z"/>
	</g>
</g>
<g id="zink" class="st0">
	<g class="st1">
		<g>
			<polygon points="150.9,40.3 150.9,56 161.5,56 159,48.2 161.6,40.3 			"/>
			<polygon class="st6" points="165.4,40.3 160.5,48.1 165.5,56 173,56 173,40.3 			"/>
			<g>
				<path d="M183.1,60.5c-0.1-0.5-0.5-0.8-1.1-0.8c-1.2,0-1.5,1-1.5,2s0.3,2,1.5,2c0.5,0,1-0.2,1.1-0.8h0.4
					c-0.1,0.8-0.8,1.2-1.5,1.2c-1.4,0-1.9-1.1-1.9-2.3c0-1.2,0.6-2.3,1.9-2.3c0.7,0,1.4,0.3,1.5,1.1H183.1z"/>
				<path d="M186.6,64c-1.3,0-2-0.9-2-2.3c0-1.4,0.7-2.3,2-2.3c1.3,0,2,0.9,2,2.3C188.6,63.1,187.9,64,186.6,64 M186.6,63.7
					c1.1,0,1.6-1,1.6-2s-0.4-2-1.6-2c-1.1,0-1.6,1-1.6,2S185.4,63.7,186.6,63.7"/>
				<polygon points="190.1,63.9 190.1,59.4 190.7,59.4 192.4,63.4 194.2,59.4 194.8,59.4 194.8,63.9 194.4,63.9 194.4,59.8 
					194.4,59.8 192.6,63.9 192.2,63.9 190.5,59.8 190.5,59.8 190.5,63.9 				"/>
				<path d="M196.5,63.9v-4.5l1.6,0c0.7,0,1.3,0.4,1.3,1.1c0,0.5-0.4,0.9-0.8,1v0c0.6,0.1,1,0.5,1,1.1c0,0.6-0.4,1.2-1.3,1.2H196.5z
					 M197.9,61.4c0.5,0,1-0.2,1-0.8c0-0.7-0.5-0.8-1.1-0.8h-1v1.6H197.9z M196.9,63.6h1c0.8,0,1.2-0.2,1.2-0.9
					c0-0.8-0.6-0.9-1.5-0.9h-0.7V63.6z"/>
				<path d="M201.4,59.4v2.9c0,0.8,0.5,1.3,1.2,1.3c0.7,0,1.2-0.5,1.2-1.3v-2.9h0.4v2.9c0,1-0.6,1.7-1.6,1.7c-1.1,0-1.6-0.7-1.6-1.7
					v-2.9H201.4z"/>
				<path d="M207,64c-0.7,0-1.3-0.5-1.3-1.3h0.4c0,0.7,0.5,0.9,1.1,0.9c0.5,0,1.1-0.3,1.1-0.9c0-0.4-0.3-0.7-0.7-0.8
					c-0.7-0.2-1.8-0.5-1.8-1.4c0-0.8,0.7-1.2,1.4-1.2c0.6,0,1.4,0.2,1.5,1.1h-0.4c0-0.6-0.5-0.7-1-0.7c-0.5,0-1,0.2-1,0.8
					c0,1.3,2.5,0.7,2.5,2.3C208.8,63.7,207.9,64,207,64"/>
				<polygon points="211.2,59.8 209.7,59.8 209.7,59.4 213,59.4 213,59.8 211.6,59.8 211.6,63.9 211.2,63.9 				"/>
				<rect x="214.2" y="59.4" width="0.4" height="4.5"/>
				<path d="M218.1,64c-1.3,0-2-0.9-2-2.3c0-1.4,0.7-2.3,2-2.3c1.3,0,2,0.9,2,2.3C220.1,63.1,219.4,64,218.1,64 M218.1,63.7
					c1.1,0,1.6-1,1.6-2s-0.4-2-1.6-2c-1.1,0-1.6,1-1.6,2S217,63.7,218.1,63.7"/>
				<polygon points="221.5,59.4 222,59.4 224.4,63.4 224.5,63.4 224.5,59.4 224.9,59.4 224.9,63.9 224.3,63.9 221.9,60 221.9,60 
					221.9,63.9 221.5,63.9 				"/>
				<polygon points="185.6,56.2 183.8,56.2 183.8,53.6 181.5,53.6 181.5,56.2 179.7,56.2 179.7,49.6 181.5,49.6 181.5,52.1 
					183.8,52.1 183.8,49.6 185.6,49.6 				"/>
				<path d="M188.2,55.1l-0.3,1.1H186l2-6.6h2.7l2,6.6h-1.8l-0.3-1.1H188.2z M189.4,50.9L189.4,50.9l-0.8,2.9h1.6L189.4,50.9z"/>
				<polygon points="194.9,56.2 193.1,56.2 193.1,49.6 195.9,49.6 197.2,53.7 197.3,53.7 198.5,49.6 201.4,49.6 201.4,56.2 
					199.6,56.2 199.8,51.1 199.7,51.1 198,56.2 196.5,56.2 194.8,51.1 194.7,51.1 				"/>
				<polygon points="210,49.6 211.7,49.6 210.3,56.2 207.7,56.2 206.8,52 206.7,52 205.8,56.2 203.2,56.2 201.8,49.6 203.6,49.6 
					204.6,54.7 204.6,54.7 205.9,49.6 207.7,49.6 208.9,54.7 209,54.7 				"/>
				<path d="M211.9,53.8V52c0-2,1.3-2.4,3.1-2.4s3.1,0.4,3.1,2.4v1.9c0,2-1.3,2.4-3.1,2.4S211.9,55.9,211.9,53.8 M216.3,53.6v-1.5
					c0-1-0.3-1.1-1.2-1.1c-0.9,0-1.2,0.1-1.2,1.1v1.5c0,1,0.3,1.1,1.2,1.1C215.9,54.7,216.3,54.6,216.3,53.6"/>
				<path d="M218.9,49.6h3.4c1.5,0,2.3,0.4,2.3,2c0,1.1,0,1.8-1.3,2v0.1c0.7,0,1.2,0.4,1.2,1.2v1.3h-1.8v-0.9c0-0.5-0.2-0.8-0.7-0.8
					h-1.4v1.8h-1.8V49.6z M222,52.9c0.8,0,0.7-0.3,0.7-1c0-0.6-0.1-0.8-0.7-0.8h-1.4v1.8H222z"/>
				<polygon points="228.6,56.2 226.8,56.2 226.8,51.1 225.1,51.1 225.1,49.6 230.4,49.6 230.4,51.1 228.6,51.1 				"/>
				<polygon points="236.9,56.2 235.2,56.2 235.2,53.6 232.9,53.6 232.9,56.2 231.1,56.2 231.1,49.6 232.9,49.6 232.9,52.1 
					235.2,52.1 235.2,49.6 236.9,49.6 				"/>
				<polygon points="241.7,53.9 241.7,56.2 239.9,56.2 239.9,53.9 237.5,49.6 239.6,49.6 240.8,52.1 240.8,52.1 242,49.6 
					244.1,49.6 				"/>
				<path d="M184,40.4v4.6c0,1.8-0.5,2.1-2.4,2.1c-1.8,0-2.2-0.4-2.2-2.3v-0.5h1.7v0.5c0,0.5,0.1,0.7,0.5,0.7c0.5,0,0.6-0.1,0.6-0.6
					v-4.6H184z"/>
				<path d="M184.8,44.6v-1.9c0-2,1.3-2.4,3.1-2.4c1.8,0,3.1,0.4,3.1,2.4v1.9c0,2-1.3,2.4-3.1,2.4C186,47,184.8,46.7,184.8,44.6
					 M189.1,44.4v-1.5c0-1-0.3-1.1-1.2-1.1c-0.9,0-1.2,0.1-1.2,1.1v1.5c0,1,0.3,1.1,1.2,1.1C188.8,45.5,189.1,45.4,189.1,44.4"/>
				<polygon points="197.4,47 195.7,47 195.7,44.4 193.4,44.4 193.4,47 191.6,47 191.6,40.4 193.4,40.4 193.4,42.8 195.7,42.8 
					195.7,40.4 197.4,40.4 				"/>
				<polygon points="200.1,47 198.4,47 198.4,40.4 201.3,40.4 203.2,45.4 203.3,45.4 203.2,40.4 205,40.4 205,47 202,47 200.1,41.9 
					200,41.9 				"/>
				<polygon points="214.3,41.8 211.2,45.4 211.2,45.4 214.3,45.4 214.3,47 208.9,47 208.9,45.5 212,41.9 212,41.9 209.1,41.9 
					209.1,40.4 214.3,40.4 				"/>
				<rect x="215.3" y="40.4" width="1.8" height="6.6"/>
				<polygon points="219.9,47 218.1,47 218.1,40.4 221.1,40.4 223,45.4 223.1,45.4 223,40.4 224.7,40.4 224.7,47 221.7,47 
					219.9,41.9 219.8,41.9 				"/>
				<polygon points="227.4,42.8 228,42.8 229.7,40.4 231.8,40.4 229.5,43.6 232,47 229.8,47 228,44.4 227.4,44.4 227.4,47 225.7,47 
					225.7,40.4 227.4,40.4 				"/>
				<polygon points="174.2,54.7 173.7,54.7 173.7,54.5 174.8,54.5 174.8,54.7 174.4,54.7 174.4,56 174.2,56 				"/>
				<path d="M176.3,55.4c0-0.2,0-0.5,0-0.7h0c-0.1,0.2-0.1,0.4-0.2,0.6l-0.3,0.8h-0.1l-0.3-0.7c-0.1-0.2-0.1-0.4-0.2-0.6h0
					c0,0.2,0,0.4,0,0.7l0,0.7H175l0.1-1.5h0.3l0.3,0.7c0.1,0.2,0.1,0.4,0.2,0.5h0c0-0.2,0.1-0.3,0.2-0.5l0.3-0.7h0.3l0.1,1.5h-0.2
					L176.3,55.4z"/>
			</g>
		</g>
	</g>
</g>
</svg>
